<svg width="179" height="177" viewBox="0 0 179 177" fill="none" xmlns="http://www.w3.org/2000/svg">
<path d="M89.6613 174.056C41.7833 174.056 2.99528 135.527 2.99528 88.0282C2.99528 40.5297 41.7834 1.99999 89.6613 2C137.539 2 176.327 40.5297 176.327 88.0282C176.327 135.527 137.539 174.056 89.6613 174.056Z" stroke="#1E71B9" stroke-width="4"/>
<path d="M88.119 53.6554C88.3872 53.9237 88.6555 54.0578 89.0579 54.0578H89.3262C89.4604 54.0578 89.4604 54.0578 89.5945 53.9237C89.7287 53.9237 89.7287 53.7895 89.8628 53.7895L89.9969 53.6554C90.1311 53.5213 90.2652 53.3871 90.2652 53.253C90.2652 53.1189 90.3993 52.9847 90.3993 52.7164C90.3993 52.5823 90.3993 52.314 90.2652 52.1799C90.1311 52.0457 90.1311 51.9116 89.9969 51.7775L89.8628 51.6433C89.7287 51.6433 89.7287 51.5092 89.5945 51.5092C89.4604 51.5092 89.4604 51.5092 89.3262 51.375C88.9238 51.2409 88.3872 51.5092 88.119 51.7775C87.9848 51.9116 87.8507 52.0457 87.8507 52.1799C87.8507 52.314 87.7166 52.4481 87.7166 52.7164C87.7166 52.8506 87.7166 53.1189 87.8507 53.253C87.9849 53.3871 87.9848 53.5213 88.119 53.6554Z" fill="#1E71B9"/>
<path d="M116.556 123.273H116.825C116.959 123.273 116.959 123.273 117.093 123.139C117.227 123.139 117.227 123.005 117.361 123.005C117.361 123.005 117.495 122.871 117.63 122.871C117.764 122.737 117.898 122.602 117.898 122.468C117.898 122.334 118.032 122.2 118.032 121.932C118.032 121.798 118.032 121.529 117.898 121.395C117.764 121.261 117.764 121.127 117.63 120.993C117.63 120.993 117.495 120.859 117.361 120.859C117.227 120.859 117.227 120.724 117.093 120.724C116.959 120.724 116.959 120.724 116.825 120.59C116.422 120.456 115.886 120.59 115.617 120.993C115.483 121.127 115.483 121.261 115.349 121.395C115.215 121.529 115.215 121.663 115.215 121.932C115.215 122.334 115.349 122.602 115.617 122.871C115.886 123.139 116.288 123.273 116.556 123.273Z" fill="#1E71B9"/>
<path d="M120.983 122.87C120.983 122.87 121.117 123.004 121.251 123.004C121.251 123.004 121.385 123.138 121.519 123.138C121.653 123.138 121.653 123.138 121.788 123.273H122.056H122.324C122.458 123.273 122.458 123.273 122.592 123.138C122.727 123.138 122.727 123.004 122.861 123.004C122.861 123.004 122.995 122.87 123.129 122.87C123.263 122.736 123.397 122.602 123.397 122.468C123.397 122.334 123.531 122.2 123.531 121.931C123.531 121.797 123.531 121.529 123.397 121.395C123.263 121.261 123.263 121.126 123.129 120.992C123.129 120.992 122.995 120.858 122.861 120.858C122.727 120.858 122.727 120.724 122.592 120.724C122.458 120.724 122.458 120.724 122.324 120.59H121.788C121.653 120.59 121.653 120.59 121.519 120.724C121.385 120.724 121.385 120.858 121.251 120.858C121.117 120.858 121.117 120.992 120.983 120.992C120.849 121.126 120.849 121.261 120.715 121.395C120.58 121.529 120.58 121.663 120.58 121.931C120.58 122.065 120.58 122.334 120.715 122.468C120.849 122.602 120.849 122.736 120.983 122.87Z" fill="#1E71B9"/>
<path d="M126.349 122.871C126.618 123.139 126.886 123.273 127.288 123.273H127.557C127.691 123.273 127.691 123.273 127.825 123.139C127.959 123.139 127.959 123.005 128.093 123.005C128.093 123.005 128.227 122.871 128.361 122.871C128.495 122.737 128.63 122.602 128.63 122.468C128.63 122.334 128.764 122.2 128.764 121.932C128.764 121.529 128.63 121.261 128.361 120.993C127.959 120.59 127.422 120.456 126.886 120.725C126.752 120.859 126.618 120.859 126.483 120.993C126.215 121.261 126.081 121.663 126.081 121.932C126.081 122.066 126.081 122.334 126.215 122.468C126.215 122.602 126.215 122.737 126.349 122.871Z" fill="#1E71B9"/>
<path d="M132.251 123.139C132.385 123.139 132.52 123.273 132.788 123.273H133.056C133.19 123.273 133.19 123.273 133.324 123.139C133.458 123.139 133.459 123.005 133.593 123.005C133.593 123.005 133.727 122.871 133.861 122.871C134.129 122.602 134.263 122.334 134.263 121.932V121.663V121.395C134.263 121.261 134.129 121.261 134.129 121.127C134.129 120.993 133.995 120.993 133.995 120.858C133.995 120.858 133.861 120.724 133.727 120.724C133.593 120.724 133.593 120.59 133.459 120.59C133.324 120.59 133.324 120.59 133.19 120.456C132.922 120.456 132.654 120.456 132.385 120.59C132.251 120.724 132.117 120.724 131.983 120.858C131.983 120.993 131.849 120.993 131.849 121.127C131.849 121.127 131.715 121.261 131.715 121.395C131.715 121.529 131.581 121.529 131.581 121.663V121.932C131.581 122.334 131.715 122.602 131.983 122.871C131.849 123.005 131.983 123.139 132.251 123.139Z" fill="#1E71B9"/>
<path d="M146.47 116.029H140.165V54.5941C140.165 50.4359 136.678 46.9482 132.519 46.9482H45.5979C41.4396 46.9482 37.952 50.4359 37.952 54.5941V116.029H31.7816C30.9767 116.029 30.4402 116.566 30.4402 117.371V120.59C30.4402 124.614 33.7936 127.968 37.8178 127.968H140.433C144.458 127.968 147.811 124.614 147.811 120.59V117.371C147.811 116.566 147.275 116.029 146.47 116.029ZM40.6347 54.5941C40.6347 51.9114 42.9151 49.631 45.5979 49.631H132.653C135.336 49.631 137.617 51.9114 137.617 54.5941V116.029H132.788V56.4721C132.788 56.0696 132.519 55.8014 132.117 55.8014H46.2686C45.8661 55.8014 45.5979 56.0696 45.5979 56.4721V116.029H40.7688L40.6347 54.5941ZM131.312 116.029H46.8051V57.1428H131.312V116.029ZM145.128 120.59C145.128 123.139 142.982 125.285 140.433 125.285H37.8178C35.2692 125.285 33.1229 123.139 33.1229 120.59V118.712H145.263L145.128 120.59Z" fill="#1E71B9"/>
<path d="M79.3999 122.602H98.85C99.2524 122.602 99.5207 122.334 99.5207 121.931C99.5207 121.529 99.2524 121.261 98.85 121.261H79.3999C78.9975 121.261 78.7292 121.529 78.7292 121.931C78.7292 122.334 78.9975 122.602 79.3999 122.602Z" fill="#1E71B9"/>
</svg>
