<svg width="179" height="177" viewBox="0 0 179 177" fill="none" xmlns="http://www.w3.org/2000/svg">
<path d="M89.6613 174.056C41.7833 174.056 2.99528 135.527 2.99528 88.0282C2.99528 40.5297 41.7834 1.99999 89.6613 2C137.539 2 176.327 40.5297 176.327 88.0282C176.327 135.527 137.539 174.056 89.6613 174.056Z" stroke="#1E71B9" stroke-width="4"/>
<path d="M89.1481 29.3428C94.2864 29.3428 99.0191 31.3711 102.4 34.7516C105.78 38.1321 107.808 42.7295 107.808 48.0031C107.808 53.1415 105.78 57.8742 102.4 61.2547C99.0191 64.6352 94.4216 66.6635 89.1481 66.6635C83.8745 66.6635 79.277 64.6352 75.8965 61.2547C72.516 57.8742 70.4877 53.2767 70.4877 48.0031C70.4877 42.8648 72.516 38.1321 75.8965 34.7516C79.277 31.5063 84.0097 29.3428 89.1481 29.3428ZM74.0034 115.613C73.4625 115.613 73.0569 115.207 73.0569 114.667C73.0569 114.126 73.4625 113.72 74.0034 113.72H83.3336C83.8745 113.72 84.2802 114.126 84.2802 114.667C84.2802 115.207 83.8745 115.613 83.3336 115.613H74.0034ZM78.4656 73.2893L87.6607 105.472H94.8273C98.7487 105.472 101.183 107.635 102.264 110.34C102.67 111.421 102.941 112.503 102.941 113.585C102.941 114.667 102.67 115.884 102.264 116.83C101.183 119.534 98.7487 121.698 94.8273 121.698H91.0412C90.9059 121.698 90.9059 121.698 90.7707 121.698C90.6355 121.698 90.6355 121.698 90.5003 121.698H71.1638H68.0538V143.874H110.783V129.406V99.2515C110.783 98.5754 111.324 97.8993 112.135 97.8993C112.812 97.8993 113.488 98.4402 113.488 99.2515V129.406C113.488 130.758 114.029 131.975 114.84 132.786C115.651 133.597 116.868 134.138 118.22 134.138C119.573 134.138 120.79 133.597 121.601 132.786C122.412 131.975 122.953 130.758 122.953 129.406V98.8458C122.818 97.088 122.547 95.3301 122.006 93.7075C119.978 85.9999 114.705 80.3207 107.944 76.805C101.183 73.154 92.9342 71.6666 84.9563 72.3427C82.7928 72.4779 80.6292 72.7484 78.4656 73.2893ZM88.3368 108.176L91.4468 119.129H94.692C97.2612 119.129 98.8839 117.777 99.6952 116.019C99.9656 115.343 100.101 114.531 100.101 113.72C100.101 112.909 99.9656 112.097 99.6952 111.421C99.0191 109.663 97.2612 108.311 94.692 108.311H88.3368V108.176ZM65.6198 119.129L67.9185 108.176H65.2141C64.538 108.176 63.8619 107.635 63.8619 106.824C63.8619 106.148 64.4028 105.472 65.2141 105.472H68.4594L74.95 74.2358C69.4059 76.1289 64.4028 79.1037 60.8871 83.2955C57.3713 87.4873 55.2079 92.8961 55.2079 99.3867V113.585C55.2079 115.072 55.8839 116.424 56.8305 117.371C57.777 118.317 59.1293 118.994 60.6167 118.994H65.6198V119.129ZM76.3022 71.1257C76.4374 70.9905 76.4374 70.9905 76.3022 71.1257C79.1418 70.3144 81.9814 69.9087 84.821 69.6383C93.2046 68.9622 101.994 70.5848 109.296 74.371C116.598 78.2924 122.412 84.3773 124.711 92.8961C125.252 94.654 125.522 96.6823 125.657 98.7106C125.657 98.7106 125.657 98.7106 125.657 98.8458V129.541C125.657 131.569 124.846 133.462 123.494 134.814C122.142 136.167 120.249 136.978 118.22 136.978C116.462 136.978 114.705 136.302 113.488 135.22V145.361C113.488 146.038 112.947 146.714 112.135 146.714H66.7016C66.0255 146.714 65.3494 146.173 65.3494 145.361V121.833H60.7519C58.4531 121.833 56.4248 120.887 55.0726 119.399C53.5852 117.912 52.6387 115.884 52.6387 113.72V99.5219C52.6387 92.3553 55.0726 86.4056 58.994 81.6729C63.3211 76.3993 69.4059 72.8836 76.3022 71.1257ZM88.7424 119.129L76.9783 78.022L68.3242 119.129H71.1638H88.7424ZM100.507 36.7799C97.6669 33.9403 93.6103 32.0472 89.1481 32.0472C84.6858 32.0472 80.7644 33.805 77.7895 36.7799C74.9499 39.6195 73.0569 43.6761 73.0569 48.1383C73.0569 52.6006 74.8147 56.522 77.7895 59.4968C80.6292 62.3364 84.6858 64.2295 89.1481 64.2295C93.6103 64.2295 97.5317 62.4716 100.507 59.4968C103.346 56.6572 105.239 52.6006 105.239 48.1383C105.104 43.6761 103.346 39.6195 100.507 36.7799Z" fill="#1E71B9"/>
<path d="M89.1481 29.3428C94.2864 29.3428 99.0191 31.3711 102.4 34.7516C105.78 38.1321 107.808 42.7295 107.808 48.0031C107.808 53.1415 105.78 57.8742 102.4 61.2547C99.0191 64.6352 94.4216 66.6635 89.1481 66.6635C83.8745 66.6635 79.277 64.6352 75.8965 61.2547C72.516 57.8742 70.4877 53.2767 70.4877 48.0031C70.4877 42.8648 72.516 38.1321 75.8965 34.7516C79.277 31.5063 84.0097 29.3428 89.1481 29.3428ZM74.0034 115.613C73.4625 115.613 73.0569 115.207 73.0569 114.667C73.0569 114.126 73.4625 113.72 74.0034 113.72H83.3336C83.8745 113.72 84.2802 114.126 84.2802 114.667C84.2802 115.207 83.8745 115.613 83.3336 115.613H74.0034ZM78.4656 73.2893L87.6607 105.472H94.8273C98.7487 105.472 101.183 107.635 102.264 110.34C102.67 111.421 102.941 112.503 102.941 113.585C102.941 114.667 102.67 115.884 102.264 116.83C101.183 119.534 98.7487 121.698 94.8273 121.698H91.0412C90.9059 121.698 90.9059 121.698 90.7707 121.698C90.6355 121.698 90.6355 121.698 90.5003 121.698H71.1638H68.0538V143.874H110.783V129.406V99.2515C110.783 98.5754 111.324 97.8993 112.135 97.8993C112.812 97.8993 113.488 98.4402 113.488 99.2515V129.406C113.488 130.758 114.029 131.975 114.84 132.786C115.651 133.597 116.868 134.138 118.22 134.138C119.573 134.138 120.79 133.597 121.601 132.786C122.412 131.975 122.953 130.758 122.953 129.406V98.8458C122.818 97.088 122.547 95.3301 122.006 93.7075C119.978 85.9999 114.705 80.3207 107.944 76.805C101.183 73.154 92.9342 71.6666 84.9563 72.3427C82.7928 72.4779 80.6292 72.7484 78.4656 73.2893ZM88.3368 108.176L91.4468 119.129H94.692C97.2612 119.129 98.8839 117.777 99.6952 116.019C99.9656 115.343 100.101 114.531 100.101 113.72C100.101 112.909 99.9656 112.097 99.6952 111.421C99.0191 109.663 97.2612 108.311 94.692 108.311H88.3368V108.176ZM65.6198 119.129L67.9185 108.176H65.2141C64.538 108.176 63.8619 107.635 63.8619 106.824C63.8619 106.148 64.4028 105.472 65.2141 105.472H68.4594L74.95 74.2358C69.4059 76.1289 64.4028 79.1037 60.8871 83.2955C57.3713 87.4873 55.2079 92.8961 55.2079 99.3867V113.585C55.2079 115.072 55.8839 116.424 56.8305 117.371C57.777 118.317 59.1293 118.994 60.6167 118.994H65.6198V119.129ZM76.3022 71.1257C76.4374 70.9905 76.4374 70.9905 76.3022 71.1257C79.1418 70.3144 81.9814 69.9087 84.821 69.6383C93.2046 68.9622 101.994 70.5848 109.296 74.371C116.598 78.2924 122.412 84.3773 124.711 92.8961C125.252 94.654 125.522 96.6823 125.657 98.7106C125.657 98.7106 125.657 98.7106 125.657 98.8458V129.541C125.657 131.569 124.846 133.462 123.494 134.814C122.142 136.167 120.249 136.978 118.22 136.978C116.462 136.978 114.705 136.302 113.488 135.22V145.361C113.488 146.038 112.947 146.714 112.135 146.714H66.7016C66.0255 146.714 65.3494 146.173 65.3494 145.361V121.833H60.7519C58.4531 121.833 56.4248 120.887 55.0726 119.399C53.5852 117.912 52.6387 115.884 52.6387 113.72V99.5219C52.6387 92.3553 55.0726 86.4056 58.994 81.6729C63.3211 76.3993 69.4059 72.8836 76.3022 71.1257ZM88.7424 119.129L76.9783 78.022L68.3242 119.129H71.1638H88.7424ZM100.507 36.7799C97.6669 33.9403 93.6103 32.0472 89.1481 32.0472C84.6858 32.0472 80.7644 33.805 77.7895 36.7799C74.9499 39.6195 73.0569 43.6761 73.0569 48.1383C73.0569 52.6006 74.8147 56.522 77.7895 59.4968C80.6292 62.3364 84.6858 64.2295 89.1481 64.2295C93.6103 64.2295 97.5317 62.4716 100.507 59.4968C103.346 56.6572 105.239 52.6006 105.239 48.1383C105.104 43.6761 103.346 39.6195 100.507 36.7799Z" fill="#1E71B9"/>
</svg>
