<svg width="179" height="177" viewBox="0 0 179 177" fill="none" xmlns="http://www.w3.org/2000/svg">
<path d="M89.6613 174.056C41.7833 174.056 2.99528 135.527 2.99528 88.0282C2.99528 40.5297 41.7834 1.99999 89.6613 2C137.539 2 176.327 40.5297 176.327 88.0282C176.327 135.527 137.539 174.056 89.6613 174.056Z" stroke="#1E71B9" stroke-width="4"/>
<path d="M90.3212 95.4675C90.3212 95.4675 108.041 83.98 108.041 74.8144C108.041 69.4372 103.642 64.9155 98.2647 64.9155C94.9651 64.9155 92.1543 66.5043 90.3212 68.9484C88.4881 66.5043 85.6773 64.9155 82.3777 64.9155C77.0006 64.9155 72.6011 69.315 72.6011 74.8144C72.6011 84.4688 90.3212 95.4675 90.3212 95.4675Z" stroke="#1E71B9" stroke-width="2.14" stroke-miterlimit="10"/>
<path d="M111.707 124.064C109.263 124.064 107.063 122.475 106.33 120.153L99.8527 96.6895H99.7305L104.374 113.31C104.741 114.654 104.497 115.998 103.886 117.22C103.152 118.442 102.052 119.298 100.708 119.665C100.219 119.787 99.7305 119.909 99.2416 119.909C96.9197 119.909 94.8421 118.442 94.2311 116.243L90.4427 102.555L86.6542 116.243C86.0432 118.442 83.9657 119.909 81.6437 119.909C81.1549 119.909 80.666 119.787 80.1772 119.665C78.8329 119.298 77.6108 118.442 76.9998 117.22C76.3888 115.998 76.1443 114.654 76.511 113.432L81.1549 96.9339H81.0327L74.5556 120.398C73.9446 122.72 71.7449 124.308 69.1785 124.308C68.6897 124.308 68.0787 124.186 67.5898 124.064C66.1233 123.697 64.9012 122.72 64.168 121.375C63.4347 120.153 63.3125 118.687 63.6792 117.343L69.4229 96.5673H69.3007L62.9459 119.42C62.3349 121.742 60.1351 123.331 57.5688 123.331C57.0799 123.331 56.4689 123.209 55.9801 123.086C52.9249 122.231 51.214 119.176 51.9472 116.365L58.7908 91.679C58.7908 91.679 58.7908 91.679 58.6686 91.5568L53.0471 111.965C52.4361 114.287 50.2363 115.876 47.6699 115.876C47.1811 115.876 46.5701 115.754 46.0812 115.632C43.026 114.776 41.3151 111.721 42.0484 108.91L48.6476 85.3242C48.5254 85.4464 48.4032 85.5686 48.281 85.6908C45.348 88.3794 42.415 89.7237 39.6042 89.7237C34.9603 89.7237 31.9051 86.0574 31.5385 84.1021C31.2941 82.3912 32.7606 81.5357 34.9603 80.3136C37.7711 78.7249 42.415 76.0364 47.0589 70.0482C47.9143 68.7039 57.8132 52.8169 72.967 52.8169C74.9223 52.8169 76.9998 53.0613 78.9551 53.6724C83.2324 54.8944 87.1431 57.0942 90.1983 60.0271C93.2535 57.0942 97.0419 54.8944 101.441 53.6724C103.397 53.1835 105.474 52.8169 107.43 52.8169C122.583 52.8169 132.482 68.5817 133.338 70.0482C137.981 76.0364 142.625 78.7249 145.436 80.3136C147.514 81.5357 149.102 82.3912 148.858 84.1021C148.491 86.0574 145.436 89.7237 140.792 89.7237C137.859 89.7237 135.049 88.3794 132.116 85.6908C131.993 85.5686 131.871 85.4464 131.749 85.3242L138.348 108.91C139.204 111.843 137.37 114.776 134.315 115.632C133.826 115.754 133.338 115.876 132.727 115.876C130.282 115.876 128.083 114.287 127.349 111.965L121.728 91.5568C121.728 91.5568 121.728 91.5568 121.606 91.679L128.449 116.365C129.305 119.298 127.472 122.231 124.416 123.086C123.928 123.209 123.439 123.331 122.828 123.331C120.384 123.331 118.184 121.742 117.451 119.42L111.096 96.5673H110.974L116.717 117.343C117.084 118.809 116.84 120.276 116.106 121.498C115.373 122.72 114.151 123.697 112.684 124.064C112.684 124.064 112.196 124.064 111.707 124.064Z" stroke="#1E71B9" stroke-width="2.14" stroke-miterlimit="10"/>
</svg>
