<svg width="38" height="50" viewBox="0 0 38 50" fill="none" xmlns="http://www.w3.org/2000/svg">
<path d="M16.8028 28.8647H12.4549V33.3333H7.98633V37.6812H12.4549V42.1498H16.8028V37.6812H21.2714V33.3333H16.8028V28.8647ZM20.3052 34.2995V36.715H15.8366V41.1836H13.4211V36.715H8.95251V34.2995H13.4211V29.8309H15.8366V34.2995H20.3052Z" fill="#343434"/>
<path d="M35.7035 19.3237C32.9257 17.7536 31.0537 20.9541 30.2687 22.343C29.3025 24.0338 28.3363 25.7246 27.4306 27.4155C27.3702 27.5362 27.3098 27.657 27.2494 27.7778V7.66908C27.2494 5.19324 25.4378 3.92512 23.747 3.80435C22.7808 3.74396 21.6938 4.04589 20.9088 4.77053V3.92512C20.9088 1.75121 19.1576 0 16.9837 0C14.8098 0 13.0586 1.75121 13.0586 3.92512V4.64976C12.3943 4.10628 11.5489 3.80435 10.5827 3.80435C8.34843 3.80435 6.47645 5.61594 6.47645 7.72947V8.27295C5.75181 7.72947 4.84601 7.48792 3.87983 7.6087C2.18901 7.78985 0.317029 9.17874 0.0754832 11.4734C-0.0452897 12.6208 0.0150965 13.7681 0.0150965 14.9155C0.0150965 15.4589 0.0754832 16.0024 0.0754832 16.5459V30.1932C0.0754832 32.7899 0.0754832 35.3261 0.0754832 37.9227C0.0754832 39.4928 0.196256 41.3647 0.98128 43.2367C2.79287 47.5242 7.08031 49.9396 13.0586 50C13.3001 50 13.5417 50 13.8436 50C18.9161 50 24.4112 49.3961 27.974 45.7126C33.1673 40.3382 35.3412 31.7029 37.0924 24.8188V24.6981C37.3339 23.4903 38.0586 20.6522 35.7035 19.3237ZM25.7397 13.5266L21.4523 10.0845H25.7397V13.5266ZM25.0755 14.2512H20.788V10.8092L25.0755 14.2512ZM20.8484 15.8816L25.0151 19.0217H20.8484V15.8816ZM21.5731 15.2174H25.7397V18.3575L21.5731 15.2174ZM23.6262 5.25362C24.5924 5.31401 25.8001 5.97826 25.8001 7.66908V9.17874H20.9088V7.66908C21.0296 5.91787 22.4185 5.19324 23.6262 5.25362ZM35.6431 24.215V24.3357C33.9523 31.099 31.8388 39.4928 26.8871 44.5652C23.5054 48.0676 18.0103 48.43 12.9982 48.43C9.91848 48.3696 4.36292 47.5845 2.2494 42.5725C1.58514 40.942 1.46437 39.2512 1.46437 37.8019C1.46437 35.2053 1.46437 32.6691 1.46437 30.0725V16.4251C1.46437 15.8816 1.46437 15.3382 1.40398 14.7343C1.3436 13.6473 1.3436 12.5 1.46437 11.4734C1.64553 9.96377 2.85326 8.99758 4.0006 8.87681C4.54408 8.81642 5.8122 8.87681 6.41606 10.5072V24.3961C6.41606 24.8188 6.71799 25.1208 7.1407 25.1208C7.5634 25.1208 7.86534 24.8188 7.86534 24.3961V7.6087C7.86534 6.28019 9.07307 5.13285 10.5223 5.13285C11.8508 5.13285 12.9982 6.21981 12.9982 7.6087V24.4565C12.9982 24.8792 13.3001 25.1812 13.7228 25.1812C14.1455 25.1812 14.4475 24.8792 14.4475 24.4565V7.6087V3.86473C14.4475 2.53623 15.5344 1.38889 16.9233 1.38889C18.2518 1.38889 19.3992 2.47585 19.3992 3.86473V7.6087V24.4565C19.3992 24.8792 19.7011 25.1812 20.1238 25.1812C20.5465 25.1812 20.8484 24.8792 20.8484 24.4565V19.9879H25.7397V30.5556C25.7397 30.8575 25.9813 31.1594 26.2832 31.2802C26.5851 31.3406 26.9475 31.2198 27.1286 30.9179C27.6721 30.0121 28.1552 29.0459 28.6987 28.1401C29.6649 26.4493 30.5707 24.7585 31.5368 23.128C32.7446 21.0749 33.7107 19.9275 34.9789 20.6522C35.945 21.1353 36.1262 22.2222 35.6431 24.215Z" fill="#343434"/>
</svg>
