<svg width="51" height="50" viewBox="0 0 51 50" fill="none" xmlns="http://www.w3.org/2000/svg">
<path d="M5.48828 36.2354C5.83374 36.2354 6.11328 35.9558 6.11328 35.6104V33.0353C6.11328 32.6898 5.83374 32.4103 5.48828 32.4103C5.14282 32.4103 4.86328 32.6898 4.86328 33.0353V35.6104C4.86328 35.9558 5.14282 36.2354 5.48828 36.2354Z" fill="#343434"/>
<path d="M44.2233 36.3757H38.8418C38.4963 36.3757 38.2168 36.6553 38.2168 37.0007V44.5831C38.2168 44.9286 38.4963 45.2081 38.8418 45.2081H44.2233C44.5687 45.2081 44.8483 44.9286 44.8483 44.5831V37.0007C44.8483 36.6553 44.5687 36.3757 44.2233 36.3757ZM43.5983 43.9581H39.4668V37.6257H43.5983V43.9581Z" fill="#343434"/>
<path d="M35.1406 36.3757H29.7598C29.4143 36.3757 29.1348 36.6553 29.1348 37.0007V44.5831C29.1348 44.9286 29.4143 45.2081 29.7598 45.2081H35.1406C35.4861 45.2081 35.7656 44.9286 35.7656 44.5831V37.0007C35.7656 36.6553 35.4861 36.3757 35.1406 36.3757ZM34.5156 43.9581H30.3848V37.6257H34.5156V43.9581Z" fill="#343434"/>
<path d="M26.0566 36.3757H20.6758C20.3303 36.3757 20.0508 36.6553 20.0508 37.0007V44.5831C20.0508 44.9286 20.3303 45.2081 20.6758 45.2081H26.0566C26.4021 45.2081 26.6816 44.9286 26.6816 44.5831V37.0007C26.6816 36.6553 26.4021 36.3757 26.0566 36.3757ZM25.4316 43.9581H21.3008V37.6257H25.4316V43.9581Z" fill="#343434"/>
<path d="M1.41296 15.6929V49.375C1.41296 49.7205 1.6925 50 2.03796 50H48.1219C48.4674 50 48.7469 49.7205 48.7469 49.375V15.5498C49.5195 14.8025 50.0024 13.7574 50.0024 12.6001V0.625C50.0024 0.279541 49.7229 0 49.3774 0H0.625C0.279541 0 0 0.279541 0 0.625V12.6001C0 13.8338 0.54924 14.9393 1.41296 15.6929ZM1.25 5.90698H6.96472V12.6001C6.96472 14.176 5.68298 15.4578 4.10706 15.4578C2.53174 15.4578 1.25 14.176 1.25 12.6001V5.90698V5.90698ZM41.7877 12.6001C41.7877 14.176 40.506 15.4578 38.9307 15.4578C37.3547 15.4578 36.073 14.176 36.073 12.6001V5.90698H41.7877V12.6001ZM34.823 12.6001C34.823 14.176 33.5413 15.4578 31.9659 15.4578C30.39 15.4578 29.1083 14.176 29.1083 12.6001V5.90698H34.823V12.6001ZM15.1794 12.6001V5.90698H20.8942V12.6001C20.8942 14.176 19.6124 15.4578 18.0365 15.4578C16.4612 15.4578 15.1794 14.176 15.1794 12.6001ZM22.1442 5.90698H27.8583V12.6001C27.8583 14.176 26.5765 15.4578 25.0012 15.4578C23.4259 15.4578 22.1442 14.176 22.1442 12.6001V5.90698V5.90698ZM29.1083 4.65698V1.25H34.823V4.65698H29.1083ZM27.8583 4.65698H22.1442V1.25H27.8583V4.65698ZM20.8942 4.65698H15.1794V1.25H20.8942V4.65698ZM13.9294 4.65698H8.21472V1.25H13.9294V4.65698ZM13.9294 5.90698V12.6001C13.9294 14.176 12.6477 15.4578 11.0718 15.4578C9.49646 15.4578 8.21472 14.176 8.21472 12.6001V5.90698H13.9294ZM4.10706 16.7078C5.57594 16.7078 6.86348 15.9303 7.58972 14.7678C8.31592 15.9303 9.60331 16.7078 11.0718 16.7078C12.5407 16.7078 13.8282 15.9303 14.5544 14.7678C14.9496 15.4004 15.5101 15.9174 16.1774 16.258V43.9581H2.66296V16.4405C3.11298 16.6105 3.59833 16.7078 4.10706 16.7078ZM2.66296 45.2081H16.1774V48.75H2.66296V45.2081ZM17.4274 48.75V33.3008H47.4969V48.75H17.4274ZM47.4969 32.0508H17.4274V16.6574C17.6267 16.6873 17.829 16.7078 18.0365 16.7078C19.5054 16.7078 20.7929 15.9303 21.5192 14.7678C22.2454 15.9303 23.5328 16.7078 25.0012 16.7078C26.4697 16.7078 27.7571 15.9303 28.4833 14.7678C29.2095 15.9303 30.4971 16.7078 31.9659 16.7078C33.4344 16.7078 34.7218 15.9303 35.448 14.7678C36.1742 15.9303 37.4618 16.7078 38.9307 16.7078C40.3992 16.7078 41.6865 15.9303 42.4127 14.7678C43.139 15.9303 44.4265 16.7078 45.8954 16.7078C46.4633 16.7078 47.0045 16.5917 47.4969 16.3823V32.0508V32.0508ZM45.8954 15.4578C44.3195 15.4578 43.0377 14.176 43.0377 12.6001V5.90698H48.7524V12.6001C48.7524 14.176 47.4707 15.4578 45.8954 15.4578ZM48.7524 1.25V4.65698H43.0377V1.25H48.7524ZM41.7877 4.65698H36.073V1.25H41.7877V4.65698ZM6.96472 1.25V4.65698H1.25V1.25H6.96472Z" fill="#343434"/>
<path d="M5.48828 29.6997H13.3228C13.6682 29.6997 13.9478 29.4202 13.9478 29.0747V23.5278C13.9478 23.1824 13.6682 22.9028 13.3228 22.9028H12.4647L9.93042 19.9133C9.81506 19.7766 9.646 19.6967 9.46716 19.6924C9.28528 19.6918 9.1156 19.762 8.99475 19.8932L6.2117 22.9028H5.48828C5.14282 22.9028 4.86328 23.1824 4.86328 23.5278V29.0747C4.86328 29.4202 5.14282 29.6997 5.48828 29.6997ZM12.6978 28.4497H6.11328V24.1528H12.6978V28.4497V28.4497ZM9.43359 21.2598L10.8263 22.9028H7.9142L9.43359 21.2598Z" fill="#343434"/>
</svg>
