<svg width="48" height="50" viewBox="0 0 48 50" fill="none" xmlns="http://www.w3.org/2000/svg">
<path d="M0.393266 42.0503C-0.439564 43.5645 0.0904183 45.3816 1.60465 46.2144C3.11889 47.0472 5.01169 46.5173 5.7688 45.003L19.1698 20.6238L23.7125 23.1223C22.6525 25.0151 23.3339 27.3622 25.2267 28.3464L26.1353 28.8764C28.0281 29.9364 30.3751 29.1793 31.3594 27.3622L36.205 18.5039C37.2649 16.6111 36.5078 14.264 34.6907 13.2798L33.7822 12.7498C31.8894 11.6898 29.5423 12.3712 28.5581 14.264L14.0971 6.23857C15.1571 4.34578 14.4 1.99871 12.5829 1.01446L11.6743 0.484476C9.78153 -0.57549 7.43446 0.181628 6.45021 1.99871L1.52894 10.9327C0.468978 12.8255 1.15038 15.1726 3.04318 16.1568L3.95172 16.6868C5.84452 17.7468 8.19158 16.9897 9.17584 15.1726L13.7943 17.6711L0.393266 42.0503ZM4.70884 15.324L3.8003 14.794C2.66462 14.1883 2.21035 12.7498 2.89176 11.6141L7.6616 2.75583C8.26729 1.62015 9.70582 1.16588 10.8415 1.84729L11.75 2.37727C12.8857 2.98297 13.34 4.42149 12.6586 5.55717L7.81302 14.4154C7.28304 15.5511 5.84452 16.0054 4.70884 15.324ZM4.4817 44.3216C4.10314 45.0787 3.11889 45.3059 2.36177 44.9273C1.60465 44.5487 1.30181 43.5645 1.75608 42.8074L15.1571 18.4282C15.2328 18.5039 18.0341 20.0181 17.8827 19.9424L4.4817 44.3216ZM33.1765 14.0369L34.085 14.5669C35.2207 15.1726 35.675 16.6111 34.9936 17.7468L30.148 26.605C29.5423 27.7407 28.1038 28.195 26.9681 27.5136L26.0596 26.9836C24.9239 26.3779 24.4696 24.9394 25.151 23.8037C24.9996 24.1066 27.4981 19.4881 29.9966 14.9454C30.6023 13.8855 32.0408 13.4312 33.1765 14.0369ZM13.34 7.60139L27.8767 15.6268L24.4696 21.8352C19.2455 18.9582 15.4599 16.9139 9.93295 13.8098L13.34 7.60139Z" fill="#343434"/>
<path d="M17.2773 49.2428C17.2773 49.6971 17.5802 49.9999 18.0345 49.9999C27.0442 49.9999 38.0224 49.9999 47.1078 49.9999C47.5621 49.9999 47.8649 49.6971 47.8649 49.2428C47.8649 48.7885 47.5621 48.4857 47.1078 48.4857H43.6251V44.3215C43.6251 42.883 42.4894 41.7473 41.0509 41.7473H24.1671C22.7286 41.7473 21.5929 42.883 21.5929 44.3215V48.4857H18.1102C17.6559 48.4857 17.2773 48.8642 17.2773 49.2428ZM23.0314 44.3972C23.0314 43.7915 23.4857 43.3373 24.0914 43.3373H40.9751C41.5808 43.3373 42.0351 43.7915 42.0351 44.3972V48.5614H23.0314V44.3972Z" fill="#343434"/>
<path d="M27.1956 39.476C27.4985 39.1732 27.4985 38.7189 27.1956 38.4161L22.4258 33.8734C22.1229 33.5705 21.6687 33.5705 21.3658 33.8734C21.063 34.1762 21.063 34.6305 21.3658 34.9333L26.1357 39.476C26.4385 39.7789 26.9685 39.7789 27.1956 39.476Z" fill="#343434"/>
<path d="M33.3287 38.9461V34.4034C33.3287 33.9491 33.0258 33.6462 32.5716 33.6462C32.1173 33.6462 31.8145 33.9491 31.8145 34.4034V38.9461C31.8145 39.4003 32.1173 39.7032 32.5716 39.7032C33.0258 39.7032 33.3287 39.4003 33.3287 38.9461Z" fill="#343434"/>
<path d="M39.0059 39.476L43.7757 34.9333C44.0785 34.6305 44.0785 34.1762 43.7757 33.8734C43.4728 33.5705 43.0186 33.5705 42.7157 33.8734L37.9459 38.4161C37.643 38.7189 37.643 39.1732 37.9459 39.476C38.2487 39.7789 38.703 39.7789 39.0059 39.476Z" fill="#343434"/>
</svg>
