<svg width="60" height="50" viewBox="0 0 60 50" fill="none" xmlns="http://www.w3.org/2000/svg">
<path d="M51.8519 9.25926H41.6667V3.7037C41.6667 2.72142 41.2765 1.77937 40.5819 1.08479C39.8873 0.390211 38.9452 0 37.963 0H21.2963C20.314 0 19.372 0.390211 18.6774 1.08479C17.9828 1.77937 17.5926 2.72142 17.5926 3.7037V9.25926H7.40741C5.44284 9.25926 3.55874 10.0397 2.16958 11.4288C0.780421 12.818 0 14.7021 0 16.6667V42.5926C0 44.5572 0.780421 46.4413 2.16958 47.8304C3.55874 49.2196 5.44284 50 7.40741 50H51.8519C53.8164 50 55.7005 49.2196 57.0897 47.8304C58.4788 46.4413 59.2593 44.5572 59.2593 42.5926V16.6667C59.2593 14.7021 58.4788 12.818 57.0897 11.4288C55.7005 10.0397 53.8164 9.25926 51.8519 9.25926ZM21.2963 3.7037H37.963V9.25926H21.2963V3.7037ZM55.5556 42.5926C55.5556 43.5749 55.1653 44.5169 54.4708 45.2115C53.7762 45.9061 52.8341 46.2963 51.8519 46.2963H7.40741C6.42512 46.2963 5.48307 45.9061 4.78849 45.2115C4.09391 44.5169 3.7037 43.5749 3.7037 42.5926V16.6667C3.7037 15.6844 4.09391 14.7423 4.78849 14.0478C5.48307 13.3532 6.42512 12.963 7.40741 12.963H51.8519C52.8341 12.963 53.7762 13.3532 54.4708 14.0478C55.1653 14.7423 55.5556 15.6844 55.5556 16.6667V42.5926Z" fill="#343434"/>
<path d="M31.4822 19.4446H27.7785V26.852H20.3711V30.5557H27.7785V37.9631H31.4822V30.5557H38.8896V26.852H31.4822V19.4446Z" fill="#343434"/>
</svg>
