<svg width="58" height="50" viewBox="0 0 58 50" fill="none" xmlns="http://www.w3.org/2000/svg">
<path fill-rule="evenodd" clip-rule="evenodd" d="M52.5907 27.8732L39.9902 40.7069L32.4259 48.4049C30.3366 50.5317 26.951 50.5317 24.8635 48.4049L17.3028 40.7069L4.69698 27.8732C-1.56566 21.5001 -1.56566 11.1592 4.69698 4.7825C10.965 -1.59417 21.1235 -1.59417 27.3861 4.7825L28.6465 6.06641L29.9087 4.7825C36.1731 -1.59417 46.328 -1.59417 52.5907 4.7825C58.8587 11.161 58.8587 21.5001 52.5907 27.8732ZM50.0072 7.30567C45.1446 2.32898 37.2563 2.32898 32.3937 7.30567L28.6196 11.1645L24.8456 7.30567C19.9812 2.32898 12.0947 2.32898 7.23033 7.30567C2.36595 12.277 2.36595 20.3412 7.23033 25.3125L19.8129 38.1783L27.361 45.8961C28.0539 46.6032 29.1818 46.6032 29.8783 45.8961L39.9418 35.5998H39.9454L50.0072 25.3125C54.8716 20.3412 54.8716 12.277 50.0072 7.30567ZM46.4336 17.1269C46.4999 16.7859 46.5429 16.4359 46.5429 16.0769C46.5429 13.1127 44.1384 10.7163 41.1736 10.7163C40.8155 10.7163 40.461 10.7538 40.1209 10.8217L39.7717 9.07171C40.2247 8.98421 40.6938 8.92886 41.1718 8.92886C45.1267 8.92886 48.3296 12.1288 48.3296 16.0769C48.3296 16.5573 48.2795 17.0216 48.1864 17.4769L46.4336 17.1269Z" fill="#343434"/>
</svg>
