<svg width="50" height="36" viewBox="0 0 50 36" fill="none" xmlns="http://www.w3.org/2000/svg">
<path d="M49.9969 26.0328V25.9728C49.9769 25.1727 49.3368 24.3125 48.9568 23.8725L48.4467 17.9615C48.4367 17.8215 48.0866 14.511 46.4764 11.0004C45.0261 7.8499 41.1855 4.76941 40.1554 3.97929C39.8553 2.74909 39.3352 2.12899 39.2752 2.05898C39.2752 2.05898 39.2752 2.05898 39.2652 2.04898C39.2452 2.02898 39.2252 2.00897 39.2152 1.99897L39.2052 1.98897C39.1852 1.96897 39.1552 1.94896 39.1352 1.92896L38.5351 1.50889C38.4751 1.46889 38.4051 1.42888 38.3351 1.40888C29.3136 -1.76163 20.9023 0.958807 16.4516 4.24933C11.9009 7.60986 10.1806 12.1206 10.0206 12.5707C8.39031 16.3613 7.12011 20.1419 6.75005 21.302C1.67924 23.5024 0.539062 25.5727 0.349032 26.0228C-0.391086 27.463 0.199008 28.5032 0.709089 28.9233C3.84959 32.7539 14.5013 34.9042 14.9614 34.9942C14.9914 35.0042 15.0314 35.0042 15.0614 35.0042C15.1314 35.0042 15.2014 35.0142 15.2814 35.0142C18.0118 35.0142 29.8137 32.5338 29.9337 32.5138C31.2539 32.2338 33.8144 31.8237 36.5248 31.3836C39.6353 30.8836 43.1558 30.3235 45.3962 29.8434C49.5269 28.9733 50.0469 27.433 49.9969 26.0328ZM38.1951 3.38919C38.2251 3.4492 38.2651 3.51921 38.3051 3.59923C36.0647 3.53922 31.0739 3.61923 26.8232 5.19948C23.5827 6.39967 20.9523 8.08994 19.042 9.58018C19.5321 8.95008 20.1122 8.29997 20.8023 7.65987C24.8829 3.90928 30.7339 2.46905 38.1951 3.38919ZM48.1166 26.9629C47.7966 27.313 47.0065 27.8231 45.0461 28.2331C42.8458 28.6932 39.3452 29.2633 36.2547 29.7534C33.5243 30.1935 30.9439 30.6035 29.5837 30.8936C26.0931 31.6437 17.2617 33.364 15.3214 33.364C15.2814 33.364 15.2414 33.364 15.2114 33.364C12.2109 32.7639 4.12963 30.6335 1.91928 27.8131C1.85927 27.7331 1.83927 27.7031 1.74925 27.6531C1.66924 27.573 1.49921 27.323 1.79926 26.7429C1.81927 26.7029 1.82927 26.6929 1.83927 26.6529C1.90928 26.5129 2.73941 24.9926 6.52001 23.1923C6.57002 23.3624 6.64003 23.5224 6.76005 23.6724C8.01025 25.3127 9.98056 26.0428 11.7308 26.6929C11.8609 26.7429 12.0009 26.7929 12.1309 26.8429C18.2519 29.1333 23.8928 29.7534 28.1935 29.7534C29.2936 29.7534 30.3038 29.7134 31.2139 29.6534C36.0647 29.3133 39.0752 28.3032 39.1952 28.2632C39.6253 28.1131 39.8453 27.6531 39.7053 27.223C39.5653 26.7929 39.0952 26.5629 38.6751 26.7129C38.6451 26.7229 35.7047 27.7131 31.0439 28.0231C26.7532 28.3132 20.0922 28.0831 12.701 25.3127C12.571 25.2627 12.431 25.2127 12.3009 25.1627C10.7107 24.5726 9.06042 23.9625 8.09026 22.7223C8.08026 22.6223 8.12027 22.3722 8.18028 22.2022C8.18028 22.1922 8.18028 22.1822 8.19028 22.1822C8.19028 22.1722 8.19028 22.1722 8.20028 22.1622C8.21028 22.1222 9.62051 17.6715 11.5408 13.2108C11.5508 13.1908 11.5508 13.1707 11.5608 13.1607C11.5808 13.1207 13.1411 8.76005 17.4317 5.58954C20.3922 3.39919 25.253 1.48889 30.8739 1.66892C29.4637 1.82895 28.1235 2.09899 26.8532 2.47905C24.0628 3.31918 21.6324 4.6794 19.6421 6.52969C16.2316 9.6902 15.2814 13.1707 15.2514 13.3108C15.1514 13.6808 15.3214 14.0709 15.6615 14.2509C15.7815 14.3109 15.9115 14.3409 16.0415 14.3409C16.2816 14.3409 16.5116 14.2409 16.6716 14.0509C16.7116 14.0009 20.7123 9.24012 27.4133 6.74973C32.0941 5.00945 37.945 5.21949 39.1652 5.2795C40.0353 5.9496 43.7359 8.89007 45.0261 11.7105C46.5164 14.961 46.8464 18.1115 46.8564 18.1315L47.3565 23.8725C47.2665 23.9325 47.1765 23.9925 47.0765 24.0525C46.6064 24.3425 46.1163 24.5726 45.5962 24.7626C45.1762 24.9126 44.9461 25.3827 45.0962 25.8128C45.2162 26.1528 45.5262 26.3628 45.8663 26.3628C45.9563 26.3628 46.0463 26.3428 46.1363 26.3128C46.7564 26.0928 47.3565 25.8028 47.9266 25.4527C47.9766 25.4227 48.0166 25.3927 48.0666 25.3627C48.2567 25.6427 48.3967 25.9028 48.3967 26.0328V26.1028C48.3767 26.4129 48.3867 26.6629 48.1166 26.9629Z" fill="black"/>
</svg>
