<svg width="124" height="76" viewBox="0 0 124 76" fill="none" xmlns="http://www.w3.org/2000/svg">
<path fill-rule="evenodd" clip-rule="evenodd" d="M115.275 27.6826H119.072C121.315 27.6826 123.151 29.5181 123.151 31.7616V47.2478C123.151 49.4913 121.315 51.3284 119.072 51.3284H115.275C113.032 51.3284 111.196 49.4913 111.196 47.2478V31.7616C111.196 29.5181 113.032 27.6826 115.275 27.6826ZM91.2136 46.283C95.8919 46.283 100.073 48.4606 102.796 51.854V29.8413C102.796 26.0713 101.35 23.6506 98.6437 19.1354C97.4294 17.11 96.6826 15.3011 93.9716 15.3011H44.4239C40.6319 15.3011 39.2607 18.3243 37.9962 21.3977L33.0936 33.2912C32.7155 34.3675 31.7898 35.2209 30.5897 35.45L13.886 38.6975C9.34727 39.5761 6.64256 40.0577 6.64256 45.2271V55.0058C6.64256 55.8718 7.03948 56.6484 7.66232 57.163C9.39748 50.8907 15.1474 46.283 21.9703 46.283C29.0114 46.283 34.9276 51.2155 36.4399 57.8062H76.744C78.2564 51.2108 84.1663 46.283 91.2136 46.283ZM105.893 63.349C104.819 70.4905 98.6531 75.9721 91.2136 75.9721C84.1616 75.9721 78.2516 71.0459 76.7424 64.4488H36.4384C34.9228 71.0349 29.0051 75.9721 21.9703 75.9721C14.8461 75.9721 8.88603 70.9361 7.45366 64.2354C3.20989 63.3145 0 59.5085 0 55.0058V45.2271C0 36.4713 4.82895 33.7007 12.6403 32.1868L27.5884 29.2812L31.8745 18.8812C34.2561 13.0969 37.5617 8.65854 44.4239 8.65854H93.9716C99.3513 8.65854 101.819 11.5327 104.326 15.7372C107.649 21.3051 109.439 24.2766 109.439 29.8413V57.0469C109.439 59.6967 108.011 62.0406 105.893 63.349ZM91.2136 52.9255C86.667 52.9255 83.0116 56.5825 83.0116 61.1275C83.0116 65.66 86.6811 69.3295 91.2136 69.3295C95.746 69.3295 99.4172 65.6615 99.4172 61.1275C99.4172 56.5857 95.7554 52.9255 91.2136 52.9255ZM21.9703 52.9255C17.4363 52.9255 13.7683 56.5935 13.7683 61.1275C13.7683 65.6725 17.4253 69.3295 21.9703 69.3295C26.5185 69.3295 30.1723 65.6757 30.1723 61.1275C30.1723 56.5872 26.5106 52.9255 21.9703 52.9255ZM60.0576 37.6887H52.753V40.1487H60.0576V37.6887ZM46.6218 6.64256C42.2526 6.64256 42.2526 0 46.6218 0H94.3544C98.7237 0 98.7237 6.64256 94.3544 6.64256H46.6218ZM60.0576 17.7893H44.4239C41.9435 17.7893 41.1136 20.3936 40.3056 22.3516L35.5284 33.9439H60.0576V17.7893ZM63.3569 18.0858C63.3569 16.3381 66.0145 16.3381 66.0145 18.0858V55.0231C66.0145 56.7708 63.3569 56.7708 63.3569 55.0231V18.0858Z" fill="white"/>
</svg>
