<svg width="82" height="50" viewBox="0 0 82 50" fill="none" xmlns="http://www.w3.org/2000/svg">
<path fill-rule="evenodd" clip-rule="evenodd" d="M75.8668 18.2189H78.3655C79.842 18.2189 81.0501 19.4269 81.0501 20.9035V31.0955C81.0501 32.572 79.842 33.7811 78.3655 33.7811H75.8668C74.3903 33.7811 73.1822 32.572 73.1822 31.0955V20.9035C73.1822 19.4269 74.3903 18.2189 75.8668 18.2189ZM60.031 30.4605C63.11 30.4605 65.8616 31.8937 67.6541 34.127V19.6397C67.6541 17.1585 66.7021 15.5653 64.921 12.5937C64.1218 11.2607 63.6304 10.0702 61.8462 10.0702H29.237C26.7414 10.0702 25.8389 12.0599 25.0067 14.0826L21.7801 21.9102C21.5312 22.6185 20.922 23.1802 20.1322 23.3309L9.13887 25.4682C6.15178 26.0465 4.37171 26.3635 4.37171 29.7656V36.2013C4.37171 36.7713 4.63294 37.2824 5.04285 37.6211C6.18482 33.493 9.96902 30.4605 14.4595 30.4605C19.0934 30.4605 22.9871 33.7068 23.9824 38.0444H50.508C51.5034 33.7037 55.3929 30.4605 60.031 30.4605ZM69.6923 41.6923C68.985 46.3924 64.9272 50 60.031 50C55.3898 50 51.5003 46.7579 50.507 42.4161H23.9814C22.984 46.7506 19.0893 50 14.4595 50C9.77078 50 5.84822 46.6856 4.90552 42.2757C2.11255 41.6696 0 39.1647 0 36.2013V29.7656C0 24.0031 3.17811 22.1797 8.31905 21.1833L18.1569 19.271L20.9778 12.4264C22.5452 8.61951 24.7207 5.6985 29.237 5.6985H61.8462C65.3867 5.6985 67.0108 7.59009 68.6608 10.3573C70.8477 14.0217 72.0258 15.9773 72.0258 19.6397V37.5447C72.0258 39.2886 71.0862 40.8312 69.6923 41.6923ZM60.031 34.8322C57.0387 34.8322 54.6329 37.239 54.6329 40.2303C54.6329 43.2132 57.048 45.6283 60.031 45.6283C63.0139 45.6283 65.43 43.2143 65.43 40.2303C65.43 37.2411 63.0201 34.8322 60.031 34.8322ZM14.4595 34.8322C11.4755 34.8322 9.06144 37.2463 9.06144 40.2303C9.06144 43.2215 11.4682 45.6283 14.4595 45.6283C17.4528 45.6283 19.8575 43.2235 19.8575 40.2303C19.8575 37.2421 17.4476 34.8322 14.4595 34.8322ZM39.5261 24.8043H34.7186V26.4233H39.5261V24.8043ZM30.6835 4.37171C27.8079 4.37171 27.8079 0 30.6835 0H62.0981C64.9737 0 64.9737 4.37171 62.0981 4.37171H30.6835ZM39.5261 11.7078H29.237C27.6045 11.7078 27.0583 13.4218 26.5266 14.7104L23.3825 22.3397H39.5261V11.7078V11.7078ZM41.6975 11.9029C41.6975 10.7527 43.4466 10.7527 43.4466 11.9029V36.2127C43.4466 37.3629 41.6975 37.3629 41.6975 36.2127V11.9029Z" fill="#343434"/>
</svg>
