<svg width="1387" height="1056" viewBox="0 0 1387 1056" fill="none" xmlns="http://www.w3.org/2000/svg">
<g clip-path="url(#clip0)">
<path d="M70.3091 700.633C70.3091 700.633 112.427 499.77 165.776 407.064C219.126 314.358 301.958 57.3091 674 81.1879C1046.04 105.067 1072.72 232.889 1133.09 374.757C1193.45 516.625 1284.71 495.556 1319.81 570.001C1354.91 644.447 1338.06 662.707 1338.06 662.707L70.3091 700.633Z" fill="#F8F8FF"/>
<path d="M70.3091 700.632C70.3091 700.632 108.215 742.772 104.003 752.604C99.7916 762.436 0.112513 871.998 182.624 908.519C365.135 945.039 1082.54 961.895 1182.22 916.947C1281.9 871.998 1246.8 849.524 1210.3 803.171C1173.8 756.818 1281.9 801.766 1305.77 754.009C1320.22 725.008 1331.06 694.346 1338.06 662.707L70.3091 700.632Z" fill="#F5F5FC"/>
<path d="M1335.45 609.092C1335.45 609.092 1192.05 468.137 777.89 555.224C363.73 642.312 214.914 537.694 153.141 537.694C91.3678 537.694 88.209 700.983 88.209 700.983L1337.89 662.946L1341.25 652.313C1341.85 649.072 1342.03 645.767 1341.78 642.48L1341.25 636.019C1341.08 634.078 1340.81 632.146 1340.45 630.232L1335.45 609.092Z" fill="#E9EDFA"/>
<path d="M69.7753 700.127C69.7753 700.127 -87.1983 620.948 69.7753 578.12C69.7753 578.12 138.568 400.293 263.083 554.761C263.083 554.761 377.25 543.075 379.848 619.655C379.848 619.655 404.501 636.511 442.126 640.43C479.751 644.349 482.349 675.476 474.557 684.564C466.765 693.652 439.543 696.236 439.543 696.236L69.7753 700.127Z" fill="#BAC6F2"/>
<path d="M99.6513 698.975C99.6513 698.975 -16.1169 640.584 99.6513 608.994C99.6513 608.994 150.361 477.857 242.206 591.759C242.206 591.759 326.442 583.149 328.31 639.615C328.31 639.615 346.49 652.06 374.232 654.926C401.974 657.791 403.897 680.771 398.099 687.471C392.301 694.171 372.267 696.082 372.267 696.082L99.6513 698.975Z" fill="#B1C1F2"/>
<path d="M1253.28 665.348L1253.15 319.4C1253.15 319.4 1086.95 306.253 1111.52 202.113C1127.69 133.525 1182.39 128.131 1181.07 91.9617C1180.12 65.8354 1203.86 -41.1417 1275.6 17.1366C1332.27 63.1806 1305.64 101.148 1334.91 106.542C1364.89 112.062 1401.46 162.503 1381.13 192.084C1360.8 221.666 1383.45 222.761 1383.45 237.552C1383.45 252.343 1395.47 295.353 1334.48 306.379C1273.49 317.406 1261.67 321.016 1261.67 321.016L1266.8 665.278L1253.28 665.348Z" fill="#B1C1F2"/>
<path d="M1213.5 666.711V492.62C1213.5 492.62 1156.21 485.99 1164.67 433.457C1170.29 398.861 1189.1 396.136 1188.65 377.889C1188.33 364.714 1196.51 310.748 1221.24 340.147C1240.78 363.366 1231.6 382.525 1241.68 385.25C1252.01 388.059 1264.62 413.483 1257.61 428.4C1250.61 443.317 1258.41 443.851 1258.41 451.338C1258.41 458.825 1262.63 480.498 1241.57 486.089C1220.51 491.679 1219.95 491.707 1219.95 491.707L1220.28 666.163L1213.5 666.711Z" fill="#B1C1F2"/>
<path d="M1160.83 668.326L1160.99 375.53C1160.99 375.53 1279.08 364.405 1261.63 276.222C1250.13 218.14 1211.27 213.575 1212.21 182.968C1212.88 160.845 1196.02 70.2739 1145.05 119.619C1104.78 158.597 1123.71 190.75 1102.93 195.315C1081.63 199.992 1055.64 242.693 1070.09 267.752C1084.54 292.81 1068.45 293.724 1068.45 306.253C1068.45 318.782 1059.91 355.19 1103.25 364.587C1146.59 373.984 1154.99 376.976 1154.99 376.976L1151.76 668.495L1160.83 668.326Z" fill="#BAC6F2"/>
<path d="M442.407 340.414C460.915 340.414 475.919 325.402 475.919 306.885C475.919 288.367 460.915 273.356 442.407 273.356C423.899 273.356 408.895 288.367 408.895 306.885C408.895 325.402 423.899 340.414 442.407 340.414Z" fill="white"/>
<path d="M329.053 339.599C347.561 339.599 362.565 324.587 362.565 306.07C362.565 287.553 347.561 272.541 329.053 272.541C310.545 272.541 295.542 287.553 295.542 306.07C295.542 324.587 310.545 339.599 329.053 339.599Z" fill="white"/>
<path d="M386.98 349.797C411.908 349.797 432.117 329.578 432.117 304.638C432.117 279.697 411.908 259.479 386.98 259.479C362.052 259.479 341.844 279.697 341.844 304.638C341.844 329.578 362.052 349.797 386.98 349.797Z" fill="white"/>
<path d="M867.265 265.434C885.773 265.434 900.776 250.423 900.776 231.906C900.776 213.388 885.773 198.377 867.265 198.377C848.757 198.377 833.753 213.388 833.753 231.906C833.753 250.423 848.757 265.434 867.265 265.434Z" fill="white"/>
<path d="M925.176 275.646C950.105 275.646 970.313 255.428 970.313 230.487C970.313 205.546 950.105 185.328 925.176 185.328C900.248 185.328 880.04 205.546 880.04 230.487C880.04 255.428 900.248 275.646 925.176 275.646Z" fill="white"/>
</g>
<path d="M981.221 728.74C980.313 738.704 978.497 746.176 966.587 749.913C960.675 751.58 954.567 752.452 948.424 752.508C946.66 752.508 944.817 752.508 942.845 752.508H491.058C490.508 752.505 489.96 752.444 489.423 752.326C483.948 751.314 473.388 745.476 469.444 730.012C465.033 712.809 497.726 607.464 507.871 582.296C518.613 555.7 601.462 540.547 701.409 541.429C795.493 542.156 913.759 552.664 930.287 565.249C946.815 577.833 982.544 714.184 981.221 728.74Z" fill="white"/>
<path d="M754.575 553.313H696.506C692.651 553.313 689.526 556.438 689.526 560.293V566.468C689.526 570.323 692.651 573.448 696.506 573.448H754.575C758.43 573.448 761.555 570.323 761.555 566.468V560.293C761.555 556.438 758.43 553.313 754.575 553.313Z" fill="#68E1FD"/>
<path d="M720.999 543.765C720.999 543.765 720.143 556.946 721.752 558.658C722.717 559.578 723.999 560.092 725.332 560.092C726.666 560.092 727.948 559.578 728.913 558.658C730.885 556.557 730.522 543.765 730.522 543.765H720.999Z" fill="black"/>
<path d="M955.144 745.84C949.522 747.39 943.721 748.201 937.889 748.253C936.203 748.253 934.413 748.253 932.544 748.253H502.137C501.614 748.245 501.094 748.193 500.58 748.097C503.642 723.266 511.192 678.689 526.086 673.266C532.827 671.64 539.728 670.77 546.662 670.672C573.154 669.037 618.405 669.348 656.962 670.672C693.859 671.969 724.632 674.2 727.019 676.51C730.462 679.91 732.71 684.334 733.428 689.12C733.428 689.12 733.428 678.404 740.978 675.887C744.196 674.797 779.068 672.125 818.819 670.49C858.57 668.855 902.991 668.233 925.383 671.294C933.167 672.358 938.175 673.889 939.55 675.887C945.881 685.28 951.927 722.669 955.144 745.84Z" fill="#D1D3D4"/>
<path d="M424.426 713.691C424.426 713.691 376.528 701.522 361.817 724.07C347.105 746.618 360.571 757.671 384.52 760.188C408.469 762.705 423.596 764.391 428.215 760.188C432.833 755.985 431.977 719.451 428.215 716.519L424.426 713.691Z" fill="black"/>
<path d="M427.151 752.975L451.515 757.178L447.545 767.687L417.706 760.344L427.151 752.975Z" fill="black"/>
<path d="M1018.3 713.691C1018.3 713.691 1066.2 701.522 1080.88 724.07C1095.57 746.618 1082.16 757.671 1058.21 760.188C1034.26 762.705 1019.13 764.391 1014.51 760.188C1009.89 755.985 1010.75 719.451 1014.51 716.519L1018.3 713.691Z" fill="black"/>
<path d="M1015.58 752.975L991.211 757.178L995.181 767.687L1025.02 760.344L1015.58 752.975Z" fill="black"/>
<path d="M404.266 928.376H481.562V1032.32C481.541 1038.39 479.115 1044.2 474.816 1048.49C470.517 1052.77 464.694 1055.18 458.624 1055.18H427.177C421.094 1055.18 415.259 1052.76 410.958 1048.46C406.656 1044.16 404.24 1038.32 404.24 1032.24V928.376H404.266Z" fill="black"/>
<path d="M961.813 928.376H1039.11V1032.32C1039.11 1038.4 1036.69 1044.24 1032.39 1048.54C1028.09 1052.84 1022.25 1055.26 1016.17 1055.26H984.724C978.64 1055.26 972.806 1052.84 968.505 1048.54C964.203 1044.24 961.787 1038.4 961.787 1032.32V928.376H961.813Z" fill="black"/>
<path d="M560.492 611.071H645.754C655.214 611.085 664.281 614.852 670.966 621.546C677.65 628.24 681.405 637.314 681.405 646.774V767.686H524.789V646.774C524.789 637.305 528.551 628.224 535.246 621.528C541.942 614.832 551.023 611.071 560.492 611.071Z" fill="black"/>
<path d="M810.205 611.071H895.415C900.108 611.064 904.756 611.982 909.094 613.774C913.432 615.565 917.374 618.194 920.694 621.51C924.015 624.826 926.65 628.764 928.447 633.099C930.245 637.434 931.17 642.081 931.17 646.774V767.686H774.502V646.774C774.502 637.305 778.264 628.224 784.96 621.528C791.655 614.832 800.736 611.071 810.205 611.071Z" fill="black"/>
<path d="M525.257 785.149C523.05 771.155 521.698 757.04 521.209 742.881C509.559 743.063 533.43 663.147 549.932 652.067C579.927 631.803 627.643 623.059 659.273 660.085C669.262 671.787 690.746 705.232 688.1 732.269C687.347 739.846 677.721 742.933 666.849 743.115C664.961 759.138 664.466 775.294 665.37 791.402L525.257 785.149Z" fill="#68E1FD"/>
<path d="M617.368 647.06L608.52 700.692L601.645 724.252L594.82 700.64L587.296 646.93C597.056 643.633 607.637 643.679 617.368 647.06V647.06Z" fill="#231F20"/>
<path d="M601.722 669.348L593.704 663.173L601.722 656.972L609.739 663.173L601.722 669.348Z" fill="white"/>
<path d="M608.546 700.692L601.722 724.278L594.897 700.64L599.023 665.975L599.101 665.274H604.342L604.42 666.027L608.546 700.692Z" fill="white"/>
<path d="M635.972 720.178C598.426 690.028 562.412 643.531 562.412 643.531C557.912 644.651 553.753 646.851 550.295 649.94C557.638 667.272 591.81 701.237 620.793 724.096C625.59 721.929 630.725 720.603 635.972 720.178V720.178Z" fill="black"/>
<path d="M598.894 715.923C587.506 715.92 576.49 719.975 567.822 727.36C559.154 734.744 553.4 744.975 551.592 756.218H565.318C567.037 748.6 571.295 741.794 577.395 736.917C583.494 732.04 591.071 729.384 598.881 729.384C606.69 729.384 614.267 732.04 620.366 736.917C626.466 741.794 630.724 748.6 632.443 756.218H646.195C644.382 744.978 638.627 734.749 629.96 727.366C621.292 719.982 610.279 715.926 598.894 715.923V715.923Z" fill="white"/>
<path d="M579.434 724.044C582.722 726.256 585.72 728.871 588.359 731.828C589.579 733.073 590.954 735.097 589.605 736.343C588.256 737.588 586.829 736.758 585.531 736.057L575.697 730.842C579.479 732.436 582.569 735.324 584.415 738.989C584.718 739.406 584.889 739.902 584.908 740.416C584.847 740.857 584.63 741.261 584.297 741.556C583.964 741.851 583.537 742.017 583.092 742.025C582.187 742.029 581.295 741.806 580.498 741.376C576.19 739.482 574.011 738.081 569.678 736.187C571.935 737.562 573.051 737.51 575.282 738.782C577.514 740.053 581.561 743.971 580.472 745.58C580.036 746.099 579.446 746.465 578.788 746.624C578.129 746.782 577.437 746.726 576.813 746.462C573.635 745.704 570.507 744.751 567.446 743.608C570.127 744.274 572.455 745.935 573.959 748.252C574.215 748.569 574.361 748.961 574.374 749.368C574.374 750.562 572.61 750.691 571.468 750.38C565.837 748.797 560.882 744.983 555.07 744.464C553.627 744.573 552.191 744.189 550.996 743.374C546.844 739.352 554.706 730.401 557.95 727.806C564.929 722.617 571.105 719.01 579.434 724.044Z" fill="white"/>
<path d="M572.635 751.782C572.146 751.779 571.658 751.718 571.182 751.6C568.838 750.868 566.556 749.948 564.358 748.85C561.457 747.281 558.305 746.228 555.043 745.736H554.499C552.939 745.79 551.411 745.283 550.191 744.309C549.615 743.76 549.173 743.087 548.898 742.34C548.624 741.593 548.525 740.793 548.609 740.002C548.92 735.098 554.473 728.87 557.249 726.795C564.099 721.605 571.001 717.454 580.082 722.954C583.457 725.156 586.543 727.771 589.267 730.739C591.525 733.048 592.018 735.513 590.539 737.07C589.683 737.952 587.944 738.678 584.934 737.07L585.609 738.133C586.025 738.767 586.258 739.503 586.284 740.261C586.221 741.026 585.88 741.742 585.325 742.272C584.771 742.803 584.041 743.112 583.274 743.141C582.642 743.185 582.007 743.106 581.406 742.908C581.675 743.339 581.868 743.813 581.976 744.309C582.066 744.632 582.084 744.971 582.03 745.303C581.976 745.634 581.852 745.95 581.665 746.229C581.08 746.963 580.28 747.496 579.378 747.752C578.475 748.008 577.514 747.974 576.631 747.656L575.023 747.241C575.075 747.313 575.119 747.391 575.152 747.474C575.565 748.019 575.785 748.685 575.775 749.368C575.752 749.724 575.649 750.07 575.474 750.38C575.299 750.69 575.056 750.956 574.763 751.159C574.134 751.578 573.392 751.796 572.635 751.782V751.782ZM571.572 723.058C567.135 723.058 563.191 725.653 558.806 728.948C556.211 730.816 551.437 736.473 551.203 740.261C551.155 740.676 551.2 741.096 551.334 741.491C551.469 741.886 551.69 742.246 551.982 742.544C552.755 743.036 553.66 743.28 554.576 743.245H555.147C558.727 743.744 562.189 744.877 565.37 746.592C567.438 747.619 569.58 748.486 571.779 749.187C572.179 749.29 572.599 749.29 572.999 749.187L573.103 749.005C572.137 747.54 570.792 746.365 569.21 745.606L567.213 744.88C566.904 744.757 566.652 744.526 566.503 744.229C566.355 743.932 566.321 743.591 566.408 743.271C566.51 742.956 566.727 742.69 567.015 742.527C567.303 742.363 567.642 742.314 567.965 742.389C568.731 742.591 569.478 742.86 570.196 743.193C572.532 743.997 574.919 744.672 577.332 745.243C578.499 745.528 579.174 745.554 579.615 744.88C578.458 742.872 576.817 741.186 574.841 739.976H574.685L572.765 738.99L572.194 738.782C571.153 738.381 570.146 737.895 569.185 737.329C568.878 737.171 568.648 736.897 568.543 736.569C568.438 736.24 568.468 735.884 568.627 735.578C568.785 735.271 569.058 735.041 569.387 734.936C569.715 734.831 570.072 734.862 570.378 735.02C571.675 735.591 572.791 736.136 573.829 736.629C574.615 736.956 575.378 737.338 576.112 737.77C577.643 738.549 579.174 739.327 581.302 740.209C581.912 740.534 582.584 740.729 583.274 740.78C583.637 740.78 583.896 740.495 583.896 740.391C583.896 740.287 583.689 739.872 583.585 739.69C582.349 737.471 580.723 735.494 578.785 733.852L575.386 732.01C575.082 731.867 574.846 731.612 574.726 731.299C574.606 730.986 574.613 730.638 574.744 730.33C574.874 730.021 575.12 729.775 575.428 729.643C575.737 729.511 576.084 729.504 576.398 729.623C577.774 730.091 579.063 730.783 580.212 731.673L586.387 734.994C587.607 735.643 588.593 735.85 588.982 735.513C589.371 735.175 588.671 733.774 587.737 732.918C585.167 730.072 582.256 727.554 579.07 725.419V725.419C576.857 723.913 574.249 723.091 571.572 723.058V723.058Z" fill="#231F20"/>
<path d="M621.572 722.306C618.272 724.503 615.272 727.12 612.646 730.09C611.426 731.335 610.051 733.359 611.375 734.604C612.698 735.85 614.151 735.02 615.448 734.319L625.23 729.13C621.451 730.717 618.367 733.608 616.538 737.277C616.227 737.69 616.046 738.187 616.019 738.704C616.081 739.149 616.302 739.556 616.64 739.852C616.979 740.147 617.412 740.311 617.861 740.313C618.767 740.318 619.659 740.095 620.456 739.664C624.789 737.77 626.969 736.369 631.276 734.475C629.044 735.85 627.929 735.798 625.671 737.069C623.414 738.341 619.418 742.259 620.482 743.867C620.917 744.387 621.507 744.752 622.166 744.911C622.824 745.07 623.516 745.013 624.14 744.75C627.319 743.995 630.448 743.042 633.507 741.895C630.826 742.562 628.498 744.222 626.995 746.54C626.755 746.864 626.62 747.253 626.605 747.656C626.605 748.849 628.37 748.979 629.511 748.668C635.116 747.085 640.098 743.271 645.91 742.752C647.344 742.859 648.771 742.474 649.958 741.662C654.109 737.64 646.247 728.533 643.004 726.094C636.076 720.852 629.901 717.272 621.572 722.306Z" fill="white"/>
<path d="M628.344 750.043C627.602 750.067 626.87 749.868 626.242 749.472C625.949 749.272 625.706 749.006 625.535 748.695C625.364 748.384 625.268 748.037 625.256 747.682C625.239 747.002 625.449 746.335 625.853 745.788L626.009 745.554L624.4 745.943C623.521 746.277 622.559 746.32 621.653 746.068C620.748 745.816 619.947 745.282 619.366 744.542C619.181 744.263 619.056 743.948 618.997 743.617C618.939 743.287 618.95 742.948 619.029 742.622C619.156 742.132 619.348 741.661 619.6 741.221C619.007 741.418 618.381 741.497 617.758 741.455C616.979 741.447 616.231 741.155 615.653 740.635C615.075 740.114 614.707 739.4 614.618 738.626C614.638 737.864 614.882 737.124 615.319 736.499C615.526 736.161 615.734 735.798 615.993 735.435C612.906 737.096 611.245 736.369 610.363 735.435C608.884 733.878 609.377 731.387 611.634 729.104C614.351 726.128 617.438 723.512 620.819 721.32V721.32C629.927 715.819 636.829 719.996 643.653 725.134C646.429 727.236 652.008 733.463 652.293 738.367C652.367 739.155 652.266 739.95 651.997 740.695C651.728 741.439 651.297 742.115 650.736 742.674C649.513 743.643 647.988 744.148 646.429 744.101H645.884C642.615 744.594 639.455 745.647 636.543 747.215C634.345 748.311 632.063 749.231 629.719 749.965C629.265 750.044 628.804 750.07 628.344 750.043ZM631.899 743.764C630.329 744.542 628.994 745.724 628.033 747.189C627.877 747.448 627.851 747.552 627.825 747.552C627.799 747.552 628.474 747.552 629.096 747.345C631.307 746.651 633.458 745.784 635.531 744.75C638.709 743.043 642.16 741.902 645.728 741.377H646.325C647.242 741.421 648.15 741.176 648.92 740.676C649.225 740.387 649.455 740.028 649.591 739.63C649.726 739.233 649.763 738.808 649.698 738.393C649.465 734.605 644.509 728.948 642.096 727.08C635.531 722.15 629.901 718.725 622.169 723.421C618.998 725.515 616.111 728.009 613.58 730.842C612.646 731.802 611.894 733.1 612.309 733.437C612.724 733.774 613.632 733.567 614.903 732.918L621.105 729.571C622.252 728.685 623.542 728 624.919 727.547C625.226 727.45 625.558 727.471 625.85 727.605C626.143 727.74 626.375 727.978 626.502 728.274C626.632 728.572 626.646 728.908 626.54 729.215C626.434 729.523 626.217 729.779 625.931 729.934L622.506 731.776C620.577 733.42 618.959 735.397 617.732 737.614C617.573 737.823 617.458 738.061 617.394 738.315C617.394 738.315 617.68 738.652 618.043 738.678C618.725 738.649 619.391 738.462 619.989 738.133C622.013 737.251 623.57 736.473 625.178 735.694C625.907 735.252 626.671 734.87 627.462 734.553C628.474 734.034 629.589 733.515 630.887 732.944C631.192 732.814 631.534 732.804 631.846 732.914C632.158 733.025 632.418 733.248 632.573 733.541C632.725 733.835 632.759 734.177 632.667 734.495C632.576 734.814 632.366 735.085 632.08 735.253C631.13 735.817 630.132 736.294 629.096 736.68L628.526 736.914L626.58 737.9H626.424C624.27 739.223 621.702 742.129 621.727 743.089C622.117 743.556 622.765 743.556 623.933 743.271C626.346 742.7 628.733 741.999 631.094 741.221C631.799 740.877 632.539 740.607 633.3 740.417C633.623 740.342 633.962 740.391 634.25 740.555C634.538 740.718 634.755 740.984 634.857 741.299C634.958 741.616 634.933 741.959 634.789 742.259C634.644 742.558 634.389 742.79 634.078 742.908C633.248 743.297 632.573 743.556 631.899 743.816V743.764Z" fill="#231F20"/>
<path d="M545.961 723.499C545.753 723.499 545.548 723.449 545.363 723.353C545.178 723.257 545.019 723.118 544.9 722.947C544.78 722.777 544.703 722.58 544.676 722.373C544.648 722.167 544.671 721.957 544.742 721.761C544.742 721.761 555.121 692.545 560.777 675.835C560.911 675.539 561.15 675.304 561.449 675.176C561.747 675.049 562.083 675.037 562.389 675.145C562.695 675.253 562.95 675.471 563.103 675.757C563.256 676.044 563.297 676.377 563.216 676.691C558.338 690.832 550.243 713.925 547.855 720.801L568.613 718.699C568.784 718.681 568.956 718.697 569.12 718.747C569.284 718.796 569.437 718.877 569.57 718.985C569.703 719.094 569.813 719.228 569.893 719.379C569.974 719.53 570.024 719.696 570.04 719.867C570.058 720.036 570.042 720.207 569.992 720.37C569.943 720.532 569.861 720.684 569.752 720.814C569.644 720.945 569.51 721.052 569.358 721.13C569.207 721.208 569.042 721.255 568.872 721.268L546.091 723.603L545.961 723.499Z" fill="#231F20"/>
<path d="M637.321 721.475C635.131 721.527 632.94 721.467 630.756 721.293C630.412 721.231 630.107 721.035 629.907 720.748C629.708 720.461 629.63 720.107 629.692 719.762C629.754 719.418 629.95 719.113 630.237 718.913C630.524 718.714 630.879 718.637 631.223 718.699C632.443 718.932 640.772 718.932 652.318 718.699C651.202 712.056 646.532 684.682 644.923 671.994C644.886 671.655 644.981 671.314 645.189 671.043C645.397 670.773 645.701 670.593 646.039 670.541C646.209 670.519 646.383 670.532 646.548 670.578C646.714 670.623 646.869 670.702 647.004 670.808C647.139 670.914 647.252 671.046 647.336 671.196C647.42 671.347 647.473 671.512 647.492 671.683C649.308 685.876 655.094 719.269 655.276 719.607C655.302 719.79 655.29 719.977 655.241 720.155C655.192 720.334 655.107 720.501 654.99 720.645C654.878 720.794 654.733 720.915 654.567 721.001C654.4 721.086 654.217 721.133 654.03 721.138C647.414 721.371 641.55 721.475 637.321 721.475Z" fill="#231F20"/>
<path d="M632.339 605C632.339 605 641.939 585.825 638.307 580.817C634.674 575.809 632.183 577.6 632.157 577.626C636.049 574.849 631.431 569.063 628.94 567.117C626.965 565.684 624.775 564.572 622.453 563.822C616.787 561.589 610.768 560.385 604.68 560.267C598.553 560.196 592.579 562.178 587.71 565.898C580.264 571.917 577.876 579.546 578.681 588.861C579.252 595.529 581.275 602.172 581.665 608.71C589.293 609.463 596.999 610.423 604.731 610.604C610.881 610.76 628.784 612.109 632.339 605Z" fill="white"/>
<path d="M612.905 612.135C610.621 612.135 608.468 612.135 606.651 612.135H604.705C598.4 611.98 592.043 611.305 585.894 610.682L581.535 610.215C581.22 610.185 580.926 610.042 580.707 609.814C580.488 609.585 580.358 609.286 580.341 608.97C580.043 605.544 579.54 602.139 578.836 598.773C578.24 595.633 577.617 592.39 577.331 589.172C576.449 578.793 579.485 571.009 586.854 565.042C591.958 561.115 598.24 559.03 604.68 559.126C610.903 559.238 617.055 560.468 622.842 562.758C625.291 563.559 627.601 564.731 629.692 566.235C631.742 567.844 634.882 571.684 634.882 575.083C634.878 575.523 634.808 575.961 634.674 576.38C636.577 577.135 638.187 578.481 639.267 580.221C643.444 585.929 633.87 604.896 633.429 605.778C630.704 611.227 620.948 612.135 612.905 612.135ZM582.91 607.491L586.179 607.828C592.251 608.477 598.556 609.125 604.757 609.281H606.755C613.19 609.515 628.291 610.034 631.145 604.351C634.155 598.331 639.63 584.865 637.217 581.544C634.804 578.223 633.455 578.378 632.91 578.69C632.62 578.879 632.269 578.953 631.928 578.895C631.586 578.837 631.279 578.653 631.068 578.378C630.861 578.092 630.775 577.735 630.829 577.386C630.882 577.037 631.07 576.722 631.353 576.51V576.51C631.639 576.325 631.874 576.071 632.037 575.772C632.2 575.473 632.286 575.138 632.287 574.798C631.765 572.129 630.266 569.751 628.084 568.129C626.223 566.797 624.166 565.764 621.986 565.068C616.478 562.86 610.612 561.682 604.68 561.591C598.871 561.465 593.187 563.292 588.541 566.78C581.898 572.151 579.174 579.105 579.978 588.601C580.263 591.689 580.86 594.881 581.431 597.942C582.098 601.096 582.592 604.283 582.91 607.491Z" fill="#231F20"/>
<path d="M623.724 607.672C625.67 599.421 639.681 598.383 638.254 608.165C637.907 611.579 636.363 614.759 633.895 617.143C632.643 618.294 631.078 619.05 629.397 619.313C627.716 619.576 625.995 619.336 624.451 618.622" fill="white"/>
<path d="M627.876 620.801C626.459 620.804 625.062 620.466 623.803 619.815C623.491 619.645 623.259 619.358 623.157 619.018C623.055 618.679 623.092 618.312 623.258 617.998C623.428 617.687 623.714 617.455 624.054 617.353C624.394 617.251 624.761 617.287 625.074 617.454C626.381 618.037 627.831 618.222 629.243 617.987C630.655 617.752 631.966 617.106 633.014 616.13C635.236 613.959 636.623 611.074 636.932 607.983C637.503 603.961 635.09 602.794 633.611 602.612C631.766 602.294 629.869 602.666 628.28 603.657C626.692 604.647 625.523 606.187 624.996 607.983C624.914 608.327 624.698 608.624 624.396 608.809C624.094 608.994 623.732 609.052 623.388 608.969C623.044 608.886 622.746 608.67 622.561 608.369C622.377 608.067 622.319 607.704 622.402 607.36C623.075 604.895 624.647 602.771 626.808 601.407C628.969 600.043 631.563 599.538 634.078 599.991C635.01 600.138 635.9 600.479 636.692 600.991C637.485 601.503 638.16 602.176 638.676 602.966C639.192 603.756 639.537 604.645 639.688 605.576C639.839 606.507 639.793 607.46 639.553 608.372C639.15 612.095 637.451 615.558 634.752 618.154C632.846 619.823 630.41 620.761 627.876 620.801V620.801Z" fill="#231F20"/>
<path d="M589.216 605.155C588.489 596.697 574.789 593.635 574.763 603.521C574.605 606.943 575.672 610.31 577.773 613.017C578.841 614.345 580.279 615.326 581.906 615.834C583.532 616.342 585.273 616.355 586.907 615.871" fill="white"/>
<path d="M584.545 617.61C583.055 617.582 581.589 617.234 580.246 616.589C578.903 615.945 577.714 615.018 576.761 613.873C574.463 610.913 573.278 607.239 573.414 603.494C573.301 602.551 573.388 601.594 573.669 600.686C573.95 599.778 574.419 598.94 575.046 598.225C575.672 597.51 576.442 596.936 577.305 596.538C578.169 596.141 579.106 595.929 580.056 595.918C582.586 595.896 585.037 596.798 586.949 598.456C588.86 600.114 590.1 602.414 590.435 604.921C590.456 605.098 590.442 605.277 590.391 605.448C590.34 605.618 590.255 605.777 590.141 605.913C590.027 606.049 589.885 606.161 589.726 606.24C589.567 606.319 589.393 606.365 589.215 606.374C588.866 606.396 588.521 606.281 588.255 606.054C587.989 605.826 587.821 605.504 587.788 605.155C587.538 603.289 586.602 601.584 585.163 600.37C583.725 599.157 581.885 598.522 580.004 598.59C578.473 598.59 575.931 599.369 575.905 603.417C575.748 606.51 576.665 609.562 578.499 612.057C579.397 613.168 580.6 613.992 581.959 614.43C583.319 614.868 584.776 614.9 586.154 614.522C586.319 614.46 586.495 614.432 586.671 614.439C586.847 614.447 587.02 614.489 587.179 614.564C587.339 614.639 587.482 614.745 587.6 614.876C587.718 615.007 587.808 615.16 587.866 615.326C587.983 615.66 587.965 616.027 587.814 616.347C587.664 616.667 587.394 616.916 587.062 617.039C586.257 617.357 585.408 617.549 584.545 617.61Z" fill="#231F20"/>
<path d="M587.373 646.929C588.624 649.632 590.606 651.93 593.097 653.563C595.587 655.195 598.485 656.098 601.462 656.167C604.503 656.472 607.571 655.985 610.367 654.753C613.164 653.521 615.593 651.585 617.42 649.135V643.245L617.212 629.649V616.909L592.251 615.067L590.668 625.445L590.175 628.793L587.373 646.929Z" fill="white"/>
<path d="M603.018 657.542C602.473 657.542 601.928 657.542 601.358 657.542C598.111 657.471 594.951 656.48 592.246 654.684C589.541 652.888 587.401 650.361 586.075 647.397C586.011 647.177 586.011 646.943 586.075 646.722L590.953 614.834C591.01 614.504 591.188 614.207 591.451 614.001C591.715 613.794 592.046 613.694 592.38 613.718L617.341 615.534C617.678 615.554 617.995 615.702 618.227 615.948C618.458 616.194 618.587 616.52 618.586 616.857L618.768 649.109C618.776 649.375 618.704 649.638 618.56 649.862C616.777 652.296 614.434 654.265 611.728 655.602C609.023 656.939 606.035 657.605 603.018 657.542V657.542ZM588.67 646.748C589.879 649.158 591.73 651.187 594.02 652.611C596.309 654.034 598.947 654.798 601.643 654.818C604.385 655.105 607.155 654.694 609.695 653.624C612.236 652.553 614.464 650.857 616.173 648.694L615.992 618.129L593.496 616.468L588.67 646.748Z" fill="#231F20"/>
<path d="M590.176 628.689C592.071 631.9 594.749 634.578 597.96 636.473C603.149 639.846 610.933 643.764 617.472 643.245L617.212 629.649C612.4 629.889 607.576 629.567 602.838 628.689C598.607 628.227 594.475 627.107 590.591 625.368L590.176 628.689Z" fill="#231F20"/>
<path d="M616.175 644.594C609.013 644.594 601.255 640.261 597.129 637.563C593.779 635.527 590.995 632.681 589.034 629.286C588.945 629.034 588.945 628.759 589.034 628.507L589.527 625.16C589.552 624.957 589.627 624.763 589.744 624.596C589.862 624.428 590.019 624.292 590.202 624.2C590.388 624.111 590.592 624.064 590.798 624.064C591.005 624.064 591.209 624.111 591.395 624.2C595.154 625.858 599.144 626.934 603.227 627.392C607.878 628.262 612.617 628.575 617.342 628.326C617.517 628.314 617.692 628.338 617.857 628.396C618.022 628.454 618.173 628.545 618.302 628.663C618.432 628.787 618.535 628.936 618.607 629.101C618.678 629.266 618.716 629.443 618.717 629.623V643.245C618.718 643.572 618.596 643.887 618.375 644.128C618.153 644.368 617.85 644.516 617.524 644.543L616.175 644.594ZM591.525 628.455C593.287 631.289 595.697 633.663 598.557 635.383C601.67 637.433 609.35 641.974 616.071 642V630.972C611.601 631.083 607.133 630.735 602.734 629.934C598.989 629.488 595.307 628.618 591.758 627.34L591.525 628.455Z" fill="#231F20"/>
<path d="M602.837 631.777L605.069 631.933C610.14 632.304 615.152 630.646 619.001 627.323C622.85 623.999 625.221 619.283 625.593 614.211L627.824 583.957L605.406 587.797L587.243 580.973L585.038 611.253C584.85 613.771 585.163 616.301 585.958 618.698C586.752 621.095 588.013 623.311 589.667 625.218C591.322 627.126 593.337 628.687 595.597 629.813C597.857 630.939 600.318 631.606 602.837 631.777V631.777Z" fill="white"/>
<path d="M606.521 633.333H604.991L602.759 633.152C597.334 632.753 592.289 630.217 588.733 626.101C585.176 621.985 583.399 616.626 583.792 611.2L586.075 580.869C586.09 580.663 586.153 580.463 586.258 580.286C586.364 580.109 586.51 579.959 586.684 579.848C586.858 579.737 587.055 579.668 587.26 579.647C587.465 579.626 587.673 579.654 587.866 579.727L605.587 586.395L627.642 582.633C627.844 582.598 628.05 582.608 628.248 582.662C628.445 582.716 628.628 582.812 628.784 582.944C628.93 583.083 629.043 583.253 629.115 583.442C629.187 583.631 629.216 583.833 629.199 584.034L626.994 614.314C626.614 619.475 624.3 624.301 620.513 627.828C616.727 631.355 611.748 633.321 606.573 633.333H606.521ZM602.941 630.427L605.172 630.609C607.512 630.778 609.861 630.485 612.088 629.746C614.314 629.007 616.372 627.837 618.146 626.302C619.919 624.767 621.373 622.898 622.424 620.801C623.474 618.704 624.101 616.42 624.269 614.081L626.371 585.539L605.613 589.094C605.383 589.144 605.143 589.144 604.913 589.094L588.67 582.944L586.568 611.486C586.395 613.821 586.684 616.166 587.419 618.389C588.153 620.612 589.319 622.668 590.85 624.44C592.38 626.211 594.245 627.663 596.338 628.713C598.43 629.763 600.709 630.389 603.045 630.557L602.941 630.427Z" fill="#231F20"/>
<path d="M606.678 617.116C605.051 617.111 603.428 616.963 601.826 616.675C601.48 616.6 601.177 616.393 600.983 616.096C600.789 615.8 600.719 615.44 600.788 615.093C600.822 614.92 600.89 614.755 600.989 614.609C601.087 614.462 601.214 614.337 601.361 614.241C601.509 614.144 601.674 614.078 601.847 614.046C602.021 614.014 602.199 614.017 602.371 614.055C603.965 614.328 605.58 614.458 607.197 614.444C607.094 610.09 606.297 605.781 604.836 601.678C604.733 601.334 604.77 600.963 604.941 600.647C605.111 600.33 605.4 600.095 605.744 599.991C606.088 599.888 606.459 599.926 606.776 600.096C607.092 600.267 607.327 600.556 607.431 600.9C608.572 604.688 611.037 613.873 609.325 616.208C609.151 616.471 608.916 616.688 608.641 616.842C608.365 616.995 608.057 617.081 607.742 617.09L606.678 617.116Z" fill="#231F20"/>
<path d="M615.799 598.196C615.931 596.41 615.446 594.918 614.717 594.864C613.988 594.811 613.291 596.216 613.16 598.002C613.029 599.789 613.513 601.28 614.242 601.334C614.971 601.387 615.668 599.982 615.799 598.196Z" fill="#231F20"/>
<path d="M598.837 596.132C598.969 594.346 598.484 592.854 597.755 592.801C597.026 592.747 596.329 594.152 596.198 595.938C596.067 597.725 596.551 599.216 597.28 599.27C598.009 599.324 598.706 597.919 598.837 596.132Z" fill="#231F20"/>
<path d="M605.536 623.5H604.887C602.216 623.217 599.63 622.392 597.288 621.076C594.946 619.76 592.897 617.98 591.265 615.846C591.16 615.705 591.083 615.544 591.04 615.374C590.997 615.203 590.989 615.026 591.016 614.852C591.042 614.678 591.103 614.511 591.195 614.361C591.287 614.211 591.408 614.08 591.551 613.977C591.834 613.768 592.189 613.678 592.538 613.727C592.887 613.775 593.203 613.958 593.419 614.237C594.83 616.056 596.589 617.575 598.594 618.707C600.599 619.839 602.809 620.559 605.095 620.827C609.921 620.983 614.773 618.363 619.547 613.043C619.791 612.814 620.112 612.684 620.446 612.678C620.78 612.672 621.105 612.79 621.357 613.01C621.61 613.23 621.771 613.536 621.811 613.868C621.85 614.2 621.765 614.535 621.571 614.808C616.356 620.542 610.985 623.5 605.536 623.5Z" fill="#231F20"/>
<path d="M1064.87 802.534C1060.46 772.928 1002.6 760.318 1002.6 760.318C1002.6 760.318 984.438 676.042 973.93 639.872C960.022 591.378 953.017 544.881 879.094 533.983C805.171 523.085 622.816 526.406 571.571 533.983C520.326 541.559 517.783 533.983 490.902 582.711C464.021 631.44 442.07 760.318 442.07 760.318C442.07 760.318 401.852 783.021 390.617 806.322C379.382 829.622 399.413 932.372 407.612 958.838C415.812 985.304 423.985 994.748 447.96 994.748C471.935 994.748 973.515 1001.05 1018.25 987.821C1062.98 974.588 1069.28 832.165 1064.87 802.534ZM969.104 725.653C968.221 735.123 966.509 742.259 955.17 745.814C949.533 747.378 943.714 748.189 937.864 748.227C936.203 748.227 934.439 748.227 932.544 748.227H502.163C501.63 748.223 501.1 748.162 500.58 748.045C495.391 747.111 485.323 741.532 481.561 726.795C477.358 710.396 508.52 603.599 518.172 579.624C528.395 554.222 607.326 544.647 702.525 545.4C792.146 546.1 904.911 551.264 920.479 563.251C936.047 575.239 970.349 711.797 969.104 725.653Z" fill="#68E1FD"/>
<path d="M596.04 919.761C596.04 919.761 575.879 852.974 576.502 846.02C577.125 839.066 582.158 830.27 586.258 829.025C590.358 827.779 851.877 825.859 858.182 830.27C864.487 834.681 868.275 841.609 867.652 846.669C867.03 851.728 855.665 912.211 852.525 919.761C849.386 927.312 606.834 932.994 596.04 919.761Z" fill="black"/>
<path d="M880.677 901.054C880.677 901.054 882.338 852.767 923.931 836.784C965.524 820.8 1024.76 820.826 1031.07 830.92C1037.37 841.013 1039.06 875.86 999.929 891.402C960.801 906.944 903.225 905.517 880.677 901.054Z" fill="white"/>
<path d="M919.779 905.361C906.595 905.529 893.422 904.522 880.417 902.351C880.115 902.289 879.845 902.123 879.655 901.88C879.465 901.638 879.367 901.335 879.379 901.028C879.379 900.535 881.559 851.728 923.489 835.589C964.511 819.84 1025.12 818.906 1032.18 830.218C1035.84 836.056 1037.5 848.381 1033.56 860.265C1030.26 870.332 1021.83 884.11 1000.47 892.621C976.317 902.221 945.336 905.361 919.779 905.361ZM882.026 900.016C904.859 904.193 961.008 905.516 999.488 890.208C1019.93 882.06 1028.03 868.983 1031.07 859.461C1035.19 846.902 1032.67 835.901 1029.98 831.594C1024.14 822.279 965.108 822.382 924.397 838.002C887.579 852.144 882.623 892.776 882.026 900.016Z" fill="#231F20"/>
<path d="M566.85 904.427C566.85 904.427 558.028 841.843 516.85 834.37C475.672 826.898 425.257 818.802 415.657 834.37C406.056 849.939 410.623 877.235 437.089 888.158C463.555 899.082 546.248 909.046 566.85 904.427Z" fill="white"/>
<path d="M551.229 906.892C518.847 906.892 458.209 898.199 436.543 889.248C430.724 887.026 425.466 883.549 421.143 879.064C416.82 874.58 413.538 869.198 411.531 863.301C409.872 858.419 409.281 853.239 409.795 848.109C410.31 842.98 411.919 838.02 414.515 833.566C424.504 817.479 472.688 824.822 517.083 832.969C534.363 836.134 548.66 849.523 558.598 871.63C563.136 882.057 566.378 893.002 568.25 904.219C568.298 904.541 568.223 904.869 568.04 905.138C567.858 905.407 567.581 905.598 567.264 905.672C561.974 906.623 556.602 907.032 551.229 906.892V906.892ZM445.755 826.612C431.691 826.612 420.56 828.765 416.694 834.941C414.316 839.086 412.854 843.693 412.407 848.45C411.959 853.208 412.536 858.007 414.099 862.522C415.981 868.058 419.065 873.109 423.129 877.313C427.193 881.516 432.138 884.768 437.607 886.835C462.387 897.058 543.004 907.411 565.448 903.389C563.943 894.723 553.331 842.284 516.694 835.538C497.363 832.035 467.939 826.612 445.755 826.612Z" fill="#231F20"/>
<path d="M826.707 956.321H618.69C608.301 956.321 599.879 964.743 599.879 975.132V1001.78C599.879 1012.17 608.301 1020.59 618.69 1020.59H826.707C837.096 1020.59 845.518 1012.17 845.518 1001.78V975.132C845.518 964.743 837.096 956.321 826.707 956.321Z" fill="white"/>
<path d="M826.707 1021.89H618.691C613.36 1021.88 608.249 1019.76 604.479 1015.99C600.71 1012.22 598.589 1007.11 598.582 1001.78V975.133C598.589 969.802 600.71 964.691 604.479 960.921C608.249 957.152 613.36 955.031 618.691 955.024H826.707C832.038 955.031 837.149 957.152 840.919 960.921C844.688 964.691 846.809 969.802 846.816 975.133V1001.78C846.809 1007.11 844.688 1012.22 840.919 1015.99C837.149 1019.76 832.038 1021.88 826.707 1021.89V1021.89ZM618.691 957.619C614.046 957.619 609.591 959.464 606.306 962.748C603.022 966.033 601.177 970.488 601.177 975.133V1001.78C601.184 1006.42 603.031 1010.87 606.314 1014.16C609.597 1017.44 614.048 1019.29 618.691 1019.29H826.707C831.35 1019.29 835.801 1017.44 839.084 1014.16C842.367 1010.87 844.215 1006.42 844.222 1001.78V975.133C844.222 970.488 842.376 966.033 839.092 962.748C835.807 959.464 831.352 957.619 826.707 957.619H618.691Z" fill="#231F20"/>
<path d="M432.211 967.659C432.211 967.659 432.834 941.193 442.901 935.511C452.969 929.829 527.981 932.916 536.31 935.511C544.639 938.106 556.471 964.494 555.199 967.659C553.928 970.825 546.377 975.21 544.509 974.587C542.641 973.964 431.355 977.078 432.211 967.659Z" fill="white"/>
<path d="M544.717 975.937C544.46 975.938 544.206 975.894 543.964 975.807C543.419 975.807 537.711 975.807 530.991 975.807C482.574 976.092 437.037 975.547 431.536 969.58C431.273 969.316 431.069 968.999 430.94 968.65C430.81 968.3 430.757 967.927 430.784 967.556C430.784 966.025 431.64 940.26 442.149 934.37C452.657 928.48 528.759 931.775 536.44 934.37C542.926 936.368 549.906 950.093 552.008 954.245C553.253 956.84 557.197 965.662 556.263 968.23C554.944 970.215 553.244 971.918 551.262 973.241C549.28 974.564 547.055 975.48 544.717 975.937V975.937ZM540.202 973.186C541.726 973.07 543.259 973.131 544.769 973.368C546.066 973.524 552.786 969.865 553.876 967.167C554.551 964.286 543.316 939.066 535.713 936.757C527.566 934.162 453.15 931.204 443.472 936.757C433.794 942.309 433.43 967.53 433.43 967.893C435.013 971.915 467.862 973.757 531.043 973.394L540.202 973.186Z" fill="#231F20"/>
<path d="M1023.28 967.659C1023.28 967.659 1022.66 941.193 1012.59 935.511C1002.52 929.829 927.511 932.916 919.312 935.511C911.112 938.106 899.151 964.494 900.422 967.659C901.694 970.825 909.244 975.21 911.112 974.587C912.981 973.964 1024.14 977.078 1023.28 967.659Z" fill="white"/>
<path d="M910.698 975.963C905.987 974.992 901.853 972.193 899.203 968.179C898.191 965.584 902.213 956.814 903.458 954.193C905.456 950.042 912.436 936.316 919.027 934.318C926.811 931.957 1002.55 928.376 1013.32 934.318C1024.09 940.26 1024.66 965.973 1024.68 967.504C1024.71 967.876 1024.66 968.249 1024.53 968.598C1024.4 968.947 1024.19 969.264 1023.93 969.528C1018.43 975.496 972.892 976.041 924.475 975.755C917.885 975.755 912.177 975.755 911.502 975.755C911.245 975.863 910.974 975.933 910.698 975.963V975.963ZM976.421 933.617C952.368 933.617 924.527 935.278 919.701 936.757C912.177 939.066 900.942 964.287 901.538 967.219C902.135 970.151 909.322 973.55 910.646 973.342C915.191 973.084 919.748 973.084 924.294 973.342C987.578 973.731 1020.43 971.863 1021.91 967.815C1021.91 967.556 1021.18 942.024 1011.86 936.679C1007.97 934.422 993.131 933.617 976.421 933.617Z" fill="#231F20"/>
<path d="M836.153 850.613H606.6C605.139 850.613 603.954 851.792 603.954 853.247C603.954 854.701 605.139 855.881 606.6 855.881H836.153C837.614 855.881 838.799 854.701 838.799 853.247C838.799 851.792 837.614 850.613 836.153 850.613Z" fill="white"/>
<path d="M836.153 870.54H606.6C605.139 870.54 603.954 871.719 603.954 873.174C603.954 874.628 605.139 875.807 606.6 875.807H836.153C837.614 875.807 838.799 874.628 838.799 873.174C838.799 871.719 837.614 870.54 836.153 870.54Z" fill="white"/>
<path d="M836.153 890.468H606.6C605.139 890.468 603.954 891.647 603.954 893.101C603.954 894.556 605.139 895.735 606.6 895.735H836.153C837.614 895.735 838.799 894.556 838.799 893.101C838.799 891.647 837.614 890.468 836.153 890.468Z" fill="white"/>
<path d="M404.266 810.37C403.922 810.37 403.592 810.233 403.349 809.99C403.105 809.746 402.969 809.416 402.969 809.072C402.969 808.728 403.105 808.398 403.349 808.155C403.592 807.912 403.922 807.775 404.266 807.775C407.094 807.775 691.291 807.775 1049.18 801.418C1049.51 801.43 1049.83 801.568 1050.07 801.803C1050.31 802.038 1050.46 802.354 1050.47 802.689C1050.48 802.86 1050.45 803.029 1050.39 803.188C1050.32 803.347 1050.23 803.492 1050.11 803.614C1049.99 803.737 1049.85 803.836 1049.7 803.904C1049.54 803.972 1049.37 804.009 1049.2 804.013C691.317 810.292 407.042 810.37 404.266 810.37Z" fill="#231F20"/>
<path d="M948.45 749.472H500.58C500.236 749.472 499.906 749.335 499.663 749.092C499.419 748.849 499.283 748.519 499.283 748.175C499.289 747.833 499.428 747.507 499.67 747.265C499.912 747.023 500.238 746.884 500.58 746.877H948.45C948.794 746.877 949.124 747.014 949.367 747.257C949.61 747.501 949.747 747.831 949.747 748.175C949.747 748.519 949.61 748.849 949.367 749.092C949.124 749.335 948.794 749.472 948.45 749.472Z" fill="#231F20"/>
<path d="M980.469 728.74C979.561 738.704 977.744 746.176 965.861 749.913C959.948 751.575 953.84 752.448 947.698 752.508C945.96 752.508 944.091 752.508 942.119 752.508H490.332C489.782 752.505 489.234 752.444 488.697 752.326C483.222 751.314 472.662 745.476 468.718 730.012C464.307 712.809 497 607.464 507.171 582.296C517.887 555.7 600.762 540.547 700.683 541.429C794.767 542.156 913.033 552.664 929.561 565.249C946.089 577.833 981.844 714.184 980.469 728.74Z" fill="white"/>
<path d="M753.848 553.313H695.779C691.924 553.313 688.799 556.438 688.799 560.293V566.468C688.799 570.323 691.924 573.448 695.779 573.448H753.848C757.703 573.448 760.828 570.323 760.828 566.468V560.293C760.828 556.438 757.703 553.313 753.848 553.313Z" fill="#1E71B9"/>
<path d="M720.143 543.765C720.143 543.765 719.287 556.946 720.896 558.658C721.861 559.578 723.143 560.092 724.476 560.092C725.81 560.092 727.092 559.578 728.057 558.658C730.029 556.557 729.666 543.765 729.666 543.765H720.143Z" fill="black"/>
<path d="M954.522 745.84C948.9 747.39 943.1 748.201 937.268 748.253C935.581 748.253 933.791 748.253 931.923 748.253H501.411C500.889 748.245 500.368 748.193 499.854 748.097C502.916 723.266 510.467 678.689 525.36 673.266C532.101 671.64 539.003 670.77 545.936 670.672C572.428 669.037 617.679 669.348 656.237 670.672C693.133 671.969 723.906 674.2 726.293 676.51C729.736 679.91 731.985 684.334 732.702 689.12C732.702 689.12 732.702 678.404 740.253 675.887C743.47 674.797 778.343 672.125 818.093 670.49C857.844 668.855 902.265 668.233 924.657 671.294C932.442 672.358 937.449 673.889 938.825 675.887C945.156 685.28 951.175 722.669 954.522 745.84Z" fill="#D1D3D4"/>
<path d="M423.7 713.691C423.7 713.691 375.802 701.522 361.116 724.07C346.43 746.618 359.845 757.671 383.794 760.188C407.743 762.705 422.87 764.391 427.488 760.188C432.107 755.985 431.251 719.451 427.488 716.519L423.7 713.691Z" fill="black"/>
<path d="M426.425 752.975L450.789 757.178L446.819 767.687L416.98 760.344L426.425 752.975Z" fill="black"/>
<path d="M1017.57 713.691C1017.57 713.691 1065.47 701.522 1080.18 724.07C1094.89 746.618 1081.43 757.671 1057.48 760.188C1033.53 762.705 1018.4 764.391 1013.78 760.188C1009.17 755.985 1010.02 719.451 1013.78 716.519L1017.57 713.691Z" fill="black"/>
<path d="M1014.85 752.975L990.484 757.178L994.454 767.687L1024.29 760.344L1014.85 752.975Z" fill="black"/>
<path d="M403.54 928.376H480.836V1032.32C480.815 1038.39 478.389 1044.2 474.09 1048.49C469.791 1052.77 463.968 1055.18 457.898 1055.18H426.451C420.367 1055.18 414.533 1052.76 410.232 1048.46C405.93 1044.16 403.514 1038.32 403.514 1032.24V928.376H403.54Z" fill="black"/>
<path d="M961.086 928.376H1038.38V1032.32C1038.38 1038.4 1035.97 1044.24 1031.66 1048.54C1027.36 1052.84 1021.53 1055.26 1015.44 1055.26H984.023C977.94 1055.26 972.106 1052.84 967.804 1048.54C963.503 1044.24 961.086 1038.4 961.086 1032.32V928.376V928.376Z" fill="black"/>
<path d="M559.766 611.071H644.976C654.445 611.071 663.526 614.832 670.221 621.528C676.917 628.224 680.679 637.305 680.679 646.774V767.686H524.063V646.774C524.063 642.085 524.986 637.443 526.781 633.111C528.575 628.779 531.205 624.843 534.52 621.528C537.835 618.213 541.771 615.583 546.103 613.789C550.435 611.994 555.077 611.071 559.766 611.071Z" fill="black"/>
<path d="M809.478 611.071H894.688C904.157 611.071 913.238 614.832 919.934 621.528C926.629 628.224 930.391 637.305 930.391 646.774V767.686H773.775V646.774C773.775 637.305 777.537 628.224 784.233 621.528C790.928 614.832 800.009 611.071 809.478 611.071Z" fill="black"/>
<path d="M524.53 785.149C522.314 771.156 520.954 757.04 520.456 742.881C508.806 743.063 532.677 663.147 549.179 652.067C579.174 631.803 626.89 623.059 658.52 660.085C668.509 671.787 689.993 705.232 687.347 732.269C686.594 739.846 676.968 742.933 666.096 743.115C664.222 759.139 663.727 775.294 664.617 791.402L524.53 785.149Z" fill="#1E71B9"/>
<path d="M616.642 647.06L607.794 700.692L600.996 724.252L594.172 700.64L586.647 646.93C596.384 643.651 606.934 643.697 616.642 647.06V647.06Z" fill="#231F20"/>
<path d="M600.996 669.348L592.978 663.173L600.996 656.972L609.013 663.173L600.996 669.348Z" fill="white"/>
<path d="M607.819 700.692L600.995 724.278L594.171 700.64L598.297 665.975L598.401 665.274H603.616L603.694 666.027L607.819 700.692Z" fill="white"/>
<path d="M635.376 720.178C597.83 690.028 561.79 643.531 561.79 643.531C557.29 644.651 553.131 646.851 549.673 649.94C557.016 667.272 591.188 701.237 620.171 724.096C624.976 721.926 630.12 720.6 635.376 720.178V720.178Z" fill="black"/>
<path d="M598.167 715.923C586.78 715.92 575.764 719.975 567.096 727.36C558.428 734.744 552.674 744.975 550.866 756.218H564.618C566.336 748.601 570.595 741.794 576.695 736.917C582.794 732.04 590.371 729.384 598.18 729.384C605.99 729.384 613.567 732.04 619.666 736.917C625.766 741.794 630.024 748.601 631.743 756.218H645.495C643.682 744.973 637.922 734.741 629.25 727.357C620.577 719.973 609.558 715.919 598.167 715.923V715.923Z" fill="white"/>
<path d="M578.707 724.044C581.995 726.257 584.994 728.872 587.633 731.828C588.852 733.074 590.227 735.098 588.878 736.343C587.529 737.589 586.102 736.758 584.805 736.058L575.023 730.868C578.804 732.463 581.894 735.351 583.741 739.016C584.038 739.436 584.217 739.929 584.26 740.443C584.192 740.885 583.97 741.29 583.633 741.584C583.296 741.879 582.865 742.044 582.417 742.051C581.511 742.066 580.616 741.842 579.823 741.403C575.49 739.509 573.31 738.108 568.977 736.213C571.234 737.589 572.35 737.537 574.607 738.808C576.865 740.079 580.861 743.997 579.797 745.606C579.359 746.122 578.769 746.485 578.111 746.644C577.454 746.802 576.763 746.748 576.138 746.488C572.951 745.734 569.814 744.781 566.745 743.634C569.434 744.3 571.77 745.959 573.284 748.279C573.523 748.603 573.659 748.992 573.673 749.394C573.673 750.588 571.909 750.718 570.767 750.406C565.163 748.824 560.181 745.009 554.369 744.49C552.927 744.599 551.49 744.215 550.295 743.401C546.144 739.379 554.006 730.427 557.249 727.833C564.203 722.617 570.508 719.011 578.707 724.044Z" fill="white"/>
<path d="M571.908 751.782C571.436 751.775 570.966 751.714 570.507 751.6C568.162 750.868 565.88 749.948 563.683 748.85C560.781 747.281 557.63 746.228 554.368 745.736H553.823C552.263 745.79 550.735 745.283 549.516 744.309C548.94 743.76 548.497 743.087 548.223 742.34C547.948 741.593 547.849 740.793 547.933 740.002C548.245 735.098 553.797 728.87 556.574 726.795C563.424 721.605 570.326 717.454 579.433 722.954C582.803 725.161 585.888 727.776 588.618 730.739C590.85 733.048 591.213 735.513 589.864 737.07C589.007 737.952 587.269 738.678 584.259 737.07L584.934 738.133C585.348 738.77 585.59 739.503 585.634 740.261C585.56 741.026 585.212 741.739 584.654 742.268C584.096 742.797 583.366 743.107 582.598 743.141C581.966 743.185 581.332 743.106 580.73 742.908C580.999 743.339 581.192 743.813 581.301 744.309C581.39 744.632 581.409 744.971 581.355 745.303C581.301 745.634 581.177 745.95 580.99 746.229C580.405 746.963 579.605 747.496 578.702 747.752C577.799 748.008 576.839 747.974 575.956 747.656L574.347 747.241L574.503 747.474C574.9 748.035 575.109 748.707 575.1 749.394C575.073 749.745 574.969 750.086 574.794 750.391C574.618 750.696 574.377 750.959 574.088 751.159C573.444 751.589 572.682 751.806 571.908 751.782ZM570.844 723.058C566.408 723.058 562.464 725.653 558.079 728.948C555.64 730.816 550.71 736.473 550.476 740.261C550.428 740.676 550.472 741.096 550.607 741.491C550.742 741.886 550.963 742.246 551.255 742.544C552.028 743.036 552.933 743.28 553.849 743.245H554.42C558 743.744 561.462 744.877 564.643 746.592C566.717 747.623 568.869 748.491 571.078 749.187C571.469 749.29 571.88 749.29 572.272 749.187L572.142 748.979C571.176 747.514 569.831 746.34 568.25 745.58L566.252 744.854C565.943 744.731 565.691 744.5 565.543 744.203C565.394 743.906 565.36 743.565 565.447 743.245C565.549 742.93 565.766 742.664 566.054 742.501C566.342 742.338 566.681 742.288 567.004 742.363C567.77 742.565 568.517 742.834 569.236 743.167C571.571 743.971 573.984 744.646 576.371 745.217C577.539 745.502 578.213 745.528 578.654 744.854C577.497 742.846 575.856 741.16 573.88 739.95H573.725L571.804 738.964L571.234 738.756C570.192 738.355 569.186 737.869 568.224 737.303C567.918 737.145 567.687 736.871 567.582 736.543C567.478 736.214 567.508 735.858 567.666 735.552C567.824 735.245 568.098 735.015 568.426 734.91C568.755 734.805 569.111 734.836 569.417 734.994C570.715 735.565 571.83 736.11 572.868 736.603C573.655 736.93 574.418 737.312 575.152 737.744C576.682 738.523 578.213 739.301 580.341 740.183C580.941 740.511 581.605 740.706 582.287 740.754C582.418 740.743 582.544 740.702 582.657 740.635C582.769 740.568 582.865 740.475 582.936 740.365C582.859 740.116 582.745 739.88 582.598 739.664C581.369 737.441 579.742 735.462 577.798 733.826L574.399 731.984C574.096 731.841 573.859 731.587 573.74 731.273C573.62 730.96 573.626 730.613 573.757 730.304C573.888 729.995 574.133 729.749 574.442 729.617C574.75 729.485 575.097 729.478 575.411 729.597C576.788 730.062 578.078 730.755 579.225 731.647L585.401 734.968C586.62 735.617 587.606 735.824 587.995 735.487C588.385 735.15 587.684 733.748 586.75 732.892C584.187 730.039 581.276 727.519 578.084 725.394V725.394C575.941 723.944 573.43 723.134 570.844 723.058V723.058Z" fill="#231F20"/>
<path d="M620.844 722.306C617.545 724.503 614.544 727.12 611.918 730.09C610.699 731.335 609.324 733.359 610.647 734.604C611.97 735.85 613.449 735.02 614.721 734.319L624.503 729.13C620.723 730.717 617.639 733.608 615.81 737.277C615.513 737.698 615.334 738.19 615.291 738.704C615.354 739.149 615.574 739.556 615.913 739.852C616.251 740.147 616.685 740.311 617.134 740.313C618.039 740.318 618.932 740.095 619.728 739.664C624.062 737.77 626.241 736.369 630.548 734.475C628.317 735.85 627.201 735.798 624.944 737.069C622.686 738.341 618.691 742.259 619.754 743.867C620.19 744.387 620.78 744.752 621.438 744.911C622.097 745.07 622.789 745.013 623.413 744.75C626.592 743.995 629.72 743.042 632.78 741.895C630.099 742.562 627.771 744.222 626.267 746.54C626.028 746.864 625.892 747.253 625.878 747.656C625.878 748.849 627.642 748.979 628.784 748.668C634.388 747.085 639.37 743.271 645.182 742.752C646.616 742.859 648.044 742.474 649.23 741.662C653.382 737.64 645.52 728.533 642.276 726.094C635.374 720.852 629.173 717.272 620.844 722.306Z" fill="white"/>
<path d="M627.591 750.043C626.84 750.071 626.099 749.872 625.463 749.472C625.174 749.268 624.935 749 624.764 748.69C624.593 748.38 624.495 748.035 624.477 747.682C624.46 747.001 624.67 746.335 625.074 745.787L625.23 745.554L623.621 745.943C622.742 746.276 621.78 746.32 620.874 746.068C619.969 745.816 619.168 745.281 618.587 744.542C618.402 744.262 618.276 743.947 618.218 743.617C618.16 743.287 618.171 742.948 618.25 742.622C618.377 742.131 618.569 741.66 618.821 741.221C618.228 741.418 617.602 741.497 616.979 741.454C616.21 741.42 615.48 741.11 614.923 740.581C614.365 740.052 614.017 739.339 613.943 738.574C613.976 737.814 614.218 737.078 614.643 736.446L615.318 735.383C612.23 737.043 610.57 736.317 609.687 735.383C608.208 733.826 608.701 731.335 610.959 729.052C613.676 726.076 616.763 723.46 620.144 721.268V721.268C629.251 715.767 636.153 719.944 642.977 725.082C645.754 727.183 651.332 733.411 651.618 738.315C651.692 739.103 651.59 739.898 651.321 740.643C651.052 741.387 650.622 742.063 650.061 742.622C648.84 743.594 647.313 744.1 645.754 744.049H645.209C641.939 744.542 638.779 745.595 635.868 747.163C633.67 748.259 631.388 749.179 629.044 749.913C628.567 750.016 628.079 750.059 627.591 750.043V750.043ZM631.12 743.764C629.554 744.549 628.222 745.729 627.253 747.189C627.098 747.448 627.072 747.552 627.046 747.552C627.02 747.552 627.695 747.552 628.317 747.344C630.529 746.655 632.681 745.788 634.752 744.749C637.93 743.043 641.381 741.902 644.949 741.376H645.546C646.463 741.42 647.371 741.175 648.141 740.676C648.446 740.387 648.676 740.028 648.811 739.63C648.947 739.232 648.984 738.808 648.919 738.393C648.712 734.604 643.73 728.948 641.317 727.08C634.752 722.15 629.122 718.725 621.389 723.421C618.192 725.54 615.28 728.06 612.723 730.92C611.789 731.88 611.037 733.177 611.452 733.514C611.867 733.852 612.775 733.644 614.047 732.996L620.222 729.648C621.369 728.762 622.659 728.078 624.036 727.625C624.343 727.528 624.675 727.548 624.967 727.683C625.26 727.817 625.492 728.055 625.619 728.351C625.749 728.649 625.763 728.985 625.657 729.293C625.551 729.6 625.334 729.857 625.048 730.012L621.623 731.854C619.694 733.497 618.077 735.475 616.849 737.692C616.695 737.903 616.581 738.141 616.511 738.393C616.511 738.393 616.797 738.73 617.16 738.756C617.844 738.739 618.513 738.552 619.106 738.211C621.13 737.329 622.687 736.55 624.296 735.772C625.024 735.329 625.788 734.948 626.579 734.63C627.591 734.111 628.707 733.592 630.004 733.021C630.309 732.892 630.651 732.881 630.963 732.992C631.276 733.102 631.535 733.326 631.69 733.618C631.843 733.913 631.876 734.254 631.784 734.573C631.693 734.891 631.483 735.162 631.197 735.331C630.247 735.894 629.249 736.372 628.214 736.758L627.643 736.991L625.697 737.977H625.541C623.387 739.301 620.819 742.207 620.845 743.167C620.871 744.127 621.908 743.634 623.05 743.348C625.463 742.778 627.85 742.077 630.211 741.299C630.924 740.95 631.672 740.68 632.443 740.494C632.787 740.394 633.157 740.435 633.47 740.608C633.784 740.781 634.017 741.071 634.116 741.415C634.216 741.759 634.175 742.129 634.003 742.443C633.83 742.757 633.539 742.989 633.195 743.089C632.521 743.296 631.846 743.556 631.171 743.815L631.12 743.764Z" fill="#231F20"/>
<path d="M545.235 723.499C545.027 723.499 544.822 723.449 544.637 723.353C544.452 723.257 544.293 723.118 544.174 722.947C544.054 722.777 543.977 722.58 543.95 722.373C543.922 722.167 543.945 721.957 544.016 721.761C544.016 721.761 554.395 692.545 560.051 675.835C560.185 675.539 560.424 675.304 560.723 675.176C561.021 675.049 561.357 675.037 561.663 675.145C561.969 675.253 562.224 675.471 562.377 675.757C562.53 676.044 562.571 676.377 562.49 676.691C557.612 690.832 549.517 713.925 547.129 720.801L567.887 718.699C568.057 718.681 568.23 718.697 568.394 718.747C568.558 718.796 568.711 718.877 568.844 718.985C568.977 719.094 569.087 719.228 569.167 719.379C569.248 719.53 569.298 719.696 569.314 719.867C569.332 720.036 569.316 720.207 569.266 720.37C569.217 720.532 569.135 720.684 569.026 720.814C568.917 720.945 568.783 721.052 568.632 721.13C568.481 721.208 568.316 721.255 568.146 721.268L545.365 723.603L545.235 723.499Z" fill="#231F20"/>
<path d="M636.595 721.475C634.405 721.527 632.214 721.467 630.03 721.293C629.686 721.231 629.381 721.035 629.181 720.748C628.982 720.461 628.904 720.107 628.966 719.762C629.028 719.418 629.224 719.113 629.511 718.913C629.798 718.714 630.153 718.637 630.497 718.699C631.717 718.932 640.045 718.932 651.618 718.699C650.476 712.056 645.806 684.682 644.197 671.994C644.16 671.655 644.255 671.314 644.463 671.043C644.671 670.773 644.975 670.593 645.313 670.541C645.483 670.519 645.656 670.532 645.822 670.578C645.988 670.623 646.143 670.702 646.278 670.808C646.413 670.914 646.526 671.046 646.61 671.196C646.693 671.347 646.746 671.512 646.766 671.683C648.608 685.876 654.368 719.269 654.55 719.607C654.576 719.79 654.564 719.977 654.515 720.155C654.466 720.334 654.381 720.501 654.264 720.645C654.152 720.794 654.007 720.915 653.841 721.001C653.674 721.086 653.491 721.133 653.304 721.138C646.688 721.371 640.824 721.475 636.595 721.475Z" fill="#231F20"/>
<path d="M631.613 605C631.613 605 641.214 585.825 637.581 580.817C633.949 575.809 631.458 577.6 631.432 577.626C635.324 574.849 630.705 569.063 628.214 567.117C626.239 565.684 624.05 564.572 621.728 563.822C616.063 561.586 610.043 560.382 603.954 560.267C597.827 560.196 591.853 562.178 586.985 565.898C579.538 571.917 577.151 579.546 577.955 588.861C578.526 595.529 580.55 602.172 580.939 608.71C588.567 609.463 596.274 610.423 604.006 610.604C610.155 610.76 628.059 612.109 631.613 605Z" fill="white"/>
<path d="M612.178 612.135C609.895 612.135 607.741 612.135 605.925 612.135H603.979C597.674 611.979 591.317 611.305 585.167 610.682L580.886 610.033C580.571 610.003 580.277 609.86 580.058 609.632C579.839 609.403 579.709 609.104 579.692 608.788C579.407 605.36 578.904 601.954 578.187 598.591C577.524 595.419 577.031 592.214 576.708 588.99C575.8 578.611 578.836 570.827 586.231 564.86C591.328 560.939 597.6 558.854 604.031 558.944C610.254 559.056 616.406 560.286 622.193 562.576C624.642 563.377 626.952 564.549 629.043 566.053C631.093 567.662 634.233 571.502 634.233 574.901C634.225 575.339 634.164 575.775 634.051 576.198C635.946 576.967 637.552 578.31 638.644 580.039C642.795 585.747 633.221 604.714 632.78 605.596C629.977 611.227 620.221 612.135 612.178 612.135ZM582.183 607.49L585.453 607.828C591.524 608.476 597.829 609.125 604.031 609.281H606.028C612.463 609.514 627.564 610.033 630.419 604.351C633.454 598.331 638.903 584.865 636.49 581.543C634.077 578.222 632.728 578.378 632.183 578.689C631.894 578.847 631.557 578.893 631.236 578.819C630.915 578.745 630.632 578.556 630.44 578.288C630.249 578.02 630.162 577.691 630.196 577.364C630.23 577.036 630.383 576.732 630.626 576.51V576.51C630.917 576.33 631.156 576.077 631.32 575.777C631.484 575.477 631.566 575.139 631.56 574.797C631.038 572.129 629.539 569.751 627.357 568.129C625.499 566.792 623.441 565.758 621.259 565.067C615.751 562.862 609.885 561.684 603.953 561.59C598.144 561.464 592.461 563.292 587.814 566.78C581.171 572.151 578.447 579.104 579.251 588.601C579.537 591.689 580.133 594.88 580.704 597.942C581.371 601.095 581.865 604.283 582.183 607.49Z" fill="#231F20"/>
<path d="M622.998 607.672C624.944 599.421 638.955 598.383 637.528 608.165C637.181 611.579 635.637 614.759 633.169 617.143C631.917 618.294 630.352 619.05 628.671 619.313C626.99 619.576 625.269 619.336 623.725 618.622" fill="white"/>
<path d="M627.15 620.801C625.732 620.804 624.335 620.466 623.076 619.815C622.765 619.645 622.533 619.358 622.431 619.018C622.329 618.679 622.365 618.312 622.531 617.998C622.701 617.687 622.988 617.455 623.327 617.353C623.667 617.251 624.034 617.287 624.348 617.454C625.654 618.04 627.105 618.227 628.517 617.992C629.93 617.757 631.242 617.109 632.287 616.13C634.509 613.959 635.896 611.074 636.205 607.983C636.802 603.961 634.363 602.794 632.884 602.612C631.043 602.301 629.152 602.676 627.57 603.666C625.987 604.656 624.822 606.192 624.296 607.983C624.213 608.327 623.997 608.624 623.695 608.809C623.394 608.994 623.031 609.052 622.687 608.969C622.343 608.886 622.046 608.67 621.861 608.369C621.676 608.067 621.618 607.704 621.701 607.36C622.374 604.895 623.946 602.771 626.107 601.407C628.268 600.043 630.862 599.538 633.377 599.991C634.309 600.138 635.2 600.479 635.992 600.991C636.784 601.503 637.46 602.176 637.976 602.966C638.492 603.756 638.836 604.645 638.987 605.576C639.138 606.507 639.092 607.46 638.852 608.372C638.449 612.095 636.75 615.558 634.052 618.154C632.139 619.829 629.692 620.767 627.15 620.801Z" fill="#231F20"/>
<path d="M588.489 605.155C587.762 596.697 574.062 593.635 574.036 603.521C573.878 606.943 574.945 610.31 577.046 613.017C578.114 614.345 579.552 615.326 581.179 615.834C582.805 616.342 584.546 616.355 586.18 615.871" fill="white"/>
<path d="M583.818 617.61C582.328 617.582 580.862 617.234 579.519 616.589C578.176 615.945 576.987 615.018 576.034 613.873C573.736 610.913 572.551 607.239 572.687 603.494C572.573 602.549 572.661 601.59 572.944 600.68C573.226 599.77 573.698 598.931 574.327 598.216C574.957 597.501 575.73 596.926 576.596 596.53C577.462 596.134 578.403 595.926 579.355 595.918C581.885 595.896 584.336 596.798 586.248 598.456C588.159 600.114 589.399 602.414 589.734 604.921C589.763 605.275 589.651 605.626 589.422 605.898C589.194 606.17 588.868 606.342 588.514 606.374C588.16 606.403 587.809 606.291 587.537 606.063C587.265 605.835 587.094 605.509 587.061 605.155C586.811 603.289 585.875 601.584 584.436 600.37C582.997 599.157 581.158 598.522 579.277 598.59C577.746 598.59 575.203 599.369 575.203 603.417C575.034 606.511 575.952 609.568 577.798 612.057C578.706 613.192 579.93 614.032 581.316 614.471C582.702 614.91 584.186 614.928 585.582 614.522C585.747 614.46 585.923 614.432 586.099 614.439C586.275 614.447 586.448 614.489 586.608 614.564C586.767 614.639 586.91 614.745 587.028 614.876C587.146 615.007 587.237 615.16 587.295 615.326C587.412 615.66 587.394 616.027 587.243 616.347C587.093 616.667 586.822 616.916 586.49 617.039C585.636 617.373 584.734 617.565 583.818 617.61Z" fill="#231F20"/>
<path d="M586.647 646.93C587.898 649.632 589.881 651.93 592.371 653.563C594.862 655.196 597.76 656.098 600.737 656.167C603.777 656.472 606.845 655.985 609.642 654.753C612.438 653.521 614.868 651.585 616.694 649.135V643.245V629.623V616.883L591.759 615.041L590.15 625.42L589.657 628.767L586.647 646.93Z" fill="white"/>
<path d="M602.292 657.542C601.747 657.542 601.202 657.542 600.631 657.542C597.399 657.466 594.255 656.478 591.56 654.693C588.865 652.907 586.73 650.396 585.401 647.449C585.35 647.227 585.35 646.996 585.401 646.774L590.305 614.885C590.356 614.558 590.528 614.261 590.788 614.054C591.047 613.848 591.375 613.746 591.706 613.77L616.667 615.586C617.004 615.606 617.321 615.754 617.552 616C617.784 616.246 617.913 616.571 617.912 616.909L618.094 649.161C618.102 649.427 618.029 649.689 617.886 649.914C616.092 652.346 613.738 654.309 611.023 655.637C608.308 656.965 605.313 657.619 602.292 657.542V657.542ZM588.021 646.748C589.219 649.129 591.042 651.138 593.296 652.56C595.55 653.982 598.149 654.762 600.813 654.818C603.555 655.105 606.325 654.694 608.865 653.624C611.406 652.553 613.634 650.857 615.343 648.694L615.162 618.129L592.666 616.468L588.021 646.748Z" fill="#231F20"/>
<path d="M589.448 628.689C591.35 631.895 594.027 634.571 597.232 636.473C602.422 639.846 610.206 643.764 616.744 643.245V629.623C611.932 629.863 607.108 629.541 602.37 628.663C598.139 628.202 594.007 627.081 590.123 625.342L589.448 628.689Z" fill="#231F20"/>
<path d="M615.448 644.594C608.286 644.594 600.528 640.261 596.403 637.563C593.052 635.527 590.268 632.681 588.307 629.286C588.175 629.049 588.129 628.774 588.177 628.507L588.67 625.16C588.695 624.957 588.77 624.763 588.888 624.596C589.005 624.428 589.162 624.292 589.345 624.2C589.531 624.111 589.735 624.064 589.942 624.064C590.149 624.064 590.352 624.111 590.539 624.2C594.306 625.861 598.304 626.937 602.396 627.392C607.039 628.263 611.769 628.577 616.486 628.326C616.66 628.314 616.835 628.338 617 628.396C617.165 628.454 617.317 628.545 617.446 628.663C617.575 628.787 617.679 628.936 617.75 629.101C617.821 629.266 617.859 629.443 617.861 629.623V643.245C617.862 643.572 617.739 643.887 617.518 644.128C617.297 644.368 616.993 644.516 616.667 644.543L615.448 644.594ZM590.798 628.455C592.56 631.289 594.97 633.663 597.83 635.383C600.943 637.433 608.624 641.974 615.344 642V630.972C610.875 631.083 606.406 630.735 602.007 629.934C598.263 629.486 594.581 628.615 591.032 627.34L590.798 628.455Z" fill="#231F20"/>
<path d="M602.137 631.777L604.342 631.933C606.865 632.138 609.403 631.842 611.81 631.06C614.217 630.278 616.445 629.028 618.365 627.38C620.286 625.732 621.861 623.719 622.999 621.459C624.137 619.199 624.816 616.735 624.996 614.211L627.228 583.957L604.809 587.797L586.647 580.973L584.441 611.253C584.069 616.321 585.724 621.328 589.042 625.177C592.36 629.025 597.07 631.399 602.137 631.777Z" fill="white"/>
<path d="M605.795 633.334H604.264L602.033 633.152C596.608 632.754 591.563 630.218 588.007 626.102C584.45 621.986 582.673 616.627 583.066 611.201L585.297 580.921C585.311 580.714 585.375 580.514 585.483 580.338C585.592 580.161 585.742 580.014 585.92 579.909C586.104 579.814 586.309 579.764 586.517 579.764C586.724 579.764 586.929 579.814 587.114 579.909L604.809 586.577L626.864 582.815C627.066 582.781 627.272 582.791 627.47 582.844C627.667 582.898 627.85 582.994 628.006 583.127C628.152 583.266 628.265 583.436 628.337 583.624C628.409 583.813 628.438 584.015 628.421 584.216L626.216 614.496C625.836 619.657 623.522 624.484 619.735 628.01C615.949 631.537 610.97 633.503 605.795 633.515V633.334ZM602.215 630.428L604.446 630.609C606.785 630.779 609.135 630.486 611.361 629.747C613.588 629.008 615.646 627.838 617.42 626.303C619.193 624.768 620.647 622.898 621.698 620.801C622.748 618.704 623.375 616.421 623.543 614.081L625.645 585.54L604.887 589.094C604.656 589.145 604.417 589.145 604.187 589.094L587.84 582.945L585.738 611.486C585.565 613.821 585.854 616.167 586.589 618.39C587.324 620.613 588.49 622.669 590.02 624.44C591.551 626.212 593.415 627.664 595.508 628.714C597.601 629.763 599.88 630.39 602.215 630.557V630.428Z" fill="#231F20"/>
<path d="M605.951 617.117C604.333 617.112 602.718 616.964 601.125 616.675C600.774 616.606 600.465 616.401 600.266 616.104C600.066 615.807 599.993 615.444 600.061 615.093C600.098 614.922 600.168 614.76 600.268 614.617C600.368 614.474 600.495 614.351 600.642 614.257C600.789 614.163 600.953 614.099 601.125 614.069C601.297 614.039 601.474 614.043 601.644 614.081C603.238 614.352 604.853 614.483 606.47 614.47C606.367 610.116 605.57 605.807 604.109 601.704C604.006 601.36 604.043 600.989 604.214 600.673C604.384 600.356 604.673 600.121 605.017 600.018C605.361 599.914 605.732 599.952 606.048 600.122C606.365 600.293 606.6 600.582 606.704 600.926C607.845 604.714 610.31 613.899 608.598 616.234C608.424 616.497 608.189 616.715 607.914 616.868C607.638 617.022 607.33 617.107 607.015 617.117H605.951Z" fill="#231F20"/>
<path d="M615.071 598.194C615.202 596.408 614.718 594.916 613.989 594.863C613.26 594.809 612.563 596.214 612.431 598C612.3 599.787 612.785 601.278 613.514 601.332C614.242 601.386 614.94 599.981 615.071 598.194Z" fill="#231F20"/>
<path d="M598.11 596.131C598.242 594.344 597.757 592.853 597.028 592.799C596.299 592.745 595.602 594.15 595.471 595.937C595.34 597.723 595.824 599.215 596.553 599.268C597.282 599.322 597.979 597.917 598.11 596.131Z" fill="#231F20"/>
<path d="M604.81 623.5H604.239C601.554 623.227 598.953 622.407 596.597 621.09C594.241 619.774 592.179 617.989 590.539 615.846C590.434 615.705 590.357 615.545 590.314 615.374C590.271 615.203 590.263 615.026 590.29 614.852C590.316 614.678 590.377 614.511 590.469 614.361C590.561 614.211 590.682 614.08 590.825 613.978C591.108 613.768 591.462 613.678 591.812 613.727C592.161 613.775 592.477 613.958 592.693 614.237C594.089 616.041 595.828 617.552 597.809 618.683C599.79 619.814 601.976 620.543 604.239 620.828C609.065 620.983 613.917 618.363 618.718 613.044C618.839 612.918 618.984 612.818 619.144 612.75C619.305 612.682 619.477 612.646 619.652 612.646C619.826 612.646 619.999 612.682 620.159 612.75C620.32 612.818 620.465 612.918 620.586 613.044C620.721 613.158 620.832 613.298 620.912 613.456C620.992 613.614 621.039 613.787 621.051 613.963C621.063 614.14 621.04 614.317 620.982 614.484C620.924 614.652 620.834 614.806 620.715 614.938C615.63 620.542 610.259 623.5 604.81 623.5Z" fill="#231F20"/>
<path d="M1064.15 802.534C1059.74 772.928 1001.88 760.318 1001.88 760.318C1001.88 760.318 983.712 676.042 973.334 639.872C959.426 591.378 952.42 544.881 878.498 533.983C804.575 523.085 622.246 526.406 570.975 533.983C519.704 541.559 517.213 533.983 490.306 582.711C463.399 631.44 441.577 760.318 441.577 760.318C441.577 760.318 401.464 783.021 390.125 806.322C378.786 829.622 398.921 932.372 407.12 958.838C415.319 985.304 423.492 994.748 447.467 994.748C471.442 994.748 972.685 1001.05 1017.52 987.717C1062.36 974.38 1068.69 832.165 1064.15 802.534ZM968.378 725.653C967.496 735.123 965.783 742.259 954.444 745.814C948.807 747.378 942.988 748.189 937.138 748.227C935.477 748.227 933.713 748.227 931.819 748.227H501.437C500.904 748.223 500.374 748.162 499.854 748.045C494.665 747.111 484.597 741.532 480.835 726.794C476.632 710.396 507.794 603.599 517.446 579.624C527.669 554.222 606.6 544.647 701.799 545.4C791.42 546.1 904.185 551.264 919.753 563.251C935.321 575.239 969.623 711.797 968.378 725.653Z" fill="#1E71B9"/>
<path d="M595.312 919.761C595.312 919.761 575.152 852.974 575.774 846.02C576.397 839.066 581.431 830.27 585.53 829.025C589.63 827.779 851.175 825.859 857.454 830.27C863.733 834.681 867.548 841.609 866.925 846.669C866.302 851.728 854.937 912.211 851.798 919.761C848.658 927.312 606.028 932.994 595.312 919.761Z" fill="black"/>
<path d="M879.951 901.054C879.951 901.054 881.612 852.767 923.205 836.784C964.798 820.8 1024.03 820.826 1030.34 830.92C1036.64 841.013 1038.33 875.86 999.203 891.402C960.075 906.944 902.629 905.517 879.951 901.054Z" fill="white"/>
<path d="M919.053 905.361C905.869 905.528 892.697 904.52 879.692 902.351C879.39 902.289 879.12 902.123 878.929 901.88C878.739 901.638 878.642 901.335 878.654 901.028C878.654 900.535 880.833 851.728 922.764 835.589C963.812 819.84 1024.4 818.906 1031.46 830.218C1035.11 836.056 1036.77 848.381 1032.83 860.265C1029.54 870.332 1021.1 884.11 999.748 892.621C975.592 902.221 944.611 905.361 919.053 905.361ZM881.326 900.016C904.108 904.167 960.283 905.516 998.762 890.208C1019.21 882.06 1027.3 868.983 1030.34 859.461C1034.47 846.902 1031.95 835.901 1029.25 831.594C1023.41 822.279 964.382 822.382 923.672 838.002C886.853 852.144 881.871 892.776 881.326 900.016V900.016Z" fill="#231F20"/>
<path d="M566.123 904.427C566.123 904.427 557.301 841.843 516.123 834.37C474.945 826.898 424.53 818.802 414.93 834.37C405.329 849.939 409.896 877.235 436.362 888.158C462.828 899.082 545.521 909.046 566.123 904.427Z" fill="white"/>
<path d="M550.502 906.892C518.12 906.892 457.482 898.2 435.816 889.248C429.997 887.031 424.74 883.555 420.421 879.07C416.101 874.584 412.826 869.2 410.83 863.301C409.164 858.427 408.567 853.251 409.077 848.125C409.588 842.999 411.194 838.043 413.787 833.592C423.777 817.505 471.96 824.848 516.356 832.995C533.636 836.161 547.933 849.549 557.871 871.656C562.409 882.084 565.651 893.028 567.523 904.245C567.571 904.567 567.496 904.895 567.313 905.164C567.131 905.433 566.854 905.624 566.537 905.699C561.246 906.641 555.874 907.041 550.502 906.892ZM445.028 826.612C430.964 826.612 419.833 828.766 415.993 834.941C413.615 839.086 412.153 843.693 411.706 848.451C411.258 853.209 411.835 858.007 413.398 862.523C415.285 868.056 418.37 873.105 422.434 877.307C426.498 881.51 431.439 884.764 436.906 886.835C461.686 897.058 542.329 907.411 564.747 903.389C563.242 894.723 552.655 842.284 515.992 835.538C496.636 832.035 467.212 826.612 445.028 826.612Z" fill="#231F20"/>
<path d="M825.981 956.321H617.965C607.576 956.321 599.153 964.743 599.153 975.132V1001.78C599.153 1012.17 607.576 1020.59 617.965 1020.59H825.981C836.371 1020.59 844.793 1012.17 844.793 1001.78V975.132C844.793 964.743 836.371 956.321 825.981 956.321Z" fill="white"/>
<path d="M825.981 1021.89H617.965C612.634 1021.88 607.523 1019.76 603.753 1015.99C599.984 1012.22 597.863 1007.11 597.856 1001.78V975.133C597.863 969.802 599.984 964.691 603.753 960.921C607.523 957.152 612.634 955.031 617.965 955.024H825.981C831.315 955.024 836.429 957.143 840.2 960.914C843.972 964.685 846.09 969.8 846.09 975.133V1001.78C846.083 1007.11 843.962 1012.22 840.193 1015.99C836.423 1019.76 831.312 1021.88 825.981 1021.89V1021.89ZM617.965 957.619C613.32 957.619 608.865 959.464 605.58 962.748C602.296 966.033 600.451 970.488 600.451 975.133V1001.78C600.458 1006.42 602.305 1010.87 605.588 1014.16C608.871 1017.44 613.322 1019.29 617.965 1019.29H825.981C830.624 1019.29 835.075 1017.44 838.358 1014.16C841.641 1010.87 843.489 1006.42 843.495 1001.78V975.133C843.495 970.488 841.65 966.033 838.366 962.748C835.081 959.464 830.626 957.619 825.981 957.619H617.965Z" fill="#231F20"/>
<path d="M431.484 967.659C431.484 967.659 432.107 941.193 442.174 935.511C452.241 929.829 527.254 932.916 535.583 935.511C543.912 938.106 555.744 964.494 554.498 967.659C553.253 970.825 545.65 975.21 543.782 974.587C541.914 973.964 430.628 977.078 431.484 967.659Z" fill="white"/>
<path d="M543.99 975.937C543.733 975.938 543.478 975.894 543.237 975.807C542.692 975.807 536.984 975.807 530.264 975.807C481.873 976.092 436.31 975.547 430.809 969.58C430.546 969.316 430.342 968.999 430.212 968.65C430.083 968.3 430.03 967.927 430.057 967.556C430.057 966.025 430.913 940.26 441.421 934.37C451.93 928.48 528.032 931.775 535.713 934.37C542.199 936.368 549.179 950.093 551.281 954.245C552.526 956.84 556.47 965.662 555.536 968.23C554.22 970.218 552.522 971.923 550.539 973.246C548.556 974.569 546.33 975.484 543.99 975.937V975.937ZM539.371 973.186C540.895 973.07 542.428 973.131 543.938 973.368C545.261 973.549 551.955 969.865 553.045 967.167C553.72 964.286 542.511 939.066 534.882 936.757C526.735 934.162 452.319 931.204 442.641 936.757C432.963 942.309 432.6 967.53 432.6 967.893C434.156 971.915 467.005 973.757 530.186 973.394L539.371 973.186Z" fill="#231F20"/>
<path d="M1022.58 967.659C1022.58 967.659 1021.93 941.193 1011.86 935.511C1001.8 929.829 926.785 932.916 918.456 935.511C910.127 938.106 898.295 964.494 899.567 967.659C900.838 970.825 908.389 975.21 910.257 974.587C912.125 973.964 1023.41 977.078 1022.58 967.659Z" fill="white"/>
<path d="M909.972 975.963C905.26 974.992 901.127 972.193 898.477 968.179C897.465 965.584 901.487 956.814 902.732 954.193C904.73 950.042 911.71 936.316 918.301 934.318C926.085 931.957 1001.85 928.376 1012.59 934.318C1023.33 940.26 1023.93 965.973 1023.98 967.504C1024.01 967.878 1023.95 968.252 1023.81 968.601C1023.68 968.951 1023.47 969.267 1023.2 969.528C1017.7 975.496 972.166 976.041 923.749 975.755C917.159 975.755 911.451 975.755 910.776 975.755C910.519 975.863 910.248 975.933 909.972 975.963V975.963ZM975.695 933.617C951.642 933.617 923.801 935.278 918.975 936.757C911.45 939.066 900.241 964.287 900.812 967.219C901.876 969.813 908.596 973.55 909.92 973.342C914.465 973.084 919.022 973.084 923.568 973.342C986.852 973.731 1019.7 971.863 1021.18 967.815C1021.18 967.556 1020.45 942.024 1011.11 936.679C1007.25 934.422 992.405 933.617 975.695 933.617V933.617Z" fill="#231F20"/>
<path d="M835.426 850.613H605.873C604.411 850.613 603.227 851.792 603.227 853.247C603.227 854.701 604.411 855.881 605.873 855.881H835.426C836.887 855.881 838.072 854.701 838.072 853.247C838.072 851.792 836.887 850.613 835.426 850.613Z" fill="white"/>
<path d="M835.426 870.54H605.873C604.411 870.54 603.227 871.719 603.227 873.174C603.227 874.628 604.411 875.807 605.873 875.807H835.426C836.887 875.807 838.072 874.628 838.072 873.174C838.072 871.719 836.887 870.54 835.426 870.54Z" fill="white"/>
<path d="M835.426 890.468H605.873C604.411 890.468 603.227 891.647 603.227 893.101C603.227 894.556 604.411 895.735 605.873 895.735H835.426C836.887 895.735 838.072 894.556 838.072 893.101C838.072 891.647 836.887 890.468 835.426 890.468Z" fill="white"/>
<path d="M403.539 810.37C403.195 810.37 402.865 810.233 402.622 809.99C402.378 809.746 402.242 809.416 402.242 809.072C402.242 808.728 402.378 808.398 402.622 808.155C402.865 807.912 403.195 807.775 403.539 807.775C406.367 807.775 690.564 807.775 1048.45 801.418C1048.79 801.43 1049.11 801.566 1049.35 801.801C1049.6 802.035 1049.75 802.352 1049.77 802.689C1049.77 803.034 1049.63 803.363 1049.39 803.609C1049.15 803.855 1048.82 803.999 1048.48 804.013C690.59 810.292 406.367 810.37 403.539 810.37Z" fill="#231F20"/>
<defs>
<clipPath id="clip0">
<rect width="1387" height="944" fill="white"/>
</clipPath>
</defs>
</svg>
