<svg width="1920" height="1040" viewBox="0 0 1920 1040" fill="none" xmlns="http://www.w3.org/2000/svg">
<g clip-path="url(#clip0)">
<rect width="1920" height="1040" fill="white"/>
<path d="M5.41744 1066.55C5.41744 1066.55 -35.5548 728.518 107.856 626.08C232.738 536.855 336.618 482.669 548.324 475.84C760.03 469.011 876.094 468.98 1002.45 329.031C1128.8 189.082 1299.64 -22.3866 1490.69 -29.4925C1675.08 -36.3529 1787.74 21.707 1893.57 431.461C1999.41 841.216 1890.14 1052.89 1886.71 1056.28C1884.34 1058.72 5.41744 1066.55 5.41744 1066.55Z" fill="#F8F8FF"/>
<path d="M864.766 799.174C876.403 658.473 833.055 452.565 883.644 423.912C933.576 395.67 950.6 386.433 1002.42 329.023C1128.74 189.042 1299.47 -22.4182 1490.69 -29.4925C1675.08 -36.3529 1787.74 21.707 1893.57 431.461C1946.49 636.339 1943.37 744.576 1938.19 809.267C1935.38 844.852 1932.56 891.18 1930.85 892.867C1928.48 895.299 855.125 916.031 864.766 799.174Z" fill="#E9EDFC"/>
<path d="M437.133 344.986L421.963 1059.69C421.963 1064.8 435.691 1063.12 439.121 1063.12H459.711L456.55 346.15L579.197 349.58L525.946 48.721C523.197 33.1385 509.65 21.7706 493.822 21.7785H409.2C388.968 21.723 371.611 36.1885 368.022 56.0963L316.165 342.752L437.133 344.986Z" fill="#E1E6FC"/>
<path d="M225.942 894.681C225.942 894.681 225.19 922.685 229.927 925.806C231.963 927.399 234.292 928.571 236.787 929.236L260.363 1056.45C260.363 1056.45 329.482 1069.01 364.037 1054.88L387.613 929.205L395.472 926.044L398.633 894.641C398.633 894.649 313.899 866.408 225.942 894.681Z" fill="#E1E6FC"/>
<path d="M233.872 928.421C233.872 928.421 326.527 935.527 337.475 932.397C348.423 929.276 345.334 904.116 345.334 904.116L390.877 899.418C390.877 899.418 390.877 926.115 387.716 929.276C384.238 933.459 381.569 938.252 379.858 943.417C379.858 944.993 361.019 1056.67 361.019 1056.67C361.019 1056.67 331.161 1061.37 326.464 1061.37C321.766 1061.37 339.028 968.878 339.028 962.398C339.028 955.918 339.028 943.559 334.33 943.559C329.632 943.559 238.792 946.269 238.237 936.145C237.492 933.221 235.987 930.56 233.872 928.421Z" fill="#BAC4F6"/>
<path d="M270.352 900.551C270.352 900.551 244.511 882.394 230.782 880.746C217.053 879.098 201.13 877.316 187.401 875.185C173.673 873.054 156.173 866.914 156.514 858.882C156.854 850.849 158.502 847.007 166.567 842.238C173.364 837.809 181.072 834.965 189.112 833.896C195.149 833.349 257.13 849.439 282.972 887.915L293.27 900.543H270.352V900.551Z" fill="#BAC4F6"/>
<path d="M180.883 855.666C180.883 855.666 204.633 855.357 217.641 859.579C227.812 863.382 237.667 867.968 247.118 873.308L285.999 900.385" fill="#BAC4F6"/>
<path d="M180.883 855.666C180.883 855.666 204.633 855.357 217.641 859.579C227.812 863.382 237.667 867.968 247.118 873.308L285.999 900.385" stroke="white" stroke-width="0.75" stroke-miterlimit="10" stroke-linecap="round"/>
<path d="M297.565 899.49C297.565 899.49 267.501 858.653 255.8 847.158C244.099 835.663 230.402 822.521 219.114 810.503C207.825 798.493 193.581 781.263 199.586 774.197C205.591 767.13 209.885 762.322 220.825 763.898C229.38 764.809 237.58 767.843 244.678 772.715C250.714 776.629 305.32 828.684 313.313 888.502L321.172 900.615L297.565 899.49Z" fill="#BAC4F6"/>
<path d="M226.939 787.925C226.939 787.925 250.341 801.923 259.538 815.383C268.221 827.939 281.981 850.421 281.981 850.421L297.595 893.287" stroke="white" stroke-width="0.75" stroke-miterlimit="10" stroke-linecap="round"/>
<path d="M312.599 901.509C312.599 901.509 277.489 825.292 270.938 810.225C264.387 795.157 237.579 772.477 231.645 757.1C225.712 741.724 221.933 730.538 228.215 722.093C234.497 713.648 250.626 706.653 260.917 711.795C270.629 716.532 283.257 730.942 288.683 738.254C293.008 744.021 321.733 847.553 319.365 871.438L324.855 902.016L312.599 901.509Z" fill="#E9EDFC"/>
<path d="M250.753 739.879C250.753 739.879 270.898 765.823 277.006 781.057C283.867 798.216 290.735 830.918 289.84 825.674L310.809 896.472" stroke="white" stroke-width="0.75" stroke-miterlimit="10" stroke-linecap="round"/>
<path d="M293.342 900.932C293.342 900.932 262.454 865.687 247.387 858.858C232.319 852.029 215.2 844.306 200.473 836.962C185.746 829.618 168.08 817.157 171.067 809.679C174.053 802.2 177.103 799.174 187.743 797.772C197.035 796.196 206.549 796.457 215.747 798.525C222.607 800.307 287.131 839.291 303.704 885.587L311.356 901.542L293.342 900.932Z" fill="#E9EDFC"/>
<path d="M199.553 816.064C199.553 816.064 226.289 824.849 239.566 833.841C249.683 841.24 259.268 849.336 268.26 858.066L297.912 901.241" stroke="white" stroke-width="0.75" stroke-miterlimit="10" stroke-linecap="round"/>
<path d="M374.13 901.716C374.13 901.716 402.102 884.557 416.956 882.806C431.817 881.055 449.008 879.582 463.901 877.49C478.795 875.399 497.704 869.6 497.324 861.908C496.944 854.216 495.193 850.548 486.447 845.985C478.937 841.707 470.635 838.998 462.048 838.023C455.496 837.508 388.437 852.845 360.465 889.5L349.176 901.581L374.13 901.716Z" fill="#BAC4F6"/>
<path d="M470.872 858.89C470.872 858.89 445.205 858.581 431.096 862.629C420.156 866.21 409.493 870.567 399.178 875.668L361.874 900.717" fill="#BAC4F6"/>
<path d="M470.872 858.89C470.872 858.89 445.205 858.581 431.096 862.629C420.156 866.21 409.493 870.567 399.178 875.668L361.874 900.717" stroke="white" stroke-width="0.75" stroke-miterlimit="10" stroke-linecap="round"/>
<path d="M344.652 900.726C344.652 900.726 377.147 861.742 389.846 850.762C402.545 839.782 417.304 827.218 429.551 815.755C441.798 804.292 457.175 787.854 450.655 781.057C444.135 774.26 439.533 769.697 427.666 771.139C418.539 771.963 409.714 774.838 401.856 779.544C395.304 783.251 336.238 833.009 327.596 890.118L319.119 901.684L344.652 900.726Z" fill="#BAC4F6"/>
<path d="M421.107 794.239C421.107 794.239 395.781 807.587 385.831 820.318C376.427 832.327 361.566 853.78 361.566 853.78L344.645 894.689" stroke="white" stroke-width="0.75" stroke-miterlimit="10" stroke-linecap="round"/>
<path d="M328.452 902.682C328.452 902.682 366.438 829.895 373.512 815.477C380.586 801.059 409.612 779.512 416.029 764.753C422.446 749.995 426.533 739.355 419.808 731.331C413.082 723.298 395.543 716.572 384.428 721.381C373.924 725.912 360.409 739.672 354.404 746.636C349.738 752.157 318.644 850.999 321.187 873.854L315.254 903.062L328.452 902.682Z" fill="#E9EDFC"/>
<path d="M324.775 901.755C324.775 901.755 327.833 830.719 335.074 807.659C339.977 792.385 344.786 766.48 351.203 751.896C357.619 737.312 347.772 718.125 341.181 710.06C334.59 701.996 317.162 703.541 305.905 708.31C295.401 712.841 289.364 727.497 288.025 735.315C286.821 742.453 312.045 828.145 309.367 859.476L311.53 902.167L324.775 901.755Z" fill="#BAC4F6"/>
<path d="M395.335 748.418C395.335 748.418 373.542 773.198 366.919 787.711C359.441 804.149 351.994 835.346 353.191 830.197L328.514 899.522" stroke="white" stroke-width="0.75" stroke-miterlimit="10" stroke-linecap="round"/>
<path d="M349.246 902.128C349.246 902.128 382.843 868.46 398.972 861.94C415.101 855.42 433.805 848.211 449.728 841.042C465.651 833.872 484.767 822.132 481.542 814.994C478.318 807.857 474.991 804.973 463.488 803.634C453.419 802.129 443.168 802.375 433.187 804.355C425.637 806.074 355.972 843.268 338.021 887.504L329.75 902.738L349.246 902.128Z" fill="#E9EDFC"/>
<path d="M450.759 821.039C450.759 821.039 421.829 829.413 407.482 837.992C396.621 844.995 386.243 852.719 376.428 861.124L343.687 897.43" stroke="white" stroke-width="0.75" stroke-miterlimit="10" stroke-linecap="round"/>
<path d="M317.845 723.472C317.845 723.472 323.675 784.321 320.285 800.687C318.875 807.548 319.564 850.342 319.564 850.342L318.154 897.731" stroke="white" stroke-width="0.75" stroke-miterlimit="10" stroke-linecap="round"/>
<path d="M319.151 326.726L573.826 331.431L579.038 349.517L316.133 342.68L319.151 326.726Z" fill="#BAC4F6"/>
<path d="M1571.3 370.962L1569.21 871.351L1886.99 872.207C1886.99 872.207 1889.29 608.683 1876.69 356.306L1571.95 351.743L1571.3 370.962Z" fill="#BAC4F6"/>
<path d="M1272.29 435.652L1263.85 872.516H1535.47L1533.55 435.652H1272.29Z" fill="#BAC4F6"/>
<path d="M877.846 692.006L1268.24 694.026L1263.85 872.516L879.319 872.381L877.846 692.006Z" fill="#BAC4F6"/>
<path d="M845.684 440.184L846.642 873.443C846.642 873.443 849.011 900.694 875.058 901.859C901.105 903.023 1927.76 903.475 1927.76 903.475C1927.76 903.475 1936.92 874.75 1933.38 873.553C1929.85 872.349 879.312 872.389 879.312 872.389C879.312 872.389 879.621 857.052 879.621 847.237C879.621 836.32 879.035 426.534 879.035 426.534C868.412 432.175 857.234 436.754 845.684 440.184Z" fill="white"/>
<path d="M868.339 483.216L1907.1 489.427L1912.59 511.941L868.339 516.947V483.216Z" fill="white"/>
<path d="M1161.44 145.836V873.269L1188.86 875.4V126.863L1161.44 145.836Z" fill="white"/>
<path d="M1657.54 -0.529785L1656.92 873.268L1682.25 871.177L1686.19 16.5262L1657.54 -0.529785Z" fill="white"/>
<path d="M1188.86 126.863L1781.7 130.459L1764.64 99.7459L1222.6 99.4766L1188.86 126.863Z" fill="white"/>
<path d="M1288.8 270.139C1322.08 270.139 1349.06 243.159 1349.06 209.877C1349.06 176.595 1322.08 149.615 1288.8 149.615C1255.51 149.615 1228.53 176.595 1228.53 209.877C1228.53 243.159 1255.51 270.139 1288.8 270.139Z" fill="white"/>
<path d="M1347.44 268.761C1369.26 268.761 1386.94 251.077 1386.94 229.262C1386.94 207.447 1369.26 189.763 1347.44 189.763C1325.63 189.763 1307.94 207.447 1307.94 229.262C1307.94 251.077 1325.63 268.761 1347.44 268.761Z" fill="white"/>
<path d="M1745.94 326.86C1779.85 326.86 1807.33 299.373 1807.33 265.465C1807.33 231.558 1779.85 204.07 1745.94 204.07C1712.03 204.07 1684.54 231.558 1684.54 265.465C1684.54 299.373 1712.03 326.86 1745.94 326.86Z" fill="white"/>
<path d="M1682.7 313.512C1704.91 313.512 1722.92 295.505 1722.92 273.292C1722.92 251.079 1704.91 233.072 1682.7 233.072C1660.49 233.072 1642.48 251.079 1642.48 273.292C1642.48 295.505 1660.49 313.512 1682.7 313.512Z" fill="white"/>
</g>
<defs>
<clipPath id="clip0">
<rect width="1920" height="1040" fill="white"/>
</clipPath>
</defs>
</svg>
