<svg width="1920" height="1040" viewBox="0 0 1920 1040" fill="none" xmlns="http://www.w3.org/2000/svg">
<g clip-path="url(#clip0)">
<rect width="1920" height="1040" fill="white"/>
<path d="M5.41744 1066.55C5.41744 1066.55 -35.5548 728.518 107.856 626.08C232.738 536.855 336.618 482.669 548.324 475.84C760.03 469.011 876.094 468.98 1002.45 329.031C1128.8 189.082 1299.64 -22.3866 1490.69 -29.4925C1675.08 -36.3529 1787.74 21.707 1893.57 431.461C1999.41 841.216 1890.14 1052.89 1886.71 1056.28C1884.34 1058.72 5.41744 1066.55 5.41744 1066.55Z" fill="#F8F8FF"/>
<path d="M864.766 799.174C876.403 658.473 833.055 452.565 883.644 423.912C933.576 395.67 950.6 386.433 1002.42 329.023C1128.74 189.042 1299.47 -22.4182 1490.69 -29.4925C1675.08 -36.3529 1787.74 21.707 1893.57 431.461C1946.49 636.339 1943.37 744.576 1938.19 809.267C1935.38 844.852 1932.56 891.18 1930.85 892.867C1928.48 895.299 855.125 916.031 864.766 799.174Z" fill="#E9EDFC"/>
<path d="M437.133 344.986L421.963 1059.69C421.963 1064.8 435.691 1063.12 439.121 1063.12H459.711L456.55 346.15L579.197 349.58L525.946 48.721C523.197 33.1385 509.65 21.7706 493.822 21.7785H409.2C388.968 21.723 371.611 36.1885 368.022 56.0963L316.165 342.752L437.133 344.986Z" fill="#E1E6FC"/>
<path d="M225.942 894.681C225.942 894.681 225.19 922.685 229.927 925.806C231.963 927.399 234.292 928.571 236.787 929.236L260.363 1056.45C260.363 1056.45 329.482 1069.01 364.037 1054.88L387.613 929.205L395.472 926.044L398.633 894.641C398.633 894.649 313.899 866.408 225.942 894.681Z" fill="#E1E6FC"/>
<path d="M233.872 928.421C233.872 928.421 326.527 935.527 337.475 932.397C348.423 929.276 345.334 904.116 345.334 904.116L390.877 899.418C390.877 899.418 390.877 926.115 387.716 929.276C384.238 933.459 381.569 938.252 379.858 943.417C379.858 944.993 361.019 1056.67 361.019 1056.67C361.019 1056.67 331.161 1061.37 326.464 1061.37C321.766 1061.37 339.028 968.878 339.028 962.398C339.028 955.918 339.028 943.559 334.33 943.559C329.632 943.559 238.792 946.269 238.237 936.145C237.492 933.221 235.987 930.56 233.872 928.421Z" fill="#BAC4F6"/>
<path d="M270.352 900.551C270.352 900.551 244.511 882.394 230.782 880.746C217.053 879.098 201.13 877.316 187.401 875.185C173.673 873.054 156.173 866.914 156.514 858.882C156.854 850.849 158.502 847.007 166.567 842.238C173.364 837.809 181.072 834.965 189.112 833.896C195.149 833.349 257.13 849.439 282.972 887.915L293.27 900.543H270.352V900.551Z" fill="#BAC4F6"/>
<path d="M180.883 855.666C180.883 855.666 204.633 855.357 217.641 859.579C227.812 863.382 237.667 867.968 247.118 873.308L285.999 900.385" fill="#BAC4F6"/>
<path d="M180.883 855.666C180.883 855.666 204.633 855.357 217.641 859.579C227.812 863.382 237.667 867.968 247.118 873.308L285.999 900.385" stroke="white" stroke-width="0.75" stroke-miterlimit="10" stroke-linecap="round"/>
<path d="M297.565 899.49C297.565 899.49 267.501 858.653 255.8 847.158C244.099 835.663 230.402 822.521 219.114 810.503C207.825 798.493 193.581 781.263 199.586 774.197C205.591 767.13 209.885 762.322 220.825 763.898C229.38 764.809 237.58 767.843 244.678 772.715C250.714 776.629 305.32 828.684 313.313 888.502L321.172 900.615L297.565 899.49Z" fill="#BAC4F6"/>
<path d="M226.939 787.925C226.939 787.925 250.341 801.923 259.538 815.383C268.221 827.939 281.981 850.421 281.981 850.421L297.595 893.287" stroke="white" stroke-width="0.75" stroke-miterlimit="10" stroke-linecap="round"/>
<path d="M312.599 901.509C312.599 901.509 277.489 825.292 270.938 810.225C264.387 795.157 237.579 772.477 231.645 757.1C225.712 741.724 221.933 730.538 228.215 722.093C234.497 713.648 250.626 706.653 260.917 711.795C270.629 716.532 283.257 730.942 288.683 738.254C293.008 744.021 321.733 847.553 319.365 871.438L324.855 902.016L312.599 901.509Z" fill="#E9EDFC"/>
<path d="M250.753 739.879C250.753 739.879 270.898 765.823 277.006 781.057C283.867 798.216 290.735 830.918 289.84 825.674L310.809 896.472" stroke="white" stroke-width="0.75" stroke-miterlimit="10" stroke-linecap="round"/>
<path d="M293.342 900.932C293.342 900.932 262.454 865.687 247.387 858.858C232.319 852.029 215.2 844.306 200.473 836.962C185.746 829.618 168.08 817.157 171.067 809.679C174.053 802.2 177.103 799.174 187.743 797.772C197.035 796.196 206.549 796.457 215.747 798.525C222.607 800.307 287.131 839.291 303.704 885.587L311.356 901.542L293.342 900.932Z" fill="#E9EDFC"/>
<path d="M199.553 816.064C199.553 816.064 226.289 824.849 239.566 833.841C249.683 841.24 259.268 849.336 268.26 858.066L297.912 901.241" stroke="white" stroke-width="0.75" stroke-miterlimit="10" stroke-linecap="round"/>
<path d="M374.13 901.716C374.13 901.716 402.102 884.557 416.956 882.806C431.817 881.055 449.008 879.582 463.901 877.49C478.795 875.399 497.704 869.6 497.324 861.908C496.944 854.216 495.193 850.548 486.447 845.985C478.937 841.707 470.635 838.998 462.048 838.023C455.496 837.508 388.437 852.845 360.465 889.5L349.176 901.581L374.13 901.716Z" fill="#BAC4F6"/>
<path d="M470.872 858.89C470.872 858.89 445.205 858.581 431.096 862.629C420.156 866.21 409.493 870.567 399.178 875.668L361.874 900.717" fill="#BAC4F6"/>
<path d="M470.872 858.89C470.872 858.89 445.205 858.581 431.096 862.629C420.156 866.21 409.493 870.567 399.178 875.668L361.874 900.717" stroke="white" stroke-width="0.75" stroke-miterlimit="10" stroke-linecap="round"/>
<path d="M344.652 900.726C344.652 900.726 377.147 861.742 389.846 850.762C402.545 839.782 417.304 827.218 429.551 815.755C441.798 804.292 457.175 787.854 450.655 781.057C444.135 774.26 439.533 769.697 427.666 771.139C418.539 771.963 409.714 774.838 401.856 779.544C395.304 783.251 336.238 833.009 327.596 890.118L319.119 901.684L344.652 900.726Z" fill="#BAC4F6"/>
<path d="M421.107 794.239C421.107 794.239 395.781 807.587 385.831 820.318C376.427 832.327 361.566 853.78 361.566 853.78L344.645 894.689" stroke="white" stroke-width="0.75" stroke-miterlimit="10" stroke-linecap="round"/>
<path d="M328.452 902.682C328.452 902.682 366.438 829.895 373.512 815.477C380.586 801.059 409.612 779.512 416.029 764.753C422.446 749.995 426.533 739.355 419.808 731.331C413.082 723.298 395.543 716.572 384.428 721.381C373.924 725.912 360.409 739.672 354.404 746.636C349.738 752.157 318.644 850.999 321.187 873.854L315.254 903.062L328.452 902.682Z" fill="#E9EDFC"/>
<path d="M324.775 901.755C324.775 901.755 327.833 830.719 335.074 807.659C339.977 792.385 344.786 766.48 351.203 751.896C357.619 737.312 347.772 718.125 341.181 710.06C334.59 701.996 317.162 703.541 305.905 708.31C295.401 712.841 289.364 727.497 288.025 735.315C286.821 742.453 312.045 828.145 309.367 859.476L311.53 902.167L324.775 901.755Z" fill="#BAC4F6"/>
<path d="M395.335 748.418C395.335 748.418 373.542 773.198 366.919 787.711C359.441 804.149 351.994 835.346 353.191 830.197L328.514 899.522" stroke="white" stroke-width="0.75" stroke-miterlimit="10" stroke-linecap="round"/>
<path d="M349.246 902.128C349.246 902.128 382.843 868.46 398.972 861.94C415.101 855.42 433.805 848.211 449.728 841.042C465.651 833.872 484.767 822.132 481.542 814.994C478.318 807.857 474.991 804.973 463.488 803.634C453.419 802.129 443.168 802.375 433.187 804.355C425.637 806.074 355.972 843.268 338.021 887.504L329.75 902.738L349.246 902.128Z" fill="#E9EDFC"/>
<path d="M450.759 821.039C450.759 821.039 421.829 829.413 407.482 837.992C396.621 844.995 386.243 852.719 376.428 861.124L343.687 897.43" stroke="white" stroke-width="0.75" stroke-miterlimit="10" stroke-linecap="round"/>
<path d="M317.845 723.472C317.845 723.472 323.675 784.321 320.285 800.687C318.875 807.548 319.564 850.342 319.564 850.342L318.154 897.731" stroke="white" stroke-width="0.75" stroke-miterlimit="10" stroke-linecap="round"/>
<path d="M319.151 326.726L573.826 331.431L579.038 349.517L316.133 342.68L319.151 326.726Z" fill="#BAC4F6"/>
<path d="M1571.3 370.962L1569.21 871.351L1886.99 872.207C1886.99 872.207 1889.29 608.683 1876.69 356.306L1571.95 351.743L1571.3 370.962Z" fill="#BAC4F6"/>
<path d="M1272.29 435.652L1263.85 872.516H1535.47L1533.55 435.652H1272.29Z" fill="#BAC4F6"/>
<path d="M877.846 692.006L1268.24 694.026L1263.85 872.516L879.319 872.381L877.846 692.006Z" fill="#BAC4F6"/>
<path d="M845.684 440.184L846.642 873.443C846.642 873.443 849.011 900.694 875.058 901.859C901.105 903.023 1927.76 903.475 1927.76 903.475C1927.76 903.475 1936.92 874.75 1933.38 873.553C1929.85 872.349 879.312 872.389 879.312 872.389C879.312 872.389 879.621 857.052 879.621 847.237C879.621 836.32 879.035 426.534 879.035 426.534C868.412 432.175 857.234 436.754 845.684 440.184Z" fill="white"/>
<path d="M868.339 483.216L1907.1 489.427L1912.59 511.941L868.339 516.947V483.216Z" fill="white"/>
<path d="M1161.44 145.836V873.268L1188.86 875.399V126.863L1161.44 145.836Z" fill="white"/>
<path d="M1657.54 -0.529541L1656.92 873.268L1682.25 871.177L1686.19 16.5264L1657.54 -0.529541Z" fill="white"/>
<path d="M1188.86 126.863L1781.7 130.46L1764.64 99.7461L1222.6 99.4768L1188.86 126.863Z" fill="white"/>
<path d="M1288.8 270.139C1322.08 270.139 1349.06 243.159 1349.06 209.877C1349.06 176.595 1322.08 149.615 1288.8 149.615C1255.51 149.615 1228.53 176.595 1228.53 209.877C1228.53 243.159 1255.51 270.139 1288.8 270.139Z" fill="white"/>
<path d="M1347.44 268.761C1369.26 268.761 1386.94 251.077 1386.94 229.262C1386.94 207.448 1369.26 189.763 1347.44 189.763C1325.63 189.763 1307.94 207.448 1307.94 229.262C1307.94 251.077 1325.63 268.761 1347.44 268.761Z" fill="white"/>
<path d="M1745.94 326.86C1779.85 326.86 1807.33 299.373 1807.33 265.465C1807.33 231.558 1779.85 204.07 1745.94 204.07C1712.03 204.07 1684.54 231.558 1684.54 265.465C1684.54 299.373 1712.03 326.86 1745.94 326.86Z" fill="white"/>
<path d="M1682.7 313.512C1704.91 313.512 1722.92 295.505 1722.92 273.292C1722.92 251.079 1704.91 233.073 1682.7 233.073C1660.49 233.073 1642.48 251.079 1642.48 273.292C1642.48 295.505 1660.49 313.512 1682.7 313.512Z" fill="white"/>
<path d="M1138.57 931.189H900.101V1043.58H1138.57V931.189Z" fill="#231F20"/>
<path d="M1138.57 1044.94H900.1C899.731 1044.94 899.377 1044.79 899.116 1044.53C898.855 1044.27 898.708 1043.92 898.708 1043.55V931.188C898.708 930.819 898.855 930.465 899.116 930.204C899.377 929.943 899.731 929.796 900.1 929.796H1138.57C1138.94 929.796 1139.3 929.943 1139.56 930.204C1139.82 930.465 1139.97 930.819 1139.97 931.188V1043.55C1139.97 1043.92 1139.82 1044.27 1139.56 1044.53C1139.3 1044.79 1138.94 1044.94 1138.57 1044.94ZM901.492 1042.16H1137.18V932.58H901.492V1042.16Z" fill="#231F20"/>
<path d="M1360.96 815.376H1290.47C1290.1 815.376 1289.74 815.229 1289.48 814.968C1289.22 814.707 1289.08 814.353 1289.08 813.984V800.315C1289.08 799.946 1289.22 799.592 1289.48 799.331C1289.74 799.07 1290.1 798.923 1290.47 798.923H1360.96C1361.33 798.923 1361.68 799.07 1361.94 799.331C1362.2 799.592 1362.35 799.946 1362.35 800.315V813.984C1362.35 814.353 1362.2 814.707 1361.94 814.968C1361.68 815.229 1361.33 815.376 1360.96 815.376ZM1291.86 812.592H1359.56V801.707H1291.94L1291.86 812.592Z" fill="#D1D3D4"/>
<path d="M1349.07 897.447H1302.33C1301.98 897.448 1301.64 897.315 1301.39 897.077C1301.14 896.839 1300.98 896.514 1300.96 896.166L1295.53 814.068C1295.52 813.677 1295.66 813.297 1295.92 813.01C1296.05 812.874 1296.21 812.767 1296.38 812.695C1296.55 812.623 1296.74 812.588 1296.93 812.592H1354.5C1354.68 812.588 1354.87 812.623 1355.04 812.695C1355.22 812.767 1355.37 812.874 1355.5 813.01C1355.76 813.297 1355.9 813.677 1355.89 814.068L1350.32 896.166C1350.3 896.495 1350.17 896.806 1349.93 897.041C1349.7 897.277 1349.4 897.421 1349.07 897.447V897.447ZM1303.63 894.663H1347.79L1352.99 815.376H1298.43L1303.63 894.663Z" fill="#D1D3D4"/>
<path d="M1386.6 896.445H834.538C828.449 896.445 823.514 901.381 823.514 907.47V920.165C823.514 926.253 828.449 931.189 834.538 931.189H1386.6C1392.68 931.189 1397.62 926.253 1397.62 920.165V907.47C1397.62 901.381 1392.68 896.445 1386.6 896.445Z" fill="white"/>
<path d="M1386.6 932.581H834.565C831.27 932.581 828.109 931.274 825.776 928.946C823.443 926.618 822.128 923.46 822.121 920.164V907.47C822.128 904.174 823.443 901.016 825.776 898.688C828.109 896.36 831.27 895.053 834.565 895.053H1386.6C1389.89 895.053 1393.05 896.361 1395.38 898.69C1397.7 901.018 1399.01 904.177 1399.01 907.47V920.164C1399.01 923.458 1397.7 926.616 1395.38 928.944C1393.05 931.273 1389.89 932.581 1386.6 932.581V932.581ZM834.565 897.837C832.008 897.837 829.555 898.851 827.744 900.657C825.933 902.462 824.912 904.912 824.905 907.47V920.164C824.912 922.722 825.933 925.172 827.744 926.977C829.555 928.783 832.008 929.797 834.565 929.797H1386.6C1389.15 929.797 1391.6 928.782 1393.41 926.976C1395.21 925.169 1396.23 922.719 1396.23 920.164V907.47C1396.23 904.915 1395.21 902.465 1393.41 900.658C1391.6 898.852 1389.15 897.837 1386.6 897.837H834.565Z" fill="#231F20"/>
<path d="M1389.91 896.445H1123.74C1119.46 896.445 1116 899.91 1116 904.185V923.45C1116 927.724 1119.46 931.189 1123.74 931.189H1389.91C1394.18 931.189 1397.65 927.724 1397.65 923.45V904.185C1397.65 899.91 1394.18 896.445 1389.91 896.445Z" fill="white"/>
<path d="M1389.91 932.581H1123.71C1121.28 932.581 1118.96 931.619 1117.25 929.906C1115.54 928.194 1114.58 925.871 1114.58 923.45V904.157C1114.58 902.959 1114.81 901.773 1115.27 900.667C1115.73 899.56 1116.4 898.555 1117.25 897.71C1118.1 896.864 1119.11 896.194 1120.21 895.738C1121.32 895.282 1122.51 895.05 1123.71 895.053H1389.91C1392.32 895.053 1394.64 896.012 1396.35 897.72C1398.05 899.427 1399.01 901.742 1399.01 904.157V923.45C1399.01 925.867 1398.05 928.185 1396.35 929.897C1394.64 931.608 1392.33 932.574 1389.91 932.581ZM1123.71 897.837C1122.03 897.837 1120.42 898.502 1119.23 899.686C1118.04 900.871 1117.37 902.478 1117.36 904.157V923.45C1117.37 925.131 1118.04 926.741 1119.23 927.93C1120.42 929.119 1122.03 929.79 1123.71 929.797H1389.91C1391.59 929.79 1393.19 929.118 1394.38 927.928C1395.56 926.739 1396.23 925.128 1396.23 923.45V904.157C1396.23 902.481 1395.56 900.873 1394.38 899.688C1393.19 898.503 1391.58 897.837 1389.91 897.837H1123.71Z" fill="#231F20"/>
<path d="M1147.18 750.983C1147.18 750.983 1156.78 849.368 1135.51 862.731C1115.77 875.064 1093.89 871.472 1081.72 871.472C1077.22 871.254 1072.76 872.489 1069 874.994C1065.25 877.5 1062.4 881.145 1060.87 885.392L1057.64 896.083H1209.65C1221.07 888.571 1230.69 878.627 1237.82 866.962C1248.01 848.978 1241.72 755.604 1241.72 755.604L1147.18 750.983Z" fill="white"/>
<path d="M1209.76 897.447H1057.76C1057.54 897.452 1057.32 897.403 1057.13 897.306C1056.94 897.209 1056.77 897.067 1056.64 896.89C1056.5 896.722 1056.41 896.521 1056.37 896.307C1056.33 896.093 1056.35 895.872 1056.42 895.665L1059.65 884.975C1061.28 880.437 1064.32 876.542 1068.33 873.862C1072.34 871.181 1077.1 869.856 1081.92 870.081C1083.95 870.081 1086.29 870.081 1088.82 870.304C1101.49 870.86 1118.89 871.612 1134.96 861.534C1143.31 856.356 1147.79 835.727 1148.12 801.874C1148.37 775.983 1146.01 751.373 1145.98 751.123C1145.96 750.924 1145.99 750.725 1146.06 750.538C1146.13 750.351 1146.23 750.181 1146.37 750.037C1146.51 749.887 1146.67 749.769 1146.86 749.691C1147.05 749.614 1147.25 749.58 1147.46 749.591L1241.83 754.213C1242.17 754.231 1242.49 754.371 1242.74 754.605C1242.98 754.84 1243.13 755.155 1243.17 755.493C1243.42 759.335 1249.38 849.48 1239.1 867.603C1231.87 879.484 1222.08 889.611 1210.46 897.252C1210.25 897.377 1210.01 897.445 1209.76 897.447V897.447ZM1059.62 894.663H1209.34C1220.44 887.277 1229.79 877.557 1236.74 866.183C1245.98 849.897 1241.22 767.966 1240.52 756.858L1148.82 752.403C1150.02 765.683 1156.86 851.011 1136.35 863.761C1119.64 874.285 1100.94 873.477 1088.6 872.948C1086.12 872.948 1083.84 872.726 1081.84 872.726C1077.64 872.522 1073.48 873.665 1069.98 875.989C1066.47 878.312 1063.8 881.695 1062.35 885.643L1059.62 894.663Z" fill="#231F20"/>
<path d="M1234.54 844.58C1234.54 868.884 1227.24 876.15 1217.53 876.15H1179.39C1176.77 876.146 1174.21 876.944 1172.06 878.438C1169.91 879.931 1168.27 882.048 1167.36 884.502L1163.13 896H1221.9C1236.96 896 1247.65 873.199 1248.12 848.895C1248.6 824.591 1248.12 755.549 1248.12 755.549H1235.01C1235.01 755.549 1234.54 820.304 1234.54 844.58Z" fill="#231F20"/>
<path d="M1221.9 897.447H1163.13C1162.91 897.444 1162.69 897.389 1162.49 897.288C1162.29 897.187 1162.12 897.041 1161.99 896.862C1161.86 896.676 1161.78 896.463 1161.76 896.241C1161.73 896.02 1161.75 895.794 1161.82 895.582L1166.05 884.084C1167.05 881.352 1168.87 878.994 1171.25 877.326C1173.64 875.658 1176.48 874.762 1179.39 874.758H1217.53C1228.02 874.758 1233.14 864.903 1233.14 844.58C1233.14 820.582 1233.62 756.217 1233.62 755.493C1233.63 755.131 1233.78 754.788 1234.04 754.535C1234.3 754.281 1234.65 754.136 1235.01 754.129H1248.12C1248.3 754.125 1248.48 754.158 1248.65 754.225C1248.82 754.292 1248.98 754.392 1249.1 754.519C1249.23 754.646 1249.34 754.797 1249.41 754.965C1249.48 755.132 1249.51 755.312 1249.51 755.493C1249.51 756.189 1250.02 824.869 1249.51 848.895C1249.01 872.92 1238.57 897.447 1221.9 897.447ZM1165.13 894.663H1221.9C1235.09 894.663 1246.23 874.145 1246.73 848.923C1247.18 826.846 1246.73 766.88 1246.73 757.052H1236.37C1236.37 766.573 1235.9 822.614 1235.9 844.636C1235.9 866.657 1229.89 877.598 1217.5 877.598H1179.36C1177.02 877.596 1174.73 878.316 1172.81 879.662C1170.89 881.007 1169.44 882.911 1168.64 885.114L1165.13 894.663Z" fill="#231F20"/>
<path d="M1029.3 483.056L1006.31 746.084C1005.93 749.014 1006.18 751.992 1007.04 754.819C1007.9 757.647 1009.35 760.259 1011.29 762.484C1013.24 764.708 1015.63 766.493 1018.32 767.722C1021.01 768.95 1023.93 769.593 1026.88 769.608H1340.49C1346.77 769.379 1352.75 766.86 1357.3 762.526C1361.85 758.193 1364.65 752.344 1365.19 746.084L1388.21 483.056C1388.59 480.124 1388.35 477.145 1387.49 474.315C1386.63 471.486 1385.18 468.872 1383.24 466.646C1381.29 464.421 1378.89 462.635 1376.2 461.409C1373.51 460.182 1370.59 459.542 1367.64 459.531H1054C1047.72 459.76 1041.74 462.279 1037.19 466.613C1032.64 470.947 1029.84 476.795 1029.3 483.056V483.056Z" fill="#231F20"/>
<path d="M1340.49 771H1026.88C1023.86 771.029 1020.86 770.422 1018.08 769.219C1015.3 768.015 1012.81 766.241 1010.76 764.012C1008.58 761.583 1006.93 758.722 1005.92 755.614C1004.91 752.506 1004.57 749.221 1004.92 745.972L1027.91 482.944C1028.49 476.341 1031.46 470.177 1036.27 465.609C1041.07 461.042 1047.37 458.385 1054 458.139H1367.64C1370.67 458.102 1373.68 458.705 1376.47 459.909C1379.26 461.113 1381.76 462.891 1383.81 465.127C1385.99 467.564 1387.64 470.431 1388.65 473.542C1389.65 476.654 1390 479.942 1389.66 483.195L1366.64 746.195C1366.06 752.809 1363.09 758.985 1358.27 763.555C1353.45 768.125 1347.13 770.773 1340.49 771V771ZM1030.7 483.195L1007.67 746.195C1007.37 749.062 1007.67 751.961 1008.56 754.704C1009.45 757.447 1010.9 759.973 1012.82 762.119C1014.59 764.045 1016.75 765.581 1019.14 766.63C1021.54 767.68 1024.13 768.22 1026.74 768.216H1340.49C1346.43 767.986 1352.08 765.596 1356.37 761.494C1360.67 757.393 1363.32 751.863 1363.82 745.944L1386.82 482.917C1387.13 480.051 1386.84 477.152 1385.96 474.409C1385.07 471.665 1383.62 469.138 1381.7 466.992C1379.91 465.048 1377.74 463.501 1375.32 462.451C1372.89 461.4 1370.28 460.87 1367.64 460.895H1054C1048.07 461.126 1042.42 463.517 1038.13 467.619C1033.84 471.721 1031.19 477.251 1030.7 483.167V483.195Z" fill="#231F20"/>
<path d="M1028.27 481.998L1006.28 733.138C1005.92 735.937 1006.16 738.78 1006.98 741.479C1007.81 744.179 1009.19 746.673 1011.05 748.797C1012.91 750.92 1015.2 752.625 1017.76 753.799C1020.33 754.973 1023.11 755.588 1025.94 755.605H1325.35C1331.34 755.376 1337.05 752.967 1341.39 748.83C1345.73 744.693 1348.41 739.113 1348.93 733.138L1370.95 481.998C1371.31 479.198 1371.08 476.353 1370.26 473.652C1369.44 470.951 1368.05 468.455 1366.19 466.33C1364.33 464.205 1362.04 462.5 1359.48 461.328C1356.91 460.156 1354.12 459.543 1351.3 459.531H1051.85C1045.86 459.748 1040.15 462.153 1035.8 466.292C1031.46 470.432 1028.78 476.019 1028.27 481.998V481.998Z" fill="white"/>
<path d="M1325.35 756.997H1025.94C1023.04 757.02 1020.17 756.434 1017.51 755.278C1014.86 754.123 1012.47 752.423 1010.51 750.288C1008.42 747.959 1006.85 745.216 1005.89 742.237C1004.93 739.258 1004.61 736.111 1004.94 732.999L1026.88 481.998C1027.42 475.658 1030.28 469.737 1034.89 465.36C1039.51 460.983 1045.58 458.453 1051.94 458.251H1351.3C1354.2 458.228 1357.07 458.813 1359.73 459.969C1362.39 461.125 1364.78 462.825 1366.75 464.96C1368.83 467.286 1370.41 470.025 1371.37 472.998C1372.33 475.972 1372.65 479.114 1372.31 482.221L1350.41 733.25C1349.86 739.588 1347 745.505 1342.39 749.881C1337.77 754.258 1331.71 756.789 1325.35 756.997V756.997ZM1029.64 481.998L1007.67 733.139C1007.38 735.866 1007.66 738.624 1008.51 741.234C1009.35 743.844 1010.74 746.246 1012.57 748.283C1014.26 750.139 1016.33 751.616 1018.63 752.619C1020.94 753.622 1023.42 754.127 1025.94 754.102H1325.35C1331.01 753.898 1336.4 751.627 1340.51 747.719C1344.61 743.81 1347.14 738.535 1347.62 732.888L1369.56 481.998C1369.85 479.269 1369.57 476.509 1368.73 473.895C1367.89 471.282 1366.51 468.873 1364.69 466.826C1362.98 464.977 1360.91 463.507 1358.61 462.509C1356.3 461.512 1353.81 461.009 1351.3 461.035H1051.85C1046.2 461.239 1040.81 463.505 1036.7 467.408C1032.6 471.311 1030.07 476.579 1029.58 482.221L1029.64 481.998Z" fill="#231F20"/>
<path d="M1009.98 690.961L1006.28 733.138C1005.92 735.937 1006.16 738.78 1006.98 741.48C1007.81 744.179 1009.19 746.673 1011.05 748.797C1012.91 750.921 1015.2 752.626 1017.76 753.799C1020.33 754.973 1023.11 755.588 1025.94 755.605H1325.35C1331.34 755.376 1337.05 752.967 1341.39 748.83C1345.73 744.693 1348.41 739.113 1348.93 733.138L1352.6 690.961H1009.98Z" fill="white"/>
<path d="M1325.35 756.997H1025.94C1023.04 757.019 1020.17 756.434 1017.51 755.278C1014.86 754.122 1012.47 752.422 1010.51 750.287C1008.42 747.959 1006.85 745.215 1005.89 742.237C1004.93 739.258 1004.61 736.11 1004.94 732.999L1008.59 690.794C1008.62 690.445 1008.78 690.119 1009.04 689.881C1009.29 689.644 1009.63 689.513 1009.98 689.514H1352.66C1352.85 689.516 1353.04 689.556 1353.22 689.633C1353.4 689.709 1353.56 689.82 1353.69 689.959C1353.94 690.251 1354.07 690.631 1354.05 691.017L1350.41 733.25C1349.86 739.588 1347 745.505 1342.39 749.881C1337.77 754.257 1331.71 756.789 1325.35 756.997V756.997ZM1011.26 692.353L1007.67 733.25C1007.38 735.977 1007.66 738.735 1008.51 741.345C1009.35 743.955 1010.74 746.357 1012.57 748.394C1014.26 750.25 1016.33 751.727 1018.63 752.73C1020.94 753.733 1023.42 754.238 1025.94 754.213H1325.35C1331.01 754.009 1336.4 751.738 1340.51 747.83C1344.61 743.921 1347.14 738.646 1347.62 732.999L1351.16 692.353H1011.26Z" fill="#231F20"/>
<path d="M1189.79 730.818C1194.4 723.934 1193.09 714.967 1186.85 710.79C1180.62 706.613 1171.83 708.807 1167.21 715.691C1162.6 722.575 1163.91 731.543 1170.15 735.72C1176.38 739.897 1185.17 737.703 1189.79 730.818Z" fill="white"/>
<path d="M1177.21 739.235C1175.28 739.248 1173.36 738.857 1171.58 738.085C1169.8 737.313 1168.2 736.178 1166.89 734.753C1165.48 733.19 1164.42 731.349 1163.77 729.348C1163.12 727.348 1162.9 725.234 1163.13 723.144C1163.5 718.92 1165.4 714.977 1168.48 712.059C1171.56 709.142 1175.59 707.45 1179.83 707.303C1181.77 707.29 1183.69 707.681 1185.47 708.453C1187.25 709.225 1188.85 710.36 1190.16 711.785C1191.56 713.35 1192.62 715.192 1193.27 717.191C1193.92 719.191 1194.14 721.304 1193.92 723.394C1193.55 727.621 1191.65 731.566 1188.57 734.485C1185.5 737.404 1181.45 739.094 1177.21 739.235V739.235ZM1179.78 710.087C1176.23 710.23 1172.86 711.661 1170.3 714.111C1167.74 716.561 1166.16 719.862 1165.86 723.394C1165.68 725.103 1165.86 726.83 1166.38 728.464C1166.91 730.099 1167.77 731.606 1168.92 732.888C1169.98 734.035 1171.28 734.945 1172.71 735.559C1174.15 736.173 1175.71 736.477 1177.27 736.451C1180.82 736.326 1184.2 734.901 1186.76 732.448C1189.33 729.994 1190.91 726.683 1191.19 723.144C1191.38 721.441 1191.21 719.717 1190.69 718.085C1190.17 716.454 1189.3 714.952 1188.16 713.678C1187.09 712.522 1185.79 711.605 1184.35 710.986C1182.91 710.367 1181.35 710.061 1179.78 710.087V710.087Z" fill="#231F20"/>
<path d="M1191.41 883.806H960.957V896.445H1191.41V883.806Z" fill="white"/>
<path d="M1191.41 897.837H960.958C960.591 897.83 960.242 897.681 959.982 897.422C959.722 897.162 959.574 896.812 959.566 896.445V883.806C959.566 883.437 959.713 883.083 959.974 882.822C960.235 882.561 960.589 882.414 960.958 882.414H1191.41C1191.78 882.414 1192.14 882.561 1192.4 882.822C1192.66 883.083 1192.81 883.437 1192.81 883.806V896.445C1192.81 896.814 1192.66 897.168 1192.4 897.429C1192.14 897.691 1191.78 897.837 1191.41 897.837ZM962.35 895.053H1190.02V885.198H962.35V895.053Z" fill="#231F20"/>
<path d="M928.498 944.802C928.498 944.802 1034.96 971.64 1034.96 1043.58H753.61C753.61 1043.58 708.872 1000.37 719.924 934C833.286 937.926 928.498 944.802 928.498 944.802Z" fill="white"/>
<path d="M1034.98 1044.94H753.609C753.428 1044.95 753.249 1044.92 753.081 1044.85C752.913 1044.78 752.761 1044.68 752.634 1044.55C752.189 1044.13 707.507 1000.01 718.559 933.778C718.623 933.448 718.8 933.152 719.059 932.939C719.318 932.725 719.643 932.609 719.979 932.608C832.061 936.478 927.662 943.354 928.608 943.41H928.859C929.917 943.661 1036.38 971.25 1036.38 1043.49C1036.38 1043.68 1036.35 1043.87 1036.29 1044.04C1036.22 1044.22 1036.12 1044.38 1035.99 1044.51C1035.86 1044.65 1035.7 1044.76 1035.53 1044.83C1035.36 1044.9 1035.17 1044.94 1034.98 1044.94V1044.94ZM754.193 1042.16H1033.56C1032.23 974.201 932.255 947.224 928.274 946.194C924.293 945.888 830.836 939.262 721.092 935.448C711.543 996.333 749.878 1037.73 754.193 1042.16V1042.16Z" fill="#231F20"/>
<path d="M1073.34 823.032C1073.34 823.032 1108.42 805.326 1118.25 805.326C1128.08 805.326 1158.95 814.068 1162.24 823.032C1165.52 831.996 1169.73 846.501 1165.52 846.974C1161.32 847.447 1155.69 831.523 1155.69 833.054C1155.69 834.586 1143.53 848.032 1129.94 843.828L1094.28 853.516L1073.23 826.846" fill="white"/>
<path d="M1094.28 855.048C1094.07 855.049 1093.87 855.002 1093.68 854.91C1093.49 854.818 1093.32 854.685 1093.2 854.519L1072.12 827.849C1071.9 827.557 1071.8 827.188 1071.84 826.823C1071.89 826.457 1072.08 826.126 1072.37 825.9C1072.51 825.784 1072.68 825.697 1072.85 825.645C1073.03 825.593 1073.21 825.577 1073.39 825.598C1073.58 825.619 1073.75 825.676 1073.91 825.766C1074.07 825.856 1074.21 825.977 1074.32 826.123L1094.81 852.069L1129.47 842.492C1129.72 842.409 1130 842.409 1130.25 842.492C1142.17 846.195 1153.25 834.809 1154.19 832.832C1154.23 832.538 1154.36 832.264 1154.56 832.045C1154.76 831.826 1155.02 831.673 1155.31 831.607C1156.5 831.329 1156.81 832.025 1158.09 834.586C1162.63 844.441 1164.63 845.722 1165.36 845.722C1166.78 843.578 1164.86 834.335 1160.93 823.645C1158.15 815.822 1128.86 806.941 1118.25 806.941C1108.87 806.941 1074.32 824.313 1073.96 824.48C1073.63 824.615 1073.27 824.623 1072.94 824.501C1072.61 824.379 1072.34 824.137 1072.18 823.823C1072.02 823.509 1071.99 823.147 1072.09 822.81C1072.18 822.472 1072.41 822.184 1072.71 822.002C1074.15 821.279 1108.2 804.157 1118.25 804.157C1127.41 804.157 1159.87 812.732 1163.55 822.782C1165.72 828.712 1170.48 842.966 1167.89 847.141C1167.66 847.544 1167.34 847.885 1166.96 848.132C1166.57 848.38 1166.12 848.528 1165.66 848.561C1161.99 848.979 1158.65 842.52 1155.58 835.866C1154.04 837.614 1152.31 839.191 1150.43 840.571C1146.54 843.355 1138.69 847.865 1129.94 845.36L1094.76 855.076L1094.28 855.048Z" fill="#231F20"/>
<path d="M719.923 934.001C719.923 934.001 691.861 704.325 725.185 657.387C758.509 610.45 840.329 602.85 878.302 633.139C916.275 663.429 934.761 941.713 934.761 941.713C934.761 941.713 832.84 971.807 719.923 934.001Z" fill="#1E71B9"/>
<path d="M878.19 633.111C878.19 633.111 902.438 647.782 920.618 681.357C938.797 714.931 976.937 839.235 976.937 839.235L1078.02 817.52L1117.33 854.686C1117.33 854.686 1038.8 893.661 991.831 914.903C944.866 936.144 824.961 804.324 824.961 804.324L878.19 633.111Z" fill="#1E71B9"/>
<path d="M944.866 907.386C944.603 907.388 944.344 907.32 944.114 907.191C943.307 906.69 863.213 855.437 834.983 722.03C834.945 721.847 834.943 721.659 834.978 721.475C835.012 721.292 835.082 721.117 835.185 720.96C835.287 720.804 835.419 720.669 835.573 720.564C835.727 720.458 835.9 720.384 836.083 720.346C836.266 720.307 836.454 720.305 836.638 720.34C836.822 720.374 836.997 720.445 837.153 720.547C837.309 720.649 837.444 720.781 837.55 720.935C837.655 721.089 837.729 721.263 837.767 721.445C852.383 790.515 880.947 836.701 902.327 863.427C925.518 892.213 945.479 904.824 945.673 904.964C945.924 905.125 946.116 905.363 946.221 905.641C946.326 905.92 946.339 906.225 946.258 906.512C946.177 906.798 946.006 907.052 945.771 907.234C945.535 907.416 945.247 907.518 944.95 907.525L944.866 907.386Z" fill="#231F20"/>
<path d="M893.503 534.893C890.359 534.893 887.285 533.961 884.671 532.214C882.057 530.467 880.02 527.984 878.817 525.08C877.613 522.175 877.299 518.979 877.912 515.895C878.525 512.812 880.039 509.979 882.262 507.756C884.486 505.533 887.318 504.019 890.402 503.406C893.485 502.792 896.681 503.107 899.586 504.31C902.491 505.513 904.973 507.551 906.72 510.165C908.467 512.779 909.399 515.852 909.399 518.996C909.392 523.21 907.715 527.249 904.735 530.229C901.756 533.208 897.717 534.885 893.503 534.893V534.893ZM893.503 505.884C890.909 505.884 888.374 506.653 886.218 508.094C884.062 509.535 882.381 511.583 881.389 513.979C880.396 516.375 880.136 519.011 880.642 521.555C881.148 524.098 882.397 526.435 884.231 528.268C886.065 530.102 888.401 531.351 890.945 531.857C893.488 532.363 896.125 532.103 898.521 531.111C900.917 530.118 902.965 528.438 904.405 526.281C905.846 524.125 906.615 521.59 906.615 518.996C906.586 515.536 905.192 512.226 902.737 509.787C900.282 507.347 896.964 505.975 893.503 505.968V505.884Z" fill="#231F20"/>
<path d="M886.542 530.355C886.542 530.355 903.441 558.195 899.516 563.762C895.59 569.33 883.396 565.043 883.396 565.043" fill="white"/>
<path d="M892.194 567.855C889.044 567.778 885.921 567.243 882.924 566.268C882.577 566.142 882.294 565.884 882.137 565.55C881.981 565.216 881.963 564.833 882.089 564.486C882.209 564.141 882.46 563.857 882.789 563.695C883.117 563.534 883.495 563.508 883.843 563.623C886.961 564.709 895.647 566.658 898.375 562.844C900.713 559.586 892.167 542.326 885.346 531.079C885.154 530.761 885.096 530.381 885.185 530.02C885.273 529.66 885.502 529.35 885.819 529.158C886.137 528.966 886.517 528.908 886.878 528.997C887.238 529.085 887.548 529.314 887.74 529.631C890.524 534.42 904.889 558.556 900.63 564.486C899.596 565.681 898.29 566.611 896.822 567.197C895.354 567.783 893.767 568.009 892.194 567.855V567.855Z" fill="#231F20"/>
<path d="M884.093 494.359C895.228 504.13 891.08 523.674 890.496 536.508C889.66 554.511 888.408 572.495 886.737 590.461C885.707 601.847 856.114 600.956 851.019 597.337L857.283 625.873L792.695 616.407L796.676 579.214C796.676 579.214 792.528 527.376 805.028 504.576C817.528 481.775 842.027 483.835 842.027 483.835C842.027 483.835 873.291 484.782 884.093 494.359Z" fill="white"/>
<path d="M857.283 627.264H857.088L792.501 617.799C792.144 617.744 791.822 617.555 791.599 617.27C791.377 616.986 791.271 616.627 791.304 616.268L795.285 579.074C795.118 577.181 791.276 526.819 803.776 503.907C816.498 480.522 841.86 482.443 842.139 482.471C843.364 482.471 873.987 483.585 885.012 493.328C894.728 501.903 893.363 517.27 892.389 529.52C892.166 531.997 891.971 534.336 891.888 536.48C891.053 554.38 889.8 572.671 888.269 590.572C888.012 592.326 887.271 593.974 886.13 595.331C884.99 596.688 883.494 597.701 881.81 598.256C873.848 601.903 859.761 601.68 853.107 599.675L858.675 625.538C858.721 625.743 858.721 625.954 858.674 626.158C858.626 626.362 858.534 626.553 858.403 626.716C858.272 626.88 858.105 627.011 857.916 627.101C857.727 627.191 857.521 627.237 857.311 627.237L857.283 627.264ZM794.227 615.238L855.474 624.202L849.627 597.643C849.569 597.371 849.594 597.088 849.698 596.83C849.802 596.572 849.981 596.351 850.212 596.195C850.445 596.034 850.722 595.947 851.006 595.947C851.289 595.947 851.566 596.034 851.799 596.195C855.14 598.534 871.788 599.703 880.474 595.722C883.48 594.33 885.123 592.521 885.346 590.154C886.988 572.281 888.13 554.158 889.076 536.257C889.076 534.085 889.382 531.719 889.577 529.214C890.579 517.493 891.804 502.877 883.146 495.249C872.846 486.146 842.25 485.088 841.944 485.06C841.638 485.032 818.03 483.334 806.198 505.049C794.088 527.32 797.846 578.406 798.041 578.935L794.227 615.238Z" fill="#231F20"/>
<path d="M780.028 625.177L786.097 605.466L865.356 613.15L869.922 631.218C869.922 631.218 828.497 650.928 780.028 625.177Z" fill="white"/>
<path d="M831.977 639.736C813.606 639.699 795.53 635.118 779.36 626.401C779.075 626.248 778.852 626 778.731 625.7C778.609 625.4 778.595 625.067 778.692 624.759L784.761 605.076C784.855 604.773 785.05 604.511 785.313 604.334C785.576 604.157 785.892 604.075 786.208 604.102L865.496 611.758C865.784 611.784 866.058 611.901 866.278 612.09C866.497 612.28 866.652 612.533 866.72 612.815L871.258 630.883C871.336 631.198 871.304 631.53 871.167 631.823C871.03 632.117 870.797 632.355 870.507 632.498C858.273 637.45 845.174 639.911 831.977 639.736V639.736ZM781.699 624.48C794.887 631.544 809.426 635.726 824.352 636.748C839.278 637.77 854.251 635.61 868.279 630.41L864.271 614.43L787.072 606.969L781.699 624.48Z" fill="#231F20"/>
<path d="M818.67 583.891C818.67 614.514 849.461 676.346 823.097 700.817C798.292 723.673 755.781 729.659 723.515 726.151C676.605 721.084 652.134 688.567 671.344 642.966C680.726 620.695 697.262 602.348 711.071 582.527C723.256 565.045 733.47 546.269 741.527 526.541C748.403 509.838 753.526 490.35 762.741 474.815C783.259 440.294 819.422 426.792 857.395 437.928C873.709 442.689 905.112 462.343 897.401 483.613C895.508 488.847 889.049 496.642 884.038 494.442C882.562 504.548 876.076 509.392 868.169 515.851C860.263 522.31 851.103 526.987 842.585 532.555C836.574 536.14 831.325 540.869 827.134 546.474C822.095 553.88 820.313 562.983 819.366 571.892C818.912 575.876 818.68 579.881 818.67 583.891V583.891Z" fill="white"/>
<path d="M740.858 728.322C735.046 728.327 729.238 728.02 723.458 727.403C698.625 724.619 679.722 714.374 670.257 698.255C661.237 682.944 661.209 663.595 670.257 642.298C677.133 625.956 687.935 611.674 698.403 597.588C702.328 592.382 706.365 586.981 710.123 581.58C722.203 564.184 732.333 545.512 740.329 525.901C742.584 520.333 744.616 514.765 746.788 508.64C750.624 496.643 755.592 485.037 761.626 473.98C782.144 439.459 819.031 425.094 857.923 436.48C869.866 439.988 890.022 451.402 897.344 465.851C898.866 468.592 899.787 471.626 900.046 474.751C900.305 477.876 899.896 481.02 898.847 483.975C897.091 488.85 893.617 492.919 889.076 495.417C887.895 495.971 886.586 496.192 885.289 496.057C883.396 505.244 877.272 510.227 870.256 515.962L869.198 516.797C863.809 520.991 858.135 524.805 852.216 528.212C849.432 529.965 846.342 531.747 843.474 533.779C837.628 537.3 832.522 541.924 828.441 547.393C823.346 554.882 821.76 564.097 820.869 572.17C820.462 576.101 820.257 580.05 820.256 584.002C820.256 593.774 823.514 607.025 826.966 621.056C834.315 650.956 842.639 684.837 824.182 701.791C802.634 721.418 768.892 728.322 740.858 728.322ZM831.949 435.45C804.109 435.45 779.276 449.621 763.937 475.428C757.992 486.334 753.098 497.781 749.321 509.615C747.261 515.405 745.117 521.419 742.835 526.987C734.705 546.773 724.436 565.612 712.211 583.167C708.425 588.735 704.36 594.024 700.435 599.258C690.079 613.178 679.36 627.348 672.595 643.384C663.993 663.818 663.965 682.359 672.595 696.836C681.615 712.175 699.767 722.058 723.709 724.675C753.191 727.849 796.648 723.227 822.205 699.62C839.41 683.751 831.281 650.733 824.126 621.669C820.646 607.471 817.361 594.052 817.333 583.946C817.329 579.892 817.543 575.84 817.973 571.808C818.892 563.456 820.535 553.768 825.991 545.778C830.287 539.998 835.667 535.109 841.832 531.385C844.616 529.492 847.734 527.655 850.629 525.817C856.443 522.489 862.024 518.768 867.333 514.682L868.391 513.819C875.629 507.917 881.364 503.267 882.7 494.164C882.726 493.949 882.803 493.744 882.924 493.565C883.045 493.386 883.207 493.238 883.396 493.134C883.588 493.044 883.797 492.998 884.009 492.998C884.22 492.998 884.43 493.044 884.621 493.134C885.146 493.332 885.707 493.42 886.267 493.391C886.828 493.363 887.377 493.218 887.879 492.967C891.723 490.752 894.676 487.267 896.23 483.112C897.137 480.51 897.482 477.745 897.242 475C897.002 472.255 896.183 469.592 894.838 467.187C887.906 453.49 868.614 442.605 857.144 439.348C848.976 436.847 840.491 435.535 831.949 435.45V435.45Z" fill="#231F20"/>
<path d="M886.82 577.014C886.82 577.014 872.538 585.06 865.662 570.333Z" fill="white"/>
<path d="M878.247 580.605C876.716 580.613 875.194 580.378 873.737 579.909C871.628 579.162 869.702 577.973 868.089 576.423C866.476 574.872 865.212 572.995 864.383 570.917C864.232 570.581 864.221 570.199 864.351 569.855C864.481 569.51 864.743 569.232 865.079 569.08C865.411 568.927 865.79 568.912 866.134 569.037C866.478 569.162 866.759 569.417 866.916 569.748C867.587 571.472 868.616 573.033 869.936 574.329C871.256 575.625 872.836 576.625 874.572 577.265C878.483 578.2 882.601 577.675 886.153 575.789C886.313 575.687 886.491 575.619 886.678 575.589C886.865 575.558 887.056 575.566 887.239 575.612C887.423 575.658 887.595 575.741 887.746 575.856C887.896 575.97 888.022 576.115 888.114 576.28C888.207 576.444 888.266 576.627 888.286 576.815C888.306 577.003 888.287 577.193 888.231 577.374C888.176 577.555 888.083 577.722 887.961 577.866C887.838 578.01 887.687 578.127 887.517 578.211C884.661 579.733 881.483 580.554 878.247 580.605Z" fill="#231F20"/>
<path d="M812.294 539.821H811.905C811.729 539.77 811.565 539.685 811.423 539.57C811.28 539.456 811.162 539.314 811.074 539.154C810.896 538.831 810.855 538.45 810.958 538.095C813.491 529.214 815.245 529.075 815.997 529.019C817.417 529.019 876.687 521.614 907.867 517.744C908.049 517.721 908.233 517.735 908.409 517.784C908.585 517.834 908.75 517.918 908.893 518.032C909.036 518.147 909.154 518.288 909.241 518.449C909.328 518.61 909.381 518.787 909.399 518.969C909.446 519.335 909.347 519.704 909.122 519.996C908.898 520.289 908.567 520.48 908.202 520.528C904.61 520.974 822.15 531.163 816.498 531.664C815.255 533.895 814.319 536.283 813.714 538.763C813.642 539.08 813.459 539.36 813.199 539.554C812.939 539.748 812.618 539.843 812.294 539.821Z" fill="#231F20"/>
<path d="M851.549 540.461C851.212 535.935 849.632 531.59 846.983 527.905C845.332 524.826 843.23 522.011 840.747 519.553C839.497 518.325 837.989 517.39 836.332 516.817C834.676 516.244 832.912 516.047 831.17 516.241C829.645 516.555 828.206 517.193 826.948 518.11C825.69 519.027 824.642 520.203 823.876 521.558C822.365 524.27 821.481 527.285 821.287 530.383C820.701 537.174 821.918 544 824.817 550.17C827.716 556.339 832.194 561.633 837.796 565.517L836.849 564.403" fill="white"/>
<path d="M837.796 566.797C837.517 566.791 837.246 566.704 837.017 566.546C831.258 562.527 826.648 557.074 823.645 550.726C820.642 544.378 819.35 537.356 819.895 530.355C820.08 527.036 821.033 523.805 822.679 520.917C823.552 519.372 824.751 518.035 826.194 517.002C827.637 515.968 829.287 515.261 831.031 514.932C832.983 514.697 834.963 514.906 836.824 515.542C838.684 516.178 840.377 517.226 841.777 518.606C844.363 521.191 846.549 524.147 848.264 527.376C851.049 531.276 852.697 535.873 853.024 540.655C853.029 540.84 852.994 541.024 852.924 541.195C852.853 541.367 852.748 541.521 852.614 541.649C852.481 541.778 852.322 541.877 852.148 541.94C851.974 542.004 851.789 542.031 851.605 542.019C851.421 542.02 851.239 541.983 851.069 541.911C850.9 541.838 850.747 541.733 850.62 541.6C850.492 541.468 850.393 541.311 850.328 541.139C850.263 540.967 850.233 540.783 850.24 540.6C849.861 536.346 848.352 532.271 845.87 528.796C844.298 525.814 842.29 523.083 839.912 520.694C838.829 519.607 837.518 518.774 836.074 518.254C834.629 517.734 833.088 517.54 831.56 517.688C830.237 517.979 828.99 518.546 827.901 519.352C826.812 520.158 825.906 521.185 825.241 522.365C823.808 524.926 822.988 527.785 822.846 530.717C822.354 536.848 823.38 543.007 825.832 548.649C828.283 554.291 832.087 559.242 836.905 563.066C837.123 563.054 837.341 563.09 837.543 563.171C837.745 563.253 837.927 563.379 838.075 563.539L839.021 564.681C839.242 564.93 839.364 565.252 839.364 565.586C839.364 565.919 839.242 566.241 839.021 566.49C838.853 566.631 838.656 566.731 838.444 566.784C838.232 566.837 838.01 566.841 837.796 566.797V566.797Z" fill="#231F20"/>
<path d="M881.87 522.596C883.269 522.574 884.357 519.665 884.301 516.099C884.245 512.532 883.066 509.658 881.667 509.68C880.268 509.702 879.179 512.612 879.235 516.178C879.291 519.745 880.471 522.618 881.87 522.596Z" fill="#231F20"/>
<path d="M893.836 981.523C848.875 969.162 831.503 933.639 827.411 890.014C823.819 851.846 833.814 793.773 805.724 763.066C784.371 739.737 740.607 734.308 710.735 735.227C661.57 736.897 641.86 778.099 637.211 821.724C632.782 865.529 633.455 909.7 639.215 953.349C642.64 980.521 643.336 1040.6 679.75 1046.28C761.57 1059 867.332 1054.63 949.543 1052.51C960.094 1052.26 971.202 1051.87 980.166 1046.58C987.209 1042.46 990.884 1036.09 987.488 1028.24C985.289 1023.87 982.118 1020.06 978.217 1017.1C957.393 999.563 930.5 991.378 904.359 984.279L893.836 981.523Z" fill="#231F20"/>
<path d="M823.931 1056.44C773.82 1056.44 723.069 1054.52 679.556 1047.75C646.705 1042.63 642.111 996.111 639.105 965.348C638.687 961.033 638.297 956.996 637.852 953.655C632.092 909.875 631.419 865.575 635.848 821.64C639.272 789.708 653.526 735.867 710.736 733.918C773.932 731.774 800.24 754.937 806.782 762.091C827.857 785.143 827.857 823.116 827.885 856.746C827.885 868.717 827.885 880.02 828.831 889.986C833.508 939.903 854.917 969.44 894.226 980.27L900.796 982.052L904.805 983.137C932.088 990.515 958.313 998.616 979.192 1016.24C983.26 1019.33 986.565 1023.31 988.853 1027.88C992.249 1035.73 989.382 1043.05 980.946 1047.98C971.37 1053.54 959.315 1053.88 949.599 1054.1L924.042 1054.77C892.89 1055.49 858.619 1056.44 823.931 1056.44ZM717.696 736.618C715.357 736.618 713.074 736.618 710.819 736.618C655.725 738.484 641.944 790.822 638.631 821.863C634.178 865.598 634.804 909.702 640.497 953.293C640.942 956.745 641.332 960.727 641.777 965.069C644.561 994.997 649.155 1040.24 679.89 1045C753.302 1056.44 847.873 1053.93 923.847 1051.9L949.432 1051.23C959.287 1051.01 970.479 1050.73 979.443 1045.5C983.591 1043.08 989.966 1037.67 986.18 1028.79C984.068 1024.63 981.03 1021 977.299 1018.19C956.837 1000.93 930.947 992.937 903.97 985.615L899.961 984.557L893.391 982.775C852.801 971.64 830.752 941.267 825.936 890.042C824.989 879.936 824.989 868.578 824.989 856.634C824.989 823.617 824.989 786.228 804.611 763.984C786.153 743.689 748.82 736.618 717.696 736.618Z" fill="#231F20"/>
<path d="M1377.41 931.189H1138.94V1043.58H1377.41V931.189Z" fill="white"/>
<path d="M1377.44 1044.94H1138.82C1138.46 1044.94 1138.1 1044.79 1137.84 1044.53C1137.58 1044.27 1137.43 1043.92 1137.43 1043.55V931.188C1137.43 930.819 1137.58 930.465 1137.84 930.204C1138.1 929.943 1138.46 929.796 1138.82 929.796H1377.33C1377.7 929.796 1378.05 929.943 1378.31 930.204C1378.57 930.465 1378.72 930.819 1378.72 931.188V1043.55C1378.72 1043.9 1378.59 1044.24 1378.35 1044.5C1378.11 1044.75 1377.79 1044.91 1377.44 1044.94ZM1140.33 1042.16H1376.05V932.58H1140.33V1042.16Z" fill="#231F20"/>
<path d="M1138.94 931.189H1110.57V1043.58H1138.94V931.189Z" fill="white"/>
<path d="M1138.82 1044.94H1110.57C1110.2 1044.94 1109.84 1044.79 1109.58 1044.53C1109.32 1044.27 1109.17 1043.92 1109.17 1043.55V931.188C1109.17 930.819 1109.32 930.465 1109.58 930.204C1109.84 929.943 1110.2 929.796 1110.57 929.796H1138.82C1139.19 929.796 1139.55 929.943 1139.81 930.204C1140.07 930.465 1140.22 930.819 1140.22 931.188V1043.55C1140.22 1043.92 1140.07 1044.27 1139.81 1044.53C1139.55 1044.79 1139.19 1044.94 1138.82 1044.94ZM1111.85 1042.16H1137.43V932.58H1111.85V1042.16Z" fill="#231F20"/>
<path d="M1098.09 572.421H1060.85L1063.3 535.171H1100.54L1098.09 572.421Z" fill="white"/>
<path d="M1098.1 573.868H1060.87C1060.68 573.866 1060.49 573.826 1060.31 573.75C1060.14 573.673 1059.98 573.562 1059.84 573.423C1059.72 573.284 1059.62 573.121 1059.56 572.944C1059.5 572.767 1059.47 572.58 1059.48 572.393L1061.93 535.116C1061.96 534.766 1062.12 534.44 1062.38 534.203C1062.63 533.965 1062.97 533.834 1063.32 533.835H1100.57C1100.76 533.832 1100.95 533.867 1101.13 533.939C1101.31 534.011 1101.47 534.117 1101.6 534.253C1101.86 534.544 1101.99 534.924 1101.96 535.311L1099.52 572.56C1099.49 572.917 1099.33 573.25 1099.06 573.493C1098.8 573.735 1098.45 573.87 1098.1 573.868V573.868ZM1062.32 571.084H1096.79L1099.07 536.619H1064.6L1062.32 571.084Z" fill="#D1D3D4"/>
<path d="M1158.95 572.42H1121.7L1126.24 503.49H1163.49L1158.95 572.42Z" fill="white"/>
<path d="M1158.95 573.868H1121.7C1121.51 573.864 1121.33 573.823 1121.15 573.747C1120.98 573.67 1120.83 573.56 1120.7 573.423C1120.57 573.285 1120.47 573.123 1120.4 572.947C1120.33 572.77 1120.3 572.581 1120.31 572.392L1124.9 503.406C1124.93 503.054 1125.09 502.725 1125.35 502.483C1125.6 502.241 1125.94 502.104 1126.3 502.098H1163.55C1163.74 502.097 1163.93 502.136 1164.11 502.213C1164.28 502.29 1164.44 502.403 1164.57 502.544C1164.7 502.685 1164.8 502.852 1164.87 503.034C1164.93 503.216 1164.95 503.409 1164.94 503.601L1160.4 572.504C1160.4 572.689 1160.36 572.872 1160.28 573.041C1160.21 573.21 1160.1 573.363 1159.96 573.49C1159.83 573.617 1159.67 573.716 1159.5 573.781C1159.32 573.846 1159.14 573.875 1158.95 573.868V573.868ZM1123.21 571.084H1157.67L1162.01 504.937H1127.69L1123.21 571.084Z" fill="#D1D3D4"/>
<path d="M1219.84 572.42H1182.59L1188.91 476.179H1226.16L1219.84 572.42Z" fill="#1E71B9"/>
<path d="M1299.63 507.666H1249.01C1247.91 507.666 1246.84 507.226 1246.06 506.443C1245.28 505.66 1244.84 504.597 1244.84 503.49C1244.84 502.382 1245.28 501.32 1246.06 500.537C1246.84 499.754 1247.91 499.314 1249.01 499.314H1299.63C1300.73 499.314 1301.8 499.754 1302.58 500.537C1303.36 501.32 1303.8 502.382 1303.8 503.49C1303.8 504.597 1303.36 505.66 1302.58 506.443C1301.8 507.226 1300.73 507.666 1299.63 507.666Z" fill="#D1D3D4"/>
<path d="M1298.23 528.49H1247.65C1246.54 528.49 1245.48 528.05 1244.7 527.267C1243.91 526.484 1243.47 525.422 1243.47 524.314C1243.47 523.207 1243.91 522.144 1244.7 521.361C1245.48 520.578 1246.54 520.138 1247.65 520.138H1298.23C1299.34 520.138 1300.4 520.578 1301.19 521.361C1301.97 522.144 1302.41 523.207 1302.41 524.314C1302.41 525.422 1301.97 526.484 1301.19 527.267C1300.4 528.05 1299.34 528.49 1298.23 528.49V528.49Z" fill="#D1D3D4"/>
<path d="M1283.81 549.286H1246.26C1245.15 549.286 1244.09 548.846 1243.3 548.063C1242.52 547.28 1242.08 546.218 1242.08 545.11C1242.08 544.002 1242.52 542.94 1243.3 542.157C1244.09 541.374 1245.15 540.934 1246.26 540.934H1283.81C1284.92 540.934 1285.98 541.374 1286.77 542.157C1287.55 542.94 1287.99 544.002 1287.99 545.11C1287.99 546.218 1287.55 547.28 1286.77 548.063C1285.98 548.846 1284.92 549.286 1283.81 549.286Z" fill="#D1D3D4"/>
<path d="M1088.71 624.425H1057.51C1057.32 624.426 1057.13 624.387 1056.96 624.31C1056.78 624.233 1056.63 624.12 1056.5 623.979C1056.37 623.841 1056.26 623.675 1056.19 623.493C1056.13 623.31 1056.1 623.115 1056.11 622.922L1057.76 598.284C1057.77 597.931 1057.92 597.599 1058.18 597.355C1058.43 597.111 1058.77 596.975 1059.12 596.975H1090.22C1090.41 596.974 1090.6 597.014 1090.78 597.091C1090.95 597.167 1091.11 597.28 1091.24 597.421C1091.37 597.563 1091.47 597.73 1091.54 597.911C1091.6 598.093 1091.62 598.286 1091.61 598.478L1089.99 623.116C1089.97 623.451 1089.83 623.765 1089.59 624.005C1089.36 624.244 1089.05 624.393 1088.71 624.425ZM1059.12 621.641H1087.41L1088.85 599.759H1060.43L1059.12 621.641Z" fill="#D1D3D4"/>
<path d="M1217.86 606.469H1119.75C1118.65 606.469 1117.58 606.029 1116.8 605.245C1116.02 604.462 1115.58 603.4 1115.58 602.293C1115.58 601.185 1116.02 600.123 1116.8 599.34C1117.58 598.557 1118.65 598.117 1119.75 598.117H1217.86C1218.97 598.117 1220.03 598.557 1220.81 599.34C1221.6 600.123 1222.04 601.185 1222.04 602.293C1222.04 603.4 1221.6 604.462 1220.81 605.245C1220.03 606.029 1218.97 606.469 1217.86 606.469Z" fill="#D1D3D4"/>
<path d="M1196.37 620.554H1118.81C1117.7 620.554 1116.64 620.115 1115.85 619.331C1115.07 618.548 1114.63 617.486 1114.63 616.379C1114.63 615.271 1115.07 614.209 1115.85 613.426C1116.64 612.643 1117.7 612.203 1118.81 612.203H1196.37C1197.48 612.203 1198.54 612.643 1199.32 613.426C1200.1 614.209 1200.54 615.271 1200.54 616.379C1200.54 617.486 1200.1 618.548 1199.32 619.331C1198.54 620.115 1197.48 620.554 1196.37 620.554V620.554Z" fill="#D1D3D4"/>
<path d="M1070.67 618.996C1070.35 619.023 1070.02 619.023 1069.7 618.996C1069.09 618.839 1068.52 618.544 1068.03 618.134C1067.55 617.724 1067.17 617.209 1066.92 616.63L1064.35 611.062C1064.11 610.56 1063.96 610.013 1063.93 609.455C1063.9 608.896 1063.98 608.336 1064.16 607.809C1064.35 607.282 1064.65 606.797 1065.02 606.385C1065.4 605.973 1065.86 605.642 1066.37 605.41C1066.88 605.179 1067.43 605.052 1067.99 605.038C1068.55 605.024 1069.11 605.122 1069.63 605.327C1070.15 605.532 1070.62 605.84 1071.02 606.232C1071.42 606.624 1071.74 607.093 1071.95 607.61L1072.29 608.334L1078.61 603.156C1079.47 602.454 1080.57 602.123 1081.68 602.235C1082.78 602.348 1083.79 602.894 1084.5 603.754C1085.2 604.614 1085.53 605.718 1085.42 606.822C1085.3 607.926 1084.76 608.941 1083.9 609.642L1073.35 618.245C1072.57 618.795 1071.62 619.06 1070.67 618.996Z" fill="#1E71B9"/>
<path d="M1085.76 667.437H1054.67C1054.48 667.438 1054.29 667.399 1054.12 667.322C1053.94 667.245 1053.79 667.133 1053.66 666.992C1053.4 666.713 1053.26 666.343 1053.27 665.962L1054.92 641.324C1054.94 640.969 1055.09 640.636 1055.35 640.393C1055.61 640.15 1055.95 640.015 1056.31 640.015H1087.41C1087.59 640.014 1087.78 640.054 1087.95 640.13C1088.13 640.207 1088.28 640.32 1088.41 640.461C1088.54 640.597 1088.64 640.758 1088.71 640.935C1088.78 641.113 1088.81 641.301 1088.8 641.491L1087.15 666.129C1087.13 666.483 1086.98 666.816 1086.72 667.059C1086.46 667.303 1086.12 667.438 1085.76 667.437V667.437ZM1056.17 664.653H1084.48L1085.9 642.799H1057.59L1056.17 664.653Z" fill="#D1D3D4"/>
<path d="M1215.05 649.481H1116.91C1115.81 649.481 1114.74 649.041 1113.96 648.258C1113.18 647.475 1112.74 646.412 1112.74 645.305C1112.74 644.197 1113.18 643.135 1113.96 642.352C1114.74 641.569 1115.81 641.129 1116.91 641.129H1215.05C1216.16 641.129 1217.22 641.569 1218 642.352C1218.78 643.135 1219.22 644.197 1219.22 645.305C1219.22 646.412 1218.78 647.475 1218 648.258C1217.22 649.041 1216.16 649.481 1215.05 649.481Z" fill="#D1D3D4"/>
<path d="M1193.53 663.567H1115.97C1114.86 663.567 1113.8 663.127 1113.02 662.344C1112.23 661.561 1111.79 660.499 1111.79 659.391C1111.79 658.284 1112.23 657.222 1113.02 656.438C1113.8 655.655 1114.86 655.215 1115.97 655.215H1193.53C1194.64 655.215 1195.7 655.655 1196.48 656.438C1197.27 657.222 1197.71 658.284 1197.71 659.391C1197.71 660.499 1197.27 661.561 1196.48 662.344C1195.7 663.127 1194.64 663.567 1193.53 663.567Z" fill="#D1D3D4"/>
<path d="M1067.83 662.008C1067.52 662.051 1067.2 662.051 1066.89 662.008C1066.28 661.852 1065.71 661.56 1065.23 661.156C1064.75 660.751 1064.36 660.243 1064.1 659.67L1061.54 654.102C1061.32 653.601 1061.19 653.061 1061.18 652.512C1061.16 651.963 1061.25 651.417 1061.45 650.904C1061.64 650.39 1061.94 649.921 1062.31 649.521C1062.69 649.122 1063.14 648.801 1063.64 648.576C1064.14 648.351 1064.68 648.227 1065.23 648.211C1065.78 648.195 1066.33 648.287 1066.84 648.482C1067.35 648.677 1067.82 648.972 1068.22 649.349C1068.62 649.725 1068.94 650.177 1069.17 650.678L1069.48 651.374L1075.82 646.223C1076.24 645.831 1076.73 645.528 1077.27 645.334C1077.81 645.141 1078.39 645.061 1078.96 645.099C1079.53 645.136 1080.09 645.292 1080.6 645.555C1081.11 645.818 1081.56 646.183 1081.92 646.628C1082.28 647.072 1082.55 647.587 1082.71 648.139C1082.86 648.691 1082.9 649.269 1082.82 649.837C1082.74 650.405 1082.55 650.951 1082.25 651.44C1081.95 651.93 1081.55 652.353 1081.08 652.682L1070.56 661.285C1069.76 661.833 1068.8 662.089 1067.83 662.008V662.008Z" fill="#1E71B9"/>
<path d="M1254.58 627.682H1236.07C1235.87 627.684 1235.68 627.642 1235.5 627.56C1235.32 627.478 1235.16 627.359 1235.04 627.209C1234.9 627.065 1234.8 626.892 1234.75 626.704C1234.69 626.516 1234.67 626.318 1234.7 626.123C1235.99 616.346 1240.37 607.236 1247.2 600.121C1248.54 598.702 1249.98 597.372 1251.49 596.14C1259.01 589.791 1268.37 586.015 1278.19 585.366C1278.38 585.346 1278.58 585.371 1278.76 585.438C1278.95 585.506 1279.11 585.615 1279.25 585.756C1279.39 585.897 1279.5 586.067 1279.57 586.254C1279.64 586.441 1279.68 586.641 1279.66 586.842L1278.44 605.327C1278.42 605.655 1278.29 605.965 1278.07 606.205C1277.84 606.444 1277.54 606.597 1277.21 606.636C1272.93 607.129 1268.86 608.774 1265.44 611.396C1263.99 612.484 1262.66 613.725 1261.48 615.099C1258.64 618.361 1256.72 622.319 1255.92 626.569C1255.86 626.881 1255.69 627.163 1255.45 627.366C1255.21 627.569 1254.9 627.681 1254.58 627.682V627.682ZM1237.68 624.898H1253.44C1254.44 620.594 1256.47 616.599 1259.37 613.261C1260.68 611.734 1262.16 610.353 1263.77 609.141C1267.28 606.475 1271.39 604.707 1275.74 603.991L1276.77 588.234C1268.11 589.143 1259.92 592.635 1253.27 598.256V598.256C1251.85 599.437 1250.51 600.701 1249.24 602.042C1243.2 608.345 1239.18 616.302 1237.68 624.898V624.898Z" fill="#D1D3D4"/>
<path d="M1275.46 672.894C1274.49 672.894 1273.54 672.894 1272.68 672.894C1262.25 672.3 1252.46 667.713 1245.33 660.087C1238.2 652.46 1234.29 642.381 1234.4 631.942C1234.4 631.573 1234.54 631.219 1234.81 630.957C1235.07 630.696 1235.42 630.55 1235.79 630.55H1254.3C1254.66 630.549 1255 630.684 1255.26 630.928C1255.52 631.171 1255.67 631.504 1255.7 631.858C1255.87 635.962 1257.26 639.923 1259.68 643.245C1260.66 644.606 1261.81 645.84 1263.1 646.919C1266.27 649.546 1270.14 651.182 1274.24 651.624C1275.98 651.819 1277.73 651.819 1279.47 651.624C1283.74 651.112 1287.8 649.469 1291.22 646.864C1292.67 645.776 1293.99 644.535 1295.17 643.161C1298.01 639.899 1299.93 635.941 1300.74 631.691C1300.88 630.828 1300.99 629.965 1301.05 629.074C1301.1 628.183 1301.05 627.32 1301.05 626.457C1300.86 622.363 1299.47 618.414 1297.06 615.099C1296.86 614.828 1296.77 614.491 1296.81 614.156C1296.84 613.82 1297 613.51 1297.26 613.289L1311.18 600.177C1311.32 600.045 1311.49 599.945 1311.67 599.883C1311.85 599.82 1312.05 599.797 1312.24 599.815C1312.43 599.823 1312.61 599.872 1312.78 599.959C1312.95 600.045 1313.1 600.167 1313.21 600.316C1319.2 607.684 1322.43 616.909 1322.34 626.402C1322.34 627.348 1322.34 628.295 1322.34 629.186C1322.34 630.077 1322.2 631.107 1322.06 631.97C1320.77 641.737 1316.39 650.835 1309.56 657.944C1308.22 659.372 1306.79 660.712 1305.28 661.953C1297.76 668.307 1288.4 672.083 1278.58 672.727C1277.38 672.866 1276.41 672.894 1275.46 672.894ZM1237.13 633.222C1237.34 641.598 1240.33 649.666 1245.62 656.162C1246.7 657.494 1247.87 658.75 1249.12 659.92C1255.59 665.954 1263.96 669.53 1272.79 670.026C1274.57 670.138 1276.35 670.138 1278.13 670.026C1287.36 669.401 1296.14 665.84 1303.19 659.865C1304.62 658.698 1305.97 657.433 1307.23 656.079C1313.64 649.386 1317.77 640.826 1319 631.636C1319 630.745 1319.2 629.882 1319.25 628.852C1319.31 627.822 1319.25 627.07 1319.25 626.068C1319.32 617.737 1316.66 609.613 1311.68 602.933L1299.71 614.069C1302.01 617.616 1303.32 621.708 1303.52 625.928C1303.52 626.903 1303.52 627.849 1303.52 628.712C1303.45 629.646 1303.33 630.575 1303.16 631.496C1302.29 636.23 1300.17 640.643 1297.01 644.275C1295.69 645.802 1294.22 647.183 1292.61 648.395C1288.79 651.298 1284.26 653.133 1279.5 653.712C1277.55 653.907 1275.6 653.907 1273.65 653.712C1269.18 653.348 1264.91 651.726 1261.32 649.035C1259.85 647.827 1258.54 646.433 1257.42 644.887C1254.95 641.495 1253.44 637.507 1253.02 633.334L1237.13 633.222Z" fill="#D1D3D4"/>
<path d="M1308.31 597.17C1301.6 590.946 1292.93 587.246 1283.78 586.703L1282.59 605.216C1286.93 605.715 1291.03 607.466 1294.39 610.255L1308.31 597.17Z" fill="#1E71B9"/>
<path d="M792.974 864.68C792.604 864.68 792.25 864.534 791.989 864.272C791.728 864.011 791.582 863.657 791.582 863.288C791.582 862.787 791.582 811.534 780.446 784.558C769.672 758.11 726.576 752.431 726.159 752.375C725.79 752.331 725.453 752.142 725.223 751.85C724.994 751.557 724.89 751.186 724.934 750.816C724.978 750.447 725.167 750.111 725.46 749.881C725.752 749.651 726.124 749.547 726.493 749.592C728.33 749.814 771.621 755.549 783.035 783.5C794.171 810.95 794.338 861.145 794.338 863.26C794.341 863.443 794.309 863.625 794.243 863.795C794.176 863.966 794.077 864.121 793.95 864.253C793.823 864.385 793.672 864.49 793.504 864.564C793.337 864.637 793.156 864.677 792.974 864.68Z" fill="white"/>
</g>
<defs>
<clipPath id="clip0">
<rect width="1920" height="1040" fill="white"/>
</clipPath>
</defs>
</svg>
