<svg width="968" height="1273" viewBox="0 0 968 1273" fill="none" xmlns="http://www.w3.org/2000/svg">
<path d="M495.821 122.197C623.027 103.108 634.115 60.4587 698.323 27.6633C756.727 -2.19338 852.274 -26.2713 920.581 57.9893C1026.77 188.875 918.111 349.394 918.111 349.394C918.111 349.394 772.409 603.756 765 648.208C757.592 692.66 683.505 801.319 772.409 937.144C861.312 1072.97 853.903 1189.04 787.226 1226.08C720.548 1263.12 527.925 1179.16 488.412 1159.4C448.9 1139.65 325.423 1169.28 276.032 1201.38C226.642 1233.49 73.5305 1334.74 78.4696 1117.42C83.4086 900.1 76.0001 248.143 76.0001 248.143C76.0001 248.143 80.3711 14.1056 308.136 55.5197C498.29 90.0932 446.43 129.606 495.821 122.197Z" fill="#F8F8FF"/>
<path d="M513.108 206.161C513.108 233.439 535.221 255.552 562.498 255.552C589.776 255.552 611.889 233.439 611.889 206.161C611.889 178.883 589.776 156.771 562.498 156.771C535.221 156.771 513.108 178.883 513.108 206.161Z" fill="#BAC5F4"/>
<path d="M468.655 123.432C468.655 141.844 483.581 156.771 501.994 156.771C520.406 156.771 535.333 141.844 535.333 123.432C535.333 105.02 520.406 90.0933 501.994 90.0933C483.581 90.0933 468.655 105.02 468.655 123.432Z" fill="#BAC5F4"/>
<path d="M560.028 128.371C560.028 138.6 568.32 146.893 578.549 146.893C588.778 146.893 597.071 138.6 597.071 128.371C597.071 118.142 588.778 109.85 578.549 109.85C568.32 109.85 560.028 118.142 560.028 128.371Z" fill="#BAC5F4"/>
<path d="M179.72 1223.61C179.72 1250.89 201.833 1273 229.111 1273C256.388 1273 278.501 1250.89 278.501 1223.61C278.501 1196.33 256.389 1174.22 229.111 1174.22C201.833 1174.22 179.72 1196.33 179.72 1223.61Z" fill="#BAC5F4"/>
<path d="M794.634 36.9983C794.634 47.2275 802.927 55.5198 813.156 55.5198C823.385 55.5198 831.677 47.2275 831.677 36.9983C831.677 26.7692 823.385 18.4768 813.156 18.4768C802.927 18.4768 794.634 26.7692 794.634 36.9983Z" fill="#BAC5F4"/>
<path d="M-3.43497e-05 237.668C-3.64661e-05 286.086 39.2505 325.337 87.6684 325.337C136.086 325.337 175.337 286.086 175.337 237.668C175.337 189.25 136.086 150 87.6684 150C39.2505 150 -3.22333e-05 189.25 -3.43497e-05 237.668Z" fill="#E1E6FB"/>
<path d="M436.551 1151.99C436.551 1169.72 450.925 1184.1 468.655 1184.1C486.386 1184.1 500.759 1169.72 500.759 1151.99C500.759 1134.26 486.386 1119.89 468.655 1119.89C450.925 1119.89 436.551 1134.26 436.551 1151.99Z" fill="#E1E6FB"/>
<path d="M898.354 323.464C898.354 340.513 912.175 354.333 929.224 354.333C946.272 354.333 960.093 340.513 960.093 323.464C960.093 306.416 946.272 292.595 929.224 292.595C912.175 292.595 898.354 306.416 898.354 323.464Z" fill="#E1E6FB"/>
<path d="M283.441 224.683C283.441 241.731 297.261 255.552 314.31 255.552C331.359 255.552 345.179 241.731 345.179 224.683C345.179 207.634 331.359 193.814 314.31 193.814C297.261 193.814 283.441 207.634 283.441 224.683Z" fill="#E1E6FB"/>
<path d="M641.523 1219.91C641.523 1236.95 655.344 1250.77 672.393 1250.77C689.441 1250.77 703.262 1236.95 703.262 1219.91C703.262 1202.86 689.441 1189.04 672.393 1189.04C655.344 1189.04 641.523 1202.86 641.523 1219.91Z" fill="#BAC5F4"/>
<path d="M115.512 1170.51C115.512 1188.93 130.438 1203.85 148.85 1203.85C167.263 1203.85 182.189 1188.93 182.189 1170.51C182.189 1152.1 167.263 1137.18 148.85 1137.18C130.438 1137.18 115.512 1152.1 115.512 1170.51Z" fill="#BAC5F4"/>
<path d="M113.042 1244.6C113.042 1254.83 121.334 1263.12 131.563 1263.12C141.793 1263.12 150.085 1254.83 150.085 1244.6C150.085 1234.37 141.793 1226.08 131.563 1226.08C121.334 1226.08 113.042 1234.37 113.042 1244.6Z" fill="#BAC5F4"/>
</svg>
