<svg width="92" height="50" viewBox="0 0 92 50" fill="none" xmlns="http://www.w3.org/2000/svg">
<path d="M30.5887 18.4662C30.1772 18.1088 29.5545 18.1548 29.198 18.5663C28.8416 18.9788 28.8867 19.6006 29.2992 19.956C32.7042 22.9025 34.4313 26.8853 34.4313 31.7942C34.4313 40.7439 27.1506 48.0257 18.2008 48.0257C9.2521 48.0257 1.97137 40.7439 1.97137 31.7942C1.97137 22.8455 9.2521 15.5647 18.2008 15.5647C19.978 15.5647 20.792 15.6098 22.3028 16.0924C22.8224 16.2586 23.3761 15.9702 23.5412 15.4526C23.7064 14.934 23.4201 14.3793 22.9015 14.2141C21.1404 13.6524 20.1171 13.5944 18.2008 13.5944C8.1648 13.5944 0 21.7602 0 31.7962C0 41.8332 8.1648 50 18.2008 50C28.2379 50 36.4037 41.8332 36.4037 31.7962C36.4017 26.2876 34.4453 21.8032 30.5887 18.4662Z" fill="#343434"/>
<path d="M73.0623 13.5923C71.3142 13.5923 69.5831 13.8406 67.9161 14.3302C67.3935 14.4834 67.0941 15.031 67.2483 15.5536C67.4015 16.0763 67.9511 16.3796 68.4717 16.2204C69.9585 15.7839 71.5024 15.5627 73.0633 15.5627C82.014 15.5627 89.2957 22.8434 89.2957 31.7921C89.2957 40.7419 82.014 48.0236 73.0633 48.0236C66.2651 48.0236 60.1337 43.7345 57.8059 37.3508C57.6197 36.8392 57.055 36.5769 56.5424 36.7631C56.0318 36.9493 55.7675 37.516 55.9547 38.0266C58.5659 45.1862 65.4411 49.996 73.0643 49.996C83.1013 49.996 91.2681 41.8292 91.2681 31.7921C91.2661 21.7581 83.0993 13.5923 73.0623 13.5923Z" fill="#343434"/>
<path d="M55.6342 27.9676C55.5401 28.5042 55.8975 29.0148 56.4341 29.1089C56.4922 29.1199 56.5493 29.1239 56.6063 29.1239C57.0759 29.1239 57.4924 28.7875 57.5765 28.309C58.0931 25.3774 59.629 22.6782 61.8977 20.7078C62.3092 20.3514 62.3532 19.7287 61.9958 19.3182C61.6394 18.9067 61.0156 18.8616 60.6051 19.2201C57.995 21.4858 56.2299 24.5925 55.6342 27.9676Z" fill="#343434"/>
<path d="M73.1143 34.2601C73.2946 33.9748 73.3176 33.6173 73.1734 33.312L62.1502 9.95795C62.1362 9.92691 62.1121 9.90288 62.0951 9.87385L64.9736 4.80677C64.9956 4.76772 64.9976 4.72567 65.0136 4.68662C66.7727 4.26612 68.5559 3.37905 70.2509 1.68402C70.6364 1.29856 70.6364 0.674809 70.2509 0.290347C69.8654 -0.0951151 69.2407 -0.0951151 68.8572 0.290347C65.2469 3.89968 61.2601 3.15979 57.7409 2.50501C55.9417 2.17161 54.3879 1.88326 53.0553 2.21366C52.5266 2.34481 52.2053 2.87845 52.3354 3.40709C52.4666 3.93672 52.9992 4.2521 53.5298 4.12695C54.449 3.89968 55.8066 4.15198 57.3805 4.44333C58.8062 4.70765 60.4411 5.01201 62.1652 5.01101C62.3084 5.01101 62.4546 5 62.5987 4.99599L60.1017 9.39227H32.5777L37.2183 1.48478C37.3975 1.18042 37.3995 0.802962 37.2233 0.495594C37.0481 0.189226 36.7217 0 36.3683 0H27.6137C25.6764 0 24.1005 1.57489 24.1005 3.51221C24.1005 5.44954 25.6764 7.02543 27.6137 7.02543C28.1584 7.02543 28.5999 6.5849 28.5999 6.03925C28.5999 5.49459 28.1584 5.05406 27.6137 5.05406C26.7637 5.05406 26.0719 4.36324 26.0719 3.51322C26.0719 2.6642 26.7637 1.97337 27.6137 1.97337H34.6472L16.6946 32.5661C16.4183 33.0356 16.5765 33.6394 17.0461 33.9147C17.2023 34.0068 17.3745 34.0509 17.5437 34.0509C17.8821 34.0509 18.2115 33.8767 18.3947 33.5633L31.131 11.8572L42.9572 28.7044C42.9802 28.7365 43.0142 28.7535 43.0393 28.7825C41.9289 29.9419 41.2421 31.5098 41.2421 33.2379C41.2421 36.7941 44.1356 39.6876 47.6908 39.6876C50.7375 39.6876 53.2916 37.5611 53.9624 34.7177H72.2813C72.6198 34.7177 72.9341 34.5445 73.1143 34.2601ZM33.1934 11.3636H58.9804L49.9776 27.2157C49.2657 26.9443 48.4968 26.7891 47.6908 26.7891C46.5625 26.7891 45.5022 27.0815 44.5791 27.5931C44.5741 27.5871 44.5741 27.5791 44.5701 27.5731L33.1934 11.3636ZM47.6908 37.7163C45.2219 37.7163 43.2135 35.7068 43.2135 33.2379C43.2135 30.7689 45.2219 28.7605 47.6908 28.7605C50.1598 28.7605 52.1692 30.7689 52.1692 33.2379C52.1692 35.7078 50.1608 37.7163 47.6908 37.7163ZM54.1156 32.7463C53.9754 30.9031 53.0603 29.2761 51.6916 28.1898L60.9117 11.9553L70.7265 32.7473H54.1156V32.7463Z" fill="#343434"/>
</svg>
