<svg width="351" height="314" viewBox="0 0 351 314" fill="none" xmlns="http://www.w3.org/2000/svg">
<path d="M265.119 119.12L250.738 122.153L258.999 161.319L273.38 158.285L265.119 119.12Z" fill="#1E71B9"/>
<path d="M259.002 161.97C258.85 161.969 258.704 161.915 258.587 161.817C258.471 161.719 258.393 161.584 258.366 161.434L250.106 122.275C250.084 122.192 250.08 122.105 250.095 122.02C250.11 121.935 250.143 121.854 250.193 121.784C250.24 121.71 250.302 121.647 250.374 121.597C250.446 121.547 250.527 121.513 250.612 121.494L264.991 118.456C265.076 118.44 265.163 118.44 265.247 118.458C265.332 118.475 265.412 118.509 265.483 118.558C265.556 118.602 265.619 118.661 265.669 118.731C265.719 118.8 265.754 118.879 265.772 118.963L274.032 158.136C274.067 158.307 274.033 158.484 273.938 158.63C273.844 158.776 273.696 158.879 273.526 158.917L259.147 161.955L259.002 161.97ZM251.524 122.651L259.523 160.523L272.542 157.76L264.557 119.889L251.524 122.651Z" fill="#231F20"/>
<path d="M260.506 113.278L252.622 114.941C251.756 115.798 251.12 116.86 250.773 118.028C250.427 119.197 250.381 120.434 250.64 121.624L250.395 122.217L264.774 119.18L265.019 118.601C264.769 117.409 264.225 116.297 263.437 115.368C262.649 114.439 261.641 113.72 260.506 113.278V113.278Z" fill="white"/>
<path d="M250.466 122.883C250.367 122.883 250.268 122.862 250.178 122.819C250.088 122.776 250.008 122.714 249.945 122.637C249.872 122.541 249.825 122.428 249.81 122.309C249.795 122.189 249.812 122.068 249.859 121.957L250.018 121.552C249.786 120.281 249.864 118.972 250.247 117.738C250.63 116.504 251.306 115.38 252.217 114.464C252.313 114.381 252.427 114.322 252.549 114.29L260.433 112.626C260.556 112.59 260.687 112.59 260.809 112.626C262.048 113.105 263.147 113.885 264.009 114.895C264.87 115.905 265.466 117.114 265.742 118.413C265.778 118.545 265.778 118.685 265.742 118.818L265.496 119.396C265.455 119.496 265.39 119.584 265.307 119.652C265.223 119.72 265.125 119.766 265.019 119.787L250.64 122.825L250.466 122.883ZM253.027 115.534C252.312 116.299 251.787 117.221 251.493 118.226C251.199 119.231 251.144 120.291 251.334 121.32L264.353 118.427C264.109 117.413 263.63 116.471 262.954 115.677C262.278 114.883 261.424 114.259 260.462 113.856L253.027 115.534Z" fill="#231F20"/>
<path d="M259.389 108.062L251.25 109.779L252.352 115.002L260.49 113.285L259.389 108.062Z" fill="white"/>
<path d="M252.36 115.65C252.209 115.648 252.063 115.595 251.945 115.501C251.828 115.407 251.744 115.276 251.709 115.129L250.61 109.907C250.593 109.822 250.594 109.735 250.611 109.651C250.628 109.566 250.662 109.486 250.711 109.415C250.752 109.339 250.81 109.273 250.88 109.223C250.95 109.173 251.031 109.14 251.116 109.126L259.26 107.404C259.431 107.37 259.608 107.404 259.754 107.498C259.9 107.593 260.003 107.741 260.041 107.911L261.141 113.133C261.162 113.219 261.166 113.308 261.151 113.395C261.136 113.482 261.103 113.565 261.054 113.639C261.006 113.711 260.945 113.772 260.872 113.82C260.8 113.867 260.719 113.899 260.635 113.914L252.49 115.635L252.36 115.65ZM252.042 110.283L252.866 114.203L259.723 112.757L258.884 108.836L252.042 110.283Z" fill="#231F20"/>
<path d="M178.613 275.222C178.613 275.222 183.503 284.35 184.197 285.478C184.891 286.607 210.236 270.738 209.295 268.423C208.355 266.109 190.345 269.016 190.345 269.016L178.613 275.222Z" fill="white"/>
<path d="M184.311 286.187C184.175 286.199 184.039 286.171 183.918 286.107C183.797 286.043 183.698 285.945 183.632 285.826C182.937 284.697 178.236 275.902 178.033 275.526C177.968 275.363 177.968 275.182 178.033 275.02C178.094 274.854 178.212 274.715 178.366 274.629L190.098 268.438C190.159 268.399 190.228 268.374 190.3 268.365C197.215 267.251 208.961 265.747 209.959 268.177C211.203 271.186 190.156 283.583 187.205 285.102C186.321 285.651 185.338 286.02 184.311 286.187V286.187ZM179.509 275.482C180.521 277.377 183.66 283.222 184.572 284.827C187.711 283.959 207.717 271.172 208.643 268.64C207.515 267.656 198.517 268.38 190.561 269.653L179.509 275.482Z" fill="#231F20"/>
<path d="M152.549 181.947L190.348 269.016L178.617 275.222L127.668 183.307L152.549 181.947Z" fill="white"/>
<path d="M178.614 275.873C178.497 275.875 178.381 275.845 178.279 275.787C178.177 275.728 178.093 275.643 178.036 275.541L127.087 183.625C127.038 183.526 127.012 183.417 127.012 183.307C127.012 183.196 127.038 183.087 127.087 182.988C127.143 182.889 127.222 182.805 127.318 182.745C127.414 182.684 127.524 182.649 127.637 182.641L152.518 181.281C152.653 181.277 152.786 181.313 152.899 181.385C153.013 181.457 153.102 181.562 153.155 181.686L190.954 268.756C191.023 268.908 191.03 269.081 190.973 269.238C190.917 269.395 190.8 269.523 190.65 269.595L178.918 275.801C178.826 275.854 178.72 275.879 178.614 275.873V275.873ZM128.765 183.871L178.875 274.297L189.493 268.684L152.099 182.627L128.765 183.871Z" fill="#231F20"/>
<path d="M97.1286 144.813C96.4487 147.214 142.291 212.976 142.291 212.976L164.221 199.523C164.221 199.523 144.605 141.442 133.698 135.743C122.791 130.043 99.1683 137.58 97.1286 144.813Z" fill="#231F20"/>
<path d="M142.293 213.743C142.176 213.743 142.06 213.714 141.957 213.658C141.853 213.603 141.765 213.522 141.7 213.424C127.857 193.577 95.7425 147.128 96.4369 144.668C97.4784 140.994 102.831 138.202 105.926 136.857C114.476 133.183 126.873 131.403 134.033 135.15C145.071 140.936 164.108 196.962 164.903 199.335C164.96 199.49 164.961 199.66 164.906 199.816C164.85 199.972 164.742 200.104 164.6 200.188L142.67 213.627C142.557 213.7 142.427 213.74 142.293 213.743V213.743ZM97.8545 144.958C98.6067 148.256 124.732 186.561 142.496 212.036L163.356 199.262C161.316 193.346 143.335 141.645 133.368 136.423C126.613 132.893 114.736 134.644 106.505 138.188C101.775 140.227 98.5778 142.745 97.8545 144.958Z" fill="#231F20"/>
<path d="M70.1222 313.282C56.3089 313.282 42.8059 309.186 31.3207 301.511C19.8354 293.837 10.8837 282.929 5.59761 270.168C0.311515 257.406 -1.07157 243.363 1.62325 229.815C4.31808 216.268 10.9698 203.823 20.7372 194.056C30.5046 184.288 42.9491 177.637 56.4969 174.942C70.0447 172.247 84.0873 173.63 96.8491 178.916C109.611 184.202 120.519 193.154 128.193 204.639C135.867 216.125 139.963 229.628 139.963 243.441C139.94 261.957 132.574 279.708 119.482 292.8C106.389 305.893 88.6381 313.259 70.1222 313.282V313.282ZM70.1222 183.726C58.3117 183.726 46.7664 187.228 36.9464 193.79C27.1263 200.351 19.4725 209.677 14.9529 220.589C10.4332 231.5 9.25064 243.507 11.5547 255.091C13.8589 266.674 19.5461 277.314 27.8974 285.666C36.2487 294.017 46.8888 299.704 58.4724 302.008C70.0559 304.312 82.0626 303.13 92.974 298.61C103.885 294.09 113.212 286.437 119.773 276.617C126.335 266.796 129.837 255.251 129.837 243.441C129.818 227.609 123.52 212.432 112.326 201.237C101.131 190.043 85.9536 183.745 70.1222 183.726V183.726Z" fill="#231F20"/>
<path d="M139.648 228.411C139.009 228.409 138.387 228.195 137.882 227.802C137.377 227.409 137.016 226.86 136.856 226.241C133.317 212.554 125.655 200.286 114.909 191.1C104.163 181.915 90.8524 176.255 76.7815 174.89C62.7105 173.524 48.5599 176.517 36.2476 183.465C23.9354 190.412 14.0571 200.977 7.95171 213.728C7.8009 214.091 7.57766 214.42 7.29564 214.694C7.01362 214.967 6.67873 215.181 6.31142 215.321C5.9441 215.461 5.55207 215.525 5.15926 215.509C4.76645 215.492 4.3811 215.396 4.02674 215.226C3.67238 215.056 3.35644 214.815 3.09822 214.518C2.84 214.222 2.64491 213.876 2.52487 213.502C2.40483 213.127 2.36236 212.732 2.40004 212.341C2.43772 211.95 2.55476 211.57 2.74402 211.225C9.36045 197.403 20.0679 185.95 33.4143 178.419C46.7606 170.888 62.1002 167.645 77.3526 169.127C92.6051 170.61 107.033 176.748 118.678 186.709C130.324 196.669 138.625 209.971 142.455 224.809C142.644 225.551 142.53 226.338 142.14 226.997C141.749 227.656 141.113 228.133 140.372 228.324C140.135 228.381 139.892 228.41 139.648 228.411V228.411Z" fill="#1E71B9"/>
<path d="M70.1199 252.815C75.297 252.815 79.4938 248.618 79.4938 243.441C79.4938 238.264 75.297 234.067 70.1199 234.067C64.9429 234.067 60.7461 238.264 60.7461 243.441C60.7461 248.618 64.9429 252.815 70.1199 252.815Z" fill="#231F20"/>
<path d="M280.366 313.282C266.556 313.267 253.06 309.159 241.584 301.476C230.109 293.793 221.168 282.881 215.893 270.118C210.618 257.355 209.246 243.314 211.948 229.771C214.651 216.228 221.309 203.79 231.079 194.03C240.849 184.27 253.294 177.626 266.84 174.937C280.386 172.248 294.425 173.635 307.182 178.923C319.94 184.211 330.843 193.163 338.514 204.647C346.185 216.13 350.279 229.631 350.279 243.441C350.256 261.969 342.881 279.731 329.773 292.826C316.664 305.921 298.895 313.278 280.366 313.282ZM280.366 183.726C268.559 183.74 257.021 187.255 247.21 193.825C237.4 200.395 229.757 209.726 225.249 220.639C220.74 231.552 219.568 243.556 221.88 255.135C224.192 266.714 229.885 277.347 238.239 285.691C246.594 294.035 257.234 299.715 268.815 302.013C280.397 304.312 292.4 303.125 303.307 298.603C314.214 294.081 323.536 286.427 330.095 276.609C336.653 266.79 340.153 255.248 340.153 243.441C340.134 227.597 333.827 212.408 322.617 201.212C311.406 190.015 296.21 183.726 280.366 183.726V183.726Z" fill="#231F20"/>
<path d="M210.307 246.334C209.54 246.334 208.804 246.029 208.261 245.487C207.719 244.944 207.414 244.208 207.414 243.441C207.433 224.099 215.125 205.555 228.802 191.878C242.479 178.201 261.023 170.509 280.365 170.49C281.132 170.49 281.868 170.795 282.411 171.337C282.953 171.88 283.258 172.616 283.258 173.383C283.258 174.15 282.953 174.886 282.411 175.429C281.868 175.971 281.132 176.276 280.365 176.276C262.558 176.295 245.485 183.378 232.894 195.969C220.302 208.561 213.22 225.633 213.2 243.441C213.2 244.208 212.896 244.944 212.353 245.487C211.81 246.029 211.075 246.334 210.307 246.334Z" fill="#1E71B9"/>
<path d="M280.366 252.815C285.543 252.815 289.74 248.618 289.74 243.441C289.74 238.264 285.543 234.067 280.366 234.067C275.189 234.067 270.992 238.264 270.992 243.441C270.992 248.618 275.189 252.815 280.366 252.815Z" fill="#231F20"/>
<path d="M282.289 246.334C281.592 246.333 280.919 246.082 280.394 245.625C272.129 238.146 265.163 229.347 259.78 219.587C253.545 207.783 238.081 159.148 231.803 138.708C224.83 159.235 203.985 208.347 159.242 228.078C158.54 228.389 157.744 228.408 157.027 228.131C156.311 227.854 155.734 227.305 155.424 226.603C155.113 225.9 155.094 225.104 155.37 224.387C155.647 223.671 156.197 223.094 156.899 222.784C210.336 199.219 228.808 128.843 228.982 128.134C229.138 127.523 229.49 126.979 229.984 126.586C230.478 126.194 231.087 125.973 231.717 125.958C232.348 125.944 232.967 126.135 233.478 126.505C233.99 126.874 234.367 127.4 234.551 128.004C234.783 128.756 257.378 202.633 264.93 216.882C269.993 226.011 276.505 234.258 284.212 241.3C284.657 241.686 284.974 242.199 285.119 242.771C285.265 243.342 285.232 243.944 285.026 244.496C284.82 245.048 284.45 245.524 283.966 245.86C283.482 246.196 282.907 246.377 282.317 246.377L282.289 246.334Z" fill="#1E71B9"/>
<path d="M165.033 255.708C164.85 255.721 164.667 255.721 164.484 255.708C163.984 255.61 163.518 255.382 163.135 255.047C162.751 254.712 162.463 254.281 162.299 253.798L133.975 169.897C133.788 169.188 133.876 168.434 134.223 167.788C134.57 167.142 135.149 166.651 135.844 166.416C136.539 166.181 137.297 166.218 137.965 166.521C138.633 166.823 139.162 167.368 139.443 168.045L166.176 247.115L240.617 161.767C240.857 161.45 241.16 161.186 241.506 160.991C241.852 160.796 242.235 160.675 242.631 160.634C243.026 160.594 243.426 160.636 243.804 160.756C244.183 160.877 244.533 161.075 244.832 161.337C245.131 161.599 245.372 161.92 245.542 162.279C245.711 162.639 245.805 163.03 245.816 163.427C245.828 163.824 245.758 164.22 245.61 164.589C245.462 164.958 245.24 165.292 244.957 165.572L167.218 254.753C166.942 255.058 166.605 255.301 166.228 255.466C165.852 255.631 165.444 255.713 165.033 255.708Z" fill="#1E71B9"/>
<path d="M165.115 255.708H164.826L69.1055 246.334C68.5222 246.279 67.9695 246.048 67.5203 245.672C67.0712 245.296 66.7467 244.792 66.5899 244.228C66.4331 243.664 66.4514 243.065 66.6423 242.511C66.8331 241.957 67.1876 241.474 67.6589 241.126L141.796 186.619C142.415 186.192 143.176 186.022 143.918 186.147C144.66 186.271 145.324 186.679 145.77 187.285C146.216 187.891 146.408 188.646 146.306 189.392C146.204 190.137 145.816 190.813 145.224 191.277L77.2352 241.314L165.477 249.994C166.244 250.03 166.965 250.37 167.482 250.938C167.999 251.507 168.269 252.257 168.232 253.024C168.196 253.792 167.856 254.513 167.288 255.03C166.719 255.547 165.969 255.817 165.202 255.78L165.115 255.708Z" fill="#1E71B9"/>
<path d="M231.838 131.707C231.264 131.707 230.704 131.536 230.227 131.217C229.751 130.898 229.38 130.444 229.162 129.913L223.694 116.59L211.123 115.028C210.743 114.981 210.376 114.86 210.043 114.672C209.709 114.484 209.417 114.231 209.181 113.93C208.945 113.628 208.771 113.283 208.669 112.914C208.566 112.546 208.538 112.16 208.584 111.78C208.631 111.4 208.752 111.033 208.94 110.7C209.128 110.367 209.381 110.074 209.682 109.838C209.984 109.603 210.329 109.429 210.698 109.326C211.066 109.224 211.452 109.195 211.832 109.242L226.081 111.006C226.592 111.069 227.078 111.267 227.487 111.579C227.896 111.892 228.215 112.309 228.41 112.786L234.557 127.714C234.738 128.154 234.808 128.631 234.76 129.104C234.712 129.576 234.549 130.03 234.285 130.425C234.02 130.819 233.662 131.143 233.243 131.366C232.824 131.59 232.356 131.707 231.881 131.707H231.838Z" fill="#231F20"/>
<path d="M147.412 157.832C147.412 157.832 110.148 155.098 110.148 157.832C110.148 160.566 115.038 169.781 121.562 170.316C128.086 170.852 143.825 167.206 147.354 163.474C150.884 159.742 147.412 157.832 147.412 157.832Z" fill="#D1D3D4"/>
<path d="M122.953 171.011C122.461 171.011 121.984 171.011 121.507 171.011C114.476 170.418 109.5 160.798 109.5 157.861C109.5 157.718 109.531 157.577 109.591 157.447C109.65 157.317 109.738 157.202 109.847 157.109C112.364 154.766 141.571 156.776 147.458 157.196C147.554 157.209 147.647 157.239 147.733 157.283C148.21 157.554 148.623 157.924 148.945 158.368C149.266 158.812 149.49 159.32 149.599 159.857C149.656 160.626 149.532 161.397 149.235 162.108C148.938 162.82 148.478 163.451 147.892 163.951C144.348 167.669 130.013 171.011 122.953 171.011ZM110.889 157.991C111.077 160.494 115.605 169.159 121.68 169.665C128.204 170.201 143.625 166.512 146.937 163.011C147.365 162.66 147.709 162.219 147.944 161.718C148.179 161.218 148.3 160.671 148.297 160.118C148.23 159.798 148.099 159.495 147.913 159.227C147.727 158.959 147.488 158.73 147.212 158.556C130.663 157.254 112.798 156.762 110.889 157.977V157.991Z" fill="#231F20"/>
<path d="M165.032 254.261C164.71 254.256 164.4 254.144 164.149 253.943L123.645 222.002C123.345 221.766 123.15 221.42 123.104 221.041C123.058 220.661 123.164 220.279 123.399 219.977C123.516 219.827 123.662 219.7 123.829 219.606C123.995 219.512 124.178 219.452 124.368 219.429C124.557 219.406 124.75 219.421 124.933 219.473C125.117 219.525 125.289 219.613 125.439 219.731L165.943 251.672C166.182 251.857 166.357 252.113 166.443 252.403C166.529 252.693 166.522 253.002 166.423 253.288C166.324 253.574 166.138 253.821 165.891 253.996C165.644 254.171 165.349 254.263 165.046 254.261H165.032Z" fill="#231F20"/>
<path d="M196.264 280.054C195.926 280.054 195.598 279.937 195.338 279.721L164.121 253.929C163.961 253.813 163.826 253.665 163.726 253.495C163.625 253.325 163.56 253.136 163.535 252.941C163.51 252.745 163.525 252.546 163.58 252.356C163.635 252.166 163.728 251.989 163.854 251.837C163.98 251.685 164.135 251.56 164.311 251.47C164.487 251.38 164.679 251.327 164.877 251.314C165.074 251.301 165.271 251.329 165.457 251.395C165.643 251.462 165.814 251.566 165.958 251.701L197.19 277.493C197.336 277.615 197.457 277.764 197.546 277.932C197.635 278.101 197.689 278.285 197.707 278.474C197.724 278.664 197.704 278.855 197.648 279.036C197.591 279.218 197.5 279.387 197.378 279.533C197.242 279.696 197.071 279.828 196.879 279.918C196.686 280.008 196.476 280.054 196.264 280.054Z" fill="#231F20"/>
<path d="M141.535 225.736L123.405 213.168C122.407 212.476 121.039 212.722 120.349 213.717C119.66 214.711 119.91 216.079 120.908 216.77L139.038 229.338C140.036 230.03 141.404 229.785 142.093 228.79C142.783 227.795 142.533 226.428 141.535 225.736Z" fill="#D1D3D4"/>
<path d="M140.294 230.407C139.715 230.404 139.151 230.228 138.674 229.901V229.901L120.533 217.33C119.918 216.894 119.498 216.235 119.362 215.493C119.288 215.123 119.291 214.743 119.371 214.374C119.45 214.006 119.605 213.658 119.825 213.352C120.258 212.732 120.918 212.306 121.662 212.166C122.404 212.038 123.167 212.204 123.788 212.629L141.972 225.2C142.451 225.558 142.808 226.057 142.992 226.628C143.175 227.198 143.178 227.811 142.998 228.382C142.819 228.954 142.467 229.455 141.99 229.818C141.513 230.181 140.936 230.387 140.337 230.407H140.294ZM139.426 228.816C139.762 229.046 140.176 229.134 140.576 229.06C140.977 228.987 141.333 228.759 141.567 228.425C141.796 228.089 141.884 227.676 141.811 227.275C141.738 226.874 141.51 226.518 141.176 226.284L123.036 213.714C122.702 213.485 122.291 213.397 121.892 213.47C121.494 213.544 121.141 213.771 120.91 214.104C120.789 214.266 120.703 214.451 120.658 214.648C120.614 214.845 120.61 215.049 120.649 215.247C120.685 215.445 120.759 215.634 120.869 215.803C120.978 215.972 121.12 216.117 121.286 216.231L139.426 228.816Z" fill="#231F20"/>
<path d="M204.504 272.883L184.286 285.433C183.254 286.074 182.935 287.426 183.574 288.455C184.212 289.483 185.566 289.798 186.598 289.157L206.815 276.607C207.847 275.966 208.166 274.614 207.528 273.585C206.889 272.557 205.536 272.243 204.504 272.883Z" fill="#D1D3D4"/>
<path d="M185.445 290.136C185.226 290.134 185.008 290.109 184.794 290.064C184.054 289.885 183.415 289.423 183.014 288.777C182.629 288.131 182.51 287.361 182.683 286.629C182.856 285.897 183.307 285.261 183.94 284.856L204.192 272.286C204.829 272.009 205.544 271.971 206.206 272.177C206.869 272.384 207.435 272.822 207.801 273.411C208.168 274 208.31 274.702 208.203 275.388C208.095 276.073 207.745 276.697 207.216 277.146L186.963 289.702C186.51 289.99 185.982 290.141 185.445 290.136ZM205.697 273.182C205.415 273.18 205.138 273.261 204.901 273.414L184.649 285.97C184.478 286.076 184.33 286.215 184.213 286.379C184.096 286.543 184.013 286.729 183.969 286.925C183.918 287.12 183.908 287.324 183.941 287.523C183.973 287.723 184.047 287.913 184.157 288.082C184.254 288.263 184.389 288.42 184.552 288.545C184.715 288.669 184.902 288.758 185.102 288.804C185.302 288.851 185.509 288.854 185.71 288.815C185.912 288.775 186.102 288.693 186.269 288.574L206.521 276.018C206.835 275.856 207.084 275.591 207.225 275.267C207.367 274.943 207.392 274.581 207.297 274.241C207.201 273.9 206.992 273.604 206.703 273.4C206.414 273.197 206.064 273.099 205.711 273.125L205.697 273.182Z" fill="#231F20"/>
<path d="M247.952 159.829H243.236C243.141 159.843 243.045 159.836 242.953 159.809C242.861 159.783 242.776 159.737 242.704 159.674C242.631 159.612 242.573 159.534 242.533 159.447C242.493 159.36 242.473 159.266 242.473 159.17C242.473 159.075 242.493 158.98 242.533 158.893C242.573 158.806 242.631 158.729 242.704 158.666C242.776 158.604 242.861 158.558 242.953 158.531C243.045 158.505 243.141 158.498 243.236 158.512H248.024C248.119 158.498 248.215 158.505 248.307 158.531C248.399 158.558 248.484 158.604 248.556 158.666C248.629 158.729 248.687 158.806 248.727 158.893C248.767 158.98 248.787 159.075 248.787 159.17C248.787 159.266 248.767 159.36 248.727 159.447C248.687 159.534 248.629 159.612 248.556 159.674C248.484 159.737 248.399 159.783 248.307 159.809C248.215 159.836 248.119 159.843 248.024 159.829H247.952Z" fill="#D1D3D4"/>
<path d="M280.729 164.139L248.442 162.172C248.299 162.162 248.164 162.106 248.057 162.012C247.95 161.918 247.877 161.791 247.849 161.651L240.341 128.047C240.311 127.854 240.358 127.657 240.471 127.498C240.532 127.422 240.609 127.361 240.697 127.318C240.784 127.276 240.88 127.253 240.977 127.252L290.812 126.297C290.917 126.284 291.023 126.302 291.118 126.348C291.213 126.395 291.292 126.467 291.347 126.557C291.406 126.64 291.446 126.735 291.463 126.835C291.481 126.935 291.476 127.038 291.448 127.136L281.322 163.662C281.284 163.793 281.207 163.909 281.101 163.994C280.995 164.079 280.865 164.13 280.729 164.139ZM249.02 160.942L280.237 162.794L289.973 127.642L241.845 128.554L249.02 160.942Z" fill="#D1D3D4"/>
<path d="M256.642 162.707C256.475 162.708 256.314 162.646 256.19 162.533C256.067 162.421 255.991 162.266 255.976 162.1L253.257 127.715C253.249 127.628 253.258 127.54 253.285 127.458C253.311 127.375 253.354 127.298 253.411 127.232C253.467 127.166 253.537 127.112 253.614 127.073C253.692 127.034 253.777 127.011 253.864 127.006C254.038 126.994 254.21 127.051 254.343 127.164C254.476 127.278 254.558 127.439 254.573 127.613L257.293 161.998C257.305 162.173 257.248 162.345 257.134 162.477C257.02 162.61 256.859 162.693 256.685 162.707H256.642Z" fill="#D1D3D4"/>
<path d="M263.932 163.141C263.845 163.137 263.76 163.116 263.682 163.079C263.603 163.042 263.533 162.99 263.475 162.925C263.417 162.86 263.372 162.785 263.344 162.703C263.316 162.62 263.304 162.533 263.31 162.447L265.306 127.628C265.292 127.533 265.299 127.436 265.325 127.345C265.352 127.253 265.398 127.168 265.461 127.095C265.523 127.023 265.6 126.965 265.687 126.925C265.774 126.885 265.869 126.864 265.965 126.864C266.06 126.864 266.155 126.885 266.242 126.925C266.329 126.965 266.406 127.023 266.468 127.095C266.531 127.168 266.577 127.253 266.604 127.345C266.63 127.436 266.637 127.533 266.623 127.628L264.626 162.447C264.633 162.54 264.619 162.633 264.587 162.72C264.554 162.807 264.503 162.886 264.437 162.952C264.372 163.018 264.292 163.069 264.205 163.101C264.118 163.134 264.025 163.147 263.932 163.141V163.141Z" fill="#D1D3D4"/>
<path d="M271.89 163.619H271.76C271.588 163.584 271.436 163.482 271.338 163.335C271.241 163.189 271.205 163.01 271.239 162.837L278.559 127.063C278.576 126.979 278.61 126.899 278.658 126.827C278.706 126.755 278.768 126.694 278.84 126.646C278.911 126.599 278.992 126.566 279.077 126.549C279.161 126.533 279.248 126.533 279.333 126.55C279.417 126.567 279.498 126.601 279.569 126.649C279.641 126.697 279.702 126.759 279.75 126.83C279.798 126.902 279.831 126.983 279.847 127.068C279.864 127.152 279.863 127.239 279.846 127.324L272.527 163.098C272.497 163.245 272.417 163.376 272.301 163.471C272.185 163.566 272.04 163.618 271.89 163.619Z" fill="#D1D3D4"/>
<path d="M287.603 139.316C242.759 138.665 242.673 138.376 242.514 137.696C242.479 137.524 242.512 137.344 242.606 137.196C242.701 137.048 242.849 136.942 243.02 136.9C243.151 136.856 243.293 136.856 243.425 136.9C245.291 137.219 270.765 137.696 287.618 137.942C287.793 137.949 287.959 138.024 288.08 138.151C288.201 138.278 288.269 138.446 288.269 138.622C288.273 138.711 288.258 138.801 288.227 138.885C288.195 138.969 288.147 139.046 288.084 139.111C288.022 139.176 287.948 139.228 287.865 139.263C287.782 139.298 287.693 139.316 287.603 139.316Z" fill="#D1D3D4"/>
<path d="M285.255 147.822L245.04 146.636C244.953 146.636 244.866 146.618 244.786 146.583C244.706 146.549 244.634 146.498 244.574 146.434C244.514 146.37 244.469 146.295 244.439 146.213C244.41 146.13 244.398 146.043 244.404 145.956C244.408 145.786 244.478 145.624 244.6 145.505C244.721 145.386 244.885 145.319 245.055 145.319V145.319L285.27 146.491C285.446 146.491 285.615 146.561 285.74 146.686C285.865 146.811 285.935 146.98 285.935 147.156C285.935 147.333 285.865 147.502 285.74 147.627C285.615 147.752 285.446 147.822 285.27 147.822H285.255Z" fill="#D1D3D4"/>
<path d="M282.955 156.096L246.791 154.534C246.705 154.53 246.621 154.51 246.544 154.473C246.466 154.437 246.396 154.386 246.339 154.323C246.281 154.26 246.236 154.186 246.207 154.105C246.178 154.025 246.165 153.94 246.169 153.854C246.168 153.767 246.186 153.68 246.221 153.6C246.256 153.52 246.306 153.448 246.37 153.388C246.434 153.328 246.509 153.282 246.592 153.253C246.674 153.224 246.761 153.212 246.849 153.218L283.013 154.765C283.19 154.765 283.359 154.835 283.484 154.96C283.608 155.085 283.678 155.254 283.678 155.431C283.678 155.607 283.608 155.777 283.484 155.901C283.359 156.026 283.19 156.096 283.013 156.096H282.955Z" fill="#D1D3D4"/>
<path d="M107.256 110.934C107.256 110.934 94.7286 130.318 93.904 143.193C92.1392 170.36 171.499 166.989 171.499 166.989L179.643 143.193L146.993 129.812L107.256 110.934Z" fill="#231F20"/>
<path d="M162.903 167.857C146.05 167.857 109.669 166.338 97.373 153.767C95.9489 152.405 94.8405 150.747 94.1257 148.91C93.411 147.073 93.1072 145.102 93.2358 143.135C94.0748 130.232 106.183 111.31 106.703 110.544C106.796 110.395 106.941 110.287 107.109 110.239C107.277 110.191 107.458 110.206 107.615 110.283L147.367 129.161L179.973 142.513C180.144 142.584 180.282 142.718 180.357 142.888C180.433 143.057 180.44 143.25 180.378 143.424L172.234 167.221C172.191 167.361 172.105 167.484 171.988 167.572C171.871 167.661 171.729 167.71 171.583 167.712C171.047 167.741 167.807 167.857 162.903 167.857ZM107.571 111.86C105.575 115.057 95.4057 131.881 94.6824 143.236C94.5697 144.998 94.8442 146.763 95.4865 148.408C96.1287 150.052 97.1232 151.536 98.4001 152.755C113.054 167.741 165.377 166.468 171.033 166.28L178.801 143.598L146.788 130.477L107.571 111.86Z" fill="#231F20"/>
<path d="M179.702 143.193C179.702 143.193 215.028 150.151 209.328 160.552C203.629 170.953 139.647 211.341 139.647 211.341L130.215 204.123L173.8 160.595L179.702 143.193Z" fill="white"/>
<path d="M139.646 211.934C139.506 211.933 139.369 211.888 139.256 211.804L129.824 204.702C129.748 204.646 129.685 204.575 129.64 204.492C129.595 204.41 129.569 204.318 129.564 204.224C129.558 204.129 129.572 204.034 129.605 203.945C129.637 203.855 129.687 203.773 129.752 203.703L173.149 160.234L179.066 142.976C179.113 142.822 179.217 142.691 179.356 142.611C179.496 142.53 179.661 142.506 179.818 142.542C180.903 142.759 206.276 147.837 210.095 156.053C210.458 156.799 210.629 157.623 210.594 158.451C210.559 159.28 210.317 160.086 209.892 160.798C204.106 171.141 142.612 210.17 139.993 211.833C139.887 211.893 139.768 211.928 139.646 211.934V211.934ZM131.227 204.123L139.69 210.488C145.013 207.088 203.426 169.81 208.749 160.161C209.072 159.632 209.255 159.029 209.283 158.41C209.311 157.79 209.182 157.174 208.908 156.617C205.625 149.645 183.926 144.813 180.136 143.96L174.35 160.812C174.305 160.899 174.252 160.982 174.191 161.058L131.227 204.123Z" fill="#231F20"/>
<path d="M130.212 204.123C130.212 204.123 122.4 208.376 123.225 211.226C124.05 214.075 147.658 231.188 147.933 228.194C148.207 225.199 139.644 211.226 139.644 211.226L130.212 204.123Z" fill="white"/>
<path d="M147.472 229.25C143.349 229.25 123.358 214.148 122.591 211.457C121.68 208.246 128.522 204.34 129.911 203.588C130.017 203.521 130.14 203.485 130.265 203.485C130.391 203.485 130.513 203.521 130.62 203.588L140.051 210.69C140.115 210.737 140.169 210.796 140.21 210.864C141.107 212.31 148.89 225.127 148.586 228.223C148.568 228.475 148.458 228.712 148.277 228.888C148.095 229.065 147.855 229.168 147.602 229.178L147.472 229.25ZM130.113 204.962C127.104 206.654 123.358 209.533 123.806 211.095C124.544 213.685 144.058 227.644 147.212 227.934C147.038 225.518 142.236 216.882 139.097 211.717L130.113 204.962Z" fill="#231F20"/>
<path d="M164.221 261.046C168.271 261.046 171.555 257.762 171.555 253.712C171.555 249.661 168.271 246.377 164.221 246.377C160.17 246.377 156.887 249.661 156.887 253.712C156.887 257.762 160.17 261.046 164.221 261.046Z" fill="#231F20"/>
<path d="M164.222 261.769C162.628 261.769 161.07 261.296 159.745 260.411C158.42 259.526 157.387 258.267 156.777 256.795C156.168 255.323 156.008 253.703 156.319 252.14C156.63 250.577 157.397 249.141 158.524 248.014C159.651 246.887 161.087 246.12 162.65 245.809C164.213 245.498 165.833 245.658 167.305 246.267C168.777 246.877 170.036 247.91 170.921 249.235C171.806 250.56 172.279 252.118 172.279 253.711C172.275 255.847 171.425 257.895 169.915 259.405C168.405 260.915 166.357 261.765 164.222 261.769V261.769ZM164.222 247.101C162.914 247.101 161.636 247.488 160.549 248.215C159.462 248.941 158.614 249.974 158.114 251.182C157.614 252.39 157.483 253.719 157.738 255.001C157.993 256.284 158.622 257.462 159.547 258.386C160.471 259.311 161.649 259.94 162.932 260.195C164.214 260.45 165.543 260.32 166.751 259.819C167.959 259.319 168.992 258.471 169.718 257.384C170.445 256.297 170.832 255.019 170.832 253.711C170.829 251.959 170.131 250.28 168.892 249.041C167.653 247.802 165.974 247.104 164.222 247.101V247.101Z" fill="#231F20"/>
<path d="M164.224 270.665C160.856 270.668 157.562 269.672 154.76 267.802C151.957 265.932 149.773 263.273 148.482 260.161C147.192 257.05 146.854 253.625 147.51 250.321C148.167 247.017 149.788 243.982 152.17 241.6C154.553 239.218 157.588 237.596 160.892 236.939C164.196 236.283 167.62 236.621 170.732 237.912C173.844 239.202 176.503 241.387 178.373 244.189C180.242 246.991 181.239 250.285 181.236 253.654C181.232 258.164 179.439 262.489 176.249 265.678C173.06 268.868 168.735 270.661 164.224 270.665V270.665ZM164.224 237.958C161.12 237.958 158.086 238.879 155.504 240.603C152.923 242.328 150.912 244.779 149.724 247.647C148.536 250.515 148.225 253.671 148.831 256.716C149.436 259.76 150.931 262.557 153.126 264.752C155.321 266.947 158.118 268.442 161.162 269.047C164.207 269.653 167.363 269.342 170.231 268.154C173.099 266.966 175.55 264.955 177.275 262.373C178.999 259.792 179.92 256.758 179.92 253.654C179.897 249.503 178.234 245.53 175.294 242.601C172.354 239.672 168.375 238.024 164.224 238.016V237.958Z" fill="#231F20"/>
<path d="M221.651 190.771C221.244 190.77 220.841 190.683 220.47 190.516C220.098 190.349 219.766 190.106 219.495 189.802L209.962 179.169C209.708 178.884 209.512 178.552 209.386 178.191C209.26 177.831 209.206 177.449 209.227 177.067C209.249 176.686 209.345 176.312 209.511 175.968C209.677 175.624 209.909 175.316 210.194 175.061C210.479 174.806 210.811 174.611 211.172 174.484C211.532 174.358 211.914 174.304 212.296 174.326C212.677 174.347 213.051 174.444 213.395 174.61C213.739 174.776 214.048 175.008 214.302 175.292L223.864 185.939C224.375 186.51 224.639 187.259 224.599 188.024C224.558 188.788 224.216 189.506 223.647 190.019C223.102 190.515 222.388 190.784 221.651 190.771V190.771Z" fill="#1E71B9"/>
<path d="M131.529 4.76969C128.53 3.1534 125.231 2.16877 121.837 1.87653C116.918 1.31236 109.006 1.73187 104.608 4.52377C99.3714 7.83644 98.7204 15.1851 94.2505 19.3223C89.5057 23.7488 82.0992 24.0092 75.8789 22.2154C78.1567 25.093 81.0296 27.444 84.3008 29.1076C87.572 30.7711 91.1642 31.7078 94.8312 31.8534C98.4982 31.9991 102.153 31.3502 105.546 29.9513C108.939 28.5525 111.989 26.4366 114.488 23.7488C119.016 18.8738 121.012 14.4473 128.043 15.6046C131.138 16.1253 138.516 20.6676 140.035 15.6046C141.221 11.5541 134.393 6.41879 131.529 4.76969Z" fill="white"/>
<path d="M95.7985 32.5874H94.8004C91.034 32.4193 87.347 31.4483 83.9865 29.7393C80.6259 28.0304 77.6694 25.6229 75.315 22.6783C75.2205 22.5582 75.1665 22.4112 75.1607 22.2584C75.1549 22.1057 75.1976 21.9551 75.2828 21.8281C75.368 21.7012 75.4911 21.6045 75.6346 21.5519C75.7782 21.4994 75.9347 21.4936 76.0816 21.5355C83.1265 23.5896 89.7374 22.577 93.7589 18.8304C95.5912 16.8783 97.0607 14.6152 98.0986 12.1472C99.6175 9.05152 101.194 5.86904 104.232 3.94509C108.572 1.16765 116.485 0.56009 121.938 1.18212C125.409 1.48381 128.781 2.49303 131.847 4.14761C134.74 5.82564 142.046 11.1925 140.686 15.7926C140.556 16.3126 140.317 16.7993 139.985 17.2206C139.654 17.6419 139.237 17.9884 138.762 18.2373C136.578 19.3367 133.308 18.2373 130.69 17.2102C129.78 16.8397 128.842 16.5446 127.884 16.3278C122.517 15.4309 120.434 17.9046 117.251 21.6512C116.542 22.4758 115.805 23.3582 114.966 24.2406C112.502 26.8562 109.533 28.9445 106.238 30.3792C102.943 31.8139 99.3919 32.5651 95.7985 32.5874V32.5874ZM77.9333 23.445C80.2566 25.8931 83.0569 27.8393 86.1614 29.1634C89.2659 30.4876 92.6088 31.1616 95.9839 31.144C99.3589 31.1264 102.695 30.4174 105.785 29.061C108.876 27.7045 111.655 25.7292 113.953 23.2569C114.763 22.389 115.501 21.521 116.195 20.7109C119.436 16.892 121.982 13.8831 128.159 14.9246C129.208 15.1474 130.235 15.467 131.225 15.8794C133.598 16.7329 136.534 17.8033 138.154 16.9788C138.453 16.815 138.712 16.5897 138.917 16.3179C139.121 16.046 139.266 15.7338 139.341 15.402C140.339 12.0315 134.147 7.14203 131.167 5.4206C128.246 3.83866 125.031 2.87363 121.721 2.5853C116.514 2.00667 109.049 2.5853 104.955 5.13128C102.265 6.83825 100.847 9.71694 99.3571 12.7548C98.2602 15.3883 96.6859 17.7963 94.7136 19.8575C90.7789 23.5462 84.6165 24.8337 77.9333 23.445Z" fill="#231F20"/>
<path d="M134.41 7.95207C132.429 9.00153 130.859 10.6885 129.955 12.7403C129.246 14.0701 128.949 15.5808 129.101 17.08C129.25 17.9739 129.606 18.8205 130.141 19.5517C130.676 20.2829 131.375 20.8781 132.183 21.2895C132.88 21.713 133.712 21.8577 134.512 21.6946C135.15 21.469 135.719 21.08 136.161 20.5662C139.473 17.0945 144.131 3.33748 134.41 7.95207Z" fill="#231F20"/>
<path d="M133.916 22.4469C133.189 22.4189 132.479 22.2154 131.847 21.8538C130.939 21.388 130.152 20.7164 129.549 19.8926C128.947 19.0689 128.545 18.1157 128.375 17.109C128.217 15.4804 128.539 13.841 129.301 12.3932C130.277 10.1972 131.964 8.39341 134.089 7.2723C137.069 5.82572 139.124 5.92698 140.237 7.46036C142.422 10.4982 139.181 18.3965 136.679 21.0003C136.146 21.6069 135.462 22.0612 134.697 22.3167C134.444 22.3976 134.181 22.4415 133.916 22.4469V22.4469ZM137.706 7.73521C136.657 7.81882 135.638 8.1193 134.711 8.61762V8.61762C132.882 9.58957 131.438 11.156 130.618 13.0586C129.973 14.2434 129.691 15.5917 129.808 16.9355C129.948 17.7155 130.267 18.4527 130.739 19.0899C131.21 19.7271 131.822 20.2471 132.527 20.6098C133.066 20.9312 133.701 21.054 134.321 20.957C134.834 20.7639 135.288 20.4397 135.637 20.0167C137.937 17.6443 140.599 10.4837 139.051 8.32831C138.893 8.12664 138.687 7.96705 138.453 7.86361C138.218 7.76018 137.962 7.71608 137.706 7.73521V7.73521Z" fill="#231F20"/>
<path d="M143.883 49.874C141.872 50.496 139.659 50.1777 136.91 48.0368C134.707 46.1892 132.997 43.8231 131.934 41.1511C129.793 36.0318 129.123 30.4167 129.999 24.9374C130.876 19.4581 133.264 14.3322 136.896 10.1364C144.374 1.7318 159.607 -1.72553 167.433 8.19801C168.747 9.88467 169.676 11.8391 170.154 13.9236C170.631 16.008 170.645 18.1718 170.196 20.2625C171.025 20.4573 171.778 20.8917 172.362 21.5116C172.946 22.1315 173.335 22.9096 173.48 23.7487C174.463 27.9872 172.612 30.6923 169.256 32.9345C163.73 36.6233 157.842 39.7334 152.49 43.6681C149.365 45.9682 146.848 48.9482 143.883 49.874Z" fill="white"/>
<path d="M142.074 50.8722C140.001 50.769 138.023 49.9687 136.461 48.6011C134.165 46.6805 132.38 44.2202 131.268 41.4405C129.044 36.1936 128.341 30.4269 129.239 24.7993C130.137 19.1717 132.599 13.9102 136.346 9.61575C138.733 7.00924 141.64 4.93152 144.878 3.51638C148.117 2.10123 151.617 1.38002 155.151 1.39918C157.634 1.42522 160.079 2.00954 162.305 3.10884C164.531 4.20814 166.481 5.79425 168.011 7.74966C169.317 9.42776 170.261 11.359 170.781 13.4209C171.302 15.4828 171.388 17.6303 171.035 19.7273C171.832 20.0655 172.536 20.5924 173.086 21.2626C173.635 21.9329 174.013 22.7265 174.188 23.5752C175.432 28.971 172.192 31.8497 169.646 33.5422C167.375 34.9888 165.002 36.4353 162.717 37.8819C159.433 39.8782 156.048 41.9323 152.923 44.2324C151.911 44.9846 150.942 45.8092 150.03 46.6048C148.346 48.3045 146.333 49.6433 144.114 50.5395C143.456 50.7583 142.767 50.8706 142.074 50.8722ZM154.486 2.87469C151.267 2.94062 148.095 3.66072 145.163 4.99119C142.231 6.32166 139.6 8.23468 137.431 10.6139C133.912 14.7189 131.599 19.7174 130.746 25.056C129.893 30.3947 130.535 35.8652 132.599 40.8619C133.61 43.4236 135.246 45.6913 137.358 47.4583C139.658 49.2665 141.698 49.8017 143.665 49.1797C145.684 48.3202 147.521 47.0829 149.075 45.5343C150.016 44.7098 150.999 43.8563 152.07 43.0896C155.238 40.7461 158.652 38.6631 161.965 36.6668C164.236 35.2202 166.594 33.846 168.85 32.327C172.409 29.9402 173.595 27.4231 172.785 23.8935C172.652 23.2078 172.329 22.5731 171.854 22.0617C171.378 21.5502 170.769 21.1825 170.094 21.0003C169.996 20.9854 169.902 20.9508 169.817 20.8986C169.733 20.8464 169.66 20.7777 169.602 20.6965C169.545 20.6158 169.505 20.5239 169.485 20.4267C169.465 20.3296 169.465 20.2293 169.487 20.1324C169.916 18.1475 169.905 16.0924 169.452 14.1126C169 12.1328 168.118 10.2766 166.868 8.67547C165.458 6.88653 163.664 5.43762 161.618 4.43601C159.572 3.4344 157.328 2.90573 155.05 2.88915L154.486 2.87469Z" fill="#231F20"/>
<path d="M165.017 32.9055C165.017 32.9055 167.91 41.9322 166.362 43.2196C164.814 44.5071 161.719 42.4529 161.719 42.4529" fill="white"/>
<path d="M165.119 44.3625C163.781 44.2511 162.492 43.8033 161.373 43.0605C161.287 43.0119 161.213 42.9464 161.154 42.868C161.095 42.7896 161.052 42.7 161.029 42.6046C161.005 42.5092 161.002 42.4101 161.018 42.3132C161.034 42.2163 161.07 42.1238 161.123 42.0412C161.176 41.9585 161.245 41.8876 161.327 41.8327C161.408 41.7778 161.5 41.74 161.596 41.7217C161.693 41.7034 161.792 41.7049 161.888 41.7262C161.984 41.7474 162.074 41.788 162.154 41.8454C163.036 42.4096 165.119 43.3643 165.944 42.67C166.508 42.0769 165.785 37.6069 164.367 33.1225C164.312 32.9384 164.332 32.7401 164.421 32.5699C164.51 32.3997 164.662 32.271 164.845 32.2112C164.936 32.1821 165.032 32.1714 165.127 32.1797C165.222 32.188 165.315 32.2152 165.4 32.2596C165.485 32.304 165.56 32.3648 165.621 32.4384C165.682 32.512 165.728 32.5971 165.756 32.6886C166.653 35.5817 168.548 42.3373 166.884 43.7694C166.386 44.1731 165.76 44.3837 165.119 44.3625V44.3625Z" fill="#231F20"/>
<path d="M166.822 22.5481C169.267 26.0778 166.822 31.3288 165.694 34.9019C164.219 39.936 162.618 44.9363 160.891 49.9029C159.806 53.0565 151.503 50.7419 150.317 49.3677C149.16 55.2697 149.145 70.0827 142.173 72.3249C140.751 72.6857 139.245 72.5053 137.949 71.8186C129.009 67.7537 131.743 59.6239 133.508 52.5068C134.838 47.1255 135.996 41.6719 137.24 36.2617C137.24 36.2617 142.693 37.8818 147.814 32.298C152.935 26.7142 159.329 29.4049 166.822 22.5481Z" fill="white"/>
<path d="M140.844 73.2508C139.732 73.2256 138.637 72.9643 137.633 72.4841C128.679 68.4192 130.675 60.5787 132.44 53.6786L132.772 52.3332C133.669 48.7457 134.494 45.1003 135.289 41.5128L136.505 36.1026C136.528 36.006 136.571 35.9153 136.631 35.8357C136.69 35.7562 136.766 35.6895 136.852 35.6397C137.033 35.568 137.235 35.568 137.416 35.6397C137.618 35.6397 142.537 37.0863 147.253 31.8786C149.856 28.9854 152.779 28.2188 155.932 27.3653C159.809 26.5561 163.403 24.7343 166.347 22.0853C166.427 22.0186 166.519 21.9689 166.619 21.9391C166.718 21.9092 166.823 21.8999 166.926 21.9117C167.028 21.921 167.126 21.9531 167.214 22.0057C167.302 22.0583 167.376 22.13 167.432 22.2155C169.675 25.4413 168.214 29.7811 167.027 33.2673C166.81 33.9472 166.593 34.5837 166.405 35.1913C164.959 40.1964 163.31 45.3173 161.588 50.2068C161.379 50.7411 161.024 51.2061 160.564 51.5487C160.103 51.8914 159.556 52.0981 158.984 52.1452C156.192 52.4482 153.371 51.9463 150.855 50.6986C150.695 51.6967 150.565 52.854 150.406 54.1415C149.567 61.3744 148.395 71.1822 142.421 73.1206C141.906 73.2466 141.373 73.2905 140.844 73.2508V73.2508ZM137.792 37.0863C137.43 38.6631 137.083 40.2254 136.721 41.8021C135.926 45.3607 135.101 49.035 134.204 52.6515L133.872 53.9968C132.165 60.6655 130.414 67.5657 138.211 71.1388C139.35 71.7323 140.663 71.9015 141.915 71.6162C147.007 69.967 148.164 60.2605 148.916 53.8377C149.133 52.015 149.321 50.4382 149.567 49.1942C149.589 49.0593 149.65 48.9339 149.742 48.8336C149.835 48.7332 149.955 48.6624 150.088 48.63C150.22 48.6027 150.358 48.6096 150.487 48.6501C150.616 48.6906 150.732 48.7633 150.826 48.8614C153.176 50.2788 155.921 50.8979 158.652 50.6263C159.491 50.4672 159.997 50.1344 160.171 49.6426C161.878 44.7098 163.483 39.6757 164.973 34.6705C165.147 34.0629 165.378 33.3975 165.61 32.7032C166.579 29.81 167.78 26.2514 166.593 23.6476C163.597 26.1221 160.05 27.8389 156.25 28.6527C153.241 29.4917 150.623 30.215 148.294 32.7466C144.056 37.4624 139.542 37.3756 137.792 37.1152V37.0863Z" fill="#231F20"/>
<path d="M161.85 46.1127C161.85 46.1127 157.25 47.3857 156.324 42.7422Z" fill="white"/>
<path d="M160.478 46.9954C159.533 47.009 158.602 46.7639 157.787 46.2866C157.206 45.9055 156.712 45.4055 156.338 44.8195C155.964 44.2336 155.718 43.575 155.617 42.8872C155.583 42.6975 155.624 42.502 155.733 42.3425C155.841 42.183 156.007 42.0722 156.196 42.0337C156.289 42.0147 156.385 42.0142 156.478 42.0322C156.571 42.0503 156.66 42.0866 156.739 42.139C156.819 42.1913 156.887 42.2588 156.94 42.3376C156.993 42.4163 157.03 42.5047 157.049 42.5978C157.105 43.0861 157.263 43.5572 157.512 43.9808C157.761 44.4044 158.096 44.771 158.496 45.057C159.465 45.5522 160.581 45.6757 161.635 45.4042C161.73 45.3786 161.829 45.3719 161.927 45.3845C162.024 45.3972 162.118 45.4289 162.204 45.478C162.289 45.527 162.364 45.5923 162.424 45.6703C162.484 45.7482 162.528 45.8372 162.553 45.9322C162.579 46.0272 162.586 46.1263 162.573 46.2239C162.561 46.3214 162.529 46.4156 162.48 46.5009C162.431 46.5862 162.365 46.661 162.287 46.721C162.209 46.781 162.12 46.8251 162.025 46.8508C161.517 46.9616 160.998 47.0102 160.478 46.9954V46.9954Z" fill="#231F20"/>
<path d="M150.322 49.3387C150.322 49.3387 146.127 47.8921 144.97 44.3914C144.97 44.3914 143.697 49.5412 149.642 53.6495L150.322 49.3387Z" fill="#231F20"/>
<path d="M149.643 54.4018C149.493 54.4011 149.347 54.3558 149.224 54.2716C142.945 49.9319 144.218 44.4783 144.276 44.2469C144.313 44.0959 144.398 43.9609 144.518 43.8619C144.638 43.7629 144.786 43.7051 144.942 43.6971C145.102 43.6873 145.26 43.732 145.392 43.8239C145.523 43.9159 145.62 44.0497 145.665 44.2034C146.692 47.3425 150.511 48.6589 150.554 48.6734C150.715 48.729 150.85 48.8391 150.938 48.9846C151.025 49.13 151.058 49.3015 151.032 49.469L150.352 53.8087C150.333 53.9281 150.285 54.041 150.212 54.137C150.139 54.233 150.043 54.3091 149.932 54.3584C149.84 54.3933 149.742 54.4081 149.643 54.4018V54.4018ZM145.723 47.1689C146.206 49.2596 147.403 51.1164 149.108 52.42L149.513 49.8596C148.068 49.23 146.776 48.2976 145.723 47.1255V47.1689Z" fill="#231F20"/>
<path d="M163.991 29.8167C164.344 28.8404 164.32 27.9367 163.937 27.7982C163.554 27.6596 162.957 28.3388 162.604 29.315C162.251 30.2913 162.275 31.1951 162.658 31.3336C163.041 31.4721 163.638 30.793 163.991 29.8167Z" fill="#231F20"/>
<path d="M153.985 32.5295C154.198 31.2218 154.048 29.8808 153.551 28.6526C153.296 27.6661 152.902 26.721 152.379 25.8463C152.11 25.409 151.747 25.0369 151.317 24.7568C150.887 24.4766 150.4 24.2954 149.891 24.2261C149.439 24.2136 148.989 24.2959 148.57 24.4678C148.152 24.6397 147.774 24.8974 147.461 25.2242C146.849 25.894 146.39 26.6886 146.115 27.5532C145.487 29.4278 145.363 31.4349 145.757 33.3726C146.15 35.3102 147.047 37.11 148.358 38.5906L148.155 38.2145" fill="white"/>
<path d="M148.381 39.3139C148.28 39.3146 148.179 39.293 148.086 39.2505C147.994 39.208 147.912 39.1457 147.846 39.068C146.455 37.487 145.503 35.5693 145.085 33.5059C144.666 31.4424 144.795 29.3052 145.459 27.3073C145.77 26.3519 146.289 25.4773 146.978 24.7468C147.36 24.3411 147.826 24.0235 148.343 23.8161C148.86 23.6088 149.416 23.5166 149.973 23.5462C150.589 23.6166 151.182 23.8264 151.706 24.1597C152.23 24.4931 152.671 24.9412 152.996 25.4701C153.566 26.4032 153.99 27.4179 154.254 28.479C154.811 29.8543 154.962 31.3604 154.688 32.8187C154.634 33.0034 154.51 33.1597 154.343 33.2543C154.175 33.3489 153.978 33.3743 153.792 33.325C153.608 33.2742 153.452 33.1531 153.357 32.9879C153.262 32.8227 153.236 32.6267 153.285 32.4426C153.463 31.2699 153.323 30.0711 152.88 28.9708C152.654 28.048 152.288 27.1651 151.795 26.3525C151.591 26.0069 151.312 25.7109 150.979 25.4858C150.647 25.2607 150.268 25.1121 149.871 25.0506C149.521 25.0419 149.174 25.1084 148.852 25.2457C148.53 25.383 148.241 25.5878 148.005 25.8462C147.463 26.4294 147.058 27.1262 146.819 27.8859C146.28 29.52 146.144 31.2603 146.424 32.9581C146.704 34.656 147.39 36.2609 148.425 37.6358C148.512 37.6634 148.593 37.7084 148.663 37.768C148.732 37.8277 148.789 37.9008 148.83 37.983L149.018 38.3591C149.075 38.469 149.103 38.5915 149.099 38.7152C149.095 38.8388 149.059 38.9593 148.995 39.0652C148.931 39.1712 148.841 39.259 148.734 39.3202C148.626 39.3815 148.505 39.4142 148.381 39.4151V39.3139Z" fill="#231F20"/>
<path d="M161.723 80.9177C161.723 73.8439 134.903 29.9692 117.183 51.827C109.95 60.8247 108.286 89.438 97.4805 126.962L147.055 129.855C147.055 129.855 161.723 105.076 161.723 80.9177Z" fill="#1E71B9"/>
<path d="M130.027 56.8465C121.159 49.2519 117.008 64.8316 116.501 70.6613C115.857 80.4272 117.683 90.198 121.81 99.0721C122.318 100.433 123.182 101.632 124.313 102.544C125.367 103.141 126.581 103.392 127.785 103.263C128.99 103.133 130.123 102.629 131.025 101.821C132.83 100.154 134.12 98.0055 134.743 95.6293C136.826 89.0907 136.884 82.0893 136.551 75.2325C136.218 68.3757 135.105 61.2152 130.027 56.8465Z" fill="#231F20"/>
<path d="M126.945 104.048C125.863 104.061 124.803 103.743 123.907 103.137C122.662 102.156 121.708 100.857 121.144 99.3758C116.958 90.396 115.112 80.5031 115.777 70.6178C116.11 66.2781 118.439 56.5715 123.487 54.474C125.672 53.5771 128.03 54.1847 130.489 56.2967C135.798 60.8534 136.854 68.419 137.201 75.218C137.505 81.5829 137.534 89.0328 135.364 95.8751C134.707 98.3611 133.363 100.612 131.487 102.37C130.207 103.428 128.605 104.019 126.945 104.048V104.048ZM125.498 55.53C125.002 55.5304 124.51 55.6287 124.052 55.8193C119.914 57.5263 117.571 66.3649 117.238 70.7191C116.586 80.3611 118.388 90.0111 122.475 98.7683C122.941 100.001 123.718 101.093 124.731 101.936C125.65 102.429 126.697 102.627 127.731 102.506C128.766 102.384 129.739 101.948 130.518 101.256C132.177 99.6868 133.36 97.6814 133.932 95.4701C136.044 88.8303 136.015 81.554 135.711 75.3192C135.393 68.8241 134.395 61.6201 129.505 57.425C128.426 56.3359 126.996 55.6644 125.469 55.53H125.498Z" fill="#231F20"/>
<path d="M156.67 90.5951C151.592 86.1107 134.016 53.3601 125.944 54.8501C117.872 56.34 113.316 69.4171 119.897 77.489C126.479 85.561 142.927 104.338 152.344 108.229C161.762 112.12 206.605 115.462 206.605 115.462H214.012C214.012 115.462 213.332 118.934 215.69 118.601C218.048 118.268 225.816 111.368 223.53 106.724C221.245 102.081 214.562 100.938 213.115 100.663C211.668 100.388 202.989 105.828 202.989 105.828C202.989 105.828 161.762 95.0795 156.67 90.5951Z" fill="white"/>
<path d="M215.387 119.223C215.119 119.235 214.851 119.189 214.602 119.089C214.352 118.99 214.127 118.838 213.941 118.645C213.379 117.911 213.129 116.986 213.246 116.07H206.592C204.712 115.925 161.488 112.728 152.071 108.837C141.091 104.309 121.562 80.5995 119.378 77.9088C117.702 75.7551 116.613 73.2037 116.217 70.5035C115.822 67.8033 116.133 65.0467 117.121 62.5028C118.77 58.0039 122.025 54.9082 125.801 54.1994C131.688 53.1145 141.323 67.5224 149.076 79.095C152.519 84.2449 155.499 88.7003 157.09 90.089C161.777 94.2407 199.258 104.106 202.874 105.047C205.666 103.282 211.728 99.6075 213.232 99.9547L213.608 100.042C215.662 100.475 221.883 101.806 224.096 106.363C224.483 107.299 224.636 108.316 224.54 109.325C224.444 110.333 224.103 111.303 223.546 112.149C221.723 115.592 217.673 118.992 215.749 119.267C215.627 119.264 215.506 119.25 215.387 119.223V119.223ZM214.013 114.739C214.111 114.738 214.208 114.76 214.296 114.803C214.384 114.845 214.462 114.907 214.523 114.983C214.584 115.06 214.628 115.149 214.649 115.244C214.671 115.34 214.671 115.439 214.65 115.534C214.472 116.275 214.564 117.055 214.91 117.733C214.997 117.834 215.17 117.95 215.59 117.892C216.82 117.719 220.638 114.811 222.403 111.455C222.85 110.804 223.132 110.055 223.225 109.272C223.319 108.488 223.22 107.693 222.939 106.956C221 102.978 215.257 101.748 213.362 101.343L212.957 101.257C212.046 101.126 207.315 103.817 203.381 106.32C203.304 106.369 203.219 106.402 203.129 106.417C203.04 106.432 202.948 106.428 202.86 106.406C201.168 105.958 161.387 95.6294 156.237 91.0872C154.53 89.6406 151.651 85.3009 148.006 79.8328C141.279 69.7067 131.124 54.5755 126.061 55.5013C122.734 56.1233 119.855 58.9008 118.38 62.9512C117.479 65.2807 117.192 67.8029 117.546 70.2753C117.901 72.7478 118.885 75.0875 120.405 77.0698C122.575 79.7315 141.916 103.21 152.591 107.622C161.806 111.426 206.202 114.71 206.65 114.753L214.013 114.739Z" fill="#231F20"/>
<path d="M210.307 118.572C212.416 118.572 214.126 116.862 214.126 114.753C214.126 112.644 212.416 110.934 210.307 110.934C208.198 110.934 206.488 112.644 206.488 114.753C206.488 116.862 208.198 118.572 210.307 118.572Z" fill="#231F20"/>
<path d="M173.8 161.318C173.645 161.318 173.495 161.266 173.372 161.172C173.25 161.078 173.161 160.947 173.12 160.798C173.089 160.708 173.077 160.612 173.084 160.517C173.092 160.422 173.119 160.33 173.163 160.245C173.208 160.161 173.27 160.087 173.344 160.028C173.419 159.969 173.505 159.925 173.597 159.901C173.959 159.785 182.711 157.123 187.745 158.454C187.837 158.478 187.923 158.519 187.999 158.577C188.074 158.634 188.137 158.706 188.185 158.788C188.232 158.871 188.262 158.962 188.273 159.056C188.285 159.15 188.277 159.245 188.251 159.337C188.227 159.429 188.186 159.516 188.129 159.592C188.072 159.668 188 159.732 187.918 159.78C187.836 159.829 187.745 159.86 187.651 159.874C187.557 159.887 187.461 159.881 187.369 159.857C182.74 158.613 174.104 161.304 174.017 161.304L173.8 161.318Z" fill="#231F20"/>
<path d="M58.6629 233.951C58.5062 233.952 58.3536 233.902 58.2289 233.807L27.3444 209.909C27.2059 209.788 27.1189 209.618 27.1011 209.435C27.0832 209.252 27.1359 209.069 27.2485 208.923C27.361 208.777 27.5248 208.68 27.7066 208.651C27.8884 208.622 28.0745 208.663 28.2269 208.766L59.1113 232.707C59.2279 232.801 59.3126 232.928 59.3539 233.072C59.3952 233.215 59.3909 233.368 59.3418 233.509C59.2926 233.651 59.201 233.773 59.0794 233.86C58.9578 233.947 58.8123 233.994 58.6629 233.995V233.951Z" fill="#D1D3D4"/>
<path d="M63.0044 292.364H62.8453C62.752 292.344 62.6637 292.305 62.5855 292.25C62.5073 292.195 62.4407 292.126 62.3896 292.045C62.3385 291.964 62.3039 291.874 62.2877 291.78C62.2716 291.686 62.2743 291.589 62.2956 291.496L69.4128 259.093C69.455 258.901 69.5717 258.734 69.7371 258.628C69.9026 258.522 70.1034 258.487 70.2952 258.529C70.487 258.571 70.6542 258.688 70.76 258.853C70.8658 259.019 70.9016 259.219 70.8594 259.411L63.7422 291.713C63.7208 291.894 63.6338 292.06 63.4977 292.18C63.3616 292.3 63.186 292.366 63.0044 292.364V292.364Z" fill="#D1D3D4"/>
<path d="M90.9667 239.39C90.7749 239.425 90.5772 239.382 90.4171 239.27C90.2571 239.159 90.1477 238.989 90.1132 238.797C90.0787 238.605 90.1218 238.408 90.233 238.248C90.3442 238.088 90.5145 237.978 90.7063 237.944L116.918 227.818C117.008 227.783 117.103 227.766 117.199 227.768C117.294 227.771 117.389 227.792 117.476 227.831C117.564 227.87 117.642 227.926 117.708 227.996C117.774 228.065 117.825 228.147 117.859 228.237C117.893 228.325 117.91 228.42 117.907 228.514C117.905 228.609 117.884 228.702 117.844 228.789C117.805 228.875 117.749 228.953 117.68 229.017C117.61 229.081 117.528 229.131 117.439 229.163L91.2271 239.289C91.1467 239.337 91.0586 239.372 90.9667 239.39V239.39Z" fill="#D1D3D4"/>
<path d="M259.479 292.089C259.368 292.093 259.259 292.069 259.161 292.017C259.075 291.976 258.999 291.917 258.935 291.846C258.872 291.775 258.824 291.692 258.793 291.602C258.762 291.512 258.749 291.416 258.755 291.321C258.761 291.226 258.786 291.133 258.828 291.048L274.899 258.731C274.986 258.561 275.137 258.432 275.318 258.372C275.5 258.313 275.698 258.327 275.869 258.413C275.954 258.455 276.031 258.513 276.094 258.584C276.156 258.656 276.204 258.74 276.234 258.83C276.263 258.921 276.274 259.016 276.266 259.111C276.258 259.206 276.231 259.298 276.187 259.382L260.13 291.699C260.067 291.817 259.973 291.916 259.859 291.984C259.744 292.053 259.613 292.089 259.479 292.089V292.089Z" fill="#D1D3D4"/>
<path d="M263.128 236.975C263 236.977 262.874 236.942 262.766 236.873L232.388 219.428C232.243 219.322 232.142 219.167 232.105 218.992C232.068 218.817 232.098 218.634 232.188 218.479C232.278 218.324 232.422 218.208 232.593 218.154C232.763 218.099 232.948 218.11 233.111 218.184L263.489 235.629C263.625 235.71 263.731 235.833 263.79 235.979C263.85 236.125 263.86 236.287 263.819 236.439C263.778 236.592 263.688 236.726 263.563 236.823C263.438 236.92 263.285 236.973 263.128 236.975Z" fill="#D1D3D4"/>
<path d="M294.212 239.39C294.098 239.392 293.984 239.366 293.881 239.316C293.778 239.266 293.689 239.192 293.619 239.101C293.563 239.023 293.524 238.935 293.503 238.842C293.481 238.749 293.479 238.653 293.495 238.559C293.511 238.465 293.546 238.375 293.597 238.294C293.648 238.213 293.714 238.143 293.793 238.089L324.749 215.797C324.905 215.705 325.09 215.674 325.267 215.711C325.444 215.749 325.601 215.851 325.706 215.998C325.811 216.145 325.858 216.326 325.836 216.506C325.814 216.686 325.726 216.851 325.588 216.968L294.632 239.26C294.508 239.344 294.362 239.39 294.212 239.39V239.39Z" fill="#D1D3D4"/>
<path d="M169.777 160.422H169.574L99.8346 141.153C99.7427 141.13 99.6564 141.088 99.5808 141.031C99.5053 140.973 99.442 140.901 99.3948 140.819C99.3476 140.737 99.3174 140.646 99.3059 140.552C99.2945 140.457 99.3021 140.362 99.3283 140.271C99.3534 140.178 99.3965 140.092 99.4553 140.016C99.5142 139.94 99.5874 139.877 99.6708 139.83C99.7543 139.783 99.8463 139.753 99.9414 139.742C100.037 139.73 100.133 139.738 100.225 139.764L169.965 159.018C170.149 159.072 170.306 159.196 170.4 159.364C170.495 159.531 170.52 159.729 170.471 159.915C170.427 160.064 170.335 160.194 170.209 160.286C170.084 160.377 169.932 160.425 169.777 160.422V160.422Z" fill="white"/>
</svg>
