<svg width="139" height="76" viewBox="0 0 139 76" fill="none" xmlns="http://www.w3.org/2000/svg">
<path d="M46.3041 28.2051C45.6812 27.6641 44.7385 27.7338 44.1989 28.3567C43.6594 28.9811 43.7276 29.9223 44.352 30.4603C49.5065 34.9207 52.1209 40.9497 52.1209 48.3806C52.1209 61.9284 41.0996 72.9512 27.5518 72.9512C14.0055 72.9512 2.98418 61.9284 2.98418 48.3806C2.98418 34.8343 14.0055 23.813 27.5518 23.813C30.2419 23.813 31.4741 23.8812 33.7611 24.6117C34.5477 24.8633 35.3858 24.4268 35.6359 23.6432C35.886 22.8582 35.4525 22.0185 34.6674 21.7685C32.0015 20.9182 30.4526 20.8303 27.5518 20.8303C12.3596 20.8303 0 33.1914 0 48.3836C0 63.5773 12.3596 75.9399 27.5518 75.9399C42.7455 75.9399 55.1066 63.5773 55.1066 48.3836C55.1036 40.0449 52.1421 33.2566 46.3041 28.2051Z" fill="white"/>
<path d="M110.599 20.8271C107.953 20.8271 105.333 21.203 102.809 21.9441C102.018 22.176 101.565 23.005 101.798 23.7962C102.03 24.5873 102.862 25.0465 103.65 24.8056C105.901 24.1448 108.238 23.8098 110.601 23.8098C124.15 23.8098 135.173 34.8311 135.173 48.3774C135.173 61.9252 124.15 72.948 110.601 72.948C100.31 72.948 91.0285 66.4553 87.5048 56.7919C87.2229 56.0175 86.3681 55.6204 85.5921 55.9023C84.8191 56.1842 84.419 57.042 84.7024 57.8149C88.6551 68.6529 99.0626 75.9337 110.602 75.9337C125.796 75.9337 138.159 63.5711 138.159 48.3774C138.156 33.1882 125.793 20.8271 110.599 20.8271Z" fill="white"/>
<path d="M84.2161 42.5879C84.0737 43.4003 84.6147 44.1732 85.4271 44.3157C85.515 44.3324 85.6014 44.3384 85.6878 44.3384C86.3986 44.3384 87.029 43.8292 87.1564 43.1048C87.9384 38.6671 90.2633 34.5811 93.6976 31.5985C94.3205 31.0589 94.3872 30.1162 93.8461 29.4948C93.3066 28.8719 92.3624 28.8037 91.741 29.3463C87.7899 32.7761 85.1179 37.4789 84.2161 42.5879Z" fill="white"/>
<path d="M110.677 52.1134C110.949 51.6815 110.984 51.1404 110.766 50.6782L94.0794 15.3257C94.0582 15.2787 94.0218 15.2423 93.996 15.1984L98.3533 7.52802C98.3867 7.46891 98.3897 7.40526 98.4139 7.34615C101.077 6.70961 103.776 5.3668 106.342 2.80092C106.925 2.21742 106.925 1.27321 106.342 0.691226C105.758 0.107727 104.813 0.107727 104.232 0.691226C98.7671 6.1549 92.732 5.03489 87.4047 4.0437C84.6812 3.53901 82.3291 3.10252 80.3118 3.60266C79.5116 3.8012 79.0251 4.60901 79.2221 5.40924C79.4207 6.21098 80.2269 6.68839 81.0302 6.49894C82.4215 6.1549 84.4766 6.53683 86.8591 6.97786C89.0173 7.37798 91.4923 7.83871 94.1021 7.8372C94.3188 7.8372 94.5401 7.82053 94.7584 7.81447L90.9785 14.4694H49.3136L56.3383 2.49932C56.6096 2.03858 56.6126 1.4672 56.3459 1.00192C56.0807 0.538152 55.5866 0.251709 55.0516 0.251709H41.7993C38.8667 0.251709 36.4812 2.63572 36.4812 5.56837C36.4812 8.50102 38.8667 10.8866 41.7993 10.8866C42.6238 10.8866 43.2922 10.2197 43.2922 9.3937C43.2922 8.56923 42.6238 7.90237 41.7993 7.90237C40.5126 7.90237 39.4653 6.85662 39.4653 5.56989C39.4653 4.28468 40.5126 3.23892 41.7993 3.23892H52.4463L25.2704 49.5491C24.8521 50.2599 25.0916 51.1738 25.8024 51.5906C26.0388 51.73 26.2995 51.7967 26.5556 51.7967C27.0679 51.7967 27.5665 51.533 27.8439 51.0586L47.1236 18.2008L65.0257 43.7035C65.0605 43.752 65.112 43.7777 65.1499 43.8217C63.4691 45.5767 62.4295 47.9501 62.4295 50.566C62.4295 55.9494 66.8095 60.3294 72.1913 60.3294C76.8032 60.3294 80.6695 57.1103 81.6849 52.8061H109.416C109.928 52.8061 110.404 52.5439 110.677 52.1134ZM50.2457 17.4536H89.281L75.6529 41.4498C74.5753 41.0391 73.4114 40.8041 72.1913 40.8041C70.4833 40.8041 68.8783 41.2467 67.4809 42.0212C67.4733 42.0121 67.4733 41.9999 67.4673 41.9909L50.2457 17.4536ZM72.1913 57.3452C68.4539 57.3452 65.4136 54.3034 65.4136 50.566C65.4136 46.8286 68.4539 43.7883 72.1913 43.7883C75.9287 43.7883 78.9705 46.8286 78.9705 50.566C78.9705 54.305 75.9303 57.3452 72.1913 57.3452ZM81.9168 49.8219C81.7046 47.0317 80.3194 44.5689 78.2476 42.9244L92.2046 18.3493L107.062 49.8234H81.9168V49.8219Z" fill="white"/>
</svg>
