<svg width="25" height="57" viewBox="0 0 25 57" fill="none" xmlns="http://www.w3.org/2000/svg">
<path d="M3.49481 47.4845L18.6447 56.4331C19.3002 56.811 20.03 57 20.7632 57C21.4963 57 22.2261 56.811 22.8816 56.4331C24.1925 55.6773 25 54.2803 25 52.7686L25 36.0287L13.3031 29L9.06623 31.443L3.49481 34.6553C-0.745408 36.9701 -1.56642 44.208 3.49481 47.4845Z" fill="#343434"/>
<path d="M3.49481 22.3447L9.06623 25.557L13.3031 28L25 20.9713L25 4.23139C25 2.7197 24.1925 1.32273 22.8816 0.566881C22.2261 0.188958 21.4963 7.16199e-07 20.7632 7.80295e-07C20.03 8.44391e-07 19.3002 0.188958 18.6447 0.566881L3.49481 9.51554C-1.56642 12.7954 -0.745409 20.0333 3.49481 22.3447Z" fill="#343434"/>
</svg>
