<svg width="25" height="57" viewBox="0 0 25 57" fill="none" xmlns="http://www.w3.org/2000/svg">
<path d="M21.5052 9.51554L6.35526 0.566881C5.6998 0.188959 4.97001 0 4.23684 0C3.50367 0 2.77388 0.188959 2.11842 0.566881C0.807499 1.32273 0 2.71968 0 4.23137V20.9713L11.6969 28L15.9338 25.557L21.5052 22.3447C25.7454 20.0299 26.5664 12.792 21.5052 9.51554Z" fill="#343434"/>
<path d="M21.5052 34.6553L15.9338 31.443L11.6969 29L0 36.0287V52.7686C0 54.2803 0.807499 55.6773 2.11842 56.4331C2.77388 56.811 3.50367 57 4.23684 57C4.97001 57 5.6998 56.811 6.35526 56.4331L21.5052 47.4845C26.5664 44.2046 25.7454 36.9667 21.5052 34.6553Z" fill="#343434"/>
</svg>
