<svg width="57" height="50" viewBox="0 0 57 50" fill="none" xmlns="http://www.w3.org/2000/svg">
<path d="M4.5609 50H51.7539C52.5561 50.0027 53.3447 49.7932 54.0399 49.3929C54.7351 48.9926 55.3121 48.4156 55.7124 47.7205C56.1127 47.0253 56.3221 46.2367 56.3195 45.4345C56.3168 44.6323 56.1021 43.8451 55.6971 43.1526L32.1006 2.28119C31.7043 1.59358 31.1352 1.02141 30.4498 0.621332C29.7644 0.22125 28.9864 0.00713103 28.1928 0.000175062C27.3991 -0.00678091 26.6175 0.193667 25.9251 0.581674C25.2328 0.969681 24.6538 1.53179 24.2455 2.21234L24.2017 2.28119L0.617719 43.1526C0.214798 43.8454 0.00172869 44.6322 1.04748e-05 45.4336C-0.00170774 46.2351 0.207986 47.0228 0.607933 47.7173C1.00788 48.4118 1.58393 48.9886 2.27797 49.3893C2.972 49.7901 3.75946 50.0007 4.5609 50V50ZM2.6832 44.3669L26.2797 3.48292C26.4695 3.15266 26.743 2.8783 27.0727 2.68751C27.4023 2.49672 27.7765 2.39625 28.1574 2.39625C28.5383 2.39625 28.9125 2.49672 29.2422 2.68751C29.5718 2.8783 29.8454 3.15266 30.0351 3.48292L53.6316 44.3543C53.8202 44.6836 53.9191 45.0565 53.9182 45.436C53.9173 45.8154 53.8167 46.1879 53.6266 46.5162C53.4364 46.8446 53.1633 47.1172 52.8347 47.3068C52.506 47.4963 52.1333 47.5963 51.7539 47.5965H4.5609C4.18075 47.5982 3.80689 47.4995 3.47712 47.3103C3.14735 47.1212 2.87336 46.8483 2.68283 46.5194C2.49231 46.1904 2.39201 45.817 2.39207 45.4368C2.39214 45.0566 2.49256 44.6832 2.6832 44.3543V44.3669Z" fill="#343434"/>
<path d="M26.9511 34.9094H29.3671C29.6686 34.9104 29.9592 34.7974 30.1809 34.5931C30.4026 34.3888 30.5389 34.1084 30.5626 33.8079L31.8144 18.3794C31.8283 18.2142 31.8077 18.0479 31.7538 17.8911C31.7 17.7343 31.6141 17.5904 31.5017 17.4685C31.3893 17.3467 31.2527 17.2496 31.1008 17.1833C30.9488 17.1171 30.7847 17.0832 30.6189 17.0837H25.6743C25.5085 17.0832 25.3444 17.1171 25.1924 17.1833C25.0404 17.2496 24.9039 17.3467 24.7915 17.4685C24.6791 17.5904 24.5932 17.7343 24.5394 17.8911C24.4855 18.0479 24.4649 18.2142 24.4788 18.3794L25.7306 33.8079C25.7545 34.1127 25.8944 34.3969 26.1214 34.6018C26.3485 34.8067 26.6454 34.9168 26.9511 34.9094V34.9094ZM29.3296 19.481L28.2655 32.5122H28.0527L26.9887 19.481H29.3296Z" fill="#343434"/>
<path d="M28.1588 37.4381C27.4915 37.4381 26.8393 37.636 26.2845 38.0067C25.7297 38.3774 25.2973 38.9042 25.042 39.5207C24.7866 40.1371 24.7198 40.8155 24.85 41.4699C24.9802 42.1243 25.3015 42.7254 25.7733 43.1972C26.2451 43.669 26.8462 43.9903 27.5006 44.1205C28.155 44.2507 28.8333 44.1839 29.4498 43.9285C30.0662 43.6732 30.5931 43.2408 30.9638 42.686C31.3345 42.1312 31.5324 41.479 31.5324 40.8117C31.5324 39.917 31.177 39.0589 30.5443 38.4262C29.9116 37.7935 29.0535 37.4381 28.1588 37.4381ZM28.1588 41.7819C27.9657 41.7819 27.7769 41.7246 27.6163 41.6173C27.4557 41.51 27.3306 41.3575 27.2567 41.1791C27.1828 41.0007 27.1634 40.8044 27.2011 40.615C27.2388 40.4256 27.3318 40.2516 27.4683 40.115C27.6049 39.9785 27.7789 39.8855 27.9683 39.8478C28.1577 39.8101 28.354 39.8295 28.5324 39.9034C28.7108 39.9773 28.8633 40.1024 28.9706 40.263C29.0779 40.4236 29.1352 40.6123 29.1352 40.8055C29.1352 41.0644 29.0323 41.3128 28.8492 41.4959C28.6661 41.679 28.4177 41.7819 28.1588 41.7819V41.7819Z" fill="#343434"/>
</svg>
