<svg width="351" height="292" viewBox="0 0 351 292" fill="none" xmlns="http://www.w3.org/2000/svg">
<path d="M284.277 27.1019C284.277 27.1019 286.115 19.6176 284.719 14.1506L271.457 15.1175C271.457 15.1175 271.457 27.4481 275.205 29.2386C278.953 31.0291 285.256 26.6006 285.256 26.6006" fill="white"/>
<path d="M277.25 30.2768C276.451 30.2937 275.658 30.1262 274.934 29.7874C271.007 27.8895 270.852 16.4183 270.852 15.1172C270.848 14.9629 270.905 14.8133 271.01 14.6998C271.114 14.5863 271.259 14.5177 271.413 14.5085L284.686 13.5416C284.831 13.5269 284.975 13.5663 285.092 13.6524C285.209 13.7384 285.29 13.8649 285.319 14.0071C286.405 18.2566 285.605 23.5565 285.14 26.0035C285.278 25.9791 285.42 26.002 285.543 26.0684C285.666 26.1348 285.763 26.2409 285.818 26.3695C285.874 26.498 285.884 26.6414 285.847 26.7765C285.811 26.9116 285.73 27.0304 285.617 27.1136C285.391 27.2688 281.01 30.2768 277.25 30.2768ZM272.081 15.6544C272.165 19.3309 272.869 27.3882 275.471 28.6415C277.859 29.8352 281.762 27.9372 283.708 26.8152C283.91 25.8961 285.271 19.6532 284.245 14.7711L272.081 15.6544Z" fill="#231F20"/>
<path d="M247.404 100.775C242.63 107.364 225.381 143.174 224.223 144.845C222.624 147.161 217.551 147.853 215.462 149.417C212.979 151.279 211.26 154.979 210.043 157.773C209.531 158.751 209.277 159.844 209.303 160.948C209.318 161.508 209.521 162.047 209.877 162.48C210.234 162.912 210.725 163.213 211.272 163.335C211.779 163.326 212.278 163.215 212.741 163.01C213.204 162.805 213.622 162.51 213.97 162.141L218.9 158.035C219.389 159.157 218.78 160.422 218.303 161.521C217.825 162.619 217.539 164.123 218.446 164.923C218.79 165.2 219.202 165.382 219.64 165.448C222.445 166.021 225.322 164.433 227.136 162.237C228.95 160.041 231.338 158.99 232.34 156.269C233.534 153.141 238.858 147.984 240.398 145.012C241.472 142.947 237.604 141.539 239.049 139.677L248.598 127.418L260.75 111.745" fill="white"/>
<path d="M220.776 166.057C220.375 166.056 219.976 166.016 219.583 165.937C219.034 165.852 218.519 165.622 218.09 165.269C217.147 164.421 217.028 162.882 217.792 161.163L217.876 160.948C218.167 160.363 218.376 159.74 218.496 159.098L214.366 162.476C213.962 162.908 213.471 163.251 212.927 163.483C212.382 163.716 211.795 163.832 211.203 163.825C210.526 163.689 209.913 163.333 209.46 162.813C209.007 162.292 208.738 161.637 208.696 160.948C208.651 159.741 208.923 158.543 209.484 157.474C210.487 155.194 212.349 150.945 215.094 148.892C216.259 148.157 217.515 147.579 218.831 147.173C220.824 146.445 222.877 145.681 223.725 144.463C224.059 143.974 226.184 139.689 228.642 134.818C234.611 122.882 243.575 104.977 246.918 100.381C246.96 100.303 247.018 100.235 247.089 100.181C247.16 100.128 247.241 100.09 247.328 100.07C247.414 100.051 247.504 100.05 247.591 100.069C247.678 100.087 247.76 100.123 247.831 100.176C247.903 100.229 247.962 100.296 248.005 100.373C248.049 100.451 248.075 100.537 248.082 100.625C248.09 100.714 248.078 100.802 248.048 100.886C248.018 100.97 247.97 101.046 247.908 101.109C244.638 105.574 235.315 124.231 229.741 135.367C226.709 141.431 225.109 144.63 224.739 145.168C223.677 146.707 221.421 147.555 219.248 148.331C218.049 148.702 216.902 149.223 215.834 149.882C213.34 151.745 211.561 155.851 210.606 157.964C210.133 158.843 209.899 159.83 209.926 160.828C209.94 161.238 210.086 161.632 210.342 161.952C210.598 162.273 210.95 162.502 211.346 162.607C212.2 162.547 212.999 162.162 213.578 161.533L218.508 157.438C218.581 157.375 218.667 157.33 218.761 157.307C218.854 157.284 218.952 157.284 219.045 157.307C219.139 157.329 219.225 157.373 219.298 157.435C219.371 157.497 219.427 157.576 219.463 157.665C219.645 158.292 219.695 158.951 219.608 159.598C219.522 160.245 219.302 160.868 218.962 161.425L218.878 161.64C218.675 162.094 218.09 163.657 218.878 164.338C219.145 164.545 219.462 164.677 219.797 164.72C221.11 164.87 222.44 164.671 223.651 164.143C224.863 163.615 225.913 162.776 226.697 161.712C227.37 160.922 228.113 160.195 228.917 159.539C230.171 158.616 231.163 157.382 231.794 155.958C232.486 154.12 234.456 151.721 236.354 149.405C237.684 147.921 238.882 146.323 239.935 144.63C240.245 144.034 239.935 143.532 239.206 142.589C238.478 141.646 237.607 140.536 238.633 139.211L260.299 111.279C260.348 111.214 260.409 111.159 260.48 111.118C260.55 111.077 260.628 111.05 260.709 111.039C260.79 111.028 260.873 111.033 260.952 111.053C261.031 111.074 261.105 111.11 261.17 111.16C261.297 111.263 261.379 111.411 261.399 111.574C261.419 111.736 261.376 111.9 261.277 112.031L239.529 140.011C239.147 140.5 239.314 140.87 240.102 141.885C240.89 142.9 241.653 143.878 240.937 145.251C239.862 147.02 238.632 148.69 237.261 150.241C235.541 152.104 234.076 154.187 232.904 156.436C232.199 158.045 231.089 159.444 229.681 160.494C228.934 161.099 228.236 161.762 227.592 162.476C226.781 163.529 225.753 164.394 224.576 165.012C223.4 165.63 222.103 165.987 220.776 166.057Z" fill="#231F20"/>
<path d="M239.813 67.209C239.813 67.209 243.048 97.1581 240.243 104.069C237.115 111.804 223.746 140.763 223.746 140.763L238.583 150.002C238.583 150.002 252.776 127.859 254.244 118.752C255.713 109.644 239.813 67.209 239.813 67.209Z" fill="#1E71B9"/>
<path d="M159.436 171.953C159.436 171.953 123.291 171.178 108.836 175.534L119.09 200.876C119.09 200.876 158.958 188.522 159.436 171.953Z" fill="#231F20"/>
<path d="M119.082 201.485C118.963 201.489 118.846 201.456 118.747 201.389C118.649 201.323 118.574 201.227 118.533 201.115L108.28 175.773C108.247 175.696 108.23 175.612 108.23 175.528C108.23 175.444 108.247 175.361 108.28 175.284C108.317 175.209 108.369 175.144 108.433 175.09C108.496 175.037 108.57 174.997 108.65 174.973C122.974 170.628 157.96 171.321 159.428 171.392C159.508 171.39 159.587 171.405 159.66 171.435C159.733 171.466 159.8 171.511 159.855 171.568C159.91 171.625 159.952 171.693 159.979 171.768C160.007 171.842 160.018 171.922 160.013 172.001C159.81 179.163 152.851 186.241 139.339 193.201C132.867 196.48 126.15 199.254 119.25 201.497C119.194 201.503 119.137 201.499 119.082 201.485V201.485ZM109.629 175.94L119.429 200.16C124.036 198.644 157.483 187.184 158.82 172.538C154.033 172.455 123.153 172.144 109.629 175.94Z" fill="#231F20"/>
<path d="M2.52344 195.182C2.52344 195.182 13.2664 189.214 32.0548 187.543L35.6358 207.596L2.52344 195.182Z" fill="#231F20"/>
<path d="M35.6954 208.193C35.6247 208.21 35.5512 208.21 35.4805 208.193L2.32043 195.743C2.21238 195.705 2.11775 195.636 2.04789 195.545C1.97803 195.454 1.93589 195.344 1.92652 195.23C1.92094 195.117 1.94703 195.004 2.00186 194.905C2.05669 194.806 2.13807 194.724 2.23687 194.669C2.3443 194.609 13.2664 188.641 31.995 186.946C32.1438 186.934 32.2916 186.978 32.4104 187.068C32.5292 187.158 32.6108 187.289 32.6396 187.435L36.2206 207.489C36.2355 207.592 36.2248 207.697 36.1894 207.795C36.154 207.893 36.095 207.98 36.0177 208.05C35.9275 208.13 35.815 208.18 35.6954 208.193ZM4.02737 195.063L34.9195 206.641L31.5653 188.163C16.9429 189.584 7.26221 193.583 4.02737 195.111V195.063Z" fill="#231F20"/>
<path d="M153.843 203.204L153.019 242.093C152.98 243.93 152.304 245.697 151.106 247.09C149.909 248.484 148.264 249.418 146.454 249.733L123.774 253.708C122.165 253.993 120.508 253.773 119.029 253.078C117.55 252.384 116.322 251.249 115.514 249.828L105.117 231.708L111.086 228.939L119.931 244.839C120.424 245.736 121.185 246.456 122.107 246.901C123.029 247.346 124.066 247.493 125.075 247.322L142.419 244.337C143.542 244.147 144.564 243.573 145.311 242.713C146.057 241.853 146.483 240.761 146.514 239.622L147.361 209.017L153.843 203.204Z" fill="#231F20"/>
<path d="M122.368 254.388C120.864 254.388 119.386 253.99 118.085 253.235C116.783 252.481 115.704 251.396 114.956 250.091L104.642 231.983C104.6 231.912 104.574 231.832 104.563 231.75C104.553 231.668 104.56 231.585 104.583 231.505C104.639 231.348 104.754 231.22 104.905 231.147L110.933 228.378C111.07 228.314 111.226 228.304 111.37 228.35C111.514 228.397 111.635 228.496 111.709 228.629L120.482 244.576C120.921 245.364 121.592 245.996 122.404 246.387C123.216 246.778 124.129 246.909 125.018 246.761L142.362 243.776C143.346 243.601 144.239 243.092 144.891 242.336C145.543 241.579 145.915 240.621 145.943 239.622L146.779 209.029C146.78 208.948 146.797 208.868 146.83 208.794C146.863 208.72 146.911 208.654 146.97 208.599L153.439 202.762C153.524 202.681 153.631 202.628 153.746 202.611C153.862 202.594 153.98 202.613 154.084 202.666C154.19 202.712 154.281 202.789 154.342 202.887C154.404 202.985 154.435 203.1 154.43 203.216L153.583 242.105C153.535 244.08 152.805 245.977 151.517 247.474C150.229 248.971 148.462 249.976 146.516 250.318L123.836 254.293C123.351 254.372 122.86 254.404 122.368 254.388V254.388ZM105.955 231.959L115.982 249.53C116.736 250.84 117.875 251.886 119.243 252.526C120.612 253.167 122.145 253.371 123.634 253.111L146.313 249.136C147.988 248.841 149.509 247.974 150.617 246.684C151.725 245.393 152.351 243.758 152.389 242.057L153.177 204.552L147.925 209.327L147.077 239.67C147.041 240.945 146.564 242.168 145.729 243.132C144.893 244.096 143.75 244.741 142.494 244.958L125.15 247.942C124.017 248.135 122.853 247.971 121.817 247.473C120.782 246.974 119.928 246.167 119.372 245.161L110.861 229.703L105.955 231.959Z" fill="#231F20"/>
<path d="M43.7629 275.361L225.785 158.895C226.464 158.361 226.903 157.579 227.006 156.722C227.109 155.865 226.867 155.002 226.334 154.323C226.071 153.987 225.744 153.707 225.373 153.498C225.001 153.289 224.592 153.155 224.168 153.104C223.745 153.053 223.315 153.086 222.905 153.201C222.494 153.316 222.11 153.51 221.775 153.774L39.7044 270.24C39.026 270.774 38.5871 271.555 38.4842 272.412C38.3813 273.269 38.6226 274.132 39.1554 274.812V274.812C39.42 275.153 39.7498 275.438 40.1256 275.65C40.5014 275.863 40.9156 275.999 41.3443 276.05C41.773 276.101 42.2076 276.066 42.6228 275.948C43.038 275.83 43.4255 275.63 43.7629 275.361Z" fill="white"/>
<path d="M41.7202 276.662C40.9149 276.666 40.1285 276.418 39.4713 275.953C38.8141 275.488 38.319 274.828 38.0557 274.067C37.7924 273.306 37.7739 272.482 38.003 271.71C38.2321 270.938 38.6971 270.257 39.3329 269.763L221.451 153.213C221.853 152.899 222.313 152.668 222.804 152.532C223.296 152.397 223.809 152.359 224.315 152.421C224.821 152.484 225.31 152.646 225.753 152.897C226.197 153.149 226.586 153.485 226.9 153.887C227.213 154.289 227.445 154.749 227.58 155.241C227.716 155.732 227.754 156.245 227.691 156.751C227.629 157.257 227.467 157.746 227.215 158.19C226.964 158.633 226.628 159.023 226.225 159.336L44.0718 275.874C43.3969 276.39 42.5697 276.667 41.7202 276.662ZM223.767 153.714C223.178 153.714 222.606 153.912 222.143 154.275L40.0372 270.765C39.5008 271.2 39.1583 271.83 39.0845 272.516C39.0107 273.203 39.2116 273.891 39.6433 274.43C40.0777 274.976 40.7099 275.328 41.4027 275.411C42.0955 275.494 42.7929 275.3 43.3436 274.871V274.871L225.402 158.369C225.935 157.931 226.276 157.301 226.352 156.614C226.428 155.927 226.233 155.238 225.808 154.693C225.369 154.147 224.736 153.792 224.041 153.702L223.767 153.714Z" fill="#231F20"/>
<path d="M179.463 204.767L178.651 243.645C178.61 245.483 177.933 247.249 176.736 248.644C175.539 250.039 173.896 250.977 172.086 251.296L149.406 255.271C147.796 255.552 146.139 255.329 144.661 254.632C143.182 253.936 141.955 252.8 141.146 251.38L130.797 233.248L136.765 230.467L145.539 246.414C146.032 247.314 146.794 248.038 147.719 248.483C148.643 248.928 149.684 249.073 150.695 248.897L168.039 245.925C169.171 245.73 170.199 245.147 170.947 244.275C171.694 243.403 172.114 242.298 172.134 241.15L172.981 210.556L179.463 204.767Z" fill="white"/>
<path d="M147.994 256.011C146.485 256.011 145.002 255.613 143.697 254.856C142.391 254.1 141.308 253.012 140.558 251.702L130.208 233.558C130.164 233.485 130.136 233.404 130.125 233.319C130.115 233.234 130.123 233.148 130.149 233.066C130.175 232.984 130.219 232.91 130.276 232.846C130.334 232.783 130.404 232.733 130.483 232.699L136.451 229.918C136.594 229.856 136.754 229.848 136.901 229.897C137.049 229.945 137.173 230.046 137.251 230.18L146.036 246.128C146.465 246.915 147.13 247.548 147.937 247.938C148.744 248.328 149.653 248.454 150.537 248.3L167.904 245.328C168.885 245.156 169.776 244.651 170.428 243.899C171.081 243.147 171.454 242.193 171.485 241.198L172.333 210.592C172.334 210.509 172.352 210.426 172.387 210.35C172.422 210.274 172.473 210.206 172.536 210.151L179.006 204.314C179.095 204.233 179.205 204.18 179.324 204.161C179.442 204.142 179.564 204.157 179.674 204.206C179.78 204.26 179.869 204.342 179.932 204.443C179.995 204.544 180.03 204.66 180.032 204.779L179.256 243.645C179.212 245.626 178.482 247.531 177.192 249.035C175.901 250.539 174.129 251.549 172.178 251.893L149.498 255.868C149.002 255.959 148.499 256.007 147.994 256.011V256.011ZM131.605 233.535L141.632 251.093C142.378 252.402 143.51 253.447 144.873 254.088C146.236 254.729 147.764 254.934 149.247 254.674L171.927 250.7C173.595 250.402 175.109 249.538 176.212 248.252C177.315 246.966 177.939 245.339 177.979 243.645L178.767 206.188L173.55 210.891L172.715 241.234C172.676 242.514 172.196 243.742 171.357 244.71C170.517 245.678 169.37 246.326 168.107 246.546L150.763 249.518C149.626 249.711 148.457 249.546 147.418 249.046C146.378 248.545 145.52 247.734 144.962 246.725L136.463 231.279L131.605 233.535Z" fill="#231F20"/>
<path d="M26.6126 190.288H26.8752C28.4986 186.42 30.3011 181.132 33.6314 178.351C36.162 176.25 40.6143 176.119 42.2974 178.96C43.2476 176.788 44.6282 174.83 46.3559 173.207C48.1941 171.714 50.9157 171.058 52.9449 172.275C51.7513 171.535 57.7196 166.749 58.3642 166.462C60.876 165.476 63.6164 165.223 66.2663 165.734C65.8127 160.745 76.878 155.874 80.7574 154.287C87.4539 151.565 99.116 150.157 102.745 157.951C104.786 156.579 106.923 154.86 109.465 154.43C112.008 154 115.099 155.325 115.648 157.88C120.077 156.686 120.518 158.13 122.703 160.84C123.897 162.308 127.549 161.7 129.364 162.511C130.622 163.06 131.701 163.952 132.476 165.086C133.251 166.22 133.69 167.549 133.744 168.921C135.842 168.322 138.063 168.309 140.168 168.883C142.272 169.458 144.179 170.598 145.681 172.18C151.9 178.554 151.375 188.521 147.627 195.85C142.745 205.4 134.138 214.09 125.09 219.783C114.049 226.719 101.3 230.526 88.4446 232.699C75.1352 234.931 61.2409 235.432 48.3374 231.505C39.8148 228.962 32.1122 224.219 26.0038 217.754C22.9958 214.484 19.8445 211.631 16.9678 208.539C15.7417 207.161 14.9139 205.475 14.5732 203.663C14.2325 201.85 14.3918 199.979 15.034 198.25C16.7768 193.582 21.6828 190.67 26.6126 190.288Z" fill="white"/>
<path d="M69.3926 234.991C62.1856 235.07 55.0076 234.068 48.0976 232.019C39.4723 229.456 31.6799 224.653 25.5134 218.101C23.9497 216.406 22.3382 214.806 20.7387 213.326C19.1392 211.846 17.8262 210.437 16.4296 208.945C15.1264 207.486 14.2464 205.699 13.8845 203.776C13.5227 201.853 13.6928 199.868 14.3765 198.035C16.1312 193.535 20.9655 190.229 26.4206 189.763C26.5996 189.333 26.7906 188.88 26.9697 188.426C28.4976 184.678 30.2284 180.428 33.2126 177.946C34.0385 177.274 34.9972 176.784 36.0257 176.508C37.0543 176.232 38.1295 176.177 39.1809 176.346C40.3217 176.524 41.3735 177.069 42.177 177.898C43.0838 175.966 44.366 174.233 45.949 172.801C46.8132 172.059 47.8472 171.542 48.9593 171.297C50.0714 171.051 51.2269 171.084 52.3232 171.392C53.2542 169.459 57.7066 166.14 58.0886 165.973C60.477 164.985 63.0951 164.687 65.6445 165.114C66.0981 160.339 75.0387 156.006 80.5057 153.786C87.3931 150.993 98.8404 149.668 102.947 157.128L103.281 156.889C105.052 155.448 107.124 154.424 109.345 153.893C111.959 153.452 115.11 154.681 116.041 157.212C119.694 156.34 120.732 157.427 122.463 159.599C122.678 159.862 122.893 160.16 123.143 160.458C123.693 161.139 125.149 161.27 126.545 161.389C127.579 161.428 128.601 161.621 129.577 161.962C130.822 162.507 131.906 163.361 132.727 164.444C133.548 165.526 134.079 166.8 134.268 168.146C136.371 167.696 138.553 167.789 140.61 168.416C142.667 169.042 144.531 170.182 146.026 171.727C152.591 178.459 151.792 188.808 148.079 196.077C143.424 205.185 134.949 214.221 125.328 220.249C115.385 226.504 103.317 230.754 88.4555 233.248C82.1604 234.356 75.7842 234.938 69.3926 234.991V234.991ZM38.035 177.385C36.5712 177.385 35.1517 177.886 34.0123 178.805C31.2549 181.097 29.5838 185.203 28.1156 188.808C27.8769 189.393 27.6501 190.002 27.4233 190.503C27.3778 190.607 27.3048 190.696 27.2123 190.761C27.1197 190.827 27.011 190.865 26.898 190.873H26.6593C21.6101 191.267 17.11 194.287 15.5224 198.393C14.9206 200.019 14.7726 201.778 15.0944 203.481C15.4161 205.184 16.1954 206.768 17.3487 208.062C18.7214 209.53 20.13 210.927 21.6101 212.407C23.0902 213.887 24.8091 215.57 26.3848 217.277C32.4075 223.684 40.0242 228.376 48.4557 230.873C59.6404 234.323 72.6752 234.716 88.2884 232.067C102.982 229.596 114.907 225.394 124.719 219.223C134.137 213.254 142.481 204.445 147.041 195.528C150.55 188.641 151.35 178.817 145.191 172.55C143.774 171.054 141.975 169.974 139.989 169.427C138.003 168.88 135.905 168.887 133.922 169.447C133.832 169.474 133.737 169.481 133.644 169.467C133.551 169.452 133.462 169.417 133.385 169.363C133.312 169.304 133.253 169.229 133.212 169.145C133.17 169.06 133.148 168.968 133.146 168.874C133.088 167.618 132.68 166.403 131.967 165.367C131.254 164.331 130.265 163.515 129.112 163.013C128.257 162.725 127.364 162.564 126.462 162.535C124.815 162.392 123.108 162.225 122.248 161.163C121.986 160.852 121.759 160.554 121.544 160.279C119.944 158.226 119.348 157.45 115.802 158.417C115.644 158.453 115.477 158.427 115.337 158.346C115.268 158.304 115.208 158.248 115.16 158.183C115.113 158.117 115.08 158.043 115.062 157.964C114.585 155.732 111.792 154.598 109.56 154.968C107.521 155.491 105.62 156.448 103.985 157.773L103.078 158.405C103.007 158.452 102.926 158.483 102.841 158.495C102.757 158.508 102.67 158.501 102.589 158.477C102.505 158.456 102.427 158.415 102.361 158.36C102.294 158.304 102.242 158.234 102.207 158.155C100.392 154.263 93.0272 149.894 80.9831 154.8C71.8635 158.501 66.5756 162.559 66.862 165.627C66.8687 165.717 66.8561 165.807 66.8252 165.891C66.7944 165.975 66.7459 166.052 66.683 166.116C66.6176 166.176 66.54 166.221 66.4555 166.248C66.3709 166.275 66.2815 166.283 66.1936 166.272C63.6534 165.779 61.0258 166.015 58.6138 166.952C57.8499 167.334 53.7317 170.808 53.3855 171.834C53.4788 171.941 53.5311 172.077 53.5329 172.219C53.5348 172.361 53.4861 172.499 53.3956 172.608C53.3052 172.717 53.1788 172.79 53.0391 172.815C52.8995 172.839 52.7557 172.813 52.6335 172.741C50.7237 171.548 48.2408 172.395 46.7368 173.625C45.0742 175.199 43.7431 177.091 42.8216 179.187C42.7747 179.283 42.7018 179.365 42.611 179.422C42.5203 179.479 42.4154 179.509 42.3083 179.509C42.2021 179.51 42.0975 179.484 42.0038 179.434C41.9101 179.384 41.8302 179.311 41.7711 179.223C41.4713 178.738 41.0673 178.325 40.5883 178.016C40.1093 177.706 39.5674 177.507 39.0018 177.432C38.6817 177.386 38.358 177.37 38.035 177.385V177.385Z" fill="#D1D3D4"/>
<path d="M147.053 221.323C147.053 221.323 157.796 192.365 156.28 179.855C156.28 179.855 141.072 198.107 87.3813 206.271C40.6372 213.433 5.51953 198.107 5.51953 198.107C5.51953 198.107 42.762 246.152 71.9471 258.435L147.053 221.323Z" fill="white"/>
<path d="M71.9458 259.043C71.8672 259.061 71.7856 259.061 71.707 259.043C42.7128 246.844 5.39878 199.014 5.02874 198.524C4.94985 198.416 4.90827 198.285 4.91022 198.15C4.91217 198.016 4.95756 197.886 5.03957 197.78C5.12159 197.674 5.23581 197.597 5.36513 197.561C5.49445 197.525 5.6319 197.533 5.75688 197.581C6.11498 197.737 41.2804 212.717 87.2844 205.71C140.056 197.689 155.658 179.688 155.813 179.45C155.891 179.359 155.994 179.292 156.108 179.258C156.223 179.225 156.346 179.225 156.46 179.259C156.575 179.293 156.678 179.359 156.756 179.45C156.833 179.542 156.883 179.653 156.899 179.772C158.463 192.281 148.066 220.357 147.624 221.55C147.564 221.695 147.454 221.814 147.314 221.884L72.2084 258.996C72.1251 259.03 72.0357 259.046 71.9458 259.043V259.043ZM7.41608 199.479C14.4826 208.265 46.449 246.832 71.8741 257.718L146.502 220.846C147.469 218.196 156.386 193.392 155.741 181.24C151.659 185.251 134.088 199.742 87.4157 206.844C47.5949 212.956 15.7837 202.619 7.41608 199.479Z" fill="#231F20"/>
<path d="M44.6611 290.532C54.7344 290.532 62.9004 282.366 62.9004 272.293C62.9004 262.22 54.7344 254.054 44.6611 254.054C34.5879 254.054 26.4219 262.22 26.4219 272.293C26.4219 282.366 34.5879 290.532 44.6611 290.532Z" fill="#231F20"/>
<path d="M44.6603 291.129C40.9349 291.129 37.2931 290.024 34.1955 287.955C31.098 285.885 28.6837 282.943 27.258 279.501C25.8324 276.06 25.4594 272.272 26.1862 268.618C26.913 264.965 28.7069 261.608 31.3412 258.974C33.9755 256.34 37.3317 254.546 40.9856 253.819C44.6394 253.092 48.4267 253.465 51.8686 254.891C55.3104 256.317 58.2522 258.731 60.3219 261.828C62.3917 264.926 63.4964 268.568 63.4964 272.293C63.4901 277.287 61.5035 282.074 57.9724 285.605C54.4414 289.136 49.654 291.123 44.6603 291.129V291.129ZM44.6603 254.651C41.171 254.651 37.76 255.685 34.8587 257.624C31.9574 259.563 29.6962 262.318 28.3608 265.542C27.0255 268.765 26.6761 272.313 27.3569 275.735C28.0376 279.157 29.7179 282.301 32.1852 284.768C34.6526 287.236 37.7961 288.916 41.2184 289.597C44.6407 290.277 48.188 289.928 51.4118 288.593C54.6355 287.257 57.3909 284.996 59.3294 282.095C61.268 279.193 62.3027 275.782 62.3027 272.293C62.2964 267.616 60.4356 263.132 57.1284 259.825C53.8212 256.518 49.3374 254.657 44.6603 254.651V254.651Z" fill="#231F20"/>
<path d="M44.6593 284.23C51.2518 284.23 56.596 278.886 56.596 272.293C56.596 265.701 51.2518 260.356 44.6593 260.356C38.0669 260.356 32.7227 265.701 32.7227 272.293C32.7227 278.886 38.0669 284.23 44.6593 284.23Z" fill="white"/>
<path d="M44.6626 284.838C42.1814 284.838 39.7559 284.103 37.6928 282.724C35.6297 281.346 34.0217 279.386 33.0722 277.094C32.1226 274.802 31.8742 272.279 32.3583 269.846C32.8423 267.412 34.0372 265.177 35.7917 263.422C37.5462 261.668 39.7816 260.473 42.2151 259.989C44.6487 259.505 47.1712 259.753 49.4636 260.703C51.756 261.652 53.7153 263.26 55.0938 265.323C56.4723 267.386 57.2081 269.812 57.2081 272.293C57.2049 275.619 55.8822 278.808 53.5301 281.161C51.1781 283.513 47.9889 284.835 44.6626 284.838V284.838ZM44.6626 260.965C42.4251 260.965 40.2377 261.628 38.3771 262.871C36.5164 264.114 35.066 265.881 34.2092 267.948C33.3524 270.015 33.1276 272.29 33.5632 274.484C33.9989 276.679 35.0755 278.695 36.6568 280.278C38.2382 281.862 40.2534 282.94 42.4477 283.378C44.642 283.816 46.9169 283.594 48.9848 282.739C51.0527 281.884 52.8209 280.436 54.0657 278.577C55.3106 276.717 55.9763 274.531 55.9786 272.293C55.9755 269.293 54.7822 266.416 52.6607 264.295C50.5393 262.173 47.6629 260.98 44.6626 260.977V260.965Z" fill="#231F20"/>
<path d="M305.049 127.573L303.986 200.386L334.484 236.734L327.86 251.762C327.86 251.762 280.447 224.439 272.39 213.195C264.333 201.95 263.127 174.842 263.127 174.842L236.592 201.473L226.398 252.872L206.105 251.762C206.105 251.762 208.684 215.749 208.684 200.005C208.684 184.26 248.791 130.103 248.791 130.103L305.049 127.573Z" fill="#231F20"/>
<path d="M226.397 253.469L206.105 252.359C205.948 252.346 205.803 252.273 205.699 252.156C205.646 252.098 205.604 252.031 205.578 251.957C205.551 251.883 205.54 251.805 205.544 251.726C205.544 251.368 208.122 215.558 208.122 200.005C208.122 184.236 246.702 131.966 248.349 129.745C248.4 129.675 248.466 129.618 248.543 129.576C248.619 129.535 248.704 129.511 248.79 129.507L305 126.976C305.082 126.97 305.163 126.982 305.24 127.011C305.316 127.04 305.385 127.085 305.442 127.143C305.5 127.201 305.546 127.27 305.576 127.346C305.607 127.422 305.622 127.503 305.621 127.585L304.559 200.16L334.914 236.328C334.99 236.41 335.039 236.513 335.056 236.624C335.073 236.734 335.057 236.848 335.009 236.949L328.396 252.001C328.366 252.079 328.317 252.148 328.255 252.204C328.193 252.26 328.119 252.301 328.038 252.323C327.963 252.355 327.881 252.372 327.799 252.372C327.717 252.372 327.636 252.355 327.561 252.323C325.615 251.201 279.957 224.869 271.9 213.589C264.738 203.622 262.959 181.921 262.601 176.251L237.14 201.759L226.982 252.992C226.957 253.127 226.884 253.25 226.777 253.337C226.67 253.425 226.535 253.471 226.397 253.469ZM206.785 251.201L225.884 252.252L235.982 201.354C236.002 201.237 236.056 201.129 236.138 201.043L262.697 174.412C262.78 174.331 262.885 174.276 263 174.252C263.114 174.229 263.233 174.239 263.341 174.281C263.447 174.323 263.539 174.395 263.605 174.488C263.671 174.582 263.708 174.692 263.711 174.806C263.711 175.069 265 201.855 272.867 212.837C280.291 223.186 322.165 247.751 327.584 250.903L333.792 236.794L303.532 200.745C303.44 200.634 303.389 200.495 303.389 200.351L304.451 128.182L249.16 130.676C246.331 134.52 209.34 185.12 209.34 199.993C209.34 214.484 207.131 246.414 206.797 251.201H206.785Z" fill="#231F20"/>
<path d="M303.652 50.8559C287.597 42.7628 246.296 40.5545 240.245 52.8732C235.47 62.6612 249.997 114.24 249.997 114.24L301.086 124.792C301.086 124.792 311.662 54.8905 303.652 50.8559Z" fill="#1E71B9"/>
<path d="M243.633 139.629L248.551 89.0413L306.456 92.8729L304.94 134.783L243.633 139.629Z" fill="#231F20"/>
<path d="M243.631 140.226C243.553 140.227 243.476 140.211 243.404 140.18C243.332 140.149 243.267 140.104 243.214 140.047C243.152 139.985 243.105 139.909 243.076 139.827C243.047 139.744 243.037 139.656 243.047 139.569L247.953 88.9814C247.959 88.9045 247.98 88.8295 248.015 88.7608C248.05 88.6922 248.098 88.6311 248.157 88.5812C248.216 88.5312 248.284 88.4934 248.357 88.4699C248.431 88.4464 248.508 88.4377 248.585 88.4442L306.49 92.2759C306.644 92.2851 306.789 92.3537 306.893 92.4672C306.998 92.5807 307.054 92.7303 307.051 92.8847L305.535 134.806C305.527 134.952 305.467 135.089 305.367 135.195C305.266 135.3 305.131 135.365 304.986 135.379L243.679 140.226H243.631ZM249.075 89.6618L244.3 138.972L304.365 134.198L305.845 93.386L249.075 89.6618Z" fill="#231F20"/>
<path d="M266.22 42.7986L267.318 53.5416C267.318 53.5416 269.861 59.2831 276.521 56.4064C278.434 55.5791 280.079 54.2372 281.274 52.5302C282.469 50.8231 283.167 48.8178 283.289 46.7377L281.165 27.4122C281.165 27.4122 275.543 25.5501 275.137 14.1028C275.137 14.1028 268.452 14.1028 257.9 14.5922C257.9 14.5922 256.444 32.3898 258.211 37.63C259.977 42.8702 266.22 42.7986 266.22 42.7986Z" fill="white"/>
<path d="M273.008 57.8746C271.697 57.841 270.421 57.4481 269.318 56.7387C268.215 56.0294 267.328 55.0308 266.753 53.8519C266.748 53.7884 266.748 53.7245 266.753 53.6609L265.703 43.3954C264.044 43.276 259.221 42.5121 257.67 37.8926C255.891 32.5927 257.264 15.3442 257.323 14.6041C257.338 14.4541 257.406 14.3144 257.516 14.2112C257.626 14.108 257.77 14.0482 257.92 14.0431C268.365 13.5895 275.109 13.5537 275.181 13.5537C275.341 13.5536 275.496 13.6157 275.611 13.727C275.727 13.8383 275.795 13.9901 275.801 14.1505C276.183 25.0368 281.352 26.875 281.412 26.887C281.523 26.9265 281.622 26.9967 281.696 27.0896C281.77 27.1825 281.816 27.2943 281.829 27.4122L283.906 46.6899C283.78 48.9025 283.045 51.037 281.781 52.8572C280.517 54.6775 278.774 56.1124 276.744 57.0032C275.571 57.5434 274.3 57.8399 273.008 57.8746V57.8746ZM267.923 53.4222C268.257 54.1026 270.621 58.3282 276.279 55.8931C278.087 55.1177 279.644 53.8537 280.774 52.2428C281.904 50.6319 282.563 48.738 282.677 46.7735L280.588 27.8897C279.275 27.2451 275.049 24.44 274.548 14.7593C272.722 14.7593 266.837 14.8667 258.469 15.2248C258.242 18.2329 257.276 32.915 258.792 37.4748C260.308 42.0346 265.954 42.1779 266.204 42.1659C266.36 42.1675 266.509 42.2251 266.625 42.3282C266.742 42.4313 266.817 42.5729 266.837 42.7269L267.923 53.4222Z" fill="#231F20"/>
<path d="M279.098 27.818C279.17 26.8246 279.564 25.8818 280.22 25.1323C281.843 23.2821 285.245 21.9929 286.785 24.5832C289.244 28.7252 284.827 34.0609 280.351 32.9388" fill="white"/>
<path d="M281.581 33.7027C281.118 33.702 280.657 33.6418 280.208 33.5237C280.13 33.5055 280.055 33.4718 279.99 33.4246C279.924 33.3774 279.869 33.3176 279.827 33.2487C279.784 33.1798 279.756 33.1032 279.744 33.0234C279.732 32.9435 279.735 32.862 279.755 32.7836C279.774 32.7044 279.809 32.6299 279.858 32.5642C279.906 32.4986 279.967 32.4431 280.037 32.401C280.107 32.3588 280.184 32.3309 280.265 32.3187C280.345 32.3065 280.428 32.3104 280.507 32.33C281.5 32.5363 282.531 32.4447 283.472 32.0667C284.413 31.6887 285.221 31.0411 285.795 30.2053C286.403 29.4745 286.774 28.5753 286.857 27.6282C286.94 26.681 286.732 25.7311 286.26 24.9054C286.088 24.5755 285.836 24.2937 285.528 24.0854C285.22 23.877 284.864 23.7486 284.494 23.7117C283.768 23.7204 283.052 23.8847 282.395 24.1936C281.739 24.5025 281.156 24.9487 280.686 25.5022C280.117 26.152 279.773 26.9686 279.707 27.8299C279.703 27.911 279.682 27.9903 279.646 28.0633C279.611 28.1362 279.561 28.2013 279.5 28.2547C279.438 28.3081 279.367 28.3487 279.29 28.3741C279.213 28.3996 279.132 28.4093 279.051 28.4028C278.888 28.3906 278.737 28.3149 278.63 28.192C278.522 28.0692 278.468 27.9091 278.478 27.7463C278.564 26.617 279.012 25.5456 279.755 24.6905C280.35 23.9859 281.095 23.423 281.936 23.043C282.776 22.663 283.691 22.4755 284.613 22.4942C285.169 22.5474 285.704 22.7377 286.168 23.0481C286.633 23.3585 287.013 23.7793 287.275 24.2728C287.864 25.3101 288.129 26.5002 288.036 27.6896C287.942 28.879 287.494 30.013 286.75 30.9454C286.159 31.7724 285.385 32.4517 284.489 32.93C283.592 33.4084 282.597 33.6728 281.581 33.7027V33.7027Z" fill="#231F20"/>
<path d="M266.741 47.9672C269.043 47.3423 271.1 46.0307 272.638 44.2071C273.277 43.5266 273.725 42.6884 273.935 41.7782C274.144 40.868 274.109 39.9185 273.831 39.0266C272.907 40.1765 271.741 41.11 270.418 41.7616C269.094 42.4132 267.643 42.7672 266.168 42.7986L266.741 47.9672Z" fill="#231F20"/>
<path d="M266.738 48.564C266.612 48.566 266.49 48.5237 266.392 48.4446C266.325 48.3959 266.269 48.3334 266.228 48.2614C266.186 48.1894 266.161 48.1094 266.153 48.0268L265.628 42.8582C265.62 42.774 265.629 42.6889 265.656 42.6086C265.683 42.5283 265.727 42.4547 265.784 42.3926C265.842 42.3305 265.912 42.2813 265.99 42.2484C266.068 42.2155 266.152 42.1996 266.237 42.2017H266.452C267.797 42.1243 269.112 41.7656 270.311 41.1488C271.509 40.532 272.565 39.6708 273.411 38.6207C273.473 38.5363 273.557 38.4706 273.654 38.4306C273.75 38.3906 273.856 38.3779 273.96 38.3939C274.066 38.4098 274.166 38.4535 274.25 38.5206C274.334 38.5877 274.398 38.6758 274.437 38.7759C274.75 39.7723 274.789 40.8347 274.55 41.8513C274.31 42.868 273.801 43.8013 273.076 44.5533C271.457 46.4756 269.286 47.8547 266.857 48.5043L266.738 48.564ZM266.869 43.3835L267.263 47.2032C269.164 46.5035 270.859 45.3379 272.193 43.8132C272.636 43.3484 272.98 42.7991 273.206 42.1982C273.432 41.5973 273.534 40.957 273.506 40.3157C271.74 42.1108 269.381 43.2014 266.869 43.3835V43.3835Z" fill="#231F20"/>
<path d="M264.367 33.9176C263.802 33.9503 263.244 33.7811 262.792 33.4402C261.67 32.5091 263.138 28.8326 264.558 25.932C264.628 25.7895 264.751 25.6806 264.901 25.6291C265.051 25.5776 265.216 25.5878 265.358 25.6574C265.501 25.7271 265.609 25.8505 265.661 26.0005C265.712 26.1504 265.702 26.3147 265.633 26.4572C264.296 29.1907 263.341 32.0436 263.591 32.5688C264.045 32.9388 265.489 32.5688 266.301 32.3062C266.373 32.2751 266.45 32.2588 266.529 32.2583C266.607 32.2577 266.685 32.2729 266.757 32.303C266.83 32.3331 266.895 32.3774 266.95 32.4333C267.005 32.4892 267.048 32.5556 267.077 32.6285C267.136 32.7742 267.136 32.9374 267.075 33.0827C267.015 33.228 266.9 33.3436 266.755 33.4043C265.994 33.7108 265.187 33.8844 264.367 33.9176V33.9176Z" fill="#231F20"/>
<path d="M259.809 25.8603C260.178 25.8603 260.478 25.0854 260.478 24.1295C260.478 23.1736 260.178 22.3987 259.809 22.3987C259.44 22.3987 259.141 23.1736 259.141 24.1295C259.141 25.0854 259.44 25.8603 259.809 25.8603Z" fill="#231F20"/>
<path d="M270.309 25.8603C270.678 25.8603 270.978 25.0854 270.978 24.1295C270.978 23.1736 270.678 22.3987 270.309 22.3987C269.94 22.3987 269.641 23.1736 269.641 24.1295C269.641 25.0854 269.94 25.8603 270.309 25.8603Z" fill="#231F20"/>
<path d="M266.648 38.0237C265.25 38.0297 263.874 37.6806 262.649 37.0091C262.582 36.9675 262.524 36.9133 262.479 36.8494C262.433 36.7855 262.4 36.7133 262.383 36.6368C262.365 36.5603 262.362 36.4811 262.375 36.4037C262.388 36.3262 262.416 36.2521 262.458 36.1855C262.499 36.1188 262.554 36.061 262.617 36.0154C262.681 35.9697 262.753 35.9371 262.83 35.9194C262.906 35.9016 262.986 35.8991 263.063 35.912C263.141 35.9249 263.215 35.9529 263.281 35.9945C264.512 36.6629 265.914 36.9474 267.308 36.8112C268.701 36.6751 270.022 36.1245 271.1 35.2305C271.162 35.1819 271.233 35.1464 271.309 35.126C271.386 35.1057 271.465 35.1009 271.543 35.1121C271.621 35.1232 271.696 35.15 271.764 35.1909C271.831 35.2318 271.889 35.2859 271.935 35.3499C272.032 35.475 272.074 35.6333 272.054 35.7899C272.034 35.9465 271.953 36.0887 271.828 36.1855C270.358 37.3649 268.532 38.0128 266.648 38.0237Z" fill="#231F20"/>
<path d="M45.7807 275.42L324.049 136.669C324.803 136.249 325.36 135.546 325.598 134.716C325.835 133.886 325.733 132.995 325.314 132.24V132.24C324.892 131.488 324.189 130.933 323.36 130.696C322.531 130.459 321.641 130.559 320.885 130.975L42.5698 269.739C41.825 270.168 41.281 270.876 41.0572 271.706C40.8334 272.536 40.9481 273.421 41.3761 274.167V274.167C41.7956 274.916 42.4945 275.468 43.3198 275.703C44.1452 275.937 45.03 275.836 45.7807 275.42V275.42Z" fill="white"/>
<path d="M44.2063 276.447C43.3497 276.448 42.5172 276.164 41.8392 275.64C41.1613 275.116 40.6764 274.383 40.4607 273.554C40.2449 272.725 40.3104 271.847 40.647 271.06C40.9836 270.272 41.5721 269.618 42.3203 269.201L320.612 130.426C321.509 129.938 322.563 129.823 323.544 130.107C324.525 130.391 325.354 131.05 325.852 131.941C326.1 132.385 326.258 132.873 326.317 133.378C326.376 133.882 326.336 134.394 326.197 134.883C326.058 135.372 325.825 135.828 325.51 136.227C325.195 136.625 324.804 136.958 324.36 137.206L46.0685 275.969C45.498 276.283 44.8574 276.448 44.2063 276.447V276.447ZM322.474 131.189C322.026 131.187 321.586 131.302 321.197 131.524L42.8933 270.288C42.2957 270.637 41.8594 271.208 41.6787 271.876C41.4979 272.544 41.5872 273.257 41.9271 273.86C42.267 274.463 42.8305 274.908 43.4958 275.1C44.1611 275.291 44.8751 275.213 45.4836 274.883V274.883L323.775 136.107C324.214 135.847 324.568 135.465 324.793 135.007C325.018 134.549 325.105 134.035 325.043 133.529C324.981 133.022 324.773 132.545 324.444 132.155C324.115 131.765 323.679 131.479 323.19 131.333C322.96 131.25 322.719 131.201 322.474 131.189V131.189Z" fill="#231F20"/>
<path d="M312.939 120.136L286.678 150.754C286.678 150.754 288.624 159.778 286.821 160.637C285.019 161.497 275.72 164.529 274.288 162.141C273.417 160.468 273.084 158.568 273.333 156.698L270.946 156.519C270.946 156.519 270.026 152.676 271.889 150.396C273.751 148.116 298.985 114.335 298.985 114.335" fill="white"/>
<path d="M276.948 163.669C275.468 163.669 274.274 163.347 273.761 162.476C272.898 160.884 272.513 159.077 272.651 157.271L270.86 157.152C270.73 157.14 270.607 157.088 270.509 157.002C270.41 156.916 270.341 156.802 270.311 156.674C270.311 156.507 269.333 152.508 271.386 150.014C273.224 147.77 298.207 114.323 298.458 113.977C298.561 113.861 298.704 113.788 298.859 113.773C299.013 113.757 299.168 113.8 299.292 113.893C299.417 113.986 299.502 114.122 299.531 114.275C299.56 114.427 299.53 114.585 299.449 114.717C298.41 116.102 274.191 148.522 272.329 150.802C271.028 152.389 271.266 154.944 271.421 155.958L273.367 156.089C273.452 156.095 273.536 156.118 273.612 156.157C273.688 156.196 273.755 156.25 273.809 156.316C273.861 156.383 273.9 156.46 273.922 156.542C273.945 156.624 273.951 156.709 273.94 156.794C273.706 158.522 274.01 160.281 274.811 161.831C275.85 163.562 284.146 161.222 286.557 160.088C287.261 159.754 287.035 155.314 286.068 150.897C286.049 150.805 286.052 150.71 286.074 150.62C286.097 150.529 286.14 150.444 286.199 150.372L312.46 119.754C312.512 119.693 312.576 119.643 312.648 119.607C312.72 119.57 312.798 119.548 312.879 119.542C312.959 119.536 313.04 119.546 313.117 119.571C313.193 119.596 313.264 119.636 313.325 119.689C313.386 119.741 313.436 119.805 313.473 119.877C313.509 119.949 313.531 120.027 313.537 120.108C313.543 120.188 313.533 120.269 313.508 120.345C313.483 120.422 313.443 120.493 313.391 120.554L287.321 150.933C287.954 153.941 289.028 160.279 287.07 161.198C286.271 161.568 280.696 163.669 276.948 163.669Z" fill="#231F20"/>
<path d="M59.8543 210.366C79.9745 210.358 99.9662 207.159 119.084 200.888C147.195 191.661 163.811 179.115 164.503 178.59C164.953 178.262 165.332 177.848 165.619 177.371C165.906 176.894 166.095 176.365 166.175 175.814C166.254 175.264 166.223 174.703 166.083 174.164C165.943 173.626 165.697 173.121 165.359 172.679C165.021 172.236 164.598 171.866 164.115 171.59C163.633 171.314 163.099 171.136 162.547 171.069C161.995 171.001 161.435 171.045 160.899 171.197C160.364 171.348 159.864 171.606 159.43 171.953C159.132 172.18 142.91 184.332 116.148 193.057C80.6444 204.627 42.4405 204.99 6.7241 194.096C5.66198 193.779 4.51759 193.898 3.54269 194.425C2.5678 194.952 1.84226 195.845 1.52568 196.907C1.2091 197.969 1.32741 199.113 1.85459 200.088C2.38177 201.063 3.27464 201.789 4.33677 202.105C22.3382 207.563 41.0438 210.346 59.8543 210.366V210.366Z" fill="white"/>
<path d="M59.8556 210.974C40.9772 210.949 22.2043 208.158 4.13517 202.69C3.22201 202.424 2.40935 201.89 1.80141 201.158C1.19347 200.427 0.817959 199.53 0.723046 198.584C0.628133 197.637 0.818141 196.684 1.2687 195.846C1.71927 195.008 2.40984 194.324 3.25186 193.881C4.35152 193.295 5.63664 193.162 6.83286 193.511C42.4341 204.359 80.5101 203.996 115.898 192.472C142.41 183.818 158.345 171.953 159.002 171.452C159.501 171.068 160.072 170.786 160.682 170.624C161.291 170.461 161.926 170.421 162.551 170.505C163.176 170.59 163.778 170.797 164.322 171.115C164.866 171.433 165.342 171.856 165.722 172.359C166.106 172.859 166.388 173.43 166.55 174.039C166.713 174.648 166.753 175.284 166.669 175.908C166.584 176.533 166.377 177.135 166.059 177.679C165.741 178.224 165.318 178.7 164.815 179.08C164.122 179.617 147.471 192.21 119.217 201.473C100.06 207.773 80.0218 210.981 59.8556 210.974V210.974ZM5.56757 194.538C4.73047 194.568 3.93069 194.892 3.30737 195.451C2.68404 196.011 2.27661 196.771 2.15596 197.6C2.03531 198.429 2.20907 199.274 2.64702 199.988C3.08497 200.702 3.75939 201.24 4.55296 201.509C22.5057 206.943 41.1579 209.718 59.9153 209.745C79.9714 209.753 99.9008 206.565 118.954 200.303C147.005 191.088 163.502 178.626 164.194 178.101C164.57 177.815 164.885 177.457 165.119 177.046C165.353 176.636 165.501 176.183 165.555 175.713C165.677 174.777 165.425 173.83 164.853 173.079C164.28 172.328 163.434 171.833 162.499 171.703C162.036 171.637 161.565 171.665 161.114 171.786C160.663 171.907 160.241 172.118 159.873 172.407C159.193 172.908 143.102 184.893 116.412 193.606C80.7805 205.215 42.4408 205.582 6.59413 194.657C6.25981 194.566 5.9138 194.526 5.56757 194.538V194.538Z" fill="#231F20"/>
<path d="M35.0236 189.262C34.9644 189.273 34.9037 189.273 34.8445 189.262C34.6948 189.215 34.5695 189.111 34.4958 188.972C34.422 188.834 34.4058 188.672 34.4506 188.521C35.2623 185.991 36.2292 183.377 38.3539 181.694C41.35 179.306 45.4443 179.641 49.3715 180.19L54.8504 180.954C55.008 180.977 55.15 181.062 55.246 181.189C55.3419 181.316 55.3842 181.476 55.3637 181.634C55.3373 181.789 55.2516 181.928 55.1247 182.022C54.9978 182.115 54.8396 182.156 54.6833 182.135L49.2044 181.371C45.5279 180.87 41.7201 180.536 39.094 182.637C37.2319 184.105 36.3486 186.528 35.5966 188.88C35.5508 188.994 35.4715 189.091 35.3693 189.159C35.267 189.227 35.1465 189.263 35.0236 189.262Z" fill="#D1D3D4"/>
<path d="M114.022 176.979C113.94 176.978 113.858 176.96 113.782 176.928C113.706 176.895 113.638 176.847 113.581 176.788C110.434 173.45 106.287 171.226 101.765 170.451C97.2437 169.676 92.5928 170.392 88.5137 172.49C88.3744 172.566 88.2106 172.584 88.0584 172.539C87.9061 172.494 87.7779 172.391 87.702 172.252C87.626 172.112 87.6084 171.949 87.6532 171.796C87.698 171.644 87.8014 171.516 87.9407 171.44C92.2503 169.23 97.1607 168.477 101.935 169.295C106.708 170.112 111.088 172.457 114.416 175.976C114.495 176.061 114.548 176.168 114.567 176.283C114.587 176.398 114.572 176.516 114.525 176.622C114.478 176.729 114.401 176.819 114.303 176.883C114.205 176.946 114.091 176.979 113.975 176.979H114.022Z" fill="#D1D3D4"/>
<path d="M71.2171 189.082C71.1218 189.081 71.028 189.058 70.9432 189.014C70.8583 188.971 70.7846 188.908 70.7277 188.832C70.6371 188.703 70.6001 188.543 70.6246 188.388C70.6491 188.232 70.7331 188.091 70.859 187.996C74.6423 185.225 79.1819 183.676 83.87 183.556C83.9492 183.551 84.0286 183.562 84.1031 183.59C84.1777 183.617 84.2457 183.659 84.3029 183.714C84.3602 183.769 84.4054 183.836 84.4356 183.909C84.4659 183.983 84.4806 184.061 84.4788 184.141C84.482 184.219 84.4693 184.298 84.4413 184.372C84.4134 184.446 84.3708 184.513 84.3161 184.57C84.2615 184.627 84.1959 184.672 84.1234 184.703C84.0508 184.734 83.9727 184.75 83.8939 184.749C79.4509 184.868 75.1494 186.337 71.5633 188.963C71.4622 189.036 71.3418 189.078 71.2171 189.082V189.082Z" fill="#D1D3D4"/>
<path d="M137.921 178.53C137.023 177.124 135.644 176.093 134.042 175.63C131.525 174.663 128.885 174.052 126.199 173.815" fill="white"/>
<path d="M137.921 179.187C137.812 179.188 137.705 179.158 137.613 179.101C137.52 179.044 137.445 178.962 137.396 178.865C136.552 177.594 135.282 176.667 133.815 176.251C131.351 175.282 128.763 174.663 126.128 174.412C125.969 174.398 125.823 174.322 125.721 174.2C125.619 174.078 125.57 173.92 125.584 173.762C125.599 173.604 125.675 173.457 125.797 173.356C125.919 173.254 126.077 173.204 126.235 173.219C128.974 173.467 131.666 174.094 134.233 175.081C135.98 175.586 137.477 176.722 138.434 178.268C138.505 178.409 138.517 178.572 138.468 178.722C138.419 178.872 138.312 178.996 138.172 179.068C138.099 179.127 138.013 179.168 137.921 179.187V179.187Z" fill="#D1D3D4"/>
<path d="M303.651 50.8557C303.651 50.8557 332.001 90.5213 332.299 97.9101C332.598 105.299 294.663 143.95 294.663 143.95L279.539 132.192C279.539 132.192 306.42 99.0083 305.919 95.7376C305.418 92.467 288.313 69.3695 288.313 69.3695C288.313 69.3695 289.661 54.2338 303.651 50.8557Z" fill="#1E71B9"/>
<path d="M254.244 93.0399C254.244 93.0399 250.329 64.5948 255.044 45.0425L261.633 44.3979C261.633 44.3979 258.625 64.4635 261.478 95.2243L254.244 93.0399Z" fill="#231F20"/>
<path d="M261.5 95.8214C261.444 95.8326 261.388 95.8326 261.332 95.8214L254.063 93.6369C253.955 93.6047 253.859 93.5428 253.785 93.4583C253.711 93.3739 253.663 93.2703 253.645 93.1595C253.645 92.873 249.778 64.4159 254.493 44.9353C254.524 44.8166 254.591 44.7105 254.685 44.6314C254.779 44.5524 254.896 44.5043 255.018 44.4936L261.595 43.8491C261.685 43.839 261.776 43.85 261.861 43.8811C261.946 43.9121 262.022 43.9625 262.084 44.0281C262.145 44.0957 262.19 44.1754 262.216 44.2619C262.243 44.3484 262.251 44.4396 262.24 44.5294C262.24 44.7324 259.279 64.8218 262.096 95.2006C262.106 95.2973 262.091 95.3949 262.054 95.4845C262.016 95.5741 261.957 95.6529 261.881 95.7139C261.772 95.7951 261.636 95.8333 261.5 95.8214V95.8214ZM254.779 92.5746L260.831 94.4009C258.444 67.6747 260.473 48.958 260.962 45.0666L255.555 45.5918C251.329 63.6162 254.349 89.1726 254.779 92.5746V92.5746Z" fill="#231F20"/>
<path d="M287.869 45.8184C283.37 63.0999 281.112 80.8881 281.149 98.7456L288.383 98.0771C288.383 98.0771 287.869 72.282 295.628 48.1221L287.869 45.8184Z" fill="#231F20"/>
<path d="M281.148 99.3426C281.075 99.3441 281.003 99.3311 280.935 99.3045C280.868 99.2779 280.806 99.2381 280.754 99.1874C280.69 99.1332 280.638 99.0655 280.603 98.9892C280.568 98.9128 280.55 98.8297 280.551 98.7458C280.534 80.8345 282.792 62.9936 287.271 45.6514C287.321 45.5015 287.422 45.3744 287.558 45.2933C287.704 45.2404 287.865 45.2404 288.011 45.2933L295.758 47.5971C295.835 47.6203 295.906 47.6586 295.968 47.7099C296.029 47.7612 296.08 47.8243 296.116 47.8955C296.148 47.967 296.164 48.0442 296.164 48.1223C296.164 48.2004 296.148 48.2777 296.116 48.3491C288.489 72.1389 288.895 97.8505 288.954 98.1131C288.955 98.2629 288.901 98.4078 288.802 98.5201C288.703 98.6324 288.566 98.7043 288.417 98.7219L281.184 99.3903L281.148 99.3426ZM288.31 46.5586C284.02 63.4055 281.823 80.7168 281.768 98.1012L287.808 97.5401C287.808 93.6846 288.011 70.3961 294.887 48.5282L288.31 46.5586Z" fill="#231F20"/>
<path d="M286.139 19.8084C286.139 20.1545 260.022 20.4052 252.717 20.4649C252.48 20.4532 252.249 20.3889 252.041 20.2766C251.833 20.1643 251.652 20.0068 251.513 19.8157C251.373 19.6246 251.278 19.4047 251.234 19.1722C251.191 18.9396 251.199 18.7002 251.26 18.4714V18.4714C251.332 18.1394 251.514 17.8412 251.776 17.6247C252.038 17.4083 252.365 17.2861 252.705 17.2778H256.703C256.703 17.2778 255.641 3.94451 269.309 2.15401C282.976 0.363507 286.08 12.1928 286.139 19.8084Z" fill="white"/>
<path d="M252.656 21.0857C252.349 21.0828 252.046 21.0118 251.769 20.8776C251.493 20.7434 251.249 20.5495 251.057 20.3099C250.837 20.0375 250.683 19.7182 250.606 19.3766C250.529 19.0351 250.533 18.6805 250.615 18.3403C250.706 17.8627 250.958 17.4309 251.33 17.1178C251.702 16.8047 252.17 16.6294 252.656 16.6214H256.022C256.022 13.8282 256.882 3.1091 269.153 1.49765C273.999 0.865004 277.95 1.84381 280.922 4.42213C286.031 8.83871 286.688 16.6453 286.723 19.8085C286.724 19.9734 286.659 20.1319 286.544 20.2502C286.282 20.5247 286.007 20.7993 252.644 21.0857H252.656ZM252.656 17.8509C252.451 17.8635 252.256 17.9445 252.103 18.0808C251.949 18.2171 251.846 18.4009 251.809 18.6029C251.774 18.7643 251.775 18.9315 251.812 19.0925C251.849 19.2534 251.921 19.4042 252.024 19.534C252.097 19.6328 252.192 19.7133 252.302 19.7692C252.412 19.8251 252.533 19.8549 252.656 19.8563V19.8563C270.74 19.7011 282.987 19.4862 285.494 19.2952C285.387 16.0365 284.599 9.22068 280.134 5.35319C277.437 3.02554 273.808 2.13029 269.391 2.72713C256.476 4.4102 257.276 16.6692 257.323 17.1824C257.328 17.2675 257.316 17.3526 257.287 17.4328C257.258 17.5129 257.213 17.5864 257.155 17.6488C257.097 17.7113 257.027 17.7613 256.95 17.796C256.872 17.8308 256.788 17.8494 256.703 17.8509H252.656Z" fill="#231F20"/>
<path d="M261.86 17.2301C261.86 17.2301 261.395 9.41162 264.248 4.42209C266.145 1.04401 271.41 0.244253 272.687 1.67665C273.487 2.57191 270.013 4.19529 268.998 8.22989C268.535 11.2079 268.296 14.2164 268.282 17.2301" fill="white"/>
<path d="M261.86 17.8508C261.703 17.8509 261.552 17.7901 261.438 17.681C261.325 17.572 261.258 17.4232 261.252 17.2659C261.252 16.9436 260.81 9.20867 263.639 4.13558C264.302 3.10465 265.19 2.23724 266.236 1.59843C267.282 0.95963 268.459 0.566025 269.679 0.44715C270.271 0.319929 270.885 0.33017 271.472 0.477089C272.06 0.624008 272.606 0.903692 273.069 1.29465C273.797 2.09441 273.069 2.95385 272.221 3.86104C270.953 5.12508 270.025 6.68961 269.524 8.40891C269.071 11.3398 268.835 14.3003 268.819 17.2659C268.823 17.3478 268.809 17.4296 268.779 17.5058C268.749 17.582 268.703 17.6511 268.645 17.7085C268.586 17.7659 268.516 17.8104 268.439 17.839C268.363 17.8676 268.281 17.8798 268.199 17.8747C268.036 17.8716 267.881 17.8048 267.767 17.6887C267.654 17.5727 267.59 17.4166 267.59 17.254C267.6 14.1876 267.847 11.1266 268.33 8.09856C268.879 6.19185 269.902 4.45496 271.302 3.04935C271.597 2.74128 271.86 2.40549 272.09 2.04666C271.403 1.6437 270.59 1.51174 269.81 1.67663C268.784 1.76858 267.792 2.09249 266.909 2.62392C266.026 3.15534 265.275 3.8804 264.713 4.74435C262.004 9.51903 262.421 17.1466 262.421 17.2182C262.431 17.3809 262.377 17.541 262.269 17.6639C262.162 17.7867 262.011 17.8625 261.848 17.8747L261.86 17.8508Z" fill="#231F20"/>
<path d="M285.041 17.827H256.655C256.497 17.827 256.345 17.7641 256.233 17.6522C256.121 17.5402 256.059 17.3884 256.059 17.2301C256.059 17.0718 256.121 16.92 256.233 16.8081C256.345 16.6962 256.497 16.6333 256.655 16.6333H285.041C285.199 16.6333 285.351 16.6962 285.463 16.8081C285.575 16.92 285.638 17.0718 285.638 17.2301C285.638 17.3884 285.575 17.5402 285.463 17.6522C285.351 17.7641 285.199 17.827 285.041 17.827Z" fill="#231F20"/>
<path d="M248.535 89.6619C248.396 89.6592 248.263 89.6092 248.156 89.5202C248.05 89.4312 247.977 89.3085 247.95 89.1725C247.795 88.3012 244.19 67.6865 245.968 57.1823C245.998 57.0267 246.086 56.8886 246.215 56.7972C246.345 56.7059 246.504 56.6684 246.661 56.6928C246.816 56.722 246.954 56.8106 247.046 56.9398C247.137 57.069 247.175 57.2288 247.15 57.3852C245.396 67.6865 249.096 88.7428 249.132 88.9577C249.145 89.0353 249.144 89.1149 249.126 89.1918C249.109 89.2687 249.077 89.3415 249.031 89.4059C248.986 89.4702 248.928 89.5249 248.861 89.5668C248.794 89.6088 248.72 89.637 248.642 89.65L248.535 89.6619Z" fill="#231F20"/>
<path d="M305.952 96.3346C305.852 96.3367 305.753 96.3125 305.665 96.2643C305.577 96.2161 305.503 96.1457 305.451 96.06L293.407 77.3672C293.322 77.2342 293.293 77.0728 293.326 76.9184C293.36 76.764 293.453 76.6292 293.586 76.5436C293.651 76.4981 293.724 76.4665 293.802 76.4508C293.88 76.4351 293.96 76.4357 294.037 76.4525C294.114 76.4694 294.187 76.502 294.252 76.5485C294.316 76.595 294.369 76.6543 294.41 76.7226L306.454 95.4155C306.539 95.5485 306.568 95.7099 306.534 95.8643C306.501 96.0187 306.407 96.1535 306.275 96.2391C306.178 96.2994 306.066 96.3324 305.952 96.3346V96.3346Z" fill="#231F20"/>
<path d="M270.56 131.046C270.035 131.046 269.498 131.046 268.972 130.975C264.674 130.591 260.695 128.543 257.885 125.267C255.075 121.991 253.657 117.747 253.932 113.44L254.851 98.1845C254.853 98.1015 254.873 98.0198 254.91 97.9455C254.948 97.8712 255.001 97.8061 255.066 97.7548C255.129 97.7038 255.202 97.6659 255.28 97.6434C255.358 97.6208 255.439 97.6141 255.52 97.6235L287.271 101.431C287.422 101.446 287.561 101.52 287.659 101.635C287.757 101.751 287.807 101.901 287.797 102.052L287.14 115.266C286.923 119.519 285.082 123.527 281.997 126.463C278.913 129.399 274.819 131.04 270.56 131.046V131.046ZM255.997 98.8888L255.138 113.535C255.026 115.556 255.314 117.58 255.985 119.49C256.656 121.4 257.696 123.159 259.047 124.667C260.397 126.175 262.032 127.403 263.857 128.279C265.682 129.155 267.661 129.664 269.683 129.775C271.704 129.886 273.727 129.598 275.638 128.928C277.548 128.257 279.307 127.217 280.815 125.866C282.323 124.515 283.55 122.881 284.427 121.056C285.303 119.231 285.811 117.251 285.922 115.23L286.555 102.577L255.997 98.8888Z" fill="white"/>
<path d="M231.612 234.406L204.91 230.085L203.799 268.843C203.799 268.843 187.518 274.131 187.661 277.068C187.864 281.389 224.987 279.61 224.987 279.61L231.612 234.406Z" fill="white"/>
<path d="M209.101 280.649H206.427C187.245 280.446 187.126 278.154 187.09 277.175C187.09 276.387 188.104 273.427 203.228 268.461L204.338 230.133C204.341 230.045 204.362 229.959 204.401 229.881C204.44 229.802 204.496 229.733 204.565 229.679C204.634 229.625 204.712 229.586 204.796 229.563C204.88 229.541 204.968 229.535 205.055 229.548L231.709 233.869C231.788 233.88 231.864 233.908 231.933 233.949C232.002 233.99 232.062 234.044 232.109 234.109C232.157 234.173 232.192 234.246 232.211 234.324C232.23 234.401 232.234 234.482 232.222 234.561L225.633 279.765C225.614 279.908 225.544 280.039 225.437 280.135C225.33 280.231 225.192 280.286 225.048 280.291C224.965 280.231 217.361 280.649 209.101 280.649ZM205.52 230.861L204.422 268.915C204.419 269.042 204.378 269.164 204.303 269.267C204.228 269.369 204.124 269.446 204.004 269.488C196.389 271.959 188.224 275.576 188.295 277.103C188.295 277.318 188.892 279.216 206.415 279.407C214.377 279.479 222.399 279.168 224.464 279.073L230.897 234.967L205.52 230.861Z" fill="#231F20"/>
<path d="M318.868 215.415L301.297 237.748L329.527 259.76C329.527 259.76 324.275 272.365 325.719 274.084C327.164 275.802 350.022 252.908 350.022 252.908L318.868 215.415Z" fill="white"/>
<path d="M325.946 274.752C325.696 274.743 325.46 274.636 325.29 274.454C323.81 272.735 327.116 264.069 328.811 259.962L300.951 238.238C300.886 238.188 300.832 238.125 300.793 238.053C300.754 237.981 300.73 237.902 300.724 237.82C300.703 237.659 300.746 237.496 300.843 237.366L318.378 214.997C318.435 214.924 318.508 214.865 318.59 214.824C318.673 214.782 318.763 214.76 318.856 214.758C319.038 214.771 319.208 214.852 319.333 214.985L350.536 252.478C350.64 252.592 350.697 252.741 350.697 252.896C350.697 253.051 350.64 253.199 350.536 253.314C345.427 258.351 328.799 274.752 325.946 274.752ZM302.156 237.677L329.909 259.318C330.012 259.402 330.086 259.517 330.121 259.645C330.155 259.774 330.148 259.91 330.1 260.034C327.474 266.337 325.719 272.293 326.113 273.523C328.214 272.926 339.244 262.78 349.199 252.872L318.88 216.429L302.156 237.677Z" fill="#231F20"/>
<path d="M227.865 243.394H227.769L206.104 240.195C205.949 240.169 205.81 240.083 205.716 239.956C205.623 239.829 205.582 239.671 205.603 239.515C205.613 239.438 205.639 239.363 205.678 239.296C205.717 239.229 205.77 239.171 205.832 239.124C205.894 239.077 205.965 239.043 206.041 239.024C206.116 239.005 206.195 239.002 206.271 239.014L227.972 242.201C228.131 242.212 228.278 242.285 228.382 242.405C228.486 242.525 228.538 242.681 228.527 242.839C228.516 242.998 228.443 243.145 228.323 243.249C228.203 243.353 228.047 243.405 227.889 243.394H227.865Z" fill="#D1D3D4"/>
<path d="M227.03 248.097H226.958L206.558 245.376C206.4 245.354 206.257 245.269 206.161 245.142C206.064 245.014 206.023 244.854 206.045 244.695C206.067 244.537 206.151 244.394 206.279 244.298C206.406 244.202 206.567 244.16 206.725 244.182L227.113 246.904C227.271 246.915 227.419 246.988 227.523 247.108C227.627 247.228 227.679 247.384 227.668 247.542C227.657 247.701 227.584 247.848 227.464 247.952C227.344 248.056 227.188 248.108 227.03 248.097V248.097Z" fill="#D1D3D4"/>
<path d="M312.066 241.795C311.933 241.789 311.804 241.743 311.696 241.664C311.573 241.565 311.494 241.422 311.477 241.265C311.459 241.109 311.503 240.952 311.601 240.828L324.039 225.036C324.082 224.962 324.14 224.898 324.209 224.848C324.279 224.799 324.358 224.765 324.442 224.748C324.526 224.732 324.612 224.734 324.695 224.754C324.778 224.774 324.856 224.811 324.923 224.864C324.991 224.917 325.046 224.983 325.085 225.059C325.125 225.135 325.147 225.218 325.152 225.303C325.156 225.389 325.142 225.474 325.111 225.553C325.08 225.633 325.032 225.705 324.97 225.764L312.544 241.568C312.485 241.638 312.412 241.695 312.33 241.734C312.248 241.773 312.158 241.794 312.066 241.795V241.795Z" fill="#D1D3D4"/>
<path d="M316.112 243.394C315.972 243.394 315.836 243.343 315.73 243.251C315.61 243.147 315.535 243 315.522 242.842C315.508 242.684 315.557 242.526 315.658 242.404L327.058 228.832C327.164 228.731 327.304 228.673 327.451 228.669C327.597 228.664 327.74 228.714 327.853 228.809C327.965 228.903 328.038 229.036 328.059 229.181C328.08 229.326 328.046 229.474 327.965 229.596L316.566 243.18C316.509 243.244 316.439 243.297 316.361 243.334C316.283 243.371 316.198 243.391 316.112 243.394V243.394Z" fill="#D1D3D4"/>
</svg>
