<svg width="351" height="256" viewBox="0 0 351 256" fill="none" xmlns="http://www.w3.org/2000/svg">
<path d="M44.2891 132.374L29.6641 144.668C64.69 128.779 99.0085 113.643 134.997 100.073L233.789 62.8439L315.891 31.9121C314.093 32.5848 307.506 29.7317 305.453 29.4533C299.051 28.6183 292.869 28.8618 287.093 31.9469C281.317 35.0319 278.047 40.3902 271.192 40.5178C262.61 40.6802 258.318 33.1763 251.383 29.8244C239.286 24.0255 231.573 37.4327 220.95 35.0899C216.079 34.0113 211.857 30.3116 206.626 29.2909C198.009 27.6182 189.087 28.6088 181.046 32.1308C173.005 35.6528 166.228 41.5394 161.614 49.0075C154.122 44.4727 144.542 44.1364 136.215 46.8851C127.887 49.6338 120.685 55.1777 114.793 61.6261C110.244 66.8078 106.172 72.3897 102.627 78.304C100.505 81.7139 98.2546 89.125 95.5407 90.6211C91.8177 92.6624 85.9259 90.4356 81.3215 93.7294C80.3009 94.4717 72.4375 105.072 74.0844 105.177C69.4365 105 64.8546 106.32 61.013 108.942C57.1714 111.565 54.2729 115.351 52.7441 119.744C52.0482 121.936 51.7002 124.255 50.5404 126.192C49.4011 127.906 47.9772 129.412 46.3304 130.646L44.2891 132.374Z" fill="white"/>
<path d="M29.6669 145.248C29.5695 145.25 29.4732 145.226 29.3877 145.18C29.3022 145.133 29.2306 145.064 29.1798 144.981C29.1022 144.863 29.0711 144.721 29.0925 144.582C29.114 144.442 29.1864 144.316 29.2958 144.227L46.0085 130.194C47.6061 129.009 48.9873 127.557 50.091 125.902C50.8052 124.54 51.3356 123.089 51.6683 121.588C51.8539 120.927 52.0279 120.254 52.2366 119.605C53.736 115.279 56.5304 111.519 60.2403 108.836C63.9503 106.153 68.396 104.677 72.9738 104.608H73.3914C74.006 101.802 80.5357 93.6715 81.0344 93.312C83.76 91.3635 86.9262 91.236 89.7097 91.1432C91.6267 91.2294 93.5392 90.8928 95.3116 90.1574C96.9121 89.2759 98.4778 85.7849 99.8696 82.7114C100.548 81.1196 101.323 79.5703 102.189 78.0722C105.733 72.1265 109.796 66.5066 114.332 61.2784C121.059 53.8672 128.331 48.8337 135.974 46.317C144.789 43.4059 154.241 44.1249 161.362 48.2074C166.085 40.789 172.933 34.9648 181.013 31.4936C189.093 28.0223 198.032 27.0649 206.664 28.746C209.38 29.3899 211.989 30.4211 214.411 31.8079C216.495 32.9897 218.72 33.9016 221.034 34.5218C225.557 35.5308 229.535 33.5244 233.792 31.4135C239.138 28.7228 244.659 25.9393 251.629 29.3027C254.126 30.6213 256.461 32.2248 258.588 34.0811C262.369 37.1429 265.906 40.054 271.207 39.8801C275.51 39.7989 278.409 37.5605 281.483 35.1017C283.144 33.7446 284.917 32.5302 286.783 31.4715C291.921 28.7228 297.87 27.9109 305.502 28.92C306.739 29.1761 307.956 29.5211 309.144 29.9522C311.359 30.6713 314.688 31.7615 315.662 31.4019C315.734 31.3677 315.812 31.3487 315.892 31.3461C315.972 31.3435 316.051 31.3574 316.125 31.387C316.199 31.4165 316.267 31.461 316.323 31.5176C316.379 31.5743 316.423 31.642 316.452 31.7164C316.48 31.7908 316.493 31.8703 316.49 31.95C316.487 32.0297 316.467 32.1079 316.432 32.1796C316.397 32.2513 316.348 32.3151 316.287 32.3669C316.226 32.4186 316.156 32.4573 316.079 32.4805L135.209 100.619C98.5242 114.444 62.9184 130.217 29.9105 145.201C29.8334 145.234 29.7504 145.249 29.6669 145.248V145.248ZM72.9622 105.815C68.6285 105.867 64.4161 107.253 60.8985 109.785C57.3809 112.317 54.7289 115.871 53.3036 119.964C53.0949 120.602 52.9209 121.24 52.7469 121.889C52.388 123.505 51.8146 125.065 51.042 126.529C49.8709 128.311 48.404 129.88 46.7044 131.168L44.6631 132.884L33.2275 142.476C65.18 128.013 99.4636 112.913 134.745 99.6213L313.157 32.353C311.997 32.0746 310.478 31.6107 308.796 31.0656C307.66 30.6589 306.497 30.3296 305.316 30.0798C297.847 29.0939 292.292 29.8478 287.316 32.5037C285.492 33.556 283.762 34.7628 282.144 36.1107C278.919 38.6507 275.869 41.0515 271.172 41.1442H270.905C265.373 41.1442 261.534 38.036 257.823 35.0205C255.773 33.2221 253.524 31.6655 251.119 30.3813C244.671 27.273 239.637 29.8014 234.302 32.4805C230.103 34.5914 225.743 36.7834 220.813 35.6932C218.411 35.0474 216.1 34.1005 213.936 32.8749C211.609 31.5438 209.107 30.5481 206.502 29.9174C198.004 28.2587 189.202 29.2294 181.27 32.7001C173.338 36.1709 166.653 41.9768 162.104 49.344C162.021 49.4726 161.891 49.5638 161.742 49.5984C161.592 49.633 161.436 49.6083 161.304 49.5296C154.415 45.3543 145.067 44.5772 136.392 47.4535C128.946 49.9123 121.836 54.8299 115.249 62.0902C110.734 67.2546 106.686 72.8085 103.152 78.6869C102.31 80.1511 101.558 81.6655 100.902 83.2218C99.3709 86.62 97.7819 90.1806 95.8451 91.2012C93.9242 92.0535 91.8325 92.4504 89.7329 92.361C86.9726 92.4654 84.1311 92.5697 81.6839 94.321C80.7329 95.0053 74.8411 103.159 74.4816 104.84C74.5526 104.899 74.6085 104.974 74.6448 105.059C74.6812 105.143 74.6967 105.236 74.6903 105.328C74.6891 105.405 74.6719 105.481 74.6396 105.551C74.6074 105.621 74.5609 105.684 74.5031 105.735C74.4452 105.787 74.3774 105.825 74.3038 105.849C74.2302 105.873 74.1525 105.881 74.0756 105.873C73.7393 105.78 73.2986 105.768 72.9158 105.768L72.9622 105.815Z" fill="#D1D3D4"/>
<path d="M252.656 128.976C269.044 123.455 285.641 118.41 302.122 113.156L349.256 98.0788C349.256 98.0788 328.159 91.4216 318.452 93.8571C317.396 86.8983 309.51 81.9576 302.678 83.6973C295.847 85.437 291.312 93.1265 292.681 100.039C284.562 96.3971 273.672 102.892 273.022 111.822C269.16 109.317 263.837 111.822 260.984 115.406C257.678 119.616 256.008 124.812 252.656 128.976Z" fill="white"/>
<path d="M252.636 129.591C252.537 129.589 252.441 129.563 252.356 129.514C252.271 129.465 252.199 129.396 252.148 129.312C252.08 129.2 252.052 129.069 252.066 128.939C252.081 128.809 252.138 128.687 252.23 128.593C253.83 126.475 255.228 124.211 256.405 121.831C257.585 119.465 258.971 117.206 260.545 115.081C263.433 111.416 268.548 109.027 272.549 110.929C272.974 108.839 273.826 106.859 275.053 105.115C276.28 103.37 277.856 101.898 279.679 100.793C281.503 99.6867 283.536 98.9705 285.651 98.6891C287.765 98.4076 289.915 98.5671 291.964 99.1574C291.141 92.1986 295.884 84.8686 302.553 83.1637C304.385 82.738 306.286 82.6996 308.133 83.0512C309.98 83.4027 311.734 84.1363 313.281 85.205C316.134 87.0251 318.161 89.889 318.93 93.1844C328.892 91.1548 348.609 97.3133 349.421 97.58C349.575 97.58 349.722 97.6411 349.831 97.7499C349.94 97.8586 350.001 98.0061 350.001 98.1599C350.001 98.3137 349.94 98.4612 349.831 98.57C349.722 98.6787 349.575 98.7398 349.421 98.7398L302.287 113.817C296.99 115.511 291.682 117.188 286.362 118.851C275.344 122.33 263.944 125.891 252.821 129.637C252.757 129.634 252.694 129.618 252.636 129.591V129.591ZM269.453 111.498C267.879 111.611 266.348 112.061 264.963 112.818C263.579 113.574 262.373 114.619 261.427 115.882C259.9 117.954 258.553 120.155 257.402 122.458C256.444 124.338 255.379 126.162 254.213 127.92C264.779 124.441 275.565 120.962 286.015 117.714C291.326 116.052 296.634 114.378 301.939 112.692L347.275 98.2179C341.998 96.6986 326.399 92.5697 318.582 94.5298C318.503 94.5487 318.421 94.5513 318.341 94.5373C318.262 94.5234 318.185 94.4932 318.118 94.4486C318.05 94.4048 317.992 94.347 317.948 94.279C317.904 94.211 317.875 94.1344 317.863 94.0543C317.582 92.4593 316.971 90.9408 316.068 89.5965C315.165 88.2521 313.991 87.1118 312.62 86.2488C311.207 85.2719 309.606 84.6002 307.918 84.2767C306.231 83.9532 304.494 83.985 302.82 84.3699C296.383 86.0168 291.906 93.3352 293.24 100.039C293.264 100.143 293.257 100.252 293.222 100.353C293.187 100.453 293.124 100.542 293.04 100.609C292.957 100.675 292.856 100.717 292.75 100.729C292.644 100.741 292.536 100.723 292.44 100.677C290.461 99.9544 288.345 99.6836 286.248 99.8839C284.151 100.084 282.125 100.751 280.319 101.835C278.512 102.918 276.971 104.392 275.807 106.149C274.644 107.905 273.887 109.899 273.593 111.985C273.582 112.085 273.546 112.18 273.49 112.263C273.433 112.346 273.357 112.414 273.268 112.46C273.182 112.511 273.084 112.538 272.984 112.538C272.884 112.538 272.786 112.511 272.7 112.46C271.736 111.827 270.606 111.492 269.453 111.498V111.498Z" fill="#D1D3D4"/>
<path d="M2.31392 70.6958L0.574219 72.737C2.71985 70.2087 8.69282 68.7937 11.7547 67.2976C18.064 64.2241 151.893 0.597534 151.893 0.597534C151.893 0.597534 133 5.58467 123.269 5.57307C119.57 5.57307 115.823 5.32951 112.182 6.03699C108.54 6.74447 104.933 8.57695 103.054 11.836C99.4007 5.73544 90.4819 4.54085 84.0914 7.67231C77.7009 10.8038 73.4676 17.0667 70.313 23.4456C65.6738 21.8683 61.0346 19.7574 55.9198 20.9752C52.1333 21.9243 48.6219 23.7475 45.6672 26.2987C40.1814 30.9959 36.7136 37.7111 34.9623 44.7163C34.8105 45.6091 34.4619 46.457 33.9416 47.1983C33.0532 48.0298 31.9401 48.5823 30.7406 48.7872C19.0614 52.1158 10.2933 61.4058 2.31392 70.6958Z" fill="white"/>
<path d="M0.575684 73.317C0.439278 73.3166 0.307549 73.2672 0.204549 73.1778C0.0877605 73.0768 0.0151048 72.9341 0.00210216 72.7802C-0.0109005 72.6264 0.0367835 72.4735 0.134963 72.3543L1.82827 70.3247C9.83088 61.0463 18.6338 51.6287 30.5333 48.1725L30.7305 48.1145C31.749 47.936 32.6949 47.4691 33.456 46.7692C33.8995 46.1263 34.1964 45.3938 34.3258 44.6235C35.7176 39.0565 38.7215 31.3902 45.2396 25.8C48.2463 23.194 51.8209 21.3272 55.6778 20.3489C60.2474 19.2471 64.469 20.7433 68.5631 22.193L69.9201 22.6685C73.9446 14.6891 78.3402 9.72518 83.7333 7.09244C89.857 4.10016 98.8107 4.91202 102.951 10.7226C105.191 7.89925 108.413 6.02341 111.974 5.46872C114.934 4.99688 117.934 4.82976 120.928 4.97001H123.248C132.804 4.97001 151.5 0.0640589 151.686 0.017667C151.824 -0.0172443 151.97 -4.57291e-05 152.097 0.0659845C152.223 0.132015 152.321 0.242251 152.371 0.375645C152.421 0.509038 152.42 0.65625 152.369 0.789173C152.317 0.922097 152.219 1.03142 152.092 1.09628C150.747 1.73417 18.1582 64.7577 11.9533 67.7847C10.9559 68.2718 9.63372 68.7474 8.35794 69.2345C5.53963 70.2783 2.33858 71.4729 0.970016 73.085C0.923948 73.1489 0.865108 73.2025 0.797226 73.2424C0.729343 73.2824 0.653898 73.3077 0.575684 73.317V73.317ZM59.018 21.126C58.0217 21.1228 57.0288 21.2396 56.0605 21.474C52.3579 22.3932 48.9246 24.1735 46.0398 26.6699C39.7537 32.0513 36.8542 39.4972 35.5204 44.7859C35.3449 45.7669 34.9482 46.695 34.3606 47.4998C33.4585 48.3878 32.3114 48.9856 31.0668 49.2164H30.8696C19.782 52.4406 11.3734 61.0231 3.76513 69.8028C5.0989 69.1649 6.58345 68.643 7.98681 68.0979C9.39016 67.5528 10.5268 67.1584 11.4662 66.7061C16.9753 64.0154 121.798 14.1788 146.455 2.45324C140.111 3.93779 129.777 6.08342 123.259 6.08342C122.494 6.08342 121.74 6.08342 120.94 6.08342C118.024 5.94535 115.102 6.10468 112.218 6.55893C108.24 7.336 105.062 9.33085 103.473 12.0216C103.419 12.1057 103.345 12.1758 103.258 12.2262C103.172 12.2765 103.074 12.3058 102.974 12.3115C102.874 12.3121 102.776 12.2868 102.688 12.238C102.601 12.1892 102.528 12.1187 102.476 12.0332C98.9151 6.08342 90.1934 5.19037 84.2668 8.08987C79.0129 10.653 74.7217 15.5822 70.7551 23.5964C70.6944 23.7241 70.5883 23.8245 70.4575 23.8781C70.3266 23.9317 70.1805 23.9347 70.0477 23.8863L68.2848 23.3528C65.344 22.0936 62.2103 21.3445 59.018 21.1376V21.126Z" fill="#D1D3D4"/>
<path d="M336.698 255.452H10.3768C10.223 255.452 10.0755 255.391 9.96672 255.282C9.85797 255.173 9.79688 255.026 9.79688 254.872C9.79688 254.718 9.85797 254.571 9.96672 254.462C10.0755 254.353 10.223 254.292 10.3768 254.292H336.698C336.852 254.292 336.999 254.353 337.108 254.462C337.217 254.571 337.278 254.718 337.278 254.872C337.278 255.026 337.217 255.173 337.108 255.282C336.999 255.391 336.852 255.452 336.698 255.452Z" fill="#231F20"/>
<path d="M278.812 61.5103L280.506 62.8092L282.907 105.153L278.812 102.324V61.5103Z" fill="#1E71B9"/>
<path d="M282.893 105.698C282.777 105.696 282.664 105.66 282.568 105.594L278.486 102.764C278.409 102.711 278.347 102.64 278.305 102.557C278.262 102.474 278.241 102.382 278.242 102.289V61.5101C278.24 61.4024 278.268 61.2961 278.323 61.2037C278.379 61.1113 278.459 61.0366 278.556 60.9882C278.648 60.9319 278.754 60.9021 278.863 60.9021C278.971 60.9021 279.078 60.9319 279.17 60.9882L280.864 62.2988C280.928 62.3513 280.981 62.4165 281.018 62.4904C281.056 62.5642 281.079 62.6451 281.084 62.7279L283.473 105.061C283.481 105.17 283.458 105.279 283.407 105.375C283.355 105.471 283.278 105.551 283.183 105.606C283.096 105.66 282.996 105.692 282.893 105.698V105.698ZM279.414 101.987L282.267 103.97L279.947 63.0759L279.414 62.6583V101.987Z" fill="#231F20"/>
<path d="M274.301 104.4L277.78 62.1597L278.812 61.5103V102.324L274.301 104.4Z" fill="#231F20"/>
<path d="M274.299 104.979C274.179 104.979 274.062 104.942 273.963 104.875C273.883 104.812 273.819 104.731 273.776 104.638C273.734 104.545 273.714 104.443 273.72 104.341L277.199 62.1131C277.203 62.0231 277.229 61.9355 277.276 61.8585C277.322 61.7814 277.388 61.7174 277.466 61.6724L278.498 61.0113C278.588 60.9605 278.69 60.9338 278.794 60.9338C278.897 60.9338 278.999 60.9605 279.089 61.0113C279.181 61.0614 279.257 61.1352 279.31 61.2251C279.363 61.3149 279.391 61.4173 279.391 61.5216V102.335C279.39 102.448 279.357 102.558 279.295 102.653C279.233 102.747 279.146 102.822 279.043 102.868L274.531 104.933C274.458 104.963 274.379 104.979 274.299 104.979V104.979ZM278.243 63.7137L274.961 103.46L278.243 101.952V63.7137Z" fill="#231F20"/>
<path d="M278.812 104.4L293.461 114.084V134.334L278.812 128.674V104.4Z" fill="#1E71B9"/>
<path d="M293.459 134.914C293.39 134.925 293.319 134.925 293.25 134.914L278.602 129.254C278.493 129.211 278.4 129.136 278.336 129.038C278.272 128.941 278.239 128.826 278.242 128.709V104.399C278.241 104.295 278.268 104.192 278.321 104.102C278.375 104.012 278.452 103.938 278.544 103.889C278.633 103.835 278.735 103.806 278.84 103.806C278.944 103.806 279.046 103.835 279.135 103.889L293.784 113.573C293.863 113.627 293.928 113.7 293.973 113.785C294.017 113.87 294.04 113.965 294.039 114.061V134.311C294.038 134.405 294.014 134.497 293.97 134.58C293.926 134.663 293.862 134.734 293.784 134.786C293.692 134.863 293.578 134.908 293.459 134.914V134.914ZM279.402 128.268L292.937 133.534V114.397L279.46 105.478L279.402 128.268Z" fill="#231F20"/>
<path d="M263.953 134.334V113.319L278.81 104.4V128.674L263.953 134.334Z" fill="#231F20"/>
<path d="M263.943 134.914C263.827 134.912 263.714 134.875 263.618 134.81C263.543 134.755 263.48 134.684 263.436 134.601C263.392 134.519 263.367 134.427 263.363 134.334V113.318C263.366 113.218 263.394 113.119 263.445 113.032C263.495 112.945 263.567 112.872 263.653 112.82L278.51 103.901C278.597 103.846 278.698 103.817 278.8 103.817C278.903 103.817 279.003 103.846 279.09 103.901C279.181 103.952 279.257 104.026 279.309 104.116C279.362 104.205 279.391 104.307 279.392 104.411V128.663C279.392 128.782 279.355 128.898 279.286 128.996C279.218 129.093 279.121 129.167 279.009 129.208L264.152 134.868C264.085 134.894 264.015 134.91 263.943 134.914V134.914ZM264.523 113.643V133.534L278.232 128.315V105.467L264.523 113.643Z" fill="#231F20"/>
<path d="M300.534 254.002V139.878L278.324 130.089V254.002H300.534Z" fill="#1E71B9"/>
<path d="M300.536 254.582H278.326C278.172 254.582 278.025 254.521 277.916 254.412C277.807 254.303 277.746 254.156 277.746 254.002V130.054C277.746 129.957 277.771 129.862 277.817 129.777C277.864 129.692 277.931 129.62 278.013 129.567C278.097 129.518 278.193 129.493 278.291 129.493C278.389 129.493 278.485 129.518 278.57 129.567L300.768 139.333C300.871 139.379 300.958 139.454 301.02 139.549C301.082 139.643 301.115 139.753 301.116 139.866V253.991C301.118 254.068 301.104 254.144 301.075 254.216C301.047 254.288 301.004 254.353 300.95 254.408C300.896 254.463 300.832 254.507 300.761 254.537C300.69 254.567 300.613 254.582 300.536 254.582ZM278.906 253.422H299.956V140.261L278.906 130.982V253.422Z" fill="#231F20"/>
<path d="M278.321 254.002V130.089L256.285 136.781V254.002H278.321Z" fill="#231F20"/>
<path d="M278.327 254.582H256.291C256.137 254.582 255.99 254.521 255.881 254.412C255.772 254.303 255.711 254.156 255.711 254.002V136.781C255.71 136.657 255.749 136.536 255.822 136.436C255.895 136.336 255.999 136.262 256.117 136.225L278.153 129.532C278.238 129.505 278.329 129.498 278.418 129.512C278.507 129.526 278.591 129.561 278.663 129.614C278.736 129.669 278.795 129.741 278.836 129.824C278.876 129.907 278.896 129.997 278.895 130.089V254.002C278.895 254.154 278.836 254.3 278.73 254.408C278.623 254.517 278.479 254.579 278.327 254.582ZM256.871 253.422H277.747V130.866L256.871 137.21V253.422Z" fill="#231F20"/>
<path d="M254.816 135.471L278.813 124.696V130.089L254.816 139.878V135.471Z" fill="#231F20"/>
<path d="M254.818 140.492C254.704 140.49 254.592 140.458 254.493 140.4C254.415 140.345 254.35 140.272 254.306 140.188C254.261 140.103 254.238 140.008 254.238 139.913V135.505C254.241 135.393 254.275 135.283 254.336 135.189C254.398 135.095 254.484 135.019 254.586 134.972L278.582 124.197C278.668 124.152 278.764 124.128 278.861 124.128C278.958 124.128 279.054 124.152 279.139 124.197C279.221 124.25 279.288 124.322 279.335 124.407C279.381 124.492 279.406 124.587 279.406 124.684V130.054C279.403 130.17 279.366 130.282 279.3 130.377C279.234 130.471 279.142 130.545 279.035 130.588L255.039 140.376C254.976 140.433 254.9 140.473 254.818 140.492V140.492ZM255.398 135.853V139.031L278.246 129.753V125.647L255.398 135.853Z" fill="#231F20"/>
<path d="M278.812 124.696L300.536 135.795V139.878L278.812 130.089V124.696Z" fill="white"/>
<path d="M300.534 140.493C300.453 140.509 300.37 140.509 300.29 140.493L278.579 130.692C278.478 130.647 278.393 130.574 278.333 130.481C278.273 130.389 278.242 130.281 278.242 130.17V124.777C278.243 124.679 278.267 124.582 278.314 124.495C278.36 124.408 278.427 124.334 278.509 124.279C278.597 124.233 278.694 124.209 278.793 124.209C278.892 124.209 278.99 124.233 279.077 124.279L300.8 135.389C300.895 135.437 300.974 135.51 301.03 135.6C301.085 135.69 301.114 135.794 301.113 135.9V139.982C301.113 140.079 301.089 140.175 301.042 140.26C300.996 140.345 300.928 140.417 300.847 140.469C300.746 140.504 300.638 140.512 300.534 140.493V140.493ZM279.402 129.741L299.954 139.02V136.19L279.402 125.682V129.741Z" fill="#231F20"/>
<path d="M278.81 104.4L262.109 114.409V110.929L278.81 100.7V104.4Z" fill="#231F20"/>
<path d="M262.111 114.977C262.009 114.979 261.908 114.951 261.821 114.896C261.733 114.846 261.659 114.773 261.608 114.686C261.557 114.598 261.531 114.498 261.531 114.397V110.917C261.531 110.817 261.556 110.719 261.605 110.631C261.654 110.544 261.724 110.471 261.81 110.419L278.511 100.189C278.599 100.137 278.699 100.108 278.802 100.107C278.904 100.105 279.006 100.13 279.096 100.179C279.186 100.228 279.262 100.3 279.316 100.387C279.37 100.474 279.4 100.574 279.404 100.676V104.388C279.401 104.487 279.373 104.584 279.322 104.669C279.272 104.754 279.2 104.825 279.114 104.875L262.413 114.896C262.322 114.951 262.217 114.979 262.111 114.977V114.977ZM262.691 111.242V113.376L278.244 104.098V101.778L262.691 111.242Z" fill="#231F20"/>
<path d="M278.812 100.7L294.435 111.254V114.409L278.812 104.4V100.7Z" fill="white"/>
<path d="M294.433 114.977C294.323 114.973 294.215 114.941 294.12 114.884L278.509 104.875C278.426 104.824 278.357 104.753 278.311 104.667C278.264 104.582 278.24 104.485 278.242 104.388V100.677C278.243 100.572 278.272 100.471 278.325 100.381C278.378 100.291 278.453 100.217 278.544 100.166C278.636 100.115 278.74 100.089 278.845 100.089C278.951 100.089 279.055 100.115 279.147 100.166L294.758 110.72C294.837 110.775 294.901 110.848 294.946 110.933C294.99 111.017 295.013 111.112 295.013 111.208V114.362C295.012 114.466 294.984 114.568 294.931 114.658C294.878 114.747 294.802 114.821 294.711 114.873C294.63 114.932 294.534 114.968 294.433 114.977V114.977ZM279.356 104.063L293.807 113.342V111.544L279.356 101.778V104.063Z" fill="#231F20"/>
<path d="M279.529 254.002V170.902L241.43 161.102V254.002H279.529Z" fill="white"/>
<path d="M279.531 254.582H241.431C241.278 254.582 241.13 254.521 241.021 254.412C240.913 254.303 240.852 254.156 240.852 254.002V161.102C240.851 161.015 240.871 160.929 240.909 160.85C240.947 160.772 241.003 160.703 241.072 160.65C241.141 160.594 241.222 160.555 241.309 160.537C241.395 160.519 241.485 160.522 241.571 160.545L279.67 170.346C279.796 170.375 279.908 170.446 279.988 170.547C280.068 170.648 280.111 170.773 280.111 170.902V254.002C280.111 254.156 280.05 254.303 279.941 254.412C279.832 254.521 279.685 254.582 279.531 254.582ZM242.011 253.422H278.951V171.355L242.011 161.856V253.422Z" fill="#231F20"/>
<path d="M241.432 254.002V158.898L201.152 171.993V254.002H241.432Z" fill="#231F20"/>
<path d="M241.434 254.582H201.154C201 254.582 200.853 254.521 200.744 254.412C200.635 254.303 200.574 254.156 200.574 254.002V171.993C200.573 171.869 200.613 171.748 200.686 171.648C200.759 171.547 200.862 171.473 200.98 171.436L241.248 158.353C241.335 158.324 241.428 158.316 241.519 158.329C241.609 158.343 241.696 158.377 241.77 158.431C241.845 158.484 241.906 158.554 241.948 158.635C241.991 158.717 242.013 158.807 242.014 158.899V254.002C242.014 254.078 241.999 254.154 241.97 254.224C241.941 254.294 241.898 254.358 241.844 254.412C241.79 254.466 241.726 254.509 241.656 254.538C241.586 254.567 241.51 254.582 241.434 254.582ZM201.734 253.422H240.854V159.699L201.734 172.457V253.422Z" fill="#231F20"/>
<path d="M271.468 156.37V167.632L241.43 158.898V146.407L271.468 156.37Z" fill="white"/>
<path d="M271.47 168.212C271.417 168.222 271.362 168.222 271.308 168.212L241.269 159.478C241.149 159.443 241.043 159.37 240.968 159.27C240.892 159.169 240.852 159.047 240.852 158.922V146.408C240.852 146.316 240.874 146.227 240.917 146.146C240.959 146.065 241.02 145.996 241.095 145.944C241.169 145.888 241.255 145.851 241.346 145.837C241.437 145.823 241.53 145.832 241.617 145.862L271.656 155.825C271.771 155.862 271.871 155.935 271.942 156.033C272.013 156.131 272.051 156.249 272.05 156.37V167.632C272.052 167.722 272.032 167.812 271.992 167.892C271.951 167.973 271.892 168.043 271.818 168.096C271.72 168.175 271.596 168.216 271.47 168.212V168.212ZM242.011 158.469L270.89 166.866V156.788L242.011 147.219V158.469Z" fill="#231F20"/>
<path d="M198.324 175.472L241.434 163.062V155.721L198.324 169.267V175.472Z" fill="#231F20"/>
<path d="M198.322 176.052C198.197 176.053 198.074 176.012 197.974 175.936C197.903 175.881 197.845 175.811 197.805 175.731C197.764 175.65 197.743 175.562 197.742 175.472V169.267C197.74 169.144 197.779 169.024 197.852 168.925C197.926 168.827 198.03 168.755 198.148 168.722L241.258 155.164C241.343 155.136 241.434 155.129 241.523 155.143C241.612 155.157 241.696 155.192 241.768 155.245C241.843 155.3 241.903 155.372 241.946 155.454C241.988 155.537 242.01 155.628 242.012 155.721V163.062C242.012 163.188 241.971 163.31 241.896 163.41C241.821 163.51 241.715 163.584 241.594 163.619L198.485 176.029C198.433 176.048 198.377 176.056 198.322 176.052V176.052ZM198.902 169.696V174.706L240.852 162.633V156.509L198.902 169.696Z" fill="#231F20"/>
<path d="M207.473 168.455V160.128L241.432 149.353V155.721L207.473 168.455Z" fill="#231F20"/>
<path d="M207.474 169.035C207.354 169.035 207.237 168.998 207.138 168.931C207.063 168.876 207.002 168.805 206.96 168.722C206.917 168.639 206.895 168.548 206.895 168.455V160.128C206.894 160.004 206.933 159.883 207.006 159.783C207.079 159.682 207.182 159.608 207.3 159.571L241.259 148.797C241.345 148.769 241.436 148.762 241.524 148.776C241.613 148.79 241.697 148.825 241.77 148.878C241.844 148.933 241.905 149.005 241.947 149.087C241.989 149.17 242.012 149.261 242.013 149.353V155.721C242.012 155.839 241.974 155.955 241.906 156.052C241.838 156.149 241.742 156.224 241.631 156.266L207.672 169.024C207.607 169.038 207.54 169.042 207.474 169.035V169.035ZM208.054 160.545V167.62L240.853 155.315V150.142L208.054 160.545Z" fill="#231F20"/>
<path d="M241.429 149.353L205.348 161.102V155.234L241.429 142.986V149.353Z" fill="#231F20"/>
<path d="M205.349 161.682C205.226 161.683 205.104 161.647 205.002 161.578C204.929 161.522 204.87 161.45 204.829 161.367C204.789 161.285 204.769 161.194 204.77 161.102V155.234C204.768 155.111 204.805 154.991 204.876 154.891C204.947 154.791 205.048 154.716 205.164 154.677L241.245 142.43C241.333 142.403 241.425 142.396 241.516 142.41C241.606 142.424 241.692 142.459 241.767 142.511C241.842 142.565 241.903 142.637 241.946 142.719C241.988 142.802 242.01 142.893 242.011 142.986V149.354C242.009 149.476 241.969 149.594 241.896 149.692C241.823 149.79 241.721 149.862 241.605 149.899L205.523 161.659C205.468 161.678 205.408 161.686 205.349 161.682V161.682ZM205.929 155.64V160.279L240.851 148.901V143.763L205.929 155.64Z" fill="#231F20"/>
<path d="M241.43 155.721L281.106 168.455V175.472L241.43 163.062V155.721Z" fill="#1E71B9"/>
<path d="M281.108 176.052H280.934L241.258 163.642C241.139 163.605 241.036 163.531 240.963 163.431C240.89 163.33 240.851 163.209 240.852 163.085V155.744C240.853 155.652 240.875 155.563 240.915 155.48C240.955 155.398 241.013 155.326 241.084 155.268C241.159 155.216 241.245 155.182 241.335 155.168C241.426 155.154 241.518 155.16 241.605 155.187L281.282 167.945C281.4 167.982 281.504 168.056 281.577 168.156C281.65 168.257 281.689 168.378 281.688 168.502V175.46C281.687 175.553 281.664 175.644 281.622 175.727C281.58 175.809 281.519 175.881 281.445 175.936C281.347 176.009 281.23 176.049 281.108 176.052ZM242.011 162.645L280.528 174.683V168.884L242.011 156.521V162.645Z" fill="#231F20"/>
<path d="M241.43 149.353L273.916 158.899V154.12L241.43 142.986V149.353Z" fill="#1E71B9"/>
<path d="M273.918 159.479C273.864 159.489 273.809 159.489 273.755 159.479L241.281 149.933C241.161 149.897 241.057 149.823 240.982 149.723C240.907 149.623 240.865 149.502 240.863 149.377V143.009C240.864 142.917 240.886 142.825 240.928 142.743C240.971 142.66 241.032 142.589 241.107 142.534C241.182 142.482 241.268 142.447 241.358 142.433C241.449 142.419 241.541 142.426 241.629 142.453L274.103 153.598C274.215 153.639 274.312 153.713 274.381 153.811C274.449 153.908 274.486 154.024 274.486 154.144V158.922C274.488 159.012 274.468 159.102 274.427 159.183C274.387 159.263 274.327 159.333 274.254 159.386C274.156 159.454 274.037 159.487 273.918 159.479V159.479ZM242.011 148.913L273.326 158.191V154.596L242.011 143.856V148.913Z" fill="#231F20"/>
<path d="M216.392 254.002V84.0452L205.838 77.3067L206.383 34.4057L180.253 13.0654L176.391 66.2422L186.214 254.002H216.392Z" fill="#1E71B9"/>
<path d="M216.394 254.582H186.239C186.09 254.585 185.946 254.53 185.838 254.428C185.729 254.326 185.665 254.186 185.659 254.037L175.801 66.2654L179.675 13.0306C179.682 12.9237 179.718 12.8209 179.779 12.7331C179.841 12.6453 179.925 12.5757 180.022 12.5319C180.12 12.4921 180.227 12.4797 180.331 12.496C180.435 12.5124 180.533 12.5568 180.614 12.6247L206.733 33.9534C206.8 34.0079 206.855 34.0767 206.893 34.1549C206.931 34.2331 206.952 34.3187 206.953 34.4057L206.419 76.9935L216.695 83.5464C216.777 83.6014 216.844 83.6756 216.891 83.7625C216.937 83.8495 216.962 83.9465 216.962 84.0451V254.002C216.962 254.154 216.903 254.3 216.796 254.408C216.69 254.517 216.546 254.579 216.394 254.582ZM186.761 253.422H215.814V84.3582L205.526 77.8634C205.446 77.807 205.38 77.7325 205.334 77.6458C205.287 77.5592 205.262 77.4629 205.26 77.3647L205.793 34.7304L180.753 14.2252L176.961 66.2654L186.761 253.422Z" fill="#231F20"/>
<path d="M186.356 254.002V64.8853L126.707 81.8647V254.002H186.356Z" fill="#231F20"/>
<path d="M186.354 254.582H126.705C126.551 254.582 126.404 254.521 126.295 254.412C126.186 254.304 126.125 254.156 126.125 254.002V81.8649C126.121 81.7385 126.16 81.6145 126.236 81.5133C126.312 81.4121 126.42 81.3398 126.543 81.3082L186.238 64.3287C186.324 64.3006 186.415 64.2944 186.505 64.3106C186.594 64.3267 186.677 64.3649 186.748 64.4215C186.819 64.4762 186.877 64.5463 186.918 64.6267C186.958 64.7071 186.979 64.7956 186.98 64.8854V254.002C186.98 254.083 186.964 254.162 186.932 254.235C186.9 254.309 186.853 254.375 186.794 254.43C186.735 254.484 186.666 254.526 186.59 254.552C186.514 254.578 186.434 254.589 186.354 254.582V254.582ZM127.285 253.422H185.774V65.6509L127.285 82.3056V253.422Z" fill="#231F20"/>
<path d="M174.452 254.002V141.397L136.736 122.249L124.488 129.115V254.002H174.452Z" fill="white"/>
<path d="M174.45 254.582H124.486C124.332 254.582 124.185 254.521 124.076 254.412C123.967 254.303 123.906 254.156 123.906 254.002V129.115C123.907 129.011 123.936 128.909 123.988 128.819C124.041 128.73 124.117 128.655 124.208 128.604L136.455 121.738C136.54 121.696 136.633 121.673 136.728 121.673C136.823 121.673 136.916 121.696 137 121.738L174.717 140.898C174.812 140.945 174.893 141.017 174.948 141.108C175.004 141.198 175.032 141.303 175.03 141.409V254.014C175.027 254.165 174.965 254.31 174.856 254.416C174.748 254.522 174.602 254.582 174.45 254.582V254.582ZM125.066 253.422H173.87V141.757L136.757 122.898L125.078 129.451L125.066 253.422Z" fill="#231F20"/>
<path d="M131.018 254.002V126.83L94.4492 132.374V254.002H131.018Z" fill="#231F20"/>
<path d="M131.019 254.582H94.451C94.2972 254.582 94.1497 254.521 94.0409 254.412C93.9322 254.303 93.8711 254.156 93.8711 254.002V132.374C93.8716 132.236 93.9207 132.102 94.0097 131.996C94.0987 131.89 94.222 131.818 94.3582 131.794L130.938 126.262C131.02 126.248 131.104 126.253 131.184 126.275C131.264 126.298 131.339 126.337 131.402 126.392C131.465 126.446 131.515 126.513 131.549 126.589C131.583 126.665 131.6 126.747 131.599 126.83V254.002C131.599 254.156 131.538 254.303 131.43 254.412C131.321 254.521 131.173 254.582 131.019 254.582ZM95.0657 253.422H130.474V127.503L95.0657 132.873V253.422Z" fill="#231F20"/>
<path d="M91.1797 137.918L134.394 126.494V118.329L91.1797 131.063V137.918Z" fill="#231F20"/>
<path d="M91.1307 138.498C91.0048 138.5 90.8818 138.46 90.7827 138.382C90.712 138.327 90.6545 138.256 90.6143 138.176C90.5742 138.096 90.5525 138.008 90.5508 137.918V131.063C90.5508 130.938 90.5915 130.816 90.6668 130.716C90.742 130.615 90.8479 130.542 90.9683 130.507L134.182 117.749C134.269 117.723 134.36 117.718 134.449 117.734C134.538 117.75 134.621 117.787 134.693 117.842C134.766 117.894 134.826 117.964 134.866 118.045C134.906 118.126 134.927 118.215 134.925 118.306V126.424C134.924 126.551 134.882 126.675 134.804 126.775C134.727 126.876 134.618 126.948 134.496 126.981L91.2815 138.417L91.1307 138.498ZM91.7106 131.539V137.21L133.765 126.088V119.129L91.7106 131.539Z" fill="#231F20"/>
<path d="M134.391 126.494L177.396 142.487V134.496L134.391 118.329V126.494Z" fill="#1E71B9"/>
<path d="M177.398 143.067C177.329 143.079 177.258 143.079 177.189 143.067L134.195 127.039C134.084 126.997 133.988 126.923 133.92 126.826C133.852 126.728 133.814 126.613 133.812 126.494V118.375C133.814 118.282 133.839 118.19 133.883 118.108C133.927 118.025 133.991 117.955 134.068 117.901C134.145 117.848 134.233 117.814 134.326 117.802C134.419 117.789 134.513 117.799 134.601 117.83L177.595 133.998C177.707 134.038 177.804 134.112 177.872 134.21C177.941 134.308 177.978 134.424 177.978 134.543V142.534C177.977 142.628 177.953 142.72 177.909 142.803C177.864 142.886 177.8 142.957 177.722 143.009C177.623 143.062 177.509 143.082 177.398 143.067V143.067ZM134.972 126.088L176.818 141.653V134.891L134.972 119.164V126.088Z" fill="#231F20"/>
<path d="M139.461 251.926C139.309 251.926 139.164 251.867 139.055 251.76C138.947 251.654 138.884 251.509 138.881 251.358C138.441 212.841 138.441 173.466 138.881 134.322C138.881 134.169 138.942 134.021 139.051 133.912C139.16 133.804 139.307 133.742 139.461 133.742C139.615 133.742 139.763 133.804 139.871 133.912C139.98 134.021 140.041 134.169 140.041 134.322C139.6 173.454 139.6 212.829 140.041 251.334C140.041 251.486 139.982 251.632 139.875 251.74C139.769 251.849 139.625 251.911 139.473 251.914L139.461 251.926Z" fill="#D1D3D4"/>
<path d="M148.823 251.717C148.669 251.717 148.522 251.656 148.413 251.547C148.304 251.439 148.243 251.291 148.243 251.137C148.023 212.504 148.023 175.113 148.243 136.839C148.243 136.685 148.304 136.538 148.413 136.429C148.522 136.32 148.669 136.259 148.823 136.259C148.976 136.262 149.122 136.324 149.23 136.432C149.338 136.541 149.4 136.686 149.403 136.839C149.183 175.113 149.183 212.493 149.403 251.137C149.4 251.29 149.338 251.436 149.23 251.544C149.122 251.652 148.976 251.714 148.823 251.717V251.717Z" fill="#D1D3D4"/>
<path d="M158.17 251.972C158.016 251.972 157.868 251.911 157.76 251.802C157.651 251.694 157.59 251.546 157.59 251.392V139.333C157.59 139.179 157.651 139.031 157.76 138.923C157.868 138.814 158.016 138.753 158.17 138.753C158.323 138.756 158.468 138.818 158.577 138.926C158.685 139.034 158.747 139.18 158.75 139.333V251.381C158.751 251.458 158.737 251.535 158.709 251.606C158.68 251.678 158.638 251.743 158.584 251.798C158.53 251.853 158.465 251.897 158.394 251.927C158.323 251.957 158.247 251.972 158.17 251.972Z" fill="#D1D3D4"/>
<path d="M167.513 251.833C167.36 251.833 167.212 251.772 167.103 251.663C166.995 251.555 166.934 251.407 166.934 251.253C167.166 215.52 167.166 178.731 166.934 141.919C166.934 141.765 166.995 141.618 167.103 141.509C167.212 141.4 167.36 141.339 167.513 141.339C167.667 141.339 167.815 141.4 167.924 141.509C168.032 141.618 168.093 141.765 168.093 141.919C168.325 178.731 168.325 215.52 168.093 251.253C168.093 251.407 168.032 251.555 167.924 251.663C167.815 251.772 167.667 251.833 167.513 251.833Z" fill="#D1D3D4"/>
<path d="M69.1459 254.002V188.323L45.6367 194.203V254.002H69.1459Z" fill="#231F20"/>
<path d="M69.0973 254.582H45.6346C45.4808 254.582 45.3333 254.521 45.2245 254.412C45.1158 254.303 45.0547 254.156 45.0547 254.002V194.191C45.0554 194.064 45.0978 193.941 45.1753 193.84C45.2528 193.74 45.3612 193.667 45.4838 193.634L69.0045 187.754C69.0904 187.733 69.18 187.732 69.2664 187.75C69.3529 187.769 69.4339 187.807 69.5033 187.862C69.5727 187.917 69.6286 187.987 69.6668 188.067C69.705 188.147 69.7244 188.234 69.7236 188.323V254.002C69.7239 254.082 69.7075 254.162 69.6755 254.235C69.6435 254.309 69.5966 254.375 69.5377 254.429C69.4789 254.484 69.4093 254.526 69.3335 254.552C69.2577 254.578 69.1773 254.588 69.0973 254.582ZM46.1681 253.422H68.5174V189.065L46.2145 194.655L46.1681 253.422Z" fill="#231F20"/>
<path d="M118.564 254.002V194.411L69.1445 188.323V254.002H118.564Z" fill="white"/>
<path d="M118.561 254.582H69.0955C68.9417 254.582 68.7942 254.521 68.6855 254.412C68.5767 254.304 68.5156 254.156 68.5156 254.002V188.323C68.515 188.24 68.532 188.159 68.5654 188.084C68.5988 188.008 68.6478 187.941 68.7093 187.886C68.7708 187.831 68.8432 187.79 68.9218 187.765C69.0004 187.741 69.0833 187.733 69.1651 187.743L118.631 193.844C118.77 193.86 118.899 193.927 118.992 194.032C119.086 194.136 119.139 194.271 119.141 194.412V254.002C119.141 254.156 119.08 254.304 118.971 254.412C118.862 254.521 118.715 254.582 118.561 254.582ZM69.7218 253.422H117.981V194.922L69.7218 188.972V253.422Z" fill="#231F20"/>
<path d="M43.2344 194.957V190.387L69.1443 182.767V188.323L43.2344 194.957Z" fill="#231F20"/>
<path d="M43.2323 195.537C43.1028 195.539 42.9763 195.498 42.8727 195.421C42.8035 195.365 42.7477 195.294 42.7096 195.214C42.6714 195.134 42.6519 195.046 42.6524 194.957V190.364C42.6524 190.238 42.6931 190.116 42.7683 190.016C42.8436 189.916 42.9494 189.842 43.0699 189.807L68.9798 182.245C69.0665 182.223 69.1571 182.219 69.2452 182.235C69.3334 182.251 69.4169 182.286 69.4901 182.338C69.5615 182.393 69.6195 182.463 69.6597 182.543C69.6998 182.624 69.7212 182.712 69.7221 182.802V188.357C69.7188 188.485 69.674 188.609 69.5945 188.709C69.5151 188.81 69.4052 188.882 69.2814 188.914L43.383 195.56L43.2323 195.537ZM43.8122 190.816V194.214L68.5623 187.87V183.544L43.8122 190.816Z" fill="#231F20"/>
<path d="M69.1445 182.767L120.906 190.735V194.655L69.1445 188.323V182.767Z" fill="#1E71B9"/>
<path d="M120.905 195.235H120.835L69.0963 188.891C68.9568 188.874 68.8282 188.807 68.7343 188.703C68.6405 188.598 68.5878 188.463 68.586 188.323V182.767C68.5852 182.684 68.6025 182.601 68.6365 182.525C68.6705 182.449 68.7205 182.381 68.7831 182.326C68.8451 182.27 68.9193 182.229 68.9999 182.207C69.0805 182.185 69.1651 182.182 69.247 182.199L121.009 190.167C121.147 190.189 121.273 190.259 121.365 190.365C121.456 190.471 121.507 190.606 121.508 190.747V194.655C121.506 194.738 121.487 194.82 121.453 194.895C121.419 194.971 121.371 195.039 121.31 195.096C121.198 195.192 121.053 195.242 120.905 195.235ZM69.7226 187.801L120.325 194.006V191.234L69.7226 183.405V187.801Z" fill="#231F20"/>
<path d="M112.603 202.333H112.533L78.0058 198.262C77.8538 198.245 77.7149 198.168 77.6193 198.048C77.5237 197.929 77.4792 197.776 77.4955 197.624C77.5027 197.548 77.525 197.475 77.5612 197.408C77.5974 197.341 77.6468 197.282 77.7063 197.234C77.7658 197.186 77.8343 197.151 77.9076 197.131C77.981 197.11 78.0578 197.104 78.1334 197.114L112.672 201.185C112.826 201.194 112.97 201.264 113.072 201.379C113.174 201.495 113.227 201.646 113.217 201.8C113.208 201.953 113.138 202.097 113.023 202.199C112.908 202.302 112.756 202.354 112.603 202.345V202.333Z" fill="#D1D3D4"/>
<path d="M112.603 211.322L78.0758 207.9C78 207.894 77.9262 207.874 77.8586 207.839C77.7911 207.804 77.7312 207.756 77.6825 207.697C77.6338 207.639 77.5974 207.571 77.5753 207.499C77.5532 207.426 77.5459 207.35 77.5539 207.274C77.5686 207.122 77.6426 206.982 77.7599 206.884C77.8771 206.787 78.0281 206.739 78.1802 206.752L112.719 210.162C112.873 210.17 113.017 210.238 113.121 210.352C113.224 210.466 113.278 210.617 113.27 210.771C113.262 210.925 113.194 211.069 113.08 211.172C112.965 211.276 112.815 211.329 112.661 211.322H112.603Z" fill="#D1D3D4"/>
<path d="M112.601 220.136L78.2009 217.816C78.1247 217.811 78.0504 217.791 77.9821 217.757C77.9137 217.723 77.8528 217.675 77.8027 217.618C77.7016 217.501 77.6508 217.35 77.6616 217.196C77.6723 217.042 77.7438 216.899 77.8601 216.798C77.9765 216.696 78.1283 216.646 78.2821 216.656L112.67 218.976C112.824 218.976 112.971 219.037 113.08 219.146C113.189 219.255 113.25 219.402 113.25 219.556C113.25 219.71 113.189 219.857 113.08 219.966C112.971 220.075 112.824 220.136 112.67 220.136H112.601Z" fill="#D1D3D4"/>
<path d="M112.673 228.637L78.3777 226.666C78.2249 226.654 78.0827 226.583 77.981 226.468C77.8793 226.354 77.8261 226.204 77.8326 226.051C77.8337 225.974 77.851 225.898 77.8833 225.827C77.9155 225.757 77.962 225.694 78.0198 225.643C78.0777 225.592 78.1455 225.553 78.2191 225.53C78.2927 225.506 78.3704 225.498 78.4473 225.506L112.708 227.478C112.861 227.49 113.003 227.56 113.104 227.675C113.206 227.79 113.259 227.939 113.253 228.092C113.244 228.24 113.179 228.379 113.071 228.48C112.963 228.581 112.821 228.638 112.673 228.637V228.637Z" fill="#D1D3D4"/>
<path d="M112.74 237.139L78.201 236.153C78.0472 236.153 77.8997 236.092 77.7909 235.983C77.6822 235.874 77.6211 235.727 77.6211 235.573C77.6211 235.419 77.6822 235.272 77.7909 235.163C77.8997 235.054 78.0472 234.993 78.201 234.993L112.74 235.979C112.815 235.98 112.89 235.997 112.959 236.028C113.028 236.058 113.091 236.103 113.143 236.158C113.194 236.213 113.235 236.278 113.261 236.349C113.288 236.419 113.3 236.495 113.297 236.57C113.291 236.717 113.231 236.857 113.128 236.962C113.025 237.067 112.887 237.13 112.74 237.139Z" fill="#D1D3D4"/>
<path d="M112.738 245.605H78.3729C78.2191 245.605 78.0716 245.544 77.9628 245.435C77.8541 245.327 77.793 245.179 77.793 245.025C77.793 244.871 77.8541 244.724 77.9628 244.615C78.0716 244.506 78.2191 244.445 78.3729 244.445H112.761C112.915 244.445 113.062 244.506 113.171 244.615C113.28 244.724 113.341 244.871 113.341 245.025C113.341 245.179 113.28 245.327 113.171 245.435C113.062 245.544 112.915 245.605 112.761 245.605H112.738Z" fill="#D1D3D4"/>
<path d="M78.3731 254.582C78.2213 254.582 78.0756 254.522 77.9671 254.416C77.8587 254.31 77.7963 254.165 77.7932 254.014C77.5381 233.01 77.4569 211.275 77.5381 189.424C77.5381 189.271 77.5992 189.123 77.7079 189.014C77.8167 188.906 77.9642 188.844 78.118 188.844C78.2718 188.844 78.4193 188.906 78.528 189.014C78.6368 189.123 78.6979 189.271 78.6979 189.424C78.6167 211.275 78.6979 232.998 78.953 254.002C78.9531 254.154 78.8936 254.3 78.7873 254.408C78.6811 254.516 78.5365 254.579 78.3847 254.582H78.3731Z" fill="white"/>
<path d="M112.599 254.582C112.446 254.582 112.298 254.521 112.189 254.412C112.081 254.304 112.02 254.156 112.02 254.002C112.147 234.819 112.182 215.103 112.147 193.693C112.147 193.539 112.208 193.391 112.317 193.283C112.426 193.174 112.573 193.113 112.727 193.113C112.881 193.113 113.028 193.174 113.137 193.283C113.246 193.391 113.307 193.539 113.307 193.693C113.307 215.103 113.307 234.831 113.179 254.002C113.179 254.156 113.118 254.304 113.009 254.412C112.901 254.521 112.753 254.582 112.599 254.582Z" fill="white"/>
<path d="M78.3731 254.582C78.2213 254.582 78.0756 254.522 77.9671 254.416C77.8587 254.31 77.7963 254.165 77.7932 254.014C77.5381 233.01 77.4569 211.275 77.5381 189.424C77.5381 189.271 77.5992 189.123 77.7079 189.014C77.8167 188.906 77.9642 188.844 78.118 188.844C78.2718 188.844 78.4193 188.906 78.528 189.014C78.6368 189.123 78.6979 189.271 78.6979 189.424C78.6167 211.275 78.6979 232.998 78.953 254.002C78.9531 254.154 78.8936 254.3 78.7873 254.408C78.6811 254.516 78.5365 254.579 78.3847 254.582H78.3731Z" fill="#D1D3D4"/>
<path d="M112.599 254.582C112.446 254.582 112.298 254.521 112.189 254.412C112.081 254.304 112.02 254.156 112.02 254.002C112.147 234.819 112.182 215.103 112.147 193.693C112.147 193.539 112.208 193.391 112.317 193.283C112.426 193.174 112.573 193.113 112.727 193.113C112.881 193.113 113.028 193.174 113.137 193.283C113.246 193.391 113.307 193.539 113.307 193.693C113.307 215.103 113.307 234.831 113.179 254.002C113.179 254.156 113.118 254.304 113.009 254.412C112.901 254.521 112.753 254.582 112.599 254.582Z" fill="#D1D3D4"/>
<path d="M78.3731 254.582C78.2213 254.582 78.0756 254.522 77.9671 254.416C77.8587 254.31 77.7963 254.165 77.7932 254.014C77.5381 233.01 77.4569 211.275 77.5381 189.424C77.5381 189.271 77.5992 189.123 77.7079 189.014C77.8167 188.906 77.9642 188.844 78.118 188.844C78.2718 188.844 78.4193 188.906 78.528 189.014C78.6368 189.123 78.6979 189.271 78.6979 189.424C78.6167 211.275 78.6979 232.998 78.953 254.002C78.9531 254.154 78.8936 254.3 78.7873 254.408C78.6811 254.516 78.5365 254.579 78.3847 254.582H78.3731Z" stroke="#231F20" stroke-width="1.015" stroke-linecap="round" stroke-linejoin="round"/>
<path d="M112.599 254.582C112.446 254.582 112.298 254.521 112.189 254.412C112.081 254.304 112.02 254.156 112.02 254.002C112.147 234.819 112.182 215.103 112.147 193.693C112.147 193.539 112.208 193.391 112.317 193.283C112.426 193.174 112.573 193.113 112.727 193.113C112.881 193.113 113.028 193.174 113.137 193.283C113.246 193.391 113.307 193.539 113.307 193.693C113.307 215.103 113.307 234.831 113.179 254.002C113.179 254.156 113.118 254.304 113.009 254.412C112.901 254.521 112.753 254.582 112.599 254.582Z" stroke="#231F20" stroke-width="1.015" stroke-linecap="round" stroke-linejoin="round"/>
<path d="M140.195 84.0451V28.7459L180.255 13.0654V73.5837L140.195 84.0451Z" fill="#231F20"/>
<path d="M140.193 84.6249C140.066 84.6234 139.943 84.5783 139.845 84.4973C139.775 84.4445 139.717 84.3763 139.677 84.2979C139.637 84.2196 139.615 84.1331 139.613 84.045V28.7458C139.614 28.6283 139.65 28.5138 139.716 28.4167C139.782 28.3196 139.875 28.2444 139.984 28.2007L180.044 12.5318C180.128 12.489 180.222 12.4667 180.316 12.4667C180.411 12.4667 180.505 12.489 180.589 12.5318C180.664 12.5864 180.725 12.6579 180.768 12.7405C180.81 12.8231 180.832 12.9145 180.833 13.0073V73.5372C180.832 73.6642 180.789 73.7874 180.712 73.888C180.634 73.9886 180.526 74.0609 180.403 74.0939L140.344 84.5321L140.193 84.6249ZM140.773 29.1517V83.3027L179.673 73.1545V13.9235L140.773 29.1517Z" fill="#231F20"/>
<path d="M216.391 84.6248C216.281 84.621 216.173 84.5891 216.078 84.532L186.04 65.3721C185.975 65.3318 185.918 65.2792 185.874 65.2171C185.83 65.1551 185.798 65.0849 185.781 65.0105C185.763 64.9362 185.761 64.8591 185.774 64.7839C185.786 64.7086 185.813 64.6365 185.854 64.5719C185.941 64.4447 186.073 64.355 186.224 64.3206C186.374 64.2863 186.532 64.3097 186.666 64.3863L216.705 83.5462C216.834 83.6294 216.924 83.7603 216.957 83.9103C216.99 84.0604 216.961 84.2172 216.879 84.3464C216.828 84.431 216.757 84.5011 216.672 84.5499C216.586 84.5987 216.49 84.6245 216.391 84.6248Z" fill="#231F20"/>
<path d="M194.135 252.216C193.981 252.216 193.833 252.155 193.725 252.046C193.616 251.937 193.555 251.79 193.555 251.636V76.3673C193.555 76.2135 193.616 76.066 193.725 75.9572C193.833 75.8484 193.981 75.7874 194.135 75.7874C194.288 75.7874 194.436 75.8484 194.545 75.9572C194.653 76.066 194.714 76.2135 194.714 76.3673V251.636C194.714 251.79 194.653 251.937 194.545 252.046C194.436 252.155 194.288 252.216 194.135 252.216Z" fill="white"/>
<path d="M202.181 252.216C202.028 252.216 201.88 252.155 201.771 252.046C201.663 251.937 201.602 251.79 201.602 251.636V80.2757C201.605 80.1228 201.667 79.977 201.775 79.8689C201.883 79.7608 202.029 79.6988 202.181 79.6958C202.335 79.6958 202.483 79.7569 202.592 79.8656C202.7 79.9744 202.761 80.1219 202.761 80.2757V251.636C202.761 251.79 202.7 251.937 202.592 252.046C202.483 252.155 202.335 252.216 202.181 252.216Z" fill="white"/>
<path d="M210.244 252.216C210.09 252.216 209.943 252.155 209.834 252.046C209.725 251.937 209.664 251.79 209.664 251.636V85.0657C209.664 84.9119 209.725 84.7644 209.834 84.6557C209.943 84.5469 210.09 84.4858 210.244 84.4858C210.398 84.4858 210.545 84.5469 210.654 84.6557C210.763 84.7644 210.824 84.9119 210.824 85.0657V251.636C210.824 251.79 210.763 251.937 210.654 252.046C210.545 252.155 210.398 252.216 210.244 252.216Z" fill="white"/>
<path d="M189.123 63.8761C188.969 63.8761 188.822 63.8151 188.713 63.7063C188.604 63.5975 188.543 63.45 188.543 63.2963V24.1182C188.543 23.9644 188.604 23.8169 188.713 23.7082C188.822 23.5994 188.969 23.5383 189.123 23.5383C189.277 23.5383 189.424 23.5994 189.533 23.7082C189.642 23.8169 189.703 23.9644 189.703 24.1182V63.2963C189.703 63.45 189.642 63.5975 189.533 63.7063C189.424 63.8151 189.277 63.8761 189.123 63.8761Z" fill="white"/>
<path d="M195.443 68.1094C195.289 68.1094 195.142 68.0483 195.033 67.9396C194.924 67.8308 194.863 67.6833 194.863 67.5295V29.3373C194.863 29.1835 194.924 29.036 195.033 28.9273C195.142 28.8185 195.289 28.7574 195.443 28.7574C195.597 28.7574 195.744 28.8185 195.853 28.9273C195.962 29.036 196.023 29.1835 196.023 29.3373V67.5295C196.023 67.6833 195.962 67.8308 195.853 67.9396C195.744 68.0483 195.597 68.1094 195.443 68.1094Z" fill="white"/>
<path d="M201.373 71.5076C201.219 71.5076 201.072 71.4465 200.963 71.3378C200.854 71.229 200.793 71.0815 200.793 70.9277V33.791C200.793 33.6372 200.854 33.4897 200.963 33.3809C201.072 33.2722 201.219 33.2111 201.373 33.2111C201.527 33.2111 201.674 33.2722 201.783 33.3809C201.892 33.4897 201.953 33.6372 201.953 33.791V70.9045C201.956 70.9826 201.943 71.0605 201.915 71.1336C201.888 71.2066 201.845 71.2733 201.791 71.3297C201.737 71.386 201.672 71.4308 201.6 71.4614C201.528 71.492 201.451 71.5077 201.373 71.5076Z" fill="white"/>
<path d="M252.045 254.582C251.891 254.582 251.743 254.521 251.635 254.412C251.526 254.303 251.465 254.156 251.465 254.002V166.379C251.465 166.225 251.526 166.078 251.635 165.969C251.743 165.86 251.891 165.799 252.045 165.799C252.199 165.799 252.346 165.86 252.455 165.969C252.564 166.078 252.625 166.225 252.625 166.379V254.002C252.625 254.156 252.564 254.303 252.455 254.412C252.346 254.521 252.199 254.582 252.045 254.582Z" fill="#231F20"/>
<path d="M262.111 254.582C261.957 254.582 261.81 254.521 261.701 254.412C261.592 254.303 261.531 254.156 261.531 254.002V169.801C261.531 169.647 261.592 169.499 261.701 169.391C261.81 169.282 261.957 169.221 262.111 169.221C262.265 169.221 262.412 169.282 262.521 169.391C262.63 169.499 262.691 169.647 262.691 169.801V254.002C262.691 254.156 262.63 254.303 262.521 254.412C262.412 254.521 262.265 254.582 262.111 254.582Z" fill="#231F20"/>
<path d="M270.76 255.452C270.607 255.449 270.461 255.387 270.353 255.279C270.245 255.171 270.183 255.025 270.18 254.872V172.387C270.183 172.234 270.245 172.088 270.353 171.98C270.461 171.872 270.607 171.81 270.76 171.807C270.913 171.807 271.061 171.868 271.17 171.977C271.278 172.086 271.339 172.233 271.339 172.387V254.872C271.339 255.026 271.278 255.173 271.17 255.282C271.061 255.391 270.913 255.452 270.76 255.452Z" fill="#231F20"/>
<path d="M286.627 252.541C286.473 252.541 286.325 252.48 286.217 252.371C286.108 252.262 286.047 252.115 286.047 251.961V137.361C286.047 137.207 286.108 137.06 286.217 136.951C286.325 136.842 286.473 136.781 286.627 136.781C286.781 136.781 286.928 136.842 287.037 136.951C287.146 137.06 287.207 137.207 287.207 137.361V251.961C287.207 252.115 287.146 252.262 287.037 252.371C286.928 252.48 286.781 252.541 286.627 252.541Z" fill="white"/>
<path d="M294.435 252.541C294.282 252.541 294.134 252.48 294.025 252.371C293.917 252.262 293.855 252.115 293.855 251.961V139.878C293.858 139.725 293.92 139.579 294.029 139.471C294.137 139.363 294.282 139.301 294.435 139.298C294.589 139.298 294.737 139.359 294.845 139.468C294.954 139.576 295.015 139.724 295.015 139.878V251.961C295.015 252.115 294.954 252.262 294.845 252.371C294.737 252.48 294.589 252.541 294.435 252.541Z" fill="white"/>
<path d="M290.248 117.865C290.137 117.868 290.027 117.836 289.935 117.772L281.816 112.437C281.687 112.354 281.597 112.223 281.564 112.073C281.531 111.923 281.56 111.766 281.642 111.637C281.73 111.509 281.863 111.42 282.015 111.39C282.167 111.36 282.325 111.39 282.454 111.474L290.573 116.81C290.7 116.895 290.788 117.026 290.819 117.176C290.849 117.326 290.819 117.482 290.735 117.61C290.68 117.688 290.607 117.752 290.522 117.796C290.438 117.84 290.344 117.864 290.248 117.865V117.865Z" fill="white"/>
</svg>
