<svg width="51" height="50" viewBox="0 0 51 50" fill="none" xmlns="http://www.w3.org/2000/svg">
<path d="M50.0022 0.757553C50.0022 0.339197 49.663 0 49.2447 0H18.7683C18.35 0 18.0108 0.339197 18.0108 0.757553V15.322H0.757553C0.339197 15.322 0 15.6612 0 16.0795V49.2424C0 49.6608 0.339197 50 0.757553 50H9.29593H19.1944H27.7324C27.735 50 27.7372 49.9986 27.7398 49.9985H49.2447C49.663 49.9985 50.0022 49.6593 50.0022 49.241V0.757553ZM1.51511 16.8371H18.75C18.7565 16.8373 18.7618 16.8408 18.7683 16.8408C18.7748 16.8408 18.7801 16.8373 18.7866 16.8371H26.9749V48.4834H19.952V41.9048C19.952 38.758 17.3919 36.198 14.2452 36.198C11.0985 36.198 8.53838 38.758 8.53838 41.9048V48.4849H1.51511V16.8371ZM10.0535 41.9048C10.0535 39.5936 11.9341 37.7131 14.2452 37.7131C16.5563 37.7131 18.4369 39.5936 18.4369 41.9048V48.4849H10.0535V41.9048ZM48.4871 48.4834H28.49V16.0795C28.49 15.6612 28.1508 15.322 27.7324 15.322H19.5259V1.51511H48.4871V48.4834V48.4834Z" fill="black"/>
<path d="M19.6423 25.7582H23.493C23.9113 25.7582 24.2505 25.419 24.2505 25.0007V20.1554C24.2505 19.737 23.9113 19.3978 23.493 19.3978H19.6423C19.224 19.3978 18.8848 19.737 18.8848 20.1554V25.0007C18.8848 25.419 19.224 25.7582 19.6423 25.7582ZM20.3999 20.9129H22.7354V24.2431H20.3999V20.9129Z" fill="black"/>
<path d="M23.4529 10.8004H27.3039C27.7222 10.8004 28.0614 10.4612 28.0614 10.0428V5.19749C28.0614 4.77914 27.7222 4.43994 27.3039 4.43994H23.4529C23.0345 4.43994 22.6953 4.77914 22.6953 5.19749V10.0428C22.6953 10.4612 23.0345 10.8004 23.4529 10.8004ZM24.2104 5.95505H26.5463V9.28525H24.2104V5.95505Z" fill="black"/>
<path d="M32.0798 10.8004H35.9305C36.3488 10.8004 36.688 10.4612 36.688 10.0428V5.19749C36.688 4.77914 36.3488 4.43994 35.9305 4.43994H32.0798C31.6615 4.43994 31.3223 4.77914 31.3223 5.19749V10.0428C31.3223 10.4612 31.6615 10.8004 32.0798 10.8004ZM32.8374 5.95505H35.1729V9.28525H32.8374V5.95505Z" fill="black"/>
<path d="M40.7087 10.8004H44.5594C44.9777 10.8004 45.3169 10.4612 45.3169 10.0428V5.19749C45.3169 4.77914 44.9777 4.43994 44.5594 4.43994H40.7087C40.2904 4.43994 39.9512 4.77914 39.9512 5.19749V10.0428C39.9512 10.4612 40.2904 10.8004 40.7087 10.8004ZM41.4663 5.95505H43.8018V9.28525H41.4663V5.95505Z" fill="black"/>
<path d="M32.0798 21.6821H35.9305C36.3488 21.6821 36.688 21.3429 36.688 20.9245V16.0796C36.688 15.6612 36.3488 15.322 35.9305 15.322H32.0798C31.6615 15.322 31.3223 15.6612 31.3223 16.0796V20.9245C31.3223 21.3429 31.6615 21.6821 32.0798 21.6821ZM32.8374 16.8371H35.1729V20.167H32.8374V16.8371Z" fill="black"/>
<path d="M40.7087 21.6821H44.5594C44.9777 21.6821 45.3169 21.3429 45.3169 20.9245V16.0796C45.3169 15.6612 44.9777 15.322 44.5594 15.322H40.7087C40.2904 15.322 39.9512 15.6612 39.9512 16.0796V20.9245C39.9512 21.3429 40.2904 21.6821 40.7087 21.6821ZM41.4663 16.8371H43.8018V20.167H41.4663V16.8371Z" fill="black"/>
<path d="M32.0798 32.564H35.9305C36.3488 32.564 36.688 32.2248 36.688 31.8065V26.9612C36.688 26.5428 36.3488 26.2036 35.9305 26.2036H32.0798C31.6615 26.2036 31.3223 26.5428 31.3223 26.9612V31.8065C31.3223 32.2248 31.6615 32.564 32.0798 32.564ZM32.8374 27.7187H35.1729V31.0489H32.8374V27.7187Z" fill="black"/>
<path d="M40.7087 32.564H44.5594C44.9777 32.564 45.3169 32.2248 45.3169 31.8065V26.9612C45.3169 26.5428 44.9777 26.2036 44.5594 26.2036H40.7087C40.2904 26.2036 39.9512 26.5428 39.9512 26.9612V31.8065C39.9512 32.2248 40.2904 32.564 40.7087 32.564ZM41.4663 27.7187H43.8018V31.0489H41.4663V27.7187Z" fill="black"/>
<path d="M32.0798 43.4457H35.9305C36.3488 43.4457 36.688 43.1065 36.688 42.6882V37.8432C36.688 37.4249 36.3488 37.0857 35.9305 37.0857H32.0798C31.6615 37.0857 31.3223 37.4249 31.3223 37.8432V42.6882C31.3223 43.1065 31.6615 43.4457 32.0798 43.4457ZM32.8374 38.6008H35.1729V41.9306H32.8374V38.6008Z" fill="black"/>
<path d="M40.7087 43.4457H44.5594C44.9777 43.4457 45.3169 43.1065 45.3169 42.6882V37.8432C45.3169 37.4249 44.9777 37.0857 44.5594 37.0857H40.7087C40.2904 37.0857 39.9512 37.4249 39.9512 37.8432V42.6882C39.9512 43.1065 40.2904 43.4457 40.7087 43.4457ZM41.4663 38.6008H43.8018V41.9306H41.4663V38.6008Z" fill="black"/>
<path d="M12.3201 25.7582H16.1711C16.5894 25.7582 16.9286 25.419 16.9286 25.0007V20.1554C16.9286 19.737 16.5894 19.3978 16.1711 19.3978H12.3201C11.9017 19.3978 11.5625 19.737 11.5625 20.1554V25.0007C11.5625 25.419 11.9017 25.7582 12.3201 25.7582ZM13.0776 20.9129H15.4135V24.2431H13.0776V20.9129Z" fill="black"/>
<path d="M4.99583 25.7582H8.84685C9.26521 25.7582 9.60441 25.419 9.60441 25.0007V20.1554C9.60441 19.737 9.26521 19.3978 8.84685 19.3978H4.99583C4.57748 19.3978 4.23828 19.737 4.23828 20.1554V25.0007C4.23828 25.419 4.57748 25.7582 4.99583 25.7582ZM5.75339 20.9129H8.0893V24.2431H5.75339V20.9129Z" fill="black"/>
<path d="M19.6423 34.1584H23.493C23.9113 34.1584 24.2505 33.8192 24.2505 33.4008V28.5555C24.2505 28.1372 23.9113 27.798 23.493 27.798H19.6423C19.224 27.798 18.8848 28.1372 18.8848 28.5555V33.4008C18.8848 33.8192 19.224 34.1584 19.6423 34.1584ZM20.3999 29.3131H22.7354V32.6433H20.3999V29.3131Z" fill="black"/>
<path d="M21.1797 40.0294V43.7066C21.1797 44.1249 21.5189 44.4641 21.9372 44.4641H24.8598C25.2782 44.4641 25.6174 44.1249 25.6174 43.7066V40.0294C25.6174 39.611 25.2782 39.2719 24.8598 39.2719H21.9372C21.5189 39.2719 21.1797 39.611 21.1797 40.0294ZM22.6948 40.787H24.1023V42.949H22.6948V40.787V40.787Z" fill="black"/>
<path d="M6.55122 39.2719H3.62865C3.21029 39.2719 2.87109 39.611 2.87109 40.0294V43.7066C2.87109 44.1249 3.21029 44.4641 3.62865 44.4641H6.55122C6.96958 44.4641 7.30877 44.1249 7.30877 43.7066V40.0294C7.30877 39.611 6.96958 39.2719 6.55122 39.2719ZM5.79367 42.949H4.3862V40.787H5.79367V42.949V42.949Z" fill="black"/>
<path d="M12.3201 34.1584H16.1711C16.5894 34.1584 16.9286 33.8192 16.9286 33.4008V28.5555C16.9286 28.1372 16.5894 27.798 16.1711 27.798H12.3201C11.9017 27.798 11.5625 28.1372 11.5625 28.5555V33.4008C11.5625 33.8192 11.9017 34.1584 12.3201 34.1584ZM13.0776 29.3131H15.4135V32.6433H13.0776V29.3131Z" fill="black"/>
<path d="M4.99583 34.1584H8.84685C9.26521 34.1584 9.60441 33.8192 9.60441 33.4008V28.5555C9.60441 28.1372 9.26521 27.798 8.84685 27.798H4.99583C4.57748 27.798 4.23828 28.1372 4.23828 28.5555V33.4008C4.23828 33.8192 4.57748 34.1584 4.99583 34.1584ZM5.75339 29.3131H8.0893V32.6433H5.75339V29.3131Z" fill="black"/>
</svg>
