<svg width="82" height="83" viewBox="0 0 82 83" fill="none" xmlns="http://www.w3.org/2000/svg">
<path d="M40.9714 0.78125C18.4935 0.78125 0.304688 18.9701 0.304688 41.4479C0.304688 63.9258 18.4935 82.1146 40.9714 82.1146C63.4492 82.1146 81.638 63.9258 81.638 41.4479C81.638 18.9701 63.4492 0.78125 40.9714 0.78125ZM51.7671 41.3002H44.6695C44.6695 52.5391 44.6695 66.4389 44.6695 66.4389H34.1708C34.1708 66.4389 34.1708 52.6869 34.1708 41.3002H29.1431V32.4282H34.1708V26.6602C34.1708 22.5189 36.0929 16.1615 44.6695 16.1615H52.3596V24.738C52.3596 24.738 47.6273 24.738 46.7409 24.738C45.8529 24.738 44.5233 25.1813 44.5233 27.1034V32.2789H52.5089L51.7671 41.3002Z" fill="#343434"/>
</svg>
