<svg width="72" height="76" viewBox="0 0 72 76" fill="none" xmlns="http://www.w3.org/2000/svg">
<path d="M14.7086 72.2748H20.1812V48.2409C20.1812 47.2125 21.0154 46.3784 22.0438 46.3784H36.7952C37.8236 46.3784 38.6578 47.2125 38.6578 48.2409V72.2748H56.8103V36.9209H14.7086V72.2748ZM43.6894 56.4637C41.2394 56.4637 41.2394 52.7376 43.6894 52.7376H50.5468C52.9968 52.7376 52.9968 56.4637 50.5468 56.4637H43.6894ZM43.6894 50.1044C41.2394 50.1044 41.2394 46.3784 43.6894 46.3784H50.5468C52.9968 46.3784 52.9968 50.1044 50.5468 50.1044H43.6894ZM44.2087 3.72607C41.7587 3.72607 41.7587 0 44.2087 0H58.8193C61.2692 0 61.2692 3.72607 58.8193 3.72607H44.2087ZM34.9317 63.0522H32.9495C30.4995 63.0522 30.4995 59.3261 32.9495 59.3261H34.9317V50.1044H23.9064V72.2748H34.9317V63.0522ZM36.972 5.24062L44.1065 11.2196V7.54789C44.1065 6.51947 44.9406 5.68531 45.9691 5.68531H57.0589C58.0873 5.68531 58.9215 6.51947 58.9215 7.54789V23.5598L70.8592 33.6386C72.1878 34.7637 71.3684 36.9154 69.6586 36.9163L60.5364 36.9209V74.1374C60.5364 75.1658 59.7022 76 58.6729 76C43.3975 76 28.1213 76 12.8451 76C11.8167 76 10.9825 75.1658 10.9825 74.1374V36.9209H1.8593C0.0593352 36.9209 -0.67262 34.622 0.748018 33.5632L34.5662 5.22497C35.2742 4.63204 36.2944 4.65689 36.972 5.24062ZM44.7758 16.6333L35.7594 9.07717L6.97747 33.1949C26.1759 33.1949 45.3734 33.1949 64.5718 33.1949L55.9531 25.9186C55.4937 25.5798 55.1963 25.0338 55.1963 24.4197V9.41046H47.8326L47.8289 15.2063C47.8298 16.7567 45.9967 17.6544 44.7758 16.6333Z" fill="white"/>
</svg>
