<svg width="48" height="50" viewBox="0 0 48 50" fill="none" xmlns="http://www.w3.org/2000/svg">
<path d="M9.67669 47.5492H13.2771V31.7375C13.2771 31.0609 13.8259 30.5121 14.5025 30.5121H24.2074C24.884 30.5121 25.4328 31.0609 25.4328 31.7375V47.5492H37.3752V24.2901H9.67669V47.5492V47.5492ZM28.743 37.1472C27.1312 37.1472 27.1312 34.6958 28.743 34.6958H33.2545C34.8663 34.6958 34.8663 37.1472 33.2545 37.1472H28.743V37.1472ZM28.743 32.9634C27.1312 32.9634 27.1312 30.5121 28.743 30.5121H33.2545C34.8663 30.5121 34.8663 32.9634 33.2545 32.9634H28.743V32.9634ZM29.0847 2.45136C27.4728 2.45136 27.4728 0 29.0847 0H38.6969C40.3087 0 40.3087 2.45136 38.6969 2.45136H29.0847V2.45136ZM22.9814 41.4817H21.6773C20.0654 41.4817 20.0654 39.0304 21.6773 39.0304H22.9814V32.9634H15.7279V47.5492H22.9814V41.4817ZM24.3237 3.44777L29.0174 7.38134V4.96572C29.0174 4.28912 29.5662 3.74034 30.2428 3.74034H37.5387C38.2153 3.74034 38.7641 4.28912 38.7641 4.96572V15.4998L46.6179 22.1307C47.492 22.8709 46.9529 24.2865 45.8281 24.2871L39.8266 24.2901V48.7746C39.8266 49.4512 39.2778 50 38.6006 50C28.551 50 18.5009 50 8.45071 50C7.77412 50 7.22533 49.4512 7.22533 48.7746V24.2901H1.22322C0.0390363 24.2901 -0.442513 22.7776 0.492117 22.081L22.7409 3.43748C23.2067 3.04739 23.8779 3.06375 24.3237 3.44777V3.44777ZM29.4578 10.943L23.5259 5.97182L4.59044 21.8387C17.221 21.8387 29.8509 21.8387 42.4814 21.8387L36.8113 17.0517C36.509 16.8288 36.3134 16.4696 36.3134 16.0656V6.19109H31.4688L31.4664 10.0041C31.467 11.0242 30.261 11.6147 29.4578 10.943V10.943Z" fill="#343434"/>
</svg>
