<svg width="375" height="812" viewBox="0 0 375 812" fill="none" xmlns="http://www.w3.org/2000/svg">
<g clip-path="url(#clip0)">
<rect width="375" height="812" fill="white"/>
<path d="M-405.667 811.584C-405.667 811.584 -430.873 603.632 -342.648 540.613C-265.823 485.723 -201.917 452.388 -71.6774 448.187C58.5616 443.986 129.963 443.967 207.695 357.872C285.427 271.777 390.524 141.684 508.053 137.312C621.488 133.092 690.799 168.81 755.904 420.886C821.014 672.962 753.794 803.182 751.684 805.268C750.226 806.769 -405.667 811.584 -405.667 811.584Z" fill="#F8F8FF"/>
<path d="M122.997 647.098C130.156 560.54 103.489 433.869 134.611 416.241C165.328 398.867 175.802 393.185 207.679 357.867C285.392 271.752 390.42 141.664 508.056 137.312C621.492 133.092 690.802 168.81 755.907 420.886C788.462 546.924 786.542 613.51 783.355 653.307C781.625 675.199 779.895 703.699 778.837 704.737C777.38 706.233 117.066 718.987 122.997 647.098Z" fill="#E9EDFC"/>
<path d="M373.698 423.464L368.508 692.217H535.605L534.426 423.464H373.698Z" fill="#BAC4F6"/>
<path d="M131.039 581.17L371.205 582.413L368.505 692.217L131.946 692.134L131.039 581.17Z" fill="#BAC4F6"/>
<path d="M111.254 426.252L111.844 692.787C111.844 692.787 113.301 709.552 129.325 710.269C145.349 710.985 776.933 711.263 776.933 711.263C776.933 711.263 782.572 693.592 780.393 692.856C778.22 692.115 131.942 692.139 131.942 692.139C131.942 692.139 132.132 682.704 132.132 676.666C132.132 669.95 131.771 417.854 131.771 417.854C125.236 421.324 118.359 424.141 111.254 426.252Z" fill="white"/>
<path d="M125.191 452.724L764.223 456.545L767.6 470.396L125.191 473.476V452.724Z" fill="white"/>
<path d="M305.508 245.172V692.68L322.375 693.991V233.5L305.508 245.172Z" fill="white"/>
<path d="M322.375 233.5L687.082 235.713L676.59 216.818L343.131 216.653L322.375 233.5Z" fill="white"/>
<path d="M383.854 321.642C404.328 321.642 420.926 305.044 420.926 284.569C420.926 264.095 404.328 247.497 383.854 247.497C363.379 247.497 346.781 264.095 346.781 284.569C346.781 305.044 363.379 321.642 383.854 321.642Z" fill="white"/>
<path d="M141.795 492.092H360.181C368.631 492.092 375.483 498.944 375.483 507.395V665.009C375.483 673.459 368.631 680.311 360.181 680.311H141.795C133.344 680.311 126.492 673.459 126.492 665.009V507.395C126.497 498.944 133.344 492.092 141.795 492.092Z" fill="#68E1FD"/>
<path d="M360.179 682.587H141.794C132.09 682.573 124.229 674.712 124.215 665.009V507.395C124.215 497.687 132.086 489.816 141.794 489.816H360.179C369.882 489.831 377.743 497.692 377.758 507.395V665.077C377.695 674.746 369.853 682.563 360.179 682.587ZM141.794 494.305C134.6 494.305 128.772 500.138 128.772 507.327V665.077C128.786 672.265 134.61 678.089 141.794 678.099H360.179C367.387 678.123 373.245 672.304 373.27 665.096C373.27 665.086 373.27 665.082 373.27 665.072V507.395C373.255 500.207 367.431 494.383 360.248 494.373L141.794 494.305Z" fill="#093F68"/>
<path d="M295.102 732.545H206.848L216.068 680.311H285.905L295.102 732.545Z" fill="#093F68"/>
<path d="M295.102 734.821H206.848C206.181 734.816 205.547 734.514 205.118 734.002C204.685 733.486 204.499 732.804 204.616 732.136L213.725 679.902C213.925 678.805 214.89 678.016 216.001 678.035H285.838C286.949 678.016 287.914 678.805 288.114 679.902L297.222 732.136C297.339 732.804 297.159 733.486 296.72 734.002C296.316 734.485 295.731 734.782 295.102 734.821ZM209.558 730.264H292.393L283.991 682.582H217.96L209.558 730.264Z" fill="#093F68"/>
<path d="M358.499 507.78H143.461V647.474H358.499V507.78Z" fill="white"/>
<path d="M358.497 649.73H143.459C142.202 649.73 141.184 648.712 141.184 647.454V507.78C141.184 506.523 142.202 505.504 143.459 505.504H358.497C359.755 505.504 360.773 506.523 360.773 507.78V647.449C360.773 648.712 359.755 649.73 358.497 649.73ZM145.735 645.173H356.221V510.061H145.735V645.173Z" fill="#093F68"/>
<path d="M250.977 672.865C246.313 672.865 242.531 669.083 242.531 664.419C242.531 659.755 246.313 655.973 250.977 655.973C255.641 655.973 259.423 659.755 259.423 664.419C259.408 669.078 255.636 672.85 250.977 672.865ZM250.977 660.52C248.828 660.52 247.083 662.265 247.083 664.414C247.083 666.563 248.828 668.308 250.977 668.308C253.126 668.308 254.871 666.563 254.871 664.414C254.856 662.27 253.121 660.535 250.977 660.52Z" fill="#093F68"/>
<path d="M284.925 631.172C283.668 631.187 282.64 630.178 282.625 628.92C282.62 628.248 282.908 627.605 283.424 627.166L349.163 570.721C350.118 569.898 351.561 570.005 352.384 570.96C353.208 571.915 353.101 573.358 352.145 574.181L286.407 630.626C285.993 630.977 285.466 631.172 284.925 631.172Z" fill="#DFEAEF"/>
<path d="M183.33 635.475C182.677 635.475 182.053 635.193 181.624 634.7C180.796 633.755 180.888 632.322 181.829 631.489L274.138 550.335C275.083 549.497 276.526 549.585 277.359 550.53C278.197 551.476 278.11 552.918 277.164 553.752L184.831 634.788C184.431 635.202 183.895 635.446 183.33 635.475Z" fill="#DFEAEF"/>
<path d="M156.643 602.94C155.386 602.94 154.367 601.921 154.367 600.664C154.367 599.996 154.66 599.367 155.166 598.934L189.003 570.702C189.973 569.897 191.411 570.029 192.215 570.999C193.019 571.969 192.887 573.406 191.917 574.21L158.105 602.423C157.691 602.755 157.174 602.94 156.643 602.94Z" fill="#DFEAEF"/>
<path d="M25.6002 733.773H452.259C456.319 733.773 459.613 737.068 459.613 741.128V744.315C459.613 748.374 456.319 751.669 452.259 751.669H25.6002C21.5406 751.669 18.2461 748.374 18.2461 744.315V741.128C18.2461 737.068 21.5406 733.773 25.6002 733.773Z" fill="#725858"/>
<path d="M452.263 753.877H25.5988C20.2867 753.862 15.9785 749.559 15.9688 744.246V741.059C15.9688 735.742 20.2818 731.429 25.5988 731.429H452.258C457.575 731.429 461.888 735.742 461.888 741.059V744.246C461.878 749.563 457.575 753.867 452.263 753.877ZM25.5988 735.981C22.7965 735.981 20.5206 738.252 20.5206 741.059V744.246C20.5206 747.049 22.7916 749.325 25.5988 749.325H452.258C455.06 749.325 457.336 747.054 457.336 744.246V741.059C457.336 738.257 455.065 735.981 452.258 735.981H25.5988Z" fill="#093F68"/>
<path d="M329.602 530.257C328.344 530.257 327.326 529.238 327.326 527.981V527.138C327.326 486.342 294.254 453.27 253.458 453.27C212.662 453.27 179.591 486.342 179.591 527.138V527.981C179.591 529.238 178.572 530.257 177.315 530.257C176.058 530.257 175.039 529.238 175.039 527.981V527.138C175.039 483.827 210.148 448.718 253.458 448.718C296.769 448.718 331.878 483.827 331.878 527.138V527.981C331.878 529.238 330.859 530.257 329.602 530.257Z" fill="#093F68"/>
<path d="M175.175 527.981H190.478V592.374H175.175C169.103 592.374 164.176 587.452 164.176 581.375V538.975C164.176 532.903 169.103 527.981 175.175 527.981Z" fill="#68E1FD"/>
<path d="M190.456 594.65H175.178C167.853 594.635 161.917 588.7 161.902 581.375V538.975C161.917 531.65 167.853 525.715 175.178 525.7H190.48C191.738 525.7 192.756 526.719 192.756 527.976V592.369C192.756 593.627 191.738 594.645 190.48 594.645C190.471 594.65 190.461 594.65 190.456 594.65ZM175.178 530.257C170.368 530.271 166.469 534.165 166.459 538.975V581.375C166.459 586.19 170.363 590.093 175.178 590.093H188.2V530.257H175.178Z" fill="#093F68"/>
<path d="M329.6 592.393H314.297V528H329.6C335.672 528 340.599 532.922 340.599 538.999V581.399C340.594 587.471 335.672 592.393 329.6 592.393Z" fill="#68E1FD"/>
<path d="M329.602 594.65H314.299C313.042 594.65 312.023 593.631 312.023 592.374V527.981C312.023 526.723 313.042 525.705 314.299 525.705H329.602C336.927 525.719 342.863 531.655 342.878 538.98V581.38C342.863 588.7 336.927 594.635 329.602 594.65ZM316.575 590.093H329.597C334.412 590.093 338.316 586.19 338.316 581.375V538.975C338.301 534.165 334.407 530.266 329.597 530.257H316.575V590.093Z" fill="#093F68"/>
<path d="M219.894 509.057C202.681 535.676 190.955 520.602 187.422 515.363V572.105C187.422 600.615 211.697 623.974 242.595 626.386V638.019C243.131 643.716 248.185 647.898 253.882 647.362C258.838 646.894 262.761 642.971 263.224 638.019V627.088C299.882 625.86 317.87 597.486 317.87 572.1L308.309 521.621C308.309 521.626 284.287 538.478 219.894 509.057Z" fill="#FFC9B0"/>
<path d="M252.914 649.613C246.242 649.872 240.618 644.691 240.321 638.024V628.462C209.219 625.07 185.148 600.683 185.148 572.105V515.363C185.144 514.106 186.162 513.083 187.42 513.083C188.18 513.083 188.891 513.458 189.315 514.091C192.892 519.399 196.713 522.108 200.7 522.108C205.958 522.108 211.904 517.123 217.913 507.834C218.522 506.888 219.731 506.533 220.759 506.991C282.828 535.364 306.713 519.925 306.966 519.764C307.629 519.287 308.496 519.199 309.242 519.535C309.949 519.827 310.46 520.451 310.607 521.197L320.012 571.725C320.037 571.867 320.037 572.013 320.012 572.159C320.012 599.119 301.293 627.059 265.366 629.335V638.078C265.049 644.667 259.513 649.798 252.914 649.613ZM189.705 521.626V572.037C189.705 598.885 213.02 621.742 242.782 624.042C243.967 624.14 244.883 625.129 244.878 626.318V637.951C245.458 642.391 249.527 645.52 253.967 644.94C257.612 644.462 260.478 641.596 260.956 637.951V627.02C260.956 625.762 261.974 624.744 263.231 624.744C297.502 623.584 315.602 597.418 315.602 572.213L306.747 524.964C298.525 528.541 272.749 535.164 220.813 511.85C214.185 521.528 207.513 526.49 200.914 526.558C196.655 526.529 192.6 524.74 189.705 521.626Z" fill="#093F68"/>
<path d="M268.943 634.13H236.266C203.409 634.13 174.582 672.84 158.504 708.358C154.099 717.121 157.637 727.799 166.4 732.204C166.633 732.321 166.872 732.433 167.111 732.54C173.944 735.318 176.22 735.411 203.404 710.819V732.54H301.79V711.341C328.706 735.27 340.5 736.912 345.052 720.449C349.048 706.063 306.556 634.13 268.943 634.13Z" fill="#68E1FD"/>
<path d="M171.897 736.025C169.942 735.947 168.017 735.474 166.248 734.636C156.136 730.201 151.535 718.407 155.97 708.3C156.116 707.968 156.272 707.637 156.433 707.315C172.988 670.886 202.678 631.742 236.266 631.742H268.942C291.575 631.742 312.911 655.286 323.589 669.336C339.184 689.829 349.594 712.598 347.245 720.956C345.378 727.789 342.279 731.683 337.819 733.003C330.49 735.279 320.285 730.133 304.051 716.268V732.433C304.051 733.691 303.032 734.709 301.775 734.709H203.409C202.151 734.709 201.133 733.691 201.133 732.433V715.81C183.807 731.449 177.316 736.025 171.897 736.025ZM236.266 636.411C204.841 636.411 176.565 674.049 160.58 709.275C156.691 716.877 159.703 726.19 167.306 730.079C167.53 730.191 167.754 730.304 167.983 730.406C173.446 732.682 175.089 733.345 201.864 709.094C202.785 708.236 204.227 708.295 205.08 709.216C205.48 709.645 205.699 710.215 205.689 710.805V730.25H299.523V711.351C299.514 710.093 300.527 709.065 301.785 709.055C302.355 709.05 302.906 709.26 303.33 709.64C319.748 724.236 330.655 730.499 336.552 728.744C339.398 727.901 341.47 724.987 342.883 719.84C344.569 713.739 335.573 692.675 319.978 672.182C302.647 649.413 284.045 636.387 268.952 636.387L236.266 636.411Z" fill="#093F68"/>
<path d="M317.442 577.481C309.518 599.226 291.554 612.229 265.686 613.228C225.928 614.797 192.593 607.102 186.833 566.71C183.533 543.551 179.001 524.155 188.996 501.678C191.272 496.556 194.323 491.386 199.309 488.812C204.294 486.239 211.58 487.516 213.793 492.682C210.922 486.01 228.296 475.99 232.487 474.465C241.732 470.936 252.342 470.732 262.089 470.868C283.654 471.185 308.382 476.448 315.575 499.398C321.784 519.588 323.685 540.861 321.156 561.832C320.478 567.168 319.235 572.417 317.442 577.481Z" fill="#725858"/>
<path d="M256.099 615.713C224.222 615.713 190.478 608.359 184.581 567.032C184.24 564.595 183.874 562.183 183.509 559.814C180.39 539.321 177.724 521.47 186.901 500.748C189.177 495.85 192.344 489.841 198.285 486.79C201.828 485.026 205.932 484.767 209.67 486.059C210.591 486.395 211.473 486.839 212.287 487.38C215.883 480.342 228.706 473.446 231.8 472.262C241.547 468.549 252.634 468.393 262.264 468.529C293.05 468.963 311.764 479.095 317.915 498.652C324.231 519.16 326.156 540.764 323.563 562.066C322.871 567.588 321.575 573.017 319.694 578.256C311.316 601.254 292.212 614.48 265.89 615.509C262.586 615.645 259.423 615.713 256.099 615.713ZM204.777 489.748C203.242 489.734 201.731 490.089 200.361 490.772C195.693 493.048 192.939 498.306 191.073 502.546C182.422 522.035 185.015 539.185 188.022 559.059C188.363 561.452 188.753 563.864 189.094 566.32C193.646 599.041 217.35 612.77 265.603 610.903C289.965 609.948 307.612 597.764 315.307 576.633C317.067 571.701 318.29 566.593 318.953 561.398C321.463 540.749 319.596 519.798 313.465 499.919C307.978 482.453 290.696 473.393 262.099 472.983C252.99 472.847 242.312 472.983 233.316 476.424C229.875 477.745 218.267 484.553 216.078 489.743C215.737 490.323 215.674 491.025 215.898 491.654C216.298 492.848 215.659 494.139 214.47 494.539C213.413 494.895 212.258 494.436 211.731 493.452C210.995 491.907 209.65 490.738 208.018 490.221C206.965 489.885 205.873 489.719 204.777 489.748Z" fill="#093F68"/>
<path d="M203.409 722.204C202.151 722.204 201.133 721.185 201.133 719.928V678.576C201.133 677.319 202.151 676.3 203.409 676.3C204.666 676.3 205.685 677.319 205.685 678.576V719.928C205.69 721.185 204.666 722.204 203.409 722.204Z" fill="#093F68"/>
<path d="M301.799 722.755C300.542 722.755 299.523 721.736 299.523 720.479V681.564C299.523 680.306 300.542 679.288 301.799 679.288C303.057 679.288 304.075 680.306 304.075 681.564V720.479C304.075 721.731 303.057 722.755 301.799 722.755Z" fill="#093F68"/>
<path d="M213.679 670.267H288.273C298.292 670.267 306.49 677.28 306.738 686.047L308.673 751.669H193.391L195.35 686.047C195.481 677.28 203.678 670.267 213.679 670.267Z" fill="#FFBC0E"/>
<path d="M308.675 753.877H193.393C192.774 753.877 192.18 753.618 191.756 753.17C191.351 752.746 191.122 752.186 191.117 751.601L193.076 685.979C193.374 675.891 202.482 667.991 213.798 667.991H288.392C299.776 667.991 308.885 675.891 309.114 685.979L311.073 751.601C311.088 752.21 310.859 752.8 310.435 753.238C309.962 753.696 309.324 753.925 308.675 753.877ZM195.669 749.325H306.331L304.465 686.047C304.236 678.581 296.974 672.387 288.275 672.387H213.681C204.982 672.387 197.74 678.489 197.516 686.047L195.669 749.325Z" fill="#093F68"/>
<path d="M34.1172 732.545C34.1172 720.634 46.0719 711.004 60.8044 711.004C75.537 711.004 87.4916 720.634 87.4916 732.545H34.1172Z" fill="white"/>
<path d="M87.4892 734.821H34.1197C32.8623 734.821 31.8438 733.803 31.8438 732.545C31.8438 719.406 44.8462 708.729 60.8069 708.729C76.7676 708.729 89.77 719.406 89.77 732.545C89.77 733.803 88.7466 734.821 87.4892 734.821ZM36.5759 730.264H85.0281C83.6148 720.703 73.2781 713.28 60.802 713.28C48.3259 713.28 37.9892 720.703 36.5759 730.264Z" fill="#093F68"/>
<path d="M60.8031 713.28C59.843 713.28 58.9901 712.681 58.6636 711.779L25.3728 619.744C25.1438 619.125 25.1925 618.433 25.5093 617.853L64.3558 547.972C64.9845 546.87 66.3881 546.49 67.4846 547.119C68.5812 547.748 68.9662 549.151 68.3375 550.248L29.9929 619.242L62.9425 710.322C63.3714 711.506 62.7573 712.808 61.578 713.237C61.3197 713.295 61.0614 713.31 60.8031 713.28Z" fill="#093F68"/>
<path d="M99.9672 576.642C105.778 576.642 110.489 571.932 110.489 566.121C110.489 560.309 105.778 555.599 99.9672 555.599C94.1561 555.599 89.4453 560.309 89.4453 566.121C89.4453 571.932 94.1561 576.642 99.9672 576.642Z" fill="white"/>
<path d="M100.038 578.914C92.9857 578.996 87.2009 573.343 87.118 566.286C87.0449 559.892 91.7089 554.434 98.0347 553.503C105.004 552.397 111.559 557.129 112.699 564.093C113.82 571.072 109.068 577.637 102.094 578.758H102.089C101.407 578.865 100.725 578.918 100.038 578.914ZM100.038 557.875C99.5893 557.88 99.1409 557.919 98.6926 557.987C94.2187 558.679 91.1533 562.87 91.8453 567.344C91.8502 567.373 91.8551 567.407 91.8599 567.436C92.1962 569.6 93.3853 571.535 95.1593 572.812C98.8388 575.473 103.975 574.649 106.636 570.975C106.641 570.965 106.651 570.955 106.656 570.945C107.942 569.181 108.469 566.974 108.113 564.819C107.479 560.833 104.044 557.889 100.008 557.875H100.038Z" fill="#093F68"/>
<path d="M65.753 539.252L59.5156 550.113L73.0397 557.88L79.2771 547.018L65.753 539.252Z" fill="white"/>
<path d="M73.0506 560.175C72.651 560.165 72.266 560.063 71.9102 559.878L58.3863 552.09C57.3044 551.466 56.9243 550.082 57.5432 548.995L63.7812 538.132C64.0834 537.606 64.5854 537.221 65.1702 537.06C65.755 536.904 66.3788 536.987 66.9003 537.289L80.4242 545.052C81.5159 545.676 81.896 547.065 81.2722 548.157C81.2673 548.162 81.2673 548.167 81.2624 548.172L74.9757 559.035C74.6686 559.556 74.1715 559.931 73.5867 560.082C73.421 560.146 73.2358 560.175 73.0506 560.175ZM62.6457 549.292L72.2075 554.78L76.1697 547.947L66.6079 542.435L62.6457 549.292Z" fill="#093F68"/>
<path d="M113.696 547.06L103.676 541.324C92.4961 534.906 78.2314 538.756 71.7984 549.931C65.3849 561.115 69.2447 575.385 80.4294 581.808L90.4492 587.569L113.696 547.06Z" fill="white"/>
<path d="M90.4005 589.937C90.0009 589.932 89.6061 589.825 89.2601 589.621L79.2402 583.884C66.9688 576.837 62.7288 561.174 69.7808 548.898C76.8278 536.626 92.4912 532.386 104.768 539.438L114.787 545.199C115.869 545.823 116.249 547.207 115.631 548.293L92.384 588.773C91.9795 589.489 91.2241 589.932 90.4005 589.937ZM92.0429 540.569C80.4098 540.535 70.9504 549.936 70.9163 561.564C70.8919 569.142 74.9418 576.15 81.5259 579.913L89.5623 584.464L110.557 548.035L102.497 543.483C99.3385 541.583 95.7321 540.545 92.0429 540.476V540.569Z" fill="#093F68"/>
<path d="M129.275 733.476H117.569C111.029 733.476 105.727 728.174 105.727 721.634V694.605H141.113V721.658C141.113 728.198 135.811 733.5 129.27 733.5V733.476H129.275Z" fill="#70CC40"/>
<path d="M129.274 735.776H117.568C109.775 735.762 103.464 729.451 103.449 721.658V694.517C103.449 693.26 104.468 692.241 105.725 692.241H141.019C142.276 692.241 143.295 693.26 143.295 694.517V721.658C143.285 729.416 137.028 735.713 129.274 735.776ZM108.006 696.793V721.658C108.021 726.936 112.295 731.21 117.568 731.22H129.274C134.552 731.205 138.826 726.931 138.836 721.658V696.793H108.006Z" fill="#093F68"/>
<path d="M105.731 724.095H100.38C93.235 724.095 87.4453 718.305 87.4453 711.16C87.4453 704.016 93.235 698.226 100.38 698.226H105.731C106.988 698.226 108.007 699.245 108.007 700.502V721.819C108.007 723.076 106.988 724.095 105.731 724.095ZM100.38 702.783C95.7497 702.783 92.002 706.535 92.002 711.16C92.002 715.79 95.7546 719.538 100.38 719.538H103.455V702.778H100.38V702.783Z" fill="#093F68"/>
</g>
<defs>
<clipPath id="clip0">
<rect width="375" height="812" fill="white"/>
</clipPath>
</defs>
</svg>
