<svg width="82" height="82" viewBox="0 0 82 82" fill="none" xmlns="http://www.w3.org/2000/svg">
<path d="M40.9131 34.1647C44.9146 34.1647 48.1584 37.4085 48.1584 41.4116C48.1584 45.4131 44.9146 48.6569 40.9131 48.6569C36.9115 48.6569 33.6677 45.4131 33.6677 41.4116C33.6661 37.4085 36.9115 34.1647 40.9131 34.1647Z" fill="#343434"/>
<path d="M52.5951 32.3903C51.1162 32.3903 49.9328 31.2068 49.9328 29.7279C49.9328 28.249 51.1162 27.0655 52.5951 27.0655C54.0741 27.0655 55.2575 28.249 55.2575 29.7279C55.2575 31.2068 54.0741 32.3903 52.5951 32.3903ZM40.913 52.649C34.7018 52.649 29.6741 47.4735 29.6741 41.41C29.6741 35.1988 34.8496 30.1711 40.913 30.1711C46.9765 30.1711 52.2997 35.1988 52.2997 41.41C52.2997 47.6212 47.1242 52.649 40.913 52.649ZM49.9328 23.6644H31.744C29.0816 23.6644 26.7162 24.5524 25.2373 26.0298C23.7584 27.5087 22.8704 29.874 22.8704 32.5364V50.7252C22.8704 53.3876 23.7584 55.753 25.385 57.3796C27.0117 58.8586 29.2293 59.7466 31.8917 59.7466H49.9328C52.5952 59.7466 54.9605 58.8586 56.4394 57.3796C58.0661 55.9007 58.9541 53.5354 58.9541 50.873V32.538C58.9541 29.8756 58.0661 27.8058 56.5872 26.0314C54.9605 24.4047 52.7429 23.6644 49.9328 23.6644Z" fill="#343434"/>
<path d="M62.7983 50.7268C62.7983 54.5711 61.4671 57.8244 59.1017 60.1913C56.7348 62.5567 53.4831 63.5924 49.7849 63.5924H31.8916C28.1951 63.5924 24.9417 62.4089 22.5748 60.1913C20.0617 57.8244 18.8783 54.5727 18.8783 50.7268V32.538C18.8783 24.9956 24.0538 19.6724 31.7439 19.6724H50.0804C53.9247 19.6724 57.0303 21.0036 59.3972 23.3689C61.7626 25.7359 62.7983 28.8399 62.7983 32.6857V50.7268ZM41.2084 0.447876C18.7305 0.447876 0.541748 18.6367 0.541748 41.1145C0.541748 63.5924 18.7305 81.7812 41.2084 81.7812C63.6863 81.7812 81.8751 63.5924 81.8751 41.1145C82.0228 18.6367 63.6863 0.447876 41.2084 0.447876Z" fill="#343434"/>
</svg>
