<svg width="82" height="83" viewBox="0 0 82 83" fill="none" xmlns="http://www.w3.org/2000/svg">
<path fill-rule="evenodd" clip-rule="evenodd" d="M81.4869 41.4297C81.4869 18.9693 63.2806 0.763062 40.8202 0.763062C18.3598 0.763062 0.153564 18.9693 0.153564 41.4297C0.153564 63.8901 18.3598 82.0964 40.8202 82.0964C63.2806 82.0964 81.4869 63.8901 81.4869 41.4297ZM42.2989 46.0143V60.2111V60.3588H34.461C34.461 60.3588 34.6087 37.7332 34.461 35.3679H42.1511V38.6212C43.3346 36.8468 45.2567 34.3321 49.8413 34.3321C55.3122 34.3321 59.4535 37.8809 59.4535 45.7188V60.2111H51.7634V46.0143C51.7634 42.6132 49.989 40.8388 46.8834 40.8388C44.5165 40.8388 43.1853 42.4655 42.5943 43.9444C42.2989 44.5353 42.2989 45.2756 42.2989 46.0143ZM25.8829 22.7977C28.3975 22.7977 29.8765 24.4244 29.8765 26.642C29.8765 28.7119 28.2498 30.4863 25.7352 30.4863C23.3698 30.4863 21.8909 28.8596 21.8909 26.642C21.8909 24.4244 23.5159 22.7977 25.8829 22.7977ZM29.8765 35.3663V60.2095H22.1863V35.3663H29.8765Z" fill="#343434"/>
</svg>
