<svg width="120" height="40" viewBox="0 0 120 40" fill="none" xmlns="http://www.w3.org/2000/svg">
<path d="M15.4837 6.77993L4.57579 0.403909C4.10386 0.134635 3.57841 0 3.05053 0C2.52264 0 1.99719 0.134635 1.52526 0.403909C0.581399 0.942458 0 1.93781 0 3.0149V14.9423L8.42179 19.9503L11.4723 18.2097L15.4837 15.9208C18.5367 14.2715 19.1278 9.11444 15.4837 6.77993Z" fill="#343434"/>
<path d="M15.4837 24.0792L11.4723 21.7903L8.42179 20.0497L0 25.0577V36.9851C0 38.0622 0.581399 39.0576 1.52526 39.5961C1.99719 39.8654 2.52264 40 3.05053 40C3.57841 40 4.10386 39.8654 4.57579 39.5961L15.4837 33.2201C19.1278 30.8832 18.5367 25.7261 15.4837 24.0792Z" fill="#343434"/>
<path d="M75.8482 11.2589H73.8003C73.5695 11.2589 73.4047 11.3064 73.3131 11.3978C73.2215 11.4892 73.1739 11.6537 73.1739 11.884V12.4652C73.1739 12.7686 73.0823 12.9769 72.9175 13.0939C72.7526 13.2109 72.4742 13.2803 72.0785 13.2803C71.6829 13.2803 71.4045 13.2109 71.2396 13.0939C71.0784 12.9769 70.9832 12.7686 70.9832 12.4652V7.56319C70.9832 7.25979 71.0784 7.05143 71.2396 6.93811C71.4008 6.82113 71.6829 6.75167 72.0785 6.75167C72.4742 6.75167 72.7526 6.82113 72.9175 6.93811C73.0787 7.05508 73.1739 7.26344 73.1739 7.56319V8.18827C73.1739 8.5721 73.3607 8.77681 73.7088 8.77681C73.7088 8.77681 73.7271 8.77681 73.8113 8.77681C73.9249 8.77681 74.1081 8.67446 74.1081 8.67446C74.1081 8.67446 76.3208 7.39504 76.3574 7.37311C76.3904 7.35118 76.471 7.28538 76.471 7.1684C76.471 7.12088 76.471 7.04411 76.46 6.96369C76.3648 6.13024 76.0021 5.45033 75.3683 4.93856C74.6246 4.33541 73.5073 4.032 71.9906 4.032L72.0602 4.01007C69.0782 4.01007 67.5908 5.15058 67.5908 7.40235V12.5383C67.5908 13.6313 67.9645 14.4903 68.6862 15.0935C69.4079 15.6966 70.5252 16 72.0382 16C73.5512 16 74.6686 15.6966 75.3903 15.0935C76.112 14.4903 76.4856 13.6532 76.4856 12.5602V11.8876C76.4856 11.6573 76.438 11.4928 76.3464 11.4014C76.2439 11.3027 76.0827 11.2589 75.8482 11.2589Z" fill="#343434"/>
<path d="M27.2988 15.8108C26.8797 15.8108 26.6665 15.6017 26.6665 15.1578V0.652975C26.6665 0.209098 26.8761 0 27.2988 0H31.2032C33.0009 0 34.3355 0.304481 35.1774 0.909768C36.0193 1.51505 36.4384 2.3331 36.4384 3.33458V5.10641C36.4384 6.20326 35.9494 6.99564 34.9678 7.48354C36.3465 7.99711 37.0486 8.8592 37.0486 10.0698V12.2855C37.0486 13.3346 36.6295 14.1747 35.8097 14.8277C34.9935 15.4807 33.6811 15.7851 31.8833 15.8071H27.2988V15.8108ZM30.2436 2.821V6.46005H31.2252C32.3245 6.46005 32.8612 6.04185 32.8612 5.2238V3.84815C32.8612 3.17316 32.3024 2.821 31.2032 2.821H30.2436ZM30.2436 9.11598V13.0338H31.8318C32.9311 13.0338 33.4899 12.6376 33.4899 11.8196V10.2568C33.4899 9.90468 33.3245 9.62588 33.023 9.41678C32.7179 9.20768 32.3208 9.11231 31.8318 9.11231H30.2436V9.11598Z" fill="#343434"/>
<path d="M44.7749 4.032C45.2182 4.032 45.427 4.24036 45.427 4.65709V6.3313C45.427 6.72609 45.2182 6.95638 44.7749 7.0039C43.7052 7.14281 42.8187 7.51567 42.097 8.14441V15.1849C42.097 15.4188 42.0493 15.5796 41.9577 15.6747C41.8662 15.7697 41.7013 15.8136 41.4705 15.8136H39.2578C38.8402 15.8136 38.6277 15.6052 38.6277 15.1629V4.82159C38.6277 4.59129 38.6753 4.4268 38.7669 4.33541C38.8585 4.24403 39.0233 4.1965 39.2541 4.1965H41.302C41.5365 4.1965 41.6976 4.24403 41.7892 4.33541C41.8808 4.4268 41.9504 4.59129 41.9761 4.82159L42.0237 5.38087C42.793 4.47432 43.7015 4.01007 44.7493 4.01007L44.7749 4.032Z" fill="#343434"/>
<path d="M52.593 14.8815C51.7321 15.6236 50.732 15.9964 49.6109 15.9964C48.7024 15.9964 47.9807 15.7186 47.4458 15.1813C46.911 14.6476 46.6545 13.9494 46.6545 13.1123V4.818C46.6545 4.37569 46.8634 4.16733 47.2847 4.16733H49.4717C49.915 4.16733 50.1238 4.37569 50.1238 4.818V12.1838C50.1238 12.4872 50.1714 12.6956 50.263 12.8089C50.3546 12.9258 50.5415 12.9953 50.8235 12.9953C51.3364 12.9953 51.8933 12.7613 52.5014 12.2752V4.818C52.5014 4.58771 52.549 4.42322 52.6406 4.33183C52.7322 4.24044 52.897 4.19292 53.1278 4.19292H55.3406C55.7582 4.19292 55.9707 4.40128 55.9707 4.84359V15.1813C55.9707 15.6016 55.7619 15.81 55.3406 15.81H53.2927C52.8751 15.81 52.6626 15.6016 52.6406 15.1813L52.593 14.8815Z" fill="#343434"/>
<path d="M62.8723 7.00394C62.8247 6.56163 62.5243 6.35327 61.8246 6.35327C61.1249 6.35327 60.7768 6.56163 60.7768 7.00394V7.44625C60.7768 7.77159 60.9161 8.00554 61.2201 8.12252L64.2461 9.35441C65.5283 9.88811 66.1548 10.6813 66.1548 11.7232V13.0026C66.1548 13.8141 65.7811 14.5123 65.0594 15.0935C64.3377 15.6747 63.2423 15.9525 61.777 15.9525C60.3116 15.9525 59.2162 15.6491 58.4945 15.0679C57.7728 14.4867 57.4248 13.7885 57.4248 12.977V12.3263C57.4248 11.9315 57.6116 11.7451 58.0073 11.7451H59.9855C60.3812 11.7451 60.568 11.9315 60.568 12.3263V12.8381C60.568 13.3023 60.9637 13.5363 61.7806 13.5363C62.5939 13.5363 62.9932 13.306 62.9932 12.8381V12.3958C62.9932 12.2349 62.9456 12.096 62.854 12.001C62.7624 11.9096 62.5756 11.7926 62.2715 11.6756L59.2675 10.3962C58.8499 10.2098 58.4762 9.93197 58.1502 9.48966C57.8241 9.04735 57.6629 8.56117 57.6629 8.0494V7.09533C57.6629 6.25823 57.989 5.5381 58.663 4.93494C59.3371 4.33179 60.4105 4.02838 61.8759 4.02838C63.3413 4.02838 64.4146 4.33179 65.0887 4.93494C65.7628 5.5381 66.0888 6.25823 66.0888 7.09533V7.5815C66.0888 7.99823 65.88 8.21024 65.4844 8.21024H63.5061C63.1105 8.21024 62.9493 8.00188 62.9236 7.5815L62.8723 7.00394Z" fill="#343434"/>
<path d="M97.8067 10.1659C97.8067 10.5607 97.6198 10.769 97.2242 10.769H92.3555V12.5565C92.3555 13.1158 92.7291 13.3937 93.4508 13.3937C94.1982 13.3937 94.5682 13.1158 94.5682 12.5565V12.2312C94.5682 11.9973 94.6158 11.8364 94.7074 11.7414C94.799 11.65 94.9638 11.6025 95.2203 11.6025H97.0593C97.5026 11.6025 97.7114 11.8108 97.7114 12.2531V12.531C97.7114 14.8302 96.29 15.9927 93.4508 15.9927C90.4725 15.9927 88.9814 14.8302 88.9814 12.531V7.46448C88.9814 5.16519 90.4725 4.00275 93.4289 4.00275C96.3413 4.00275 97.8067 5.16519 97.8067 7.46448V10.1659ZM92.3591 8.5136H94.5719V7.39867C94.5719 6.81745 94.1982 6.53965 93.4545 6.53965C92.7328 6.53965 92.3591 6.81745 92.3591 7.39867V8.5136Z" fill="#343434"/>
<path d="M86.5458 4.8435C86.011 4.3098 85.2893 4.05392 84.3807 4.05392C83.2158 4.05392 82.2157 4.40119 81.3767 5.09939L81.3804 0.672606C81.3804 0.230293 81.1716 0 80.7759 0C80.7759 0 80.7906 0 80.6587 0C80.5268 0 80.3876 0.0731086 80.318 0.113319C80.2484 0.153529 78.1016 1.43295 78.0796 1.44392C78.054 1.45854 77.9514 1.54261 77.9514 1.67786C77.9514 1.81311 77.9514 15.1556 77.9514 15.1556C77.9514 15.5979 78.1602 15.8063 78.5815 15.8063H80.7942C81.0287 15.8063 81.1899 15.7587 81.2851 15.6674C81.3767 15.576 81.4244 15.4115 81.4244 15.1775V7.72036C82.0288 7.23418 82.637 7.00023 83.2158 7.00023C83.4942 7.00023 83.681 7.06968 83.7763 7.18666C83.8715 7.30364 83.9155 7.51199 83.9155 7.81174V15.1775C83.9155 15.6198 84.1243 15.8282 84.5676 15.8282H86.7327C87.1503 15.8282 87.3628 15.6198 87.3628 15.1775V6.88325C87.3591 6.05346 87.0807 5.3772 86.5458 4.8435Z" fill="#343434"/>
<path d="M120 2.58815C120 2.8221 119.952 2.98295 119.861 3.07434C119.769 3.16938 119.604 3.21324 119.37 3.21324H117.157C116.739 3.21324 116.527 3.00488 116.527 2.5845V0.683653C116.527 0.241341 116.736 0.0110474 117.157 0.0110474H119.37C119.765 0.0110474 119.974 0.244996 119.974 0.683653L120 2.58815ZM120 15.2069C120 15.4408 119.952 15.6016 119.861 15.6967C119.769 15.7881 119.604 15.8356 119.37 15.8356H117.157C116.739 15.8356 116.527 15.6272 116.527 15.1849V4.86917C116.527 4.42686 116.736 4.2185 117.157 4.2185H119.37C119.604 4.2185 119.765 4.26602 119.861 4.35741C119.952 4.4488 120 4.61329 120 4.84724V15.2069Z" fill="#343434"/>
<path d="M105.599 13.0249H105.156C104.343 13.0249 103.947 12.7215 103.947 12.144V6.98609H105.507C105.951 6.98609 106.16 6.77772 106.16 6.33541V4.86957C106.16 4.47478 105.951 4.26642 105.507 4.26642L103.969 4.24449H103.943L103.947 1.72952C103.947 1.28721 103.734 1.05692 103.335 1.05692C103.331 1.05692 103.313 1.05692 103.218 1.05692C103.086 1.05692 102.943 1.13002 102.873 1.17023C102.804 1.2141 100.631 2.48985 100.609 2.50082C100.584 2.51544 100.481 2.59952 100.481 2.73478C100.481 2.76036 100.481 3.33793 100.481 4.24083H100.478L99.6387 4.37974C99.3822 4.42726 99.221 4.47112 99.1258 4.56616C99.0342 4.65755 98.9866 4.82205 98.9866 5.03041V6.33176C98.9866 6.77407 99.1954 6.98243 99.6167 6.98243H100.478V12.5132C100.478 13.65 100.782 14.4871 101.386 15.0245C101.991 15.5582 103.038 15.836 104.529 15.836H105.599C106.042 15.836 106.273 15.6276 106.273 15.2072V13.6719C106.273 13.2333 106.042 13.0249 105.599 13.0249Z" fill="#343434"/>
<path d="M113.812 13.0249H113.369C112.556 13.0249 112.16 12.7215 112.16 12.144V6.98609H113.721C114.164 6.98609 114.373 6.77772 114.373 6.33541V4.86957C114.373 4.47478 114.164 4.26642 113.721 4.26642L112.182 4.24449H112.156L112.16 1.72952C112.16 1.28721 111.948 1.05692 111.548 1.05692C111.545 1.05692 111.526 1.05692 111.431 1.05692C111.299 1.05692 111.156 1.13002 111.087 1.17023C111.017 1.2141 108.845 2.48985 108.823 2.50082C108.797 2.51544 108.691 2.59952 108.691 2.73478C108.691 2.76036 108.691 3.33793 108.691 4.24083H108.687L107.848 4.37974C107.592 4.42726 107.431 4.47112 107.335 4.56616C107.24 4.65755 107.196 4.82205 107.196 5.03041V6.33176C107.196 6.77407 107.405 6.98243 107.826 6.98243H108.687V12.5132C108.687 13.65 108.991 14.4871 109.596 15.0245C110.2 15.5582 111.248 15.836 112.739 15.836H113.809C114.252 15.836 114.483 15.6276 114.483 15.2072V13.6719C114.49 13.2333 114.255 13.0249 113.812 13.0249Z" fill="#343434"/>
<path d="M30.1786 20.1025C30.3409 20.1025 30.4277 20.1774 30.4767 20.3386L32.896 28.2831C32.9451 28.433 32.8847 28.5192 32.7073 28.5192H31.9223C31.76 28.5192 31.6845 28.433 31.6468 28.2831L31.0617 26.3644H28.4311L27.8574 28.2831C27.8196 28.433 27.7441 28.5192 27.5819 28.5192H26.8572C26.6949 28.5192 26.6345 28.433 26.6836 28.2831L29.1029 20.3386C29.152 20.1774 29.2388 20.1025 29.4011 20.1025H30.1786ZM30.1068 23.1491C29.9559 22.6919 29.7823 21.4778 29.7709 21.3429C29.7445 21.4553 29.5822 22.5908 29.4237 23.1229L28.7141 25.4013H30.8089L30.1068 23.1491Z" fill="#343434"/>
<path d="M38.4973 22.0686C38.4973 21.4015 38.0859 21.0155 36.9876 21.0155C35.8892 21.0155 35.4778 21.3978 35.4778 22.0686V22.3159C35.4778 22.8855 35.8515 23.0466 36.1119 23.1441L38.3803 23.9985C39.1276 24.2833 39.7503 24.7667 39.7503 25.6811V26.7079C39.7503 27.7234 39.0408 28.6116 36.9574 28.6116C34.8777 28.6116 34.1531 27.7197 34.1531 26.7079V25.9884C34.1531 25.816 34.2286 25.741 34.3909 25.741H35.1268C35.2891 25.741 35.3495 25.816 35.3495 25.9884V26.5467C35.3495 27.2138 35.8213 27.5997 36.946 27.5997C38.067 27.5997 38.5539 27.2175 38.5539 26.5467V25.9659C38.5539 25.3475 37.9915 25.1377 37.5084 24.9503L35.4024 24.1446C34.8551 23.9348 34.2927 23.3764 34.2927 22.6119V21.9074C34.2927 20.8919 34.9419 20 36.9725 20C39.003 20 39.6786 20.8919 39.6786 21.9074V22.4508C39.6786 22.6119 39.6182 22.6869 39.4559 22.6869H38.72C38.5463 22.6869 38.4973 22.6119 38.4973 22.4508V22.0686Z" fill="#343434"/>
<path d="M41.7508 28.518C41.5885 28.518 41.5281 28.443 41.5281 28.2706V20.3523C41.5281 20.1799 41.5922 20.105 41.7508 20.105H46.0119C46.1742 20.105 46.2497 20.1687 46.2497 20.3411V20.8994C46.2497 21.0718 46.1742 21.1355 46.0119 21.1355H42.7358V23.6351H45.7892C45.9629 23.6351 46.0383 23.6988 46.0383 23.8711V24.4033C46.0383 24.5644 45.9629 24.6394 45.7892 24.6394H42.7358V27.4987H46.1516C46.3139 27.4987 46.3893 27.5474 46.3893 27.7197V28.2894C46.3893 28.4617 46.3139 28.5254 46.1516 28.5254H41.7508V28.518Z" fill="#343434"/>
<path d="M52.2395 22.0686C52.2395 21.4015 51.8281 21.0155 50.7297 21.0155C49.6314 21.0155 49.22 21.3978 49.22 22.0686V22.3159C49.22 22.8855 49.5937 23.0466 49.8541 23.1441L52.1225 23.9985C52.8698 24.2833 53.4925 24.7667 53.4925 25.6811V26.7079C53.4925 27.7234 52.783 28.6116 50.6996 28.6116C48.6199 28.6116 47.8953 27.7197 47.8953 26.7079V25.9884C47.8953 25.816 47.9708 25.741 48.133 25.741H48.869C49.0313 25.741 49.0917 25.816 49.0917 25.9884V26.5467C49.0917 27.2138 49.5635 27.5997 50.6882 27.5997C51.8092 27.5997 52.2961 27.2175 52.2961 26.5467V25.9659C52.2961 25.3475 51.7337 25.1377 51.2506 24.9503L49.1446 24.1446C48.5973 23.9348 48.0349 23.3764 48.0349 22.6119V21.9074C48.0349 20.8919 48.6841 20 50.7147 20C52.7452 20 53.4208 20.8919 53.4208 21.9074V22.4508C53.4208 22.6119 53.3567 22.6869 53.1981 22.6869H52.4621C52.2885 22.6869 52.2395 22.6119 52.2395 22.4508V22.0686Z" fill="#343434"/>
<path d="M55.2021 21.9074C55.2021 20.8919 55.9004 20 58.0329 20C60.1767 20 60.8749 20.8919 60.8749 21.9074V26.7079C60.8749 27.7234 60.1767 28.6116 58.0329 28.6116C55.9004 28.6116 55.2021 27.7197 55.2021 26.7079V21.9074ZM59.652 22.106C59.652 21.439 59.1538 21.0305 58.0329 21.0305C56.9232 21.0305 56.425 21.439 56.425 22.106V26.5092C56.425 27.1763 56.9232 27.5848 58.0329 27.5848C59.1538 27.5848 59.652 27.1763 59.652 26.5092V22.106Z" fill="#343434"/>
<path d="M63.9513 25.1865V28.2669C63.9513 28.4393 63.9022 28.5142 63.7286 28.5142H62.97C62.8077 28.5142 62.7473 28.4393 62.7473 28.2669V20.3486C62.7473 20.1762 62.8115 20.1013 62.97 20.1013H65.4988C67.6426 20.1013 68.3295 20.9931 68.3295 22.0049V23.2941C68.3295 24.0473 67.9445 24.7293 66.8726 25.0254L68.3672 28.2669C68.4314 28.4168 68.3182 28.5142 68.1445 28.5142H67.3972C67.2236 28.5142 67.1972 28.4168 67.1217 28.2669L65.7139 25.1865H65.5025H63.9513ZM63.9513 21.128V24.1597H65.495C66.616 24.1597 67.1142 23.7625 67.1142 23.0842V22.2073C67.1142 21.5403 66.616 21.1318 65.495 21.1318H63.9513V21.128Z" fill="#343434"/>
<path d="M70.3936 28.518C70.2313 28.518 70.1709 28.443 70.1709 28.2706V20.3523C70.1709 20.1799 70.2351 20.105 70.3936 20.105H74.6547C74.817 20.105 74.8925 20.1687 74.8925 20.3411V20.8994C74.8925 21.0718 74.817 21.1355 74.6547 21.1355H71.3787V23.6351H74.4321C74.6057 23.6351 74.6812 23.6988 74.6812 23.8711V24.4033C74.6812 24.5644 74.6057 24.6394 74.4321 24.6394H71.3787V27.4987H74.7944C74.9567 27.4987 75.0322 27.5474 75.0322 27.7197V28.2894C75.0322 28.4617 74.9567 28.5254 74.7944 28.5254H70.3936V28.518Z" fill="#343434"/>
<path d="M80.8823 22.0686C80.8823 21.4015 80.4709 21.0155 79.3726 21.0155C78.2743 21.0155 77.8629 21.3978 77.8629 22.0686V22.3159C77.8629 22.8855 78.2365 23.0466 78.4969 23.1441L80.7653 23.9985C81.5126 24.2833 82.1354 24.7667 82.1354 25.6811V26.7079C82.1354 27.7234 81.4258 28.6116 79.3424 28.6116C77.2628 28.6116 76.5381 27.7197 76.5381 26.7079V25.9884C76.5381 25.816 76.6136 25.741 76.7759 25.741H77.5119C77.6742 25.741 77.7345 25.816 77.7345 25.9884V26.5467C77.7345 27.2138 78.2063 27.5997 79.3311 27.5997C80.452 27.5997 80.9389 27.2175 80.9389 26.5467V25.9659C80.9389 25.3475 80.3765 25.1377 79.8934 24.9503L77.7874 24.1446C77.2401 23.9348 76.6777 23.3764 76.6777 22.6119V21.9074C76.6777 20.8919 77.3269 20 79.3575 20C81.388 20 82.0636 20.8919 82.0636 21.9074V22.4508C82.0636 22.6119 81.9995 22.6869 81.841 22.6869H81.105C80.9314 22.6869 80.8823 22.6119 80.8823 22.4508V22.0686Z" fill="#343434"/>
<path d="M27.6873 39.9026C27.525 39.9026 27.4646 39.8276 27.4646 39.6552V31.7369C27.4646 31.5645 27.525 31.4896 27.6873 31.4896H31.9485C32.1107 31.4896 32.1862 31.5533 32.1862 31.7257V32.284C32.1862 32.4564 32.1107 32.5201 31.9485 32.5201H28.6724V35.0197H31.7258C31.8994 35.0197 31.9749 35.0834 31.9749 35.2558V35.7879C31.9749 35.949 31.8994 36.024 31.7258 36.024H28.6724V38.8833H32.0881C32.2504 38.8833 32.3259 38.932 32.3259 39.1044V39.674C32.3259 39.8463 32.2504 39.9101 32.0881 39.9101H27.6873V39.9026Z" fill="#343434"/>
<path d="M39.6898 39.6665C39.6898 39.8276 39.6407 39.9025 39.4671 39.9025H38.7802C38.6556 39.9025 38.6065 39.8651 38.5575 39.7901L35.6286 34.6936C35.3531 34.2364 35.2059 33.8505 35.1795 33.8017V39.6665C35.1795 39.8276 35.1153 39.9025 34.9568 39.9025H34.2586C34.0963 39.9025 34.0359 39.8276 34.0359 39.6665V31.7219C34.0359 31.5608 34.0963 31.4858 34.2586 31.4858H34.9568C35.0549 31.4858 35.1191 31.5233 35.1569 31.5833L38.1612 36.7922C38.3348 37.0882 38.5462 37.5829 38.5462 37.5829V31.7182C38.5462 31.557 38.6216 31.4821 38.7839 31.4821H39.4709C39.6445 31.4821 39.6935 31.557 39.6935 31.7182V39.6665H39.6898Z" fill="#343434"/>
<path d="M48.6987 33.4532C48.6987 32.7861 48.2873 32.4001 47.189 32.4001C46.0907 32.4001 45.6793 32.7824 45.6793 33.4532V33.7005C45.6793 34.2701 46.0529 34.4312 46.3133 34.5287L48.5817 35.3831C49.329 35.6679 49.9518 36.1513 49.9518 37.0657V38.0925C49.9518 39.108 49.2422 39.9962 47.1588 39.9962C45.0792 39.9962 44.3545 39.1043 44.3545 38.0925V37.373C44.3545 37.2006 44.43 37.1256 44.5923 37.1256H45.3283C45.4906 37.1256 45.5509 37.2006 45.5509 37.373V37.9313C45.5509 38.5984 46.0227 38.9844 47.1475 38.9844C48.2684 38.9844 48.7553 38.6021 48.7553 37.9313V37.3505C48.7553 36.7322 48.1929 36.5223 47.7098 36.3349L45.6038 35.5292C45.0565 35.3194 44.4941 34.761 44.4941 33.9965V33.292C44.4941 32.2765 45.1433 31.3883 47.1739 31.3883C49.2044 31.3883 49.88 32.2802 49.88 33.292V33.8354C49.88 33.9965 49.8197 34.0715 49.6574 34.0715H48.9214C48.7478 34.0715 48.6987 33.9965 48.6987 33.8354V33.4532Z" fill="#343434"/>
<path d="M51.9524 39.9026C51.7901 39.9026 51.7297 39.8276 51.7297 39.6552V31.7369C51.7297 31.5645 51.7901 31.4896 51.9524 31.4896H56.2136C56.3759 31.4896 56.4514 31.5533 56.4514 31.7257V32.284C56.4514 32.4564 56.3759 32.5201 56.2136 32.5201H52.9375V35.0197H55.9909C56.1645 35.0197 56.24 35.0834 56.24 35.2558V35.7879C56.24 35.949 56.1645 36.024 55.9909 36.024H52.9375V38.8833H56.3532C56.5155 38.8833 56.591 38.932 56.591 39.1044V39.674C56.591 39.8463 56.5155 39.9101 56.3532 39.9101H51.9524V39.9026Z" fill="#343434"/>
<path d="M63.4377 35.6941C63.6 35.6941 63.6755 35.7578 63.6755 35.9152V38.0925C63.6755 39.108 63.0641 39.9962 60.9203 39.9962C58.7765 39.9962 58.165 39.1043 58.165 38.0925V33.292C58.165 32.2765 58.7765 31.3883 60.9203 31.3883C63.0641 31.3883 63.6755 32.2802 63.6755 33.292V33.8354C63.6755 33.9965 63.6113 34.0715 63.4528 34.0715H62.7281C62.5545 34.0715 62.4904 33.9965 62.4904 33.8354V33.4906C62.4904 32.8236 62.0526 32.4151 60.9316 32.4151C59.8106 32.4151 59.3879 32.8236 59.3879 33.4906V37.8939C59.3879 38.5609 59.8106 38.9694 60.9316 38.9694C62.0412 38.9694 62.4904 38.5721 62.4904 37.9051V36.7172H61.0071C60.8448 36.7172 60.7693 36.6535 60.7693 36.4811V35.9115C60.7693 35.7503 60.8448 35.6904 61.0071 35.6904H63.4377V35.6941Z" fill="#343434"/>
<path d="M66.6454 37.8977C66.6454 38.5647 67.1436 38.9732 68.2532 38.9732C69.3742 38.9732 69.8875 38.5647 69.8875 37.8977V31.7369C69.8875 31.5645 69.9479 31.4896 70.1102 31.4896H70.8689C71.0425 31.4896 71.0916 31.5645 71.0916 31.7369V38.0963C71.0916 39.1119 70.3933 40 68.2495 40C66.117 40 65.4187 39.1081 65.4187 38.0963V31.7369C65.4187 31.5645 65.4942 31.4896 65.6565 31.4896H66.4151C66.5774 31.4896 66.6378 31.5645 66.6378 31.7369V37.8977H66.6454Z" fill="#343434"/>
<path d="M74.2245 36.571V39.6514C74.2245 39.8238 74.1754 39.8987 74.0018 39.8987H73.2432C73.0809 39.8987 73.0205 39.8238 73.0205 39.6514V31.7331C73.0205 31.5607 73.0847 31.4858 73.2432 31.4858H75.772C77.9157 31.4858 78.6027 32.3777 78.6027 33.3895V34.6748C78.6027 35.4281 78.2177 36.1101 77.1458 36.4061L78.6404 39.6477C78.7046 39.7976 78.5913 39.895 78.4177 39.895H77.6704C77.4968 39.895 77.4704 39.7976 77.3949 39.6477L75.9871 36.5673H75.7757H74.2245V36.571ZM74.2245 32.5126V35.5442H75.7682C76.8891 35.5442 77.3873 35.147 77.3873 34.4687V33.5918C77.3873 32.9248 76.8891 32.5163 75.7682 32.5163H74.2245V32.5126Z" fill="#343434"/>
<path d="M80.3428 33.292C80.3428 32.2765 81.041 31.3883 83.1735 31.3883C85.3173 31.3883 86.0155 32.2802 86.0155 33.292V38.0925C86.0155 39.108 85.3173 39.9962 83.1735 39.9962C81.041 39.9962 80.3428 39.1043 80.3428 38.0925V33.292ZM84.7927 33.4906C84.7927 32.8236 84.2944 32.4151 83.1735 32.4151C82.0638 32.4151 81.5656 32.8236 81.5656 33.4906V37.8939C81.5656 38.5609 82.0638 38.9694 83.1735 38.9694C84.2944 38.9694 84.7927 38.5609 84.7927 37.8939V33.4906Z" fill="#343434"/>
<path d="M92.0803 33.4532C92.0803 32.7861 91.6689 32.4001 90.5706 32.4001C89.4723 32.4001 89.0609 32.7824 89.0609 33.4532V33.7005C89.0609 34.2701 89.4345 34.4312 89.6949 34.5287L91.9633 35.3831C92.7106 35.6679 93.3333 36.1513 93.3333 37.0657V38.0925C93.3333 39.108 92.6238 39.9962 90.5404 39.9962C88.4607 39.9962 87.7361 39.1043 87.7361 38.0925V37.373C87.7361 37.2006 87.8116 37.1256 87.9739 37.1256H88.7098C88.8721 37.1256 88.9325 37.2006 88.9325 37.373V37.9313C88.9325 38.5984 89.4043 38.9844 90.5291 38.9844C91.65 38.9844 92.1369 38.6021 92.1369 37.9313V37.3505C92.1369 36.7322 91.5745 36.5223 91.0914 36.3349L88.9854 35.5292C88.4381 35.3194 87.8757 34.761 87.8757 33.9965V33.292C87.8757 32.2765 88.5249 31.3883 90.5555 31.3883C92.586 31.3883 93.2616 32.2802 93.2616 33.292V33.8354C93.2616 33.9965 93.1975 34.0715 93.0389 34.0715H92.303C92.1294 34.0715 92.0803 33.9965 92.0803 33.8354V33.4532Z" fill="#343434"/>
</svg>
