<svg width="179" height="177" viewBox="0 0 179 177" fill="none" xmlns="http://www.w3.org/2000/svg">
<path d="M89.6613 174.056C41.7833 174.056 2.99528 135.527 2.99528 88.0282C2.99528 40.5297 41.7834 1.99999 89.6613 2C137.539 2 176.327 40.5297 176.327 88.0282C176.327 135.527 137.539 174.056 89.6613 174.056Z" stroke="#1E71B9" stroke-width="4"/>
<path d="M77.9693 103.385V109.372C77.9693 112.516 80.5139 115.21 83.6571 115.509V134.369C83.6571 143.05 90.8417 150.235 99.523 150.235C108.204 150.235 115.389 143.05 115.389 134.369V122.245C115.389 115.21 121.226 109.372 128.261 109.372C134.997 109.372 140.385 114.611 141.134 121.197C137.242 121.496 134.249 124.789 134.249 128.681V130.327C134.249 134.518 137.691 137.961 141.882 137.961H143.529C147.72 137.961 151.162 134.518 151.162 130.327V128.681C151.162 124.64 148.019 121.496 144.127 121.047C143.529 112.815 136.643 106.229 128.261 106.229C119.58 106.229 112.395 113.414 112.395 122.095V134.219C112.395 141.254 106.558 147.091 99.523 147.091C92.4881 147.091 86.6507 141.254 86.6507 134.219V115.36C89.7939 115.06 92.1888 112.516 92.1888 109.223V103.385C99.2237 102.188 105.81 98.7452 111.048 93.5064C117.784 86.7709 121.526 77.7901 121.526 68.2107C121.526 58.6312 117.784 49.6505 111.048 42.9149L111.198 40.8194C111.647 37.0775 108.953 33.6348 105.061 33.1858C101.319 32.7368 97.8766 35.5807 97.4276 39.3226L97.1282 42.6156C96.9785 44.5614 97.4275 46.2079 98.4753 47.555C99.523 48.9021 101.319 49.9499 102.966 50.0995H103.714C105.211 50.0995 106.708 49.6505 107.905 48.6028C108.654 48.004 109.252 47.2556 109.851 46.2079C115.09 52.195 118.083 59.8286 118.083 67.9113C118.083 76.5927 114.641 84.9747 108.504 90.9619C95.6314 103.834 74.9757 103.834 62.1033 90.9619C49.9793 78.8379 49.3806 59.3796 60.4569 46.5072C61.6543 48.6027 63.8994 49.8002 66.2943 49.8002H67.0427C68.9885 49.6505 70.4853 48.7524 71.5331 47.2556C72.5808 45.9085 73.1796 43.9627 72.8802 42.3162L72.5808 39.0233C72.1318 35.2813 68.6892 32.5871 64.9473 32.8865C61.2053 33.3355 58.511 36.7781 58.8104 40.5201L59.1097 43.2143C45.6386 57.2841 45.7883 79.5862 59.5588 93.3567C65.2466 98.7451 71.3835 102.038 77.9693 103.385ZM143.379 124.191C145.923 124.191 147.869 126.286 147.869 128.681V130.327C147.869 132.872 145.774 134.818 143.379 134.818H141.733C139.188 134.818 137.242 132.722 137.242 130.327V128.681C137.242 126.136 139.338 124.191 141.733 124.191H143.379ZM108.055 40.6697L107.755 43.9627C107.606 44.8608 107.157 45.9085 106.408 46.5072C105.66 47.1059 104.762 47.4053 103.564 47.2556C102.666 47.1059 101.619 46.6569 101.02 45.9085C100.421 45.1601 100.122 44.262 100.271 43.0646L100.571 39.7717C100.72 37.8258 102.517 36.4788 104.313 36.4788H104.762C106.857 36.7781 108.354 38.5742 108.055 40.6697ZM81.1126 103.984C82.6093 104.134 84.1061 104.283 85.6029 104.283C86.6507 104.283 87.9978 104.283 89.0455 104.134V109.223C89.0455 110.719 87.8481 112.216 86.0519 112.216H83.9565C82.4597 112.216 80.9629 111.019 80.9629 109.223V103.984H81.1126ZM65.995 36.6284H66.444C67.1924 36.6284 68.0905 36.9278 68.8389 37.3768C69.5873 37.9756 70.0363 38.8736 70.186 39.9214L70.4854 43.2143C70.6351 44.1124 70.3357 45.3098 69.737 46.0582C69.1383 46.8066 68.2402 47.2556 67.1924 47.4053C65.0969 47.555 63.3008 46.2079 63.0014 44.1124L62.7021 40.6697C62.4027 38.5742 63.8995 36.7781 65.995 36.6284Z" fill="#1E71B9"/>
<path d="M77.9693 103.385V109.372C77.9693 112.516 80.5139 115.21 83.6571 115.509V134.369C83.6571 143.05 90.8417 150.235 99.523 150.235C108.204 150.235 115.389 143.05 115.389 134.369V122.245C115.389 115.21 121.226 109.372 128.261 109.372C134.997 109.372 140.385 114.611 141.134 121.197C137.242 121.496 134.249 124.789 134.249 128.681V130.327C134.249 134.518 137.691 137.961 141.882 137.961H143.529C147.72 137.961 151.162 134.518 151.162 130.327V128.681C151.162 124.64 148.019 121.496 144.127 121.047C143.529 112.815 136.643 106.229 128.261 106.229C119.58 106.229 112.395 113.414 112.395 122.095V134.219C112.395 141.254 106.558 147.091 99.523 147.091C92.4881 147.091 86.6507 141.254 86.6507 134.219V115.36C89.7939 115.06 92.1888 112.516 92.1888 109.223V103.385C99.2237 102.188 105.81 98.7452 111.048 93.5064C117.784 86.7709 121.526 77.7901 121.526 68.2107C121.526 58.6312 117.784 49.6505 111.048 42.9149L111.198 40.8194C111.647 37.0775 108.953 33.6348 105.061 33.1858C101.319 32.7368 97.8766 35.5807 97.4276 39.3226L97.1282 42.6156C96.9785 44.5614 97.4275 46.2079 98.4753 47.555C99.523 48.9021 101.319 49.9499 102.966 50.0995H103.714C105.211 50.0995 106.708 49.6505 107.905 48.6028C108.654 48.004 109.252 47.2556 109.851 46.2079C115.09 52.195 118.083 59.8286 118.083 67.9113C118.083 76.5927 114.641 84.9747 108.504 90.9619C95.6314 103.834 74.9757 103.834 62.1033 90.9619C49.9793 78.8379 49.3806 59.3796 60.4569 46.5072C61.6543 48.6027 63.8994 49.8002 66.2943 49.8002H67.0427C68.9885 49.6505 70.4853 48.7524 71.5331 47.2556C72.5808 45.9085 73.1796 43.9627 72.8802 42.3162L72.5808 39.0233C72.1318 35.2813 68.6892 32.5871 64.9473 32.8865C61.2053 33.3355 58.511 36.7781 58.8104 40.5201L59.1097 43.2143C45.6386 57.2841 45.7883 79.5862 59.5588 93.3567C65.2466 98.7451 71.3835 102.038 77.9693 103.385ZM143.379 124.191C145.923 124.191 147.869 126.286 147.869 128.681V130.327C147.869 132.872 145.774 134.818 143.379 134.818H141.733C139.188 134.818 137.242 132.722 137.242 130.327V128.681C137.242 126.136 139.338 124.191 141.733 124.191H143.379ZM108.055 40.6697L107.755 43.9627C107.606 44.8608 107.157 45.9085 106.408 46.5072C105.66 47.1059 104.762 47.4053 103.564 47.2556C102.666 47.1059 101.619 46.6569 101.02 45.9085C100.421 45.1601 100.122 44.262 100.271 43.0646L100.571 39.7717C100.72 37.8258 102.517 36.4788 104.313 36.4788H104.762C106.857 36.7781 108.354 38.5742 108.055 40.6697ZM81.1126 103.984C82.6093 104.134 84.1061 104.283 85.6029 104.283C86.6507 104.283 87.9978 104.283 89.0455 104.134V109.223C89.0455 110.719 87.8481 112.216 86.0519 112.216H83.9565C82.4597 112.216 80.9629 111.019 80.9629 109.223V103.984H81.1126ZM65.995 36.6284H66.444C67.1924 36.6284 68.0905 36.9278 68.8389 37.3768C69.5873 37.9756 70.0363 38.8736 70.186 39.9214L70.4854 43.2143C70.6351 44.1124 70.3357 45.3098 69.737 46.0582C69.1383 46.8066 68.2402 47.2556 67.1924 47.4053C65.0969 47.555 63.3008 46.2079 63.0014 44.1124L62.7021 40.6697C62.4027 38.5742 63.8995 36.7781 65.995 36.6284Z" fill="#1E71B9"/>
</svg>
