<svg width="81" height="50" viewBox="0 0 81 50" fill="none" xmlns="http://www.w3.org/2000/svg">
<path d="M78.8581 6.6481L63.7254 7.73834C62.4633 7.83214 61.283 8.40056 60.4207 9.3299C59.5583 10.2592 59.0775 11.481 59.0742 12.7508V13.8543C55.523 15.822 47.7843 19.3587 43.0272 18.8667C42.7622 18.5077 42.4972 18.1089 42.2057 17.6701C40.3108 14.8249 37.4618 10.5304 31.5121 9.3338L30.6507 9.14767C28.2126 8.60255 24.542 7.81811 21.0702 10.9957C21.0369 11.0337 21.0059 11.0737 20.9775 11.1154L19.1356 10.8761L25.6816 2.12761C25.8293 1.93008 25.9192 1.6952 25.9413 1.44928C25.9634 1.20336 25.9168 0.956132 25.8067 0.735285C25.6967 0.514438 25.5275 0.328703 25.3182 0.198892C25.1088 0.0690819 24.8676 0.000324379 24.6215 0.000324379C22.307 -0.0156817 20.0266 0.560905 17.996 1.67556C9.92611 6.20935 4.74495 16.1278 3.69812 23.5999C3.67467 23.8351 3.71412 24.0723 3.8124 24.287C3.91067 24.5018 4.06423 24.6864 4.25726 24.8219C4.45028 24.9573 4.6758 25.0387 4.91058 25.0576C5.14536 25.0765 5.38093 25.0323 5.59302 24.9295L6.40133 24.5306C7.75528 23.7783 9.21685 23.2401 10.7344 22.9352C13.0063 22.3819 15.3835 22.4415 17.625 23.108L16.6709 25.2619C13.5971 24.2297 10.2457 24.4204 7.3079 25.7945C4.37007 27.1687 2.06976 29.6215 0.8813 32.6473C-0.307155 35.673 -0.293138 39.041 0.920462 42.0567C2.13406 45.0724 4.45471 47.5059 7.40388 48.8554C10.3531 50.2048 13.7059 50.3674 16.771 49.3095C19.8361 48.2517 22.3798 46.054 23.8775 43.1698C25.3753 40.2855 25.7129 36.9346 24.8207 33.808C23.9286 30.6813 21.8747 28.0174 19.0826 26.3654L20.0632 24.1982L20.5535 24.4641C22.1836 25.543 23.5849 26.9349 24.6765 28.5596C25.7682 30.1843 26.5286 32.0097 26.914 33.9306C27.6557 37.0794 27.3148 40.3873 25.9466 43.3172C25.8535 43.5191 25.8124 43.7411 25.8269 43.963C25.8415 44.1849 25.9113 44.3996 26.0299 44.5875C26.1486 44.7753 26.3123 44.9303 26.5061 45.0382C26.6999 45.1461 26.9176 45.2035 27.1392 45.2052H47.2543C47.4764 45.207 47.6955 45.1527 47.8912 45.0473C48.087 44.942 48.2532 44.7889 48.3746 44.6022C48.496 44.4156 48.5686 44.2013 48.5859 43.9791C48.6032 43.7568 48.5645 43.5338 48.4734 43.3305C47.8381 41.8972 47.4355 40.3711 47.2808 38.81L49.3082 39.169C49.7658 42.1439 51.2639 44.8581 53.5343 46.8257C55.8047 48.7932 58.699 49.8855 61.6989 49.9069C64.6988 49.9283 67.6084 48.8774 69.9064 46.9425C72.2045 45.0076 73.7409 42.315 74.2406 39.3469C74.7403 36.3789 74.1705 33.3294 72.6334 30.7444C71.0963 28.1595 68.6922 26.208 65.8517 25.2396C63.0113 24.2711 59.9199 24.3489 57.1314 25.459C54.3429 26.5691 52.0394 28.6391 50.6333 31.2981L48.6059 30.9391C49.885 28.4292 51.8302 26.3225 54.2269 24.8515C56.6236 23.3805 59.3787 22.6023 62.1882 22.6028C63.4731 22.6062 64.7459 22.3542 65.9332 21.8613C67.1204 21.3684 68.1985 20.6443 69.1053 19.7309L79.8784 8.92164C80.0682 8.72987 80.1952 8.48463 80.2425 8.21859C80.2899 7.95256 80.2553 7.67836 80.1434 7.43254C80.0337 7.18645 79.852 6.97965 79.6224 6.83955C79.3929 6.69946 79.1263 6.63269 78.8581 6.6481V6.6481ZM22.6339 37.2279C22.6366 39.3281 21.9792 41.3756 20.7552 43.0794C19.5312 44.7831 17.803 46.0562 15.8164 46.7176C13.8297 47.379 11.6858 47.3951 9.68952 46.7634C7.69325 46.1318 5.94631 44.8847 4.69715 43.1995C3.448 41.5143 2.76025 39.4768 2.73173 37.3768C2.7032 35.2768 3.33536 33.2212 4.53827 31.5025C5.74119 29.7837 7.45362 28.4893 9.43199 27.8034C11.4104 27.1174 13.5539 27.0748 15.5578 27.6817L13.0269 33.2392H12.6956C11.7726 33.2386 10.8782 33.5603 10.1658 34.149C9.45334 34.7377 8.96727 35.5569 8.79094 36.4659C8.61461 37.3749 8.75901 38.3171 9.19938 39.1309C9.63974 39.9448 10.3486 40.5796 11.2044 40.9263C12.0602 41.2731 13.0096 41.3103 13.8898 41.0315C14.7699 40.7527 15.526 40.1754 16.0282 39.3984C16.5305 38.6215 16.7476 37.6934 16.6425 36.7734C16.5373 35.8533 16.1163 34.9987 15.4518 34.356L17.996 28.7985C19.4163 29.6955 20.5867 30.9392 21.3978 32.4134C22.2089 33.8876 22.6341 35.544 22.6339 37.2279V37.2279ZM11.3705 37.2279C11.3655 37.2943 11.3655 37.3609 11.3705 37.4273C11.3652 37.3609 11.3652 37.2943 11.3705 37.2279V37.2279ZM11.9933 38.3447C11.9023 38.2928 11.8178 38.2304 11.7415 38.1586C11.8185 38.2257 11.903 38.2837 11.9933 38.3314V38.3447ZM11.5957 37.9458C11.545 37.8793 11.5006 37.8081 11.4632 37.7331C11.5013 37.8035 11.5457 37.8702 11.5957 37.9325V37.9458ZM11.3705 36.9487C11.3616 36.8603 11.3616 36.7712 11.3705 36.6828C11.3616 36.7712 11.3616 36.8603 11.3705 36.9487ZM12.6956 38.5574C12.517 38.5529 12.3413 38.5122 12.1788 38.4378C12.3413 38.5122 12.517 38.5529 12.6956 38.5574ZM13.6629 38.1453L13.5834 38.2118L13.6629 38.1453ZM13.2919 38.4112H13.1726H13.2919ZM30.0677 11.7403L30.9953 11.9397C33.5059 12.441 35.7774 13.7701 37.4485 15.7157C33.4456 13.7416 29.1642 12.3964 24.754 11.727C26.4818 11.1658 28.3427 11.1704 30.0677 11.7403V11.7403ZM61.7245 27.2562C63.586 27.2554 65.4104 27.7792 66.9898 28.768C68.5692 29.7567 69.84 31.1707 70.6575 32.8488C71.4751 34.5269 71.8064 36.4017 71.6138 38.2595C71.4212 40.1173 70.7124 41.8835 69.5682 43.3569C68.424 44.8303 66.8904 45.9516 65.142 46.593C63.3936 47.2345 61.5008 47.3704 59.6793 46.9852C57.8577 46.6 56.1806 45.7092 54.8389 44.4142C53.4973 43.1193 52.5452 41.4724 52.0909 39.661L60.9161 41.2165C61.932 41.3425 62.9571 41.0704 63.778 40.4569C64.5989 39.8435 65.1524 38.936 65.3231 37.9234C65.4939 36.9108 65.2688 35.8711 64.6947 35.0209C64.1206 34.1706 63.2418 33.5753 62.2412 33.3589L53.4028 31.7767C54.3078 30.3902 55.5421 29.2512 56.9947 28.4621C58.4473 27.673 60.0726 27.2586 61.7245 27.2562V27.2562ZM61.8437 35.9781C62.0151 36.0086 62.1789 36.0727 62.3257 36.1667C62.4724 36.2607 62.5992 36.3828 62.6989 36.5261C62.7986 36.6693 62.8692 36.8308 62.9066 37.0014C62.944 37.1721 62.9476 37.3484 62.917 37.5204C62.8867 37.6924 62.8228 37.8567 62.7291 38.0039C62.6354 38.1512 62.5137 38.2784 62.3709 38.3785C62.2282 38.4785 62.0672 38.5493 61.8971 38.5868C61.7271 38.6244 61.5513 38.628 61.3799 38.5973L47.1483 36.0978C47.1483 35.9382 47.1483 35.7654 47.1483 35.6058C47.2319 34.882 47.3737 34.1661 47.5723 33.4652L61.8437 35.9781ZM67.2501 17.8563C66.5863 18.5234 65.797 19.0515 64.928 19.4098C64.059 19.7682 63.1277 19.9496 62.1882 19.9437C59.4328 19.8687 56.6996 20.4583 54.2183 21.663C51.7371 22.8677 49.5801 24.6522 47.9287 26.8666C46.2773 29.0811 45.1797 31.6609 44.728 34.3892C44.2763 37.1176 44.4837 39.9149 45.3329 42.5461H29.0871C30.0657 39.5707 30.2033 36.3814 29.4847 33.3323C29.025 31.0739 28.1245 28.929 26.835 27.0214C25.5455 25.1137 23.8925 23.481 21.9713 22.2172C20.2256 21.1349 18.2807 20.4159 16.2524 20.103C14.2241 19.7901 12.1538 19.8896 10.1646 20.3957C9.02869 20.6298 7.91892 20.9772 6.85187 21.4328C8.41549 15.0509 12.8546 7.60538 19.2548 3.98899C20.0263 3.55954 20.8504 3.23324 21.7063 3.01842L15.6108 11.1686C15.4674 11.3589 15.3777 11.5844 15.3511 11.8215C15.3245 12.0585 15.3619 12.2984 15.4595 12.5159C15.5571 12.7335 15.7112 12.9207 15.9057 13.0579C16.1001 13.1951 16.3278 13.2773 16.5649 13.2959C21.216 13.6549 34.1888 15.4763 38.2568 19.5581C44.1138 25.4347 59.3525 16.7793 61.0619 15.7821C61.2641 15.665 61.4319 15.4963 61.5482 15.2932C61.6646 15.0901 61.7254 14.8597 61.7245 14.6254V12.7508C61.7262 12.1507 61.9538 11.5735 62.3617 11.1346C62.7696 10.6958 63.3277 10.4277 63.9241 10.3842L75.5055 9.55983L67.2501 17.8563Z" fill="#343434"/>
</svg>
