<svg width="351" height="338" viewBox="0 0 351 338" fill="none" xmlns="http://www.w3.org/2000/svg">
<path d="M200.832 38.0854C200.832 38.0854 204.508 47.4667 203.019 48.9405C201.529 50.4142 198.043 48.4651 198.043 48.4651" fill="white"/>
<path d="M201.448 50.2874C200.119 50.2056 198.824 49.8265 197.661 49.1782C197.569 49.1284 197.488 49.061 197.422 48.9799C197.357 48.8987 197.308 48.8054 197.278 48.7052C197.249 48.6051 197.239 48.5001 197.251 48.3964C197.262 48.2926 197.294 48.1921 197.344 48.1006C197.447 47.918 197.618 47.7838 197.82 47.7273C198.022 47.6709 198.238 47.6968 198.421 47.7995C199.388 48.3224 201.591 49.1782 202.462 48.3858C203.017 47.7044 201.908 43.0296 200.101 38.4024C200.023 38.2069 200.026 37.9886 200.11 37.7955C200.193 37.6023 200.349 37.4501 200.545 37.3723C200.74 37.2946 200.959 37.2977 201.152 37.3809C201.345 37.4641 201.497 37.6206 201.575 37.816C202.732 40.7794 205.267 47.8629 203.572 49.5109C203.289 49.7783 202.955 49.985 202.59 50.1186C202.225 50.2521 201.836 50.3096 201.448 50.2874Z" fill="#231F20"/>
<path d="M202.541 19.957C206.17 25.3924 203.032 34.219 201.717 40.1774C200.491 45.6287 199.155 51.0482 197.707 56.4361C196.788 59.859 187.819 58.0208 186.456 56.6422L178.533 76.7041C174.805 74.9036 171.287 72.6982 168.042 70.1277C161.529 65.2469 162.496 59.5896 162.496 59.5896C165.253 48.6554 171.56 36.9288 176.156 26.5809C177.036 24.2853 178.398 22.205 180.149 20.4799C181.733 19.2018 183.538 18.2244 185.474 17.5958C189.879 16.0111 194.982 14.7751 199.149 16.9778C200.515 17.6661 201.682 18.6915 202.541 19.957V19.957Z" fill="white"/>
<path d="M178.532 77.4965C178.432 77.5117 178.33 77.5117 178.231 77.4965C174.445 75.6588 170.869 73.4166 167.566 70.8091C160.752 65.6906 161.671 59.7164 161.703 59.5104C163.81 51.2067 167.819 42.6495 171.718 34.3775C173.001 31.6202 174.269 28.9262 175.426 26.3115C176.352 23.9205 177.785 21.7582 179.625 19.9728C181.286 18.6027 183.181 17.545 185.219 16.851C189.07 15.3931 194.727 13.6816 199.481 16.2647C200.955 16.9999 202.223 18.0888 203.173 19.434V19.434C206.422 24.3148 204.615 31.5251 203.173 37.3091C202.904 38.355 202.65 39.3375 202.46 40.2566C201.24 45.6921 199.893 51.1909 198.451 56.5629C198.261 57.1474 197.913 57.6681 197.446 58.0679C196.98 58.4677 196.411 58.731 195.805 58.829C192.762 59.349 189.634 58.9689 186.804 57.7356L179.245 76.926C179.159 77.1195 179.007 77.2765 178.817 77.3697C178.728 77.4254 178.632 77.4681 178.532 77.4965ZM193.903 16.5499C191.097 16.6525 188.333 17.2591 185.742 18.3406C183.908 18.9517 182.193 19.8737 180.671 21.0662C178.998 22.7163 177.705 24.7119 176.884 26.9137C175.711 29.5284 174.443 32.2382 173.144 34.9955C169.372 43.2041 165.316 51.698 163.256 59.7957C163.256 59.9383 162.511 64.9775 168.517 69.4939C171.499 71.8146 174.681 73.8669 178.025 75.6265L185.631 56.3569C185.678 56.2314 185.757 56.1202 185.86 56.0341C185.962 55.948 186.086 55.89 186.217 55.8657C186.345 55.8426 186.477 55.8507 186.601 55.8893C186.725 55.9279 186.838 55.9959 186.931 56.0875C189.526 57.405 192.475 57.8549 195.345 57.3711C196.222 57.1281 196.75 56.7478 196.93 56.2301C198.372 50.8739 199.719 45.4068 200.923 40.0031C201.129 39.0681 201.383 38.0539 201.652 37.0081C203.015 31.5092 204.726 24.6793 201.874 20.4007C201.068 19.2362 199.977 18.2978 198.705 17.675C197.219 16.9173 195.571 16.5312 193.903 16.5499V16.5499Z" fill="#231F20"/>
<path d="M198.452 52.3319C196.898 52.2946 195.409 51.707 194.248 50.6739C193.087 49.6408 192.331 48.2291 192.113 46.6904" fill="white"/>
<path d="M198.441 53.1242C196.687 53.0897 195.003 52.4335 193.688 51.2725C192.373 50.1116 191.514 48.5214 191.262 46.7855C191.239 46.6835 191.236 46.5779 191.254 46.4748C191.271 46.3716 191.309 46.273 191.365 46.1846C191.421 46.0962 191.494 46.0198 191.58 45.9597C191.665 45.8996 191.762 45.8572 191.864 45.8347C191.965 45.8115 192.07 45.8087 192.172 45.8265C192.274 45.8444 192.372 45.8825 192.459 45.9386C192.546 45.9947 192.621 46.0677 192.679 46.1533C192.738 46.2389 192.779 46.3353 192.799 46.4369C192.972 47.8127 193.636 49.0795 194.671 50.003C195.705 50.9265 197.038 51.4442 198.425 51.4603C198.635 51.4603 198.837 51.5438 198.985 51.6923C199.134 51.8409 199.217 52.0425 199.217 52.2526C199.217 52.4628 199.134 52.6643 198.985 52.8129C198.837 52.9615 198.635 53.0449 198.425 53.0449L198.441 53.1242Z" fill="#231F20"/>
<path d="M186.456 56.6262C183.969 55.1986 181.944 53.0864 180.624 50.541C180.624 50.541 176.345 61.6337 182.953 65.4845L186.456 56.6262Z" fill="#231F20"/>
<path d="M182.956 66.2927C182.816 66.2955 182.678 66.2569 182.56 66.1818C175.46 61.9666 179.707 50.7471 179.897 50.3351C179.956 50.1873 180.057 50.0605 180.189 49.9711C180.32 49.8818 180.475 49.834 180.634 49.834C180.793 49.834 180.948 49.8818 181.08 49.9711C181.211 50.0605 181.313 50.1873 181.371 50.3351C182.618 52.6799 184.502 54.6246 186.807 55.9448C186.974 56.0387 187.101 56.19 187.165 56.3707C187.229 56.5513 187.226 56.7491 187.155 56.9273L183.637 65.7857C183.595 65.8942 183.529 65.9918 183.444 66.0714C183.359 66.1509 183.257 66.2103 183.146 66.2452C183.085 66.2706 183.021 66.2866 182.956 66.2927V66.2927ZM180.832 52.5853C180.04 55.5011 179.042 61.3644 182.591 64.2802L185.476 56.9749C183.665 55.8179 182.089 54.3285 180.832 52.5853Z" fill="#231F20"/>
<path d="M205.409 35.154C205.567 34.4092 190.576 31.3032 190.576 31.3032C190.576 31.3032 188.31 33.1573 191.163 37.0081C194.015 40.8588 203.84 42.7604 205.409 35.154Z" fill="#231F20"/>
<path d="M198.818 41.1757C197.249 41.1968 195.695 40.8777 194.261 40.2403C192.828 39.6029 191.549 38.6623 190.514 37.4834C187.266 33.078 190.039 30.7168 190.07 30.701C190.161 30.6238 190.268 30.568 190.383 30.5378C190.499 30.5076 190.619 30.5038 190.736 30.5267C206.583 33.7911 206.377 34.4408 206.187 35.2807C205.968 36.662 205.331 37.9432 204.362 38.9518C203.393 39.9604 202.138 40.648 200.767 40.9221C200.129 41.0804 199.475 41.1655 198.818 41.1757V41.1757ZM190.895 32.1747C190.546 32.7135 190.039 34.1239 191.829 36.5484C192.907 37.7201 194.266 38.5981 195.777 39.0999C197.288 39.6017 198.901 39.7107 200.466 39.4167C201.452 39.2272 202.362 38.7571 203.088 38.0627C203.813 37.3684 204.322 36.4794 204.554 35.5025C202.89 34.8528 196.679 33.3949 190.863 32.1747H190.895Z" fill="#231F20"/>
<path d="M190.578 32.0955H190.403L184.889 30.8119C184.785 30.788 184.686 30.7438 184.599 30.6818C184.512 30.6199 184.438 30.5415 184.382 30.451C184.325 30.3605 184.287 30.2597 184.269 30.1544C184.251 30.0491 184.255 29.9414 184.279 29.8373C184.302 29.7333 184.347 29.635 184.409 29.548C184.47 29.461 184.549 29.3871 184.639 29.3304C184.73 29.2738 184.831 29.2355 184.936 29.2178C185.041 29.2001 185.149 29.2033 185.253 29.2272L190.752 30.5108C190.962 30.5339 191.154 30.6396 191.287 30.8045C191.419 30.9695 191.48 31.1802 191.457 31.3903C191.434 31.6005 191.328 31.7928 191.163 31.9251C190.998 32.0573 190.788 32.1186 190.578 32.0955V32.0955Z" fill="#231F20"/>
<path d="M203.697 28.3082C204.9 27.6466 205.814 26.5626 206.264 25.2656C206.558 23.8745 206.327 22.4236 205.614 21.193C203 16.027 196.582 13.6341 190.845 14.3631C188.279 14.6382 185.831 15.5836 183.746 17.1046C180.957 19.2439 177.265 25.8995 181.638 28.3874C183.267 28.992 185.01 29.2301 186.741 29.0847C189.34 29.2432 191.907 29.7661 194.506 29.9563C197.666 30.3754 200.879 29.7994 203.697 28.3082V28.3082Z" fill="white"/>
<path d="M196.581 30.8278C195.836 30.8278 195.123 30.8278 194.442 30.8278C193.158 30.7327 191.875 30.5584 190.639 30.3999C189.402 30.2415 188.008 30.0354 186.693 29.9562H185.536C184.064 30.0618 182.588 29.8005 181.241 29.1956C180.537 28.8019 179.948 28.2304 179.534 27.538C179.12 26.8455 178.894 26.0565 178.88 25.2497C178.658 21.9219 181.305 18.0078 183.317 16.4865C185.508 14.8692 188.09 13.8629 190.797 13.5707C197.358 12.7467 203.775 15.7258 206.359 20.8285C207.171 22.2315 207.426 23.8893 207.072 25.4716C206.571 26.966 205.531 28.2202 204.156 28.9896C201.851 30.2938 199.228 30.9303 196.581 30.8278V30.8278ZM192.968 14.9811C192.29 14.9843 191.613 15.0266 190.94 15.1078C188.511 15.3714 186.194 16.2675 184.221 17.7067C182.509 19.022 180.243 22.4607 180.417 25.1071C180.429 25.6373 180.582 26.1548 180.861 26.6061C181.139 27.0574 181.533 27.4262 182.002 27.6743C183.116 28.1303 184.32 28.3203 185.52 28.2289C185.948 28.2289 186.36 28.2289 186.756 28.2289C188.119 28.2289 189.498 28.4825 190.813 28.6726C192.128 28.8628 193.285 28.9896 194.521 29.0846C197.525 29.4661 200.574 28.9127 203.253 27.5C204.286 26.9424 205.076 26.0223 205.471 24.917C205.706 23.7203 205.491 22.4792 204.869 21.4307C203.647 19.3885 201.896 17.7142 199.801 16.5846C197.707 15.4549 195.346 14.9119 192.968 15.0127V14.9811Z" fill="#231F20"/>
<path d="M177.728 49.1942L178.045 49.0199C182.799 46.2467 184.542 39.8764 184.874 35.2016C185.096 31.9213 186.158 26.6919 188.598 24.1089C191.594 20.9395 207.424 27.5318 207.424 27.5318C212.575 4.98185 179.059 -5.74639 163.925 6.931C160.448 10.0442 157.734 13.9164 155.995 18.2474C154.255 22.5784 153.536 27.2519 153.894 31.9055C154.322 38.7671 157.856 50.1609 166.033 50.7631C168.45 50.9379 170.879 50.8422 173.275 50.4778C174.82 50.3022 176.326 49.8683 177.728 49.1942V49.1942Z" fill="white"/>
<path d="M168.392 51.6662C167.584 51.6662 166.807 51.6662 165.983 51.5711C157.378 50.9531 153.559 39.5276 153.1 31.9846C152.75 27.2108 153.496 22.4201 155.281 17.9789C157.066 13.5377 159.843 9.56358 163.4 6.36038C172.908 -1.64223 188.438 -0.374483 198.025 5.47296C206.535 10.639 210.243 18.7367 208.199 27.6584C208.174 27.7711 208.125 27.8767 208.053 27.9673C207.982 28.0579 207.891 28.1311 207.787 28.1813C207.683 28.2318 207.569 28.258 207.454 28.258C207.339 28.258 207.225 28.2318 207.121 28.1813C200.783 25.5191 190.973 22.635 189.183 24.5683C187.091 26.8027 185.903 31.525 185.649 35.2014C185.491 37.7052 184.46 46.1357 178.455 49.6537L178.106 49.8438C176.612 50.5756 175.004 51.0472 173.352 51.2383C171.712 51.5057 170.054 51.6487 168.392 51.6662ZM180.467 2.28777C174.674 2.07731 168.992 3.92422 164.43 7.50134C161.058 10.5441 158.427 14.3179 156.738 18.534C155.048 22.7501 154.346 27.2968 154.684 31.8261C155.096 38.5451 158.567 49.3843 166.094 49.9389C168.453 50.1137 170.824 50.018 173.162 49.6537C174.62 49.4829 176.039 49.0706 177.361 48.4335V48.4335L177.646 48.275C182.987 45.1057 183.985 37.3883 184.08 35.0747C184.334 31.3982 185.506 26.153 188.01 23.4749C190.958 20.3055 202.795 24.7109 206.836 26.3431C208.262 18.4197 204.792 11.3838 197.201 6.75654C192.115 3.81599 186.342 2.27417 180.467 2.28777V2.28777Z" fill="#231F20"/>
<path d="M173.511 45.3592C173.355 45.3564 173.203 45.3086 173.073 45.2214C172.944 45.1342 172.843 45.0115 172.782 44.868C172.528 44.2817 166.839 30.4316 175 18.4198C176.412 16.2043 178.47 14.4754 180.896 13.4665C183.321 12.4577 185.998 12.2175 188.565 12.7784C194.745 13.8401 200.688 18.2772 201.48 21.2564C201.506 21.3573 201.512 21.4624 201.498 21.5657C201.483 21.6689 201.448 21.7683 201.395 21.8581C201.342 21.9479 201.272 22.0264 201.189 22.089C201.106 22.1516 201.011 22.1971 200.91 22.223C200.708 22.2765 200.493 22.2482 200.312 22.1444C200.131 22.0405 199.999 21.8695 199.943 21.6684C199.357 19.4657 194.095 15.3297 188.296 14.3472C186.031 13.8534 183.67 14.0639 181.529 14.9505C179.387 15.8371 177.568 17.3573 176.315 19.3072C168.63 30.6059 174.192 44.1232 174.24 44.25C174.281 44.3457 174.304 44.4487 174.306 44.5531C174.308 44.6576 174.289 44.7614 174.251 44.8586C174.213 44.9558 174.156 45.0445 174.083 45.1195C174.01 45.1946 173.923 45.2545 173.828 45.2958C173.725 45.3321 173.619 45.3535 173.511 45.3592V45.3592Z" fill="#D1D3D4"/>
<path d="M235.833 119.142C235.692 119.142 235.554 119.106 235.431 119.036C235.309 118.967 235.207 118.866 235.135 118.745L222.886 97.5267C222.821 97.437 222.775 97.3347 222.752 97.2262C222.729 97.1178 222.729 97.0058 222.751 96.8973C222.774 96.7888 222.82 96.6863 222.885 96.5965C222.95 96.5066 223.033 96.4314 223.128 96.3757C223.224 96.3199 223.331 96.285 223.441 96.273C223.551 96.261 223.663 96.2722 223.768 96.306C223.874 96.3398 223.971 96.3954 224.054 96.4692C224.137 96.543 224.203 96.6333 224.249 96.7343L236.514 117.953C236.568 118.042 236.603 118.141 236.618 118.244C236.632 118.347 236.626 118.452 236.599 118.552C236.573 118.653 236.526 118.747 236.463 118.829C236.399 118.911 236.32 118.98 236.229 119.031C236.11 119.104 235.973 119.143 235.833 119.142V119.142Z" fill="#231F20"/>
<path d="M220.435 104.832C220.224 104.831 220.021 104.752 219.865 104.61C219.718 104.459 219.637 104.258 219.637 104.048C219.637 103.838 219.718 103.636 219.865 103.485C220.245 102.819 223.208 93.866 224.983 88.3989C225.012 88.2964 225.062 88.2009 225.129 88.1181C225.196 88.0352 225.279 87.9667 225.373 87.9167C225.467 87.8667 225.57 87.8362 225.677 87.8269C225.783 87.8177 225.89 87.83 225.991 87.8631C226.092 87.8961 226.186 87.9493 226.266 88.0193C226.346 88.0894 226.412 88.1749 226.458 88.2708C226.505 88.3667 226.531 88.4709 226.536 88.5773C226.542 88.6838 226.525 88.7901 226.489 88.8901C221.592 103.992 221.164 104.436 220.99 104.61C220.839 104.751 220.641 104.83 220.435 104.832V104.832Z" fill="#231F20"/>
<path d="M261.523 117.002C261.523 117.002 268.1 120.679 269.177 127.778C270.635 137.286 265.58 140.456 265.58 140.456L261.523 117.002Z" fill="#231F20"/>
<path d="M29.2084 211.924C29.2084 211.924 23.361 209.864 20.778 210.894C18.1949 211.924 0.367366 240.765 2.03127 242.176C3.69518 243.586 12.0464 242.176 12.0464 242.176L29.2084 211.924Z" fill="white"/>
<path d="M22.6496 210.609C24.8863 210.745 27.0939 211.187 29.2101 211.924L12.0481 242.176C9.83651 242.543 7.60194 242.755 5.36076 242.81C4.21325 242.931 3.05538 242.711 2.03295 242.176C0.369044 240.765 18.1808 211.924 20.7796 210.894C21.3797 210.684 22.0139 210.587 22.6496 210.609V210.609ZM22.6496 209.024C21.8131 208.999 20.9795 209.134 20.1933 209.421C16.7387 210.783 1.17723 236.946 0.384889 241.273C0.284211 241.647 0.288626 242.041 0.397657 242.413C0.506687 242.785 0.716112 243.12 1.00291 243.38C2.29445 244.212 3.83456 244.571 5.36076 244.394C7.69174 244.336 10.016 244.119 12.3175 243.745L13.0623 243.618L13.4267 242.952L30.5888 212.701L31.5237 211.116L29.733 210.482C27.4473 209.694 25.0636 209.225 22.6496 209.088V209.024Z" fill="#231F20"/>
<path d="M50.4567 336.781C73.5705 336.781 92.3079 318.043 92.3079 294.93C92.3079 271.816 73.5705 253.078 50.4567 253.078C27.3429 253.078 8.60547 271.816 8.60547 294.93C8.60547 318.043 27.3429 336.781 50.4567 336.781Z" fill="#231F20"/>
<path d="M50.5264 337.573C42.0923 337.573 33.8476 335.072 26.8349 330.386C19.8222 325.701 14.3565 319.041 11.1289 311.248C7.90129 303.456 7.0568 294.882 8.70222 286.61C10.3476 278.338 14.409 270.74 20.3728 264.776C26.3366 258.812 33.935 254.751 42.2071 253.105C50.4791 251.46 59.0533 252.304 66.8454 255.532C74.6375 258.76 81.2975 264.225 85.9832 271.238C90.669 278.251 93.17 286.495 93.17 294.929C93.1574 306.235 88.6605 317.075 80.666 325.069C72.6716 333.064 61.8323 337.56 50.5264 337.573ZM50.5264 253.871C42.4057 253.871 34.4674 256.279 27.7153 260.79C20.9632 265.302 15.7006 271.714 12.5929 279.217C9.48527 286.719 8.67217 294.975 10.2564 302.94C11.8407 310.904 15.7512 318.22 21.4934 323.963C27.2356 329.705 34.5516 333.615 42.5162 335.199C50.4809 336.784 58.7364 335.971 66.239 332.863C73.7415 329.755 80.154 324.493 84.6656 317.741C89.1772 310.988 91.5853 303.05 91.5853 294.929C91.5727 284.044 87.2428 273.608 79.5455 265.91C71.8482 258.213 61.412 253.883 50.5264 253.871V253.871Z" fill="#231F20"/>
<path d="M50.4609 324.515C66.8007 324.515 80.0467 311.269 80.0467 294.93C80.0467 278.59 66.8007 265.344 50.4609 265.344C34.121 265.344 20.875 278.59 20.875 294.93C20.875 311.269 34.121 324.515 50.4609 324.515Z" fill="white"/>
<path d="M50.5265 265.344C56.3818 265.344 62.1056 267.08 66.9739 270.334C71.8422 273.587 75.6363 278.211 77.8764 283.621C80.1164 289.031 80.7017 294.984 79.5582 300.726C78.4147 306.469 75.5939 311.743 71.4524 315.883C67.311 320.022 62.0349 322.84 56.2917 323.98C50.5485 325.121 44.5961 324.532 39.1874 322.289C33.7787 320.046 29.1566 316.25 25.9058 311.38C22.6551 306.51 20.9216 300.785 20.9247 294.93C20.9247 291.043 21.6905 287.194 23.1784 283.604C24.6662 280.013 26.8469 276.751 29.5959 274.004C32.3448 271.256 35.6082 269.077 39.1996 267.591C42.7909 266.105 46.6398 265.342 50.5265 265.344V265.344ZM50.5265 263.759C44.357 263.756 38.3253 265.583 33.1943 269.008C28.0633 272.434 24.0636 277.304 21.7012 283.004C19.3388 288.703 18.7199 294.975 19.9227 301.026C21.1255 307.077 24.0961 312.635 28.4585 316.998C32.821 321.36 38.3793 324.33 44.4303 325.533C50.4814 326.736 56.7532 326.117 62.4524 323.755C68.1517 321.392 73.0221 317.393 76.4477 312.262C79.8733 307.131 81.7001 301.099 81.697 294.93C81.6844 286.666 78.3963 278.745 72.5535 272.903C66.7106 267.06 58.7895 263.772 50.5265 263.759V263.759Z" fill="#231F20"/>
<path d="M50.4573 306.672C56.9424 306.672 62.1997 301.415 62.1997 294.929C62.1997 288.444 56.9424 283.187 50.4573 283.187C43.9721 283.187 38.7148 288.444 38.7148 294.929C38.7148 301.415 43.9721 306.672 50.4573 306.672Z" fill="#D1D3D4"/>
<path d="M62.2044 258.276C46.1675 265.344 31.4142 288.654 55.7389 294.929C69.6048 298.511 151.929 296.514 151.929 296.514L133.229 263.236C133.229 263.236 77.8134 251.383 62.2044 258.276Z" fill="#231F20"/>
<path d="M105.988 297.893C84.5311 297.893 62.2664 297.449 55.5474 295.706C45.0569 292.996 42.458 287.418 42.1094 283.203C41.317 273.425 51.6174 262.047 61.8861 257.547C77.5427 250.622 131.136 262.063 133.402 262.554C133.511 262.578 133.614 262.625 133.704 262.69C133.794 262.756 133.869 262.839 133.925 262.935L152.625 296.213C152.687 296.336 152.72 296.471 152.72 296.609C152.72 296.747 152.687 296.883 152.625 297.005C152.552 297.122 152.452 297.219 152.333 297.288C152.214 297.357 152.08 297.396 151.943 297.401C150.216 297.386 128.553 297.893 105.988 297.893ZM77.4634 256.913C71.1247 256.913 65.8319 257.499 62.4566 258.989C52.9485 263.188 42.9017 274.107 43.6307 283.076C44.0585 288.369 48.2896 292.204 55.8802 294.169C68.5576 297.433 139.868 296.023 150.533 295.753L132.658 263.981C129.092 263.268 98.2544 256.913 77.4634 256.913Z" fill="#231F20"/>
<path d="M307.672 336.781C330.785 336.781 349.523 318.043 349.523 294.93C349.523 271.816 330.785 253.078 307.672 253.078C284.558 253.078 265.82 271.816 265.82 294.93C265.82 318.043 284.558 336.781 307.672 336.781Z" fill="#231F20"/>
<path d="M307.671 337.573C299.237 337.573 290.992 335.072 283.979 330.386C276.967 325.701 271.501 319.041 268.273 311.248C265.046 303.456 264.201 294.882 265.847 286.61C267.492 278.338 271.554 270.74 277.517 264.776C283.481 258.812 291.08 254.751 299.352 253.105C307.624 251.46 316.198 252.304 323.99 255.532C331.782 258.76 338.442 264.225 343.128 271.238C347.813 278.251 350.314 286.495 350.314 294.929C350.302 306.235 345.805 317.075 337.811 325.069C329.816 333.064 318.977 337.56 307.671 337.573ZM307.671 253.871C299.55 253.871 291.612 256.279 284.86 260.79C278.108 265.302 272.845 271.714 269.737 279.217C266.63 286.719 265.817 294.975 267.401 302.94C268.985 310.904 272.896 318.22 278.638 323.963C284.38 329.705 291.696 333.615 299.661 335.199C307.625 336.784 315.881 335.971 323.383 332.863C330.886 329.755 337.299 324.493 341.81 317.741C346.322 310.988 348.73 303.05 348.73 294.929C348.713 284.045 344.382 273.611 336.685 265.915C328.989 258.219 318.555 253.887 307.671 253.871V253.871Z" fill="#231F20"/>
<path d="M307.668 324.515C324.008 324.515 337.254 311.269 337.254 294.93C337.254 278.59 324.008 265.344 307.668 265.344C291.328 265.344 278.082 278.59 278.082 294.93C278.082 311.269 291.328 324.515 307.668 324.515Z" fill="white"/>
<path d="M307.666 265.344C313.522 265.341 319.247 267.074 324.118 270.326C328.988 273.577 332.785 278.2 335.027 283.61C337.269 289.02 337.857 294.973 336.715 300.717C335.574 306.46 332.754 311.736 328.613 315.877C324.472 320.018 319.196 322.837 313.453 323.979C307.709 325.121 301.756 324.533 296.346 322.291C290.937 320.048 286.314 316.252 283.062 311.381C279.811 306.511 278.077 300.786 278.08 294.93C278.08 291.044 278.845 287.197 280.332 283.608C281.819 280.018 283.998 276.756 286.745 274.009C289.493 271.262 292.754 269.083 296.344 267.596C299.933 266.109 303.78 265.344 307.666 265.344V265.344ZM307.666 263.759C301.5 263.775 295.478 265.617 290.36 269.054C285.241 272.491 281.256 277.369 278.908 283.069C276.561 288.77 275.955 295.039 277.169 301.084C278.382 307.129 281.36 312.678 285.727 317.031C290.093 321.384 295.651 324.345 301.7 325.54C307.748 326.735 314.015 326.111 319.709 323.746C325.402 321.38 330.267 317.381 333.689 312.252C337.11 307.123 338.934 301.095 338.931 294.93C338.919 286.664 335.629 278.74 329.782 272.897C323.936 267.054 316.011 263.767 307.745 263.759H307.666Z" fill="#231F20"/>
<path d="M307.672 306.672C314.157 306.672 319.415 301.415 319.415 294.929C319.415 288.444 314.157 283.187 307.672 283.187C301.187 283.187 295.93 288.444 295.93 294.929C295.93 301.415 301.187 306.672 307.672 306.672Z" fill="#D1D3D4"/>
<path d="M253.899 148.363L230.335 161.563C230.335 161.563 246.356 237.929 244.945 245.947C243.535 253.966 240.191 259.148 234.106 259.623C228.021 260.098 184.126 259.623 174.697 259.623C165.268 259.623 189.688 194.097 189.688 194.097H63.4368C63.4368 194.097 37.9869 199.754 22.9008 218.612C7.81475 237.469 -1.28127 273.727 2.0307 276.579C5.34266 279.431 131.229 277.799 131.229 277.799L144.525 298.273H245.437C260.523 298.273 277.019 256.327 277.019 256.327H350.025C350.025 256.327 340.913 235.425 320.645 230.243C300.377 225.061 291.566 225.679 291.566 225.679C291.566 225.679 301.471 223.318 301.471 213.889C301.471 204.46 269.46 157.316 253.899 148.363Z" fill="#1E71B9"/>
<path d="M59.56 195.158C59.56 195.158 39.4347 179.011 50.5274 174.764C61.6201 170.517 180.708 169.582 189.757 178.535C198.805 187.489 196.46 196.331 188.172 198.375C179.884 200.42 59.56 195.158 59.56 195.158Z" fill="#231F20"/>
<path d="M233.637 163.687C232.686 163.449 215.461 145.067 215.477 132.802C215.492 120.536 226.015 114.182 236.299 115.37C244.618 116.024 252.977 115.987 261.289 115.259L266.044 142.5L247.535 145.368L253.667 152.452L233.637 163.687Z" fill="#1E71B9"/>
<path d="M166.441 147.048C164.856 146.731 109.488 139.457 109.488 139.457C109.488 139.457 89.806 174.573 109.297 182.243C128.789 189.913 197.564 188.392 197.564 188.392L185.536 248.372H211.319C211.319 248.372 236.135 186.142 229.226 170.422C222.316 154.702 162.004 152.879 162.004 152.879L166.441 147.048Z" fill="#231F20"/>
<path d="M103.828 148.363C103.828 148.363 121.101 98.6994 133.937 76.3872C139.784 66.2453 149.403 56.6422 161.827 56.3886C167.326 56.2777 171.985 57.0542 176.2 60.7148C181.871 65.6095 185.862 72.1612 187.61 79.4456C191.207 94.7377 168.8 146.271 165.424 154.955L103.828 148.363Z" fill="#1E71B9"/>
<path d="M201.576 124.767C201.576 124.767 223.254 125.401 226.408 125.718C229.561 126.035 235.52 131.233 234.727 134.133C233.935 137.032 225.758 133.942 223.413 132.786C221.067 131.629 200.34 135.337 200.34 135.337L201.576 124.767Z" fill="white"/>
<path d="M201.574 124.767C201.574 124.767 223.253 125.401 226.406 125.718C229.56 126.035 235.518 131.233 234.726 134.133C234.488 135.004 233.569 135.337 232.349 135.337C229.241 135.027 226.214 134.163 223.411 132.786C222.813 132.595 222.183 132.52 221.557 132.564C215.836 132.564 200.338 135.337 200.338 135.337L201.574 124.767V124.767ZM200.164 123.183L199.99 124.625L198.754 135.179L198.5 137.302L200.608 136.938C200.766 136.938 216.042 134.18 221.557 134.18C221.963 134.137 222.372 134.137 222.777 134.18C225.754 135.655 228.977 136.568 232.285 136.874C235.122 136.874 235.962 135.385 236.199 134.497C236.341 133.708 236.308 132.898 236.103 132.123C235.897 131.348 235.525 130.628 235.011 130.012C233.204 127.382 229.354 124.371 226.501 124.086C223.332 123.769 202.446 123.167 201.558 123.135H200.101L200.164 123.183Z" fill="#231F20"/>
<path d="M128.967 271.73C128.8 271.731 128.638 271.675 128.507 271.571C128.423 271.51 128.351 271.433 128.297 271.344C128.242 271.255 128.206 271.156 128.19 271.053C128.173 270.95 128.178 270.844 128.202 270.743C128.227 270.642 128.271 270.546 128.333 270.462C128.602 270.098 154.955 233.745 131.914 214.333C112.708 198.153 67.1485 194.841 39.4167 214.998C17.2471 231.051 11.6374 267.974 11.574 268.354C11.5584 268.458 11.5225 268.558 11.4682 268.649C11.414 268.739 11.3425 268.817 11.2579 268.88C11.1733 268.942 11.0772 268.988 10.9751 269.013C10.873 269.038 10.7669 269.043 10.6628 269.028C10.5588 269.012 10.4588 268.976 10.3687 268.922C10.2785 268.868 10.1999 268.796 10.1374 268.712C10.0748 268.627 10.0296 268.531 10.0042 268.429C9.97877 268.327 9.97372 268.221 9.98933 268.117C11.2166 260.976 13.1161 253.967 15.6625 247.183C19.5291 236.677 26.6443 222.335 38.4976 213.715C61.618 196.901 108.921 192.908 132.928 213.128C156.936 233.349 129.87 271.032 129.6 271.397C129.529 271.499 129.435 271.583 129.324 271.641C129.214 271.699 129.091 271.729 128.967 271.73V271.73Z" fill="#231F20"/>
<path d="M172.863 251.541H141.882C141.672 251.541 141.471 251.457 141.322 251.309C141.173 251.16 141.09 250.959 141.09 250.749C141.09 250.538 141.173 250.337 141.322 250.188C141.471 250.04 141.672 249.956 141.882 249.956H172.863C173.073 249.956 173.274 250.04 173.423 250.188C173.571 250.337 173.655 250.538 173.655 250.749C173.655 250.959 173.571 251.16 173.423 251.309C173.274 251.457 173.073 251.541 172.863 251.541Z" fill="#231F20"/>
<path d="M238.817 286.816H149.71C149.501 286.812 149.302 286.727 149.155 286.579C149.007 286.432 148.922 286.233 148.918 286.024C148.918 285.813 149.001 285.612 149.15 285.463C149.299 285.315 149.5 285.231 149.71 285.231H238.817C243.016 285.231 250.876 277.308 259.417 264.44C272.57 244.458 283.742 218.105 279.654 208.549C276.104 200.277 270.146 196.22 264.251 192.29C258.356 188.36 253.015 184.747 249.988 177.426C246.182 168.875 245.858 159.177 249.085 150.391C249.123 150.29 249.182 150.198 249.257 150.12C249.333 150.043 249.423 149.981 249.523 149.94C249.623 149.898 249.73 149.878 249.838 149.879C249.946 149.881 250.053 149.905 250.152 149.949C250.25 149.994 250.339 150.058 250.412 150.138C250.485 150.218 250.54 150.312 250.576 150.414C250.611 150.516 250.625 150.625 250.616 150.733C250.608 150.84 250.578 150.945 250.527 151.041C247.555 159.436 247.884 168.646 251.446 176.808C254.33 183.701 259.592 187.235 265.17 190.991C271.191 195.032 277.419 199.231 281.143 207.915C285.612 218.342 273.98 245.266 260.764 265.312C256.391 271.777 245.726 286.816 238.817 286.816Z" fill="#231F20"/>
<path d="M242.035 299.335C240.451 299.335 238.501 299.335 236.299 299.24C233.32 299.24 229.611 299.065 225.206 299.065H183.64C183.43 299.065 183.228 298.982 183.08 298.833C182.931 298.685 182.848 298.483 182.848 298.273C182.852 298.064 182.936 297.865 183.084 297.717C183.232 297.57 183.431 297.485 183.64 297.481H225.127C229.611 297.481 233.335 297.576 236.33 297.655C250.212 298.004 251.036 298.02 258.864 287.957C268.547 275.517 288.007 230.386 288.213 229.926C288.246 229.82 288.301 229.722 288.375 229.639C288.449 229.555 288.54 229.488 288.641 229.442C288.742 229.396 288.852 229.372 288.964 229.372C289.075 229.371 289.185 229.394 289.287 229.439C289.389 229.483 289.481 229.549 289.555 229.632C289.63 229.714 289.687 229.811 289.721 229.917C289.756 230.023 289.768 230.135 289.756 230.246C289.745 230.356 289.71 230.464 289.655 230.56C288.862 232.414 269.91 276.325 260.116 288.924C253.112 297.956 250.973 299.335 242.035 299.335Z" fill="#231F20"/>
<path d="M185.535 248.372C185.535 248.372 178.705 262.507 182.714 263.458C186.724 264.408 237.671 269.876 233.63 264.456C229.589 259.036 211.318 248.372 211.318 248.372H185.535Z" fill="white"/>
<path d="M223.253 267.531C209.626 267.195 196.029 266.089 182.527 264.219C182.183 264.154 181.86 264.008 181.584 263.793C181.309 263.578 181.089 263.3 180.943 262.983C179.358 259.528 184.191 249.196 184.746 248.023C184.813 247.891 184.914 247.78 185.04 247.701C185.166 247.623 185.311 247.581 185.459 247.579H211.241C211.382 247.577 211.519 247.615 211.638 247.69C212.382 248.118 230.083 258.498 234.188 263.981C234.399 264.231 234.528 264.541 234.556 264.867C234.585 265.193 234.511 265.52 234.346 265.803C233.554 267.055 229.18 267.531 223.253 267.531ZM186.013 249.101C184.033 253.3 181.45 260.193 182.416 262.238C182.453 262.333 182.513 262.417 182.59 262.484C182.668 262.55 182.76 262.596 182.86 262.618C188.343 263.917 230.955 267.943 233.062 264.884C229.275 259.924 212.985 250.226 211.067 249.037L186.013 249.101Z" fill="#231F20"/>
<path d="M170.214 76.0385L167.33 118.825L206.36 120.409L207.945 140.202C207.945 140.202 154.843 142.579 143.829 133.53C132.816 124.482 140.042 80.3964 146.016 74.1528C151.99 67.9091 171.133 62.6163 170.214 76.0385Z" fill="#1E71B9"/>
<path d="M91.722 233.413H46.7806C46.5705 233.413 46.3689 233.329 46.2204 233.18C46.0718 233.032 45.9883 232.83 45.9883 232.62C45.9883 232.41 46.0718 232.209 46.2204 232.06C46.3689 231.911 46.5705 231.828 46.7806 231.828H91.722C91.9321 231.828 92.1336 231.911 92.2822 232.06C92.4308 232.209 92.5143 232.41 92.5143 232.62C92.5143 232.83 92.4308 233.032 92.2822 233.18C92.1336 233.329 91.9321 233.413 91.722 233.413Z" fill="#231F20"/>
<path d="M87.8118 239.355H42.8705C42.6603 239.355 42.4588 239.271 42.3102 239.123C42.1616 238.974 42.0781 238.773 42.0781 238.563C42.0781 238.352 42.1616 238.151 42.3102 238.002C42.4588 237.854 42.6603 237.77 42.8705 237.77H87.8118C88.0219 237.77 88.2235 237.854 88.3721 238.002C88.5207 238.151 88.6041 238.352 88.6041 238.563C88.6041 238.773 88.5207 238.974 88.3721 239.123C88.2235 239.271 88.0219 239.355 87.8118 239.355Z" fill="#231F20"/>
<path d="M83.8821 245.298H38.9408C38.7319 245.294 38.5327 245.209 38.385 245.061C38.2373 244.913 38.1525 244.714 38.1484 244.505C38.1484 244.295 38.2319 244.094 38.3805 243.945C38.5291 243.796 38.7306 243.713 38.9408 243.713H83.8821C84.0923 243.713 84.2938 243.796 84.4424 243.945C84.591 244.094 84.6745 244.295 84.6745 244.505C84.6745 244.715 84.591 244.917 84.4424 245.066C84.2938 245.214 84.0923 245.298 83.8821 245.298Z" fill="#231F20"/>
<path d="M79.9681 251.24H35.0267C34.8166 251.24 34.615 251.156 34.4664 251.008C34.3179 250.859 34.2344 250.658 34.2344 250.448C34.2344 250.237 34.3179 250.036 34.4664 249.887C34.615 249.739 34.8166 249.655 35.0267 249.655H79.9681C80.1782 249.655 80.3797 249.739 80.5283 249.887C80.6769 250.036 80.7604 250.237 80.7604 250.448C80.7604 250.658 80.6769 250.859 80.5283 251.008C80.3797 251.156 80.1782 251.24 79.9681 251.24Z" fill="#231F20"/>
<path d="M230.338 162.356C230.195 162.358 230.054 162.32 229.931 162.248C229.808 162.175 229.708 162.07 229.64 161.944C229.538 161.761 229.512 161.545 229.568 161.343C229.625 161.141 229.759 160.969 229.942 160.866L253.521 147.666C253.705 147.567 253.92 147.544 254.121 147.6C254.322 147.656 254.493 147.787 254.599 147.967C254.649 148.058 254.681 148.159 254.692 148.263C254.703 148.366 254.694 148.471 254.665 148.571C254.635 148.672 254.586 148.765 254.52 148.846C254.455 148.927 254.374 148.995 254.282 149.044L230.718 162.245C230.605 162.318 230.473 162.356 230.338 162.356V162.356Z" fill="#231F20"/>
<path d="M225.723 139.457C228.655 139.457 231.031 137.08 231.031 134.148C231.031 131.217 228.655 128.84 225.723 128.84C222.791 128.84 220.414 131.217 220.414 134.148C220.414 137.08 222.791 139.457 225.723 139.457Z" fill="#231F20"/>
<path d="M196.39 120.742L167.327 119.569C167.222 119.568 167.119 119.544 167.023 119.501C166.928 119.457 166.843 119.394 166.773 119.316C166.635 119.158 166.562 118.955 166.567 118.745L169.213 72.7899C169.219 72.6859 169.246 72.5841 169.292 72.4903C169.337 72.3966 169.401 72.3127 169.479 72.2436C169.557 72.1744 169.648 72.1213 169.746 72.0872C169.845 72.0532 169.949 72.0389 170.053 72.0451C170.157 72.0514 170.259 72.078 170.353 72.1236C170.446 72.1692 170.53 72.2328 170.599 72.3108C170.668 72.3888 170.722 72.4796 170.756 72.5782C170.79 72.6767 170.804 72.781 170.798 72.885L168.199 118.112L196.454 119.237C196.662 119.249 196.858 119.342 197 119.495C197.142 119.649 197.219 119.852 197.214 120.061C197.187 120.257 197.087 120.435 196.934 120.561C196.782 120.687 196.588 120.752 196.39 120.742V120.742Z" fill="#231F20"/>
<path d="M177.299 141.28C163.116 141.28 146.937 139.885 143.086 133.911C136.747 124.086 137.112 95.5459 137.239 84.7859C137.239 83.7559 137.239 82.9319 137.239 82.3456C137.239 82.1354 137.322 81.9339 137.471 81.7853C137.619 81.6367 137.821 81.5532 138.031 81.5532C138.241 81.5532 138.443 81.6367 138.591 81.7853C138.74 81.9339 138.823 82.1354 138.823 82.3456C138.823 82.9319 138.823 83.7718 138.823 84.8018C138.712 94.4049 138.38 123.61 144.433 133.039C147.08 137.159 157.507 139.378 174.542 139.647C187.615 139.806 200.039 138.665 200.166 138.649C200.376 138.63 200.585 138.695 200.747 138.831C200.909 138.966 201.011 139.16 201.03 139.37C201.049 139.58 200.983 139.789 200.848 139.951C200.713 140.113 200.519 140.215 200.309 140.234C199.485 140.329 189.105 141.28 177.299 141.28Z" fill="#231F20"/>
<path d="M188.552 62.6005C188.552 62.6005 161.185 48.7029 158.681 52.3794C156.823 55.2456 155.196 58.2555 153.816 61.3803C153.816 61.3803 181.437 75.2145 185.922 71.443C187.203 70.4079 188.14 69.0087 188.61 67.4301C189.079 65.8515 189.059 64.1676 188.552 62.6005V62.6005Z" fill="#1E71B9"/>
<path d="M184.16 189.247C168.773 189.247 130.281 188.946 116.304 186.078C101.044 182.909 101.218 178.424 101.313 176.269C101.313 176.079 101.313 175.841 101.313 175.762C101.225 175.575 101.214 175.36 101.282 175.165C101.351 174.969 101.492 174.808 101.678 174.716C101.872 174.628 102.092 174.618 102.293 174.689C102.494 174.76 102.66 174.906 102.755 175.096C102.9 175.491 102.949 175.915 102.898 176.332C102.898 177.917 102.676 181.609 116.621 184.525C133.736 188.107 190.007 187.695 190.578 187.695C190.683 187.692 190.787 187.711 190.884 187.75C190.981 187.789 191.069 187.848 191.143 187.922C191.217 187.996 191.275 188.084 191.314 188.181C191.353 188.278 191.372 188.382 191.37 188.487C191.37 188.697 191.287 188.899 191.138 189.047C190.99 189.196 190.788 189.279 190.578 189.279L184.16 189.247Z" fill="white"/>
</svg>
