<svg width="179" height="177" viewBox="0 0 179 177" fill="none" xmlns="http://www.w3.org/2000/svg">
<path d="M89.6613 174.056C41.7833 174.056 2.99528 135.527 2.99528 88.0282C2.99528 40.5297 41.7834 1.99999 89.6613 2C137.539 2 176.327 40.5297 176.327 88.0282C176.327 135.527 137.539 174.056 89.6613 174.056Z" stroke="#1E71B9" stroke-width="4"/>
<path d="M91.5427 40.342V31.4312C91.5427 30.3174 90.5681 29.3428 89.4542 29.3428C88.3404 29.3428 87.3658 30.3174 87.3658 31.4312V40.342C57.1529 41.3166 32.7876 64.4287 32.7876 92.8316C32.7876 93.8063 33.4838 94.6416 34.5976 94.9201C35.5722 95.0593 36.5468 94.5024 36.8253 93.5278C36.9645 93.2493 39.3314 85.4525 48.5206 85.4525C57.7098 85.4525 60.0767 93.2493 60.2159 93.5278C60.2159 93.667 60.3551 93.9455 60.4944 94.0847C60.6336 94.2239 60.7728 94.3632 60.9121 94.5024C61.0513 94.6416 61.1905 94.7809 61.469 94.7809C61.6082 94.7809 61.8867 94.9201 62.1651 94.9201C62.4436 94.9201 62.5828 94.9201 62.722 94.7809C62.8613 94.7809 63.1397 94.6416 63.279 94.5024C63.5574 94.224 63.8359 93.9455 63.9751 93.5278C64.1143 93.2493 66.4813 85.4525 75.6704 85.4525C84.1635 85.4525 86.8088 91.9963 87.2265 93.2494V135.158C87.2265 141.562 92.378 146.714 98.7826 146.714C105.187 146.714 110.339 141.562 110.339 135.158V129.728C110.339 128.614 109.364 127.639 108.25 127.639C107.136 127.639 106.162 128.614 106.162 129.728V135.158C106.162 139.334 102.82 142.676 98.6434 142.676C94.4665 142.676 91.125 139.334 91.125 135.158V93.2494C91.5427 91.8571 94.3273 85.4525 102.681 85.4525C111.87 85.4525 114.237 93.2493 114.376 93.5278C114.376 93.667 114.516 93.9455 114.655 94.0847C114.794 94.2239 114.933 94.3632 115.073 94.5024C115.212 94.6416 115.351 94.7809 115.629 94.7809C115.769 94.7809 116.047 94.9201 116.326 94.9201C116.604 94.9201 116.743 94.9201 116.883 94.7809C117.022 94.7809 117.3 94.6416 117.439 94.5024C117.718 94.224 117.996 93.9455 118.136 93.5278C118.275 93.2493 120.642 85.4525 129.831 85.4525C139.02 85.4525 141.387 93.2493 141.526 93.5278C141.805 94.3632 142.64 95.0593 143.475 95.0593C143.615 95.0593 143.615 95.0593 143.754 95.0593C144.729 94.9201 145.564 94.0847 145.564 92.9709C146.121 64.568 121.756 41.4558 91.5427 40.342ZM48.5206 81.2756C43.6475 81.2756 40.1668 82.9463 37.5214 85.174C40.7237 66.7956 55.2036 51.7588 74.2781 46.4681C63.9751 56.3534 61.1905 75.8456 60.3551 86.1486C57.9882 83.5032 54.0898 81.2756 48.5206 81.2756ZM103.099 81.2756C96.1373 81.2756 91.8211 84.8955 89.4542 88.2371C87.0873 84.7563 82.7712 81.2756 75.8097 81.2756C70.7974 81.2756 67.1774 83.0856 64.6713 85.4525C65.9243 71.9472 70.6582 44.3796 89.4542 44.3796C108.25 44.3796 113.123 71.8079 114.237 85.4525C111.731 83.0856 108.111 81.2756 103.099 81.2756ZM130.388 81.2756C124.958 81.2756 121.059 83.5032 118.553 86.1486C117.718 75.8456 114.933 56.4926 104.77 46.4681C123.844 51.7588 138.324 66.7956 141.526 85.174C138.881 82.9463 135.261 81.2756 130.388 81.2756Z" fill="#1E71B9"/>
</svg>
