<svg width="177" height="177" viewBox="0 0 177 177" fill="none" xmlns="http://www.w3.org/2000/svg">
<path d="M88.5824 174.056C41.0704 174.056 2.55425 135.54 2.55426 88.0282C2.55426 40.5161 41.0704 1.99999 88.5824 2C136.094 2 174.611 40.5161 174.611 88.0282C174.611 135.54 136.094 174.056 88.5824 174.056Z" stroke="#1E71B9" stroke-width="4"/>
<path d="M79.0612 113.199C77.5893 113.199 75.9538 113.689 74.1549 114.507C73.9913 114.507 73.9913 114.671 73.8278 114.671L73.5007 114.834H73.1736C70.7205 114.834 65.9777 111.4 62.2162 105.839C61.235 104.368 60.4173 102.896 59.436 101.26C58.6183 99.6247 57.8006 97.9893 57.1464 96.5174C55.8381 93.4101 55.1839 89.9757 55.0204 87.1955C54.8568 83.9246 55.6745 82.6162 55.8381 82.4527L56.0016 82.1257L56.3287 81.9621C56.4922 81.9621 56.4922 81.9621 56.6558 81.7986C62.5433 78.3642 62.8704 74.1121 61.0714 65.7714C60.0902 60.3745 58.7818 55.141 55.6745 53.015C54.8568 52.3608 53.5485 52.1973 51.913 52.1973C50.6047 52.1973 48.9693 52.3609 47.8245 52.688C44.3901 53.6692 40.465 56.2859 37.8484 59.3932C32.9421 65.1172 31.3066 73.2943 31.3066 79.0183C31.3066 88.5038 34.7411 100.606 40.4651 111.236C46.0255 122.03 54.0391 131.679 61.8892 137.076C67.9402 141.165 75.4632 143.454 81.8414 142.8C85.93 142.309 90.1821 140.674 92.9623 138.384C94.1071 137.567 97.2144 134.296 97.2144 131.679C97.2144 127.918 93.6165 123.829 89.6914 120.068C85.6029 115.815 82.6591 113.199 79.0612 113.199ZM91.4904 136.422C89.0373 138.384 85.2758 139.856 81.6778 140.347C81.0237 140.347 80.3695 140.51 79.5518 140.51C73.3372 140.51 67.1225 137.73 63.361 135.114C55.8381 129.88 48.1516 120.722 42.7546 110.255C37.1942 99.9518 33.9233 88.3402 33.7598 79.1818C33.7598 74.112 35.2317 66.4255 39.6473 61.1921C41.9369 58.4119 45.3713 56.1223 48.3151 55.3046C48.9693 55.1411 50.2776 54.814 51.7495 54.814C52.8943 54.814 53.712 54.9775 54.2026 55.3046C56.4922 56.7765 57.6371 61.5192 58.4548 66.4255C60.4173 75.0933 59.436 77.3829 55.511 79.6725L55.3474 79.836C54.5297 80.1631 53.8756 80.8173 53.2214 81.7986C51.586 85.0694 52.0766 91.7747 54.5297 97.8258C55.1839 99.4612 56.0016 101.097 56.8193 102.896C57.6371 104.531 58.6183 106.166 59.5996 107.638C63.5246 113.526 69.085 117.778 72.683 117.778C73.5007 117.778 74.3184 117.614 74.8091 117.124L74.9726 116.96C76.4445 116.306 77.5893 115.979 78.5705 115.979C81.0237 115.979 83.3133 117.614 87.4018 122.03C90.9998 125.628 94.2706 129.226 94.1071 131.843C94.7613 132.987 92.7988 135.441 91.4904 136.422Z" fill="#1E71B9"/>
<path d="M135.319 35.6792C127.796 29.1375 117.983 25.5396 107.353 25.5396C85.6018 25.5396 67.9392 40.9126 67.9392 59.72C67.9392 68.7149 72.1913 77.5462 79.3872 83.9244L80.0414 84.415L73.9903 95.0453C73.6632 95.5359 73.8268 96.0266 74.1538 96.5172C74.4809 96.8443 74.9715 97.0078 75.4622 97.0078L92.6342 91.6109L92.9613 91.7744C97.5405 93.4098 102.447 94.064 107.353 94.064C129.104 94.064 146.767 78.691 146.767 59.8835C146.93 50.7252 142.678 42.0574 135.319 35.6792ZM107.353 91.4473C102.447 91.4473 97.704 90.6296 93.1248 88.9942C92.7977 88.8306 92.6342 88.8306 92.3071 88.9942L77.7518 93.5734L82.8216 84.7421C83.1487 84.2515 82.9852 83.4337 82.4945 83.1067C74.808 77.0556 70.3924 68.5514 70.3924 59.72C70.3924 42.221 86.9102 27.9927 107.353 27.9927C127.796 27.9927 144.314 42.221 144.314 59.72C144.314 77.2191 127.796 91.4473 107.353 91.4473Z" fill="#1E71B9"/>
<path d="M105.229 35.1886C97.8696 35.6792 91.3279 38.2959 88.2206 42.0574C87.7299 42.548 87.8935 43.3657 88.3841 43.8563C88.8747 44.3469 89.6924 44.1834 90.1831 43.6928C92.7998 40.5855 98.8508 38.2958 105.393 37.8052C106.21 37.8052 107.028 37.6417 107.846 37.6417C115.369 37.6417 122.237 40.0949 127.144 44.5105C127.634 45.0011 128.452 45.0011 128.943 44.3469C129.433 43.8563 129.433 43.0386 128.779 42.548C123.055 37.3146 114.387 34.5344 105.229 35.1886Z" fill="#1E71B9"/>
<path d="M128.287 74.7661C127.96 74.7661 127.632 74.9296 127.305 75.0931C121.908 79.9994 113.895 82.4526 105.554 81.7984C99.0125 81.3078 92.9614 79.0181 90.3447 75.9108C90.0176 75.5837 89.6905 75.4202 89.3634 75.4202C89.0363 75.4202 88.7093 75.5838 88.5457 75.7473C88.0551 76.238 87.8915 77.0556 88.3822 77.5463C91.4895 81.3077 98.0312 83.9245 105.391 84.4151C114.549 85.0693 123.217 82.4526 129.104 77.0557C129.595 76.565 129.595 75.7474 129.268 75.2567C128.777 74.9296 128.614 74.7661 128.287 74.7661Z" fill="#1E71B9"/>
<path d="M93.6159 59.7203C93.6159 58.5755 92.6346 57.5942 91.4898 57.5942C90.345 57.5942 89.3638 58.5755 89.3638 59.7203C89.3638 60.8651 90.345 61.8463 91.4898 61.8463C92.6346 62.0099 93.6159 61.0286 93.6159 59.7203Z" fill="#1E71B9"/>
<path d="M109.317 59.7203C109.317 58.5755 108.335 57.5942 107.191 57.5942C106.046 57.5942 105.064 58.5755 105.064 59.7203C105.064 60.8651 106.046 61.8463 107.191 61.8463C108.335 61.8463 109.317 61.0286 109.317 59.7203Z" fill="#1E71B9"/>
<path d="M124.526 59.7203C124.526 58.5755 123.544 57.5942 122.399 57.5942C121.255 57.5942 120.273 58.5755 120.273 59.7203C120.273 60.8651 121.255 61.8463 122.399 61.8463C123.544 62.0099 124.526 61.0286 124.526 59.7203Z" fill="#1E71B9"/>
</svg>
