<?xml version="1.0" standalone="no"?>
<!DOCTYPE svg PUBLIC "-//W3C//DTD SVG 20010904//EN"
 "http://www.w3.org/TR/2001/REC-SVG-20010904/DTD/svg10.dtd">
<svg version="1.0" xmlns="http://www.w3.org/2000/svg"
 width="260.000000pt" height="260.000000pt" viewBox="0 0 260.000000 260.000000"
 preserveAspectRatio="xMidYMid meet">
<metadata>
Created by potrace 1.11, written by Peter Selinger 2001-2013
</metadata>
<g transform="translate(0.000000,260.000000) scale(0.100000,-0.100000)"
fill="#000000" stroke="none">
<path d="M830 2578 c-26 -14 -57 -41 -75 -66 l-30 -44 0 -421 0 -420 204 -124
c113 -68 206 -123 208 -123 2 0 18 -10 36 -22 92 -62 76 -61 153 -17 38 22 76
44 84 49 8 5 90 53 182 105 115 66 179 110 203 138 92 107 106 284 32 410 -46
77 -68 93 -435 308 -51 29 -105 62 -120 71 -15 10 -34 21 -42 25 -8 4 -60 34
-114 67 -155 93 -206 104 -286 64z"/>
<path d="M1193 1255 c-29 -19 -55 -35 -58 -35 -4 0 -27 -14 -53 -30 -26 -17
-117 -72 -202 -123 l-155 -93 -3 -398 c-1 -268 1 -411 9 -439 14 -52 70 -109
126 -126 76 -25 112 -11 360 135 125 75 248 147 273 161 25 14 56 33 70 43 14
9 32 20 40 24 8 4 24 12 35 19 11 7 41 25 67 41 149 88 211 274 148 440 -33
87 -89 136 -280 245 -91 52 -178 102 -195 111 -16 9 -46 27 -65 38 -47 29 -56
28 -117 -13z"/>
</g>
</svg>
