<svg width="91" height="76" viewBox="0 0 91 76" fill="none" xmlns="http://www.w3.org/2000/svg">
<path d="M78.8148 14.0741H63.3333V5.62963C63.3333 4.13656 62.7402 2.70464 61.6845 1.64888C60.6287 0.593121 59.1968 0 57.7037 0H32.3704C30.8773 0 29.4454 0.593121 28.3896 1.64888C27.3339 2.70464 26.7407 4.13656 26.7407 5.62963V14.0741H11.2593C8.27312 14.0741 5.40928 15.2603 3.29776 17.3718C1.18624 19.4834 0 22.3472 0 25.3333V64.7407C0 67.7269 1.18624 70.5907 3.29776 72.7022C5.40928 74.8138 8.27312 76 11.2593 76H78.8148C81.801 76 84.6648 74.8138 86.7763 72.7022C88.8878 70.5907 90.0741 67.7269 90.0741 64.7407V25.3333C90.0741 22.3472 88.8878 19.4834 86.7763 17.3718C84.6648 15.2603 81.801 14.0741 78.8148 14.0741ZM32.3704 5.62963H57.7037V14.0741H32.3704V5.62963ZM84.4444 64.7407C84.4444 66.2338 83.8513 67.6657 82.7956 68.7215C81.7398 69.7773 80.3079 70.3704 78.8148 70.3704H11.2593C9.76619 70.3704 8.33427 69.7773 7.27851 68.7215C6.22275 67.6657 5.62963 66.2338 5.62963 64.7407V25.3333C5.62963 23.8403 6.22275 22.4083 7.27851 21.3526C8.33427 20.2968 9.76619 19.7037 11.2593 19.7037H78.8148C80.3079 19.7037 81.7398 20.2968 82.7956 21.3526C83.8513 22.4083 84.4444 23.8403 84.4444 25.3333V64.7407Z" fill="white"/>
<path d="M47.8518 29.5557H42.2221V40.8149H30.9629V46.4446H42.2221V57.7038H47.8518V46.4446H59.111V40.8149H47.8518V29.5557Z" fill="white"/>
</svg>
