<svg width="351" height="315" viewBox="0 0 351 315" fill="none" xmlns="http://www.w3.org/2000/svg">
<path d="M182.381 131.247H110.691V145.847H182.381V131.247Z" fill="white"/>
<path d="M182.381 146.472H110.692C110.523 146.472 110.361 146.405 110.241 146.285C110.122 146.166 110.055 146.004 110.055 145.835V131.247C110.055 131.078 110.122 130.916 110.241 130.797C110.361 130.677 110.523 130.61 110.692 130.61H182.381C182.55 130.61 182.712 130.677 182.832 130.797C182.951 130.916 183.018 131.078 183.018 131.247V145.835C183.018 146.004 182.951 146.166 182.832 146.285C182.712 146.405 182.55 146.472 182.381 146.472V146.472ZM111.329 145.198H181.744V131.884H111.329V145.198Z" fill="#D1D3D4"/>
<path d="M171.45 120.278H105.965V131.247H171.45V120.278Z" fill="white"/>
<path d="M171.45 131.884H105.965C105.796 131.884 105.634 131.817 105.515 131.697C105.395 131.578 105.328 131.416 105.328 131.247V120.278C105.328 120.109 105.395 119.947 105.515 119.827C105.634 119.708 105.796 119.641 105.965 119.641H171.45C171.619 119.641 171.781 119.708 171.9 119.827C172.02 119.947 172.087 120.109 172.087 120.278V131.247C172.084 131.415 172.016 131.575 171.897 131.694C171.778 131.813 171.618 131.881 171.45 131.884V131.884ZM106.602 130.61H170.813V120.915H106.602V130.61Z" fill="#D1D3D4"/>
<path d="M349.941 258.127H1.21514C1.04619 258.127 0.884164 258.06 0.764701 257.941C0.645238 257.821 0.578125 257.659 0.578125 257.49C0.578125 257.321 0.645238 257.159 0.764701 257.04C0.884164 256.92 1.04619 256.853 1.21514 256.853H349.941C350.11 256.853 350.272 256.92 350.392 257.04C350.511 257.159 350.578 257.321 350.578 257.49C350.578 257.659 350.511 257.821 350.392 257.941C350.272 258.06 350.11 258.127 349.941 258.127Z" fill="#D1D3D4"/>
<path d="M325.999 153.377H68.4805V270.868H325.999V153.377Z" fill="white"/>
<path d="M326.019 271.454H68.4874C68.3342 271.45 68.1884 271.387 68.0812 271.278C67.974 271.168 67.914 271.021 67.9141 270.868V153.377C67.914 153.224 67.974 153.077 68.0812 152.967C68.1884 152.858 68.3342 152.794 68.4874 152.791H326.019C326.172 152.794 326.318 152.858 326.425 152.967C326.532 153.077 326.592 153.224 326.592 153.377V270.868C326.592 271.021 326.532 271.168 326.425 271.278C326.318 271.387 326.172 271.45 326.019 271.454V271.454ZM69.0734 270.269H325.433V153.963H69.0734V270.269Z" fill="#231F20"/>
<path d="M326.577 145.898H67.937C65.8684 145.898 64.1914 147.573 64.1914 149.638C64.1914 151.703 65.8684 153.377 67.937 153.377H326.577C328.645 153.377 330.322 151.703 330.322 149.638C330.322 147.573 328.645 145.898 326.577 145.898Z" fill="white"/>
<path d="M326.575 153.963H67.9484C66.8419 153.903 65.8004 153.421 65.0384 152.616C64.2763 151.812 63.8516 150.746 63.8516 149.638C63.8516 148.529 64.2763 147.463 65.0384 146.659C65.8004 145.854 66.8419 145.372 67.9484 145.312H326.575C327.682 145.372 328.723 145.854 329.485 146.659C330.248 147.463 330.672 148.529 330.672 149.638C330.672 150.746 330.248 151.812 329.485 152.616C328.723 153.421 327.682 153.903 326.575 153.963ZM67.9484 146.484C67.5175 146.457 67.0855 146.518 66.6791 146.664C66.2728 146.81 65.9007 147.038 65.5858 147.334C65.2709 147.629 65.0199 147.986 64.8484 148.382C64.6768 148.779 64.5883 149.206 64.5883 149.638C64.5883 150.069 64.6768 150.497 64.8484 150.893C65.0199 151.289 65.2709 151.646 65.5858 151.942C65.9007 152.237 66.2728 152.465 66.6791 152.611C67.0855 152.757 67.5175 152.818 67.9484 152.791H326.575C327.006 152.818 327.438 152.757 327.845 152.611C328.251 152.465 328.623 152.237 328.938 151.942C329.253 151.646 329.504 151.289 329.675 150.893C329.847 150.497 329.936 150.069 329.936 149.638C329.936 149.206 329.847 148.779 329.675 148.382C329.504 147.986 329.253 147.629 328.938 147.334C328.623 147.038 328.251 146.81 327.845 146.664C327.438 146.518 327.006 146.457 326.575 146.484H67.9484Z" fill="#231F20"/>
<path d="M39.666 213.957C39.7841 212.115 39.3918 210.277 38.5321 208.644C37.6784 207.571 36.8832 206.452 36.1497 205.294C35.1432 203.14 35.8439 200.605 35.6146 198.235C35.3834 196.241 34.4856 194.382 33.0666 192.961C31.7925 191.687 30.2255 190.846 29.0407 189.547C27.1041 187.406 26.4926 184.451 25.4479 181.711C23.8747 177.937 21.1622 174.748 17.6891 172.589C19.804 176.845 14.9754 182.259 17.1667 186.476C17.8547 187.814 19.1797 188.795 19.7148 190.209C20.9888 193.636 16.861 197.344 18.1605 200.745C18.8102 202.44 20.6321 203.421 21.4729 205.026C22.6196 207.192 21.715 209.829 21.8169 212.275C21.9443 215.651 23.9955 218.645 26.4416 221.015C27.9577 222.467 29.6522 223.729 31.2957 225.041C33.2577 226.621 34.0858 228.277 35.8185 225.742C38.2218 222.272 39.5591 218.176 39.666 213.957V213.957Z" fill="#231F20"/>
<path d="M41.8078 215.893C41.1708 213.345 40.7249 210.441 41.8078 207.982C43.0818 205.192 46.0248 203.217 46.3688 200.197C46.5982 198.223 45.5917 196.222 45.9866 194.273C46.3816 192.324 47.9868 190.986 49.2991 189.546C52.3235 186.218 54.1213 181.957 54.3952 177.469C56.4222 179.879 58.06 182.592 59.2492 185.508C59.8315 186.973 60.071 188.552 59.9496 190.125C59.8281 191.697 59.3489 193.22 58.5485 194.579C58.0288 195.18 57.5996 195.854 57.2745 196.579C56.6884 198.503 58.3319 200.312 59.1855 202.134C59.6907 203.177 59.9019 204.337 59.7964 205.491C59.6909 206.645 59.2727 207.749 58.5867 208.682C56.854 210.835 53.4906 211.664 52.6752 214.288C52.4625 215.267 52.3642 216.268 52.3822 217.269C52.2008 219.005 51.5047 220.647 50.3832 221.984C49.2617 223.321 47.7662 224.292 46.0885 224.773C44.0501 225.27 44.0883 224.455 43.7189 222.735C43.2984 220.429 42.4066 218.199 41.8078 215.893Z" fill="#231F20"/>
<path d="M35.3457 197.102C33.9061 192.082 33.32 186.833 31.7912 181.813C30.4865 177.906 28.8982 174.099 27.0391 170.424L33.269 173.061C35.2693 173.902 37.4224 174.895 38.3651 176.883C40.0086 180.285 37.0911 184.629 38.7856 187.992C39.5317 189.081 40.3533 190.115 41.2444 191.088C43.079 193.636 42.7987 197.204 41.7923 200.198C41.3591 201.472 39.4735 208.147 37.7918 206.3C37.1166 205.561 37.0529 202.797 36.7726 201.777C36.3394 200.198 35.8043 198.669 35.3457 197.102Z" fill="#231F20"/>
<path d="M38.6608 263.809C37.3868 255.605 33.5647 226.684 33.4883 226.391L34.7623 226.226C34.7623 226.506 38.6863 255.426 39.9348 263.618L38.6608 263.809Z" fill="#231F20"/>
<path d="M40.317 271.543H39.043C39.043 261.784 43.1963 224.506 45.5405 221.932L46.4833 222.798C44.6996 224.748 40.3934 260.726 40.317 271.543Z" fill="#231F20"/>
<path d="M42.4322 269.695L41.1581 269.632C42.0754 248.636 37.6291 204.529 37.5781 204.083L38.8521 203.956C38.8904 204.402 43.3622 248.61 42.4322 269.695Z" fill="#231F20"/>
<path d="M28.0859 240.278H51.2732L49.6424 266.612C49.3621 271.161 45.986 274.702 41.9218 274.702H37.4373C33.3604 274.702 29.9842 271.161 29.7039 266.612L28.0859 240.278Z" fill="white"/>
<path d="M41.9207 275.365H37.4362C33.0408 275.365 29.3588 271.543 29.0531 266.663L27.4351 240.329C27.4292 240.241 27.4408 240.153 27.4693 240.07C27.4977 239.987 27.5424 239.911 27.6007 239.845C27.7295 239.717 27.9031 239.644 28.0848 239.641H51.2721C51.3603 239.642 51.4474 239.66 51.5283 239.695C51.6093 239.73 51.6824 239.781 51.7435 239.845C51.806 239.908 51.8542 239.984 51.885 240.068C51.9158 240.151 51.9283 240.24 51.9218 240.329L50.3038 266.663C49.998 271.543 46.3161 275.365 41.9207 275.365ZM28.7855 240.966L30.3398 266.561C30.5947 270.753 33.7033 274.04 37.4107 274.04H41.8953C45.6027 274.04 48.7113 270.753 48.9661 266.561L50.5714 240.966H28.7855Z" fill="#231F20"/>
<path d="M130.602 17.5277H50.5938V105.665H130.602V17.5277Z" fill="white"/>
<path d="M130.59 106.302H50.594C50.4251 106.302 50.2631 106.235 50.1436 106.115C50.0241 105.996 49.957 105.834 49.957 105.665V17.5276C49.957 17.3587 50.0241 17.1967 50.1436 17.0772C50.2631 16.9577 50.4251 16.8906 50.594 16.8906H130.59C130.759 16.8906 130.921 16.9577 131.04 17.0772C131.16 17.1967 131.227 17.3587 131.227 17.5276V105.665C131.227 105.834 131.16 105.996 131.04 106.115C130.921 106.235 130.759 106.302 130.59 106.302ZM51.2311 105.028H129.953V18.1646H51.2311V105.028Z" fill="#D1D3D4"/>
<path d="M69.0059 89.2552C68.9177 89.2741 68.8265 89.2741 68.7383 89.2552L65.8336 87.9047C65.7043 87.8447 65.5988 87.743 65.5342 87.616C65.4695 87.489 65.4493 87.3439 65.4768 87.204C66.8273 80.1332 71.0825 76.757 75.5798 73.1898C78.554 71.0018 81.2269 68.4317 83.5298 65.5456C87.492 60.3094 87.0078 57.5957 86.4473 54.4361C85.932 52.2869 85.9016 50.05 86.3581 47.8876C87.9634 40.9824 94.8813 33.746 95.1743 33.4402C95.2704 33.338 95.398 33.2711 95.5367 33.2503C95.6753 33.2295 95.817 33.256 95.9388 33.3255L100.143 35.6825C100.23 35.733 100.304 35.8031 100.359 35.8871C100.415 35.9711 100.45 36.0668 100.462 36.1666C100.469 36.2683 100.454 36.3705 100.416 36.4654C100.379 36.5603 100.32 36.6454 100.245 36.7144C97.9903 38.6813 96.3827 41.2837 95.633 44.1802C98.9582 43.9382 110.654 43.747 113.278 52.5633C116.502 63.4053 111.495 78.0438 95.8623 84.0062C85.1987 88.0321 82.7781 83.917 81.0199 80.9103C80.0007 79.1777 79.4529 78.3623 77.9877 78.7827C72.8916 80.2478 69.6301 88.7711 69.6047 88.8475C69.5741 88.9305 69.5266 89.0062 69.4652 89.0698C69.4038 89.1334 69.3298 89.1835 69.2479 89.217C69.1712 89.2478 69.0884 89.2609 69.0059 89.2552V89.2552ZM66.8273 86.8983L68.6619 87.7519C69.5537 85.6242 72.7133 78.9483 77.5801 77.5597C80.0644 76.8462 81.0836 78.5789 82.0646 80.2606C83.6826 83.0252 85.6956 86.4524 95.3527 82.8086C112.081 76.5022 114.463 61.1502 112.004 52.9328C109.303 43.8617 95.0214 45.5052 94.8686 45.5179C94.7736 45.5302 94.6772 45.5205 94.5866 45.4896C94.496 45.4587 94.4138 45.4074 94.3462 45.3396C94.2791 45.2711 94.2273 45.1891 94.1944 45.099C94.1614 45.0089 94.148 44.9129 94.1551 44.8172C94.7204 41.5848 96.3159 38.6218 98.7034 36.3704L95.7094 34.676C94.2953 36.2176 88.8807 42.4475 87.5557 48.1807C87.1391 50.1755 87.1695 52.2379 87.6448 54.2195C88.2054 57.3791 88.7915 60.5897 84.498 66.31C82.1395 69.2406 79.4068 71.8491 76.3697 74.0688C71.9871 77.5979 68.1778 80.6173 66.8273 86.8983V86.8983Z" fill="#D1D3D4"/>
<path d="M121.238 88.0831H106.332C106.163 88.0831 106.001 88.016 105.882 87.8965C105.762 87.7771 105.695 87.615 105.695 87.4461C105.695 87.2771 105.762 87.1151 105.882 86.9957C106.001 86.8762 106.163 86.8091 106.332 86.8091H121.238C121.407 86.8091 121.569 86.8762 121.689 86.9957C121.808 87.1151 121.875 87.2771 121.875 87.4461C121.872 87.614 121.804 87.7742 121.685 87.8929C121.566 88.0117 121.406 88.0798 121.238 88.0831Z" fill="#D1D3D4"/>
<path d="M121.238 92.4532H106.332C106.163 92.4532 106.001 92.3861 105.882 92.2666C105.762 92.1472 105.695 91.9852 105.695 91.8162C105.695 91.6473 105.762 91.4852 105.882 91.3658C106.001 91.2463 106.163 91.1792 106.332 91.1792H121.238C121.406 91.1825 121.566 91.2506 121.685 91.3694C121.804 91.4881 121.872 91.6483 121.875 91.8162C121.875 91.9852 121.808 92.1472 121.689 92.2666C121.569 92.3861 121.407 92.4532 121.238 92.4532Z" fill="#D1D3D4"/>
<path d="M117.124 97.4217H106.078C105.91 97.4185 105.75 97.3503 105.632 97.2315C105.513 97.1128 105.445 96.9526 105.441 96.7847C105.441 96.6158 105.509 96.4537 105.628 96.3343C105.747 96.2148 105.909 96.1477 106.078 96.1477H117.124C117.293 96.1477 117.455 96.2148 117.575 96.3343C117.694 96.4537 117.761 96.6158 117.761 96.7847C117.758 96.9526 117.69 97.1128 117.571 97.2315C117.452 97.3503 117.292 97.4185 117.124 97.4217V97.4217Z" fill="#D1D3D4"/>
<path d="M74.7508 31.4018H57.4495C57.2816 31.3986 57.1215 31.3304 57.0027 31.2116C56.8839 31.0929 56.8158 30.9327 56.8125 30.7648C56.8125 30.5959 56.8796 30.4339 56.9991 30.3144C57.1185 30.1949 57.2806 30.1278 57.4495 30.1278H74.7508C74.9197 30.1278 75.0817 30.1949 75.2012 30.3144C75.3207 30.4339 75.3878 30.5959 75.3878 30.7648C75.3878 30.9338 75.3207 31.0958 75.2012 31.2153C75.0817 31.3347 74.9197 31.4018 74.7508 31.4018Z" fill="#D1D3D4"/>
<path d="M74.7508 37.6191H57.4495C57.2816 37.6159 57.1215 37.5477 57.0027 37.4289C56.8839 37.3102 56.8158 37.15 56.8125 36.9821C56.8125 36.8132 56.8796 36.6511 56.9991 36.5317C57.1185 36.4122 57.2806 36.3451 57.4495 36.3451H74.7508C74.9197 36.3451 75.0817 36.4122 75.2012 36.5317C75.3207 36.6511 75.3878 36.8132 75.3878 36.9821C75.3878 37.1511 75.3207 37.3131 75.2012 37.4325C75.0817 37.552 74.9197 37.6191 74.7508 37.6191Z" fill="#D1D3D4"/>
<path d="M122.425 25.1719H57.4495C57.2806 25.1719 57.1185 25.1047 56.9991 24.9853C56.8796 24.8658 56.8125 24.7038 56.8125 24.5348C56.8158 24.3669 56.8839 24.2068 57.0027 24.088C57.1215 23.9693 57.2816 23.9011 57.4495 23.8978H122.425C122.594 23.8978 122.756 23.9649 122.875 24.0844C122.995 24.2039 123.062 24.3659 123.062 24.5348C123.062 24.7038 122.995 24.8658 122.875 24.9853C122.756 25.1047 122.594 25.1719 122.425 25.1719Z" fill="#D1D3D4"/>
<path d="M246.211 278.716L244.695 297.444C244.695 297.444 217.406 302.31 210.297 302.31C203.188 302.31 203.927 298.068 214.743 291.596C223.241 286.5 229.815 285.927 229.815 285.927L230.668 277.199L246.211 278.716Z" fill="white"/>
<path d="M210.318 302.896C206.496 302.896 205.451 301.712 205.222 300.718C204.432 297.813 209.834 293.889 214.522 291.099C219.059 288.276 224.092 286.343 229.352 285.404L230.155 277.136C230.174 276.984 230.251 276.845 230.369 276.748C230.488 276.65 230.639 276.602 230.792 276.613L246.322 278.129C246.474 278.149 246.613 278.225 246.71 278.344C246.807 278.462 246.855 278.614 246.844 278.766L245.328 297.495C245.318 297.624 245.265 297.745 245.177 297.84C245.089 297.935 244.972 297.997 244.844 298.017C243.685 298.221 217.363 302.896 210.318 302.896ZM231.212 277.836L230.409 285.977C230.398 286.112 230.339 286.238 230.244 286.334C230.148 286.43 230.022 286.488 229.887 286.5C224.625 287.358 219.587 289.26 215.07 292.093C208.063 296.272 205.948 299.125 206.292 300.412C206.534 301.253 207.999 301.686 210.318 301.686C216.777 301.686 240.602 297.546 244.156 296.909L245.647 279.187L231.212 277.836Z" fill="#231F20"/>
<path d="M283.438 279.009C284.349 282.922 284.662 286.951 284.368 290.959C283.667 296.119 283.323 303.062 284.533 307.215C285.743 311.369 291.069 315.777 295.235 313C299.401 310.222 299.159 297.023 298.471 293.583C297.783 290.143 295.923 281.098 296.152 276.244L283.438 279.009Z" fill="white"/>
<path d="M292.393 314.452C291.623 314.445 290.859 314.303 290.138 314.031C288.685 313.447 287.379 312.547 286.315 311.397C285.251 310.247 284.455 308.875 283.985 307.381C282.443 302.145 283.45 293.43 283.793 290.882C284.072 286.947 283.763 282.993 282.876 279.149C282.857 279.073 282.854 278.994 282.867 278.918C282.881 278.841 282.91 278.768 282.953 278.703C282.99 278.637 283.041 278.58 283.103 278.536C283.165 278.492 283.235 278.462 283.309 278.448L296.05 275.671C296.137 275.653 296.227 275.655 296.313 275.677C296.399 275.699 296.479 275.74 296.546 275.798C296.616 275.855 296.67 275.927 296.706 276.009C296.741 276.091 296.756 276.18 296.75 276.269C296.534 280.881 298.241 289.443 298.98 293.087L299.056 293.469C299.693 296.667 300.126 310.451 295.565 313.484C294.63 314.12 293.524 314.457 292.393 314.452V314.452ZM284.137 279.454C284.985 283.253 285.256 287.157 284.94 291.035C284.609 293.52 283.666 302.03 285.093 307.063C285.522 308.376 286.23 309.582 287.169 310.595C288.108 311.609 289.256 312.408 290.533 312.936C291.241 313.227 292.009 313.34 292.77 313.267C293.532 313.194 294.264 312.936 294.903 312.515C298.725 309.967 298.61 297.227 297.897 293.698L297.821 293.316C297.12 289.812 295.527 281.85 295.553 276.97L284.137 279.454Z" fill="#231F20"/>
<path d="M266.035 119.717C263.652 118.227 229.088 117.169 229.088 117.169C229.088 117.169 226.757 232.175 229.712 281.977H246.925C246.925 281.977 264.188 207.587 261.219 181.329C261.219 181.329 280.266 255.312 280.941 284.321H300.586C300.586 284.321 303.491 216.39 296.344 186.323C289.197 156.256 266.035 119.717 266.035 119.717Z" fill="#231F20"/>
<path d="M300.599 284.843H280.953C280.807 284.844 280.666 284.786 280.561 284.684C280.456 284.581 280.396 284.442 280.393 284.296C279.832 260.369 266.569 205.09 262.123 187.151C262.505 217.002 247.65 281.429 247.484 282.092C247.458 282.216 247.389 282.328 247.289 282.407C247.189 282.486 247.064 282.528 246.937 282.525H229.674C229.529 282.525 229.39 282.469 229.286 282.37C229.182 282.27 229.12 282.134 229.113 281.99C226.196 232.749 228.463 118.303 228.489 117.144C228.491 117.069 228.508 116.996 228.538 116.928C228.569 116.86 228.613 116.799 228.667 116.749C228.72 116.695 228.784 116.654 228.854 116.628C228.925 116.601 229 116.59 229.075 116.596C232.617 116.71 263.856 117.717 266.289 119.246C266.363 119.288 266.425 119.35 266.467 119.424C266.697 119.781 289.82 156.371 296.904 186.158C303.987 215.944 301.185 283.633 301.159 284.257C301.164 284.334 301.154 284.41 301.128 284.482C301.102 284.554 301.061 284.619 301.009 284.675C300.956 284.73 300.892 284.773 300.821 284.802C300.751 284.831 300.675 284.845 300.599 284.843V284.843ZM281.488 283.722H300.051C300.293 277.25 302.51 214.657 295.795 186.425C288.954 157.658 267.066 122.507 265.576 120.176C263.359 119.169 242.707 118.176 229.584 117.768C229.419 126.571 227.431 233.704 230.196 281.429H246.478C247.892 275.276 263.473 206.262 260.658 181.38C260.648 181.242 260.688 181.106 260.773 180.996C260.857 180.887 260.979 180.812 261.114 180.787C261.25 180.762 261.39 180.787 261.508 180.859C261.626 180.931 261.714 181.044 261.754 181.176C261.957 181.89 280.609 254.598 281.501 283.722H281.488Z" fill="#231F20"/>
<path d="M292.166 46.8685C291.384 45.7049 290.645 44.5328 289.949 43.3522C287.436 39.1248 285.427 34.6181 283.961 29.924C282.457 25.0954 282.623 19.7318 281.107 15.0434C279.081 8.76242 272.049 3.75551 265.933 2.02284C253.117 -1.60813 238.899 5.70477 234.987 18.5852C234.159 21.8141 233.76 25.1383 233.802 28.4716C233.446 40.1416 233.085 51.8075 232.72 63.469C232.388 74.3237 230.668 85.0128 237.204 94.4788C242.912 102.76 252.926 107.219 262.901 108.493C277.438 110.34 293.656 105.13 301.364 92.6697C303.523 89.1273 304.934 85.1805 305.51 81.0723C306.086 76.9641 305.816 72.7814 304.715 68.7817C302.421 60.6407 296.867 53.9648 292.166 46.8685Z" fill="white"/>
<path d="M268.584 109.436C266.68 109.435 264.778 109.316 262.889 109.079C251.563 107.64 242.059 102.429 236.785 94.7846C231.09 86.5289 231.536 77.5853 231.994 68.1065C232.083 66.5522 232.16 64.9979 232.198 63.4309L233.294 28.4334C233.249 25.0488 233.651 21.6731 234.491 18.3941C238.428 5.46273 252.926 -2.28334 266.164 1.46229C272.126 3.15674 279.541 8.06174 281.719 14.865C282.432 17.3259 282.923 19.8459 283.185 22.3945C283.437 24.8809 283.906 27.3406 284.586 29.7456C286.039 34.3976 288.027 38.8653 290.51 43.0592C291.147 44.1294 291.861 45.276 292.714 46.55C293.695 48.0279 294.714 49.5058 295.734 50.9709C299.556 56.4365 303.492 62.1059 305.34 68.6289C306.459 72.7077 306.734 76.9722 306.147 81.1609C305.56 85.3497 304.123 89.3743 301.925 92.9882C294.663 104.646 280.815 109.436 268.584 109.436ZM259.297 1.67888C248.76 1.67888 238.708 8.50765 235.612 18.7381C234.799 21.9174 234.41 25.1902 234.453 28.4716L233.37 63.4563C233.37 65.0361 233.243 66.6032 233.166 68.1702C232.708 77.4324 232.274 86.1849 237.74 94.1221C242.836 101.499 252.047 106.518 263.029 107.92C276.088 109.589 292.867 105.372 300.932 92.3767C303.032 88.8997 304.401 85.0309 304.955 81.0069C305.509 76.9829 305.237 72.8881 304.155 68.9729C302.371 62.6027 298.486 57.048 294.727 51.6589C293.695 50.181 292.663 48.7031 291.67 47.2125C290.816 45.9385 290.09 44.7664 289.44 43.6835C286.913 39.4138 284.89 34.8647 283.414 30.1278C282.71 27.6568 282.224 25.1288 281.961 22.5729C281.713 20.0933 281.239 17.6413 280.547 15.2472C278.585 9.14466 271.629 4.26515 265.781 2.60891C263.652 1.99931 261.448 1.68635 259.233 1.67888H259.297Z" fill="#231F20"/>
<path d="M254.807 56.704C254.807 56.704 238.118 66.0935 234.882 82.2609C231.646 98.4283 235.277 134.738 235.277 134.738L276.58 133.018C276.58 133.018 272.542 87.2423 276.58 74.4129C280.619 61.5835 280.492 57.9907 276.58 56.7167C272.669 55.4427 262.057 48.6649 254.807 56.704Z" fill="white"/>
<path d="M235.28 135.324C235.135 135.321 234.996 135.265 234.891 135.166C234.785 135.068 234.719 134.933 234.707 134.789C234.707 134.432 231.101 98.2244 234.312 82.1462C237.446 66.5011 253.129 57.0097 254.441 56.2452C260.811 49.3018 269.64 53.1366 274.405 55.2005C275.335 55.6082 276.151 55.9522 276.762 56.1561C281.145 57.583 281.234 61.5452 277.132 74.5785C273.182 87.1658 277.132 132.508 277.132 132.967C277.142 133.124 277.092 133.279 276.992 133.4C276.939 133.459 276.874 133.507 276.801 133.54C276.729 133.573 276.651 133.59 276.571 133.591L235.28 135.311V135.324ZM263.487 53.4169C261.923 53.3849 260.371 53.6982 258.942 54.3346C257.512 54.9711 256.241 55.9149 255.218 57.0988C255.174 57.145 255.122 57.1837 255.066 57.2135C254.9 57.3154 238.503 66.6668 235.433 82.3755C232.464 97.2051 235.344 129.514 235.777 134.126L275.921 132.457C275.437 126.763 272.176 86.3759 275.998 74.2217C280.189 60.8827 279.54 58.2964 276.367 57.2645C275.705 57.0479 274.877 56.6912 273.921 56.2707C271.131 55.0731 267.309 53.4169 263.487 53.4169Z" fill="#231F20"/>
<path d="M255.283 51.3021C255.283 51.3021 256.557 53.1622 253.627 59.5833C250.837 64.8577 247.945 88.6438 247.346 96.7848C246.161 113.054 241.957 219.308 241.957 219.308L213.801 217.282C213.801 217.282 226.312 95.6254 229.089 81.4328C230.326 74.5127 233.415 68.057 238.027 62.7516C242.639 57.4463 248.602 53.4897 255.283 51.3021V51.3021Z" fill="#1E71B9"/>
<path d="M250.593 53.1622C250.593 53.1622 237.114 58.1309 231.712 63.1761C226.31 68.2212 202.855 111.895 202.855 111.895L218.144 119.985L236.732 97.5365" fill="#1E71B9"/>
<path d="M223.621 112.443C223.379 112.443 222.997 112.328 222.806 111.64C222.77 111.491 222.792 111.335 222.868 111.202C222.944 111.07 223.067 110.971 223.213 110.926C223.335 110.895 223.462 110.895 223.583 110.926C224.946 107.589 228.055 88.4527 229.8 76.4259C229.811 76.3506 229.837 76.2782 229.876 76.2128C229.914 76.1474 229.966 76.0903 230.027 76.0448C230.088 75.9992 230.157 75.9661 230.231 75.9473C230.304 75.9286 230.381 75.9245 230.456 75.9354C230.532 75.9463 230.604 75.9719 230.669 76.0107C230.735 76.0496 230.792 76.1009 230.837 76.1619C230.883 76.2228 230.916 76.2921 230.935 76.3658C230.954 76.4395 230.958 76.5162 230.947 76.5915C225.774 112.264 224.245 112.392 223.659 112.43L223.621 112.443Z" fill="#231F20"/>
<path d="M253.575 46.9577L253.499 59.5832C253.499 59.5832 254.773 66.6413 262.417 64.4882C264.682 63.8351 266.773 62.6839 268.536 61.1189C270.3 59.5538 271.691 57.6145 272.609 55.4427L271.743 33.5804C270.732 29.7595 270.303 25.8082 270.469 21.8594C261.13 21.7065 253.792 14.6611 253.792 14.6611C253.792 14.6611 250.581 19.4769 249.192 21.0313C248.068 22.1757 247.096 23.4603 246.3 24.8533C245.026 27.274 245.026 30.3189 245.115 33.0071C245.147 36.1975 245.467 39.3785 246.071 42.5113C247.37 48.4228 253.575 46.9577 253.575 46.9577Z" fill="white"/>
<path d="M259.741 65.482C258.471 65.5048 257.22 65.1645 256.136 64.501C254.489 63.3652 253.341 61.6419 252.925 59.6852L253.002 47.6456C251.337 47.8692 249.644 47.5378 248.186 46.7028C247.489 46.2339 246.897 45.6265 246.445 44.9185C245.994 44.2105 245.693 43.4171 245.562 42.5878C244.945 39.4225 244.625 36.2064 244.606 32.9816C244.542 30.4336 244.466 27.1338 245.88 24.5348C246.686 23.0888 247.675 21.7528 248.823 20.5599C250.174 19.082 253.333 14.3299 253.371 14.2917C253.415 14.218 253.476 14.1561 253.55 14.1117C253.623 14.0673 253.706 14.0416 253.792 14.0369C253.875 14.0256 253.959 14.0335 254.039 14.06C254.118 14.0865 254.191 14.1309 254.25 14.1897C254.327 14.2534 261.551 21.0822 270.545 21.2224C270.622 21.2234 270.697 21.2397 270.767 21.2704C270.837 21.301 270.9 21.3453 270.953 21.4007C271.01 21.4577 271.055 21.5252 271.085 21.5996C271.116 21.6739 271.131 21.7535 271.131 21.8339C270.956 25.3944 271.304 28.9613 272.163 32.421C272.274 32.7826 272.351 33.1537 272.393 33.5294C272.393 33.6696 273.259 55.3917 273.259 55.3917C273.272 55.4633 273.272 55.5367 273.259 55.6083C272.316 57.8728 270.874 59.8955 269.041 61.5256C267.208 63.1557 265.031 64.3513 262.672 65.0233C261.721 65.3136 260.735 65.468 259.741 65.482V65.482ZM254.085 59.5832C254.256 60.457 254.621 61.281 255.154 61.9944C255.686 62.7078 256.373 63.2923 257.162 63.7046C257.951 64.1168 258.823 64.3464 259.712 64.3762C260.602 64.406 261.487 64.2353 262.302 63.8767C264.462 63.2521 266.458 62.1587 268.147 60.6744C269.836 59.1902 271.177 57.3516 272.074 55.2898L271.208 33.5294C271.171 33.2447 271.112 32.9635 271.029 32.6886C270.173 29.3188 269.808 25.843 269.946 22.369C262.06 22.0123 255.766 17.0563 253.957 15.4893C252.633 17.5154 251.204 19.4715 249.677 21.3498C248.597 22.459 247.656 23.6954 246.874 25.0317C245.6 27.3632 245.702 30.3062 245.765 32.8924C245.785 36.0491 246.101 39.197 246.708 42.2947C246.808 42.9717 247.046 43.6208 247.408 44.2017C247.769 44.7826 248.247 45.2827 248.81 45.6709C250.229 46.4337 251.872 46.6685 253.448 46.3334C253.534 46.3165 253.623 46.3179 253.708 46.3377C253.794 46.3574 253.875 46.395 253.945 46.448C254.013 46.5034 254.068 46.5733 254.105 46.6527C254.143 46.7321 254.162 46.8189 254.161 46.9067L254.085 59.5323V59.5832Z" fill="#231F20"/>
<path d="M253.651 53.1623C256.764 53.2143 259.778 52.0697 262.072 49.9645C263.01 49.0947 263.746 48.0307 264.23 46.8469C264.714 45.6631 264.934 44.3878 264.875 43.1102C264.875 43.1102 259.333 46.8304 253.574 46.9323L253.651 53.1623Z" fill="#231F20"/>
<path d="M253.882 53.6846H253.627C253.483 53.678 253.347 53.6161 253.247 53.5117C253.147 53.4072 253.092 53.2684 253.092 53.124L253.016 46.9195C253.016 46.773 253.073 46.6323 253.175 46.5276C253.278 46.4228 253.417 46.3623 253.563 46.3589C259.093 46.2315 264.52 42.6388 264.571 42.6133C264.652 42.5663 264.745 42.5416 264.839 42.5416C264.933 42.5416 265.025 42.5663 265.106 42.6133C265.194 42.6513 265.27 42.7111 265.328 42.7869C265.386 42.8627 265.424 42.9521 265.437 43.0465C265.511 44.4095 265.284 45.7719 264.773 47.0377C264.263 48.3035 263.48 49.4418 262.482 50.3721C260.144 52.5347 257.066 53.72 253.882 53.6846V53.6846ZM254.15 47.4546L254.213 52.5507C256.983 52.4979 259.636 51.4277 261.666 49.544C263.167 48.0903 264.109 46.1559 264.329 44.0784C261.23 45.956 257.754 47.1222 254.15 47.4928V47.4546Z" fill="#231F20"/>
<path d="M258.046 28.8157C258.046 28.8157 253.995 34.88 254.951 35.9375C255.906 36.9949 258.62 36.2942 258.62 36.2942" fill="white"/>
<path d="M256.835 37.1223C256.42 37.1566 256.004 37.1066 255.61 36.9752C255.215 36.8438 254.852 36.6338 254.541 36.3578C253.433 35.1603 255.968 30.9432 257.586 28.5353C257.669 28.4121 257.797 28.3268 257.943 28.2981C258.089 28.2695 258.24 28.2998 258.363 28.3824C258.487 28.4677 258.573 28.5983 258.602 28.7461C258.63 28.8939 258.6 29.047 258.516 29.1723C256.592 32.0389 255.127 35.0456 255.382 35.6189C255.917 36.205 257.701 35.9884 258.478 35.7845C258.55 35.7655 258.625 35.7609 258.699 35.7711C258.773 35.7814 258.843 35.8062 258.908 35.8441C258.972 35.8821 259.027 35.9324 259.072 35.9922C259.116 36.0519 259.148 36.1199 259.166 36.1922C259.201 36.3374 259.178 36.4905 259.102 36.619C259.026 36.7475 258.903 36.8412 258.758 36.8802C258.128 37.034 257.483 37.1152 256.835 37.1223Z" fill="#231F20"/>
<path d="M252.979 27.7548C253.008 27.0306 252.717 26.4312 252.331 26.416C251.944 26.4008 251.607 26.9756 251.579 27.6998C251.55 28.4239 251.841 29.0233 252.228 29.0385C252.614 29.0537 252.951 28.4789 252.979 27.7548Z" fill="#231F20"/>
<path d="M262.596 26.5685C262.625 25.8443 262.334 25.2449 261.948 25.2298C261.561 25.2146 261.225 25.7893 261.196 26.5135C261.168 27.2376 261.458 27.837 261.845 27.8522C262.231 27.8674 262.568 27.2927 262.596 26.5685Z" fill="#231F20"/>
<path d="M255.281 39.5046L258.517 38.6765C258.517 38.6765 259.18 43.3904 257.358 43.7726C255.536 44.1548 255.281 39.5046 255.281 39.5046Z" fill="white"/>
<path d="M257.117 44.397C256.79 44.3989 256.471 44.2913 256.212 44.0912C254.938 43.1102 254.722 39.8869 254.696 39.5302C254.689 39.4008 254.727 39.2729 254.804 39.1684C254.88 39.0639 254.991 38.9891 255.117 38.9569L258.353 38.1288C258.429 38.1082 258.509 38.1039 258.587 38.1163C258.665 38.1288 258.74 38.1576 258.806 38.2009C258.872 38.2442 258.928 38.3011 258.971 38.3677C259.014 38.4343 259.042 38.5092 259.053 38.5874C259.168 39.4665 259.678 43.8492 257.461 44.3588C257.348 44.3841 257.232 44.3969 257.117 44.397V44.397ZM255.843 39.9252C255.862 41.0915 256.226 42.2261 256.887 43.1867C256.934 43.2135 256.987 43.2276 257.04 43.2276C257.094 43.2276 257.147 43.2135 257.193 43.1867C257.983 43.0083 258.136 40.9571 257.996 39.3646L255.843 39.9252Z" fill="#231F20"/>
<path d="M267.578 27.0956C268.057 25.5241 268.86 24.0702 269.935 22.8276C270.484 22.2131 271.207 21.7795 272.007 21.5839C272.808 21.3883 273.649 21.4399 274.42 21.732C276.038 22.5346 276.585 24.5985 276.585 26.4076C276.53 28.4699 276.156 30.5113 275.477 32.4593C275.18 33.6436 274.583 34.7316 273.744 35.6188C273.314 36.0489 272.756 36.3274 272.154 36.4124C271.552 36.4975 270.939 36.3844 270.406 36.0902" fill="white"/>
<path d="M271.639 37.0331C271.085 37.0425 270.541 36.8776 270.085 36.5617C270.02 36.5206 269.965 36.4668 269.922 36.4034C269.879 36.3401 269.849 36.2686 269.835 36.1934C269.821 36.1182 269.822 36.0409 269.839 35.9662C269.855 35.8915 269.887 35.821 269.932 35.759C269.974 35.6958 270.029 35.6417 270.092 35.5997C270.156 35.5577 270.227 35.5288 270.302 35.5145C270.376 35.5003 270.453 35.5011 270.527 35.5168C270.602 35.5325 270.672 35.5629 270.735 35.6061C271.158 35.824 271.64 35.9008 272.11 35.8251C272.58 35.7495 273.013 35.5254 273.347 35.1857C274.133 34.3793 274.687 33.3758 274.952 32.2809C275.624 30.3937 275.99 28.4107 276.035 26.4077C276.035 25.6433 275.907 23.0952 274.187 22.2544C273.526 22.0151 272.807 21.9806 272.125 22.1556C271.443 22.3306 270.83 22.7069 270.365 23.2354C269.35 24.4267 268.591 25.8145 268.136 27.3122C268.079 27.455 267.968 27.5696 267.828 27.6316C267.687 27.6935 267.528 27.6978 267.384 27.6435C267.239 27.5891 267.122 27.4795 267.057 27.3386C266.993 27.1978 266.987 27.0371 267.04 26.8918C267.567 25.2355 268.435 23.7078 269.588 22.4073C270.221 21.722 271.045 21.2418 271.953 21.0284C272.861 20.815 273.812 20.8781 274.684 21.2097C276.939 22.3181 277.232 25.2228 277.232 26.4077C277.191 28.5317 276.808 30.6353 276.098 32.6377C275.778 33.9167 275.128 35.0894 274.213 36.0393C273.509 36.6794 272.591 37.0337 271.639 37.0331V37.0331Z" fill="#231F20"/>
<path d="M273.332 52.9966C273.332 52.9966 269.141 86.5671 269.141 104.302C269.141 124.686 268.797 221.13 268.797 221.13L315.413 219.142C315.413 219.142 296.443 161.047 294.328 137.401C293.054 122.444 291.78 82.1335 292.43 71.5082C293.08 60.8828 273.332 52.9966 273.332 52.9966Z" fill="#1E71B9"/>
<path d="M226.933 104.302L247.47 150.332H207.593L187.578 105.333L226.933 104.302Z" fill="white"/>
<path d="M247.475 150.918H207.598C207.484 150.916 207.373 150.881 207.279 150.818C207.184 150.754 207.109 150.666 207.063 150.561L187.048 105.576C187.001 105.492 186.977 105.398 186.977 105.302C186.977 105.206 187.001 105.111 187.048 105.028C187.099 104.947 187.168 104.879 187.25 104.83C187.332 104.782 187.424 104.753 187.519 104.747L226.861 103.715C226.977 103.707 227.093 103.736 227.191 103.798C227.29 103.86 227.366 103.951 227.409 104.059L247.946 150.09C247.993 150.176 248.018 150.272 248.018 150.37C248.018 150.468 247.993 150.565 247.946 150.651C247.896 150.731 247.827 150.797 247.744 150.844C247.662 150.89 247.57 150.916 247.475 150.918V150.918ZM207.98 149.746H246.57L226.543 104.888L188.462 105.894L207.98 149.746Z" fill="#231F20"/>
<path d="M262.719 143.656C254.336 143.949 245.532 141.911 237.595 144.93L232.168 147.02C232.2 146.405 232.395 145.809 232.733 145.294C233.071 144.78 233.54 144.364 234.091 144.089C235.199 143.567 236.249 142.931 237.225 142.191L232.614 144.408C231.722 144.828 230.409 145.147 229.938 144.281C231.718 142.509 233.708 140.96 235.862 139.669C234.207 140.471 232.505 141.173 230.766 141.771C229.671 142.14 228.218 142.408 227.505 141.516C229.419 140.03 231.573 138.884 233.875 138.127L229.556 139.401C229.057 139.592 228.521 139.666 227.989 139.618C227.725 139.579 227.483 139.45 227.303 139.253C227.124 139.055 227.02 138.801 227.008 138.535C227.053 138.314 227.145 138.106 227.277 137.924C227.409 137.742 227.577 137.59 227.772 137.477C230.701 135.241 234.091 133.688 237.697 132.929C237.353 132.012 235.557 127.119 236.206 126.279C236.856 125.438 239.289 129.935 243.099 130.381C246.908 130.827 259.827 131.438 259.827 131.438" fill="white"/>
<path d="M232.17 147.644C232.061 147.646 231.955 147.615 231.864 147.555C231.785 147.51 231.718 147.446 231.671 147.367C231.624 147.289 231.598 147.2 231.597 147.109C231.554 146.471 231.719 145.836 232.068 145.3C230.794 145.669 229.877 145.427 229.431 144.599C229.368 144.489 229.344 144.362 229.362 144.237C229.381 144.112 229.441 143.997 229.533 143.911C230.119 143.325 230.73 142.764 231.367 142.216L230.934 142.369C229.112 142.994 227.8 142.853 227.036 141.949C226.933 141.824 226.883 141.664 226.895 141.503C226.905 141.425 226.931 141.35 226.97 141.282C227.009 141.214 227.062 141.155 227.125 141.108C227.472 140.826 227.833 140.563 228.208 140.318H227.8C227.397 140.257 227.029 140.054 226.763 139.746C226.496 139.437 226.349 139.044 226.348 138.636C226.397 138.333 226.512 138.044 226.684 137.789C226.855 137.534 227.079 137.319 227.341 137.159C230.155 135 233.394 133.463 236.846 132.648C234.858 127.119 235.444 126.355 235.674 126.062C235.747 125.963 235.841 125.882 235.949 125.823C236.056 125.763 236.175 125.728 236.298 125.718C236.871 125.718 237.381 126.164 238.234 126.992C239.492 128.474 241.194 129.511 243.088 129.948C246.834 130.381 259.651 130.979 259.778 130.992C259.917 131.013 260.044 131.083 260.136 131.189C260.227 131.296 260.278 131.431 260.278 131.572C260.278 131.712 260.227 131.848 260.136 131.955C260.044 132.061 259.917 132.131 259.778 132.152C259.243 132.152 246.783 131.54 242.999 131.107C240.566 130.814 238.706 129.018 237.47 127.82C237.19 127.552 236.846 127.221 236.616 127.03C236.869 129.042 237.41 131.007 238.222 132.865C238.26 132.94 238.279 133.023 238.279 133.107C238.279 133.191 238.26 133.274 238.222 133.349C238.181 133.424 238.125 133.489 238.056 133.539C237.988 133.59 237.91 133.625 237.827 133.642C234.308 134.378 231 135.893 228.144 138.076C227.902 138.267 227.622 138.509 227.596 138.713C227.571 138.917 227.838 139.121 228.106 139.184C228.54 139.215 228.976 139.145 229.38 138.98L233.712 137.706C233.784 137.683 233.861 137.674 233.937 137.681C234.013 137.687 234.087 137.709 234.155 137.744C234.223 137.78 234.283 137.829 234.331 137.888C234.38 137.947 234.416 138.015 234.438 138.089C234.482 138.234 234.469 138.391 234.4 138.526C234.331 138.662 234.212 138.765 234.068 138.815C232.108 139.463 230.256 140.403 228.577 141.605C229.276 141.7 229.987 141.612 230.641 141.35C232.38 140.761 234.082 140.067 235.737 139.273C235.872 139.201 236.031 139.185 236.178 139.229C236.325 139.273 236.448 139.374 236.521 139.509C236.593 139.644 236.609 139.803 236.565 139.95C236.521 140.097 236.42 140.22 236.285 140.293C234.363 141.449 232.573 142.811 230.947 144.357C231.487 144.39 232.025 144.271 232.501 144.013L237.1 141.796C237.227 141.737 237.369 141.724 237.504 141.759C237.639 141.793 237.758 141.874 237.839 141.987C237.918 142.102 237.953 142.241 237.936 142.38C237.92 142.518 237.854 142.646 237.75 142.739C237.104 143.295 236.384 143.758 235.61 144.115C235.24 144.306 234.871 144.497 234.527 144.713C233.906 145.076 233.396 145.6 233.049 146.23L237.508 144.51C243.076 142.369 249.076 142.675 254.886 142.968C257.51 143.095 260.211 143.236 262.823 143.146C262.978 143.143 263.128 143.199 263.242 143.304C263.356 143.408 263.425 143.553 263.434 143.707C263.438 143.86 263.381 144.009 263.276 144.121C263.172 144.233 263.027 144.299 262.874 144.306C260.211 144.408 257.472 144.306 254.822 144.127C249.14 143.847 243.254 143.541 237.929 145.593L232.501 147.682C232.39 147.706 232.273 147.692 232.17 147.644V147.644Z" fill="#231F20"/>
<path d="M291.805 66.0425C291.805 66.0425 322.7 143.452 311.234 147.363C306.533 148.969 254.68 150.37 254.68 150.37L253.406 129.756L279.384 126.202L291.805 66.0425Z" fill="#1E71B9"/>
<path d="M289.298 125.896C289.151 125.897 289.01 125.842 288.901 125.743C288.792 125.644 288.725 125.508 288.712 125.361L284.368 75.5213C284.351 75.4402 284.351 75.3565 284.369 75.2756C284.387 75.1947 284.421 75.1185 284.471 75.0519C284.52 74.9854 284.583 74.9301 284.655 74.8897C284.728 74.8492 284.808 74.8246 284.89 74.8173C284.973 74.8101 285.056 74.8204 285.134 74.8476C285.212 74.8748 285.284 74.9183 285.344 74.9752C285.404 75.0321 285.452 75.1011 285.483 75.1776C285.515 75.2542 285.53 75.3366 285.527 75.4194L289.872 125.259C289.879 125.335 289.871 125.411 289.848 125.483C289.826 125.555 289.789 125.622 289.741 125.68C289.692 125.738 289.632 125.786 289.565 125.821C289.498 125.856 289.425 125.877 289.349 125.883L289.298 125.896Z" fill="#231F20"/>
<path d="M261.84 152.256C261.701 152.235 261.574 152.165 261.482 152.059C261.39 151.953 261.34 151.817 261.34 151.676C261.34 151.536 261.39 151.4 261.482 151.294C261.574 151.187 261.701 151.117 261.84 151.097L297.258 148.549C297.334 148.542 297.411 148.55 297.484 148.573C297.557 148.597 297.625 148.634 297.683 148.684C297.741 148.734 297.789 148.795 297.823 148.864C297.857 148.932 297.877 149.007 297.882 149.084C297.892 149.237 297.842 149.389 297.742 149.505C297.642 149.622 297.5 149.695 297.347 149.708L261.929 152.256H261.84Z" fill="#231F20"/>
<path d="M197.464 136.611C197.706 137.324 198.012 138.038 198.229 138.662C198.662 140.164 199.443 141.544 200.509 142.688C201.838 143.794 203.465 144.481 205.185 144.663C207.071 144.981 208.943 145.312 210.829 145.669C211.775 145.977 212.803 145.903 213.695 145.465C213.782 145.419 213.858 145.355 213.92 145.279C213.981 145.202 214.026 145.114 214.052 145.019C214.057 144.875 214.026 144.732 213.961 144.603C213.897 144.474 213.801 144.363 213.683 144.28C211.606 142.395 208.345 142.586 205.962 141.108C207.916 141.656 209.954 141.846 211.976 141.669C212.489 141.684 212.998 141.576 213.461 141.354C213.924 141.133 214.328 140.804 214.638 140.395C212.09 138.636 208.612 139.273 205.822 137.987C208.257 138.461 210.778 138.176 213.046 137.171C213.441 137.006 213.887 136.522 213.581 136.229C213.451 136.126 213.287 136.076 213.122 136.088L204.204 135.541C205.92 135.526 207.612 135.134 209.16 134.394C209.975 133.999 210.829 133.375 210.905 132.47C210.927 132.304 210.886 132.136 210.791 131.999C210.612 131.782 210.281 131.808 210.014 131.846C208.88 132.012 204.217 132.674 202.994 132.891C202.485 133.051 201.949 133.106 201.419 133.051C200.889 132.996 200.375 132.833 199.911 132.572C199.488 132.199 199.146 131.744 198.904 131.234C198.385 131.629 197.952 132.125 197.63 132.693C197.308 133.26 197.104 133.886 197.031 134.534C197.055 135.246 197.201 135.949 197.464 136.611V136.611Z" fill="white"/>
<path d="M212.283 146.421C211.761 146.405 211.241 146.345 210.729 146.242C208.843 145.886 206.907 145.554 205.085 145.236C203.253 145.043 201.521 144.301 200.116 143.108C198.985 141.898 198.152 140.441 197.683 138.853C197.594 138.586 197.479 138.305 197.364 138.025C197.25 137.745 197.059 137.21 196.919 136.751C196.638 136.031 196.487 135.268 196.473 134.496C196.544 133.76 196.767 133.046 197.126 132.399C197.486 131.753 197.974 131.187 198.562 130.738C198.629 130.684 198.707 130.646 198.79 130.627C198.873 130.607 198.959 130.605 199.043 130.622C199.127 130.639 199.206 130.674 199.275 130.725C199.343 130.776 199.4 130.841 199.441 130.916C199.568 131.243 199.761 131.541 200.009 131.79C200.256 132.039 200.553 132.235 200.879 132.364C201.206 132.493 201.556 132.553 201.907 132.541C202.258 132.529 202.603 132.444 202.919 132.292C203.875 132.113 206.92 131.668 208.729 131.413L210.003 131.234C210.227 131.182 210.461 131.185 210.683 131.245C210.906 131.305 211.11 131.42 211.277 131.578C211.378 131.702 211.452 131.845 211.496 131.998C211.54 132.151 211.552 132.312 211.532 132.47C211.532 133.133 211.086 134.101 209.455 134.878L208.703 135.222L213.15 135.49C213.449 135.493 213.738 135.601 213.965 135.795C214.078 135.896 214.162 136.024 214.209 136.167C214.256 136.31 214.264 136.463 214.233 136.611C214.167 136.854 214.045 137.079 213.877 137.267C213.709 137.455 213.499 137.601 213.264 137.694C212.483 138.041 211.667 138.305 210.831 138.484C212.298 138.635 213.711 139.123 214.959 139.91C215.078 139.993 215.162 140.117 215.195 140.258C215.228 140.4 215.207 140.548 215.137 140.675C214.788 141.173 214.319 141.575 213.773 141.844C213.228 142.114 212.624 142.242 212.016 142.216L211.175 142.28C212.239 142.579 213.226 143.105 214.067 143.822C214.262 143.967 214.415 144.162 214.511 144.385C214.607 144.609 214.643 144.854 214.615 145.096C214.576 145.269 214.502 145.432 214.396 145.574C214.291 145.717 214.157 145.836 214.003 145.924C213.493 146.26 212.894 146.433 212.283 146.421V146.421ZM198.014 136.42C198.154 136.827 198.307 137.222 198.447 137.592C198.588 137.961 198.689 138.191 198.779 138.458C199.186 139.878 199.914 141.186 200.906 142.28C202.155 143.299 203.673 143.932 205.276 144.102C207.174 144.421 209.098 144.752 210.946 145.109C211.743 145.373 212.61 145.332 213.379 144.994L213.481 144.917C213.421 144.85 213.357 144.786 213.29 144.726C212.124 143.837 210.76 143.243 209.315 142.994C208.035 142.716 206.803 142.252 205.658 141.618C205.545 141.541 205.461 141.427 205.423 141.296C205.384 141.165 205.393 141.024 205.448 140.898C205.502 140.772 205.599 140.67 205.721 140.608C205.844 140.546 205.984 140.529 206.117 140.56C208.004 141.094 209.974 141.275 211.927 141.095C212.572 141.089 213.203 140.904 213.748 140.56C212.475 139.99 211.113 139.646 209.723 139.541C208.301 139.413 206.906 139.078 205.582 138.547C205.451 138.488 205.346 138.382 205.288 138.251C205.23 138.119 205.222 137.971 205.266 137.834C205.31 137.697 205.403 137.581 205.527 137.508C205.651 137.436 205.798 137.411 205.939 137.439C208.252 137.884 210.647 137.617 212.806 136.674L204.193 136.152C204.118 136.149 204.044 136.131 203.976 136.099C203.907 136.067 203.846 136.022 203.795 135.966C203.744 135.911 203.705 135.846 203.679 135.775C203.653 135.704 203.642 135.629 203.645 135.553C203.652 135.403 203.714 135.261 203.82 135.155C203.926 135.049 204.069 134.986 204.219 134.98C205.851 134.962 207.46 134.588 208.933 133.884C209.557 133.591 210.296 133.107 210.347 132.445C210.347 132.445 210.347 132.445 210.117 132.445L208.843 132.623C207.034 132.891 204.015 133.324 203.072 133.489C202.485 133.67 201.865 133.725 201.255 133.651C200.645 133.576 200.057 133.374 199.53 133.056C199.222 132.811 198.959 132.513 198.753 132.177C198.102 132.819 197.688 133.664 197.581 134.572C197.605 135.209 197.734 135.838 197.963 136.432L198.014 136.42Z" fill="#231F20"/>
<path d="M253.46 130.343C253.315 130.341 253.177 130.287 253.069 130.191C252.961 130.095 252.892 129.963 252.874 129.82C252.859 129.667 252.906 129.514 253.004 129.395C253.102 129.275 253.243 129.199 253.396 129.183L293.579 124.724C293.732 124.71 293.885 124.757 294.004 124.855C294.124 124.952 294.2 125.093 294.216 125.247C294.225 125.322 294.218 125.398 294.197 125.471C294.177 125.544 294.141 125.612 294.094 125.672C294.047 125.731 293.988 125.78 293.921 125.816C293.855 125.853 293.782 125.876 293.706 125.884L253.523 130.33L253.46 130.343Z" fill="#231F20"/>
<path d="M286.059 198.325C284.859 198.349 283.669 198.114 282.569 197.634C281.47 197.155 280.487 196.443 279.688 195.547C275.866 190.923 276.937 175.316 276.975 174.653C276.988 174.507 277.055 174.371 277.164 174.271C277.272 174.172 277.414 174.118 277.561 174.118H296.353C296.492 174.139 296.619 174.209 296.71 174.315C296.802 174.422 296.853 174.557 296.853 174.698C296.853 174.838 296.802 174.974 296.71 175.081C296.619 175.187 296.492 175.257 296.353 175.278H278.134C277.969 178.08 277.408 190.986 280.606 194.808C281.588 195.869 282.86 196.619 284.263 196.966C285.667 197.312 287.142 197.24 288.505 196.758C290.734 195.968 294.493 193.381 294.646 184.922C294.649 184.772 294.711 184.629 294.818 184.525C294.925 184.42 295.069 184.361 295.219 184.361V184.361C295.372 184.365 295.518 184.428 295.625 184.537C295.732 184.647 295.792 184.794 295.792 184.947C295.627 194.108 291.397 196.961 288.887 197.853C287.977 198.166 287.021 198.325 286.059 198.325V198.325Z" fill="#231F20"/>
<path d="M229.319 195.407C228.314 195.395 227.329 195.128 226.455 194.631C225.582 194.134 224.849 193.424 224.325 192.566C221.356 187.954 222.21 172.398 222.248 171.736C222.26 171.588 222.327 171.45 222.436 171.349C222.544 171.248 222.686 171.191 222.834 171.188H237.23C237.386 171.188 237.535 171.25 237.645 171.36C237.755 171.47 237.816 171.619 237.816 171.774C237.816 171.929 237.755 172.079 237.645 172.188C237.535 172.298 237.386 172.36 237.23 172.36H223.382C223.254 175.188 222.834 188.107 225.293 191.942C225.813 192.811 226.6 193.489 227.537 193.875C228.473 194.26 229.509 194.333 230.491 194.082C233.714 193.165 235.689 188.642 235.778 182.004C235.78 181.927 235.797 181.852 235.828 181.781C235.858 181.711 235.903 181.647 235.959 181.594C236.014 181.541 236.08 181.499 236.152 181.471C236.223 181.443 236.3 181.429 236.377 181.431C236.53 181.434 236.676 181.498 236.783 181.607C236.89 181.717 236.95 181.864 236.95 182.017C236.797 192.375 232.606 194.757 230.809 195.203C230.324 195.34 229.823 195.408 229.319 195.407Z" fill="#231F20"/>
<path d="M272.657 86.5672C274.599 86.5672 276.173 84.9929 276.173 83.0509C276.173 81.1089 274.599 79.5345 272.657 79.5345C270.715 79.5345 269.141 81.1089 269.141 83.0509C269.141 84.9929 270.715 86.5672 272.657 86.5672Z" fill="#231F20"/>
<path d="M272.662 87.1277C271.856 87.1252 271.069 86.884 270.4 86.4345C269.731 85.985 269.211 85.3474 268.904 84.6022C268.598 83.857 268.519 83.0377 268.678 82.2477C268.836 81.4577 269.226 80.7325 269.796 80.1636C270.367 79.5947 271.093 79.2077 271.884 79.0514C272.674 78.8951 273.493 78.9766 274.238 79.2855C274.982 79.5945 275.618 80.117 276.065 80.7872C276.513 81.4574 276.751 82.2451 276.751 83.0509C276.751 83.5873 276.646 84.1185 276.44 84.614C276.234 85.1094 275.933 85.5594 275.553 85.9382C275.173 86.3169 274.722 86.6169 274.226 86.8211C273.73 87.0252 273.198 87.1294 272.662 87.1277V87.1277ZM272.662 80.0951C272.077 80.0951 271.506 80.2685 271.02 80.5933C270.534 80.918 270.155 81.3797 269.931 81.9198C269.707 82.4598 269.649 83.0541 269.763 83.6275C269.877 84.2009 270.158 84.7275 270.572 85.1409C270.985 85.5543 271.512 85.8358 272.085 85.9498C272.658 86.0639 273.253 86.0053 273.793 85.7816C274.333 85.5579 274.795 85.179 275.119 84.693C275.444 84.2069 275.618 83.6355 275.618 83.0509C275.614 82.268 275.302 81.5181 274.748 80.9645C274.195 80.411 273.445 80.0985 272.662 80.0951V80.0951Z" fill="#231F20"/>
<path d="M274.264 84.8217C275.812 84.8217 277.067 83.5668 277.067 82.0188C277.067 80.4708 275.812 79.2159 274.264 79.2159C272.716 79.2159 271.461 80.4708 271.461 82.0188C271.461 83.5668 272.716 84.8217 274.264 84.8217Z" fill="#231F20"/>
<path d="M274.266 85.3824C273.601 85.3824 272.95 85.1851 272.397 84.8155C271.844 84.446 271.413 83.9207 271.158 83.3061C270.904 82.6915 270.837 82.0152 270.967 81.3628C271.097 80.7103 271.417 80.111 271.887 79.6406C272.358 79.1703 272.957 78.8499 273.61 78.7201C274.262 78.5904 274.938 78.657 275.553 78.9115C276.167 79.1661 276.693 79.5972 277.062 80.1503C277.432 80.7034 277.629 81.3537 277.629 82.0189C277.629 82.911 277.275 83.7665 276.644 84.3972C276.013 85.028 275.158 85.3824 274.266 85.3824ZM274.266 79.7767C273.822 79.7741 273.387 79.9035 273.017 80.1483C272.646 80.3932 272.357 80.7425 272.185 81.152C272.013 81.5615 271.967 82.0127 272.052 82.4485C272.137 82.8843 272.35 83.2851 272.663 83.5999C272.976 83.9148 273.376 84.1296 273.811 84.2172C274.246 84.3047 274.698 84.2611 275.108 84.0917C275.519 83.9224 275.87 83.635 276.117 83.266C276.363 82.897 276.495 82.463 276.495 82.0189C276.495 81.4265 276.261 80.858 275.843 80.4379C275.425 80.0178 274.858 79.78 274.266 79.7767V79.7767Z" fill="#231F20"/>
<path d="M245.88 73.3809H245.816C245.669 73.3648 245.535 73.2916 245.442 73.1772C245.349 73.0627 245.305 72.9162 245.319 72.7694C245.408 71.903 247.65 51.748 257.066 49.8369C257.212 49.8105 257.364 49.8423 257.487 49.9256C257.611 50.0088 257.697 50.137 257.728 50.2829C257.758 50.4281 257.73 50.5794 257.648 50.7036C257.567 50.8278 257.44 50.9147 257.295 50.9453C248.682 52.6908 246.453 72.6929 246.44 72.8968C246.419 73.0307 246.351 73.1529 246.249 73.2415C246.146 73.3302 246.015 73.3795 245.88 73.3809V73.3809Z" fill="#231F20"/>
<path d="M273.333 81.8277H273.269C273.186 81.8198 273.105 81.7953 273.032 81.7555C272.958 81.7157 272.893 81.6616 272.841 81.5962C272.788 81.5308 272.75 81.4556 272.727 81.375C272.704 81.2944 272.698 81.21 272.709 81.127C275.066 60.2203 272.097 52.0283 272.072 51.9518C272.008 51.7997 272.007 51.6286 272.069 51.4759C272.131 51.3231 272.251 51.2011 272.403 51.1365C272.56 51.0784 272.734 51.0847 272.887 51.1538C273.039 51.223 273.158 51.3495 273.218 51.5059C273.346 51.8372 276.327 59.9909 273.932 81.2671C273.914 81.4161 273.844 81.5541 273.735 81.6566C273.625 81.7592 273.483 81.8198 273.333 81.8277Z" fill="#231F20"/>
<path d="M251.803 96.3516C251.635 96.3483 251.475 96.2802 251.357 96.1614C251.238 96.0427 251.17 95.8825 251.166 95.7146C251.166 95.5456 251.233 95.3836 251.353 95.2641C251.472 95.1447 251.634 95.0776 251.803 95.0776C252.335 95.0776 252.845 94.8673 253.222 94.4925C253.599 94.1178 253.813 93.609 253.816 93.0774V80.7193C253.813 78.7944 253.047 76.9492 251.686 75.5881C250.324 74.2269 248.479 73.4607 246.554 73.4574H245.204C243.279 73.4607 241.434 74.2269 240.073 75.5881C238.712 76.9492 237.945 78.7944 237.942 80.7193V93.0774C237.945 93.6068 238.157 94.1136 238.532 94.488C238.906 94.8624 239.413 95.0742 239.942 95.0776C240.111 95.0776 240.273 95.1447 240.393 95.2641C240.512 95.3836 240.579 95.5456 240.579 95.7146C240.579 95.8835 240.512 96.0456 240.393 96.165C240.273 96.2845 240.111 96.3516 239.942 96.3516C239.075 96.3482 238.244 96.0022 237.631 95.3889C237.017 94.7756 236.671 93.9447 236.668 93.0774V80.7193C236.671 78.4565 237.572 76.2873 239.172 74.6872C240.772 73.0871 242.941 72.1867 245.204 72.1833H246.554C248.817 72.1867 250.986 73.0871 252.587 74.6872C254.187 76.2873 255.087 78.4565 255.09 80.7193V93.0774C255.087 93.9469 254.739 94.7797 254.123 95.3934C253.507 96.0071 252.673 96.3516 251.803 96.3516V96.3516Z" fill="#231F20"/>
<path d="M241.495 94.4662C241.495 94.0933 241.193 93.791 240.82 93.791C240.447 93.791 240.145 94.0933 240.145 94.4662V97.0398C240.145 97.4127 240.447 97.715 240.82 97.715C241.193 97.715 241.495 97.4127 241.495 97.0398V94.4662Z" fill="#231F20"/>
<path d="M240.821 98.2753C240.483 98.2753 240.159 98.1411 239.92 97.9021C239.681 97.6632 239.547 97.3392 239.547 97.0013V94.4532C239.547 94.1153 239.681 93.7913 239.92 93.5524C240.159 93.3134 240.483 93.1792 240.821 93.1792C241.159 93.1792 241.483 93.3134 241.722 93.5524C241.961 93.7913 242.095 94.1153 242.095 94.4532V97.0013C242.095 97.3392 241.961 97.6632 241.722 97.9021C241.483 98.1411 241.159 98.2753 240.821 98.2753ZM240.821 94.3513C240.79 94.3513 240.761 94.3634 240.74 94.3849C240.718 94.4064 240.706 94.4356 240.706 94.466V97.014C240.706 97.1414 240.923 97.1414 240.923 97.014V94.466C240.923 94.4376 240.913 94.4103 240.894 94.3891C240.875 94.3679 240.849 94.3544 240.821 94.3513V94.3513Z" fill="#231F20"/>
<path d="M252.198 94.4662C252.198 94.0933 251.896 93.791 251.523 93.791C251.15 93.791 250.848 94.0933 250.848 94.4662V97.0398C250.848 97.4127 251.15 97.715 251.523 97.715C251.896 97.715 252.198 97.4127 252.198 97.0398V94.4662Z" fill="#231F20"/>
<path d="M251.524 98.2754C251.186 98.2754 250.862 98.1412 250.623 97.9022C250.384 97.6633 250.25 97.3393 250.25 97.0014V94.4533C250.319 94.1778 250.478 93.9333 250.702 93.7586C250.926 93.5839 251.202 93.489 251.486 93.489C251.77 93.489 252.046 93.5839 252.27 93.7586C252.493 93.9333 252.653 94.1778 252.722 94.4533V97.0014C252.722 97.3264 252.599 97.6394 252.376 97.8763C252.153 98.1131 251.848 98.2559 251.524 98.2754V98.2754ZM251.524 94.3514C251.494 94.3514 251.464 94.3635 251.443 94.385C251.421 94.4065 251.409 94.4357 251.409 94.4661V97.0141C251.409 97.1415 251.639 97.1415 251.639 97.0141V94.4661C251.639 94.4357 251.627 94.4065 251.605 94.385C251.584 94.3635 251.554 94.3514 251.524 94.3514V94.3514Z" fill="#231F20"/>
<path d="M274.265 85.4587H274.163C273.543 85.4266 272.94 85.2395 272.41 84.9146C271.881 84.5896 271.441 84.1372 271.131 83.5986C270.932 83.0037 270.866 82.3721 270.939 81.749C271.012 81.1258 271.221 80.5263 271.551 79.9931C271.639 79.8507 271.778 79.7481 271.94 79.7076C272.102 79.6671 272.274 79.6919 272.418 79.7766C272.49 79.8185 272.552 79.8744 272.602 79.941C272.652 80.0076 272.688 80.0834 272.708 80.1641C272.729 80.2448 272.733 80.3288 272.72 80.411C272.707 80.4932 272.678 80.5721 272.634 80.6429C272.412 81.0004 272.267 81.4002 272.208 81.817C272.148 82.2338 272.177 82.6583 272.29 83.0635C272.558 83.6496 273.271 84.0318 274.405 84.1847C274.574 84.1965 274.732 84.275 274.843 84.4028C274.954 84.5306 275.01 84.6973 274.998 84.8663C274.986 85.0352 274.907 85.1925 274.78 85.3036C274.652 85.4147 274.485 85.4705 274.316 85.4587H274.265Z" fill="white"/>
<path d="M249.762 35.2749C248.269 35.2774 246.809 34.8369 245.567 34.0091C244.325 33.1813 243.356 32.0035 242.784 30.6248C242.211 29.2461 242.061 27.7286 242.351 26.2644C242.642 24.8001 243.361 23.4551 244.416 22.3995C245.472 21.3439 246.817 20.6253 248.281 20.3347C249.745 20.0441 251.263 20.1946 252.641 20.767C254.02 21.3394 255.198 22.3081 256.026 23.5504C256.853 24.7926 257.294 26.2526 257.291 27.7454C257.288 29.7413 256.494 31.6545 255.082 33.0658C253.671 34.4771 251.758 35.2715 249.762 35.2749V35.2749ZM249.762 21.3625C248.502 21.3625 247.271 21.7361 246.223 22.4361C245.175 23.136 244.359 24.1309 243.877 25.2949C243.395 26.4589 243.268 27.7397 243.514 28.9754C243.76 30.2111 244.367 31.3461 245.258 32.237C246.149 33.1279 247.284 33.7346 248.519 33.9804C249.755 34.2262 251.036 34.1 252.2 33.6179C253.364 33.1357 254.359 32.3193 255.059 31.2717C255.759 30.2241 256.132 28.9925 256.132 27.7326C256.132 26.0432 255.461 24.4229 254.266 23.2283C253.072 22.0337 251.451 21.3625 249.762 21.3625V21.3625Z" fill="#231F20"/>
<path d="M264.133 34.0901C262.641 34.0926 261.181 33.6524 259.939 32.8252C258.697 31.9979 257.729 30.8209 257.156 29.443C256.583 28.065 256.432 26.5481 256.722 25.0842C257.011 23.6204 257.728 22.2753 258.783 21.2192C259.837 20.1631 261.181 19.4435 262.644 19.1515C264.108 18.8594 265.625 19.008 267.004 19.5785C268.383 20.149 269.561 21.1157 270.391 22.3563C271.22 23.5969 271.663 25.0556 271.663 26.5478C271.659 28.5449 270.865 30.4594 269.454 31.8728C268.043 33.2861 266.13 34.0833 264.133 34.0901V34.0901ZM264.133 20.1777C262.873 20.1777 261.642 20.5513 260.594 21.2513C259.546 21.9512 258.73 22.9461 258.248 24.1101C257.766 25.2741 257.64 26.5549 257.885 27.7906C258.131 29.0263 258.738 30.1613 259.629 31.0522C260.52 31.9431 261.655 32.5498 262.89 32.7956C264.126 33.0414 265.407 32.9152 266.571 32.4331C267.735 31.9509 268.73 31.1344 269.43 30.0869C270.13 29.0393 270.503 27.8077 270.503 26.5478C270.503 24.8584 269.832 23.2381 268.637 22.0435C267.443 20.8488 265.823 20.1777 264.133 20.1777V20.1777Z" fill="#231F20"/>
<path d="M198.957 103.575L202.384 109.525L219.201 108.862L216.054 103.002L198.957 103.575Z" fill="#231F20"/>
<path d="M202.331 110.098C202.233 110.097 202.137 110.07 202.052 110.021C201.968 109.972 201.897 109.902 201.847 109.818L198.509 103.843C198.462 103.759 198.438 103.665 198.438 103.569C198.438 103.473 198.462 103.379 198.509 103.295C198.559 103.212 198.628 103.143 198.71 103.092C198.791 103.041 198.884 103.01 198.98 103.002L216.091 102.441C216.194 102.438 216.297 102.464 216.387 102.516C216.477 102.568 216.551 102.643 216.6 102.734L219.747 108.595C219.791 108.68 219.813 108.774 219.813 108.869C219.813 108.964 219.791 109.058 219.747 109.143C219.698 109.225 219.629 109.294 219.547 109.343C219.465 109.392 219.371 109.419 219.276 109.423L202.458 110.098H202.331ZM199.859 104.098L202.65 108.952L218.231 108.34L215.683 103.575L199.859 104.098Z" fill="#231F20"/>
<path d="M207.72 100.454C207.069 100.225 206.359 100.225 205.707 100.454C205.278 100.62 204.908 100.912 204.647 101.292C204.385 101.671 204.244 102.121 204.242 102.582C204.268 103.153 204.434 103.708 204.726 104.2C204.997 104.726 205.369 105.194 205.822 105.575C207.402 106.85 210.829 106.658 210.689 104.008C210.606 103.29 210.338 102.605 209.912 102.021C209.396 101.25 208.617 100.693 207.72 100.454V100.454Z" fill="#231F20"/>
<path d="M208.155 106.837C207.193 106.843 206.255 106.54 205.479 105.971C204.951 105.546 204.518 105.017 204.205 104.416C203.86 103.846 203.667 103.197 203.645 102.531C203.648 101.956 203.825 101.395 204.152 100.922C204.479 100.449 204.942 100.086 205.479 99.8808C206.25 99.6088 207.091 99.6088 207.862 99.8808C208.868 100.154 209.747 100.772 210.346 101.626C210.831 102.291 211.131 103.074 211.212 103.894C211.269 104.408 211.167 104.927 210.921 105.382C210.676 105.838 210.297 106.207 209.836 106.442C209.315 106.705 208.739 106.841 208.155 106.837V106.837ZM206.588 100.824C206.353 100.821 206.12 100.86 205.9 100.938C205.579 101.065 205.304 101.284 205.109 101.567C204.914 101.851 204.808 102.186 204.804 102.531C204.834 103.008 204.978 103.471 205.224 103.881C205.454 104.344 205.774 104.756 206.167 105.092C206.626 105.417 207.161 105.62 207.72 105.682C208.279 105.745 208.845 105.664 209.365 105.448C209.627 105.312 209.841 105.098 209.978 104.836C210.115 104.574 210.168 104.276 210.129 103.983C210.05 103.365 209.813 102.777 209.441 102.276C208.986 101.634 208.31 101.18 207.543 101.002V101.002C207.237 100.889 206.914 100.829 206.588 100.824V100.824Z" fill="#231F20"/>
</svg>
