<svg width="178" height="177" viewBox="0 0 178 177" fill="none" xmlns="http://www.w3.org/2000/svg">
<path d="M88.788 174.056C40.9101 174.056 2.12199 135.527 2.12199 88.0282C2.12199 40.5297 40.9101 1.99999 88.788 2C136.666 2 175.454 40.5297 175.454 88.0282C175.454 135.527 136.666 174.056 88.788 174.056Z" stroke="#1E71B9" stroke-width="4"/>
<path d="M136.522 108.755H130.861C130.029 108.755 129.363 109.421 129.363 110.254C129.363 111.086 130.029 111.752 130.861 111.752H136.522C137.354 111.752 138.02 111.086 138.02 110.254C138.02 109.421 137.354 108.755 136.522 108.755Z" fill="#1E71B9"/>
<path d="M136.522 108.755H130.861C130.029 108.755 129.363 109.421 129.363 110.254C129.363 111.086 130.029 111.752 130.861 111.752H136.522C137.354 111.752 138.02 111.086 138.02 110.254C138.02 109.421 137.354 108.755 136.522 108.755Z" stroke="#1E71B9" stroke-miterlimit="10"/>
<path d="M123.37 108.755H117.709C116.877 108.755 116.211 109.421 116.211 110.254C116.211 111.086 116.877 111.752 117.709 111.752H123.37C124.202 111.752 124.868 111.086 124.868 110.254C124.868 109.421 124.202 108.755 123.37 108.755Z" fill="#1E71B9"/>
<path d="M123.37 108.755H117.709C116.877 108.755 116.211 109.421 116.211 110.254C116.211 111.086 116.877 111.752 117.709 111.752H123.37C124.202 111.752 124.868 111.086 124.868 110.254C124.868 109.421 124.202 108.755 123.37 108.755Z" stroke="#1E71B9" stroke-miterlimit="10"/>
<path d="M141.849 29.3428H36.6318C33.3021 29.3428 30.6384 32.0065 30.6384 35.3362V115.581C30.6384 118.911 33.3021 121.575 36.6318 121.575H69.7621L64.7676 130.565H63.1027C59.2736 130.565 56.2769 133.728 56.2769 137.391V145.215C56.2769 146.048 56.9428 146.714 57.7752 146.714H120.706C121.538 146.714 122.204 146.048 122.204 145.215V137.391C122.204 133.561 119.041 130.565 115.379 130.565H113.714L108.719 121.575H141.849C145.179 121.575 147.843 118.911 147.843 115.581V35.3362C147.843 32.0065 145.179 29.3428 141.849 29.3428ZM33.4687 45.1587H145.013V99.0994H33.4687V45.1587ZM36.6318 32.3395H141.849C143.514 32.3395 145.013 33.6713 145.013 35.5027V42.3285H33.4687V35.5027C33.4687 33.6713 34.8005 32.3395 36.6318 32.3395ZM119.208 137.557V143.883H59.1071V137.557C59.1071 135.393 60.9384 133.561 63.1027 133.561H115.212C117.376 133.561 119.208 135.226 119.208 137.557ZM110.218 130.565H68.2637L73.2582 121.575H105.39L110.218 130.565ZM141.849 118.744H36.6318C34.967 118.744 33.4687 117.413 33.4687 115.581V102.096H145.013V115.581C145.013 117.246 143.514 118.744 141.849 118.744Z" fill="#1E71B9"/>
<path d="M141.849 29.3428H36.6318C33.3021 29.3428 30.6384 32.0065 30.6384 35.3362V115.581C30.6384 118.911 33.3021 121.575 36.6318 121.575H69.7621L64.7676 130.565H63.1027C59.2736 130.565 56.2769 133.728 56.2769 137.391V145.215C56.2769 146.048 56.9428 146.714 57.7752 146.714H120.706C121.538 146.714 122.204 146.048 122.204 145.215V137.391C122.204 133.561 119.041 130.565 115.379 130.565H113.714L108.719 121.575H141.849C145.179 121.575 147.843 118.911 147.843 115.581V35.3362C147.843 32.0065 145.179 29.3428 141.849 29.3428ZM33.4687 45.1587H145.013V99.0994H33.4687V45.1587ZM36.6318 32.3395H141.849C143.514 32.3395 145.013 33.6713 145.013 35.5027V42.3285H33.4687V35.5027C33.4687 33.6713 34.8005 32.3395 36.6318 32.3395ZM119.208 137.557V143.883H59.1071V137.557C59.1071 135.393 60.9384 133.561 63.1027 133.561H115.212C117.376 133.561 119.208 135.226 119.208 137.557ZM110.218 130.565H68.2637L73.2582 121.575H105.39L110.218 130.565ZM141.849 118.744H36.6318C34.967 118.744 33.4687 117.413 33.4687 115.581V102.096H145.013V115.581C145.013 117.246 143.514 118.744 141.849 118.744Z" fill="#1E71B9"/>
</svg>
