<svg width="82" height="82" viewBox="0 0 82 82" fill="none" xmlns="http://www.w3.org/2000/svg">
<path d="M61.5713 32.9812C61.5713 33.4244 61.5713 33.8676 61.5713 34.3124C61.5713 47.9167 51.2203 63.4447 32.439 63.4447C26.6726 63.4447 21.2001 61.818 16.7633 58.8601C17.5019 59.0079 18.3899 59.0079 19.2764 59.0079C24.0086 59.0079 28.4454 57.3812 31.9942 54.5711C27.5574 54.4233 23.7131 51.4655 22.3819 47.4735C22.9729 47.6212 23.7132 47.6212 24.3041 47.6212C25.1921 47.6212 26.0785 47.4735 26.9665 47.3257C22.2342 46.4377 18.6854 42.298 18.6854 37.2703V37.1225C20.0166 37.8612 21.6433 38.306 23.27 38.4537C20.4598 36.6793 18.6854 33.426 18.6854 29.8772C18.6854 27.9551 19.1286 26.1807 20.0166 24.7017C25.0444 30.9129 32.5868 35.0527 41.1633 35.3497C41.0156 34.6095 40.8678 33.8708 40.8678 32.9828C40.8678 27.3625 45.4524 22.7796 51.071 22.7796C54.0289 22.7796 56.6913 23.9631 58.6134 26.0329C60.9788 25.5897 63.1979 24.7017 65.1201 23.5199C64.3814 25.8852 62.7547 27.9567 60.6833 29.1385C62.7532 28.8431 64.6753 28.3999 66.599 27.5119C65.2678 29.7279 63.4934 31.5023 61.5713 32.9812ZM41.0155 0.447876C18.5377 0.447876 0.348877 18.6367 0.348877 41.1145C0.348877 63.5924 18.5377 81.7812 41.0155 81.7812C63.4934 81.7812 81.6822 63.5924 81.6822 41.1145C81.6822 18.6367 63.4934 0.447876 41.0155 0.447876Z" fill="#343434"/>
</svg>
