<svg width="88" height="76" viewBox="0 0 88 76" fill="none" xmlns="http://www.w3.org/2000/svg">
<path fill-rule="evenodd" clip-rule="evenodd" d="M79.9378 42.3672L60.7851 61.8744L49.2874 73.5755C46.1116 76.8082 40.9656 76.8082 37.7925 73.5755L26.3003 61.8744L7.13942 42.3672C-2.37981 32.6801 -2.37981 16.9619 7.13942 7.26941C16.6668 -2.42314 32.1076 -2.42314 41.6269 7.26941L43.5427 9.22094L45.4612 7.26941C54.9832 -2.42314 70.4186 -2.42314 79.9378 7.26941C89.4652 16.9647 89.4652 32.6801 79.9378 42.3672ZM76.0109 11.1046C68.6198 3.54005 56.6296 3.54005 49.2384 11.1046L43.5019 16.9701L37.7653 11.1046C30.3714 3.54005 18.384 3.54005 10.9901 11.1046C3.59624 18.6611 3.59624 30.9186 10.9901 38.475L30.1156 58.0311L41.5888 69.762C42.6419 70.8368 44.3564 70.8368 45.415 69.762L60.7116 54.1117H60.717L76.0109 38.475C83.4048 30.9186 83.4048 18.6611 76.0109 11.1046ZM70.5791 26.0329C70.6798 25.5145 70.7451 24.9825 70.7451 24.437C70.7451 19.9313 67.0904 16.2888 62.5839 16.2888C62.0396 16.2888 61.5008 16.3458 60.9837 16.449L60.4531 13.789C61.1416 13.656 61.8545 13.5719 62.5811 13.5719C68.5926 13.5719 73.461 18.4358 73.461 24.437C73.461 25.1671 73.3848 25.8728 73.2433 26.5649L70.5791 26.0329Z" fill="white"/>
</svg>
