<svg width="177" height="177" viewBox="0 0 177 177" fill="none" xmlns="http://www.w3.org/2000/svg">
<path d="M88.7138 174.056C41.2017 174.056 2.6856 135.54 2.6856 88.0282C2.68561 40.5161 41.2017 1.99999 88.7138 2C136.226 2 174.742 40.5161 174.742 88.0282C174.742 135.54 136.226 174.056 88.7138 174.056Z" stroke="#1E71B9" stroke-width="4"/>
<path d="M47.4769 68.0752H46.5982H43.711H32.7898C31.2834 68.0752 30.0281 69.3305 30.0281 70.8369V71.7156V73.4731V75.9837V77.1135V79.6241V80.7539V81.6327V85.5241V90.1688V96.4453V104.981C30.0281 106.488 31.2834 107.743 32.7898 107.743H47.6025C49.1089 107.743 50.3642 106.488 50.3642 104.981V96.4453V90.1688V85.5241V81.6327V70.7114C50.2387 69.3306 48.9833 68.0752 47.4769 68.0752ZM38.0621 71.3391H41.4514C41.577 71.3391 41.7025 71.4646 41.7025 71.5901C41.7025 71.7157 41.577 71.8411 41.4514 71.8411H38.0621C37.9365 71.8411 37.811 71.7157 37.811 71.5901C37.811 71.4646 37.9365 71.3391 38.0621 71.3391ZM39.9451 105.107C39.1919 105.107 38.6897 104.479 38.6897 103.852C38.6897 103.224 39.3174 102.596 39.9451 102.596C40.6982 102.596 41.2004 103.224 41.2004 103.852C41.2004 104.479 40.6982 105.107 39.9451 105.107ZM48.3557 101.09H32.0366C31.66 101.09 31.4089 100.839 31.4089 100.462V75.3561C31.4089 74.9795 31.66 74.7284 32.0366 74.7284H48.3557C48.7323 74.7284 48.9833 74.9795 48.9833 75.3561V100.462C48.8578 100.713 48.6067 101.09 48.3557 101.09Z" fill="#1E71B9"/>
<path d="M43.8362 103.852H47.1001C47.2256 103.852 47.3511 103.977 47.3511 104.103C47.3511 104.228 47.2256 104.354 47.1001 104.354H43.8362C43.7107 104.354 43.5852 104.228 43.5852 104.103C43.5852 103.977 43.5852 103.852 43.8362 103.852Z" fill="#1E71B9"/>
<path d="M32.7892 103.852H36.1785C36.304 103.852 36.4296 103.977 36.4296 104.103C36.4296 104.228 36.304 104.354 36.1785 104.354H32.7892C32.6636 104.354 32.5381 104.228 32.5381 104.103C32.5381 103.977 32.6636 103.852 32.7892 103.852Z" fill="#1E71B9"/>
<path d="M45.343 86.5285H42.3302V83.5158C42.3302 83.2648 42.0791 83.0137 41.8281 83.0137H38.8153C38.5643 83.0137 38.3132 83.2648 38.3132 83.5158V86.5285H35.3005C35.0494 86.5285 34.7983 86.7796 34.7983 87.0307V90.0434C34.7983 90.2945 35.0494 90.5456 35.3005 90.5456H38.3132V93.5583C38.3132 93.8094 38.5643 94.0604 38.8153 94.0604H41.8281C42.0791 94.0604 42.3302 93.8094 42.3302 93.5583V90.5456H45.343C45.594 90.5456 45.8451 90.2945 45.8451 90.0434V87.0307C45.8451 86.6541 45.594 86.5285 45.343 86.5285Z" fill="#1E71B9"/>
<path d="M61.6616 81.2563H54.0042V68.4521H55.636V79.8755H61.6616V81.2563Z" fill="#1E71B9"/>
<path d="M64.7998 78.9963C64.7998 79.3729 64.9253 79.7495 65.0508 79.8751C65.1764 80.0006 65.4274 80.1262 65.6785 80.1262C65.804 80.1262 66.0551 80.1262 66.1807 80.1262C66.3062 80.1262 66.5572 80.0006 66.8083 80.0006L66.9338 81.1304C66.6827 81.2559 66.4317 81.2559 66.1807 81.3815C65.8041 81.3815 65.553 81.507 65.3019 81.507C64.7998 81.507 64.2977 81.3815 63.9211 81.0049C63.5445 80.7538 63.4189 80.1261 63.4189 79.3729V68.3262H64.9253V78.9963H64.7998Z" fill="#1E71B9"/>
<path d="M68.1889 72.72C68.6911 72.469 69.1932 72.2179 69.8209 72.0924C70.4485 71.9669 71.0762 71.8413 71.7038 71.8413C72.3315 71.8413 72.8336 71.9669 73.2102 72.0924C73.5868 72.2179 73.8379 72.469 74.0889 72.72C74.34 72.9711 74.4655 73.3477 74.4655 73.5988C74.591 73.9754 74.591 74.2264 74.591 74.603C74.591 75.3562 74.591 76.1094 74.591 76.7371C74.591 77.4903 74.591 78.1179 74.591 78.7455C74.591 79.2477 74.591 79.6243 74.591 80.0009C74.591 80.3774 74.7166 80.7541 74.8421 81.1307H73.7124L73.3357 79.8754H73.2102C73.0847 80.0009 72.9591 80.252 72.8336 80.3775C72.7081 80.503 72.457 80.6285 72.206 80.8796C71.9549 81.0051 71.7038 81.1306 71.4528 81.2562C71.2017 81.3817 70.8251 81.3817 70.4485 81.3817C70.0719 81.3817 69.6953 81.3817 69.3188 81.2562C68.9422 81.1306 68.6911 81.0051 68.44 80.7541C68.189 80.503 68.0634 80.2519 67.8124 80.0009C67.6868 79.6243 67.5613 79.3732 67.5613 78.8711C67.5613 78.369 67.6868 77.8668 67.9379 77.4902C68.189 77.1136 68.44 76.8626 68.8166 76.6116C69.1932 76.3605 69.6953 76.2349 70.1974 76.1094C70.6996 75.9839 71.3272 75.9839 72.0804 75.9839H72.5825C72.7081 75.9839 72.9592 75.9839 73.0847 75.9839C73.0847 75.6073 73.0847 75.2307 73.0847 74.9796C73.0847 74.3519 72.9591 73.8498 72.7081 73.5988C72.457 73.3477 71.9549 73.2222 71.2017 73.2222C70.9507 73.2222 70.8251 73.2222 70.5741 73.2222C70.323 73.2222 70.0719 73.3477 69.8209 73.3477C69.5698 73.3477 69.3187 73.4732 69.0677 73.5988C68.8166 73.7243 68.6911 73.7243 68.44 73.8499L68.1889 72.72ZM70.8251 80.1264C71.2017 80.1264 71.4528 80.1264 71.7038 80.0009C71.9549 79.8753 72.206 79.7498 72.457 79.6243C72.7081 79.4987 72.8336 79.3733 72.9592 79.1222C73.0847 78.9967 73.2102 78.7456 73.2102 78.62V77.1136C73.0847 77.1136 72.8336 77.1136 72.7081 77.1136C72.5825 77.1136 72.3315 77.1136 72.206 77.1136C71.8294 77.1136 71.4528 77.1137 71.0762 77.2392C70.6996 77.2392 70.4485 77.3647 70.0719 77.4902C69.8208 77.6158 69.5698 77.7413 69.4443 77.9924C69.3187 78.2434 69.1932 78.4945 69.1932 78.7455C69.1932 79.1221 69.3187 79.4988 69.6953 79.7499C69.9464 80.0009 70.323 80.1264 70.8251 80.1264Z" fill="#1E71B9"/>
<path d="M82.6251 81.2561V76.1093C82.6251 75.6072 82.6252 75.2306 82.4996 74.854C82.4996 74.4774 82.3741 74.2263 82.2486 73.9753C82.123 73.7242 81.9975 73.5987 81.7464 73.4732C81.4954 73.3477 81.2443 73.3476 80.8677 73.3476C80.3656 73.3476 79.8634 73.4732 79.4868 73.8498C79.1103 74.2264 78.8592 74.603 78.7337 75.1051V81.3817H77.2273V72.2179H78.2315L78.4826 73.3476H78.6081C78.9847 72.971 79.3613 72.5944 79.7379 72.3434C80.1145 72.0923 80.7422 71.9668 81.4954 71.9668C82.123 71.9668 82.4996 72.0923 82.8762 72.3434C83.2528 72.5944 83.5039 72.9711 83.7549 73.4732C84.006 72.9711 84.3826 72.5944 84.8847 72.3434C85.3868 72.0923 85.889 71.9668 86.5166 71.9668C87.0187 71.9668 87.5209 71.9668 87.7719 72.0923C88.1485 72.2178 88.3996 72.4689 88.6507 72.72C88.9017 72.971 89.0272 73.4731 89.1528 73.9753C89.2783 74.4774 89.2783 75.1051 89.2783 75.8582V81.3817H87.7719V75.8582C87.7719 75.4816 87.7719 74.9796 87.6464 74.7285C87.6464 74.3519 87.5209 74.1008 87.3953 73.9753C87.2698 73.7242 87.1443 73.5987 86.8932 73.4732C86.6422 73.3477 86.3911 73.3476 86.0145 73.3476C85.3868 73.3476 84.8847 73.4732 84.6336 73.8498C84.257 74.2264 84.006 74.7285 83.8804 75.3562V81.5072H82.6251V81.2561Z" fill="#1E71B9"/>
<path d="M91.7881 72.72C92.2902 72.469 92.7923 72.2179 93.42 72.0924C94.0476 71.9669 94.6753 71.8413 95.3029 71.8413C95.9306 71.8413 96.4327 71.9669 96.8093 72.0924C97.1859 72.2179 97.4369 72.469 97.688 72.72C97.9391 72.9711 98.0646 73.3477 98.0646 73.5988C98.1902 73.9754 98.1902 74.2264 98.1902 74.603C98.1902 75.3562 98.1902 76.1094 98.1902 76.7371C98.1902 77.4903 98.1902 78.1179 98.1902 78.7455C98.1902 79.2477 98.1902 79.6243 98.1902 80.0009C98.1902 80.3774 98.3157 80.7541 98.4412 81.1307H97.3114L96.9349 79.8754H96.8093C96.6838 80.0009 96.5582 80.252 96.4327 80.3775C96.3072 80.503 96.0561 80.6285 95.805 80.8796C95.554 81.0051 95.3029 81.1306 95.0519 81.2562C94.8008 81.3817 94.4242 81.3817 94.0476 81.3817C93.671 81.3817 93.2944 81.3817 92.9178 81.2562C92.5412 81.1306 92.2902 81.0051 92.0391 80.7541C91.788 80.503 91.6625 80.2519 91.4114 80.0009C91.2859 79.6243 91.1604 79.3732 91.1604 78.8711C91.1604 78.369 91.2859 77.8668 91.537 77.4902C91.788 77.1136 92.0391 76.8626 92.4157 76.6116C92.7923 76.3605 93.2944 76.2349 93.7966 76.1094C94.2987 75.9839 94.9264 75.9839 95.6795 75.9839H96.1817C96.3072 75.9839 96.5582 75.9839 96.6838 75.9839C96.6838 75.6073 96.6838 75.2307 96.6838 74.9796C96.6838 74.3519 96.5583 73.8498 96.3072 73.5988C96.0561 73.3477 95.554 73.2222 94.8008 73.2222C94.5497 73.2222 94.4242 73.2222 94.1731 73.2222C93.9221 73.2222 93.671 73.3477 93.42 73.3477C93.1689 73.3477 92.9178 73.4732 92.6668 73.5988C92.4157 73.7243 92.2902 73.7243 92.0391 73.8499L91.7881 72.72ZM94.4242 80.1264C94.8008 80.1264 95.0519 80.1264 95.3029 80.0009C95.554 79.8753 95.8051 79.7498 96.0561 79.6243C96.3072 79.4987 96.4327 79.3733 96.5582 79.1222C96.6838 78.9967 96.8093 78.7456 96.8093 78.62V77.1136C96.6838 77.1136 96.4327 77.1136 96.3072 77.1136C96.1817 77.1136 95.9306 77.1136 95.805 77.1136C95.4284 77.1136 95.0519 77.1137 94.6753 77.2392C94.2987 77.2392 94.0476 77.3647 93.671 77.4902C93.42 77.6158 93.1689 77.7413 93.0434 77.9924C92.9178 78.2434 92.7923 78.4945 92.7923 78.7455C92.7923 79.1221 92.9178 79.4988 93.2944 79.7499C93.5455 80.0009 93.9221 80.1264 94.4242 80.1264Z" fill="#1E71B9"/>
<path d="M106.726 81.2562V75.9839C106.726 74.9797 106.601 74.352 106.35 73.8499C106.099 73.3477 105.597 73.0966 104.843 73.0966C104.216 73.0966 103.714 73.2222 103.212 73.5988C102.835 73.9754 102.458 74.352 102.333 74.8541V81.1307H100.826V71.9669H101.831L102.082 73.0966H102.207C102.458 72.72 102.835 72.3435 103.337 72.0924C103.839 71.8413 104.467 71.7158 105.095 71.7158C105.597 71.7158 105.973 71.7158 106.475 71.8413C106.852 71.9669 107.229 72.2179 107.48 72.469C107.731 72.72 107.982 73.0967 108.107 73.5988C108.233 74.1009 108.358 74.7286 108.358 75.4818V81.0052H106.726V81.2562Z" fill="#1E71B9"/>
<path d="M117.774 78.118C117.774 78.7457 117.774 79.2478 117.774 79.8755C117.774 80.3776 117.899 80.8797 117.899 81.3819H116.895L116.519 80.1265H116.393C116.142 80.5031 115.765 80.8797 115.389 81.1308C114.887 81.3818 114.385 81.5074 113.757 81.5074C112.502 81.5074 111.623 81.1308 110.995 80.3776C110.367 79.6244 110.116 78.3691 110.116 76.7372C110.116 75.2308 110.493 73.9755 111.246 73.2223C111.999 72.4691 113.004 71.967 114.259 71.967C114.761 71.967 115.012 71.967 115.389 72.0925C115.64 72.0925 115.891 72.218 116.267 72.3436V68.5776H117.774V78.118ZM114.008 80.1265C114.636 80.1265 115.138 80.001 115.514 79.6244C115.891 79.2478 116.142 78.8712 116.267 78.118V73.5989C116.016 73.4734 115.765 73.3478 115.514 73.2223C115.263 73.0968 114.887 73.0967 114.385 73.0967C113.506 73.0967 112.878 73.3478 112.376 73.9755C111.874 74.4776 111.623 75.3564 111.623 76.6117C111.623 77.1138 111.623 77.6159 111.748 77.9925C111.874 78.3691 111.999 78.7457 112.125 79.1223C112.25 79.3734 112.502 79.6244 112.878 79.8755C113.255 80.1265 113.631 80.1265 114.008 80.1265Z" fill="#1E71B9"/>
<path d="M119.908 76.6116C119.908 75.1052 120.285 73.8498 120.913 73.0966C121.666 72.2179 122.545 71.8413 123.925 71.8413C124.553 71.8413 125.181 71.9669 125.683 72.218C126.185 72.469 126.562 72.7201 126.938 73.2222C127.315 73.5988 127.566 74.1009 127.691 74.7286C127.817 75.3563 127.942 75.9839 127.942 76.7371C127.942 78.2434 127.566 79.4987 126.938 80.2519C126.311 81.1307 125.306 81.5072 123.925 81.5072C123.298 81.5072 122.67 81.3817 122.168 81.1307C121.666 80.8796 121.289 80.6286 120.913 80.1264C120.536 79.7498 120.285 79.2477 120.16 78.62C120.034 77.9924 119.908 77.3648 119.908 76.6116ZM121.415 76.6116C121.415 77.1137 121.415 77.4903 121.54 77.9924C121.666 78.369 121.791 78.7456 121.917 79.1222C122.168 79.4988 122.419 79.7498 122.67 79.8754C123.047 80.1264 123.423 80.1264 123.8 80.1264C125.432 80.1264 126.311 78.9967 126.311 76.6116C126.311 76.1094 126.311 75.7328 126.185 75.2307C126.059 74.8541 125.934 74.4775 125.808 74.1009C125.557 73.7243 125.306 73.4732 125.055 73.3477C124.679 73.0966 124.302 73.0966 123.925 73.0966C122.294 73.0966 121.415 74.352 121.415 76.6116Z" fill="#1E71B9"/>
<path d="M134.595 72.72C135.097 72.469 135.599 72.2179 136.227 72.0924C136.855 71.9669 137.482 71.8413 138.11 71.8413C138.738 71.8413 139.24 71.9669 139.616 72.0924C139.993 72.2179 140.244 72.469 140.495 72.72C140.746 72.9711 140.872 73.3477 140.872 73.5988C140.997 73.9754 140.997 74.2264 140.997 74.603C140.997 75.3562 140.997 76.1094 140.997 76.7371C140.997 77.4903 140.997 78.1179 140.997 78.7455C140.997 79.2477 140.997 79.6243 140.997 80.0009C140.997 80.3774 141.123 80.7541 141.248 81.1307H140.119L139.742 79.8754H139.616C139.491 80.0009 139.365 80.252 139.24 80.3775C139.114 80.503 138.863 80.6285 138.612 80.8796C138.361 81.0051 138.11 81.1306 137.859 81.2562C137.608 81.3817 137.231 81.3817 136.855 81.3817C136.478 81.3817 136.102 81.3817 135.725 81.2562C135.348 81.1306 135.097 81.0051 134.846 80.7541C134.595 80.503 134.47 80.2519 134.219 80.0009C134.093 79.6243 133.968 79.3732 133.968 78.8711C133.968 78.369 134.093 77.8668 134.344 77.4902C134.595 77.1136 134.846 76.8626 135.223 76.6116C135.599 76.3605 136.102 76.2349 136.604 76.1094C137.106 75.9839 137.733 75.9839 138.487 75.9839H138.989C139.114 75.9839 139.365 75.9839 139.491 75.9839C139.491 75.6073 139.491 75.2307 139.491 74.9796C139.491 74.3519 139.365 73.8498 139.114 73.5988C138.863 73.3477 138.361 73.2222 137.608 73.2222C137.357 73.2222 137.231 73.2222 136.98 73.2222C136.729 73.2222 136.478 73.3477 136.227 73.3477C135.976 73.3477 135.725 73.4732 135.474 73.5988C135.223 73.7243 135.097 73.7243 134.846 73.8499L134.595 72.72ZM137.231 80.1264C137.608 80.1264 137.859 80.1264 138.11 80.0009C138.361 79.8753 138.612 79.7498 138.863 79.6243C139.114 79.4987 139.24 79.3733 139.365 79.1222C139.491 78.9967 139.616 78.7456 139.616 78.62V77.1136C139.491 77.1136 139.24 77.1136 139.114 77.1136C138.989 77.1136 138.738 77.1136 138.612 77.1136C138.236 77.1136 137.859 77.1137 137.482 77.2392C137.106 77.2392 136.855 77.3647 136.478 77.4902C136.227 77.6158 135.976 77.7413 135.851 77.9924C135.725 78.2434 135.599 78.4945 135.599 78.7455C135.599 79.1221 135.725 79.4988 136.102 79.7499C136.353 80.0009 136.729 80.1264 137.231 80.1264Z" fill="#1E71B9"/>
<path d="M145.264 78.9963C145.264 79.3729 145.39 79.7495 145.515 79.8751C145.641 80.0006 145.892 80.1262 146.143 80.1262C146.268 80.1262 146.519 80.1262 146.645 80.1262C146.771 80.1262 147.022 80.0006 147.273 80.0006L147.398 81.1304C147.147 81.2559 146.896 81.2559 146.645 81.3815C146.268 81.3815 146.017 81.507 145.766 81.507C145.264 81.507 144.762 81.3815 144.385 81.0049C144.009 80.7538 143.883 80.1261 143.883 79.3729V68.3262H145.39V78.9963H145.264Z" fill="#1E71B9"/>
<path d="M54.5061 83.5157C55.0082 83.3902 55.5104 83.3901 56.138 83.3901C56.7657 83.3901 57.3933 83.2646 58.021 83.2646C58.6487 83.2646 59.2763 83.2646 59.904 83.2646C60.5316 83.2646 61.0337 83.2646 61.5359 83.2646C63.6699 83.2646 65.4273 83.5157 66.9337 84.1434C68.4401 84.771 69.5699 85.5242 70.5742 86.654C71.4529 87.6583 72.206 88.9136 72.5826 90.42C72.9592 91.9263 73.2103 93.5582 73.2103 95.3156C73.2103 96.9475 72.9592 98.4539 72.5826 99.9603C72.206 101.467 71.4529 102.722 70.5742 103.852C69.5699 104.982 68.4401 105.986 66.8082 106.613C65.3018 107.367 63.2933 107.618 61.0338 107.618C60.6572 107.618 60.155 107.618 59.6529 107.618C59.0252 107.618 58.3976 107.618 57.7699 107.492C57.1423 107.492 56.5146 107.367 55.887 107.367C55.2593 107.367 54.8827 107.241 54.5061 107.241V83.5157ZM61.7869 87.2817C61.2848 87.2817 60.7827 87.2817 60.2806 87.2817C59.7784 87.2817 59.4018 87.2816 59.1508 87.4072V103.224C59.2763 103.224 59.4018 103.224 59.6529 103.224C59.904 103.224 60.155 103.224 60.4061 103.224C60.6572 103.224 60.9082 103.224 61.1593 103.224C61.4104 103.224 61.5359 103.224 61.6614 103.224C62.9167 103.224 64.0465 102.973 64.9252 102.471C65.804 101.969 66.4316 101.341 66.9337 100.588C67.4358 99.8348 67.8125 98.9561 67.938 97.9518C68.189 96.9476 68.189 95.9433 68.189 94.8136C68.189 93.9348 68.0635 92.9306 67.938 92.0518C67.8125 91.1731 67.4358 90.2944 66.9337 89.5412C66.4316 88.788 65.804 88.1604 64.9252 87.6582C64.172 87.5327 63.0423 87.2817 61.7869 87.2817Z" fill="#1E71B9"/>
<path d="M75.093 98.7052C75.093 95.818 75.8462 93.6839 77.2271 92.052C78.6079 90.5457 80.6164 89.7925 83.1271 89.7925C84.5079 89.7925 85.6377 90.0435 86.6419 90.4201C87.6462 90.7967 88.3994 91.4243 89.1526 92.1775C89.7802 92.9307 90.2824 93.935 90.6589 94.9392C91.0355 96.069 91.1611 97.1988 91.1611 98.5797C91.1611 101.467 90.4079 103.601 89.027 105.233C87.6462 106.739 85.6377 107.492 83.1271 107.492C81.7462 107.492 80.6164 107.241 79.6122 106.865C78.6079 106.488 77.7292 105.86 77.1015 105.107C76.4739 104.354 75.9718 103.35 75.5952 102.346C75.3441 101.341 75.093 100.086 75.093 98.7052ZM79.7377 98.7052C79.7377 99.4584 79.8632 100.086 79.9888 100.714C80.1143 101.341 80.3654 101.843 80.6164 102.346C80.8675 102.848 81.2441 103.224 81.6207 103.475C81.9973 103.726 82.6249 103.852 83.2526 103.852C84.3823 103.852 85.2611 103.475 85.7632 102.597C86.2653 101.718 86.6419 100.463 86.6419 98.5797C86.6419 97.0733 86.3909 95.818 85.8887 94.8137C85.3866 93.8095 84.5079 93.4328 83.2526 93.4328C82.1228 93.4328 81.3696 93.8094 80.7419 94.6882C79.9887 95.5669 79.7377 96.9477 79.7377 98.7052Z" fill="#1E71B9"/>
<path d="M105.723 106.112C105.095 106.614 104.217 106.99 103.212 107.241C102.208 107.492 101.329 107.618 100.2 107.618C98.8187 107.618 97.6889 107.367 96.8102 106.99C95.9315 106.614 95.0527 105.986 94.5506 105.233C93.9229 104.48 93.5463 103.475 93.2953 102.471C93.0442 101.341 92.9187 100.212 92.9187 98.8307C92.9187 95.9434 93.5464 93.8094 94.8017 92.1775C96.057 90.6711 97.94 89.918 100.451 89.918C101.706 89.918 102.71 90.0435 103.463 90.169C104.217 90.4201 104.844 90.6711 105.472 90.9222L104.468 94.5626C103.965 94.3116 103.463 94.0605 102.961 93.935C102.459 93.8095 101.831 93.6839 101.204 93.6839C99.9485 93.6839 99.0697 94.0605 98.4421 94.9392C97.8144 95.6924 97.4378 97.0732 97.4378 98.8307C97.4378 99.5839 97.5633 100.212 97.6889 100.839C97.8144 101.467 98.0655 101.969 98.4421 102.471C98.8187 102.973 99.1953 103.224 99.6974 103.475C100.2 103.726 100.827 103.852 101.455 103.852C102.208 103.852 102.836 103.726 103.338 103.601C103.84 103.35 104.342 103.224 104.719 102.848L105.723 106.112Z" fill="#1E71B9"/>
<path d="M106.351 90.2945H108.736V87.1562L113.129 85.9009V90.2945H117.272V94.0604H113.004V100.588C113.004 101.718 113.129 102.597 113.38 103.099C113.631 103.601 114.008 103.852 114.761 103.852C115.263 103.852 115.64 103.852 115.891 103.726C116.268 103.601 116.644 103.475 117.021 103.35L117.774 106.739C117.146 106.99 116.393 107.241 115.64 107.492C114.887 107.743 114.008 107.743 113.129 107.743C111.623 107.743 110.493 107.367 109.74 106.488C108.987 105.735 108.61 104.354 108.61 102.597V94.0604H106.225V90.2945H106.351Z" fill="#1E71B9"/>
<path d="M118.527 98.7052C118.527 95.818 119.28 93.6839 120.661 92.052C122.042 90.5457 124.05 89.7925 126.561 89.7925C127.942 89.7925 129.072 90.0435 130.076 90.4201C131.08 90.7967 131.833 91.4243 132.587 92.1775C133.214 92.9307 133.716 93.935 134.093 94.9392C134.47 96.069 134.595 97.1988 134.595 98.5797C134.595 101.467 133.842 103.601 132.461 105.233C131.08 106.739 129.072 107.492 126.561 107.492C125.18 107.492 124.05 107.241 123.046 106.865C122.042 106.488 121.163 105.86 120.536 105.107C119.908 104.354 119.406 103.35 119.029 102.346C118.653 101.341 118.527 100.086 118.527 98.7052ZM123.046 98.7052C123.046 99.4584 123.172 100.086 123.297 100.714C123.423 101.341 123.674 101.843 123.925 102.346C124.176 102.848 124.553 103.224 124.929 103.475C125.306 103.726 125.933 103.852 126.561 103.852C127.691 103.852 128.57 103.475 129.072 102.597C129.574 101.718 129.95 100.463 129.95 98.5797C129.95 97.0733 129.699 95.818 129.197 94.8137C128.695 93.8095 127.816 93.4328 126.561 93.4328C125.431 93.4328 124.678 93.8094 124.05 94.6882C123.423 95.5669 123.046 96.9477 123.046 98.7052Z" fill="#1E71B9"/>
<path d="M146.52 94.4371C145.767 94.186 145.139 94.0605 144.637 94.0605C143.884 94.0605 143.131 94.3115 142.629 94.6881C142.127 95.0647 141.75 95.6924 141.625 96.32V107.241H137.231V90.2945H140.62L141.122 92.5541H141.248C141.625 91.6754 142.127 91.0477 142.754 90.6711C143.382 90.169 144.135 90.0435 145.014 90.0435C145.642 90.0435 146.269 90.169 147.022 90.4201L146.52 94.4371Z" fill="#1E71B9"/>
</svg>
