<svg width="351" height="345" viewBox="0 0 351 345" fill="none" xmlns="http://www.w3.org/2000/svg">
<path d="M341.28 313.577H341.214L10.2834 278.844C10.1105 278.824 9.95247 278.737 9.84375 278.601C9.73503 278.465 9.68443 278.292 9.70298 278.118C9.71122 278.032 9.73658 277.947 9.77759 277.87C9.81861 277.794 9.87446 277.726 9.94193 277.67C10.0094 277.615 10.0871 277.574 10.1706 277.549C10.2542 277.524 10.3418 277.516 10.4285 277.525L341.346 312.271C341.432 312.277 341.516 312.301 341.593 312.341C341.67 312.38 341.738 312.435 341.794 312.502C341.849 312.568 341.89 312.645 341.916 312.728C341.941 312.81 341.949 312.897 341.94 312.983C341.923 313.146 341.847 313.298 341.725 313.407C341.603 313.517 341.444 313.578 341.28 313.577V313.577Z" fill="#D1D3D4"/>
<path d="M349.684 288.527H349.618L18.6871 253.781C18.6003 253.772 18.516 253.747 18.4391 253.706C18.3622 253.665 18.2941 253.609 18.2389 253.542C18.1837 253.474 18.1425 253.396 18.1175 253.313C18.0925 253.229 18.0843 253.142 18.0935 253.055C18.1133 252.882 18.2008 252.724 18.3367 252.615C18.4726 252.507 18.6459 252.456 18.819 252.475L349.75 287.207C349.837 287.216 349.921 287.241 349.998 287.282C350.075 287.323 350.143 287.379 350.198 287.446C350.253 287.514 350.294 287.592 350.319 287.675C350.344 287.759 350.353 287.846 350.343 287.933C350.324 288.095 350.247 288.245 350.125 288.354C350.004 288.463 349.847 288.525 349.684 288.527V288.527Z" fill="#D1D3D4"/>
<path d="M148.005 261.418C148.005 261.418 132.532 262.249 131.041 263.489C129.551 264.729 128.812 277.103 131.041 283.052C133.271 289.001 139.22 302.219 145.407 301.797C151.593 301.375 144.905 279.081 145.657 277.103C146.842 274.596 148.163 272.157 149.615 269.795L148.005 261.418Z" fill="#231F20"/>
<path d="M145.113 302.457C138.161 302.457 132.133 287.827 130.431 283.276C128.228 277.419 128.676 264.597 130.616 262.988C132.159 261.669 144.282 260.97 147.962 260.772C148.12 260.768 148.274 260.818 148.399 260.914C148.524 261.01 148.612 261.146 148.648 261.3L150.257 269.676C150.285 269.835 150.257 269.998 150.178 270.138C148.728 272.464 147.407 274.868 146.221 277.34C146.321 279.242 146.59 281.132 147.026 282.986C148.2 289.45 149.809 298.328 147.461 301.335C147.223 301.662 146.914 301.931 146.558 302.123C146.202 302.315 145.807 302.424 145.403 302.443L145.113 302.457ZM147.461 262.104C140.153 262.513 132.304 263.318 131.46 263.991C130.391 264.927 129.362 276.694 131.658 282.815C134.85 291.336 140.258 301.151 145.113 301.151H145.35C145.571 301.142 145.787 301.082 145.981 300.977C146.175 300.872 146.343 300.724 146.472 300.544C148.45 297.998 146.775 288.751 145.772 283.224C145.06 279.359 144.757 277.617 145.034 276.892C146.186 274.418 147.48 272.013 148.912 269.689L147.461 262.104Z" fill="#231F20"/>
<path d="M42.5127 319.75C42.5127 319.75 35.7587 323.853 32.9226 327.335C30.0864 330.818 27.2503 333.693 28.4507 335.25C29.6511 336.807 83.1288 346.647 83.7356 343.415C84.3424 340.184 57.9465 327.098 57.9465 327.098L42.5127 319.75Z" fill="#231F20"/>
<path d="M80.7671 344.669C69.1983 344.669 29.3209 337.361 27.9359 335.62C26.5508 333.878 28.6218 331.451 31.2073 328.364L32.4077 326.927C35.2966 323.391 41.8923 319.355 42.1693 319.183C42.2654 319.134 42.3716 319.109 42.4793 319.109C42.587 319.109 42.6932 319.134 42.7893 319.183L58.1572 326.544C66.2567 330.501 85.0015 340.171 84.3815 343.521C84.2892 343.996 83.8935 344.326 83.1812 344.497C82.3854 344.644 81.5757 344.702 80.7671 344.669V344.669ZM42.5123 320.502C41.1931 321.333 35.7979 324.803 33.3839 327.758L32.1703 329.209C30.2311 331.53 28.2129 333.918 28.9252 334.802C29.8486 335.409 41.8527 337.994 55.8355 340.342C72.8523 343.178 81.6641 343.798 83.036 343.152C82.5743 341.134 69.6073 333.641 57.5504 327.692L42.5123 320.502Z" fill="#231F20"/>
<path d="M218.642 286.31C218.642 286.31 161.01 282.828 143.861 273.7C143.861 273.7 142.74 272.499 141.632 268.317C141.303 267.149 141.341 265.908 141.739 264.762C142.138 263.616 142.878 262.619 143.861 261.906C143.861 261.906 168.212 255.904 174.201 256.102C181.707 256.34 183.026 257.54 183.026 257.54C200.082 247.91 196.455 245.668 196.455 245.668L218.642 286.31Z" fill="white"/>
<path d="M218.646 286.996C216.284 286.851 160.604 283.395 143.574 274.306C143.511 274.265 143.453 274.216 143.402 274.161C143.27 274.029 142.083 272.71 141.015 268.489C140.66 267.183 140.71 265.801 141.158 264.525C141.605 263.248 142.429 262.137 143.521 261.339L143.732 261.247C144.721 261.009 167.476 255.416 173.967 255.416H174.283C179.955 255.601 182.198 256.326 183.095 256.735C194.466 250.258 196.009 247.422 196.154 246.499V246.406L195.917 245.971C195.847 245.839 195.822 245.688 195.846 245.54C195.869 245.392 195.941 245.257 196.049 245.153C196.159 245.05 196.299 244.986 196.449 244.969C196.599 244.952 196.75 244.985 196.88 245.061C197.036 245.167 197.169 245.303 197.271 245.462C197.373 245.621 197.442 245.798 197.474 245.984L219.279 285.967C219.34 286.071 219.373 286.189 219.373 286.31C219.373 286.431 219.34 286.549 219.279 286.653C219.215 286.763 219.123 286.854 219.011 286.914C218.899 286.975 218.773 287.003 218.646 286.996V286.996ZM144.299 273.172C159.878 281.337 209.029 285.044 217.458 285.558L196.959 247.989C195.508 250.456 190.957 253.86 183.372 258.133C183.247 258.202 183.103 258.231 182.962 258.214C182.82 258.197 182.686 258.137 182.581 258.041V258.041C182.581 258.041 181.064 256.999 174.191 256.722H173.914C167.859 256.722 146.027 261.999 144.141 262.487C143.307 263.129 142.684 264.006 142.353 265.005C142.022 266.004 141.996 267.08 142.281 268.093C142.657 269.889 143.34 271.607 144.299 273.172V273.172Z" fill="#231F20"/>
<path d="M200.556 163.723C200.556 163.723 222.691 223.084 225.619 247.462C228.548 271.84 225.369 290.202 213.167 286.31C206.07 284.068 194.699 275.256 183.077 257.54C186.797 248.122 171.021 230.392 166.958 220.763C157.249 197.836 200.556 163.723 200.556 163.723Z" fill="#231F20"/>
<path d="M216.239 287.498C215.122 287.484 214.014 287.297 212.955 286.944C205.95 284.714 194.289 275.929 182.509 257.923C182.463 257.828 182.44 257.724 182.44 257.619C182.44 257.514 182.463 257.411 182.509 257.316C184.923 251.182 178.486 241.064 172.8 232.147C170.395 228.606 168.252 224.894 166.389 221.04C156.628 197.915 198.444 164.621 200.225 163.222C200.308 163.158 200.405 163.114 200.508 163.094C200.611 163.073 200.717 163.077 200.818 163.104C200.918 163.134 201.009 163.186 201.084 163.257C201.16 163.328 201.218 163.415 201.254 163.512C201.478 164.106 223.442 223.23 226.317 247.409C227.636 259.018 228.863 279.438 221.252 285.73C219.849 286.905 218.069 287.532 216.239 287.498V287.498ZM183.788 257.461C195.318 275.006 206.596 283.554 213.35 285.691C214.504 286.158 215.76 286.312 216.992 286.139C218.224 285.965 219.389 285.469 220.368 284.701C225.579 280.401 227.254 266.853 224.959 247.541C222.32 225.116 203.008 172.192 200.278 164.805C194.75 169.356 158.857 199.894 167.55 220.512C169.382 224.302 171.489 227.953 173.855 231.435C179.594 240.471 186.097 250.694 183.762 257.461H183.788Z" fill="#231F20"/>
<path d="M83.2877 265.152C83.2877 265.152 75.5576 266.115 67.8143 273.766C60.071 281.417 51.8396 307.034 42.5133 319.751C42.5133 319.751 40.7325 326.993 48.7132 328.668C56.694 330.343 57.9472 327.098 57.9472 327.098L107.151 283.567C98.5136 278.368 90.5061 272.189 83.2877 265.152V265.152Z" fill="white"/>
<path d="M52.7899 329.815C51.37 329.795 49.9558 329.631 48.5687 329.327C47.4088 329.151 46.2982 328.735 45.308 328.106C44.3177 327.477 43.4694 326.648 42.8173 325.673C41.744 323.82 41.3962 321.634 41.8411 319.539C41.8645 319.453 41.9049 319.372 41.9598 319.302C46.3394 313.313 50.4814 304.475 54.4916 295.914C58.9635 286.363 63.1847 277.327 67.34 273.224C75.1492 265.508 82.8794 264.465 83.1696 264.426C83.271 264.412 83.3745 264.422 83.471 264.457C83.5675 264.491 83.6542 264.548 83.7236 264.624C90.8842 271.621 98.8246 277.774 107.389 282.96C107.484 283.013 107.564 283.089 107.624 283.18C107.684 283.271 107.721 283.375 107.732 283.483C107.744 283.592 107.73 283.701 107.691 283.803C107.652 283.904 107.589 283.995 107.508 284.068L58.3962 327.467C58.1192 328.114 56.8397 329.815 52.7899 329.815ZM43.1471 320.041C42.8253 321.744 43.1199 323.507 43.9781 325.014C44.5418 325.818 45.2648 326.497 46.1021 327.01C46.9395 327.523 47.8734 327.858 48.8457 327.995C56.035 329.499 57.2354 326.887 57.2486 326.86C57.29 326.76 57.3531 326.67 57.4333 326.597L105.938 283.712C97.6767 278.613 89.99 272.638 83.0113 265.89C77.3806 267.189 72.2481 270.094 68.237 274.253C64.2796 278.211 60.0847 287.102 55.6656 296.547C51.7214 305.108 47.5794 313.959 43.1471 320.041V320.041Z" fill="#231F20"/>
<path d="M202.734 167.219C202.734 167.219 185.915 210.183 176.971 214.708C171.492 217.454 165.386 218.706 159.268 218.335C159.268 218.335 126.633 269.663 103.363 286.284C103.363 286.284 88.2593 284.345 82.4023 264.083C82.4023 264.083 100.593 219.852 111.265 205.236C111.265 205.236 112.663 167.47 129.944 143.132L202.734 167.219Z" fill="#231F20"/>
<path d="M103.36 286.97H103.281C103.123 286.97 87.6757 284.727 81.766 264.294C81.7134 264.154 81.7134 263.999 81.766 263.859C81.9375 263.423 99.9701 219.707 110.589 205.025C110.734 202.005 112.845 166.085 129.387 142.776C129.466 142.66 129.582 142.573 129.715 142.53C129.849 142.487 129.993 142.49 130.125 142.538L202.902 166.599C202.987 166.625 203.066 166.669 203.134 166.728C203.201 166.786 203.256 166.858 203.294 166.938C203.333 167.019 203.354 167.106 203.357 167.196C203.36 167.285 203.344 167.374 203.311 167.456C202.625 169.224 186.307 210.698 177.245 215.315C171.779 218.064 165.693 219.351 159.582 219.048C156.706 223.52 125.838 271.048 103.716 286.851C103.611 286.923 103.488 286.964 103.36 286.97V286.97ZM83.0852 264.149C86.0664 274.24 91.4089 279.543 95.3795 282.221C97.7388 283.857 100.397 285.013 103.202 285.624C126.089 269.096 158.381 218.52 158.711 218.006C158.776 217.903 158.869 217.82 158.978 217.766C159.088 217.713 159.21 217.691 159.331 217.702C165.319 218.046 171.293 216.823 176.664 214.154C184.698 210.051 199.71 172.997 201.847 167.628L130.191 143.884C113.478 167.799 111.921 204.854 111.908 205.223C111.903 205.355 111.862 205.483 111.79 205.593C101.659 219.509 84.4702 260.812 83.0852 264.149V264.149Z" fill="#231F20"/>
<path d="M231.703 139.9C231.703 139.9 237.494 167.602 244.235 174.382C250.976 181.162 276.699 204.023 276.699 204.023L291.499 199.393C291.499 199.393 285.352 174.329 271.277 158.658C271.277 158.658 277.688 130.6 267.438 115.707C257.189 100.814 231.703 139.9 231.703 139.9Z" fill="white"/>
<path d="M276.698 204.709C276.529 204.706 276.366 204.646 276.236 204.537C275.986 204.3 250.434 181.518 243.746 174.857C237.058 168.195 231.267 141.179 231.03 140.032C230.999 139.853 231.037 139.67 231.135 139.517C231.874 138.396 249.353 111.815 261.475 111.644C262.799 111.634 264.103 111.968 265.259 112.614C266.415 113.259 267.384 114.193 268.071 115.324C277.885 129.558 272.833 155.057 272.028 158.473C285.892 174.065 292.106 198.984 292.172 199.234C292.213 199.4 292.19 199.576 292.107 199.726C292.023 199.875 291.886 199.987 291.723 200.039L276.922 204.682L276.698 204.709ZM232.428 140.071C233.048 142.973 238.549 167.773 244.709 173.933C250.87 180.094 274.007 200.725 276.922 203.258L290.747 198.931C289.692 194.974 283.413 173.089 270.841 159.12C270.765 159.04 270.711 158.943 270.684 158.837C270.656 158.731 270.656 158.619 270.683 158.513C270.683 158.236 276.896 130.56 266.937 116.089C266.389 115.154 265.607 114.378 264.668 113.836C263.729 113.295 262.665 113.008 261.581 113.003H261.489C250.658 113.135 234.196 137.367 232.428 140.032V140.071Z" fill="#231F20"/>
<path d="M265.113 81.3039C265.113 81.3039 168.921 51.9136 149.609 60.422C130.297 68.9304 128.688 93.4003 128.688 93.4003C121.96 101.228 116.45 110.024 112.344 119.493L145.52 131.009L137.355 162.206C137.355 162.206 153.013 179.672 175.979 179.672C198.945 179.672 204.116 174.58 204.116 174.58C204.116 174.58 221.845 156.27 227.702 152.155C233.559 148.039 232.253 149.028 232.253 149.028C232.253 149.028 257.448 147.946 272.302 137.156C272.302 137.275 295.941 85.0238 265.113 81.3039Z" fill="#1E71B9"/>
<path d="M229.538 80.974L225.369 90.5114C225.369 90.5114 213.8 104.283 204.369 98.0436C194.937 91.8041 196.348 76.3571 196.348 76.3571C196.348 76.3571 216.993 38.6299 220.765 21.1646C220.765 21.1646 239.075 26.4411 255.168 30.0027C255.168 30.0027 254.403 72.0171 244.497 79.8132C237.782 85.1029 229.538 80.974 229.538 80.974Z" fill="white"/>
<path d="M209.751 100.379C207.697 100.381 205.69 99.7697 203.986 98.6242C194.304 92.2264 195.61 76.9641 195.676 76.3045C195.69 76.2133 195.716 76.1246 195.755 76.0407C195.966 75.6713 216.399 38.208 220.093 21.0328C220.135 20.8476 220.249 20.6866 220.409 20.5843C220.583 20.5132 220.777 20.5132 220.95 20.5843C221.135 20.5843 239.418 25.8609 255.314 29.4225C255.467 29.4537 255.605 29.5386 255.701 29.6618C255.798 29.7851 255.848 29.9387 255.841 30.0953C255.841 31.8233 254.971 72.5186 244.919 80.4202C238.97 85.1031 232.031 82.821 229.881 81.9372L225.923 90.8414C225.896 90.903 225.86 90.9607 225.818 91.0128C225.475 91.4086 217.863 100.379 209.751 100.379ZM197.021 76.6343C196.916 78.1513 196.203 91.9098 204.725 97.5425C213.246 103.175 223.879 91.2503 224.776 90.2082L228.905 80.7632C228.984 80.5936 229.126 80.4613 229.3 80.3938C229.386 80.3579 229.478 80.3394 229.571 80.3394C229.664 80.3394 229.756 80.3579 229.841 80.3938C229.92 80.3938 237.756 84.2589 244.075 79.3121C253.018 72.2812 254.337 35.5565 254.469 30.5834C240.434 27.4174 224.723 23.0247 221.267 22.0486C217.257 39.1577 198.327 74.1543 197.021 76.5683V76.6343Z" fill="#231F20"/>
<path d="M254.155 35.8334C249.94 31.7314 245.066 28.365 239.737 25.8739C234.486 23.3048 228.682 22.068 222.839 22.2727C221.95 22.2335 221.068 22.4584 220.307 22.9191C218.684 24.1195 216.626 24.4097 214.872 25.6761C212.958 27.0436 211.346 28.7903 210.136 30.8075C207.907 34.5274 204.411 47.9562 211.719 48.3783C215.03 48.5894 218.592 46.2941 221.309 44.6848C224.699 42.6665 227.628 40.2261 231.163 38.564C232.324 38.0231 233.907 36.0708 235.12 36.0444C236.334 36.0181 238.867 38.5508 239.988 39.4214C243.453 42.0597 246.971 44.5968 250.541 47.0328L248.879 42.4686C251.69 44.1698 254.379 46.0651 256.926 48.1409C257.414 48.5894 261.635 53.2327 261.701 52.7974C263.389 47.4022 257.519 39.3027 254.155 35.8334Z" fill="#231F20"/>
<path d="M261.594 53.457C261.185 53.457 260.565 52.903 257.412 49.4996L256.45 48.4971C254.81 47.0566 253.044 45.7674 251.173 44.6452L250.184 44.0121L251.147 46.6503C251.203 46.7818 251.213 46.9282 251.177 47.0666C251.141 47.2049 251.06 47.3273 250.947 47.4148C250.834 47.5022 250.695 47.5497 250.552 47.5498C250.409 47.55 250.27 47.5027 250.157 47.4154C246.582 44.9486 243.021 42.3895 239.604 39.7776C239.301 39.5534 238.918 39.2104 238.483 38.8147C237.573 37.9836 236.016 36.6381 235.277 36.5985C234.483 36.8655 233.765 37.3177 233.18 37.9177C232.676 38.3662 232.123 38.7556 231.531 39.0785C229.417 40.1553 227.392 41.3992 225.476 42.7985C224.249 43.6295 222.996 44.4737 221.677 45.2652L221.097 45.6082C218.379 47.2307 215.016 49.249 211.718 49.0511C210.861 49.0226 210.028 48.7621 209.308 48.2975C208.588 47.8328 208.007 47.1815 207.628 46.4129C205.294 41.9938 207.958 33.2215 209.607 30.425C210.873 28.3513 212.547 26.5562 214.527 25.1484C215.432 24.5305 216.412 24.0297 217.443 23.6578C218.335 23.3263 219.182 22.8831 219.962 22.3387C220.824 21.792 221.832 21.5205 222.851 21.5604C228.781 21.3519 234.67 22.6069 240 25.2144C245.402 27.7367 250.343 31.1479 254.616 35.3058V35.3058C258.072 38.8938 264.114 47.178 262.28 52.8898C262.242 52.9927 262.183 53.0862 262.105 53.1637C262.028 53.2411 261.934 53.3008 261.832 53.3383C261.759 53.39 261.679 53.43 261.594 53.457V53.457ZM248.851 41.7563C248.988 41.757 249.121 41.7983 249.234 41.8751C250.065 42.4555 250.949 43.0227 251.872 43.6031C253.819 44.7574 255.66 46.0817 257.373 47.5605C257.505 47.6792 257.887 48.0882 258.389 48.629C258.89 49.1699 260.433 50.7924 261.278 51.5971C261.911 46.7427 257.254 39.9095 253.719 36.2424C249.549 32.2018 244.734 28.8849 239.472 26.428C234.335 23.9021 228.651 22.6919 222.93 22.9059C222.175 22.8671 221.424 23.0457 220.767 23.4204C219.889 24.0367 218.936 24.5377 217.931 24.911C217.001 25.2417 216.115 25.6847 215.293 26.2301C213.45 27.5406 211.897 29.2153 210.728 31.1505C208.961 34.1186 206.837 42.1521 208.789 45.8456C209.065 46.4093 209.492 46.8846 210.024 47.2179C210.555 47.5513 211.17 47.7293 211.797 47.732C214.673 47.9167 217.865 46.0171 220.424 44.4869L221.004 44.1308C222.324 43.3657 223.537 42.5214 224.738 41.7168C226.694 40.3116 228.758 39.0633 230.911 37.9836C231.384 37.7007 231.826 37.3691 232.23 36.9943C233.03 36.1863 234.064 35.6509 235.185 35.4641C236.504 35.3849 237.995 36.7832 239.327 38.01C239.723 38.3794 240.066 38.6959 240.343 38.907C243.232 41.0836 246.2 43.247 249.194 45.3312L248.231 42.6929C248.185 42.5599 248.182 42.4158 248.222 42.2809C248.263 42.146 248.344 42.0271 248.456 41.941C248.561 41.8335 248.701 41.7679 248.851 41.7563V41.7563Z" fill="#231F20"/>
<path d="M226.666 87.6359C224.296 86.319 222.316 84.3985 220.928 82.0691C219.609 79.7607 220.426 74.4841 220.426 74.4841C220.426 74.4841 222.062 77.9271 229.542 80.9743L226.666 87.6359Z" fill="#231F20"/>
<path d="M226.663 88.2954C226.561 88.2956 226.461 88.2682 226.373 88.2162C223.879 86.8571 221.8 84.8465 220.358 82.3989C218.933 79.9057 219.738 74.616 219.778 74.3917C219.801 74.2546 219.867 74.1285 219.966 74.0312C220.066 73.9339 220.193 73.8705 220.331 73.85C220.468 73.8295 220.609 73.853 220.732 73.9171C220.855 73.9812 220.955 74.0827 221.018 74.207C221.018 74.207 222.693 77.4785 229.777 80.3674C229.859 80.3991 229.934 80.4469 229.997 80.5081C230.061 80.5692 230.111 80.6425 230.146 80.7235C230.182 80.8045 230.201 80.8922 230.201 80.9808C230.201 81.0694 230.182 81.157 230.146 81.238L227.283 87.8337C227.205 87.9958 227.068 88.1228 226.901 88.1898C226.83 88.2414 226.749 88.2774 226.663 88.2954V88.2954ZM220.899 76.2253C220.647 78.0886 220.851 79.9851 221.492 81.7525C222.702 83.7623 224.37 85.4574 226.36 86.6992L228.669 81.3172C225.741 80.2014 223.09 78.4642 220.899 76.2253V76.2253Z" fill="#231F20"/>
<path d="M239.736 48.3521C239.736 48.3521 242.915 59.4196 240.95 60.5408C238.984 61.6621 235.277 59.3009 235.277 59.3009" fill="white"/>
<path d="M239.669 61.5038C237.977 61.3487 236.348 60.7876 234.92 59.8681C234.774 59.7733 234.67 59.6254 234.631 59.4556C234.591 59.2858 234.619 59.1074 234.709 58.9579C234.753 58.8828 234.813 58.8175 234.883 58.7659C234.954 58.7144 235.034 58.6776 235.119 58.6579C235.204 58.6381 235.292 58.6359 235.378 58.6512C235.464 58.6664 235.546 58.699 235.619 58.7468C236.503 59.3009 239.313 60.7124 240.632 59.9736C241.41 59.5251 240.632 54.0639 239.102 48.5368C239.057 48.3671 239.08 48.1867 239.166 48.0339C239.252 47.8811 239.395 47.7681 239.563 47.7189C239.646 47.6948 239.732 47.6873 239.817 47.6969C239.902 47.7065 239.985 47.7329 240.06 47.7746C240.134 47.8164 240.2 47.8726 240.253 47.94C240.306 48.0075 240.345 48.0848 240.368 48.1674C241.371 51.6499 243.455 59.8813 241.278 61.1213C240.782 61.3808 240.229 61.5123 239.669 61.5038V61.5038Z" fill="#231F20"/>
<path d="M233.561 46.2304C233.931 45.0562 233.555 43.8911 232.722 43.6282C231.888 43.3653 230.912 44.1041 230.541 45.2784C230.171 46.4526 230.547 47.6177 231.381 47.8805C232.215 48.1434 233.191 47.4046 233.561 46.2304Z" fill="#231F20"/>
<path d="M248.436 50.912C248.806 49.7378 248.43 48.5728 247.597 48.3099C246.763 48.047 245.787 48.7858 245.416 49.96C245.046 51.1343 245.422 52.2993 246.256 52.5622C247.09 52.8251 248.066 52.0863 248.436 50.912Z" fill="#231F20"/>
<path d="M257.888 38.9993C257.888 38.9993 236.584 30.7811 226.545 34.2768C216.507 37.7725 214.238 44.4473 214.435 51.4255C214.435 51.4255 224.632 55.2115 222.997 62.7305C221.361 70.2496 217.364 76.4495 210.663 73.7849C203.962 71.1202 192.195 62.8492 192.195 62.8492C192.195 62.8492 181.391 38.1815 190.177 19.7268C198.962 1.27211 225.991 -3.17337 244.776 5.46695C261.41 13.1971 260.869 20.7293 257.888 38.9993Z" fill="white"/>
<path d="M213.696 75.1699C212.567 75.1558 211.452 74.9228 210.412 74.484C203.711 71.8457 192.274 63.8122 191.786 63.4692C191.687 63.3937 191.609 63.2937 191.561 63.179C191.456 62.9416 180.731 38.0232 189.543 19.5025C198.513 0.665303 226.255 -3.7406 245.052 4.91291C262.122 12.8277 261.581 20.5974 258.56 39.1048C258.542 39.2065 258.503 39.3029 258.443 39.3873C258.384 39.4717 258.307 39.5419 258.217 39.5929C258.127 39.6382 258.028 39.6617 257.927 39.6617C257.826 39.6617 257.727 39.6382 257.637 39.5929C257.426 39.5138 236.451 31.5066 226.769 34.8836C218.735 37.6802 215.016 42.7984 215.108 50.9902C217.1 51.8609 225.199 55.8314 223.669 62.8624C222.416 68.5875 220.055 72.6372 217.073 74.2597C216.044 74.8471 214.881 75.1605 213.696 75.1699V75.1699ZM192.735 62.4667C194.16 63.456 204.779 70.7904 210.913 73.2176C211.77 73.6175 212.707 73.8181 213.653 73.8044C214.598 73.7907 215.529 73.563 216.374 73.1385C219.012 71.7006 221.176 67.9807 222.337 62.5854C223.827 55.7259 214.29 52.0323 214.198 52.0323C214.07 51.9852 213.959 51.9011 213.879 51.7907C213.799 51.6803 213.754 51.5486 213.749 51.4123C213.512 42.2971 217.495 36.6117 226.32 33.5513C235.554 30.3458 253.336 36.5061 257.346 37.9836C260.249 20.0302 260.235 13.3158 244.485 6.06055C226.255 -2.32913 199.41 1.83933 190.783 19.9906C182.604 37.2581 191.799 60.2505 192.735 62.4667Z" fill="#231F20"/>
<path d="M208.785 58.5537C209.169 56.0034 208.37 53.769 207.001 53.5629C205.633 53.3569 204.212 55.2573 203.828 57.8076C203.444 60.3579 204.242 62.5923 205.611 62.7984C206.98 63.0044 208.401 61.104 208.785 58.5537Z" fill="#231F20"/>
<path d="M249.694 81.0138C224.855 81.0138 205.147 61.2268 204.949 61.0025C204.885 60.9398 204.834 60.865 204.799 60.7823C204.764 60.6996 204.746 60.6108 204.746 60.521C204.746 60.4313 204.764 60.3425 204.799 60.2598C204.834 60.1771 204.885 60.1022 204.949 60.0395C205.077 59.9131 205.25 59.8422 205.43 59.8422C205.611 59.8422 205.784 59.9131 205.912 60.0395C206.11 60.2374 226.504 80.7235 251.659 79.5891C254.074 79.4836 255.815 76.5023 256.646 73.7585C257.582 70.6586 257.345 68.1654 256.751 67.7433C255.01 66.6352 225.567 61.8204 206.202 58.8523C206.024 58.8231 205.865 58.7251 205.759 58.5795C205.653 58.4338 205.608 58.2523 205.635 58.074C205.664 57.8962 205.762 57.737 205.908 57.6309C206.053 57.5247 206.235 57.4802 206.413 57.5068C214.565 58.7468 255.393 65.0786 257.556 66.6484C259.047 67.7301 258.809 71.2917 257.952 74.1411C256.712 78.2832 254.377 80.8291 251.712 80.9478C251.04 80.9874 250.367 81.0138 249.694 81.0138Z" fill="#231F20"/>
<path d="M232.347 77.94C232.21 77.9387 232.077 77.8964 231.964 77.8184C231.851 77.7405 231.764 77.6305 231.715 77.5027C231.665 77.3749 231.655 77.2352 231.685 77.1015C231.716 76.9679 231.786 76.8464 231.886 76.7528C233.646 75.1639 234.931 73.1185 235.599 70.8436C236.267 68.5687 236.293 66.1532 235.672 63.8649C235.617 63.6934 235.632 63.5075 235.714 63.3471C235.795 63.1867 235.936 63.0648 236.107 63.0074C236.192 62.9787 236.281 62.9672 236.371 62.9737C236.46 62.9801 236.547 63.0043 236.627 63.0448C236.707 63.0854 236.778 63.1414 236.836 63.2098C236.894 63.2781 236.937 63.3573 236.964 63.4428C237.661 65.9806 237.64 68.6618 236.904 71.1884C236.168 73.715 234.746 75.9882 232.796 77.7553C232.675 77.8705 232.515 77.9364 232.347 77.94Z" fill="#231F20"/>
<path d="M248.428 81.0929C248.252 81.092 248.083 81.0263 247.953 80.9083C247.889 80.8456 247.838 80.7707 247.803 80.688C247.768 80.6053 247.75 80.5165 247.75 80.4268C247.75 80.337 247.768 80.2482 247.803 80.1655C247.838 80.0828 247.889 80.008 247.953 79.9453C252.636 74.9326 251.91 66.2527 251.91 66.1603C251.899 65.9812 251.957 65.8045 252.073 65.667C252.188 65.5295 252.352 65.4416 252.53 65.4216C252.62 65.4126 252.71 65.4215 252.796 65.448C252.882 65.4744 252.962 65.5179 253.031 65.5757C253.099 65.6335 253.156 65.7045 253.197 65.7845C253.238 65.8645 253.262 65.952 253.269 66.0416C253.269 66.4242 254.047 75.4075 248.929 80.8819C248.796 81.0158 248.616 81.0916 248.428 81.0929Z" fill="#231F20"/>
<path d="M238.208 71.0015C232.325 71.0015 227.945 65.4348 227.879 65.3557C227.785 65.2167 227.747 65.047 227.774 64.8813C227.8 64.7155 227.889 64.5661 228.022 64.4634C228.155 64.3608 228.322 64.3128 228.489 64.329C228.656 64.3453 228.811 64.4247 228.921 64.551C229.198 64.9072 235.741 73.1781 243.274 67.9939C243.343 67.9437 243.423 67.9078 243.506 67.8886C243.59 67.8693 243.677 67.8669 243.762 67.8817C243.847 67.8964 243.928 67.928 244 67.9744C244.073 68.0209 244.135 68.0813 244.184 68.1522C244.234 68.2239 244.269 68.3048 244.287 68.3902C244.306 68.4756 244.307 68.5639 244.291 68.6498C244.275 68.7357 244.242 68.8176 244.194 68.8907C244.147 68.9638 244.085 69.0266 244.012 69.0756C242.325 70.3056 240.296 70.9788 238.208 71.0015V71.0015Z" fill="#231F20"/>
<path d="M116.923 119.559C110.251 130.776 106.614 143.538 106.37 156.587C105.882 178.616 112.319 191.003 118.242 191.254C124.165 191.504 155.89 174.91 172.472 152.128L167.024 138.264L147.461 144.702L153.661 123.16" fill="white"/>
<path d="M118.4 191.926H118.255C111.805 191.663 105.209 179.17 105.724 156.56C105.993 143.396 109.655 130.524 116.356 119.189C116.458 119.039 116.615 118.936 116.793 118.901C116.971 118.866 117.155 118.904 117.306 119.005C117.381 119.053 117.446 119.115 117.496 119.189C117.546 119.263 117.581 119.346 117.598 119.433C117.616 119.521 117.615 119.611 117.596 119.698C117.578 119.786 117.542 119.868 117.49 119.941C110.931 131.064 107.346 143.689 107.082 156.6C106.621 177.271 112.557 190.33 118.321 190.568H118.414C123.848 190.568 155.112 174.619 171.746 152.023L166.668 139.108L147.712 145.348C147.594 145.383 147.469 145.386 147.349 145.357C147.23 145.327 147.12 145.266 147.033 145.18C146.945 145.093 146.882 144.985 146.851 144.866C146.819 144.747 146.821 144.622 146.854 144.504L153.041 122.962C153.092 122.787 153.21 122.64 153.369 122.552C153.529 122.464 153.717 122.443 153.892 122.494C154.067 122.545 154.214 122.663 154.302 122.822C154.39 122.982 154.411 123.17 154.36 123.345L148.516 143.633L166.852 137.604C167.017 137.545 167.198 137.553 167.356 137.628C167.515 137.702 167.637 137.836 167.696 138L173.144 151.864C173.187 151.97 173.202 152.085 173.188 152.198C173.174 152.311 173.132 152.418 173.065 152.511C156.286 175.569 124.666 191.926 118.4 191.926Z" fill="#231F20"/>
<path d="M126.762 145.374C126.618 145.375 126.477 145.329 126.36 145.244C126.244 145.158 126.158 145.037 126.116 144.899C126.089 144.813 126.08 144.722 126.089 144.632C126.098 144.542 126.125 144.454 126.168 144.374C126.211 144.295 126.269 144.224 126.339 144.167C126.41 144.11 126.491 144.067 126.577 144.042C133.47 141.885 140.857 141.885 147.749 144.042C147.924 144.107 148.066 144.238 148.144 144.408C148.222 144.577 148.23 144.77 148.165 144.945C148.1 145.12 147.969 145.262 147.799 145.34C147.63 145.418 147.436 145.426 147.261 145.361C140.645 143.338 133.576 143.338 126.96 145.361C126.895 145.378 126.828 145.383 126.762 145.374V145.374Z" fill="#231F20"/>
<path d="M181.931 146.034C192.815 146.034 201.638 130.938 201.638 112.317C201.638 93.6952 192.815 78.5996 181.931 78.5996C171.046 78.5996 162.223 93.6952 162.223 112.317C162.223 130.938 171.046 146.034 181.931 146.034Z" fill="white"/>
<path d="M181.941 146.72C175.226 146.72 161.547 130.798 161.547 112.317C161.547 92.7934 175.134 77.9136 181.941 77.9136C188.747 77.9136 202.334 92.7934 202.334 112.317C202.321 130.798 188.642 146.72 181.941 146.72ZM181.941 79.2723C175.503 79.2723 162.906 94.2313 162.906 112.317C162.906 130.705 176.572 145.295 181.941 145.295C187.31 145.295 200.976 130.639 200.976 112.317C200.963 94.2313 188.365 79.2723 181.941 79.2723V79.2723Z" fill="#231F20"/>
<path d="M190.188 131.523C190.096 131.541 190.002 131.541 189.911 131.523C189.754 131.449 189.633 131.316 189.574 131.153C189.515 130.99 189.522 130.81 189.594 130.653C200.648 106.71 185.175 87.2531 185.017 87.1212C184.909 86.9845 184.859 86.8107 184.879 86.6377C184.899 86.4647 184.986 86.3066 185.122 86.1978C185.257 86.0884 185.43 86.0368 185.603 86.0541C185.776 86.0713 185.935 86.1562 186.046 86.2901C186.204 86.488 202.179 106.592 190.795 131.273C190.722 131.362 190.629 131.431 190.523 131.475C190.417 131.519 190.302 131.535 190.188 131.523V131.523Z" fill="#D1D3D4"/>
<path d="M184.477 94.1258C184.337 94.1246 184.2 94.0794 184.087 93.9966C183.973 93.9138 183.888 93.7975 183.844 93.6641C183.794 93.4961 183.812 93.3154 183.893 93.1602C183.975 93.005 184.113 92.8876 184.28 92.833C184.504 92.833 189.807 91.1181 192.445 91.2237C192.618 91.2305 192.781 91.3049 192.899 91.4307C193.018 91.5565 193.082 91.7237 193.078 91.8964C193.065 92.0703 192.987 92.233 192.861 92.3526C192.734 92.4722 192.567 92.54 192.392 92.5428C189.767 92.7531 187.177 93.2756 184.675 94.0994L184.477 94.1258Z" fill="#D1D3D4"/>
<path d="M187.562 102.252C187.432 102.251 187.305 102.212 187.197 102.139C187.089 102.066 187.005 101.963 186.955 101.843C186.921 101.763 186.903 101.678 186.902 101.591C186.902 101.505 186.919 101.419 186.952 101.339C186.985 101.259 187.034 101.186 187.096 101.126C187.158 101.065 187.231 101.017 187.311 100.985C189.747 99.9774 192.323 99.3501 194.949 99.1255C195.124 99.1255 195.292 99.195 195.416 99.3187C195.539 99.4424 195.609 99.6101 195.609 99.7851C195.609 99.96 195.539 100.128 195.416 100.251C195.292 100.375 195.124 100.445 194.949 100.445H194.804C192.415 100.695 190.074 101.285 187.852 102.199C187.762 102.242 187.662 102.26 187.562 102.252V102.252Z" fill="#D1D3D4"/>
<path d="M197.233 111.13H197.075C194.733 110.748 192.345 110.748 190.004 111.13C189.829 111.158 189.65 111.115 189.507 111.011C189.363 110.907 189.267 110.75 189.239 110.576C189.211 110.401 189.254 110.222 189.357 110.078C189.461 109.935 189.618 109.838 189.793 109.81C192.313 109.394 194.884 109.394 197.404 109.81C197.488 109.832 197.567 109.87 197.637 109.922C197.706 109.974 197.765 110.039 197.809 110.114C197.853 110.189 197.882 110.272 197.894 110.358C197.906 110.444 197.901 110.531 197.879 110.615C197.846 110.762 197.764 110.892 197.647 110.986C197.529 111.08 197.383 111.13 197.233 111.13V111.13Z" fill="#D1D3D4"/>
<path d="M195.214 123.345C195.131 123.357 195.046 123.357 194.963 123.345C192.825 122.666 190.608 122.267 188.367 122.158C188.281 122.154 188.197 122.134 188.119 122.097C188.041 122.061 187.971 122.009 187.913 121.945C187.855 121.881 187.811 121.806 187.782 121.725C187.754 121.644 187.742 121.558 187.747 121.472C187.747 121.384 187.765 121.298 187.8 121.218C187.835 121.138 187.887 121.067 187.952 121.008C188.016 120.95 188.093 120.905 188.176 120.878C188.259 120.852 188.347 120.842 188.433 120.852C190.813 120.968 193.166 121.412 195.425 122.171C195.6 122.204 195.754 122.305 195.854 122.453C195.955 122.6 195.992 122.781 195.959 122.956C195.926 123.131 195.824 123.285 195.677 123.385C195.53 123.486 195.349 123.523 195.174 123.49L195.214 123.345Z" fill="#D1D3D4"/>
<path d="M173.754 154.476C173.754 154.476 167.158 149.384 164.52 144.701C161.882 140.019 162.475 137.578 162.475 137.578C162.475 137.578 164.797 119.889 166.512 118.635C168.227 117.382 180.257 101.421 181.946 102.107C183.634 102.793 185.468 104.151 184.914 106.75C184.36 109.349 178.226 115.667 178.595 118.622C178.964 121.577 179.716 122.342 179.716 122.342C179.716 122.342 183.977 123.82 188.805 119.546C193.633 115.272 199.213 108.412 201.258 110.457C203.302 112.501 198.092 121.775 190.111 125.68C190.111 125.68 197.907 121.96 200.506 123.041C203.104 124.123 200.73 135.296 198.303 138.633C195.876 141.971 187.882 146.073 182.038 148.672C178.866 149.943 176.031 151.929 173.754 154.476Z" fill="white"/>
<path d="M173.754 155.162C173.601 155.159 173.454 155.108 173.332 155.017C173.068 154.806 166.63 149.741 163.887 145.045C161.143 140.348 161.736 137.512 161.776 137.394C162.33 133.278 164.335 119.467 166.09 118.095C167.62 116.498 169.069 114.825 170.43 113.082C178.621 103.202 180.983 100.92 182.196 101.487C184.94 102.7 186.074 104.521 185.56 106.895C184.883 108.676 183.925 110.337 182.724 111.816C181.101 114.164 179.07 117.092 179.255 118.556C179.327 119.671 179.618 120.76 180.112 121.762C180.956 121.973 184.412 122.54 188.343 119.124C189.57 118.042 190.85 116.776 192.103 115.549C196.192 111.591 199.727 108.043 201.719 110.048C202.023 110.408 202.233 110.836 202.332 111.296C202.431 111.756 202.415 112.234 202.287 112.686C201.864 115.324 199.411 119.506 195.519 122.909C197.511 122.329 199.556 121.986 200.796 122.501C201.134 122.672 201.428 122.917 201.656 123.219C201.885 123.521 202.042 123.87 202.115 124.242C203.078 127.764 200.981 136.246 198.883 139.135C196.179 142.855 187.367 147.155 182.354 149.384C179.297 150.601 176.558 152.501 174.347 154.938C174.233 155.073 174.074 155.163 173.899 155.189L173.754 155.162ZM181.761 102.74C180.363 103.202 174.598 110.153 171.485 113.913C170.073 115.76 168.553 117.522 166.934 119.19C166.01 120.034 164.296 129.255 163.095 137.657C163.095 137.763 162.554 140.032 165.061 144.345C167.25 148.118 172.092 152.26 173.675 153.579C175.977 151.245 178.721 149.392 181.748 148.131C185.705 146.39 195.124 141.931 197.736 138.33C199.635 135.692 201.614 127.777 200.743 124.611C200.611 124.149 200.44 123.846 200.229 123.754C198.553 123.041 193.303 124.967 190.388 126.392C190.223 126.465 190.036 126.472 189.867 126.41C189.697 126.349 189.558 126.224 189.478 126.062C189.404 125.901 189.396 125.717 189.455 125.55C189.514 125.383 189.636 125.245 189.794 125.165C196.139 122.065 200.413 115.707 200.954 112.502C201.026 112.255 201.045 111.996 201.011 111.742C200.977 111.488 200.89 111.243 200.756 111.024C199.714 109.982 195.862 113.768 193.053 116.538C191.799 117.765 190.494 119.044 189.254 120.152C184.175 124.638 179.663 123.134 179.479 123.068C179.377 123.042 179.286 122.987 179.215 122.909C179.07 122.764 178.292 121.854 177.896 118.794C177.645 116.815 179.65 113.926 181.589 111.13C182.675 109.78 183.563 108.283 184.228 106.684C184.584 104.916 183.832 103.729 181.761 102.74Z" fill="#231F20"/>
<path d="M154.24 121.696C154.162 121.708 154.082 121.708 154.003 121.696C153.833 121.631 153.697 121.501 153.622 121.336C153.548 121.17 153.543 120.982 153.607 120.812C153.963 119.875 157.776 103.399 160.269 92.5561C160.289 92.4695 160.325 92.3876 160.377 92.3152C160.429 92.2428 160.494 92.1813 160.569 92.1341C160.645 92.087 160.728 92.0551 160.816 92.0404C160.904 92.0256 160.993 92.0283 161.08 92.0482C161.167 92.0681 161.248 92.1049 161.321 92.1565C161.393 92.208 161.455 92.2733 161.502 92.3487C161.549 92.424 161.581 92.5079 161.596 92.5955C161.61 92.6832 161.608 92.7729 161.588 92.8595C160.955 95.6297 155.375 119.968 154.887 121.287C154.83 121.41 154.739 121.515 154.624 121.588C154.51 121.66 154.376 121.698 154.24 121.696V121.696Z" fill="#231F20"/>
<path d="M219.803 154.041C219.659 154.042 219.518 153.996 219.401 153.91C219.285 153.825 219.199 153.704 219.157 153.566C219.106 153.393 219.125 153.207 219.209 153.047C219.292 152.887 219.434 152.766 219.605 152.709C228.93 149.481 237.694 144.817 245.579 138.884C245.727 138.778 245.91 138.734 246.09 138.761C246.27 138.789 246.432 138.885 246.542 139.029C246.595 139.101 246.634 139.182 246.656 139.269C246.678 139.356 246.682 139.446 246.669 139.535C246.655 139.623 246.624 139.708 246.577 139.784C246.531 139.861 246.469 139.927 246.397 139.979C238.386 146.002 229.485 150.737 220.014 154.015L219.803 154.041Z" fill="#231F20"/>
<path d="M292.196 193.892C292.196 193.892 269.691 199.947 270.852 201.873C272.011 203.502 273.367 204.982 274.889 206.279C274.889 206.279 271.446 215.631 271.683 219.47C271.921 223.309 271.868 234.574 273.635 237.001C275.403 239.429 279.242 236.935 279.703 234.455C280.165 231.975 280.666 224.628 280.666 224.628C280.666 224.628 286.827 229.548 288.199 231.83C289.57 234.112 288.265 249.203 291.642 251.063C295.019 252.923 297.406 250.799 297.261 239.415C297.261 239.415 302.538 233.229 302.063 225.433C301.588 217.636 295.678 205.026 294.781 201.952C293.884 198.878 292.196 193.892 292.196 193.892Z" fill="white"/>
<path d="M293.599 252.409C292.794 252.376 292.011 252.144 291.317 251.736C289.074 250.483 288.679 245.549 288.336 238.703C288.204 235.893 288.059 232.965 287.623 232.252C286.647 230.643 283.046 227.543 281.265 226.066C281.094 228.295 280.737 232.78 280.381 234.653C280.127 235.602 279.628 236.468 278.933 237.162C278.238 237.857 277.373 238.357 276.424 238.611C275.822 238.773 275.185 238.747 274.598 238.537C274.011 238.327 273.502 237.943 273.139 237.436C271.741 235.511 271.424 229.39 271.2 222.741C271.2 221.422 271.121 220.354 271.068 219.549C270.844 216.001 273.456 208.389 274.142 206.463C272.7 205.202 271.415 203.771 270.316 202.202C270.244 202.064 270.207 201.91 270.207 201.754C270.207 201.598 270.244 201.444 270.316 201.305C271.226 199.05 285.869 194.894 292.135 193.206C292.302 193.164 292.48 193.187 292.632 193.27C292.783 193.353 292.898 193.49 292.952 193.654C292.952 193.654 294.641 198.746 295.591 201.794C295.815 202.559 296.382 203.983 297.095 205.751C299.126 210.896 302.529 219.509 302.899 225.406C303.36 232.688 299.034 238.505 298.11 239.666C298.176 246.829 297.266 250.733 295.235 251.96C294.747 252.27 294.177 252.426 293.599 252.409V252.409ZM280.671 224.021C280.828 224.023 280.98 224.073 281.107 224.166C281.357 224.377 287.359 229.192 288.784 231.54C289.364 232.516 289.51 234.877 289.694 238.637C289.905 242.99 290.222 249.573 291.976 250.509C292.313 250.77 292.713 250.936 293.135 250.99C293.558 251.043 293.987 250.982 294.377 250.812C295.446 250.179 296.699 247.686 296.593 239.468C296.588 239.386 296.599 239.305 296.627 239.228C296.654 239.15 296.696 239.08 296.752 239.019C296.752 238.953 301.857 232.925 301.382 225.512C301.026 219.839 297.675 211.357 295.67 206.279C294.944 204.445 294.351 203.007 294.127 202.176C293.427 199.775 292.227 196.134 291.752 194.697C282.518 197.203 272.823 200.395 271.556 201.701C272.664 203.179 273.929 204.533 275.329 205.738C275.437 205.826 275.515 205.946 275.55 206.081C275.586 206.217 275.578 206.359 275.527 206.49C275.527 206.582 272.137 215.724 272.374 219.457C272.374 220.275 272.466 221.396 272.506 222.702C272.664 227.253 272.915 234.891 274.194 236.645C274.399 236.936 274.69 237.156 275.026 237.272C275.363 237.388 275.727 237.395 276.068 237.291C276.774 237.099 277.419 236.729 277.941 236.216C278.463 235.704 278.844 235.065 279.049 234.363C279.497 231.962 279.999 224.694 279.999 224.628C280.007 224.503 280.05 224.383 280.122 224.28C280.194 224.178 280.293 224.098 280.408 224.047C280.492 224.019 280.583 224.01 280.671 224.021V224.021Z" fill="#231F20"/>
<path d="M297.261 240.167H297.142C297.054 240.151 296.971 240.118 296.896 240.07C296.821 240.021 296.756 239.958 296.706 239.884C296.656 239.811 296.62 239.728 296.602 239.641C296.585 239.553 296.584 239.463 296.601 239.376C296.601 239.27 298.488 228.822 294.675 221.923C294.632 221.845 294.604 221.76 294.594 221.671C294.584 221.583 294.591 221.493 294.616 221.407C294.64 221.321 294.682 221.241 294.737 221.171C294.793 221.102 294.861 221.043 294.939 221C295.017 220.957 295.103 220.929 295.191 220.919C295.28 220.909 295.37 220.916 295.455 220.941C295.541 220.965 295.621 221.006 295.691 221.062C295.761 221.117 295.819 221.186 295.862 221.264C299.912 228.611 298.013 239.178 297.934 239.626C297.9 239.78 297.815 239.917 297.693 240.016C297.57 240.114 297.418 240.168 297.261 240.167V240.167Z" fill="#231F20"/>
<path d="M287.753 321.848H287.66L277.253 320.397C277.078 320.371 276.921 320.277 276.815 320.137C276.709 319.996 276.663 319.819 276.685 319.645C276.715 319.473 276.809 319.319 276.949 319.216C277.09 319.113 277.265 319.068 277.437 319.091L287.832 320.529C288.007 320.539 288.17 320.619 288.287 320.75C288.403 320.881 288.462 321.053 288.452 321.228C288.441 321.403 288.362 321.566 288.231 321.683C288.1 321.799 287.928 321.858 287.753 321.848V321.848Z" fill="#D1D3D4"/>
<path d="M122.502 326.438H122.397L112.252 324.948C112.079 324.925 111.922 324.834 111.816 324.696C111.71 324.557 111.663 324.382 111.685 324.209C111.711 324.035 111.805 323.878 111.945 323.772C112.086 323.666 112.262 323.619 112.437 323.642L122.594 325.132C122.769 325.145 122.932 325.226 123.047 325.358C123.162 325.491 123.22 325.663 123.208 325.838C123.196 326.013 123.114 326.176 122.982 326.291C122.85 326.406 122.677 326.464 122.502 326.452V326.438Z" fill="#D1D3D4"/>
<path d="M10.3507 301.322H10.2716L0.91893 300.082C0.747348 300.056 0.592531 299.965 0.486824 299.827C0.381117 299.689 0.332699 299.516 0.351702 299.343C0.374692 299.17 0.465368 299.014 0.60384 298.907C0.742312 298.801 0.91729 298.754 1.09042 298.776L10.4431 300.016C10.5297 300.022 10.6143 300.045 10.692 300.084C10.7697 300.123 10.839 300.177 10.8959 300.242C10.9529 300.308 10.9964 300.384 11.0239 300.466C11.0515 300.548 11.0625 300.635 11.0565 300.722C11.0504 300.809 11.0273 300.893 10.9886 300.971C10.9499 301.049 10.8962 301.118 10.8306 301.175C10.7651 301.232 10.689 301.275 10.6067 301.303C10.5243 301.33 10.4373 301.341 10.3507 301.335V301.322Z" fill="#D1D3D4"/>
<path d="M151.721 325.673H151.603L139.533 324.09C139.358 324.068 139.199 323.976 139.091 323.837C138.984 323.697 138.936 323.52 138.959 323.345C138.981 323.17 139.073 323.011 139.212 322.904C139.352 322.796 139.529 322.748 139.704 322.771L151.774 324.341C151.947 324.364 152.104 324.455 152.21 324.593C152.317 324.732 152.364 324.907 152.341 325.08C152.326 325.236 152.255 325.382 152.141 325.491C152.027 325.6 151.878 325.665 151.721 325.673V325.673Z" fill="#D1D3D4"/>
<path d="M223.432 344.22H223.313L214.594 342.73C214.507 342.716 214.424 342.685 214.349 342.639C214.275 342.593 214.21 342.533 214.158 342.462C214.107 342.391 214.07 342.31 214.049 342.225C214.029 342.14 214.026 342.051 214.04 341.965C214.053 341.878 214.084 341.795 214.13 341.72C214.176 341.645 214.236 341.58 214.307 341.529C214.378 341.478 214.459 341.441 214.544 341.42C214.63 341.4 214.718 341.397 214.805 341.41L223.537 342.888C223.709 342.92 223.862 343.018 223.963 343.161C224.064 343.304 224.105 343.48 224.078 343.653C224.059 343.81 223.982 343.955 223.863 344.06C223.744 344.164 223.59 344.221 223.432 344.22V344.22Z" fill="#D1D3D4"/>
<path d="M245.959 324.869H245.84L237.108 323.391C236.933 323.361 236.777 323.263 236.674 323.119C236.571 322.974 236.531 322.794 236.56 322.619C236.59 322.444 236.688 322.289 236.833 322.186C236.977 322.083 237.157 322.042 237.332 322.072L246.065 323.563C246.24 323.577 246.402 323.66 246.516 323.793C246.629 323.927 246.685 324.1 246.671 324.275C246.657 324.45 246.574 324.612 246.441 324.726C246.307 324.84 246.134 324.896 245.959 324.882V324.869Z" fill="#D1D3D4"/>
<path d="M243.642 27.8791C242.313 27.8817 241.013 27.4898 239.906 26.753C238.8 26.0162 237.938 24.9677 237.428 23.7403C236.918 22.5128 236.784 21.1617 237.042 19.858C237.301 18.5543 237.941 17.3567 238.881 16.4169C239.82 15.4771 241.018 14.8373 242.322 14.5787C243.625 14.32 244.977 14.4541 246.204 14.9639C247.431 15.4738 248.48 16.3364 249.217 17.4426C249.954 18.5488 250.345 19.8488 250.343 21.1779C250.339 22.9541 249.632 24.6565 248.376 25.9125C247.12 27.1685 245.418 27.8756 243.642 27.8791V27.8791ZM243.642 15.7826C242.574 15.78 241.53 16.0942 240.641 16.6855C239.752 17.2767 239.058 18.1184 238.648 19.1041C238.237 20.0897 238.129 21.1749 238.335 22.2223C238.542 23.2698 239.055 24.2324 239.809 24.9882C240.563 25.7441 241.524 26.2592 242.571 26.4685C243.618 26.6777 244.703 26.5717 245.69 26.1637C246.677 25.7557 247.52 25.0642 248.114 24.1767C248.707 23.2892 249.024 22.2455 249.024 21.1779C249.024 19.7493 248.457 18.379 247.448 17.3675C246.439 16.3561 245.07 15.7861 243.642 15.7826Z" fill="#D1D3D4"/>
</svg>
