<svg width="350" height="236" viewBox="0 0 350 236" fill="none" xmlns="http://www.w3.org/2000/svg">
<path opacity="0.3" d="M71.8333 28.6871C38.1608 41.2559 13.1891 73.2069 8.26319 111.826C4.11505 144.378 14.0291 180.343 72.3933 190.589C185.959 210.52 292.317 216.203 319.456 162.412C346.595 108.622 338.268 16.4812 280.64 10.5183C234.824 5.77903 137.581 4.09904 71.8333 28.6871Z" fill="#E6E6E6"/>
<path opacity="0.43" d="M349.999 120.288C349.999 119.386 349.821 118.492 349.476 117.659C349.13 116.825 348.623 116.068 347.985 115.43C347.346 114.792 346.588 114.287 345.754 113.943C344.92 113.598 344.026 113.422 343.124 113.423C342.755 113.423 342.387 113.454 342.024 113.516C341.233 112.043 340.057 110.812 338.622 109.953C337.187 109.095 335.546 108.642 333.873 108.642H333.531C333.756 107.772 333.871 106.876 333.873 105.977C333.918 104.506 333.668 103.04 333.136 101.668C332.604 100.295 331.802 99.0436 330.777 97.9869C329.753 96.9302 328.526 96.0901 327.17 95.5163C325.815 94.9426 324.358 94.647 322.886 94.647C321.414 94.647 319.957 94.9426 318.601 95.5163C317.246 96.0901 316.019 96.9302 314.995 97.9869C313.97 99.0436 313.168 100.295 312.636 101.668C312.104 103.04 311.853 104.506 311.899 105.977C311.891 106.881 311.992 107.783 312.199 108.663H311.867C310.626 108.621 309.389 108.83 308.229 109.277C307.07 109.723 306.013 110.398 305.12 111.262C304.227 112.125 303.517 113.16 303.032 114.303C302.547 115.447 302.297 116.676 302.297 117.919C302.297 119.161 302.547 120.39 303.032 121.534C303.517 122.678 304.227 123.712 305.12 124.576C306.013 125.439 307.07 126.114 308.229 126.561C309.389 127.007 310.626 127.216 311.867 127.174H344.015V127.112C345.672 126.897 347.194 126.086 348.296 124.83C349.397 123.574 350.003 121.959 349.999 120.288V120.288Z" fill="#DDDBDB"/>
<path opacity="0.45" d="M166.788 235.295C256.885 235.295 329.924 230.68 329.924 224.987C329.924 219.294 256.885 214.679 166.788 214.679C76.6907 214.679 3.65234 219.294 3.65234 224.987C3.65234 230.68 76.6907 235.295 166.788 235.295Z" fill="#E6E6E6"/>
<path d="M105.443 132.515L136.378 109.265C142.883 104.378 150.798 101.736 158.934 101.736H237.748C246.099 101.723 254.322 103.788 261.676 107.746C269.03 111.703 275.283 117.428 279.872 124.405C292.607 143.85 304.004 173.509 285.618 204.06H29.8438V177.543C29.8405 172.036 31.704 166.691 35.13 162.38C38.556 158.068 43.3422 155.046 48.7074 153.805C66.4199 149.698 92.2524 142.429 105.443 132.515Z" fill="#1E71B9"/>
<path opacity="0.03" d="M119.953 189.044V165.555C119.953 162.452 121.186 159.477 123.379 157.283C125.573 155.089 128.548 153.857 131.651 153.857H244.625C249.056 153.821 253.335 155.463 256.605 158.452C259.875 161.441 261.894 165.557 262.255 169.973C262.712 174.633 261.723 179.322 259.424 183.402L246.502 189.044H119.953Z" fill="black"/>
<path d="M292.03 189.043H28.6132C26.8378 189.043 25.3984 190.483 25.3984 192.258V200.855C25.3984 202.631 26.8378 204.07 28.6132 204.07H292.03C293.805 204.07 295.245 202.631 295.245 200.855V192.258C295.245 190.483 293.805 189.043 292.03 189.043Z" fill="#1E71B9"/>
<path opacity="0.46" d="M292.03 189.043H28.6132C26.8378 189.043 25.3984 190.483 25.3984 192.258V200.855C25.3984 202.631 26.8378 204.07 28.6132 204.07H292.03C293.805 204.07 295.245 202.631 295.245 200.855V192.258C295.245 190.483 293.805 189.043 292.03 189.043Z" fill="white"/>
<path d="M266.227 225.495C279.251 225.495 289.809 214.937 289.809 201.913C289.809 188.889 279.251 178.331 266.227 178.331C253.203 178.331 242.645 188.889 242.645 201.913C242.645 214.937 253.203 225.495 266.227 225.495Z" fill="#24285B"/>
<path d="M266.228 215.602C273.788 215.602 279.917 209.473 279.917 201.913C279.917 194.353 273.788 188.224 266.228 188.224C258.668 188.224 252.539 194.353 252.539 201.913C252.539 209.473 258.668 215.602 266.228 215.602Z" fill="white"/>
<path d="M101.9 201.913C101.902 206.58 100.52 211.142 97.9288 215.023C95.3377 218.904 91.6538 221.93 87.343 223.717C83.0322 225.504 78.2882 225.973 73.711 225.064C69.1339 224.155 64.9291 221.908 61.6286 218.609C58.3281 215.31 56.0801 211.107 55.1689 206.53C54.2578 201.953 54.7244 197.209 56.5097 192.897C58.2951 188.586 61.319 184.9 65.199 182.308C69.079 179.715 73.6408 178.331 78.3074 178.331C81.4058 178.327 84.4747 178.934 87.3383 180.117C90.2018 181.301 92.8038 183.038 94.9952 185.228C97.1867 187.419 98.9245 190.02 100.109 192.883C101.294 195.746 101.903 198.814 101.9 201.913V201.913Z" fill="#24285B"/>
<path d="M78.306 215.602C85.8662 215.602 91.9949 209.473 91.9949 201.913C91.9949 194.353 85.8662 188.224 78.306 188.224C70.7459 188.224 64.6172 194.353 64.6172 201.913C64.6172 209.473 70.7459 215.602 78.306 215.602Z" fill="white"/>
<path d="M142.789 117.198L119.974 139.069C119.406 139.614 119.013 140.317 118.847 141.087C118.681 141.857 118.748 142.66 119.042 143.391C119.335 144.122 119.84 144.749 120.492 145.191C121.144 145.633 121.914 145.87 122.702 145.872H250.08C251.225 145.872 252.353 145.599 253.372 145.076C254.39 144.553 255.268 143.794 255.935 142.863C256.601 141.932 257.035 140.856 257.202 139.724C257.369 138.591 257.263 137.435 256.894 136.352L252.237 122.684C251.216 119.683 249.28 117.078 246.702 115.233C244.125 113.388 241.034 112.396 237.864 112.396H154.736C150.284 112.398 146.004 114.118 142.789 117.198Z" fill="#24285B"/>
<path d="M263.903 109.026C263.903 109.026 257.929 134.952 291.778 148.972C291.778 148.972 286.043 120.682 263.903 109.026Z" fill="#24285B"/>
<path opacity="0.03" d="M75.4058 166.529C74.8119 166.476 74.2563 166.213 73.8379 165.788C73.4194 165.363 73.1652 164.804 73.1204 164.209C73.0756 163.614 73.2432 163.023 73.5933 162.54C73.9434 162.058 74.4533 161.715 75.0325 161.572C80.9057 160.032 87.1102 160.333 92.8072 162.433C98.3649 164.402 103.352 167.711 107.326 172.067C107.963 172.789 108.396 173.667 108.582 174.611C108.768 175.556 108.698 176.533 108.382 177.442C108.065 178.351 107.512 179.159 106.78 179.783C106.047 180.408 105.162 180.827 104.215 180.996C103.08 181.207 101.907 181.053 100.865 180.556C99.8235 180.058 98.9665 179.243 98.4176 178.227C96.3227 174.214 90.6294 168.064 75.4058 166.529Z" fill="black"/>
<path d="M185.08 109.026L182.539 152.913H205.364L198.012 109.026H185.08Z" fill="#1E71B9"/>
<path d="M257.92 181.079H119.953V183.402H257.92V181.079Z" fill="#24285B"/>
<path d="M158.208 153.857H147.662C146.058 153.857 144.758 155.157 144.758 156.761V157.694C144.758 159.298 146.058 160.598 147.662 160.598H158.208C159.812 160.598 161.112 159.298 161.112 157.694V156.761C161.112 155.157 159.812 153.857 158.208 153.857Z" fill="white"/>
<path d="M249.626 153.857H239.079C237.476 153.857 236.176 155.157 236.176 156.761V157.694C236.176 159.298 237.476 160.598 239.079 160.598H249.626C251.23 160.598 252.53 159.298 252.53 157.694V156.761C252.53 155.157 251.23 153.857 249.626 153.857Z" fill="white"/>
<path opacity="0.16" d="M220.07 112.396L226.925 145.872H244.482L234.278 112.396H220.07Z" fill="#BED9F4"/>
<path opacity="0.16" d="M154.84 112.396L161.684 145.872H179.241L169.037 112.396H154.84Z" fill="#BED9F4"/>
<path d="M134.961 134.506H123.087C120.155 134.506 117.777 136.883 117.777 139.815V141.506C117.777 144.438 120.155 146.815 123.087 146.815H134.961C137.893 146.815 140.271 144.438 140.271 141.506V139.815C140.271 136.883 137.893 134.506 134.961 134.506Z" fill="#1E71B9"/>
<path opacity="0.46" d="M134.961 134.506H123.087C120.155 134.506 117.777 136.883 117.777 139.815V141.506C117.777 144.438 120.155 146.815 123.087 146.815H134.961C137.893 146.815 140.271 144.438 140.271 141.506V139.815C140.271 136.883 137.893 134.506 134.961 134.506Z" fill="white"/>
<path d="M34.7713 162.858H52.9401C53.4718 162.856 53.9942 162.997 54.4524 163.267C54.9105 163.537 55.2874 163.926 55.5433 164.392C55.7991 164.858 55.9245 165.384 55.9063 165.916C55.888 166.447 55.7267 166.964 55.4394 167.411L50.5964 174.961C49.935 175.994 49.024 176.845 47.9475 177.434C46.871 178.023 45.6635 178.331 44.4364 178.331H29.918V176.412C29.9165 171.456 31.6605 166.657 34.8439 162.858H34.7713Z" fill="white"/>
<path d="M273.185 74.358C284.628 74.358 293.905 65.0814 293.905 53.6381C293.905 42.1948 284.628 32.9182 273.185 32.9182C261.741 32.9182 252.465 42.1948 252.465 53.6381C252.465 65.0814 261.741 74.358 273.185 74.358Z" fill="#FFD200"/>
<path opacity="0.15" d="M273.187 86.0245C291.074 86.0245 305.574 71.5246 305.574 53.638C305.574 35.7514 291.074 21.2515 273.187 21.2515C255.301 21.2515 240.801 35.7514 240.801 53.638C240.801 71.5246 255.301 86.0245 273.187 86.0245Z" fill="#FFD200"/>
<path d="M178.546 39.1196C178.543 36.3361 177.437 33.6672 175.47 31.698C173.502 29.7288 170.835 28.6199 168.051 28.6144C167.485 28.6202 166.92 28.6688 166.361 28.7596C165.153 26.509 163.358 24.6274 161.167 23.3147C158.976 22.0019 156.471 21.3068 153.916 21.3033H153.408C153.742 19.9703 153.912 18.6019 153.916 17.2278C153.972 14.9858 153.579 12.7553 152.759 10.6677C151.94 8.58009 150.711 6.67756 149.145 5.07216C147.579 3.46676 145.707 2.19095 143.641 1.31985C141.574 0.44876 139.354 0 137.111 0C134.868 0 132.648 0.44876 130.582 1.31985C128.515 2.19095 126.644 3.46676 125.078 5.07216C123.512 6.67756 122.283 8.58009 121.463 10.6677C120.644 12.7553 120.25 14.9858 120.306 17.2278C120.308 18.6026 120.483 19.9717 120.825 21.3033C120.648 21.3033 120.482 21.3033 120.306 21.3033C116.617 21.4032 113.112 22.9389 110.538 25.5837C107.964 28.2284 106.523 31.7734 106.523 35.464C106.523 39.1547 107.964 42.6996 110.538 45.3444C113.112 47.9891 116.617 49.5249 120.306 49.6247H169.451V49.5521C171.973 49.2083 174.284 47.9615 175.957 46.043C177.629 44.1246 178.549 41.6647 178.546 39.1196V39.1196Z" fill="#EFEFEF"/>
<path d="M47.3717 110.374C47.3744 109.469 47.1986 108.573 46.8543 107.737C46.51 106.9 46.0039 106.14 45.3652 105.499C44.7265 104.858 43.9676 104.35 43.1321 104.003C42.2966 103.656 41.4008 103.478 40.4961 103.478C40.1245 103.482 39.7537 103.513 39.3865 103.571C38.5945 102.099 37.4185 100.868 35.9834 100.01C34.5482 99.1515 32.9076 98.6979 31.2354 98.6971H30.8932C31.1186 97.8266 31.2336 96.9311 31.2354 96.0319C31.1477 93.1763 29.9516 90.467 27.9007 88.4781C25.8497 86.4892 23.105 85.377 20.2481 85.377C17.3911 85.377 14.6464 86.4892 12.5955 88.4781C10.5445 90.467 9.34845 93.1763 9.26071 96.0319C9.26432 96.9304 9.37573 97.8252 9.59256 98.6971H9.26071C6.80461 98.6971 4.44912 99.6728 2.7124 101.409C0.975678 103.146 0 105.502 0 107.958C0 110.414 0.975678 112.769 2.7124 114.506C4.44912 116.243 6.80461 117.218 9.26071 117.218H41.4087V117.156C43.053 116.934 44.5617 116.125 45.6573 114.879C46.7529 113.633 47.3616 112.033 47.3717 110.374V110.374Z" fill="#DDDBDB"/>
</svg>
