<svg width="324" height="350" viewBox="0 0 324 350" fill="none" xmlns="http://www.w3.org/2000/svg">
<path d="M148.107 350C229.904 350 296.214 341.298 296.214 330.564C296.214 319.829 229.904 311.127 148.107 311.127C66.3098 311.127 0 319.829 0 330.564C0 341.298 66.3098 350 148.107 350Z" fill="#D1D3D4"/>
<path d="M137.559 127.408C137.559 127.408 123.423 129.107 118.232 129.449C113.041 129.791 107.685 133.558 106.809 134.298C105.932 135.037 101.796 140.872 103.179 145.365C104.562 149.858 110.274 154.186 112.699 154.529C115.123 154.871 134.518 145.091 138.846 141.626L137.559 127.408Z" fill="white"/>
<path d="M112.782 155.213H112.604C109.796 154.816 103.92 150.132 102.509 145.625C100.975 140.639 105.522 134.489 106.372 133.791C106.372 133.791 112.275 129.189 118.192 128.805C123.301 128.463 137.368 126.778 137.478 126.764C137.571 126.753 137.665 126.76 137.755 126.786C137.845 126.812 137.929 126.855 138.001 126.914C138.074 126.973 138.135 127.046 138.179 127.128C138.223 127.211 138.25 127.301 138.258 127.394L139.546 141.626C139.559 141.742 139.542 141.86 139.496 141.968C139.451 142.076 139.378 142.17 139.286 142.242C135.272 145.379 116.288 155.213 112.782 155.213ZM136.916 128.161C133.958 128.517 122.753 129.832 118.274 130.134C113.795 130.435 108.686 133.695 107.317 134.818C106.673 135.325 102.619 140.913 103.92 145.132C105.221 149.351 110.631 153.487 112.85 153.802C115.069 154.117 133.273 144.968 138.163 141.283L136.916 128.161Z" fill="#231F20"/>
<path d="M105.222 146.337C105.222 146.337 114.687 154.556 117.796 154.638C120.905 154.72 119.166 151.515 119.166 151.515C119.166 151.515 122.152 153.857 122.672 151.912C123.193 149.967 122.535 149.173 122.535 149.173C122.535 149.173 125.001 152.542 125.658 150.077C126.316 147.611 125.918 146.83 125.918 146.83C125.918 146.83 127.863 150.734 128.767 148.008C129.671 145.283 124.357 135.681 119.042 131.133C119.042 131.133 125.261 131.791 125.781 129.586C126.302 127.38 120.727 126.463 118.385 126.339C116.043 126.216 111.536 129.188 107.496 129.586C104.026 129.731 100.551 129.557 97.1133 129.065L97.6338 144.132L105.222 146.337Z" fill="white"/>
<path d="M117.97 155.35H117.764C114.6 155.227 106.286 148.2 104.875 146.981L97.3691 144.817C97.2229 144.779 97.0931 144.694 96.9993 144.575C96.9054 144.457 96.8526 144.311 96.8486 144.16L96.3281 129.093C96.3274 128.988 96.3477 128.885 96.3877 128.788C96.4277 128.692 96.4866 128.604 96.561 128.531C96.6406 128.466 96.7327 128.418 96.8316 128.389C96.9306 128.361 97.0343 128.353 97.1363 128.367C100.52 128.846 103.94 129.015 107.354 128.874C109.457 128.538 111.503 127.916 113.436 127.024C114.973 126.26 116.642 125.795 118.353 125.655C118.422 125.655 124.448 126.025 126.037 128.148C126.216 128.374 126.342 128.639 126.403 128.922C126.465 129.204 126.462 129.497 126.393 129.778C125.955 131.654 122.955 131.969 120.914 131.969C125.818 136.941 130.366 145.406 129.42 148.255C129.119 149.173 128.626 149.625 127.982 149.707C127.723 149.702 127.467 149.643 127.232 149.534C126.996 149.426 126.785 149.27 126.612 149.077C126.612 149.433 126.462 149.83 126.352 150.282C126.078 151.309 125.517 151.652 125.092 151.652C124.815 151.681 124.535 151.654 124.269 151.571C124.003 151.489 123.756 151.353 123.544 151.173C123.501 151.472 123.441 151.769 123.366 152.063C123.31 152.34 123.182 152.598 122.995 152.809C122.807 153.021 122.567 153.179 122.298 153.268C121.658 153.427 120.982 153.349 120.394 153.049C120.463 153.524 120.366 154.007 120.12 154.419C119.884 154.759 119.558 155.027 119.178 155.191C118.798 155.356 118.379 155.411 117.97 155.35V155.35ZM98.2458 143.584L105.409 145.653C105.507 145.681 105.597 145.732 105.67 145.803C109.409 149.022 115.723 153.843 117.819 153.926C118.353 153.926 118.723 153.857 118.833 153.665C118.942 153.474 118.723 152.296 118.476 151.871C118.401 151.728 118.377 151.564 118.407 151.405C118.437 151.247 118.52 151.103 118.643 150.998C118.766 150.893 118.92 150.833 119.082 150.827C119.243 150.821 119.401 150.871 119.531 150.967C120.153 151.525 120.934 151.874 121.764 151.967C121.764 151.967 121.86 151.967 121.914 151.734C122.183 151.057 122.183 150.302 121.914 149.625V149.625C121.805 149.477 121.757 149.292 121.783 149.11C121.809 148.928 121.905 148.764 122.051 148.652C122.197 148.543 122.379 148.493 122.559 148.514C122.74 148.534 122.906 148.623 123.024 148.762V148.762C123.445 149.407 124.032 149.927 124.722 150.269C124.784 150.145 124.834 150.017 124.873 149.885C125.193 149.009 125.291 148.068 125.161 147.146C125.119 147.063 125.095 146.973 125.089 146.881C125.083 146.789 125.096 146.697 125.127 146.61C125.157 146.523 125.205 146.443 125.268 146.375C125.33 146.307 125.405 146.252 125.489 146.214C125.66 146.133 125.856 146.122 126.036 146.184C126.215 146.245 126.363 146.374 126.448 146.543C126.748 147.23 127.22 147.829 127.818 148.282C127.897 148.127 127.965 147.967 128.023 147.803C128.749 145.653 123.914 136.352 118.504 131.709C118.388 131.61 118.308 131.477 118.273 131.329C118.239 131.182 118.252 131.027 118.312 130.887C118.372 130.748 118.475 130.633 118.606 130.556C118.736 130.48 118.888 130.447 119.038 130.462C121.394 130.709 124.777 130.462 125.024 129.449C125.042 129.37 125.041 129.288 125.022 129.21C125.003 129.132 124.966 129.059 124.914 128.997C124.079 127.887 120.462 127.189 118.271 127.079C116.772 127.248 115.315 127.684 113.97 128.367C111.911 129.311 109.73 129.966 107.491 130.312C104.249 130.48 100.997 130.343 97.7801 129.901L98.2458 143.584Z" fill="#231F20"/>
<path d="M127.928 128.778C125.94 128.696 123.949 128.75 121.969 128.942C118.381 129.284 114.518 130.312 112.313 133.133C112.169 133.279 112.064 133.457 112.007 133.653C111.949 133.849 111.942 134.057 111.984 134.257C112.148 134.654 112.642 134.777 113.052 134.845C116.023 135.306 119.043 135.343 122.024 134.955C122.429 134.852 122.852 134.852 123.257 134.955C123.567 135.095 123.85 135.29 124.092 135.53C125.274 136.51 126.738 137.086 128.27 137.174" fill="white"/>
<path d="M128.271 137.845C126.581 137.759 124.966 137.124 123.669 136.037L123.546 135.941C123.396 135.797 123.225 135.677 123.039 135.585C122.751 135.517 122.451 135.517 122.162 135.585C119.109 135.987 116.014 135.95 112.972 135.476C112.64 135.458 112.319 135.355 112.039 135.177C111.758 135 111.528 134.754 111.369 134.462C111.263 134.148 111.245 133.811 111.317 133.487C111.39 133.163 111.55 132.866 111.78 132.627C113.725 130.093 117.053 128.641 121.93 128.175C123.942 127.984 125.964 127.929 127.984 128.011C128.075 128.014 128.166 128.036 128.249 128.074C128.332 128.113 128.407 128.167 128.47 128.235C128.532 128.302 128.581 128.381 128.612 128.467C128.644 128.553 128.659 128.645 128.655 128.737C128.638 128.922 128.553 129.095 128.416 129.221C128.28 129.348 128.101 129.419 127.915 129.422C125.965 129.342 124.011 129.392 122.067 129.572C117.601 130.011 114.602 131.284 112.903 133.49C112.67 133.805 112.67 133.928 112.67 133.928C112.67 133.928 112.753 134.01 113.191 134.079C116.093 134.533 119.045 134.57 121.957 134.188C122.473 134.052 123.016 134.052 123.532 134.188C123.879 134.333 124.195 134.542 124.464 134.805C125.55 135.735 126.912 136.284 128.34 136.366C128.528 136.38 128.702 136.467 128.828 136.607C128.953 136.748 129.019 136.931 129.011 137.119C129.013 137.216 128.995 137.313 128.958 137.403C128.922 137.493 128.867 137.574 128.798 137.642C128.729 137.71 128.646 137.763 128.556 137.798C128.465 137.833 128.368 137.849 128.271 137.845V137.845Z" fill="#231F20"/>
<path d="M257.08 314.141C257.08 314.141 258.19 321.345 256.533 324.112C254.875 326.879 253.382 330.399 252.656 336.864C253.983 338.348 255.602 339.54 257.413 340.365C259.224 341.19 261.186 341.63 263.176 341.658C269.832 341.658 276.476 336.673 277.215 334.276C277.955 331.879 271.86 306.388 271.86 306.388L257.08 314.141Z" fill="white"/>
<path d="M263.179 342.371C261.081 342.344 259.011 341.879 257.103 341.007C255.195 340.134 253.49 338.872 252.098 337.303C251.988 337.152 251.935 336.968 251.947 336.782C252.741 329.81 254.413 326.276 255.919 323.756C257.179 321.661 256.686 316.182 256.385 314.25C256.364 314.104 256.388 313.955 256.454 313.823C256.52 313.691 256.625 313.582 256.755 313.511L271.534 305.758C271.63 305.711 271.735 305.687 271.842 305.687C271.949 305.687 272.054 305.711 272.15 305.758C272.25 305.8 272.339 305.866 272.408 305.949C272.477 306.033 272.525 306.132 272.548 306.238C273.575 310.525 278.656 332.029 277.889 334.495C277.122 336.96 270.151 342.371 263.179 342.371ZM253.385 336.631C254.649 337.966 256.166 339.036 257.847 339.779C259.528 340.523 261.341 340.924 263.179 340.96C269.562 340.96 275.931 336.056 276.547 334.111C276.972 332.742 274.246 319.51 271.383 307.47L257.851 314.579C258.083 316.305 258.659 321.976 257.138 324.523C255.618 327.071 254.166 330.125 253.385 336.631V336.631Z" fill="#231F20"/>
<path d="M211.123 157.24L243.147 166.102L250.598 68.8528C250.598 68.8528 221.355 73.6605 214.986 76.6054C208.616 79.5502 211.123 157.24 211.123 157.24Z" fill="white"/>
<path d="M243.149 166.815H242.957L210.947 157.953C210.801 157.912 210.673 157.827 210.579 157.709C210.486 157.591 210.432 157.446 210.426 157.295C210.426 157.103 209.782 137.626 209.933 118.039C210.248 78.0026 213.439 76.5233 214.645 75.9754C221.069 73.0031 249.285 68.3598 250.477 68.1544C250.583 68.1348 250.692 68.1402 250.796 68.17C250.9 68.1999 250.995 68.2534 251.075 68.3264C251.155 68.3995 251.216 68.4899 251.255 68.5908C251.294 68.6917 251.309 68.8001 251.298 68.9077L243.847 166.157C243.841 166.263 243.81 166.367 243.758 166.459C243.706 166.552 243.633 166.631 243.546 166.691C243.429 166.773 243.291 166.816 243.149 166.815ZM211.823 156.693L242.505 165.198L249.819 69.6747C244.888 70.5103 220.863 74.6331 215.247 77.2219C211.385 79.0162 210.59 119.395 211.823 156.693V156.693Z" fill="#231F20"/>
<path d="M221.754 303.923V325.592L211.413 328.55L211.66 324.112L207.03 328.756C207.03 328.756 179.239 333.742 179.376 330.043C179.512 326.345 182.334 324.318 185.841 322.469C189.607 320.496 199.538 314.894 199.538 314.894L201.017 299.019" fill="white"/>
<path d="M184.544 332.139C181.955 332.139 179.969 331.879 179.202 331.207C179.029 331.071 178.892 330.896 178.801 330.696C178.711 330.495 178.67 330.276 178.682 330.057C178.846 325.948 182.065 323.701 185.53 321.839C188.996 319.976 197.132 315.428 198.858 314.456L200.309 298.937C200.301 298.835 200.314 298.733 200.349 298.637C200.384 298.541 200.44 298.454 200.512 298.382C200.584 298.309 200.672 298.254 200.768 298.219C200.864 298.184 200.966 298.171 201.068 298.18C201.17 298.189 201.268 298.221 201.357 298.272C201.445 298.324 201.521 298.394 201.579 298.478C201.637 298.561 201.677 298.657 201.694 298.758C201.711 298.858 201.706 298.962 201.679 299.06L200.227 315.059C200.215 315.171 200.176 315.28 200.114 315.375C200.053 315.47 199.969 315.549 199.871 315.606C199.762 315.606 189.913 321.236 186.174 323.195C182.435 325.153 180.216 326.975 180.093 330.166C180.846 331.536 192.995 330.632 206.692 328.194L211.212 323.674C211.309 323.569 211.438 323.498 211.578 323.471C211.718 323.444 211.864 323.462 211.993 323.523C212.125 323.581 212.236 323.678 212.312 323.8C212.387 323.922 212.424 324.065 212.418 324.208L212.226 327.646L221.102 325.112V303.923C221.071 303.817 221.066 303.705 221.086 303.597C221.106 303.488 221.152 303.386 221.218 303.298C221.284 303.21 221.37 303.139 221.469 303.09C221.568 303.04 221.676 303.015 221.787 303.015C221.897 303.015 222.006 303.04 222.104 303.09C222.203 303.139 222.289 303.21 222.355 303.298C222.422 303.386 222.467 303.488 222.487 303.597C222.507 303.705 222.502 303.817 222.471 303.923V325.592C222.47 325.745 222.42 325.893 222.329 326.016C222.238 326.139 222.11 326.23 221.965 326.276L211.61 329.221C211.502 329.253 211.389 329.258 211.28 329.236C211.17 329.215 211.067 329.167 210.98 329.098C210.891 329.029 210.821 328.939 210.776 328.836C210.73 328.733 210.711 328.621 210.719 328.509L210.856 325.92L207.487 329.29C207.389 329.396 207.259 329.468 207.117 329.495C204.09 330.043 191.886 332.139 184.544 332.139Z" fill="#231F20"/>
<path d="M271.476 165.979L280.174 312.662C280.174 312.662 279.352 318.675 266.299 319.415C253.245 320.154 254.56 317.1 254.56 317.1L234.015 214.262L225.632 310.059L197.457 311.799L203.059 154.282L271.476 165.979Z" fill="#231F20"/>
<path d="M262.588 320.209C257.89 320.209 255.055 319.565 254.151 318.264C253.906 317.918 253.803 317.492 253.863 317.072L234.304 219.069L226.346 310.114C226.333 310.279 226.26 310.434 226.142 310.55C226.023 310.666 225.867 310.735 225.702 310.744L197.527 312.484C197.335 312.491 197.148 312.422 197.006 312.292C196.872 312.152 196.799 311.965 196.801 311.771L202.403 154.254C202.408 154.158 202.433 154.064 202.478 153.979C202.523 153.894 202.586 153.819 202.663 153.761C202.735 153.698 202.821 153.652 202.913 153.625C203.006 153.599 203.103 153.594 203.197 153.611L271.587 165.349C271.739 165.374 271.877 165.45 271.979 165.565C272.082 165.679 272.141 165.826 272.149 165.979L280.86 312.662C280.86 313.059 279.792 319.373 266.341 320.14C264.971 320.168 263.725 320.209 262.588 320.209ZM255.192 317.346C255.231 317.419 255.277 317.487 255.329 317.552C255.794 318.072 257.78 319.209 266.286 318.73C277.86 318.086 279.381 313.182 279.518 312.621L270.847 166.568L203.732 155.049L198.253 311.073L225.085 309.415L233.413 214.193C233.427 214.029 233.499 213.876 233.618 213.763C233.737 213.649 233.893 213.583 234.057 213.577C234.22 213.567 234.381 213.618 234.51 213.719C234.638 213.82 234.726 213.964 234.756 214.125L255.301 316.963C255.342 317.092 255.342 317.231 255.301 317.36L255.192 317.346Z" fill="#231F20"/>
<path d="M245.615 65.8669C245.615 65.8669 234.52 168.445 239.451 174.855C244.382 181.265 266.42 189.744 276.269 181.868C286.117 173.992 274.05 81.2625 269.694 74.3729C262.071 70.5038 253.976 67.6444 245.615 65.8669Z" fill="#1E71B9"/>
<path d="M286.775 199.277C286.775 199.277 285.405 190.525 286.186 189.689C286.967 188.853 306.553 188.319 308.101 188.497C309.649 188.675 309.909 197.784 309.909 197.784L306.992 198.072C306.992 198.072 307.307 192.141 306.225 191.881C305.143 191.62 289.24 192.1 289.24 192.1L290.09 199.25L286.775 199.277Z" fill="#231F20"/>
<path d="M286.777 200.003C286.615 200.002 286.459 199.943 286.336 199.838C286.213 199.733 286.132 199.587 286.106 199.428C285.147 193.387 285.01 189.976 285.709 189.264C286.928 188.032 308.021 187.895 308.227 187.895C309.706 188.004 310.528 191.36 310.665 197.852C310.663 198.023 310.6 198.188 310.487 198.316C310.373 198.445 310.218 198.528 310.048 198.551L307.131 198.839C307.033 198.847 306.935 198.834 306.843 198.801C306.751 198.768 306.667 198.715 306.597 198.647C306.523 198.582 306.465 198.502 306.427 198.412C306.389 198.322 306.372 198.224 306.378 198.126C306.564 196.294 306.448 194.443 306.035 192.647C304.761 192.51 295.968 192.647 290.064 192.88L290.831 199.291C290.842 199.386 290.833 199.483 290.805 199.575C290.777 199.667 290.73 199.752 290.667 199.825C290.605 199.898 290.527 199.957 290.439 199.998C290.352 200.038 290.257 200.058 290.16 200.058H286.777V200.003ZM286.695 190.264C286.617 193.07 286.842 195.876 287.366 198.633H289.393L288.626 192.25C288.617 192.157 288.627 192.063 288.655 191.973C288.684 191.884 288.729 191.801 288.79 191.73C288.85 191.656 288.925 191.597 289.01 191.557C289.096 191.517 289.189 191.496 289.283 191.497C291.954 191.415 305.35 191.004 306.46 191.278C306.843 191.374 307.994 191.648 307.829 197.387L309.336 197.236C309.199 193.236 308.651 189.634 308.076 189.209C306.364 189.045 288.873 189.566 286.695 190.223V190.264Z" fill="#231F20"/>
<path d="M290.939 176.636C289.344 179.259 288.036 182.047 287.036 184.95C286.59 186.477 286.633 188.105 287.159 189.607L291.72 188.867C291.72 188.867 291.049 197.77 292.473 197.77C293.898 197.77 296.117 198.853 295.98 191.977C295.98 191.977 296.596 194.606 298.925 193.579C300.215 193.079 301.261 192.096 301.842 190.84C301.842 190.84 303.883 194.154 305.951 190.511C308.02 186.868 304.65 176.554 304.65 176.554L304.321 171.595L290.364 171.979L290.939 176.636Z" fill="white"/>
<path d="M293.599 198.537C293.366 198.537 293.147 198.537 292.941 198.537H292.475C292.175 198.526 291.89 198.398 291.681 198.181C290.667 197.099 290.791 192.469 290.955 189.771L287.284 190.36C287.134 190.385 286.98 190.361 286.845 190.292C286.709 190.223 286.599 190.112 286.531 189.976C285.927 188.331 285.865 186.537 286.353 184.854C287.323 181.946 288.619 179.157 290.215 176.54L289.709 172.129C289.697 172.031 289.705 171.932 289.733 171.838C289.762 171.744 289.809 171.656 289.873 171.581C290.007 171.433 290.194 171.345 290.393 171.335L304.351 170.965C304.693 170.883 305.049 171.239 305.077 171.622L305.392 176.485C305.748 177.567 308.761 187.182 306.597 190.922C305.816 192.291 304.912 192.976 303.858 192.99C303.493 192.989 303.131 192.914 302.797 192.768C302.462 192.622 302.161 192.408 301.913 192.141C301.208 193.089 300.262 193.832 299.173 194.291C298.81 194.473 298.409 194.568 298.002 194.568C297.596 194.568 297.195 194.473 296.831 194.291L296.598 194.168C296.654 195.523 296.205 196.85 295.338 197.893C294.864 198.326 294.24 198.557 293.599 198.537V198.537ZM292.654 197.058H293.064C293.695 197.058 294.105 197.058 294.434 196.825C294.763 196.592 295.352 195.25 295.283 191.962C295.282 191.787 295.346 191.617 295.462 191.486C295.578 191.354 295.739 191.27 295.913 191.25C296.085 191.229 296.258 191.272 296.399 191.37C296.541 191.469 296.641 191.616 296.681 191.784C296.801 192.275 297.099 192.704 297.516 192.99C297.7 193.059 297.897 193.087 298.093 193.073C298.29 193.058 298.48 193.002 298.653 192.908C299.774 192.493 300.685 191.65 301.187 190.565C301.236 190.443 301.317 190.337 301.422 190.258C301.527 190.178 301.652 190.129 301.783 190.115C301.913 190.101 302.046 190.122 302.165 190.178C302.285 190.233 302.387 190.32 302.461 190.428C302.625 190.716 303.255 191.483 303.83 191.483C304.406 191.483 304.967 190.743 305.323 190.113C306.926 187.374 304.885 179.512 303.954 176.731C303.946 176.672 303.946 176.612 303.954 176.553L303.666 172.28L291.161 172.622L291.599 176.512C291.615 176.665 291.581 176.818 291.503 176.95C289.951 179.518 288.67 182.24 287.681 185.073C287.367 186.283 287.343 187.55 287.613 188.771L291.558 188.127C291.663 188.107 291.772 188.112 291.874 188.143C291.977 188.174 292.071 188.23 292.147 188.305C292.226 188.377 292.289 188.467 292.329 188.566C292.369 188.666 292.387 188.773 292.38 188.881C292.174 192.278 292.215 196.236 292.654 197.058Z" fill="#231F20"/>
<path d="M276.873 200.085L268.176 201.14L271.997 245.176L281.311 245.943L276.873 200.085Z" fill="white"/>
<path d="M281.31 246.641L271.996 245.888C271.83 245.875 271.673 245.804 271.555 245.685C271.437 245.567 271.365 245.411 271.353 245.244L267.531 201.194C267.522 201.104 267.53 201.013 267.556 200.927C267.582 200.84 267.625 200.759 267.682 200.689C267.739 200.619 267.81 200.561 267.89 200.518C267.97 200.476 268.057 200.45 268.147 200.441L276.845 199.373C277.031 199.36 277.215 199.414 277.366 199.523C277.44 199.584 277.501 199.659 277.546 199.743C277.591 199.828 277.618 199.921 277.626 200.016L282.023 245.874C282.034 245.972 282.025 246.071 281.995 246.165C281.965 246.259 281.915 246.345 281.849 246.418C281.783 246.491 281.702 246.548 281.611 246.587C281.52 246.625 281.422 246.644 281.324 246.641H281.31ZM272.654 244.518L280.53 245.162L276.242 200.866L268.942 201.756L272.654 244.518Z" fill="#231F20"/>
<path d="M276.874 200.085C276.668 200.687 281.312 245.943 281.312 245.943L322.965 241.656L320.157 197.414L276.874 200.085Z" fill="white"/>
<path d="M281.31 246.641C281.148 246.639 280.99 246.587 280.858 246.491C280.719 246.367 280.631 246.196 280.612 246.011C275.955 200.605 276.133 200.044 276.201 199.866C276.241 199.728 276.324 199.606 276.437 199.517C276.55 199.429 276.688 199.378 276.831 199.372L320.114 196.702C320.301 196.69 320.485 196.753 320.626 196.876C320.767 196.999 320.854 197.172 320.868 197.359L323.676 241.614C323.687 241.795 323.628 241.974 323.51 242.112C323.393 242.25 323.226 242.337 323.046 242.354L281.379 246.641H281.31ZM277.598 200.742C277.872 204.851 280.256 228.671 281.94 245.162L322.224 241.053L319.484 198.181L277.598 200.742Z" fill="#231F20"/>
<path d="M287.01 216.042C286.893 216.042 286.779 216.013 286.676 215.958C286.573 215.903 286.486 215.824 286.421 215.727L276.285 200.468C276.208 200.313 276.19 200.135 276.235 199.968C276.281 199.8 276.385 199.655 276.53 199.559C276.674 199.463 276.849 199.423 277.021 199.447C277.192 199.471 277.35 199.556 277.463 199.688L287.366 214.59L313.815 212.522L319.499 197.167C319.53 197.08 319.578 196.999 319.64 196.93C319.702 196.861 319.778 196.805 319.862 196.765C319.946 196.725 320.037 196.703 320.13 196.699C320.223 196.696 320.316 196.71 320.403 196.743C320.492 196.775 320.573 196.824 320.642 196.888C320.711 196.951 320.767 197.028 320.807 197.113C320.846 197.199 320.868 197.291 320.872 197.385C320.876 197.479 320.861 197.572 320.828 197.661L314.979 213.426C314.933 213.553 314.852 213.664 314.745 213.746C314.639 213.829 314.511 213.879 314.376 213.892L287.064 216.042H287.01Z" fill="#231F20"/>
<path d="M303.716 210.59L299.699 211.03L300.58 219.077L304.597 218.637L303.716 210.59Z" fill="#D1D3D4"/>
<path d="M201.279 74.7425C201.279 74.7425 189.458 179.279 192.417 182.238C195.375 185.196 208.429 181.498 212.853 178.539C217.277 175.581 223.728 67.1406 223.728 67.1406C223.728 67.1406 207.689 69.3185 201.279 74.7425Z" fill="#1E71B9"/>
<path d="M201.279 74.7426C201.279 74.7426 180.322 118.573 170.433 121.655C155.654 126.271 134.82 125.901 134.82 125.901L136.491 148.063C136.491 148.063 163.338 151.816 178.596 147.885C193.855 143.954 210.182 121.778 210.182 121.778L201.279 74.7426Z" fill="#1E71B9"/>
<path d="M227.211 82.18L230.101 86.3714L219.691 148.871L226.348 157.364L234.84 149.981L232.991 87.0562L236.251 82.4951L232.128 79.5365L227.211 82.18Z" fill="#D1D3D4"/>
<path d="M193.155 154.131H193.087C192.901 154.111 192.731 154.019 192.611 153.877C192.491 153.734 192.431 153.55 192.443 153.364C193.415 141.681 197.826 94.2338 197.922 93.7544C197.977 93.6075 198.079 93.4829 198.213 93.4001C198.346 93.3173 198.503 93.2809 198.659 93.2965C198.815 93.3121 198.962 93.3789 199.076 93.4865C199.191 93.5941 199.266 93.7364 199.291 93.8914C199.291 94.3708 194.84 141.831 193.813 153.488C193.8 153.656 193.726 153.815 193.605 153.933C193.484 154.051 193.324 154.122 193.155 154.131V154.131Z" fill="#231F20"/>
<path d="M224.497 59.032L222.894 72.5236C222.894 72.5236 223.921 78.8928 233.194 77.8655C242.467 76.8382 244.59 70.8115 244.59 70.8115L246.672 45.554C246.672 45.554 241.495 40.9929 245.303 26.7616C245.303 26.7616 230.866 29.2681 217.703 25.8575C217.703 25.8575 215.429 42.2941 215.621 49.3344C215.813 56.3747 224.497 59.032 224.497 59.032Z" fill="white"/>
<path d="M231.343 78.6873C223.343 78.6873 222.289 72.7017 222.275 72.6332V72.4414L223.809 59.5251C221.796 58.7854 215.18 55.8679 215.002 49.3481C214.796 42.2667 216.988 26.4328 217.084 25.7616C217.098 25.6634 217.133 25.5695 217.188 25.4866C217.242 25.4037 217.314 25.3339 217.399 25.2822C217.479 25.2246 217.571 25.1849 217.668 25.166C217.765 25.1471 217.864 25.1494 217.96 25.1727C230.795 28.5148 245.04 26.0493 245.245 26.0493C245.36 26.0277 245.479 26.0366 245.589 26.075C245.7 26.1135 245.798 26.1801 245.875 26.2684C245.957 26.3543 246.016 26.4601 246.044 26.5754C246.073 26.6907 246.072 26.8115 246.04 26.9259C242.382 40.623 247.135 44.965 247.19 45.0061C247.27 45.0809 247.332 45.1726 247.373 45.2744C247.413 45.3763 247.43 45.4858 247.423 45.5951L245.341 70.8526C245.355 70.9111 245.355 70.9721 245.341 71.0306C245.259 71.2909 242.971 77.482 233.37 78.5504C232.697 78.635 232.02 78.6807 231.343 78.6873V78.6873ZM223.7 72.4962C223.85 73.2222 225.22 77.9751 233.192 77.167C241.41 76.2492 243.684 71.3594 243.971 70.6471L246.012 45.8142C244.985 44.65 241.478 39.6505 244.437 27.6245C240.917 28.1039 229.261 29.364 218.412 26.7341C217.96 30.0762 216.262 43.1707 216.44 49.307C216.618 55.8131 224.658 58.3334 224.809 58.3608C224.967 58.41 225.103 58.5115 225.195 58.6485C225.287 58.7854 225.33 58.9497 225.316 59.1141L223.7 72.4962Z" fill="#231F20"/>
<path d="M242.549 44.2939C243.017 43.0979 243.858 42.0844 244.946 41.4038C245.988 40.8198 247.124 40.4212 248.302 40.2259C248.935 40.0466 249.599 40.0092 250.247 40.1163C250.689 40.2481 251.103 40.4618 251.466 40.7464C252.379 41.3469 253.045 42.2562 253.343 43.3077C253.481 44.1702 253.41 45.0531 253.137 45.8828C252.909 46.8105 252.559 47.704 252.096 48.54C251.615 49.3613 250.975 50.0786 250.214 50.6503C249.453 51.2219 248.586 51.6364 247.663 51.8697C246.74 52.1029 245.78 52.1503 244.839 52.009C243.897 51.8677 242.993 51.5405 242.18 51.0466" fill="white"/>
<path d="M245.904 52.7861C244.457 52.7894 243.036 52.3962 241.795 51.6493C241.638 51.5528 241.524 51.3977 241.481 51.218C241.437 51.0383 241.466 50.8485 241.562 50.6905C241.609 50.6093 241.672 50.5384 241.746 50.4818C241.821 50.4253 241.906 50.3843 241.997 50.3613C242.087 50.3383 242.182 50.3338 242.274 50.348C242.367 50.3621 242.455 50.3948 242.535 50.4439C243.268 50.8884 244.082 51.1827 244.93 51.3096C245.778 51.4366 246.642 51.3937 247.473 51.1833C248.304 50.973 249.085 50.5995 249.771 50.0846C250.456 49.5697 251.032 48.9236 251.466 48.1839C251.902 47.4059 252.229 46.5717 252.438 45.7047C252.688 44.9837 252.758 44.2127 252.643 43.4584C252.366 42.5815 251.796 41.8269 251.027 41.3216C250.739 41.0887 250.409 40.9121 250.055 40.8011C249.514 40.7246 248.964 40.762 248.438 40.9107C247.338 41.0939 246.277 41.4645 245.302 42.0065C244.348 42.6025 243.613 43.4915 243.206 44.5405C243.139 44.7164 243.004 44.8585 242.832 44.9355C242.66 45.0125 242.465 45.0182 242.288 44.9514C242.112 44.8839 241.97 44.7494 241.893 44.5774C241.816 44.4054 241.811 44.2099 241.878 44.0337C242.415 42.6871 243.377 41.5523 244.617 40.8011C245.728 40.1771 246.937 39.7463 248.192 39.5273C248.928 39.3241 249.701 39.2913 250.452 39.4314C250.991 39.5793 251.494 39.8356 251.931 40.1848C252.978 40.8828 253.741 41.9322 254.082 43.1433C254.24 44.1241 254.165 45.1282 253.863 46.0745C253.618 47.0617 253.24 48.011 252.739 48.8961C252.198 49.8052 251.481 50.5969 250.629 51.225C249.778 51.853 248.809 52.3046 247.781 52.5533C247.168 52.7087 246.537 52.7869 245.904 52.7861V52.7861Z" fill="#231F20"/>
<path d="M223.207 37.4042C223.207 37.4042 217.372 43.6501 218.289 45.0472C219.207 46.4443 222.398 46.1429 222.398 46.1429" fill="white"/>
<path d="M221.755 46.8689C220.605 46.8689 218.578 46.6772 217.756 45.417C216.66 43.8555 220.386 39.4177 222.714 37.007C222.777 36.9432 222.851 36.8925 222.933 36.8579C223.016 36.8234 223.104 36.8055 223.193 36.8055C223.283 36.8055 223.371 36.8234 223.453 36.8579C223.536 36.8925 223.61 36.9432 223.673 37.007C223.799 37.1373 223.87 37.3117 223.87 37.4932C223.87 37.6748 223.799 37.8492 223.673 37.9795C220.933 40.897 218.673 44.0884 218.838 44.828C219.345 45.5814 221.427 45.6773 222.358 45.5951C222.537 45.5833 222.713 45.6408 222.851 45.7555C222.989 45.8702 223.077 46.0335 223.098 46.2115C223.113 46.391 223.057 46.5694 222.941 46.7079C222.826 46.8463 222.661 46.9337 222.481 46.9511C222.238 46.9364 221.996 46.909 221.755 46.8689V46.8689Z" fill="#231F20"/>
<path d="M229.945 35.7899C230.284 34.9387 230.068 34.0535 229.463 33.8128C228.858 33.5721 228.093 34.067 227.754 34.9182C227.415 35.7695 227.631 36.6547 228.236 36.8954C228.841 37.1361 229.606 36.6412 229.945 35.7899Z" fill="#231F20"/>
<path d="M221.304 34.3568C221.64 33.5055 221.422 32.6216 220.817 32.3826C220.212 32.1437 219.449 32.6401 219.113 33.4915C218.776 34.3428 218.994 35.2267 219.6 35.4656C220.205 35.7046 220.968 35.2082 221.304 34.3568Z" fill="#231F20"/>
<path d="M220.383 49.3345L226.506 49.7317C226.506 49.7317 226.903 54.1559 223.588 54.9503C220.274 55.7447 220.383 49.3345 220.383 49.3345Z" fill="white"/>
<path d="M223.028 55.6624C222.465 55.6704 221.918 55.4814 221.48 55.1283C219.658 53.6764 219.672 49.7316 219.672 49.2796C219.677 49.0928 219.756 48.9157 219.891 48.7865C220.033 48.668 220.213 48.6048 220.398 48.6084L226.52 49.0193C226.685 49.0255 226.841 49.0916 226.959 49.2052C227.078 49.3188 227.151 49.472 227.164 49.6357C227.315 51.3615 226.794 54.8269 223.726 55.5803C223.497 55.6331 223.263 55.6606 223.028 55.6624V55.6624ZM221.069 50.0329C221.137 51.2931 221.439 53.3476 222.329 54.0599C222.482 54.1743 222.659 54.2513 222.847 54.2846C223.035 54.3179 223.228 54.3066 223.411 54.2516C225.479 53.7448 225.781 51.4437 225.808 50.3343L221.069 50.0329Z" fill="#231F20"/>
<path d="M256 41.4721C255.905 41.491 255.807 41.491 255.712 41.4721C255.627 41.4351 255.55 41.3814 255.486 41.3143C255.422 41.2471 255.372 41.1679 255.338 41.0812C255.305 40.9945 255.29 40.902 255.293 40.8092C255.296 40.7164 255.317 40.6252 255.356 40.5407C257.193 36.8641 258.26 32.8511 258.492 28.7475C258.588 26.7553 258.228 24.7675 257.44 22.9352C256.652 21.1029 255.457 19.4744 253.945 18.1733C252.205 16.8036 249.425 15.9681 247.411 17.2556C247.302 17.3284 247.174 17.3687 247.042 17.3719C246.911 17.3752 246.781 17.3412 246.668 17.2739C246.555 17.2067 246.463 17.1088 246.403 16.9917C246.343 16.8746 246.318 16.7429 246.329 16.6119C246.295 16.1493 246.165 15.6988 245.948 15.2887C245.731 14.8786 245.432 14.5177 245.069 14.2286C239.179 8.18813 229.824 7.62655 221.853 8.05117C222.649 8.75616 223.365 9.54617 223.989 10.4071C224.053 10.5174 224.087 10.6426 224.087 10.77C224.087 10.8975 224.053 11.0227 223.989 11.133C223.936 11.2459 223.853 11.3422 223.749 11.4121C223.646 11.4819 223.525 11.5228 223.4 11.5302C219.048 11.7867 214.693 11.0562 210.662 9.39348C211.13 12.7606 212.099 16.0387 213.538 19.1184C213.598 19.241 213.62 19.3783 213.603 19.5135C213.586 19.6486 213.529 19.7757 213.44 19.8791C213.351 19.9824 213.234 20.0576 213.103 20.0952C212.972 20.1329 212.833 20.1314 212.703 20.0909C209.261 19.0744 206.291 16.8711 204.32 13.8724C203.921 16.9711 204.28 20.1203 205.365 23.0499C206.451 25.9795 208.231 28.6021 210.553 30.6925C210.619 30.7564 210.671 30.833 210.708 30.9177C210.744 31.0024 210.762 31.0936 210.762 31.1856C210.762 31.2777 210.744 31.3688 210.708 31.4535C210.671 31.5382 210.619 31.6148 210.553 31.6787C210.487 31.7454 210.41 31.7984 210.324 31.8346C210.238 31.8707 210.146 31.8894 210.053 31.8894C209.959 31.8894 209.867 31.8707 209.781 31.8346C209.695 31.7984 209.618 31.7454 209.553 31.6787C206.794 29.2069 204.752 26.038 203.641 22.5047C202.53 18.9715 202.391 15.2043 203.238 11.5987C203.272 11.4563 203.35 11.3282 203.46 11.2323C203.571 11.1365 203.709 11.0778 203.855 11.0645C204.001 11.0549 204.146 11.0887 204.273 11.1619C204.4 11.235 204.502 11.3442 204.567 11.4754C206.004 14.4634 208.476 16.8286 211.525 18.1322C210.259 14.9684 209.461 11.637 209.155 8.24292C209.145 8.11938 209.166 7.99517 209.218 7.88257C209.27 7.76997 209.351 7.6729 209.452 7.60095C209.553 7.529 209.671 7.48467 209.794 7.47234C209.918 7.46002 210.042 7.48012 210.155 7.53067C213.851 9.25249 217.885 10.1276 221.962 10.092C221.238 9.29266 220.419 8.58433 219.524 7.98268C219.401 7.90014 219.307 7.78143 219.255 7.64302C219.203 7.50462 219.195 7.35338 219.233 7.21032C219.27 7.06726 219.352 6.93946 219.465 6.84469C219.579 6.74992 219.719 6.69286 219.867 6.68145C228.509 6.06508 239.289 6.22945 246.055 13.1739C246.747 13.8179 247.269 14.6223 247.576 15.5161C248.805 15.1419 250.108 15.0812 251.366 15.3396C252.625 15.598 253.798 16.1672 254.78 16.9954C256.464 18.4291 257.798 20.2279 258.68 22.255C259.563 24.282 259.972 26.4838 259.876 28.6927C259.645 32.9819 258.536 37.1778 256.616 41.0201C256.567 41.1463 256.483 41.2558 256.373 41.3358C256.264 41.4159 256.135 41.4632 256 41.4721V41.4721Z" fill="#231F20"/>
<path d="M224.498 59.0321C224.498 59.0321 231.524 59.7169 234.962 58.1144C234.962 58.1144 231.483 65.8669 223.676 67.1682L224.498 59.0321Z" fill="#231F20"/>
<path d="M223.724 67.8392C223.639 67.8419 223.553 67.8276 223.473 67.797C223.394 67.7665 223.32 67.7203 223.259 67.6611C223.179 67.5925 223.117 67.5054 223.079 67.4076C223.041 67.3097 223.027 67.2039 223.039 67.0995L223.875 58.9634C223.883 58.8751 223.909 58.7894 223.951 58.7112C223.993 58.633 224.05 58.5638 224.119 58.5078C224.188 58.4517 224.267 58.4099 224.352 58.3847C224.437 58.3594 224.526 58.3513 224.615 58.3608C224.615 58.3608 231.463 59.0045 234.737 57.4978C234.86 57.437 235 57.4175 235.136 57.4421C235.272 57.4668 235.396 57.5343 235.49 57.6348C235.589 57.7299 235.657 57.8531 235.684 57.9878C235.711 58.1225 235.696 58.2623 235.641 58.3882C235.49 58.7169 231.915 66.4969 223.834 67.8392H223.724ZM225.162 59.7716L224.491 66.3188C228.292 65.2198 231.533 62.718 233.559 59.3196C230.793 59.8475 227.969 59.9996 225.162 59.7716V59.7716Z" fill="#231F20"/>
<path d="M269.107 73.9891C269.107 73.9891 284.762 81.4678 292.898 102.438C301.035 123.408 308.267 172.156 308.267 172.156L283.803 174.279C283.803 174.279 280.612 123.408 263.258 99.1644L269.107 73.9891Z" fill="#1E71B9"/>
<path d="M199.058 167.924C198.955 167.923 198.854 167.899 198.762 167.854C198.669 167.809 198.588 167.744 198.523 167.664C198.462 167.595 198.416 167.514 198.386 167.426C198.357 167.338 198.346 167.246 198.354 167.153C198.362 167.061 198.388 166.972 198.431 166.89C198.474 166.808 198.534 166.736 198.606 166.678L210.687 156.693C210.757 156.634 210.839 156.59 210.927 156.563C211.015 156.536 211.108 156.527 211.2 156.536C211.291 156.544 211.38 156.571 211.461 156.615C211.543 156.658 211.614 156.717 211.673 156.789C211.792 156.934 211.849 157.121 211.831 157.308C211.813 157.496 211.722 157.668 211.577 157.788L199.51 167.76C199.384 167.868 199.223 167.926 199.058 167.924Z" fill="#231F20"/>
<path d="M267.038 167.924C266.9 167.925 266.766 167.882 266.654 167.801C261.846 164.651 250.629 157.158 250.108 155.624C250.051 155.444 250.066 155.249 250.151 155.081C250.235 154.912 250.382 154.783 250.56 154.72C250.733 154.663 250.921 154.675 251.085 154.754C251.248 154.834 251.375 154.974 251.437 155.145C252.039 156.158 260.025 161.774 267.421 166.623C267.499 166.674 267.567 166.74 267.619 166.818C267.672 166.895 267.709 166.982 267.728 167.073C267.747 167.165 267.748 167.259 267.731 167.351C267.713 167.443 267.678 167.531 267.627 167.609C267.563 167.707 267.475 167.787 267.372 167.842C267.269 167.897 267.154 167.925 267.038 167.924V167.924Z" fill="#231F20"/>
<path d="M243.89 119.409C243.775 119.41 243.662 119.381 243.561 119.327C243.394 119.239 243.269 119.089 243.212 118.91C243.156 118.73 243.173 118.535 243.26 118.368L254.067 97.9593L245.917 91.6723C245.835 91.6086 245.768 91.5277 245.721 91.4355C245.674 91.3432 245.647 91.2417 245.643 91.1381C245.639 91.0353 245.658 90.9328 245.698 90.8381C245.738 90.7434 245.799 90.6588 245.876 90.5902C246.15 90.3437 252.177 84.947 253.779 83.6184C253.218 82.3993 249.492 78.2628 246.095 74.8659C245.988 74.7289 245.934 74.5574 245.945 74.3837C245.955 74.2101 246.029 74.0462 246.152 73.9232C246.275 73.8002 246.439 73.7264 246.613 73.7159C246.786 73.7054 246.958 73.7588 247.095 73.866C250.19 76.9616 255.313 82.372 255.313 83.8649C255.304 83.9956 255.268 84.1228 255.207 84.2385C255.145 84.3541 255.06 84.4555 254.957 84.5361C254.259 85.0566 250.095 88.7685 247.506 91.0696L255.45 97.2059C255.583 97.3069 255.676 97.4522 255.711 97.6155C255.746 97.7789 255.722 97.9494 255.642 98.0962L244.561 119.025C244.501 119.15 244.404 119.253 244.285 119.321C244.165 119.389 244.027 119.42 243.89 119.409Z" fill="#231F20"/>
<path d="M217.535 111.273C217.407 111.274 217.28 111.24 217.169 111.175C217.058 111.11 216.967 111.016 216.905 110.903L207.55 92.9186C207.464 92.7634 207.442 92.5811 207.488 92.41C207.534 92.2389 207.645 92.0922 207.797 92.0009L215.755 86.9193L209.262 82.591C209.175 82.534 209.101 82.4582 209.047 82.3691C208.993 82.28 208.959 82.1799 208.949 82.0761C208.938 81.9723 208.951 81.8675 208.986 81.7694C209.022 81.6712 209.078 81.5822 209.153 81.5089L218.015 72.6195C218.152 72.5122 218.323 72.4588 218.497 72.4693C218.671 72.4799 218.834 72.5536 218.957 72.6766C219.08 72.7997 219.154 72.9635 219.165 73.1371C219.175 73.3108 219.122 73.4823 219.015 73.6193L210.796 81.8376L217.439 86.3166C217.536 86.3815 217.615 86.4692 217.67 86.5719C217.725 86.6745 217.754 86.7891 217.754 86.9056C217.75 87.0228 217.718 87.1373 217.661 87.2397C217.604 87.3421 217.523 87.4294 217.426 87.4945L209.098 92.809L218.165 110.218C218.249 110.386 218.264 110.579 218.207 110.758C218.151 110.937 218.028 111.087 217.864 111.177C217.761 111.229 217.65 111.261 217.535 111.273V111.273Z" fill="#231F20"/>
<path d="M233.793 219.179C233.629 219.181 233.469 219.124 233.344 219.018C233.218 218.913 233.134 218.766 233.108 218.603C232.889 217.234 227.629 184.1 227.93 177.813C227.941 177.632 228.024 177.462 228.16 177.341C228.296 177.22 228.475 177.159 228.656 177.17C228.838 177.181 229.008 177.263 229.129 177.399C229.249 177.535 229.311 177.714 229.3 177.896C228.93 184.032 234.409 218.042 234.464 218.384C234.478 218.473 234.473 218.564 234.452 218.652C234.43 218.739 234.392 218.822 234.338 218.894C234.285 218.967 234.218 219.028 234.14 219.074C234.063 219.121 233.978 219.152 233.889 219.165L233.793 219.179Z" fill="white"/>
<path d="M284.024 172.239C283.861 172.238 283.703 172.18 283.578 172.075C283.452 171.97 283.368 171.824 283.339 171.663L267.451 92.9734C267.433 92.8825 267.433 92.789 267.452 92.6983C267.471 92.6076 267.507 92.5215 267.559 92.445C267.612 92.3685 267.679 92.3032 267.756 92.2528C267.834 92.2024 267.921 92.1681 268.012 92.1516C268.102 92.1317 268.195 92.1302 268.286 92.1472C268.377 92.1642 268.463 92.1994 268.54 92.2505C268.616 92.3017 268.682 92.3678 268.733 92.445C268.783 92.5221 268.818 92.6087 268.834 92.6995L284.764 171.389C284.784 171.48 284.785 171.573 284.768 171.663C284.751 171.754 284.716 171.84 284.665 171.917C284.614 171.994 284.548 172.059 284.47 172.11C284.393 172.161 284.307 172.195 284.216 172.211L284.024 172.239Z" fill="#231F20"/>
<path d="M66.7465 246.244L64.1577 307.306C64.1577 307.306 89.0317 322.099 87.9085 323.647C86.7853 325.195 43.2422 317.524 43.2422 317.524L46.1734 246.984" fill="white"/>
<path d="M86.2906 324.427C81.0446 324.427 66.5804 322.359 43.1172 318.223C42.9467 318.196 42.7922 318.107 42.6834 317.973C42.5747 317.839 42.5194 317.669 42.5283 317.497L45.4595 246.956C45.4701 246.77 45.5536 246.595 45.6919 246.469C45.8303 246.344 46.0124 246.278 46.1991 246.285C46.2921 246.289 46.3834 246.311 46.4677 246.35C46.5521 246.389 46.6277 246.445 46.6903 246.514C46.7528 246.583 46.8009 246.663 46.8318 246.751C46.8627 246.839 46.8758 246.932 46.8703 247.025L43.9665 316.88C59.0333 319.524 82.4691 323.263 86.8932 323.112C84.7565 320.893 73.9632 313.908 63.7999 307.868C63.6911 307.8 63.6021 307.705 63.542 307.592C63.4819 307.479 63.4527 307.352 63.4575 307.224L66.0462 246.162C66.048 246.069 66.0683 245.977 66.1059 245.892C66.1435 245.807 66.1977 245.731 66.2653 245.667C66.3329 245.603 66.4126 245.554 66.4996 245.521C66.5866 245.488 66.6793 245.473 66.7722 245.477C66.8657 245.481 66.9577 245.503 67.0427 245.542C67.1278 245.581 67.2043 245.636 67.268 245.705C67.3316 245.774 67.381 245.854 67.4134 245.942C67.4459 246.03 67.4607 246.123 67.457 246.217L64.882 306.868C72.1551 311.196 88.1671 320.962 88.6191 323.304C88.6538 323.431 88.6582 323.563 88.6321 323.692C88.6059 323.82 88.5498 323.941 88.4684 324.044C88.2949 324.3 87.569 324.427 86.2906 324.427Z" fill="#231F20"/>
<path d="M72.7176 309.347L64.6637 316.62L41.543 313.401V322.578C41.543 322.578 92.5921 329.317 94.9617 325.085C97.3314 320.852 72.7176 309.347 72.7176 309.347Z" fill="#231F20"/>
<path d="M50.0863 259.188L47.5112 320.264C47.5112 320.264 72.3715 335.057 71.2483 336.591C70.1252 338.125 26.582 330.482 26.582 330.482L29.5132 259.942" fill="white"/>
<path d="M69.6338 337.385C64.3878 337.385 49.9237 335.303 26.4605 331.18C26.2913 331.151 26.1385 331.061 26.0302 330.927C25.922 330.794 25.8656 330.626 25.8715 330.454L28.8027 259.914C28.8165 259.728 28.9006 259.553 29.0378 259.426C29.175 259.299 29.3553 259.229 29.5423 259.229C29.6359 259.233 29.7278 259.255 29.8129 259.294C29.898 259.333 29.9745 259.388 30.0381 259.457C30.1017 259.526 30.1512 259.606 30.1836 259.694C30.2161 259.782 30.2309 259.875 30.2272 259.969L27.3097 329.824C42.3766 332.468 65.7986 336.207 70.2365 336.043C68.0998 333.824 57.3201 326.852 47.1431 320.798C47.0344 320.73 46.9454 320.635 46.8852 320.522C46.8251 320.409 46.7959 320.282 46.8007 320.154L49.3895 259.092C49.432 258.943 49.5218 258.813 49.6454 258.719C49.769 258.626 49.9196 258.576 50.0743 258.576C50.2291 258.576 50.3797 258.626 50.5033 258.719C50.6268 258.813 50.7167 258.943 50.7592 259.092L48.1841 319.743C55.4573 324.071 71.4692 333.838 71.9349 336.18C71.9631 336.309 71.9643 336.443 71.9384 336.572C71.9124 336.702 71.86 336.825 71.7843 336.933C71.6336 337.262 70.9077 337.385 69.6338 337.385Z" fill="#231F20"/>
<path d="M55.8522 322.195L47.9627 329.646L24.7734 326.907L24.9378 336.07C24.9378 336.07 76.124 341.658 78.3566 337.371C80.5892 333.084 55.8522 322.195 55.8522 322.195Z" fill="#231F20"/>
<path d="M78.7589 147.721C80.7586 161.336 70.5406 296.02 70.5406 296.02C55.7836 297.514 40.902 297.265 26.203 295.28C14.4782 270.94 2.06864 194.798 5.52032 177.06C8.97199 159.322 17.3409 140.859 17.3409 140.859C17.3409 140.859 78.8273 148.214 78.7589 147.721Z" fill="#231F20"/>
<path d="M78.8801 154.652C78.8801 154.652 85.6465 82.3721 82.3318 76.948C71.196 58.7719 13.3667 59.3472 8.44946 76.5782C4.57318 90.1384 11.3943 146.036 11.3943 146.036L78.8801 154.652Z" fill="#1E71B9"/>
<path d="M42.9255 140.858C42.9255 140.858 84.0168 149.734 99.0837 147.022L102.782 127.846C102.782 127.846 55.0063 121.203 51.3081 118.738C47.6099 116.272 47.3633 91.1516 47.3633 91.1516C47.3633 91.1516 35.7893 93.6171 32.8444 99.7808C29.8995 105.945 27.1601 134.256 42.9255 140.858Z" fill="#1E71B9"/>
<path d="M37.5065 69.88C36.493 70.469 61.5176 112.341 61.5176 112.341L53.4226 69.0171C53.4226 69.0171 47.1082 64.4012 37.5065 69.88Z" fill="white"/>
<path d="M87.8647 149.323C87.1935 149.323 20.7488 144.379 19.5982 103.205C19.5945 103.112 19.6094 103.019 19.642 102.932C19.6747 102.845 19.7243 102.766 19.7881 102.698C19.8519 102.63 19.9285 102.576 20.0135 102.539C20.0985 102.501 20.1901 102.481 20.2831 102.479C20.3764 102.473 20.4699 102.487 20.5578 102.519C20.6457 102.551 20.7261 102.6 20.7941 102.664C20.8621 102.729 20.9163 102.806 20.9532 102.892C20.9902 102.978 21.0092 103.07 21.009 103.164C22.0911 143.064 87.3031 147.871 87.9606 147.912C88.1094 147.955 88.2403 148.045 88.3335 148.168C88.4267 148.292 88.4772 148.442 88.4772 148.597C88.4772 148.752 88.4267 148.903 88.3335 149.026C88.2403 149.15 88.1094 149.24 87.9606 149.282L87.8647 149.323Z" fill="#231F20"/>
<path d="M37.5015 69.8801C36.7345 60.6483 36.1318 52.5259 35.4195 43.294C35.1867 39.8834 34.8169 36.4454 34.721 33.0349C34.584 28.0902 36.7345 29.2408 41.5695 29.1997C41.9165 26.0219 42.4005 22.8716 43.0214 19.7487L45.391 27.5697C52.7738 25.4878 68.1146 27.5697 68.1146 27.5697C68.1146 27.5697 69.6624 42.4448 67.7037 49.4851C64.8821 59.6484 51.678 57.4158 51.678 57.4158L53.3902 69.0172C53.3902 69.0172 53.8833 72.825 49.281 74.1262C42.6516 76.0027 37.5015 69.8801 37.5015 69.8801Z" fill="white"/>
<path d="M46.7089 75.1946C43.9637 75.1189 41.3165 74.158 39.1618 72.4552C39.1618 72.4552 36.9292 70.7568 36.8059 70.0445C36.0663 61.1962 35.4362 52.8409 34.724 43.4447C34.6418 42.3626 34.5596 41.2669 34.4637 40.1711C34.272 37.87 34.0802 35.5004 34.0117 33.1582C34.0117 31.1995 34.2446 30.0626 34.9705 29.3504C35.9156 28.419 37.3264 28.4738 39.2851 28.5559C39.8056 28.5559 40.3535 28.5559 40.9699 28.5559C41.3123 25.5837 41.778 22.5977 42.3396 19.6802C42.3625 19.5197 42.4406 19.3722 42.5604 19.263C42.6802 19.1537 42.8343 19.0895 42.9962 19.0814C43.1581 19.0733 43.3178 19.1218 43.4479 19.2186C43.578 19.3153 43.6704 19.4543 43.7093 19.6117L45.8734 26.7753C53.5027 24.9673 67.5971 26.7753 68.1997 26.8575C68.3583 26.8781 68.5053 26.9514 68.6171 27.0657C68.7289 27.18 68.799 27.3286 68.8161 27.4876C68.8161 28.1039 70.3639 42.5544 68.3778 49.6906C65.8849 58.6896 55.6943 58.5253 52.5165 58.2376L54.0917 68.9214C54.0917 68.9214 54.6122 73.3729 49.4895 74.8111C48.5845 75.0654 47.649 75.1945 46.7089 75.1946V75.1946ZM38.2167 69.6336C39.066 70.5513 43.5997 75.0166 49.1744 73.4414C53.0918 72.3319 52.7768 69.2227 52.7631 69.0994L51.0098 57.5528C50.9939 57.4432 51.0042 57.3314 51.0399 57.2266C51.0756 57.1219 51.1358 57.0271 51.2153 56.9501C51.2944 56.8699 51.392 56.8105 51.4995 56.777C51.607 56.7436 51.7211 56.7372 51.8317 56.7583C52.3385 56.8405 64.433 58.7581 67.0492 49.3345C68.7339 43.253 67.7477 30.9803 67.4875 28.2272C64.6796 27.8985 51.9823 26.5425 45.5721 28.3368C45.4849 28.3641 45.3931 28.3736 45.3021 28.3648C45.2112 28.3561 45.1229 28.3292 45.0425 28.2858C44.9621 28.2424 44.8911 28.1834 44.8339 28.1121C44.7767 28.0409 44.7342 27.959 44.7092 27.8711L43.1751 22.8168C42.8053 24.9947 42.4902 27.1862 42.2574 29.3641C42.2374 29.5361 42.1555 29.6949 42.0269 29.8108C41.8984 29.9268 41.732 29.992 41.5588 29.9941C40.6959 29.9941 39.9015 29.9941 39.1892 29.9941C37.5867 29.9941 36.4498 29.8846 35.9156 30.3777C35.4234 31.2005 35.2344 32.1696 35.3814 33.1171C35.4499 35.4182 35.6417 37.7741 35.8334 40.0478C35.9156 41.1573 36.0115 42.2531 36.0937 43.3488C36.847 52.5944 37.4634 60.8812 38.2167 69.6336Z" fill="#231F20"/>
<path d="M51.7084 57.4159C51.7084 57.4159 46.2295 56.731 43.5586 54.0327C43.5586 54.0327 47.1609 63.0317 52.7083 64.3877L51.7084 57.4159Z" fill="#231F20"/>
<path d="M52.7085 65.3188C52.6361 65.3322 52.5618 65.3322 52.4894 65.3188C46.5311 63.8806 42.9014 54.7994 42.6823 54.3611C42.6094 54.1614 42.606 53.943 42.6725 53.7412C42.7391 53.5393 42.8718 53.3658 43.0491 53.2486C43.2264 53.1314 43.4381 53.0775 43.6499 53.0954C43.8617 53.1134 44.0612 53.2022 44.2163 53.3475C46.6681 55.7993 51.7771 56.4567 51.8319 56.4704C52.0353 56.4956 52.2246 56.587 52.3707 56.7306C52.5168 56.8742 52.6115 57.062 52.6401 57.2649L53.64 64.2367C53.6598 64.37 53.6504 64.506 53.6126 64.6353C53.5747 64.7647 53.5093 64.8842 53.4208 64.9858C53.3322 65.0874 53.2227 65.1685 53.0997 65.2237C52.9767 65.2788 52.8433 65.3066 52.7085 65.3051V65.3188ZM45.9422 56.7307C47.2322 59.263 49.1698 61.4086 51.558 62.9492L50.8731 58.2374C49.1756 57.932 47.5204 57.4263 45.9422 56.7307V56.7307Z" fill="#231F20"/>
<path d="M37.531 39.6094C37.2958 38.4404 36.7412 37.3594 35.9287 36.4866C35.1163 35.6137 34.0779 34.9831 32.9287 34.6647C32.4161 34.4966 31.8733 34.4402 31.337 34.4993C30.8007 34.5583 30.2833 34.7315 29.8195 35.0072C29.2776 35.4723 28.8663 36.0706 28.6261 36.7431C28.3859 37.4157 28.3251 38.1392 28.4498 38.8424C28.6072 41.0961 29.6219 43.2039 31.2855 44.7324C32.9491 46.261 35.1351 47.0941 37.394 47.0606" fill="white"/>
<path d="M37.2304 47.7729C34.8063 47.7796 32.4695 46.8678 30.6906 45.221C28.9116 43.5742 27.8225 41.3147 27.6424 38.8972C27.5139 38.0649 27.6056 37.2135 27.9084 36.4277C28.2112 35.6419 28.7145 34.9491 29.3683 34.4182C29.9216 34.0888 30.5381 33.8795 31.1776 33.804C31.8171 33.7285 32.4654 33.7884 33.0802 33.9799C34.3537 34.3341 35.5047 35.0331 36.4062 35.9999C37.3077 36.9667 37.9248 38.1636 38.1892 39.4588C38.2111 39.6349 38.1651 39.8128 38.0605 39.9562C37.956 40.0997 37.8008 40.1979 37.6264 40.2311C37.452 40.2642 37.2716 40.2297 37.1217 40.1346C36.9718 40.0395 36.8638 39.8909 36.8195 39.719C36.5951 38.6851 36.0944 37.7314 35.3708 36.9595C34.6471 36.1877 33.7277 35.6265 32.7104 35.3359C32.295 35.1933 31.8538 35.1414 31.4166 35.184C30.9795 35.2265 30.5565 35.3624 30.1764 35.5825C29.7468 35.9881 29.4206 36.4908 29.2251 37.0485C29.0297 37.6061 28.9708 38.2025 29.0532 38.7876C29.2032 40.856 30.1374 42.7891 31.6649 44.1919C33.1923 45.5946 35.1978 46.3611 37.2715 46.3347C37.3775 46.3045 37.4891 46.2992 37.5975 46.3194C37.7059 46.3395 37.8081 46.3846 37.8961 46.451C37.9841 46.5174 38.0555 46.6033 38.1046 46.7019C38.1538 46.8006 38.1794 46.9093 38.1794 47.0196C38.1794 47.1298 38.1538 47.2386 38.1046 47.3372C38.0555 47.4359 37.9841 47.5218 37.8961 47.5882C37.8081 47.6546 37.7059 47.6996 37.5975 47.7198C37.4891 47.74 37.3775 47.7347 37.2715 47.7044L37.2304 47.7729Z" fill="#231F20"/>
<path d="M66.1239 30.9499C66.1702 30.0206 65.8035 29.2472 65.3048 29.2223C64.8061 29.1975 64.3644 29.9307 64.3181 30.86C64.2719 31.7894 64.6386 32.5628 65.1373 32.5877C65.6359 32.6125 66.0777 31.8793 66.1239 30.9499Z" fill="#231F20"/>
<path d="M57.788 32.1062C57.8343 31.1769 57.4675 30.4034 56.9689 30.3786C56.4702 30.3538 56.0285 31.087 55.9822 32.0163C55.9359 32.9456 56.3027 33.7191 56.8013 33.7439C57.3 33.7687 57.7417 33.0355 57.788 32.1062Z" fill="#231F20"/>
<path d="M65.3627 48.7455C64.1724 49.5079 62.8687 50.0766 61.5001 50.4302C59.6784 50.9096 57.4731 50.8959 56.213 49.4988C55.6983 48.8696 55.3163 48.1428 55.0898 47.3621" fill="white"/>
<path d="M59.435 51.4164C58.7518 51.4528 58.0687 51.3433 57.4311 51.0954C56.7934 50.8474 56.2159 50.4666 55.7368 49.9782C55.1675 49.2772 54.7396 48.4725 54.4766 47.6086C54.4112 47.427 54.4207 47.2268 54.5029 47.0521C54.5851 46.8774 54.7333 46.7426 54.9149 46.6772C55.0966 46.6118 55.2967 46.6212 55.4714 46.7034C55.6461 46.7856 55.7809 46.9339 55.8463 47.1155C56.0577 47.8086 56.3917 48.4581 56.8325 49.0331C58.2022 50.4028 60.6677 49.9371 61.4074 49.7453C62.6879 49.4067 63.9079 48.8707 65.0234 48.1565C65.1796 48.0548 65.3698 48.0193 65.5522 48.0578C65.7346 48.0963 65.8942 48.2057 65.9959 48.3619C66.0976 48.5181 66.1331 48.7084 66.0946 48.8907C66.0561 49.0731 65.9467 49.2327 65.7904 49.3344C64.5557 50.1372 63.201 50.7383 61.7772 51.115C61.0125 51.3149 60.2254 51.4162 59.435 51.4164V51.4164Z" fill="#231F20"/>
<path d="M63.499 34.0483C63.499 34.0483 71.1146 42.7186 69.2381 44.5814C67.3616 46.4442 62.9648 45.5128 62.9648 45.5128" fill="white"/>
<path d="M65.3769 46.458C64.5219 46.4547 63.6691 46.3722 62.8293 46.2115C62.6761 46.1478 62.55 46.0326 62.4727 45.8858C62.3954 45.739 62.3717 45.5699 62.4058 45.4075C62.4399 45.2452 62.5296 45.0998 62.6594 44.9965C62.7892 44.8932 62.951 44.8385 63.1169 44.8418C64.2401 45.0746 67.4315 45.4034 68.7464 44.1021C69.4724 43.3625 66.7193 38.8013 62.9662 34.5141C62.8469 34.3706 62.7875 34.1867 62.8002 34.0005C62.813 33.8143 62.897 33.6402 63.0347 33.5143C63.0998 33.4476 63.1775 33.3946 63.2634 33.3584C63.3493 33.3222 63.4415 33.3036 63.5347 33.3036C63.6278 33.3036 63.7201 33.3222 63.8059 33.3584C63.8918 33.3946 63.9695 33.4476 64.0346 33.5143C66.459 36.2537 71.8557 42.9105 69.7463 45.0198C68.5252 46.0364 66.9631 46.5506 65.3769 46.458V46.458Z" fill="#231F20"/>
<path d="M78.6364 125.312H78.4583C55.5294 119.34 43.5581 107.369 37.545 98.3701C33.702 92.8721 31.0989 86.605 29.9157 80.0023C29.8924 79.8189 29.9428 79.6337 30.0557 79.4874C30.1687 79.341 30.3351 79.2454 30.5184 79.2215C30.7054 79.1982 30.8941 79.2501 31.043 79.3656C31.1919 79.4811 31.2889 79.6509 31.3128 79.8379C31.3128 80.1666 35.8603 112.711 78.8145 123.943C78.975 123.989 79.1137 124.091 79.2054 124.231C79.297 124.37 79.3356 124.538 79.314 124.704C79.2925 124.87 79.2123 125.022 79.088 125.134C78.9637 125.245 78.8034 125.309 78.6364 125.312Z" fill="#231F20"/>
<path d="M20.6953 56.95C20.5467 56.9531 20.4015 56.9047 20.2844 56.813C20.194 56.7492 20.1197 56.6652 20.0674 56.5678C20.0151 56.4703 19.9863 56.362 19.9831 56.2514L19.8324 35.24C19.8324 28.9256 19.7365 21.762 22.5718 15.4888C24.3114 11.5577 27.7768 6.83217 32.2694 5.35288C33.4219 4.96389 34.6424 4.81784 35.8541 4.92392C37.0658 5.03 38.2424 5.38592 39.3097 5.96925C40.9075 4.71174 42.5718 3.54122 44.2955 2.46278C46.4525 1.3826 48.762 0.638909 51.144 0.257546C55.5408 -0.482099 59.3623 0.353426 64.1426 2.99697C66.9768 4.71774 69.4428 6.982 71.3986 9.65945C73.3544 12.3369 74.7614 15.3747 75.5386 18.598C77.0558 24.9833 77.0558 31.6352 75.5386 38.0205C75.5366 38.1253 75.5114 38.2283 75.465 38.3222C75.4185 38.4161 75.3519 38.4986 75.27 38.5639C75.188 38.6291 75.0926 38.6754 74.9906 38.6996C74.8887 38.7237 74.7827 38.7251 74.6801 38.7035C74.5776 38.682 74.4811 38.6381 74.3975 38.575C74.3138 38.5119 74.2451 38.4311 74.1963 38.3384C74.1475 38.2457 74.1197 38.1434 74.115 38.0387C74.1102 37.934 74.1287 37.8296 74.1689 37.7329C75.6309 31.5587 75.6309 25.1283 74.1689 18.9541C73.4403 15.9139 72.1176 13.0479 70.277 10.5208C68.4364 7.99382 66.1142 5.85576 63.4441 4.22971C58.9788 1.69574 55.4723 0.956099 51.3769 1.62726C49.1511 1.99874 46.9944 2.70532 44.9803 3.72292C44.5557 3.94207 40.3233 6.94174 39.8713 7.29787L39.7754 7.38005C39.6651 7.44377 39.5399 7.47731 39.4125 7.47731C39.285 7.47731 39.1598 7.44377 39.0495 7.38005C38.1183 6.81282 37.0747 6.45527 35.9914 6.33227C34.908 6.20926 33.8108 6.32377 32.7762 6.6678C28.6671 8.03751 25.5304 12.3795 23.9142 16.0366C21.2569 22.036 21.298 29.0352 21.3528 35.2126L21.4898 55.2652C22.9138 54.8823 24.3848 54.7024 25.8592 54.731C25.8119 53.3053 26.204 51.8995 26.9823 50.7041C27.0622 50.5978 27.1692 50.5149 27.2921 50.4643C27.415 50.4137 27.5493 50.3972 27.6809 50.4164C27.811 50.4385 27.9324 50.4963 28.0315 50.5834C28.1307 50.6705 28.2037 50.7834 28.2424 50.9095C28.5957 52.0875 28.7801 53.3095 28.7903 54.5393L32.0365 54.3338C32.1301 54.3282 32.2239 54.3412 32.3124 54.372C32.401 54.4027 32.4826 54.4506 32.5526 54.513C32.6225 54.5753 32.6795 54.6509 32.7203 54.7353C32.761 54.8197 32.7847 54.9114 32.7899 55.005C32.7955 55.0967 32.7828 55.1887 32.7528 55.2756C32.7227 55.3625 32.6758 55.4426 32.6147 55.5113C32.5536 55.58 32.4796 55.636 32.3968 55.676C32.3141 55.7161 32.2242 55.7394 32.1324 55.7446L28.1055 55.9912C28.0067 55.9994 27.9074 55.9852 27.8149 55.9496C27.7223 55.914 27.6391 55.858 27.5713 55.7857C27.4988 55.7174 27.4417 55.6344 27.4039 55.5423C27.3661 55.4502 27.3485 55.351 27.3521 55.2515C27.3736 54.6472 27.3415 54.0421 27.2563 53.4435C27.1058 54.0807 27.0779 54.7408 27.1741 55.3885C27.1874 55.4926 27.1771 55.5984 27.1439 55.698C27.1107 55.7976 27.0555 55.8884 26.9823 55.9638C26.9116 56.0445 26.8222 56.1066 26.7219 56.1448C26.6216 56.183 26.5135 56.1961 26.407 56.1829C24.5525 56.05 22.69 56.2874 20.9282 56.8815C20.8552 56.9177 20.7763 56.9409 20.6953 56.95V56.95Z" fill="#231F20"/>
<path d="M79.3745 118.3C79.1868 118.292 79.0091 118.213 78.8788 118.077C78.7485 117.942 78.6758 117.761 78.676 117.574C78.676 117.341 79.0184 93.179 76.1146 82.687C76.0751 82.5092 76.1052 82.3229 76.1989 82.1666C76.2925 82.0103 76.4424 81.8958 76.6179 81.8467C76.7933 81.7976 76.9809 81.8175 77.1421 81.9025C77.3032 81.9875 77.4257 82.131 77.4843 82.3035C80.4292 93.0009 80.1142 116.546 80.0868 117.601C80.0868 117.694 80.0683 117.786 80.0323 117.872C79.9964 117.957 79.9437 118.035 79.8773 118.1C79.811 118.165 79.7324 118.216 79.6461 118.25C79.5597 118.285 79.4674 118.301 79.3745 118.3V118.3Z" fill="#231F20"/>
<path d="M70.0206 330.687C69.8382 330.686 69.6626 330.618 69.5275 330.496C67.9798 328.934 58.926 324.414 55.5565 322.811C55.3953 322.729 55.2724 322.587 55.2136 322.416C55.1549 322.245 55.1648 322.058 55.2414 321.894C55.3211 321.734 55.4603 321.611 55.6292 321.552C55.7982 321.493 55.9835 321.503 56.1454 321.579C56.6522 321.825 68.4729 327.496 70.5 329.523C70.6264 329.653 70.697 329.828 70.697 330.009C70.697 330.191 70.6264 330.365 70.5 330.496C70.3685 330.615 70.1983 330.683 70.0206 330.687V330.687Z" fill="white"/>
<path d="M14.3507 174.06C14.2607 174.077 14.1683 174.077 14.0787 174.058C13.989 174.039 13.904 174.003 13.8283 173.952C13.7526 173.9 13.6878 173.834 13.6376 173.758C13.5874 173.681 13.5528 173.595 13.5357 173.505C13.5186 173.416 13.5194 173.323 13.538 173.233C13.5567 173.144 13.5928 173.059 13.6443 172.983C13.6958 172.907 13.7617 172.843 13.8382 172.792C13.9148 172.742 14.0005 172.708 14.0904 172.69C22.5416 169.157 25.4864 158.473 25.5138 158.363C25.5372 158.273 25.5781 158.189 25.6341 158.115C25.6901 158.041 25.7602 157.978 25.8403 157.931C25.9205 157.884 26.0091 157.853 26.1011 157.84C26.1931 157.828 26.2868 157.833 26.3767 157.857C26.4667 157.88 26.5511 157.921 26.6253 157.977C26.6994 158.033 26.7618 158.103 26.8089 158.183C26.8559 158.263 26.8867 158.352 26.8996 158.444C26.9124 158.536 26.9069 158.629 26.8835 158.719C26.7603 159.185 23.7469 170.17 14.6657 173.951C14.5685 174.007 14.4616 174.044 14.3507 174.06V174.06Z" fill="white"/>
</svg>
