<svg width="351" height="345" viewBox="0 0 351 345" fill="none" xmlns="http://www.w3.org/2000/svg">
<path opacity="0.18" d="M350.665 236.148C350.565 239.139 350.386 242.129 350.087 245.18C347.973 267.26 340.208 289.311 323.47 303.516C303.593 320.373 275.401 322.856 249.353 321.899C223.305 320.942 196.589 317.413 171.657 325.019C158.01 329.186 145.519 336.543 131.902 340.789C105.983 348.864 76.825 344.867 53.5581 330.94C30.2911 317.014 13.1251 293.588 5.91769 267.45C4.57044 262.534 3.5251 257.54 2.78752 252.497C-1.31958 224.883 2.70777 196.174 2.11961 168.012C1.60124 142.981 -2.49589 117.062 6.47593 93.6655C12.4571 78.0844 23.8414 65.2248 36.8705 55.0468C82.4573 19.5084 139.867 0.36848 197.366 0.00960691C231.619 -0.209704 266.629 5.25314 296.684 21.6815C306.454 27.0148 315.735 33.644 322.603 42.3367C327.717 48.8363 331.366 56.3726 334.366 64.0684C339.557 77.43 342.91 91.4342 344.335 105.698C346.169 124.229 344.724 142.931 345.461 161.522C346.488 186.464 351.393 211.216 350.665 236.148Z" fill="#1E71B9"/>
<path d="M350.086 245.18L349.966 246.356C348.202 263.163 343.138 279.881 333.279 293.039C330.42 296.88 327.132 300.382 323.479 303.477C303.602 320.334 275.41 322.816 249.362 321.859C223.314 320.902 196.598 317.373 171.666 324.979C158.019 329.146 145.528 336.503 131.911 340.75C105.992 348.824 76.8339 344.827 53.567 330.9C38.2609 321.603 25.5689 308.568 16.6829 293.019C12.0305 284.981 8.4226 276.382 5.94657 267.43C4.59933 262.514 3.55399 257.52 2.81641 252.477L134.672 249.696L350.086 245.18Z" fill="#1E71B9"/>
<path d="M349.965 246.356C348.2 263.163 343.136 279.881 333.277 293.039H16.6516C11.9992 285.001 8.39135 276.401 5.91533 267.45C4.56808 262.534 3.52274 257.54 2.78516 252.497L134.641 249.715L349.965 246.356Z" fill="url(#paint0_linear)"/>
<path d="M89.5955 175.299L87.1133 211.984L92.5163 209.96L93.2739 198.257L89.5955 175.299Z" fill="url(#paint1_linear)"/>
<path d="M193.77 219.311C195.066 231.403 190.78 256.275 177.362 261.179C174.062 262.386 170.483 262.535 166.965 262.645C153.208 263.097 139.444 263.21 125.674 262.984C120.168 263.01 114.667 262.63 109.216 261.847C106.564 261.409 103.823 260.741 101.759 259.016C98.2802 256.085 97.712 250.493 100.055 246.585C102.397 242.677 107.122 240.604 111.668 240.753C109.826 240.881 107.983 240.501 106.341 239.656C104.699 238.811 103.319 237.532 102.351 235.959C101.384 234.386 100.866 232.578 100.853 230.731C100.84 228.884 101.332 227.068 102.278 225.481C105.478 220.118 112.585 218.902 118.796 218.234C114.888 213.549 111.977 207.777 111.818 201.676C111.658 195.575 114.709 189.185 120.171 186.464C125.634 183.742 133.31 185.706 135.892 191.239C133.898 180.881 136.61 169.497 143.797 161.772C150.257 154.793 163.336 149.341 172.706 153.517C181.678 157.505 185.018 171.122 187.002 179.635C190.063 192.71 192.324 205.96 193.77 219.311Z" fill="#1E71B9"/>
<path d="M193.77 219.311C195.066 231.403 190.78 256.275 177.362 261.179C174.062 262.386 170.483 262.535 166.965 262.645C153.208 263.097 139.444 263.21 125.674 262.984C120.168 263.01 114.667 262.63 109.216 261.847C106.564 261.409 103.823 260.741 101.759 259.016C98.2802 256.085 97.712 250.493 100.055 246.585C102.397 242.677 107.122 240.604 111.668 240.753C109.826 240.881 107.983 240.501 106.341 239.656C104.699 238.811 103.319 237.532 102.351 235.959C101.384 234.386 100.866 232.578 100.853 230.731C100.84 228.884 101.332 227.068 102.278 225.481C105.478 220.118 112.585 218.902 118.796 218.234C114.888 213.549 111.977 207.777 111.818 201.676C111.658 195.575 114.709 189.185 120.171 186.464C125.634 183.742 133.31 185.706 135.892 191.239C133.898 180.881 136.61 169.497 143.797 161.772C150.257 154.793 163.336 149.341 172.706 153.517C181.678 157.505 185.018 171.122 187.002 179.635C190.063 192.71 192.324 205.96 193.77 219.311Z" fill="url(#paint2_linear)"/>
<path d="M292.566 84.9429H272.629V134.776H292.566V84.9429Z" fill="#1E71B9"/>
<path d="M292.566 84.9429H272.629V134.776H292.566V84.9429Z" fill="url(#paint3_linear)"/>
<path d="M294.324 77.875H270.867C269.59 77.875 268.555 78.9104 268.555 80.1877V85.1123C268.555 86.3896 269.59 87.425 270.867 87.425H294.324C295.601 87.425 296.636 86.3896 296.636 85.1123V80.1877C296.636 78.9104 295.601 77.875 294.324 77.875Z" fill="#1E71B9"/>
<path d="M222.38 72.4819L150.535 143.997V164.254V258.528H302.528V164.254V150.756L222.38 72.4819Z" fill="#1E71B9"/>
<path d="M222.38 72.4819L150.535 143.997V164.254V258.528H302.528V164.254V150.756L222.38 72.4819Z" fill="url(#paint4_linear)"/>
<g style="mix-blend-mode:multiply" opacity="0.2">
<g style="mix-blend-mode:multiply" opacity="0.2">
<path d="M224.461 67.6074L150.543 141.316V153.049L224.461 82.9692L302.546 156.997V149.62C302.981 149.623 303.408 149.494 303.769 149.25C304.13 149.006 304.409 148.659 304.57 148.254C304.73 147.848 304.765 147.404 304.669 146.979C304.573 146.554 304.35 146.168 304.031 145.872L224.461 67.6074Z" fill="#1E71B9"/>
</g>
</g>
<path d="M308.447 258.528H144.621V270.57H308.447V258.528Z" fill="#1E71B9"/>
<path d="M228.302 182.427H169.746V231.014H228.302V182.427Z" fill="#1E71B9"/>
<path d="M228.302 182.427H169.746V231.014H228.302V182.427Z" fill="url(#paint5_linear)"/>
<path d="M286.841 180.243H248.223V258.528H286.841V180.243Z" fill="#1E71B9"/>
<path d="M283.724 185.228H251.355V254.47H283.724V185.228Z" fill="#1E71B9"/>
<path d="M283.724 185.228H251.355V254.47H283.724V185.228Z" fill="url(#paint6_linear)"/>
<path d="M287.974 175.887H247.321C246.391 175.887 245.637 176.641 245.637 177.572V180.742C245.637 181.672 246.391 182.427 247.321 182.427H287.974C288.904 182.427 289.658 181.672 289.658 180.742V177.572C289.658 176.641 288.904 175.887 287.974 175.887Z" fill="#1E71B9"/>
<path d="M221.022 67.5276L141.801 144.576C141.121 145.269 140.658 146.147 140.47 147.1C140.281 148.053 140.376 149.04 140.741 149.941C141.106 150.841 141.727 151.615 142.526 152.167C143.326 152.719 144.269 153.026 145.24 153.049V153.049C146.51 153.05 147.732 152.561 148.65 151.683L221.062 82.7797C221.978 81.9058 223.196 81.4183 224.462 81.4183C225.728 81.4183 226.945 81.9058 227.861 82.7797L300.274 151.683C301.188 152.56 302.406 153.049 303.673 153.049C304.644 153.026 305.588 152.719 306.387 152.167C307.186 151.615 307.807 150.841 308.172 149.941C308.538 149.04 308.632 148.053 308.444 147.1C308.255 146.147 307.792 145.269 307.112 144.576L227.901 67.5276C226.981 66.6301 225.747 66.1277 224.462 66.1277C223.176 66.1277 221.942 66.6301 221.022 67.5276Z" fill="#1E71B9"/>
<path d="M229.984 180.243H168.059V182.427H229.984V180.243Z" fill="#1E71B9"/>
<path d="M185.993 182.427H184.02V226.967H185.993V182.427Z" fill="#1E71B9"/>
<path d="M200.009 182.427H198.035V226.967H200.009V182.427Z" fill="#1E71B9"/>
<path d="M214.025 182.427H212.051V226.967H214.025V182.427Z" fill="#1E71B9"/>
<path d="M228.302 205.893H169.746V207.558H228.302V205.893Z" fill="#1E71B9"/>
<path d="M226.513 227.714C227.461 227.22 228.263 226.487 228.841 225.589C229.42 224.691 229.755 223.657 229.813 222.59C229.813 221.594 229.464 220.457 228.517 220.318C228.114 220.299 227.714 220.392 227.361 220.587C226.284 221.097 225.324 221.823 224.54 222.72C224.829 221.751 224.947 220.739 224.889 219.729C224.892 219.171 224.718 218.625 224.393 218.171C224.067 217.718 223.605 217.379 223.074 217.204C222.544 217.029 221.971 217.026 221.439 217.197C220.907 217.368 220.443 217.703 220.114 218.154C219.354 219.066 218.815 220.141 218.538 221.295C217.914 219.625 216.828 218.166 215.408 217.088C215.171 216.89 214.891 216.75 214.591 216.679C214.242 216.66 213.896 216.743 213.594 216.918C212.714 217.369 211.968 218.043 211.429 218.872C210.891 219.701 210.578 220.656 210.524 221.643C210.427 221.288 210.225 220.97 209.943 220.731C209.662 220.493 209.315 220.345 208.949 220.308C208.768 220.304 208.589 220.341 208.424 220.416C208.26 220.491 208.114 220.602 207.998 220.741C207.883 220.88 207.8 221.043 207.755 221.218C207.711 221.393 207.707 221.576 207.742 221.753C207.049 221.031 206.175 220.507 205.211 220.237C204.246 219.967 203.227 219.96 202.26 220.218C201.306 220.519 200.489 221.147 199.953 221.991C199.417 222.836 199.196 223.842 199.329 224.833C199.092 224.738 198.838 224.694 198.583 224.707C198.328 224.719 198.079 224.787 197.853 224.906C197.628 225.025 197.43 225.191 197.275 225.394C197.12 225.596 197.011 225.83 196.956 226.08C196.877 226.593 196.91 227.117 197.053 227.616C197.195 228.115 197.445 228.577 197.784 228.97" fill="#1E71B9"/>
<path d="M170.221 227.615L167.968 225.721C167.474 225.391 167.119 224.891 166.971 224.315C166.871 223.318 167.968 222.67 168.965 222.83C169.893 223.089 170.718 223.629 171.327 224.375C171.048 222.302 170.899 219.879 172.424 218.394C173.034 217.891 173.777 217.576 174.562 217.485C175.347 217.395 176.142 217.534 176.85 217.885C178.256 218.623 179.36 219.829 179.97 221.295C180.658 219.112 181.997 217.192 183.808 215.792C183.934 215.648 184.09 215.534 184.265 215.458C184.441 215.382 184.631 215.346 184.822 215.353C185.013 215.36 185.2 215.409 185.369 215.497C185.539 215.585 185.687 215.709 185.802 215.862C186.559 216.584 187.158 217.456 187.559 218.422C187.961 219.389 188.157 220.428 188.135 221.474C188.419 220.822 188.769 220.2 189.181 219.62C189.283 219.437 189.445 219.296 189.64 219.221C189.949 219.132 190.238 219.371 190.467 219.59C191.066 220.178 191.664 220.956 191.464 221.763C191.794 220.438 192.484 219.231 193.458 218.274C194.455 217.407 196.309 217.327 197.057 218.454C197.396 219.059 197.523 219.761 197.416 220.447C197.28 221.907 196.809 223.316 196.04 224.564C196.04 224.076 196.778 223.887 197.166 224.176C197.343 224.341 197.475 224.548 197.55 224.779C197.625 225.009 197.64 225.254 197.595 225.492C197.595 225.97 197.376 226.439 197.356 226.927" fill="#1E71B9"/>
<path d="M226.513 227.714C227.461 227.22 228.263 226.487 228.841 225.589C229.42 224.691 229.755 223.657 229.813 222.59C229.813 221.594 229.464 220.457 228.517 220.318C228.114 220.299 227.714 220.392 227.361 220.587C226.284 221.097 225.324 221.823 224.54 222.72C224.829 221.751 224.947 220.739 224.889 219.729C224.892 219.171 224.718 218.625 224.393 218.171C224.067 217.718 223.605 217.379 223.074 217.204C222.544 217.029 221.971 217.026 221.439 217.197C220.907 217.368 220.443 217.703 220.114 218.154C219.354 219.066 218.815 220.141 218.538 221.295C217.914 219.625 216.828 218.166 215.408 217.088C215.171 216.89 214.891 216.75 214.591 216.679C214.242 216.66 213.896 216.743 213.594 216.918C212.714 217.369 211.968 218.043 211.429 218.872C210.891 219.701 210.578 220.656 210.524 221.643C210.427 221.288 210.225 220.97 209.943 220.731C209.662 220.493 209.315 220.345 208.949 220.308C208.768 220.304 208.589 220.341 208.424 220.416C208.26 220.491 208.114 220.602 207.998 220.741C207.883 220.88 207.8 221.043 207.755 221.218C207.711 221.393 207.707 221.576 207.742 221.753C207.049 221.031 206.175 220.507 205.211 220.237C204.246 219.967 203.227 219.96 202.26 220.218C201.306 220.519 200.489 221.147 199.953 221.991C199.417 222.836 199.196 223.842 199.329 224.833C199.092 224.738 198.838 224.694 198.583 224.707C198.328 224.719 198.079 224.787 197.853 224.906C197.628 225.025 197.43 225.191 197.275 225.394C197.12 225.596 197.011 225.83 196.956 226.08C196.877 226.593 196.91 227.117 197.053 227.616C197.195 228.115 197.445 228.577 197.784 228.97" fill="url(#paint7_linear)"/>
<path d="M228.122 226.967H169.935C167.897 226.967 166.246 228.618 166.246 230.655V236.985C166.246 239.022 167.897 240.674 169.935 240.674H228.122C230.159 240.674 231.81 239.022 231.81 236.985V230.655C231.81 228.618 230.159 226.967 228.122 226.967Z" fill="#1E71B9"/>
<path d="M170.221 227.615L167.968 225.721C167.474 225.391 167.119 224.891 166.971 224.315C166.871 223.318 167.968 222.67 168.965 222.83C169.893 223.089 170.718 223.629 171.327 224.375C171.048 222.302 170.899 219.879 172.424 218.394C173.034 217.891 173.777 217.576 174.562 217.485C175.347 217.395 176.142 217.534 176.85 217.885C178.256 218.623 179.36 219.829 179.97 221.295C180.658 219.112 181.997 217.192 183.808 215.792C183.934 215.648 184.09 215.534 184.265 215.458C184.441 215.382 184.631 215.346 184.822 215.353C185.013 215.36 185.2 215.409 185.369 215.497C185.539 215.585 185.687 215.709 185.802 215.862C186.559 216.584 187.158 217.456 187.559 218.422C187.961 219.389 188.157 220.428 188.135 221.474C188.419 220.822 188.769 220.2 189.181 219.62C189.283 219.437 189.445 219.296 189.64 219.221C189.949 219.132 190.238 219.371 190.467 219.59C191.066 220.178 191.664 220.956 191.464 221.763C191.794 220.438 192.484 219.231 193.458 218.274C194.455 217.407 196.309 217.327 197.057 218.454C197.396 219.059 197.523 219.761 197.416 220.447C197.28 221.907 196.809 223.316 196.04 224.564C196.04 224.076 196.778 223.887 197.166 224.176C197.343 224.341 197.475 224.548 197.55 224.779C197.625 225.009 197.64 225.254 197.595 225.492C197.595 225.97 197.376 226.439 197.356 226.927" fill="url(#paint8_linear)"/>
<defs>
<linearGradient id="paint0_linear" x1="177.148" y1="171.431" x2="175.194" y2="368.722" gradientUnits="userSpaceOnUse">
<stop offset="0.01"/>
<stop offset="0.12" stop-opacity="0.75"/>
<stop offset="1" stop-opacity="0"/>
</linearGradient>
<linearGradient id="paint1_linear" x1="726.096" y1="7209.6" x2="558.774" y2="7214.03" gradientUnits="userSpaceOnUse">
<stop offset="0.01"/>
<stop offset="0.12" stop-opacity="0.75"/>
<stop offset="1" stop-opacity="0"/>
</linearGradient>
<linearGradient id="paint2_linear" x1="22517.3" y1="29703.9" x2="8917.8" y2="20588.4" gradientUnits="userSpaceOnUse">
<stop offset="0.01"/>
<stop offset="0.12" stop-opacity="0.75"/>
<stop offset="1" stop-opacity="0"/>
</linearGradient>
<linearGradient id="paint3_linear" x1="5906.73" y1="3749.2" x2="5942.85" y2="7740.59" gradientUnits="userSpaceOnUse">
<stop offset="0.01"/>
<stop offset="0.12" stop-opacity="0.75"/>
<stop offset="1" stop-opacity="0"/>
</linearGradient>
<linearGradient id="paint4_linear" x1="36706.3" y1="59443.4" x2="26437.1" y2="-8651.77" gradientUnits="userSpaceOnUse">
<stop offset="0.01"/>
<stop offset="0.12" stop-opacity="0.75"/>
<stop offset="1" stop-opacity="0"/>
</linearGradient>
<linearGradient id="paint5_linear" x1="201.018" y1="167.254" x2="199.273" y2="201.806" gradientUnits="userSpaceOnUse">
<stop offset="0.02" stop-color="white" stop-opacity="0"/>
<stop offset="0.58" stop-color="white" stop-opacity="0.39"/>
<stop offset="1" stop-color="white"/>
</linearGradient>
<linearGradient id="paint6_linear" x1="9027.7" y1="19568.3" x2="8558.1" y2="15863.8" gradientUnits="userSpaceOnUse">
<stop offset="0.02" stop-color="white" stop-opacity="0"/>
<stop offset="0.58" stop-color="white" stop-opacity="0.39"/>
<stop offset="1" stop-color="white"/>
</linearGradient>
<linearGradient id="paint7_linear" x1="8119.98" y1="2871.36" x2="8092.38" y2="3252.06" gradientUnits="userSpaceOnUse">
<stop offset="0.01"/>
<stop offset="0.12" stop-opacity="0.75"/>
<stop offset="1" stop-opacity="0"/>
</linearGradient>
<linearGradient id="paint8_linear" x1="6630.36" y1="2791.77" x2="6600.86" y2="3171.25" gradientUnits="userSpaceOnUse">
<stop offset="0.01"/>
<stop offset="0.12" stop-opacity="0.75"/>
<stop offset="1" stop-opacity="0"/>
</linearGradient>
</defs>
</svg>
