<svg width="342" height="350" viewBox="0 0 342 350" fill="none" xmlns="http://www.w3.org/2000/svg">
<path d="M332.999 166.767C333.309 165.78 333.365 164.314 332.35 164.103C332.006 164.059 331.656 164.123 331.35 164.286C326.162 166.457 323.653 172.237 321.623 177.495C320.128 181.386 318.578 185.544 318.803 189.788C318.916 192.48 320.96 196.314 323.864 193.284C326.345 190.676 327.36 183.937 328.53 180.526C330.062 175.958 331.552 171.372 332.999 166.767Z" fill="white"/>
<path d="M321.742 195.102C321.442 195.103 321.146 195.046 320.868 194.933C319.148 194.284 318.133 191.817 318.049 189.816C317.865 185.305 319.585 180.836 320.967 177.241C323.152 171.602 325.717 165.879 331.088 163.638C331.522 163.414 332.016 163.335 332.498 163.412C332.728 163.455 332.946 163.548 333.136 163.684C333.326 163.821 333.484 163.997 333.598 164.201C333.989 165.095 334.019 166.105 333.682 167.021V167.021C332.272 171.616 330.708 176.254 329.143 180.808C328.819 181.752 328.495 182.993 328.156 184.304C327.254 187.828 326.225 191.817 324.322 193.805C324.005 194.188 323.613 194.502 323.168 194.725C322.724 194.948 322.239 195.077 321.742 195.102V195.102ZM332.146 164.779C331.968 164.796 331.795 164.848 331.638 164.934C326.775 166.964 324.35 172.378 322.292 177.749C320.953 181.216 319.289 185.544 319.472 189.759C319.543 191.296 320.318 193.213 321.376 193.622C321.939 193.833 322.588 193.551 323.321 192.79C324.956 191.07 325.985 187.151 326.803 183.923C327.155 182.513 327.48 181.301 327.818 180.3C329.383 175.761 330.905 171.137 332.343 166.556C332.532 166.022 332.532 165.44 332.343 164.906C332.327 164.875 332.302 164.848 332.273 164.828C332.243 164.808 332.209 164.797 332.174 164.793L332.146 164.779Z" fill="#231F20"/>
<path d="M41.1403 208.946C41.1403 208.946 1.89428 250.433 0.639648 256.72C-0.614983 263.007 79.1457 316.534 79.1457 316.534C79.1457 316.534 76.6506 320.58 77.5951 328.671C78.5396 336.763 79.1457 341.753 79.1457 341.753C79.1457 341.753 66.3739 339.272 68.2488 343.318C70.1237 347.364 85.0665 350.479 88.1819 348.957C90.8359 347.426 93.3419 345.651 95.6674 343.656V305.594C95.6674 302.479 53.8839 260.484 53.8839 260.484L76.9748 237.421" fill="white"/>
<path d="M85.4879 349.986C81.643 349.837 77.8419 349.115 74.2103 347.843C71.7151 346.969 68.5715 345.503 67.6411 343.614C67.4503 343.289 67.3606 342.914 67.3831 342.537C67.4057 342.161 67.5397 341.8 67.768 341.5C69.2764 339.568 75.6623 340.428 78.3689 340.893C78.1434 339.089 77.6218 334.775 76.9592 328.756C76.3074 324.71 76.7704 320.562 78.2984 316.759C63.8067 307.004 -1.23672 262.867 0.0179073 256.579C1.27254 250.292 39.0947 210.214 40.7018 208.523C40.8322 208.401 41.004 208.333 41.1826 208.333C41.3612 208.332 41.5331 208.4 41.6638 208.522C41.7945 208.643 41.8741 208.81 41.8865 208.988C41.899 209.166 41.8433 209.343 41.7309 209.481C30.848 220.984 2.40029 251.899 1.39941 256.847C0.750944 260.667 41.2093 290.144 79.6094 315.942C79.7596 316.045 79.865 316.201 79.9042 316.379C79.9435 316.557 79.9137 316.743 79.8209 316.9C79.8209 316.9 77.4667 320.876 78.4112 328.601C79.3557 336.692 79.976 341.669 79.976 341.669C79.9895 341.78 79.9761 341.894 79.9368 341.999C79.8976 342.105 79.8337 342.199 79.7504 342.275C79.6713 342.352 79.575 342.408 79.4696 342.44C79.3641 342.472 79.2526 342.478 79.1443 342.458C74.9152 341.626 69.7557 341.344 68.9662 342.374C68.9662 342.374 68.7971 342.571 68.9662 343.022C69.5019 344.178 71.6024 345.475 74.7178 346.56C80.1592 348.463 86.4042 349.07 87.9549 348.294C90.454 346.853 92.8137 345.182 95.0034 343.304V305.566C94.4818 302.987 69.22 276.808 53.4314 260.907C53.3639 260.844 53.3102 260.767 53.2735 260.683C53.2367 260.598 53.2178 260.506 53.2178 260.414C53.2178 260.321 53.2367 260.23 53.2735 260.145C53.3102 260.06 53.3639 259.984 53.4314 259.92L76.5081 236.844C76.5738 236.778 76.6518 236.726 76.7377 236.69C76.8236 236.655 76.9156 236.636 77.0086 236.636C77.1015 236.636 77.1935 236.655 77.2794 236.69C77.3653 236.726 77.4433 236.778 77.509 236.844C77.5747 236.909 77.6268 236.987 77.6624 237.073C77.698 237.159 77.7163 237.251 77.7163 237.344C77.7163 237.437 77.698 237.529 77.6624 237.615C77.6268 237.701 77.5747 237.779 77.509 237.844L54.9538 260.4C65.3292 270.86 96.4412 302.451 96.4412 305.51V343.572C96.4431 343.673 96.4226 343.774 96.3811 343.866C96.3397 343.959 96.2784 344.041 96.2016 344.107C93.8341 346.144 91.2753 347.948 88.561 349.493C87.5862 349.884 86.5362 350.052 85.4879 349.986Z" fill="#231F20"/>
<path d="M241.457 234.546C241.457 234.546 254.934 311.698 278.518 301.83C302.102 291.962 315.593 208.945 315.593 208.945L292.093 211.765L278.067 242.933L261.39 189.731L241.457 234.546Z" fill="white"/>
<path d="M274.402 303.395C272.458 303.379 270.551 302.865 268.862 301.901C261.32 297.756 254.3 285.168 247.985 264.459C245.04 254.663 242.626 244.715 240.753 234.658C240.718 234.524 240.718 234.383 240.753 234.249L260.7 189.393C260.757 189.26 260.854 189.148 260.978 189.075C261.103 189.001 261.247 188.969 261.391 188.984C261.532 188.994 261.666 189.045 261.779 189.13C261.891 189.215 261.977 189.331 262.025 189.463L278.138 240.903L291.403 211.426C291.453 211.314 291.531 211.217 291.63 211.146C291.729 211.074 291.846 211.03 291.967 211.017L315.467 208.198C315.575 208.188 315.684 208.202 315.786 208.238C315.889 208.275 315.982 208.333 316.059 208.41C316.135 208.489 316.191 208.586 316.223 208.691C316.254 208.796 316.261 208.907 316.242 209.016C313.754 223.456 310.512 237.755 306.53 251.856C298.071 281.263 288.739 298.278 278.744 302.436C277.374 303.037 275.899 303.363 274.402 303.395V303.395ZM242.177 234.63C242.868 238.422 252.792 291.483 269.539 300.66C270.846 301.431 272.317 301.881 273.832 301.972C275.347 302.062 276.861 301.792 278.251 301.182C299.876 292.174 313.169 218.869 314.734 209.763L292.559 212.371L278.702 243.159C278.649 243.292 278.554 243.404 278.433 243.48C278.311 243.556 278.168 243.592 278.025 243.581C277.881 243.576 277.743 243.525 277.629 243.437C277.515 243.348 277.432 243.226 277.391 243.088L261.278 191.676L242.177 234.63Z" fill="#231F20"/>
<path d="M222.285 129.763C222.285 129.763 229.728 132.836 243.29 142.182C256.851 151.528 286.99 224.255 286.99 224.255L233.915 251.363L232.421 217.249L222.285 129.763Z" fill="#1E71B9"/>
<path d="M239.822 280.953C241.035 226.398 241.852 148.695 222.286 129.763C222.286 129.763 130.387 118.119 114.979 133.992C103.068 159.691 103.505 228.893 100.699 281.418L239.822 280.953Z" fill="#1E71B9"/>
<path d="M210.683 78.9572C210.148 77.8577 215.434 65.4946 213.672 45.9985C211.91 26.5024 176.117 19.6653 163.205 21.3006C150.292 22.9358 137.421 36.187 134.771 49.0716C132.121 61.9563 137.76 85.1035 137.76 85.1035L210.683 78.9572Z" fill="white"/>
<path d="M137.75 85.8224C137.593 85.8232 137.44 85.7706 137.317 85.6732C137.194 85.5759 137.108 85.4396 137.073 85.2867C136.847 84.3422 131.434 61.8434 134.084 48.9447C136.904 35.2565 150.197 22.2732 163.124 20.6239C171.977 19.482 193.968 22.4001 206.247 32.268C211.181 36.2151 213.915 40.8248 214.381 45.942C215.3 56.0416 214.466 66.2241 211.914 76.0391C211.656 76.9246 211.472 77.8299 211.364 78.7457C211.416 78.8383 211.443 78.9427 211.443 79.0488C211.443 79.1549 211.416 79.2593 211.364 79.3519C211.299 79.4457 211.213 79.5228 211.112 79.5767C211.012 79.6306 210.9 79.6599 210.786 79.662L137.862 85.8224H137.75ZM167.353 21.7939C165.978 21.7801 164.603 21.8554 163.237 22.0195C151.071 23.5842 138.06 36.2997 135.409 49.2266C133.055 60.6875 137.411 80.6911 138.229 84.3704L209.954 78.3087C209.954 77.773 210.208 76.9836 210.518 75.7008C213.031 66.0472 213.852 56.031 212.943 46.0971C212.52 41.3746 209.954 37.1032 205.345 33.4098C194.997 25.0362 177.531 21.7939 167.41 21.7939H167.353Z" fill="#231F20"/>
<path d="M148.559 134.26C148.559 134.26 157.792 147.553 174.046 147.553C190.3 147.553 195.05 139.786 195.05 139.786L194.36 131.102L192.767 110.943L191.258 92.0957H154.141L152.915 107.504L150.419 107.786L148.559 134.26Z" fill="white"/>
<path d="M174.043 148.258C157.606 148.258 148.062 134.795 147.977 134.654C147.88 134.525 147.835 134.364 147.851 134.203L149.711 107.743C149.718 107.578 149.784 107.421 149.899 107.302C150.013 107.182 150.167 107.109 150.332 107.095L152.249 106.869L153.433 92.0393C153.45 91.8635 153.532 91.7003 153.662 91.5806C153.792 91.461 153.961 91.3935 154.138 91.3909H191.255C191.433 91.3903 191.604 91.4568 191.735 91.577C191.865 91.6972 191.946 91.8623 191.96 92.0393L195.752 139.715C195.758 139.864 195.719 140.012 195.639 140.138C195.442 140.491 190.494 148.258 174.043 148.258ZM149.331 134.077C150.543 135.698 159.481 146.877 174.099 146.877C188.337 146.877 193.539 140.744 194.385 139.617L190.663 92.8288H154.786L153.56 107.56C153.551 107.724 153.483 107.88 153.369 107.999C153.256 108.118 153.103 108.192 152.94 108.209L151.037 108.42L149.331 134.077Z" fill="#231F20"/>
<path d="M150.023 106.08C150.425 108.365 151.273 110.55 152.519 112.508C155.635 117.03 159.831 120.703 164.727 123.193C172.72 127.62 184.66 132.596 194.33 131.102L192.737 110.943C185.634 111.824 178.452 111.871 171.338 111.084C165.079 110.534 158.651 109.928 152.885 107.503C151.927 107.066 150.954 106.601 150.023 106.08Z" fill="#231F20"/>
<path d="M190.665 132.075C180.91 132.075 170.267 127.07 164.374 123.814C159.375 121.273 155.094 117.516 151.927 112.889C150.638 110.85 149.757 108.581 149.333 106.207C149.308 106.075 149.321 105.938 149.371 105.813C149.421 105.688 149.505 105.58 149.615 105.502C149.726 105.43 149.856 105.392 149.988 105.392C150.121 105.392 150.25 105.43 150.362 105.502C151.208 105.967 152.138 106.418 153.181 106.912C158.919 109.322 165.558 109.914 171.409 110.422C178.47 111.217 185.601 111.175 192.653 110.295C192.747 110.277 192.844 110.281 192.936 110.305C193.029 110.33 193.115 110.374 193.188 110.436C193.265 110.495 193.329 110.569 193.375 110.654C193.421 110.739 193.449 110.833 193.456 110.929L195.049 131.088C195.066 131.266 195.014 131.444 194.904 131.586C194.794 131.727 194.634 131.821 194.457 131.849C193.2 132.016 191.933 132.091 190.665 132.075V132.075ZM151.038 107.419C151.49 109.086 152.193 110.674 153.125 112.127C155.521 116.004 159.539 119.514 165.065 122.573C171.423 126.097 183.49 131.736 193.611 130.496L192.117 111.747C185.203 112.53 178.224 112.53 171.31 111.747C165.347 111.225 158.623 110.633 152.631 108.124L151.038 107.419Z" fill="#231F20"/>
<path d="M138.252 53.1033C138.252 53.1033 126.34 53.3993 123.07 58.3051C119.799 63.2108 123.31 88.9096 124.48 90.5448C125.65 92.1801 144.695 96.4233 144.695 96.4233L138.252 53.1033Z" fill="white"/>
<path d="M144.691 97.1282H144.536C140.011 96.1132 125.125 92.7018 123.898 90.9819C122.672 89.2621 119.049 63.0699 122.545 57.9527C126.041 52.8355 137.798 52.4408 138.291 52.4267C138.465 52.4183 138.636 52.4761 138.77 52.5886C138.903 52.701 138.989 52.8597 139.01 53.0329L145.452 96.3529C145.465 96.4666 145.451 96.5817 145.412 96.6893C145.373 96.7968 145.31 96.8939 145.227 96.9732C145.152 97.0334 145.067 97.0781 144.975 97.1047C144.883 97.1314 144.786 97.1394 144.691 97.1282V97.1282ZM137.643 53.8364C135.19 53.9774 126.267 54.7668 123.644 58.6999C120.614 63.2532 123.926 88.3035 125.054 90.1502C125.872 91.0383 135.077 93.5335 143.845 95.5071L137.643 53.8364Z" fill="#231F20"/>
<path d="M207.316 53.1033C207.316 53.1033 219.228 53.3993 222.498 58.3051C225.769 63.2108 222.273 88.9096 221.089 90.5448C219.904 92.1801 200.859 96.4233 200.859 96.4233L207.316 53.1033Z" fill="white"/>
<path d="M200.868 97.1281C200.692 97.1255 200.522 97.0606 200.389 96.9448C200.305 96.867 200.242 96.7696 200.205 96.6614C200.168 96.5531 200.159 96.4374 200.177 96.3246L206.606 53.0046C206.627 52.8314 206.713 52.6727 206.846 52.5602C206.979 52.4478 207.15 52.39 207.325 52.3984C207.832 52.3984 219.645 52.7649 223.085 57.9244C226.525 63.0839 222.916 89.2197 221.675 90.9677C220.435 92.7157 205.577 96.099 201.037 97.114L200.868 97.1281ZM207.917 53.8363L201.714 95.5069C210.496 93.5334 219.702 91.0382 220.533 90.136C221.633 88.3739 224.946 63.2531 221.943 58.6997C219.293 54.7667 210.355 53.9772 207.917 53.8363V53.8363Z" fill="#231F20"/>
<path d="M171.619 117.653H174.932C190.636 117.653 203.379 104.487 203.379 88.2471V68.9765C203.379 67.0029 202.731 59.8699 199.869 60.3773C199.073 60.5985 198.343 61.0097 197.741 61.5756C196.121 62.8618 194.395 64.0078 192.581 65.0011C192.295 65.2108 191.965 65.3537 191.616 65.4196C191.267 65.4854 190.908 65.4725 190.565 65.3818C189.55 64.9589 189.508 63.5069 189.635 62.3791L189.832 60.5606C189.832 60.18 189.832 59.6584 189.452 59.6161C183.686 62.9712 177.864 66.143 171.125 66.6646C170.621 66.7758 170.097 66.755 169.603 66.6044C169.109 66.4538 168.662 66.1783 168.306 65.8047C168.028 65.3464 167.886 64.8182 167.897 64.2822C167.743 62.0274 168.12 59.7678 168.997 57.6848C166.649 59.9964 163.811 61.7501 160.694 62.8161C156.465 64.2258 152.588 65.7342 148.401 67.158L140.605 69.8223C142.114 79.2955 141.663 90.0515 145.145 99.1299C147.188 104.518 150.806 109.167 155.528 112.471C160.249 115.775 165.856 117.58 171.619 117.653V117.653Z" fill="white"/>
<path d="M174.932 118.358H171.619C165.705 118.279 159.953 116.417 155.114 113.017C150.275 109.617 146.575 104.836 144.496 99.2991C142.156 93.1951 141.578 86.344 141 79.7184C140.718 76.4338 140.422 73.0224 139.915 69.8505C139.889 69.6873 139.922 69.5202 140.007 69.3784C140.092 69.2367 140.224 69.1294 140.38 69.0752L148.19 66.4109C150.206 65.7201 152.165 65.0012 154.125 64.3104C156.084 63.6197 158.354 62.802 160.482 62.069C163.501 61.0355 166.247 59.3346 168.518 57.0928C168.633 56.9784 168.785 56.9075 168.947 56.8921C169.108 56.8767 169.271 56.9177 169.406 57.0082C169.543 57.0979 169.645 57.2338 169.691 57.3914C169.738 57.549 169.726 57.718 169.659 57.8681C168.823 59.8529 168.465 62.0068 168.616 64.1554C168.612 64.5627 168.709 64.9647 168.898 65.3254C169.208 65.7906 169.927 65.9598 171.111 65.8752C177.554 65.3959 183.066 62.4496 189.099 58.9536C189.229 58.872 189.384 58.8372 189.536 58.8549C190.241 58.9395 190.636 59.6443 190.537 60.5888L190.326 62.4073C190.326 62.9994 190.171 64.4091 190.833 64.6769C191.08 64.715 191.331 64.7034 191.573 64.6429C191.816 64.5823 192.043 64.4741 192.243 64.3245C194.001 63.3607 195.679 62.2576 197.261 61.0258C197.942 60.3572 198.781 59.8721 199.7 59.6161C200.034 59.5533 200.378 59.5676 200.705 59.658C201.032 59.7484 201.335 59.9125 201.589 60.1377C203.929 62.0972 204.042 68.8356 204.042 68.906V88.2471C204.084 104.853 191.002 118.358 174.932 118.358ZM141.395 70.2171C141.86 73.262 142.142 76.4902 142.41 79.6056C142.974 86.1326 143.552 92.8709 145.807 98.7916C147.784 104.063 151.304 108.617 155.909 111.856C160.514 115.095 165.989 116.87 171.619 116.949H174.932C190.227 116.949 202.675 104.078 202.675 88.2471V68.9765C202.675 66.862 202.097 62.4355 200.729 61.2937C200.632 61.2028 200.516 61.1353 200.389 61.0962C200.262 61.0571 200.127 61.0475 199.996 61.0681C199.349 61.264 198.756 61.6065 198.262 62.069C196.581 63.3801 194.794 64.5494 192.919 65.5651C192.543 65.829 192.111 66.0042 191.657 66.0775C191.203 66.1507 190.738 66.1201 190.297 65.988C189.508 65.6496 188.648 64.7474 188.888 62.2382L189.071 60.5606C183.348 63.8734 177.638 66.8056 171.168 67.2849C170.536 67.4164 169.88 67.3774 169.268 67.1717C168.656 66.9661 168.11 66.6013 167.686 66.1148C167.343 65.555 167.162 64.9107 167.164 64.254C167.055 62.7645 167.174 61.2671 167.517 59.8135C165.527 61.3769 163.287 62.5924 160.891 63.4082C158.734 64.1272 156.662 64.8179 154.562 65.6355C152.461 66.4532 150.628 67.0452 148.599 67.736L141.395 70.2171Z" fill="#231F20"/>
<path d="M173.591 98.0866C172.14 98.09 170.691 98.01 169.249 97.8469C169.065 97.8257 168.896 97.7323 168.779 97.587C168.663 97.4418 168.609 97.2565 168.629 97.0716C168.639 96.9788 168.668 96.889 168.714 96.8074C168.759 96.7258 168.821 96.654 168.894 96.5963C168.967 96.5386 169.052 96.4961 169.142 96.4712C169.232 96.4463 169.326 96.4395 169.418 96.4513C172.103 96.7443 174.811 96.7443 177.496 96.4513C177.581 96.4513 177.679 96.4513 177.778 96.2399C179.117 94.0126 175.607 82.735 173.084 76.1517C173.05 76.0657 173.034 75.9739 173.036 75.8816C173.039 75.7892 173.059 75.6983 173.097 75.6142C173.136 75.5301 173.19 75.4545 173.258 75.3919C173.326 75.3292 173.406 75.2808 173.492 75.2495C173.667 75.1839 173.859 75.1884 174.03 75.262C174.201 75.3356 174.337 75.4726 174.409 75.6442C175.1 77.4627 181.119 93.4064 178.99 96.9588C178.859 97.2036 178.669 97.4125 178.438 97.5673C178.207 97.7221 177.942 97.8181 177.665 97.8469C176.314 98.0136 174.953 98.0936 173.591 98.0866V98.0866Z" fill="#231F20"/>
<path d="M175.286 106.799C171.186 106.618 167.188 105.458 163.628 103.415C163.466 103.323 163.345 103.173 163.29 102.995C163.235 102.817 163.25 102.624 163.332 102.457C163.422 102.292 163.572 102.169 163.751 102.114C163.93 102.059 164.124 102.076 164.291 102.161C170.113 105.22 175.117 106.108 179.177 104.797C181.592 104.043 183.641 102.421 184.929 100.244C184.969 100.16 185.026 100.086 185.096 100.024C185.165 99.9631 185.246 99.916 185.334 99.8859C185.421 99.8558 185.514 99.8433 185.607 99.849C185.699 99.8548 185.79 99.8787 185.873 99.9194C185.956 99.9601 186.031 100.017 186.092 100.086C186.154 100.156 186.201 100.237 186.231 100.325C186.261 100.412 186.274 100.505 186.268 100.598C186.262 100.69 186.238 100.781 186.197 100.864C184.74 103.386 182.384 105.264 179.6 106.122C178.207 106.573 176.751 106.801 175.286 106.799V106.799Z" fill="#231F20"/>
<path d="M159.89 88.4445H147.922C145.087 88.4309 142.36 87.3597 140.274 85.4405C138.188 83.5214 136.894 80.8927 136.644 78.0692L135.517 64.4092C135.505 64.3119 135.515 64.2131 135.547 64.1203C135.578 64.0275 135.631 63.9431 135.7 63.8735C135.764 63.8021 135.842 63.7452 135.929 63.7063C136.017 63.6674 136.112 63.6475 136.207 63.648H209.441C209.545 63.6495 209.648 63.6729 209.743 63.7166C209.838 63.7603 209.922 63.8234 209.991 63.9017C210.055 63.985 210.1 64.0807 210.124 64.1827C210.149 64.2847 210.151 64.3907 210.132 64.4938L207.411 78.5062C206.918 81.0889 205.538 83.4183 203.51 85.0914C201.481 86.7646 198.932 87.6764 196.303 87.6692H186.435C184.66 87.6654 182.911 87.2466 181.328 86.4461C179.744 85.6457 178.37 84.4859 177.314 83.0595L173.536 77.9282L168.828 84.0322C167.77 85.397 166.416 86.5034 164.867 87.2679C163.319 88.0323 161.617 88.4346 159.89 88.4445V88.4445ZM137.011 65.0013L138.082 77.8859C138.297 80.3592 139.428 82.663 141.253 84.3452C143.079 86.0274 145.468 86.9666 147.95 86.9784H159.89C161.407 86.9765 162.903 86.6274 164.264 85.9579C165.625 85.2884 166.815 84.3162 167.742 83.1159L173.015 76.2788C173.082 76.1911 173.17 76.1209 173.271 76.0743C173.371 76.0277 173.482 76.006 173.592 76.011C173.7 76.0098 173.806 76.0348 173.902 76.084C173.998 76.1331 174.08 76.2048 174.142 76.2929L178.484 82.1855C179.407 83.434 180.609 84.449 181.995 85.1491C183.38 85.8493 184.911 86.2151 186.463 86.2172H196.331C198.633 86.225 200.866 85.4274 202.642 83.9626C204.419 82.4977 205.627 80.4578 206.058 78.196L208.623 65.0013H137.011Z" fill="#231F20"/>
<path d="M215.59 49.0576C215.59 53.4277 196.672 59.9969 173.299 59.9969C149.926 59.9969 131.008 53.4277 131.008 49.0576C158.935 43.9264 187.564 43.9264 215.491 49.0576H215.59Z" fill="white"/>
<path d="M173.299 60.772C150.18 60.772 130.359 54.372 130.359 49.1279C130.359 48.9655 130.415 48.8079 130.518 48.6821C130.621 48.5562 130.764 48.4697 130.923 48.4372C158.944 43.2872 187.668 43.2872 215.688 48.4372C215.848 48.4697 215.991 48.5562 216.093 48.6821C216.196 48.8079 216.252 48.9655 216.252 49.1279C216.224 54.3015 196.404 60.772 173.299 60.772ZM131.896 49.6918C133.531 53.2302 150.49 59.3623 173.299 59.3623C196.108 59.3623 213.052 53.3006 214.702 49.6918C187.321 44.7486 159.277 44.7486 131.896 49.6918V49.6918Z" fill="#231F20"/>
<path d="M173.299 4.08813C184.515 4.08813 195.272 8.54377 203.203 16.4749C211.134 24.406 215.59 35.1628 215.59 46.3791V49.1139H131.008V46.3227C131.023 35.1162 135.485 24.3738 143.414 16.4549C151.344 8.53602 162.092 4.08812 173.299 4.08813V4.08813Z" fill="white"/>
<path d="M215.591 49.7624H131.01C130.823 49.7624 130.643 49.6881 130.511 49.5559C130.379 49.4237 130.305 49.2445 130.305 49.0575V46.3227C130.509 35.0674 135.123 24.3419 143.155 16.4543C151.187 8.56663 161.994 4.14734 173.251 4.14734C184.508 4.14734 195.316 8.56663 203.347 16.4543C211.379 24.3419 215.994 35.0674 216.198 46.3227V49.0575C216.199 49.2286 216.139 49.3944 216.027 49.5241C215.916 49.6537 215.761 49.7384 215.591 49.7624ZM131.813 48.3527H214.887V46.3227C214.686 35.439 210.222 25.0688 202.454 17.4427C194.686 9.8167 184.235 5.54416 173.35 5.54416C162.464 5.54416 152.014 9.8167 144.246 17.4427C136.478 25.0688 132.014 35.439 131.813 46.3227V48.3527Z" fill="#231F20"/>
<path d="M169.844 0.634521H176.709C178.429 0.634521 180.078 1.31772 181.295 2.53382C182.511 3.74992 183.194 5.39931 183.194 7.11913V49.0576H163.359V7.13323C163.358 6.28047 163.524 5.43572 163.849 4.64735C164.174 3.85897 164.651 3.14245 165.254 2.5388C165.856 1.93515 166.572 1.45624 167.359 1.12948C168.147 0.802715 168.991 0.634519 169.844 0.634521V0.634521Z" fill="white"/>
<path d="M183.167 49.7623H163.431C163.244 49.7623 163.065 49.6881 162.933 49.5559C162.801 49.4237 162.727 49.2444 162.727 49.0575V7.20356C162.725 6.25824 162.909 5.32183 163.27 4.44794C163.63 3.57405 164.16 2.77982 164.827 2.11073C165.495 1.44163 166.288 0.910797 167.161 0.548612C168.035 0.186426 168.971 -1.81721e-06 169.916 0H176.781C178.689 0.00373398 180.518 0.764326 181.866 2.11485C183.214 3.46537 183.971 5.29549 183.971 7.20356V49.0575C183.972 49.159 183.951 49.2595 183.909 49.3521C183.868 49.4448 183.807 49.5274 183.731 49.5943C183.654 49.6612 183.565 49.7109 183.467 49.7399C183.37 49.7689 183.268 49.7765 183.167 49.7623ZM164.038 48.3526H182.462V7.20356C182.462 5.66937 181.854 4.19781 180.77 3.11166C179.687 2.0255 178.217 1.41343 176.683 1.4097H169.817C168.283 1.41343 166.813 2.0255 165.73 3.11166C164.646 4.19781 164.038 5.66937 164.038 7.20356V48.3526Z" fill="#231F20"/>
<path d="M159.526 79.2533C160.686 79.2533 161.627 77.2462 161.627 74.7704C161.627 72.2946 160.686 70.2876 159.526 70.2876C158.366 70.2876 157.426 72.2946 157.426 74.7704C157.426 77.2462 158.366 79.2533 159.526 79.2533Z" fill="#231F20"/>
<path d="M189.819 79.2533C190.979 79.2533 191.92 77.2462 191.92 74.7704C191.92 72.2946 190.979 70.2876 189.819 70.2876C188.659 70.2876 187.719 72.2946 187.719 74.7704C187.719 77.2462 188.659 79.2533 189.819 79.2533Z" fill="#231F20"/>
<path d="M148.739 122.009C148.739 122.009 135.516 123.179 136.545 128.156C137.574 133.132 160.51 162.341 160.51 162.341L172.027 147.553C172.027 147.553 156.098 138.432 148.739 122.009Z" fill="white"/>
<path d="M160.613 163.046C160.507 163.044 160.403 163.019 160.308 162.973C160.213 162.927 160.13 162.86 160.063 162.778C159.119 161.58 136.944 133.386 135.915 128.297C135.816 127.832 135.82 127.351 135.927 126.888C136.035 126.426 136.242 125.992 136.535 125.618C139.087 122.193 148.335 121.389 148.729 121.389C148.875 121.374 149.022 121.405 149.148 121.478C149.275 121.552 149.375 121.664 149.434 121.798C156.61 137.812 172.328 146.919 172.483 147.003C172.572 147.052 172.649 147.12 172.708 147.203C172.766 147.287 172.805 147.382 172.821 147.483C172.843 147.58 172.843 147.681 172.821 147.779C172.799 147.876 172.756 147.968 172.694 148.046L161.177 162.848C161.106 162.925 161.018 162.983 160.92 163.017C160.821 163.052 160.716 163.062 160.613 163.046V163.046ZM148.306 122.799C145.487 123.095 139.313 124.208 137.607 126.492C137.431 126.706 137.306 126.956 137.24 127.224C137.174 127.493 137.17 127.772 137.226 128.043C138.016 131.891 153.832 152.642 160.557 161.227L171.031 147.765C167.887 145.763 154.876 136.98 148.306 122.799Z" fill="#231F20"/>
<path d="M194.558 122.009C194.558 122.009 207.767 123.179 206.752 128.156C205.737 133.132 182.787 162.341 182.787 162.341L171.27 147.553C171.27 147.553 187.199 138.432 194.558 122.009Z" fill="white"/>
<path d="M182.725 163.046C182.518 163.019 182.325 162.925 182.175 162.778L170.658 147.976C170.594 147.898 170.548 147.808 170.524 147.71C170.5 147.612 170.497 147.511 170.517 147.412C170.538 147.314 170.579 147.22 170.637 147.138C170.696 147.056 170.77 146.986 170.856 146.933C171.025 146.848 186.729 137.742 193.904 121.727C193.959 121.591 194.059 121.476 194.186 121.402C194.314 121.328 194.463 121.299 194.609 121.319C195.004 121.319 204.251 122.193 206.803 125.548C207.101 125.919 207.313 126.352 207.423 126.815C207.533 127.279 207.537 127.761 207.437 128.226C206.394 133.315 184.22 161.509 183.275 162.707C183.218 162.804 183.138 162.886 183.042 162.945C182.946 163.004 182.838 163.038 182.725 163.046V163.046ZM172.251 147.736L182.725 161.199C189.464 152.614 205.28 131.863 206.056 128.015C206.112 127.744 206.108 127.465 206.042 127.196C205.976 126.928 205.851 126.678 205.675 126.464C203.983 124.18 197.795 123.067 194.99 122.771C188.42 136.98 175.395 145.763 172.251 147.736Z" fill="#231F20"/>
<path d="M225.807 235.307V197.47H115.499V235.307L95.6641 252.914V347.307H245.628V252.914L225.807 235.307Z" fill="#231F20"/>
<path d="M245.633 348.012H95.6697C95.4828 348.012 95.3035 347.938 95.1713 347.806C95.0391 347.673 94.9648 347.494 94.9648 347.307V252.857C94.966 252.759 94.9879 252.661 95.0292 252.571C95.0705 252.481 95.1302 252.401 95.2045 252.336L114.799 234.926V197.513C114.799 197.326 114.874 197.147 115.006 197.014C115.138 196.882 115.317 196.808 115.504 196.808H225.813C226 196.808 226.179 196.882 226.311 197.014C226.444 197.147 226.518 197.326 226.518 197.513V235.025L246.113 252.435C246.183 252.502 246.239 252.583 246.278 252.673C246.317 252.762 246.337 252.859 246.338 252.956V347.406C246.314 347.575 246.23 347.73 246.1 347.842C245.97 347.953 245.804 348.014 245.633 348.012ZM96.3745 346.602H244.928V253.238L225.348 235.828C225.273 235.763 225.214 235.683 225.172 235.593C225.131 235.503 225.109 235.406 225.108 235.307V198.175H116.209V235.307C116.205 235.405 116.182 235.502 116.141 235.591C116.1 235.681 116.042 235.761 115.969 235.828L96.3745 253.238V346.602Z" fill="#231F20"/>
<path d="M126.494 211.173H140.619L136.432 126.069L121.715 129.763L126.494 211.173Z" fill="white"/>
<path d="M140.622 211.878H126.525C126.345 211.878 126.172 211.81 126.041 211.686C125.91 211.563 125.831 211.395 125.82 211.215L121.013 129.847C121.002 129.682 121.049 129.517 121.147 129.383C121.245 129.249 121.388 129.154 121.549 129.114L136.266 125.435C136.367 125.407 136.474 125.403 136.577 125.422C136.68 125.441 136.777 125.484 136.861 125.546C136.946 125.609 137.014 125.69 137.063 125.783C137.111 125.876 137.138 125.979 137.14 126.083L141.369 211.187C141.368 211.379 141.298 211.564 141.172 211.708C141.097 211.773 141.009 211.821 140.915 211.85C140.82 211.88 140.721 211.889 140.622 211.878ZM127.16 210.468H139.847L135.773 127.028L122.451 130.369L127.16 210.468Z" fill="#231F20"/>
<path d="M217.494 211.173H203.383L207.556 126.069L222.287 129.763L217.494 211.173Z" fill="white"/>
<path d="M217.492 211.878H203.395C203.299 211.882 203.203 211.866 203.113 211.83C203.024 211.794 202.943 211.74 202.876 211.671C202.81 211.601 202.759 211.518 202.726 211.428C202.694 211.337 202.682 211.24 202.69 211.144L206.919 126.041C206.924 125.937 206.952 125.835 207.001 125.742C207.05 125.65 207.118 125.569 207.201 125.505C207.284 125.442 207.381 125.399 207.484 125.379C207.586 125.36 207.692 125.364 207.793 125.393L222.524 129.072C222.683 129.114 222.822 129.211 222.917 129.344C223.013 129.478 223.058 129.641 223.046 129.805L218.267 211.215C218.262 211.31 218.237 211.403 218.195 211.489C218.153 211.574 218.094 211.65 218.021 211.712C217.949 211.774 217.864 211.821 217.773 211.849C217.682 211.878 217.587 211.887 217.492 211.878ZM204.114 210.468H216.801L221.509 130.298L208.216 127.028L204.114 210.468Z" fill="#231F20"/>
<path d="M143.626 202.136H123.383V215.74H143.626V202.136Z" fill="#D1D3D4"/>
<path d="M143.694 216.459H123.381C123.195 216.456 123.018 216.38 122.886 216.249C122.755 216.117 122.679 215.94 122.676 215.754V202.137C122.679 201.951 122.755 201.774 122.886 201.642C123.018 201.511 123.195 201.435 123.381 201.432H143.694C143.88 201.435 144.057 201.511 144.189 201.642C144.32 201.774 144.396 201.951 144.399 202.137V215.754C144.396 215.94 144.32 216.117 144.189 216.249C144.057 216.38 143.88 216.456 143.694 216.459V216.459ZM124.142 215.05H142.99V202.842H124.085L124.142 215.05Z" fill="#231F20"/>
<path d="M220.853 202.593L200.629 201.72L200.043 215.311L220.267 216.184L220.853 202.593Z" fill="#D1D3D4"/>
<path d="M220.284 216.882L200.083 216.008C199.992 216.006 199.902 215.985 199.819 215.946C199.737 215.908 199.663 215.852 199.604 215.782C199.477 215.643 199.407 215.463 199.406 215.275L199.998 201.686C200.008 201.498 200.088 201.322 200.224 201.192C200.292 201.129 200.372 201.08 200.459 201.049C200.546 201.017 200.639 201.004 200.731 201.009L220.961 201.883C221.053 201.887 221.144 201.908 221.228 201.947C221.312 201.986 221.388 202.041 221.451 202.109C221.514 202.177 221.562 202.257 221.594 202.344C221.626 202.431 221.641 202.523 221.637 202.616L221.045 216.205C221.042 216.3 221.019 216.394 220.978 216.48C220.938 216.566 220.88 216.643 220.809 216.706C220.738 216.77 220.655 216.818 220.564 216.848C220.474 216.878 220.379 216.89 220.284 216.882V216.882ZM200.788 214.641L219.607 215.444L220.129 203.264L201.309 202.447L200.788 214.641Z" fill="#231F20"/>
<path d="M173.549 328.136H167.755C157.789 328.125 148.233 324.162 141.183 317.117C134.133 310.073 130.163 300.52 130.145 290.553V259.54C130.145 259.353 130.219 259.174 130.351 259.041C130.483 258.909 130.662 258.835 130.849 258.835H210.455C210.642 258.835 210.821 258.909 210.953 259.041C211.086 259.174 211.16 259.353 211.16 259.54V290.553C211.141 300.52 207.172 310.073 200.122 317.117C193.071 324.162 183.516 328.125 173.549 328.136V328.136ZM131.554 260.174V290.553C131.565 300.151 135.383 309.352 142.17 316.139C148.956 322.925 158.158 326.743 167.755 326.754H173.549C183.147 326.743 192.348 322.925 199.135 316.139C205.921 309.352 209.739 300.151 209.75 290.553V260.174H131.554Z" fill="#D1D3D4"/>
<path d="M116.991 132.286C108.523 138.007 100.359 144.167 92.5325 150.739C71.0769 168.769 41.2477 198.81 24.9375 215.754L71.9086 253.745L101.681 224.748C101.681 224.748 126.957 145.988 116.991 132.286Z" fill="#1E71B9"/>
<path d="M337.389 149.921L309.251 129.297L250.988 208.776L253.92 216.346L282.072 236.97L340.335 157.505L337.389 149.921Z" fill="#231F20"/>
<path d="M282.07 237.675C281.92 237.676 281.772 237.632 281.647 237.548L253.453 216.91C253.34 216.838 253.255 216.728 253.214 216.6L250.267 209.03C250.224 208.919 250.21 208.799 250.224 208.681C250.239 208.563 250.283 208.45 250.352 208.353L308.629 128.874C308.744 128.726 308.91 128.626 309.094 128.592C309.278 128.569 309.464 128.614 309.616 128.719L337.81 149.357C337.923 149.43 338.008 149.539 338.049 149.667L340.995 157.237C341.038 157.348 341.053 157.468 341.039 157.586C341.024 157.705 340.98 157.817 340.911 157.914L282.648 237.393C282.593 237.468 282.524 237.532 282.444 237.581C282.364 237.629 282.275 237.661 282.183 237.675H282.07ZM254.511 215.839L281.915 235.927L339.529 157.336L336.795 150.288L309.39 130.199L251.776 208.79L254.511 215.839Z" fill="#231F20"/>
<path d="M337.426 149.906L309.285 129.281L251.024 208.767L279.165 229.393L337.426 149.906Z" fill="white"/>
<path d="M279.125 230.105C278.972 230.108 278.823 230.058 278.702 229.964L250.508 209.34C250.36 209.228 250.26 209.062 250.231 208.878C250.202 208.694 250.246 208.506 250.353 208.353L308.63 128.874C308.745 128.726 308.911 128.626 309.095 128.592C309.279 128.569 309.465 128.614 309.617 128.719L337.811 149.357C337.886 149.412 337.95 149.48 337.998 149.56C338.047 149.639 338.079 149.727 338.093 149.818C338.108 149.91 338.104 150.004 338.082 150.094C338.06 150.184 338.021 150.269 337.966 150.344L279.703 229.809C279.648 229.884 279.579 229.948 279.499 229.996C279.419 230.045 279.33 230.077 279.238 230.091L279.125 230.105ZM251.974 208.621L278.97 228.357L336.401 150.02L309.391 130.284L251.974 208.621Z" fill="#231F20"/>
<path d="M311.17 167.402C317.368 167.402 322.392 162.378 322.392 156.181C322.392 149.983 317.368 144.959 311.17 144.959C304.973 144.959 299.949 149.983 299.949 156.181C299.949 162.378 304.973 167.402 311.17 167.402Z" fill="#1E71B9"/>
<path d="M311.141 168.093C308.051 168.088 305.082 166.888 302.858 164.742C300.634 162.597 299.327 159.674 299.212 156.586C299.096 153.497 300.181 150.485 302.238 148.179C304.296 145.873 307.166 144.454 310.247 144.219C313.329 143.984 316.381 144.951 318.765 146.917C321.149 148.884 322.678 151.697 323.033 154.767C323.387 157.837 322.539 160.925 320.666 163.383C318.794 165.841 316.042 167.478 312.988 167.952C312.377 168.048 311.76 168.095 311.141 168.093V168.093ZM311.141 145.664C308.642 145.663 306.225 146.554 304.323 148.175C302.422 149.797 301.161 152.043 300.767 154.511C300.373 156.979 300.872 159.506 302.174 161.639C303.476 163.772 305.496 165.371 307.871 166.148C310.246 166.925 312.82 166.83 315.132 165.88C317.443 164.929 319.339 163.186 320.481 160.963C321.622 158.739 321.933 156.182 321.358 153.75C320.783 151.318 319.36 149.171 317.344 147.694C315.556 146.385 313.4 145.674 311.183 145.664H311.141Z" fill="#231F20"/>
<path d="M293.483 191.521C299.68 191.521 304.704 186.498 304.704 180.3C304.704 174.103 299.68 169.079 293.483 169.079C287.286 169.079 282.262 174.103 282.262 180.3C282.262 186.498 287.286 191.521 293.483 191.521Z" fill="#D1D3D4"/>
<path d="M293.472 192.212C290.795 192.207 288.198 191.299 286.1 189.637C284.002 187.974 282.525 185.653 281.907 183.049C281.29 180.444 281.567 177.707 282.696 175.279C283.824 172.852 285.738 170.875 288.127 169.668C290.517 168.461 293.243 168.094 295.867 168.626C298.49 169.159 300.858 170.559 302.588 172.602C304.318 174.645 305.31 177.211 305.403 179.887C305.496 182.562 304.685 185.191 303.101 187.349C301.995 188.863 300.545 190.094 298.872 190.939C297.198 191.784 295.348 192.221 293.472 192.212V192.212ZM293.472 169.784C290.973 169.783 288.556 170.673 286.655 172.295C284.753 173.916 283.492 176.163 283.098 178.631C282.704 181.098 283.203 183.626 284.505 185.759C285.807 187.892 287.827 189.49 290.202 190.268C292.577 191.045 295.152 190.95 297.463 189.999C299.774 189.049 301.671 187.306 302.812 185.082C303.953 182.859 304.264 180.302 303.689 177.87C303.114 175.438 301.691 173.291 299.675 171.814C297.884 170.5 295.722 169.789 293.501 169.784H293.472Z" fill="#231F20"/>
<path d="M288.741 206.98L271.898 194.712L266.06 202.728L282.902 214.996L288.741 206.98Z" fill="white"/>
<path d="M281.208 215.317C281.062 215.318 280.919 215.274 280.799 215.19L264.024 202.898C263.875 202.785 263.776 202.62 263.747 202.436C263.718 202.251 263.762 202.063 263.869 201.911L269.719 193.932C269.774 193.856 269.844 193.793 269.923 193.744C270.003 193.696 270.092 193.664 270.184 193.65C270.275 193.635 270.368 193.639 270.458 193.661C270.547 193.682 270.632 193.722 270.706 193.777L287.481 206.069C287.63 206.182 287.729 206.347 287.758 206.531C287.787 206.716 287.743 206.904 287.636 207.056L281.842 215.035C281.787 215.111 281.718 215.174 281.638 215.223C281.558 215.271 281.47 215.303 281.377 215.317H281.208ZM265.434 202.179L281.067 213.64L286.072 206.788L270.438 195.328L265.434 202.179Z" fill="#231F20"/>
<path d="M276.828 199.097L270.324 194.33L264.691 202.016L271.194 206.783L276.828 199.097Z" fill="#231F20"/>
<path d="M271.156 207.507C271.003 207.511 270.854 207.461 270.734 207.366L264.235 202.602C264.086 202.489 263.987 202.324 263.958 202.14C263.929 201.955 263.973 201.767 264.08 201.615L269.719 193.932C269.774 193.856 269.843 193.793 269.923 193.744C270.003 193.696 270.091 193.664 270.184 193.65C270.275 193.635 270.368 193.639 270.457 193.661C270.547 193.682 270.631 193.722 270.705 193.777L277.204 198.542C277.28 198.597 277.343 198.666 277.392 198.746C277.44 198.826 277.472 198.914 277.486 199.007C277.501 199.098 277.497 199.191 277.475 199.28C277.454 199.37 277.414 199.454 277.359 199.528L271.72 207.225C271.609 207.368 271.448 207.464 271.269 207.493L271.156 207.507ZM265.645 201.869L271.001 205.802L275.808 199.246L270.438 195.313L265.645 201.869Z" fill="#231F20"/>
<path d="M295.645 219.574L300.86 212.611C300.86 212.611 298.732 191.31 300.705 186.151C301.1 185.107 302.115 183.965 303.102 184.431C303.512 184.684 303.821 185.073 303.976 185.53C305.219 188.181 305.896 191.062 305.963 193.988C305.676 188.875 305.912 183.745 306.668 178.679C306.795 177.819 307.035 176.832 307.824 176.466C309.164 175.874 310.319 177.594 310.714 179.003C311.252 180.955 311.615 182.95 311.8 184.966C311.236 181.331 311.419 177.618 312.335 174.055C313.463 169.728 316.212 170.066 316.719 174.506L317.565 181.865C317.565 178.158 318.2 174.492 318.115 170.799C317.956 169.376 318.165 167.937 318.723 166.618C319.281 165.3 320.169 164.147 321.301 163.271C321.712 162.863 322.248 162.605 322.824 162.538C323.281 162.603 323.711 162.798 324.061 163.101C324.411 163.403 324.666 163.8 324.797 164.244C325.378 165.928 325.632 167.708 325.544 169.488C325.657 180.526 326.813 191.789 323.063 202.165C319.454 212.188 312.913 216.6 307.134 218.475" fill="white"/>
<path d="M295.641 220.279C295.488 220.281 295.339 220.231 295.218 220.139C295.071 220.024 294.975 219.857 294.949 219.674C294.922 219.49 294.968 219.303 295.077 219.152L300.138 212.413C299.884 209.791 298.136 190.887 300.053 185.897C300.207 185.437 300.451 185.011 300.77 184.646C301.089 184.281 301.478 183.982 301.914 183.768C302.148 183.661 302.403 183.605 302.661 183.605C302.919 183.605 303.174 183.661 303.408 183.768C303.96 184.088 304.388 184.585 304.621 185.178C304.832 185.629 305.015 186.08 305.199 186.588C305.311 183.893 305.565 181.206 305.96 178.538C305.962 177.973 306.108 177.417 306.384 176.924C306.66 176.431 307.058 176.016 307.539 175.719C307.808 175.594 308.102 175.529 308.399 175.529C308.696 175.529 308.989 175.594 309.259 175.719C310.005 176.138 310.598 176.785 310.95 177.566C311.094 176.277 311.329 175 311.655 173.745C312.261 171.405 313.431 170.066 314.756 170.165C316.081 170.263 316.984 171.574 317.336 173.774C317.336 172.744 317.421 171.715 317.407 170.686C317.25 169.16 317.482 167.619 318.081 166.207C318.68 164.795 319.626 163.557 320.832 162.609C321.373 162.091 322.074 161.773 322.82 161.707C323.418 161.765 323.985 161.998 324.451 162.376C324.917 162.755 325.262 163.262 325.442 163.835C326.061 165.604 326.334 167.475 326.245 169.347C326.245 171.278 326.316 173.224 326.372 175.155C326.612 184.219 326.866 193.594 323.722 202.278C320.578 210.961 315.01 216.53 307.341 219.025C307.162 219.078 306.969 219.059 306.803 218.973C306.637 218.886 306.512 218.738 306.453 218.56C306.425 218.473 306.414 218.381 306.421 218.29C306.429 218.198 306.454 218.11 306.496 218.028C306.538 217.947 306.596 217.875 306.666 217.816C306.736 217.757 306.817 217.713 306.904 217.686C314.249 215.303 319.465 209.96 322.411 201.798C325.456 193.34 325.23 184.135 324.977 175.197C324.977 173.252 324.864 171.307 324.85 169.361C324.937 167.674 324.702 165.985 324.159 164.385C323.905 163.807 323.426 163.116 322.848 163.116C322.436 163.185 322.056 163.383 321.763 163.68C320.699 164.495 319.868 165.575 319.353 166.812C318.838 168.049 318.658 169.4 318.83 170.729C318.843 172.786 318.749 174.842 318.548 176.889C318.422 178.496 318.295 180.174 318.281 181.809C318.277 181.99 318.206 182.163 318.08 182.294C317.955 182.425 317.785 182.503 317.604 182.514C317.424 182.522 317.247 182.461 317.111 182.343C316.975 182.225 316.889 182.059 316.871 181.879L316.025 174.535C315.785 172.463 315.081 171.715 314.615 171.631C314.15 171.546 313.473 172.265 312.98 174.168C312.233 177.037 311.98 180.011 312.233 182.965C312.332 183.585 312.402 184.219 312.459 184.84C312.478 185.021 312.426 185.203 312.312 185.345C312.199 185.488 312.033 185.58 311.852 185.601C311.669 185.625 311.484 185.577 311.337 185.466C311.189 185.355 311.091 185.191 311.063 185.009C310.964 184.389 310.894 183.768 310.837 183.134C310.646 181.804 310.378 180.486 310.034 179.187C309.845 178.346 309.34 177.609 308.624 177.129C308.54 177.083 308.445 177.059 308.349 177.059C308.253 177.059 308.159 177.083 308.074 177.129C307.595 177.34 307.426 178.13 307.327 178.792C306.637 183.457 306.386 188.177 306.58 192.889C306.58 193.241 306.58 193.594 306.58 193.96C306.58 194.144 306.51 194.321 306.385 194.454C306.259 194.588 306.087 194.669 305.903 194.679C305.811 194.683 305.718 194.669 305.631 194.637C305.544 194.605 305.465 194.556 305.397 194.493C305.329 194.43 305.273 194.355 305.235 194.27C305.196 194.186 305.174 194.095 305.17 194.003C305.17 193.664 305.17 193.326 305.17 192.974C304.985 190.503 304.355 188.087 303.31 185.841C303.155 185.516 302.985 185.192 302.76 185.093C302.705 185.067 302.645 185.054 302.584 185.054C302.523 185.054 302.462 185.067 302.407 185.093C301.89 185.417 301.509 185.918 301.336 186.503C299.433 191.451 301.519 212.427 301.533 212.639C301.553 212.816 301.502 212.993 301.392 213.132L296.177 220.096C296.104 220.161 296.02 220.211 295.927 220.243C295.835 220.274 295.738 220.287 295.641 220.279V220.279Z" fill="#231F20"/>
<path d="M101.587 241.411C101.495 241.407 101.404 241.385 101.32 241.347C101.236 241.308 101.16 241.253 101.097 241.185C101.034 241.117 100.985 241.037 100.953 240.95C100.921 240.863 100.907 240.77 100.911 240.678L103.885 168.6C103.896 168.414 103.979 168.24 104.115 168.114C104.252 167.988 104.432 167.919 104.618 167.923C104.71 167.927 104.801 167.949 104.884 167.988C104.967 168.027 105.042 168.082 105.104 168.15C105.166 168.219 105.213 168.299 105.243 168.385C105.274 168.472 105.287 168.564 105.281 168.656L102.32 240.734C102.317 240.827 102.295 240.918 102.256 241.002C102.217 241.086 102.162 241.162 102.094 241.224C102.026 241.287 101.946 241.336 101.859 241.368C101.772 241.4 101.68 241.415 101.587 241.411Z" fill="#231F20"/>
<path d="M241.44 257.044C241.262 257.044 241.09 256.975 240.962 256.852C240.833 256.728 240.757 256.56 240.75 256.382C240.75 255.451 238.353 176.846 238.254 173.506C238.251 173.413 238.265 173.321 238.297 173.234C238.329 173.147 238.378 173.067 238.441 172.999C238.504 172.931 238.579 172.876 238.663 172.837C238.748 172.798 238.839 172.776 238.931 172.772C239.117 172.775 239.296 172.848 239.432 172.976C239.567 173.104 239.65 173.277 239.664 173.463C239.664 174.281 242.103 255.338 242.145 256.311C242.151 256.403 242.138 256.495 242.108 256.582C242.077 256.669 242.03 256.749 241.968 256.817C241.907 256.885 241.832 256.941 241.748 256.98C241.665 257.019 241.575 257.041 241.483 257.044H241.44Z" fill="#231F20"/>
<path d="M267.155 264.699C267.041 264.698 266.93 264.669 266.83 264.615C266.664 264.53 266.539 264.383 266.48 264.206C266.422 264.029 266.437 263.837 266.52 263.67L278.249 240.396C278.289 240.312 278.346 240.238 278.416 240.177C278.486 240.116 278.567 240.069 278.655 240.04C278.744 240.011 278.837 240.001 278.929 240.008C279.022 240.016 279.111 240.042 279.193 240.086C279.277 240.126 279.351 240.183 279.413 240.253C279.474 240.322 279.522 240.403 279.552 240.491C279.582 240.578 279.594 240.671 279.588 240.764C279.583 240.857 279.559 240.947 279.518 241.03L267.747 264.304C267.692 264.417 267.608 264.513 267.504 264.582C267.4 264.651 267.279 264.692 267.155 264.699Z" fill="#231F20"/>
<path d="M240.34 193.721C240.153 193.758 239.959 193.72 239.801 193.614C239.642 193.508 239.532 193.344 239.494 193.157C239.457 192.97 239.495 192.776 239.601 192.617C239.707 192.458 239.871 192.348 240.058 192.311C241.158 191.352 246.148 180.808 250.335 171.278C250.365 171.184 250.414 171.097 250.48 171.022C250.545 170.948 250.626 170.889 250.716 170.848C250.806 170.807 250.904 170.786 251.003 170.785C251.102 170.784 251.2 170.805 251.291 170.845C251.382 170.884 251.463 170.943 251.529 171.016C251.596 171.09 251.646 171.176 251.677 171.27C251.708 171.364 251.719 171.464 251.708 171.563C251.698 171.661 251.667 171.756 251.618 171.842C245.415 185.939 241.679 193.34 240.524 193.636L240.34 193.721Z" fill="#231F20"/>
<path d="M101.588 209.65C101.416 209.649 101.25 209.585 101.121 209.471C100.991 209.357 100.907 209.201 100.884 209.03L97.1761 175.423C97.1556 175.236 97.2101 175.048 97.3278 174.902C97.4454 174.755 97.6165 174.661 97.8035 174.64C97.9904 174.62 98.1778 174.674 98.3246 174.792C98.4713 174.91 98.5653 175.081 98.5858 175.268L102.336 208.875C102.345 208.968 102.337 209.061 102.31 209.151C102.283 209.24 102.239 209.323 102.18 209.395C102.121 209.467 102.048 209.527 101.966 209.571C101.884 209.614 101.794 209.642 101.701 209.65H101.588Z" fill="#231F20"/>
<path d="M264.93 221.576L256.824 231.543L261.829 236.406L269.709 226.144L264.93 221.576Z" fill="#231F20"/>
<path d="M261.828 237.125C261.642 237.121 261.466 237.045 261.335 236.914L256.344 232.05C256.221 231.924 256.152 231.754 256.152 231.578C256.152 231.402 256.221 231.232 256.344 231.106L264.436 221.139C264.498 221.063 264.575 221 264.662 220.954C264.75 220.908 264.845 220.88 264.944 220.871C265.141 220.864 265.334 220.935 265.479 221.069L270.244 225.636C270.364 225.764 270.431 225.933 270.431 226.108C270.431 226.284 270.364 226.453 270.244 226.581L262.378 236.843C262.316 236.92 262.239 236.983 262.151 237.029C262.064 237.075 261.969 237.103 261.87 237.111L261.828 237.125ZM257.782 231.486L261.758 235.349L268.806 226.214L265.042 222.619L257.782 231.486Z" fill="#231F20"/>
<path d="M278.52 347.448C278.064 347.447 277.621 347.298 277.256 347.025C276.891 346.751 276.625 346.366 276.497 345.929C276.368 345.491 276.385 345.024 276.543 344.597C276.702 344.169 276.995 343.805 277.378 343.557C278.041 343.134 293.604 332.674 291.391 309.823C290.249 298.179 280.113 290.228 270.316 282.546C260.518 274.863 250.834 267.335 250.946 256.339C251.059 237.774 261.378 227.863 261.815 227.455C262.016 227.257 262.253 227.101 262.515 226.997C262.776 226.893 263.056 226.841 263.337 226.846C263.618 226.851 263.896 226.912 264.153 227.026C264.411 227.14 264.643 227.304 264.836 227.508C265.03 227.713 265.18 227.954 265.279 228.217C265.378 228.481 265.423 228.761 265.412 229.043C265.401 229.324 265.335 229.6 265.215 229.855C265.096 230.11 264.928 230.339 264.719 230.528C264.62 230.626 255.274 239.691 255.175 256.353C255.175 265.277 263.775 272.057 272.924 279.219C282.932 287.071 294.28 295.966 295.591 309.414C298.073 334.902 280.423 346.63 279.676 347.11C279.33 347.328 278.929 347.445 278.52 347.448Z" fill="#231F20"/>
<path d="M129.751 90.6293C129.578 90.6306 129.41 90.568 129.28 90.4536C129.15 90.3392 129.067 90.181 129.046 90.0091L125.719 58.8548C125.699 58.6678 125.753 58.4804 125.871 58.3336C125.988 58.1869 126.159 58.0929 126.346 58.0724C126.533 58.0518 126.721 58.1064 126.868 58.224C127.014 58.3416 127.108 58.5127 127.129 58.6997L130.442 89.854C130.461 90.0389 130.407 90.2242 130.291 90.3694C130.175 90.5147 130.006 90.6081 129.821 90.6293H129.751Z" fill="#D1D3D4"/>
<path d="M215.587 89.6004C215.495 89.5916 215.405 89.5645 215.322 89.5206C215.24 89.4768 215.168 89.4171 215.109 89.345C215.05 89.2729 215.005 89.1899 214.979 89.1006C214.952 89.0114 214.943 88.9177 214.953 88.8251L218.266 57.5298C218.286 57.3428 218.38 57.1717 218.527 57.0541C218.674 56.9364 218.861 56.8819 219.048 56.9024C219.235 56.923 219.406 57.017 219.524 57.1637C219.642 57.3104 219.696 57.4979 219.676 57.6848L216.222 88.966C216.204 89.128 216.131 89.279 216.016 89.3943C215.9 89.5096 215.749 89.5822 215.587 89.6004V89.6004Z" fill="#D1D3D4"/>
</svg>
