<svg width="351" height="340" viewBox="0 0 351 340" fill="none" xmlns="http://www.w3.org/2000/svg">
<path d="M316.053 229.634C316.053 229.634 345.858 98.1184 331.232 89.0137C316.606 79.9089 216.716 72.159 204.043 89.0137C191.369 105.868 182.352 210.638 182.352 210.638L316.053 229.634Z" fill="#231F20"/>
<path d="M316.049 230.363H315.948L182.261 211.425C182.077 211.396 181.911 211.299 181.795 211.154C181.679 211.008 181.621 210.824 181.635 210.638C182.013 206.355 190.812 105.49 203.486 88.6495C211.556 77.9278 250.568 78.0734 266.957 78.627C295.946 79.6176 324.368 83.9441 331.637 88.4747C346.525 97.7396 318.016 224.477 316.792 229.867C316.739 230.019 316.638 230.15 316.504 230.239C316.37 230.328 316.21 230.372 316.049 230.363ZM183.15 209.968L315.481 228.775C323.814 191.861 342.402 96.7927 330.85 89.5964C317.011 81.0015 217.223 72.6689 204.622 89.407C192.764 105.256 183.965 200.98 183.15 210.012V209.968Z" fill="#231F20"/>
<path d="M4.93405 257.283C22.2403 227.201 91.8295 204.695 175.068 204.695C258.307 204.695 327.897 227.201 345.203 257.283H349.34V271.851C349.34 308.955 271.316 339.037 175.068 339.037C78.8207 339.037 0.796875 308.984 0.796875 271.88V257.313L4.93405 257.283Z" fill="#231F20"/>
<path d="M175.066 339.794C78.5709 339.794 0.0664062 309.333 0.0664062 271.88V257.313C0.0664062 257.119 0.143145 256.934 0.279743 256.798C0.41634 256.661 0.601606 256.584 0.794784 256.584H4.5095C13.25 241.886 34.6643 228.556 65.0523 219.044C96.0229 209.342 135.093 203.995 175.066 203.995C215.04 203.995 254.11 209.342 285.081 219.044C315.468 228.556 336.941 241.886 345.623 256.584H349.338C349.531 256.584 349.716 256.661 349.853 256.798C349.99 256.934 350.066 257.119 350.066 257.313V271.88C350.066 309.333 271.562 339.794 175.066 339.794ZM1.52316 258.012V271.88C1.52316 308.532 79.3721 338.337 175.066 338.337C270.761 338.337 348.61 308.532 348.61 271.88V258.012H345.201C345.072 258.011 344.945 257.977 344.833 257.913C344.721 257.849 344.627 257.758 344.56 257.648C327.166 227.391 255.887 205.423 175.066 205.423C94.2456 205.423 22.9666 227.391 5.57294 257.648C5.50595 257.758 5.41192 257.849 5.29974 257.913C5.18757 257.977 5.06097 258.011 4.93196 258.012H1.52316Z" fill="#231F20"/>
<path d="M190.971 3.32732C190.971 3.32732 202.974 -2.4997 210.855 7.9161C218.736 18.3319 213.987 30.2045 231.658 37.6339C249.328 45.0634 235.008 66.4922 247.872 74.3296C247.872 74.3296 238.126 81.2929 229.91 83.4926L223.981 78.6124L224.403 83.8713C224.403 83.8713 173.213 106.961 151.988 92.3059L149.337 85.969L145.345 90.3393L132.234 81.5988C132.234 81.5988 142.432 76.267 139.387 65.9532C136.342 55.6394 129.714 46.6804 142.213 33.5259C154.712 20.3714 145.127 12.0824 160.51 6.22626C170.273 2.77867 180.733 1.78316 190.971 3.32732V3.32732Z" fill="white"/>
<path d="M171.393 97.9873C163.061 97.9873 156.432 96.312 151.581 92.9615C151.468 92.8851 151.377 92.7794 151.319 92.6556L149.105 87.353L145.929 90.9512C145.812 91.081 145.653 91.1653 145.48 91.1892C145.307 91.2132 145.13 91.1754 144.982 91.0823L131.872 82.3418C131.769 82.2697 131.687 82.1734 131.631 82.0616C131.575 81.9497 131.547 81.8258 131.551 81.7008C131.556 81.5729 131.595 81.4487 131.664 81.341C131.733 81.2334 131.83 81.1463 131.944 81.0889C132.338 80.8704 141.515 75.8883 138.733 66.2883C138.238 64.5839 137.626 62.8795 137.028 61.2334C134.115 52.9736 131.027 44.4224 141.734 33.1617C145.696 29.1413 148.338 24.0088 149.309 18.4485C150.474 13.3935 151.494 9.03784 160.293 5.67273C170.088 2.17487 180.58 1.08562 190.885 2.49701C192.604 1.75406 203.908 -2.5725 211.454 7.40627C213.913 10.9378 215.709 14.8866 216.757 19.0603C218.869 25.8634 220.865 32.2876 231.965 36.9347C241.944 41.1302 242.163 49.8561 242.366 57.5478C242.527 64.1032 242.702 70.2944 248.266 73.6886C248.372 73.7482 248.461 73.8349 248.522 73.9398C248.584 74.0448 248.616 74.1643 248.616 74.2859C248.625 74.406 248.601 74.5261 248.547 74.6338C248.493 74.7415 248.411 74.8326 248.31 74.8977C247.917 75.1891 238.375 81.963 230.115 84.1773C230.003 84.2106 229.885 84.2161 229.771 84.1932C229.657 84.1704 229.55 84.1199 229.46 84.0462L224.856 80.2877L225.148 83.8568C225.158 84.0083 225.122 84.1594 225.043 84.2896C224.965 84.4198 224.849 84.523 224.711 84.5852C215.517 88.5657 206.03 91.8288 196.333 94.3454C188.201 96.5777 179.824 97.8009 171.393 97.9873V97.9873ZM152.587 91.8835C172.253 105.169 218.476 85.7214 223.633 83.478L223.254 78.729C223.246 78.5852 223.279 78.4421 223.349 78.316C223.418 78.1898 223.522 78.0856 223.647 78.0152C223.775 77.9511 223.919 77.9253 224.061 77.9408C224.203 77.9563 224.337 78.0125 224.448 78.1026L230.071 82.6914C236.583 80.8413 244.071 76.034 246.576 74.3296C241.23 70.4255 241.055 63.9138 240.895 57.5915C240.691 49.6376 240.487 42.1207 231.383 38.3041C219.728 33.3802 217.471 26.3295 215.358 19.4973C214.357 15.511 212.639 11.7399 210.289 8.36773C202.859 -1.46537 191.424 3.92462 191.351 3.99746C191.205 4.04853 191.045 4.04853 190.899 3.99746C180.763 2.55897 170.428 3.60891 160.788 7.05665C152.645 10.145 151.756 13.816 150.635 18.8855C149.602 24.6972 146.834 30.0601 142.695 34.2688C132.6 44.8886 135.411 52.6385 138.325 60.8401C138.922 62.5008 139.534 64.2343 140.044 65.9824C142.579 74.7229 136.125 80.0984 133.547 81.8465L145.201 89.5381L148.843 85.5321C148.928 85.4425 149.033 85.3745 149.149 85.334C149.266 85.2934 149.391 85.2814 149.513 85.299C149.634 85.3202 149.748 85.3713 149.845 85.4476C149.941 85.5239 150.018 85.623 150.066 85.736L152.587 91.8835Z" fill="#231F20"/>
<path d="M202.25 86.9742C202.25 86.9742 247.584 86.6101 267.148 99.2838C286.713 111.958 275.889 154.437 273.209 168.596C270.528 182.756 258.379 237.603 258.379 237.603L155.648 243.561C155.648 243.561 137.512 153.592 136.157 127.297C135.88 121.834 142.348 101.265 146.66 98.1621C161.228 87.5569 181.724 86.0856 202.25 86.9742Z" fill="#1E71B9"/>
<path d="M212.794 100.114L202.349 186.063L175.734 117.202C175.734 117.202 202.641 110.661 212.794 100.114Z" fill="#231F20"/>
<path d="M202.353 186.849C202.207 186.852 202.063 186.808 201.943 186.724C201.823 186.641 201.732 186.521 201.683 186.383L175.068 117.522C175.021 117.43 174.996 117.328 174.996 117.224C174.996 117.12 175.021 117.018 175.068 116.925C175.116 116.834 175.182 116.753 175.262 116.688C175.342 116.622 175.435 116.574 175.534 116.546C175.811 116.546 202.353 109.904 212.244 99.6043C212.351 99.4969 212.488 99.4252 212.636 99.3991C212.785 99.373 212.938 99.3938 213.075 99.4586C213.215 99.5207 213.33 99.6271 213.404 99.7613C213.478 99.8955 213.505 100.05 213.483 100.202L203.052 186.15C203.032 186.311 202.96 186.46 202.847 186.576C202.734 186.691 202.586 186.767 202.426 186.791L202.353 186.849ZM176.714 117.77L201.989 183.149L211.822 102.052C201.785 110.923 181.128 116.619 176.714 117.77V117.77Z" fill="#231F20"/>
<path d="M175.068 324.469C271.316 324.469 349.34 294.389 349.34 257.283C349.34 220.178 271.316 190.098 175.068 190.098C78.8209 190.098 0.796875 220.178 0.796875 257.283C0.796875 294.389 78.8209 324.469 175.068 324.469Z" fill="white"/>
<path d="M175.066 325.197C78.5709 325.197 0.0664062 294.722 0.0664062 257.284C0.0664062 219.845 78.5709 189.326 175.066 189.326C271.562 189.326 350.066 219.787 350.066 257.24C350.066 294.693 271.562 325.197 175.066 325.197ZM175.066 190.783C79.3721 190.783 1.52316 220.588 1.52316 257.24C1.52316 293.892 79.3721 323.741 175.066 323.741C270.761 323.741 348.61 293.921 348.61 257.284C348.61 220.646 270.761 190.783 175.066 190.783Z" fill="#231F20"/>
<path d="M136.057 197.192L204.699 224.244L90.1694 266.082L27.9805 232.475L136.057 197.192Z" fill="white"/>
<path d="M90.1634 266.811C90.0416 266.809 89.9218 266.779 89.8138 266.723L27.6249 233.116C27.5018 233.047 27.4011 232.945 27.3351 232.821C27.2691 232.696 27.2405 232.555 27.2528 232.415C27.2651 232.275 27.3179 232.141 27.4046 232.03C27.4913 231.919 27.6083 231.836 27.7415 231.79L135.818 196.508C135.977 196.443 136.155 196.443 136.313 196.508L204.97 223.56C205.108 223.613 205.227 223.707 205.31 223.829C205.393 223.951 205.438 224.096 205.436 224.244C205.432 224.391 205.383 224.533 205.298 224.652C205.212 224.771 205.093 224.863 204.956 224.914L90.4111 266.752C90.3329 266.787 90.2489 266.807 90.1634 266.811V266.811ZM29.8101 232.65L90.2217 265.281L202.654 224.288L136.022 198.066L29.8101 232.65Z" fill="#D1D3D4"/>
<path d="M146.919 196.464L215.562 223.516L101.032 265.339L38.8281 231.746L146.919 196.464Z" fill="white"/>
<path d="M101.034 266.068C100.912 266.068 100.792 266.038 100.685 265.98L38.4959 232.387C38.3703 232.317 38.2669 232.213 38.1974 232.087C38.1279 231.96 38.0951 231.817 38.1026 231.674C38.1181 231.531 38.1745 231.396 38.265 231.285C38.3555 231.174 38.4761 231.091 38.6125 231.047L146.689 195.765C146.849 195.707 147.024 195.707 147.184 195.765L215.856 222.831C215.99 222.888 216.104 222.984 216.185 223.105C216.265 223.227 216.308 223.37 216.307 223.516C216.305 223.665 216.258 223.81 216.173 223.932C216.087 224.054 215.966 224.148 215.827 224.2L101.297 266.024C101.213 266.054 101.124 266.069 101.034 266.068V266.068ZM40.6811 231.907L101.093 264.553L213.511 223.487L146.893 197.265L40.6811 231.907Z" fill="#D1D3D4"/>
<path d="M158.17 197.833L226.827 224.9L112.283 266.723L50.0938 233.116L158.17 197.833Z" fill="white"/>
<path d="M112.28 267.452C112.163 267.452 112.047 267.422 111.945 267.364L49.7852 233.757C49.6585 233.693 49.5544 233.591 49.4868 233.466C49.4191 233.341 49.3911 233.199 49.4065 233.058C49.419 232.916 49.4726 232.782 49.5606 232.671C49.6486 232.559 49.7672 232.476 49.9018 232.431L157.978 197.149C158.138 197.091 158.314 197.091 158.474 197.149L227.087 224.288C227.224 224.343 227.341 224.437 227.424 224.559C227.507 224.681 227.552 224.825 227.553 224.973C227.545 225.12 227.496 225.263 227.411 225.384C227.326 225.505 227.209 225.6 227.072 225.657L112.528 267.408C112.449 267.438 112.365 267.452 112.28 267.452V267.452ZM51.9266 233.291L112.338 265.937L224.771 224.871L158.139 198.649L51.9266 233.291Z" fill="#231F20"/>
<path d="M99.5911 252.054C99.4447 252.056 99.3012 252.012 99.181 251.929C99.0608 251.845 98.9698 251.726 98.921 251.588C98.8859 251.498 98.869 251.402 98.8713 251.305C98.8736 251.209 98.895 251.114 98.9343 251.026C98.9736 250.938 99.03 250.858 99.1002 250.792C99.1705 250.726 99.2532 250.675 99.3435 250.641L189.779 216.159C189.959 216.097 190.156 216.106 190.329 216.184C190.503 216.263 190.64 216.405 190.711 216.582C190.746 216.672 190.763 216.768 190.761 216.864C190.759 216.96 190.737 217.055 190.698 217.144C190.659 217.232 190.602 217.311 190.532 217.377C190.462 217.443 190.379 217.495 190.289 217.529L99.8533 251.966C99.7714 252.01 99.6828 252.039 99.5911 252.054V252.054Z" fill="#D1D3D4"/>
<path d="M191.249 230.275C191.153 230.296 191.054 230.296 190.958 230.275L142.885 209.575C142.797 209.536 142.717 209.481 142.65 209.412C142.584 209.343 142.531 209.262 142.496 209.172C142.425 208.992 142.429 208.791 142.506 208.613C142.583 208.435 142.728 208.296 142.908 208.225C143.089 208.154 143.29 208.157 143.467 208.234L191.54 228.949C191.628 228.986 191.707 229.04 191.774 229.107C191.841 229.175 191.893 229.255 191.929 229.343C191.964 229.432 191.981 229.526 191.98 229.621C191.978 229.716 191.957 229.809 191.919 229.896C191.854 230.016 191.757 230.115 191.638 230.182C191.52 230.248 191.385 230.281 191.249 230.275V230.275Z" fill="#D1D3D4"/>
<path d="M175.927 236.466C175.155 236.466 170.872 234.369 126.878 212.066C126.704 211.979 126.572 211.826 126.51 211.642C126.449 211.458 126.463 211.256 126.55 211.082C126.637 210.909 126.789 210.776 126.974 210.715C127.158 210.653 127.359 210.668 127.533 210.755C140.469 217.325 174.149 234.398 175.927 235.082C176.022 235.106 176.111 235.15 176.189 235.21C176.267 235.27 176.331 235.346 176.378 235.432C176.469 235.601 176.491 235.798 176.439 235.983C176.387 236.168 176.267 236.325 176.102 236.423C176.05 236.456 175.988 236.472 175.927 236.466V236.466Z" fill="#D1D3D4"/>
<path d="M155.256 244.289C155.151 244.317 155.041 244.317 154.935 244.289L106.28 220.442C106.108 220.355 105.978 220.204 105.915 220.022C105.853 219.84 105.863 219.641 105.945 219.466C105.987 219.38 106.045 219.303 106.117 219.239C106.189 219.176 106.273 219.127 106.363 219.096C106.454 219.065 106.55 219.052 106.646 219.058C106.741 219.064 106.835 219.089 106.921 219.131L155.576 242.993C155.731 243.059 155.857 243.177 155.933 243.327C156.009 243.477 156.03 243.649 155.992 243.812C155.953 243.976 155.859 244.121 155.724 244.221C155.59 244.322 155.424 244.372 155.256 244.362V244.289Z" fill="#D1D3D4"/>
<path d="M114.553 259.76C114.44 259.76 114.329 259.73 114.232 259.673L63.9158 233.771C63.7866 233.705 63.6801 233.602 63.61 233.475C63.5399 233.348 63.5094 233.202 63.5225 233.058C63.5312 232.915 63.5834 232.779 63.6719 232.667C63.7605 232.555 63.8811 232.473 64.0178 232.431L157.046 202.961C157.206 202.903 157.381 202.903 157.541 202.961L207.566 223.108C207.702 223.162 207.819 223.255 207.901 223.376C207.983 223.497 208.027 223.639 208.027 223.785C208.027 223.932 207.983 224.074 207.901 224.195C207.819 224.316 207.702 224.409 207.566 224.463L114.829 259.687C114.745 259.735 114.65 259.76 114.553 259.76ZM66.1447 233.291L114.596 258.23L205.294 223.778L157.221 204.432L66.1447 233.291Z" fill="#D1D3D4"/>
<path d="M174.473 88.2854L175.434 113.429C175.434 113.429 177.576 122.709 194.022 119.023C198.359 118.135 202.334 115.98 205.446 112.832C208.557 109.684 210.666 105.684 211.503 101.338C209.901 92.5974 207.308 50.3515 205.676 39.3967L195.29 41.2614C195.068 36.3961 194.29 31.5721 192.974 26.8832C191.211 30.5667 190.191 34.5615 189.973 38.6392L171.035 40.6349C170.633 40.7254 170.213 40.6792 169.84 40.5038C169.517 40.2345 169.291 39.8657 169.199 39.455L167.539 34.4729L166.184 40.4456C166.191 40.7797 166.126 41.1115 165.992 41.418C165.859 41.7246 165.661 41.9987 165.412 42.2215C165.163 42.4443 164.869 42.6106 164.549 42.7089C164.23 42.8072 163.893 42.8352 163.562 42.7909L156.001 43.2425C154.908 43.2092 153.826 43.4709 152.869 44.0001C150.058 45.923 151.412 57.2857 151.733 60.374C152.198 66.6356 153.628 72.7877 155.972 78.6126C160.954 90.456 174.473 88.2854 174.473 88.2854Z" fill="white"/>
<path d="M186.925 120.625C183.828 120.755 180.769 119.904 178.184 118.192C176.558 117.087 175.352 115.465 174.761 113.589L173.814 89.0865C170.74 89.3342 159.756 89.407 155.342 78.8892C152.937 73.001 151.462 66.774 150.972 60.4321L150.87 59.325C150.156 52.0412 149.865 45.1217 152.414 43.3881C153.477 42.7786 154.686 42.4713 155.911 42.4995L163.471 42.0479C163.922 42.0722 164.371 41.9714 164.768 41.7565C165.138 41.3549 165.368 40.8436 165.423 40.2998L166.778 34.3271C166.813 34.1724 166.897 34.0332 167.018 33.9306C167.139 33.8281 167.29 33.7678 167.448 33.759C167.608 33.7455 167.767 33.7873 167.9 33.8775C168.033 33.9677 168.13 34.1007 168.176 34.2543L169.866 39.2801C169.954 39.4986 170.056 39.8482 170.216 39.9356C170.455 39.9973 170.705 39.9973 170.944 39.9356L189.212 37.9981C189.499 34.0352 190.527 30.1613 192.242 26.5772C192.301 26.4411 192.402 26.3277 192.531 26.2542C192.66 26.1806 192.809 26.1508 192.956 26.1693C193.103 26.1812 193.244 26.2378 193.358 26.3315C193.473 26.4252 193.556 26.5515 193.597 26.6937C194.85 31.1681 195.621 35.7635 195.898 40.4018L205.469 38.6974C205.565 38.6772 205.663 38.6771 205.758 38.6972C205.854 38.7172 205.944 38.757 206.023 38.8139C206.101 38.8707 206.167 38.9425 206.217 39.025C206.267 39.1076 206.3 39.1992 206.314 39.2946C207.13 44.6555 208.179 57.5186 209.228 69.9739C210.306 83.0847 211.413 96.7782 212.229 101.221C211.431 105.761 209.286 109.956 206.072 113.261C202.858 116.566 198.725 118.827 194.209 119.751C191.82 120.311 189.378 120.604 186.925 120.625V120.625ZM174.47 87.5569C174.639 87.5569 174.803 87.6133 174.936 87.7172C175.015 87.7839 175.079 87.8663 175.124 87.9591C175.169 88.0519 175.194 88.1531 175.198 88.2562L176.159 113.4C176.232 113.604 178.388 121.776 193.859 118.309C198.04 117.478 201.879 115.421 204.888 112.402C207.897 109.383 209.94 105.536 210.757 101.352C209.912 96.7491 208.864 83.7839 207.742 70.0759C206.78 58.1887 205.775 45.9374 204.989 40.2415L195.345 41.9751C195.242 41.9939 195.137 41.9906 195.036 41.9653C194.935 41.94 194.841 41.8933 194.759 41.8284C194.678 41.7635 194.611 41.6819 194.564 41.5891C194.517 41.4963 194.49 41.3944 194.485 41.2904C194.299 37.1733 193.709 33.0845 192.723 29.0828C191.515 32.145 190.806 35.3814 190.625 38.6682C190.613 38.8425 190.541 39.0073 190.422 39.1347C190.302 39.2621 190.143 39.3444 189.969 39.3675L171.032 41.3632C170.466 41.4729 169.88 41.3855 169.371 41.1156C168.898 40.7525 168.564 40.2384 168.424 39.6588L167.594 37.1678L166.822 40.5911C166.807 41.0022 166.71 41.4061 166.534 41.7781C166.359 42.1502 166.11 42.4827 165.801 42.7552C165.493 43.0278 165.133 43.2349 164.743 43.3637C164.352 43.4925 163.939 43.5405 163.529 43.5047L155.969 43.9562C155.007 43.9203 154.053 44.1363 153.201 44.5827C151.016 46.0394 151.963 55.9453 152.283 59.1502L152.385 60.2573C152.846 66.4445 154.261 72.523 156.581 78.2774C161.271 89.4361 173.77 87.5861 174.295 87.4987L174.47 87.5569Z" fill="#231F20"/>
<path d="M174.979 101.498C177.845 101.355 180.633 100.515 183.1 99.0504C185.568 97.5856 187.641 95.5404 189.138 93.0926C194.47 84.5997 192.518 79.0786 192.518 79.0786C192.518 79.0786 185.409 87.8191 174.469 88.2853L174.979 101.498Z" fill="#231F20"/>
<path d="M175.064 102.226C174.878 102.223 174.701 102.149 174.568 102.019C174.436 101.889 174.358 101.713 174.35 101.527L173.84 88.3144C173.837 88.2188 173.852 88.1233 173.885 88.0334C173.918 87.9435 173.968 87.8611 174.033 87.7907C174.098 87.7203 174.176 87.6635 174.263 87.6234C174.35 87.5833 174.444 87.5607 174.54 87.5569C184.999 87.0762 192.021 78.6999 192.021 78.6125C192.105 78.516 192.212 78.4428 192.333 78.4001C192.453 78.3573 192.583 78.3464 192.709 78.3684C192.835 78.3903 192.953 78.4445 193.052 78.5255C193.151 78.6066 193.227 78.7118 193.274 78.831C193.361 79.0786 195.284 84.7891 189.836 93.3985C188.287 95.9694 186.13 98.1195 183.553 99.6591C180.977 101.199 178.062 102.08 175.064 102.226V102.226ZM175.297 88.97L175.749 100.726C178.362 100.462 180.88 99.6004 183.108 98.2087C185.335 96.817 187.214 94.932 188.597 92.6993C192.166 87.0179 192.341 82.7059 192.137 80.6519C187.651 85.3239 181.664 88.2685 175.224 88.97H175.297Z" fill="#231F20"/>
<path d="M172.506 51.3274C172.506 51.3274 170.015 64.4382 172.506 66.1572C174.997 67.8761 179.367 64.5984 179.367 64.5984" fill="white"/>
<path d="M174.195 67.3954C173.426 67.4176 172.67 67.193 172.039 66.7544C169.344 64.817 171.369 53.4397 171.791 51.1817C171.83 50.9916 171.942 50.8242 172.102 50.7153C172.263 50.6064 172.46 50.5647 172.651 50.599C172.744 50.6181 172.833 50.6555 172.913 50.7091C172.992 50.7626 173.06 50.8313 173.113 50.9111C173.165 50.9909 173.202 51.0803 173.22 51.1742C173.238 51.2682 173.238 51.3648 173.219 51.4585C172.068 57.5332 171.602 64.6567 172.884 65.5599C174.544 66.7544 177.778 64.8461 178.886 64.0157C179.04 63.8998 179.234 63.8501 179.426 63.8774C179.617 63.9047 179.789 64.0069 179.905 64.1614C180.017 64.3173 180.065 64.5105 180.038 64.7006C180.011 64.8907 179.911 65.063 179.76 65.1811C178.143 66.4151 176.218 67.1811 174.195 67.3954V67.3954Z" fill="#231F20"/>
<path d="M184.985 58.1973C186.14 57.999 186.849 56.5146 186.569 54.8817C186.289 53.2489 185.125 52.086 183.97 52.2843C182.815 52.4827 182.106 53.9671 182.387 55.5999C182.667 57.2327 183.831 58.3956 184.985 58.1973Z" fill="#231F20"/>
<path d="M162.876 60.7602C164.031 60.5619 164.74 59.0774 164.46 57.4446C164.179 55.8118 163.016 54.6489 161.861 54.8472C160.706 55.0455 159.997 56.53 160.277 58.1628C160.558 59.7956 161.721 60.9585 162.876 60.7602Z" fill="#231F20"/>
<path d="M181.564 59.3251C180.345 59.3218 179.169 58.8773 178.253 58.0739C177.338 57.2704 176.744 56.1624 176.582 54.9548L175.635 47.4525C175.623 47.3567 175.63 47.2595 175.655 47.1665C175.681 47.0734 175.725 46.9864 175.785 46.9105C175.844 46.8346 175.918 46.7713 176.003 46.7243C176.087 46.6773 176.18 46.6475 176.276 46.6367L196.117 44.1457C196.212 44.1314 196.309 44.1363 196.402 44.1603C196.495 44.1843 196.582 44.2269 196.658 44.2853C196.734 44.3438 196.798 44.4171 196.845 44.5007C196.892 44.5843 196.922 44.6766 196.932 44.7721L197.879 52.2744C197.967 52.928 197.921 53.5925 197.746 54.2282C197.571 54.864 197.269 55.4579 196.86 55.9745C196.458 56.4982 195.956 56.9367 195.384 57.2644C194.811 57.592 194.179 57.8023 193.524 57.8829L182.19 59.3396L181.564 59.3251ZM177.179 48.0206L178.024 54.8091C178.151 55.7418 178.639 56.5875 179.382 57.1648C180.126 57.7421 181.066 58.0052 182.001 57.8974L193.349 56.4407C193.819 56.3798 194.271 56.2264 194.681 55.9894C195.091 55.7524 195.45 55.4365 195.738 55.0599C196.025 54.6833 196.235 54.2535 196.355 53.7954C196.475 53.3373 196.503 52.8599 196.437 52.3909L195.578 45.6024L177.179 48.0206Z" fill="#231F20"/>
<path d="M152.892 63.2144C151.674 63.2112 150.498 62.7667 149.582 61.9632C148.666 61.1598 148.072 60.0517 147.91 58.8442L146.963 51.3419C146.938 51.1507 146.99 50.9575 147.108 50.8045C147.225 50.6516 147.398 50.5515 147.589 50.5261L167.445 48.0205C167.541 48.0083 167.638 48.0153 167.731 48.041C167.824 48.0667 167.911 48.1106 167.987 48.1703C168.063 48.2299 168.126 48.3041 168.173 48.3884C168.22 48.4727 168.25 48.5655 168.261 48.6615L169.208 56.1637C169.295 56.8174 169.25 57.4819 169.074 58.1176C168.899 58.7533 168.598 59.3472 168.188 59.8639C167.786 60.3806 167.285 60.8127 166.715 61.1352C166.145 61.4577 165.517 61.6643 164.867 61.7431L153.533 63.1999L152.892 63.2144ZM148.522 51.8517L149.367 58.6402C149.424 59.1045 149.573 59.5528 149.804 59.9594C150.035 60.3661 150.345 60.7231 150.714 61.01C151.084 61.2969 151.506 61.5081 151.957 61.6314C152.408 61.7547 152.88 61.7877 153.344 61.7286V61.7286L164.692 60.2718C165.62 60.148 166.464 59.6655 167.041 58.9276C167.618 58.1897 167.884 57.2551 167.78 56.324L166.906 49.4772L148.522 51.8517Z" fill="#231F20"/>
<path d="M210.915 52.0558L196.857 50.803C196.665 50.781 196.49 50.685 196.367 50.5354C196.245 50.3858 196.185 50.1944 196.202 50.0018C196.22 49.811 196.313 49.6352 196.461 49.5124C196.608 49.3897 196.798 49.33 196.989 49.3462L211.046 50.6136C211.141 50.6209 211.234 50.6472 211.319 50.6909C211.404 50.7347 211.479 50.795 211.54 50.8684C211.601 50.9417 211.647 51.0266 211.675 51.118C211.703 51.2093 211.712 51.3053 211.702 51.4003C211.683 51.5911 211.59 51.7669 211.443 51.8896C211.296 52.0123 211.106 52.072 210.915 52.0558Z" fill="#231F20"/>
<path d="M200.182 59.3833C200.145 58.0313 200.532 56.7016 201.289 55.5811C202.288 53.7085 203.61 52.0268 205.193 50.6136C206.808 49.195 208.871 48.3905 211.02 48.3411C215.172 48.3411 218.668 52.2889 218.931 56.426C218.96 58.5093 218.447 60.5644 217.444 62.3902C216.44 64.2159 214.98 65.7499 213.206 66.8419C211.84 67.8137 210.265 68.4517 208.608 68.7047C206.951 68.9577 205.257 68.8186 203.664 68.2986" fill="white"/>
<path d="M206.807 69.5661C205.627 69.5739 204.456 69.3614 203.355 68.9397C203.175 68.8682 203.031 68.7283 202.955 68.5507C202.878 68.3731 202.875 68.1724 202.947 67.9928C203.018 67.8131 203.158 67.6692 203.336 67.5927C203.513 67.5162 203.714 67.5134 203.894 67.5849C205.377 68.0699 206.955 68.2001 208.498 67.9648C210.041 67.7295 211.508 67.1353 212.78 66.2301C214.446 65.2089 215.819 63.7726 216.764 62.0618C217.709 60.3509 218.193 58.4241 218.17 56.4699C218.052 54.5801 217.262 52.7948 215.942 51.4373C214.622 50.0799 212.859 49.2399 210.973 49.0695C209.01 49.1237 207.128 49.8662 205.656 51.1673C204.133 52.5202 202.869 54.1394 201.927 55.9454C201.243 56.927 200.886 58.0996 200.907 59.296C200.928 59.4887 200.872 59.6819 200.753 59.8343C200.633 59.9867 200.458 60.0863 200.266 60.1118C200.074 60.1324 199.88 60.077 199.728 59.9572C199.576 59.8375 199.476 59.6629 199.45 59.4708C199.393 57.9606 199.816 56.4712 200.66 55.2171C201.688 53.264 203.065 51.5162 204.724 50.0601C206.464 48.541 208.679 47.6756 210.988 47.6128C213.243 47.7747 215.362 48.7505 216.951 50.3583C218.54 51.9662 219.491 54.0967 219.627 56.3533C219.666 58.5644 219.128 60.7474 218.065 62.6867C217.002 64.6259 215.452 66.254 213.566 67.4101C211.568 68.7658 209.221 69.5146 206.807 69.5661V69.5661Z" fill="#231F20"/>
<path d="M168.147 52.0558C167.999 52.0544 167.854 52.0077 167.733 51.922C167.612 51.8363 167.52 51.7158 167.47 51.5764C167.419 51.437 167.412 51.2855 167.45 51.1421C167.487 50.9987 167.568 50.8703 167.681 50.7739C168.315 50.1295 169.071 49.6178 169.906 49.2685C170.74 48.9192 171.635 48.7393 172.539 48.7393C173.443 48.7393 174.339 48.9192 175.173 49.2685C176.007 49.6178 176.763 50.1295 177.397 50.7739C177.514 50.9172 177.571 51.0993 177.558 51.2834C177.545 51.4675 177.463 51.6398 177.328 51.7656C177.193 51.8914 177.015 51.9612 176.831 51.961C176.646 51.9608 176.469 51.8906 176.334 51.7645C175.835 51.2459 175.237 50.8333 174.575 50.5515C173.913 50.2697 173.2 50.1244 172.481 50.1244C171.761 50.1244 171.049 50.2697 170.387 50.5515C169.725 50.8333 169.127 51.2459 168.628 51.7645C168.571 51.8425 168.499 51.9084 168.417 51.9584C168.334 52.0084 168.242 52.0415 168.147 52.0558Z" fill="#231F20"/>
<path d="M166.545 76.9519C166.352 76.9519 166.166 76.8751 166.03 76.7385C165.893 76.6019 165.816 76.4167 165.816 76.2235C165.82 76.0315 165.898 75.8484 166.034 75.7126C166.17 75.5768 166.353 75.4988 166.545 75.4951C166.69 75.4951 181.462 75.3931 189.518 67.0022C189.584 66.9344 189.664 66.8805 189.751 66.8437C189.839 66.8069 189.933 66.788 190.028 66.788C190.123 66.788 190.217 66.8069 190.304 66.8437C190.392 66.8805 190.471 66.9344 190.538 67.0022C190.606 67.0699 190.66 67.1505 190.697 67.2392C190.734 67.328 190.753 67.4232 190.753 67.5194C190.753 67.6155 190.734 67.7107 190.697 67.7995C190.66 67.8882 190.606 67.9688 190.538 68.0365C182.074 76.8499 167.186 76.9519 166.545 76.9519Z" fill="#231F20"/>
<path d="M159.103 302.268L228.751 272.157L173.103 251.821L130.056 269.578L95.7344 270.729L159.103 302.268Z" fill="white"/>
<path d="M159.045 302.953C158.928 302.953 158.812 302.923 158.71 302.865L95.3561 271.326C95.2136 271.253 95.0993 271.135 95.0308 270.99C94.9623 270.845 94.9435 270.682 94.9773 270.525C95.0103 270.367 95.0959 270.225 95.2203 270.121C95.3447 270.018 95.5004 269.96 95.662 269.957L129.837 268.806L172.768 251.107C172.937 251.042 173.124 251.042 173.292 251.107L228.955 271.501C229.091 271.555 229.208 271.648 229.29 271.769C229.372 271.89 229.416 272.033 229.416 272.179C229.416 272.325 229.372 272.467 229.29 272.588C229.208 272.709 229.091 272.802 228.955 272.856L159.395 302.953C159.28 302.979 159.16 302.979 159.045 302.953V302.953ZM98.5901 271.312L159.118 301.496L226.784 272.215L173.118 252.593L130.333 270.248C130.247 270.269 130.157 270.269 130.071 270.248L98.5901 271.312Z" fill="#231F20"/>
<path d="M228.744 272.157L229.458 279.208L158.164 310.746L156.605 295.145L179.797 293.309L228.744 272.157Z" fill="white"/>
<path d="M158.168 311.475C158.041 311.47 157.916 311.435 157.804 311.373C157.705 311.315 157.62 311.235 157.557 311.139C157.494 311.043 157.454 310.933 157.44 310.819L155.881 295.217C155.866 295.024 155.923 294.832 156.041 294.678C156.17 294.528 156.354 294.433 156.551 294.416L179.612 292.595L228.471 271.487C228.573 271.437 228.685 271.411 228.799 271.411C228.913 271.411 229.025 271.437 229.127 271.487C229.223 271.547 229.304 271.628 229.365 271.724C229.425 271.82 229.463 271.928 229.476 272.04L230.176 279.091C230.196 279.242 230.166 279.396 230.09 279.528C230.013 279.66 229.895 279.762 229.753 279.819L158.46 311.402C158.369 311.448 158.27 311.473 158.168 311.475V311.475ZM157.411 295.815L158.868 309.668L228.792 278.756L228.238 273.22L180.165 293.979C180.094 293.999 180.018 293.999 179.947 293.979L157.411 295.815Z" fill="#231F20"/>
<path d="M158.171 310.747L97.0746 284.059L95.7344 270.729L156.612 295.145L158.171 310.747Z" fill="white"/>
<path d="M158.168 311.475C158.072 311.496 157.973 311.496 157.877 311.475L96.7805 284.802C96.6637 284.748 96.5631 284.665 96.4889 284.56C96.4147 284.455 96.3696 284.332 96.3581 284.204L95.0179 270.875C95.0082 270.751 95.0296 270.627 95.0802 270.514C95.1307 270.401 95.2088 270.302 95.3073 270.227C95.4057 270.152 95.5215 270.102 95.6439 270.083C95.7664 270.064 95.8917 270.076 96.0085 270.118L156.872 294.547C156.997 294.592 157.106 294.673 157.186 294.779C157.267 294.885 157.314 295.012 157.323 295.145L158.897 310.746C158.91 310.873 158.889 311.001 158.835 311.117C158.781 311.232 158.697 311.331 158.591 311.402C158.46 311.467 158.313 311.493 158.168 311.475V311.475ZM97.7566 283.563L157.323 309.581L155.867 295.654L96.5329 271.851L97.7566 283.563Z" fill="#231F20"/>
<path d="M156.128 291.59C156.036 291.604 155.943 291.604 155.851 291.59L116.067 275.274C115.874 275.247 115.699 275.145 115.582 274.989C115.464 274.833 115.414 274.637 115.441 274.444C115.468 274.251 115.57 274.076 115.726 273.959C115.882 273.841 116.078 273.791 116.271 273.818L133.126 272.128C133.241 272.107 133.36 272.107 133.475 272.128L172.72 288.516C172.871 288.58 172.996 288.691 173.075 288.834C173.154 288.977 173.183 289.142 173.157 289.303C173.135 289.462 173.06 289.609 172.943 289.72C172.827 289.831 172.676 289.9 172.516 289.915L156.244 291.546L156.128 291.59ZM119.272 274.969L156.244 290.119L169.457 288.793L133.038 273.585L119.272 274.969Z" fill="#D1D3D4"/>
<path d="M181.245 288.225H181.158C180.633 288.108 152.227 276.265 140.034 271.166C139.901 271.112 139.787 271.019 139.706 270.9C139.626 270.78 139.583 270.64 139.582 270.496C139.588 270.354 139.633 270.216 139.713 270.097C139.793 269.979 139.904 269.885 140.034 269.826L173.874 255.9C174.051 255.827 174.25 255.827 174.428 255.9L215.756 272.274C215.892 272.327 216.008 272.421 216.09 272.541C216.172 272.662 216.216 272.805 216.216 272.951C216.216 273.097 216.172 273.24 216.09 273.361C216.008 273.481 215.892 273.575 215.756 273.628C184.275 287.351 181.682 288.225 181.245 288.225ZM142.219 270.496C155.839 276.178 179.002 285.821 181.362 286.739C183.445 286.04 201.013 278.465 213.6 272.973L174.165 257.342L142.219 270.496Z" fill="#D1D3D4"/>
<path d="M192.548 282.922C192.457 282.943 192.362 282.943 192.271 282.922L151.642 266.388C151.554 266.352 151.473 266.298 151.404 266.231C151.336 266.163 151.282 266.083 151.245 265.994C151.207 265.905 151.188 265.81 151.188 265.714C151.187 265.618 151.206 265.523 151.242 265.434C151.278 265.345 151.332 265.264 151.399 265.196C151.467 265.128 151.547 265.073 151.636 265.036C151.725 264.999 151.82 264.979 151.916 264.979C152.012 264.979 152.107 264.997 152.196 265.033L192.81 281.524C192.899 281.559 192.98 281.612 193.049 281.679C193.117 281.746 193.171 281.826 193.208 281.914C193.244 282.002 193.263 282.097 193.262 282.193C193.261 282.288 193.242 282.383 193.204 282.471C193.15 282.601 193.059 282.714 192.943 282.794C192.827 282.874 192.689 282.919 192.548 282.922Z" fill="#D1D3D4"/>
<path d="M205.749 277.154C205.648 277.174 205.544 277.174 205.443 277.154C204.671 276.804 178.566 266.447 164.873 261.013C164.697 260.941 164.555 260.804 164.479 260.63C164.403 260.455 164.398 260.258 164.465 260.081C164.537 259.901 164.676 259.756 164.852 259.677C165.029 259.598 165.23 259.591 165.412 259.658C167.043 260.314 205.225 275.435 206.07 275.843C206.218 275.915 206.338 276.035 206.409 276.184C206.481 276.333 206.499 276.502 206.462 276.662C206.425 276.823 206.334 276.967 206.204 277.069C206.075 277.172 205.914 277.227 205.749 277.226V277.154Z" fill="#D1D3D4"/>
<path d="M149.516 275.056C149.369 275.053 149.226 275.008 149.104 274.925C148.983 274.842 148.888 274.726 148.831 274.59C148.796 274.5 148.779 274.404 148.781 274.308C148.784 274.211 148.805 274.116 148.844 274.028C148.884 273.94 148.94 273.861 149.01 273.794C149.081 273.728 149.163 273.677 149.254 273.643L184.42 260.051C184.51 260.016 184.605 259.999 184.702 260.002C184.798 260.004 184.893 260.025 184.981 260.065C185.07 260.104 185.149 260.16 185.215 260.231C185.281 260.301 185.333 260.384 185.367 260.474C185.401 260.563 185.418 260.658 185.416 260.753C185.413 260.848 185.392 260.942 185.352 261.029C185.313 261.116 185.257 261.194 185.186 261.259C185.116 261.324 185.034 261.374 184.944 261.406L149.778 274.998C149.697 275.038 149.607 275.058 149.516 275.056Z" fill="#D1D3D4"/>
<path d="M165.948 281.903C165.803 281.901 165.661 281.855 165.542 281.772C165.422 281.689 165.33 281.572 165.278 281.436C165.21 281.257 165.215 281.057 165.291 280.881C165.367 280.704 165.509 280.564 165.686 280.49C179.088 275.333 199.381 267.379 201.041 266.257C201.108 266.175 201.193 266.109 201.289 266.064C201.384 266.018 201.489 265.995 201.595 265.995V265.995C201.788 265.995 201.973 266.072 202.11 266.208C202.247 266.345 202.323 266.53 202.323 266.723C202.323 267.379 202.323 267.932 166.21 281.844C166.129 281.884 166.039 281.904 165.948 281.903V281.903Z" fill="#D1D3D4"/>
<path d="M242.178 242.512C241.916 243.269 218.87 250.684 218.87 250.684C218.87 250.684 203.035 243.517 193.173 244.785C182.087 246.241 171.992 249.038 163.79 257.123C163.12 257.793 162.421 258.682 162.712 259.571C163.004 260.459 164.257 260.78 165.247 260.692C170.258 260.299 173.988 255.681 178.912 254.632C176.278 255.944 173.788 257.526 171.482 259.352C169.164 261.218 167.492 263.766 166.704 266.636C166.607 266.901 166.563 267.184 166.576 267.466C166.588 267.749 166.657 268.026 166.777 268.282C167.243 269.098 168.379 269.127 169.297 268.923C173.973 267.903 177.236 263.766 181.388 261.377C178.954 263.092 176.733 265.092 174.774 267.335C172.8 269.601 171.681 272.488 171.613 275.493C171.613 276.6 172.356 278.028 173.42 277.707C173.696 277.598 173.944 277.428 174.148 277.212C177.528 274.041 180.678 270.633 183.573 267.015C181.992 269.581 181.296 272.595 181.592 275.595C181.628 276.595 181.883 277.575 182.338 278.466C182.794 279.357 183.439 280.137 184.229 280.752C185.889 281.844 188.599 281.393 189.284 279.528C189.508 278.406 189.557 277.256 189.429 276.119C189.692 271.487 196.713 269.433 200.501 269.943C206.91 270.802 221.405 274.065 224.945 274.211C228.485 274.357 256.644 261.304 256.644 261.304" fill="white"/>
<path d="M186.24 282.005C185.369 282.013 184.514 281.77 183.778 281.305C182.91 280.623 182.2 279.76 181.697 278.777C181.194 277.794 180.91 276.713 180.864 275.61C180.709 274.056 180.802 272.487 181.141 270.962C179.087 273.308 176.902 275.551 174.629 277.678C174.351 277.984 174.001 278.215 173.61 278.348C173.363 278.417 173.104 278.429 172.851 278.384C172.599 278.338 172.36 278.236 172.153 278.086C171.777 277.757 171.474 277.352 171.266 276.897C171.057 276.443 170.948 275.949 170.944 275.449C170.977 272.778 171.826 270.181 173.377 268.005C172.181 268.731 170.878 269.262 169.516 269.579C169.061 269.813 168.544 269.903 168.036 269.835C167.529 269.767 167.054 269.545 166.676 269.199C166.298 268.853 166.035 268.399 165.923 267.899C165.811 267.399 165.855 266.877 166.049 266.403C166.67 264.054 167.895 261.91 169.604 260.183C168.281 260.859 166.843 261.279 165.364 261.421C164.716 261.552 164.043 261.465 163.449 261.172C162.856 260.88 162.377 260.398 162.087 259.804C161.591 258.347 162.903 257.036 163.325 256.613C172.299 247.771 183.428 245.309 193.13 244.071C202.526 242.862 216.802 248.951 218.973 249.898C227.262 247.232 240.431 242.847 241.728 242.017C241.825 241.91 241.951 241.834 242.09 241.798C242.23 241.761 242.377 241.767 242.514 241.813C242.605 241.842 242.689 241.89 242.761 241.952C242.833 242.015 242.892 242.091 242.934 242.176C242.976 242.262 243 242.355 243.006 242.45C243.011 242.545 242.998 242.641 242.966 242.731C242.835 243.138 242.602 243.838 219.162 251.369C218.994 251.434 218.807 251.434 218.638 251.369C218.478 251.296 202.861 244.289 193.32 245.542C183.778 246.795 173.012 249.14 164.359 257.677C163.631 258.391 163.325 258.959 163.456 259.367C163.587 259.775 164.505 260.051 165.262 259.993C167.809 259.578 170.218 258.553 172.284 257.007C174.273 255.62 176.485 254.585 178.825 253.948C178.997 253.911 179.176 253.938 179.329 254.022C179.483 254.107 179.601 254.245 179.661 254.41C179.721 254.575 179.72 254.756 179.657 254.92C179.595 255.084 179.475 255.22 179.32 255.302C176.736 256.586 174.294 258.138 172.036 259.935C169.846 261.686 168.253 264.073 167.477 266.767C167.345 267.129 167.345 267.526 167.477 267.889C167.724 268.326 168.569 268.326 169.21 268.18C172.022 267.568 174.294 265.762 176.713 263.81C178.09 262.659 179.55 261.612 181.083 260.678C181.239 260.58 181.428 260.548 181.609 260.589C181.789 260.63 181.945 260.74 182.044 260.896C182.15 261.05 182.192 261.239 182.162 261.424C182.132 261.608 182.033 261.774 181.884 261.887C179.497 263.562 177.32 265.518 175.401 267.714C173.532 269.842 172.47 272.559 172.401 275.391C172.41 275.937 172.629 276.459 173.012 276.848C173.049 276.871 173.092 276.883 173.136 276.883C173.18 276.883 173.223 276.871 173.26 276.848C173.434 276.772 173.589 276.658 173.712 276.513C177.071 273.375 180.197 269.996 183.064 266.403C183.119 266.324 183.19 266.258 183.271 266.206C183.352 266.155 183.443 266.12 183.538 266.104C183.632 266.088 183.729 266.091 183.823 266.112C183.917 266.133 184.005 266.173 184.084 266.228C184.162 266.284 184.229 266.354 184.28 266.435C184.331 266.516 184.366 266.607 184.382 266.702C184.399 266.796 184.396 266.893 184.375 266.987C184.354 267.081 184.314 267.169 184.259 267.248C182.753 269.67 182.092 272.524 182.379 275.362C182.413 276.251 182.636 277.123 183.033 277.919C183.429 278.715 183.991 279.418 184.681 279.98C185.072 280.219 185.51 280.371 185.965 280.426C186.419 280.481 186.881 280.438 187.318 280.3C187.618 280.215 187.896 280.063 188.13 279.856C188.365 279.65 188.55 279.393 188.672 279.106C188.839 278.484 188.879 277.835 188.789 277.197C188.789 276.775 188.789 276.338 188.789 275.915C188.852 275.091 189.09 274.288 189.486 273.563C189.883 272.837 190.43 272.204 191.091 271.705C193.852 269.663 197.273 268.719 200.691 269.054C203.604 269.462 208.222 270.351 212.68 271.21C217.837 272.215 223.183 273.25 225.062 273.322C227.699 273.322 245.195 265.704 256.368 260.547C256.455 260.505 256.549 260.481 256.646 260.476C256.742 260.471 256.838 260.485 256.929 260.518C257.02 260.55 257.103 260.6 257.174 260.665C257.246 260.73 257.303 260.809 257.344 260.896C257.42 261.075 257.424 261.275 257.356 261.457C257.289 261.638 257.154 261.787 256.98 261.872C254.066 263.198 228.617 274.852 224.931 274.779C222.935 274.692 217.793 273.701 212.33 272.638C207.96 271.778 203.313 270.89 200.414 270.511C197.404 270.221 194.393 271.045 191.95 272.827C191.443 273.198 191.022 273.673 190.715 274.221C190.409 274.769 190.224 275.377 190.173 276.003C190.173 276.367 190.173 276.731 190.173 277.11C190.286 277.956 190.211 278.816 189.954 279.63C189.758 280.119 189.455 280.557 189.067 280.913C188.678 281.268 188.215 281.532 187.711 281.684C187.24 281.867 186.744 281.975 186.24 282.005V282.005Z" fill="#231F20"/>
<path d="M270.848 102.838C270.848 102.838 341.137 192.968 319.562 219.714C297.988 246.46 233.337 271.88 233.337 271.88L217.312 242.235C217.312 242.235 279.137 212.459 280.492 206.487L235.041 153.082C235.041 153.082 245.909 98.2496 270.848 102.838Z" fill="#1E71B9"/>
<path d="M279.955 205.423C279.85 205.426 279.746 205.405 279.65 205.362C279.555 205.319 279.47 205.255 279.402 205.175L244.848 165.639C244.72 165.492 244.656 165.301 244.67 165.107C244.683 164.913 244.774 164.732 244.92 164.605C245.067 164.477 245.259 164.413 245.453 164.427C245.647 164.441 245.827 164.531 245.955 164.677L280.494 204.228C280.628 204.365 280.703 204.548 280.703 204.738C280.703 204.929 280.628 205.112 280.494 205.248C280.343 205.371 280.151 205.434 279.955 205.423Z" fill="#231F20"/>
<path d="M190.04 181.794C189.942 181.797 189.844 181.779 189.754 181.741C189.664 181.703 189.582 181.647 189.515 181.576C189.326 181.401 171.786 163.308 168.276 159.302C164.765 155.296 171.816 146.628 174.001 144.094C171.612 142.287 163.308 135.994 162.23 135.105C161.72 134.698 160.526 133.649 171.874 112.045C171.918 111.959 171.979 111.884 172.053 111.822C172.127 111.76 172.213 111.713 172.305 111.685C172.397 111.657 172.494 111.647 172.59 111.656C172.686 111.665 172.779 111.694 172.864 111.739C173.033 111.829 173.16 111.982 173.217 112.164C173.275 112.347 173.258 112.545 173.17 112.715C168.334 121.966 163.425 132.294 163.323 134.115C165.158 135.572 175.399 143.322 175.501 143.409C175.583 143.468 175.651 143.545 175.701 143.632C175.751 143.72 175.782 143.817 175.791 143.918C175.801 144.018 175.789 144.12 175.757 144.215C175.724 144.311 175.672 144.399 175.603 144.472C173.01 147.386 166.863 155.427 169.383 158.341C172.864 162.332 190.375 180.381 190.549 180.556C190.618 180.624 190.672 180.704 190.709 180.793C190.746 180.882 190.765 180.977 190.765 181.073C190.765 181.17 190.746 181.265 190.709 181.353C190.672 181.442 190.618 181.523 190.549 181.591C190.484 181.659 190.405 181.713 190.317 181.748C190.229 181.784 190.134 181.799 190.04 181.794V181.794Z" fill="#231F20"/>
<path d="M218.985 179.77C218.829 179.771 218.677 179.725 218.548 179.638C218.394 179.522 218.291 179.351 218.262 179.161C218.232 178.971 218.277 178.776 218.387 178.619C224.142 170.796 239.059 149.571 239.059 145.332C239.059 141.093 227.667 134.698 223.282 132.498C223.161 132.44 223.058 132.35 222.986 132.236C222.914 132.123 222.875 131.991 222.874 131.857C222.875 131.726 222.911 131.598 222.978 131.485C223.044 131.373 223.139 131.28 223.253 131.216C223.399 131.128 237.995 123.145 241.229 119.023C241.292 118.947 241.334 118.856 241.352 118.759C241.369 118.662 241.362 118.563 241.331 118.469C240.559 114.871 226.472 106.276 214.644 100.012L214.498 99.9248C214.412 99.8803 214.336 99.8193 214.275 99.7452C214.213 99.6712 214.166 99.5856 214.138 99.4934C214.109 99.4013 214.1 99.3044 214.109 99.2084C214.118 99.1124 214.146 99.0192 214.192 98.9342C214.287 98.7667 214.444 98.6427 214.628 98.5883C214.813 98.5339 215.012 98.5535 215.183 98.6428H215.328C223.224 102.824 241.696 113.094 242.744 118.105C242.82 118.405 242.827 118.718 242.764 119.021C242.701 119.324 242.57 119.609 242.38 119.853C239.467 123.524 228.774 129.715 225.147 131.755C229.153 133.867 240.516 140.306 240.516 145.259C240.516 150.736 221.709 176.492 219.567 179.405C219.507 179.508 219.422 179.595 219.321 179.659C219.219 179.722 219.104 179.76 218.985 179.77V179.77Z" fill="#231F20"/>
<path d="M155.257 227.872L149.721 229.561L137.164 185.101L142.7 183.426L155.257 227.872Z" fill="white"/>
<path d="M149.715 230.275C149.593 230.276 149.473 230.246 149.366 230.188C149.281 230.143 149.206 230.081 149.145 230.006C149.085 229.931 149.041 229.844 149.016 229.751L136.459 185.291C136.409 185.107 136.433 184.911 136.526 184.745C136.618 184.579 136.772 184.456 136.954 184.402L142.49 182.727C142.675 182.673 142.875 182.694 143.044 182.787C143.213 182.88 143.339 183.036 143.393 183.222L155.95 227.682C155.977 227.772 155.986 227.866 155.976 227.96C155.967 228.053 155.939 228.144 155.894 228.226C155.85 228.309 155.789 228.382 155.716 228.441C155.643 228.5 155.56 228.544 155.47 228.571L149.919 230.246C149.854 230.271 149.785 230.281 149.715 230.275V230.275ZM138.061 185.596L150.211 228.658L154.362 227.405L142.199 184.344L138.061 185.596Z" fill="#231F20"/>
<path d="M155.254 227.872L149.719 229.561L155.211 238.375L155.254 227.872Z" fill="white"/>
<path d="M155.213 239.103C155.089 239.103 154.968 239.07 154.861 239.009C154.754 238.948 154.664 238.86 154.601 238.754L149.095 229.94C149.048 229.84 149.023 229.73 149.023 229.62C149.023 229.509 149.048 229.4 149.095 229.299C149.134 229.194 149.199 229.099 149.282 229.023C149.366 228.947 149.466 228.892 149.575 228.862L155.111 227.172C155.22 227.144 155.334 227.14 155.444 227.16C155.555 227.18 155.66 227.224 155.752 227.289C155.842 227.357 155.914 227.446 155.965 227.547C156.015 227.648 156.042 227.759 156.043 227.872V238.375C156.043 238.532 155.992 238.686 155.898 238.812C155.803 238.938 155.67 239.03 155.519 239.074L155.213 239.103ZM150.843 229.969L154.499 235.796V228.818L150.843 229.969Z" fill="#231F20"/>
<path d="M112.806 202.568C112.806 202.568 95.0332 206.486 91.3477 215.999C91.3477 215.999 119.74 229.43 124.474 230.566C129.209 231.703 158.839 229.955 158.941 224.739C159.043 219.524 156.974 212.692 154.804 210.682C152.633 208.671 143.15 208.905 143.15 208.905C142.945 207.006 142.454 205.15 141.693 203.398C137.891 203.573 123.731 206.807 112.806 202.568Z" fill="white"/>
<path d="M129.603 231.572C127.828 231.626 126.052 231.509 124.3 231.222C119.551 230.071 92.2516 217.15 91.0425 216.655C90.8742 216.575 90.7426 216.434 90.6749 216.261C90.6072 216.087 90.6084 215.895 90.6783 215.722C94.4513 205.947 111.918 202 112.661 201.839C112.799 201.804 112.945 201.804 113.083 201.839C121.824 205.248 132.706 203.748 138.562 202.946C139.917 202.757 140.995 202.611 141.738 202.568C141.882 202.557 142.026 202.59 142.151 202.663C142.275 202.736 142.375 202.845 142.437 202.976C143.164 204.592 143.654 206.304 143.894 208.06C146.239 208.06 153.304 208.147 155.344 210.041C157.733 212.255 159.801 219.218 159.714 224.608C159.68 225.044 159.545 225.465 159.32 225.84C159.095 226.214 158.786 226.53 158.417 226.764C154.207 230.115 138.416 231.572 129.603 231.572ZM92.2953 215.547C96.5199 217.529 120.425 228.746 124.635 229.751C128.845 230.756 152.547 229.416 157.485 225.584C157.966 225.22 158.199 224.885 158.213 224.565C158.301 219.175 156.159 212.765 154.309 211.046C152.853 209.735 146.778 209.385 143.223 209.473C143.039 209.481 142.858 209.417 142.72 209.295C142.581 209.173 142.495 209.001 142.481 208.817C142.309 207.167 141.922 205.546 141.33 203.995L138.766 204.33C132.822 205.146 121.809 206.661 112.763 203.223C110.825 203.791 96.0829 207.564 92.2953 215.649V215.547Z" fill="#231F20"/>
<path d="M138.644 190.651C138.496 190.65 138.352 190.606 138.23 190.523C138.109 190.44 138.014 190.322 137.959 190.185C137.893 190.006 137.9 189.807 137.979 189.632C138.058 189.458 138.203 189.322 138.382 189.253L143.786 187.126C143.876 187.091 143.972 187.074 144.068 187.076C144.165 187.079 144.26 187.1 144.348 187.139C144.436 187.179 144.515 187.235 144.582 187.305C144.648 187.376 144.699 187.458 144.733 187.549C144.799 187.728 144.792 187.927 144.713 188.101C144.634 188.276 144.489 188.412 144.311 188.481L138.906 190.608C138.822 190.636 138.733 190.651 138.644 190.651Z" fill="#231F20"/>
<path d="M151.031 232.387C150.936 232.396 150.839 232.386 150.748 232.357C150.656 232.328 150.571 232.282 150.497 232.22C150.348 232.096 150.255 231.918 150.237 231.725C150.22 231.531 150.28 231.339 150.404 231.19C150.529 231.041 150.707 230.948 150.9 230.931L155.11 230.159C155.204 230.14 155.301 230.14 155.395 230.159C155.488 230.178 155.577 230.216 155.656 230.271C155.735 230.325 155.802 230.395 155.853 230.476C155.905 230.556 155.939 230.647 155.955 230.741C155.989 230.93 155.947 231.125 155.838 231.284C155.729 231.442 155.561 231.551 155.372 231.586L151.162 232.358L151.031 232.387Z" fill="#231F20"/>
<path d="M146.66 98.1331C146.66 98.1331 19.325 188.452 34.1547 202.568C48.9845 216.684 108.653 227.872 108.653 227.872L122.274 201.65L93.1387 187.184C101.486 181.795 146.645 152.747 146.645 152.747L146.66 98.1331Z" fill="#1E71B9"/>
<path d="M142.624 176.958C142.448 176.956 142.278 176.889 142.147 176.772C142.016 176.654 141.932 176.492 141.91 176.317L135.399 124.69C135.378 124.497 135.434 124.304 135.553 124.151C135.673 123.999 135.848 123.899 136.04 123.874C136.231 123.853 136.422 123.909 136.572 124.029C136.722 124.149 136.819 124.324 136.841 124.515L143.353 176.128C143.377 176.319 143.325 176.512 143.208 176.665C143.091 176.818 142.917 176.918 142.726 176.943L142.624 176.958Z" fill="#231F20"/>
<path d="M134.83 252.054C134.719 252.05 134.611 252.026 134.509 251.981L85.2273 227.027C85.141 226.985 85.064 226.926 85.0008 226.854C84.9377 226.782 84.8897 226.698 84.8598 226.607C84.8299 226.516 84.8187 226.42 84.8268 226.324C84.8348 226.228 84.8621 226.136 84.9068 226.051C84.9488 225.965 85.0074 225.887 85.0792 225.824C85.151 225.76 85.2346 225.712 85.3253 225.681C85.416 225.649 85.5119 225.637 85.6076 225.643C85.7033 225.649 85.7968 225.673 85.8829 225.716L135.165 250.67C135.315 250.742 135.435 250.864 135.506 251.014C135.578 251.165 135.595 251.335 135.556 251.497C135.517 251.659 135.423 251.802 135.291 251.904C135.159 252.005 134.996 252.058 134.83 252.054V252.054Z" fill="#D1D3D4"/>
<path d="M277.618 271.181L233.289 291.444L266.051 306.478L310.716 284.233L277.618 271.181Z" fill="white"/>
<path d="M266.054 307.206C265.953 307.227 265.849 307.227 265.748 307.206L233.001 292.187C232.873 292.129 232.766 292.036 232.69 291.919C232.614 291.801 232.574 291.664 232.574 291.525C232.574 291.385 232.614 291.248 232.69 291.13C232.766 291.013 232.873 290.92 233.001 290.862L277.315 270.584C277.407 270.544 277.506 270.524 277.606 270.524C277.707 270.524 277.806 270.544 277.898 270.584L310.995 283.694C311.125 283.746 311.237 283.834 311.317 283.947C311.397 284.061 311.442 284.196 311.447 284.335C311.454 284.475 311.421 284.614 311.351 284.736C311.281 284.857 311.178 284.956 311.054 285.02L266.375 307.279C266.264 307.278 266.155 307.253 266.054 307.206ZM235.055 291.444L266.04 305.662L308.941 284.306L277.65 271.968L235.055 291.444Z" fill="#D1D3D4"/>
<path d="M264.424 273.075L220.109 293.353L252.857 308.386L297.521 286.142L264.424 273.075Z" fill="white"/>
<path d="M252.855 309.115C252.754 309.135 252.65 309.135 252.549 309.115L219.801 294.096C219.674 294.038 219.566 293.945 219.491 293.827C219.415 293.71 219.375 293.573 219.375 293.433C219.375 293.293 219.415 293.156 219.491 293.039C219.566 292.921 219.674 292.828 219.801 292.77L264.116 272.361C264.208 272.322 264.307 272.302 264.407 272.302C264.507 272.302 264.606 272.322 264.699 272.361L297.796 285.472C297.926 285.523 298.038 285.611 298.118 285.725C298.198 285.839 298.243 285.974 298.248 286.113C298.255 286.253 298.222 286.392 298.152 286.513C298.082 286.634 297.979 286.733 297.854 286.797L253.176 309.057C253.074 309.098 252.965 309.118 252.855 309.115V309.115ZM221.855 293.353L252.841 307.571L295.742 286.215L264.451 273.818L221.855 293.353Z" fill="#D1D3D4"/>
<path d="M255.479 301.729C255.378 301.749 255.274 301.749 255.173 301.729L234.006 292.187C233.831 292.108 233.694 291.962 233.625 291.782C233.557 291.602 233.563 291.402 233.642 291.226C233.724 291.049 233.873 290.912 234.055 290.844C234.238 290.776 234.44 290.782 234.618 290.862L255.77 300.403C255.943 300.486 256.077 300.632 256.145 300.811C256.213 300.99 256.209 301.189 256.134 301.365C256.069 301.48 255.974 301.576 255.858 301.64C255.742 301.704 255.611 301.735 255.479 301.729V301.729Z" fill="#D1D3D4"/>
<path d="M263.316 297.781C263.22 297.803 263.12 297.803 263.024 297.781L241.858 288.225C241.694 288.139 241.569 287.993 241.508 287.818C241.448 287.642 241.457 287.451 241.533 287.281C241.609 287.112 241.747 286.979 241.918 286.908C242.09 286.837 242.281 286.834 242.455 286.899L263.622 296.456C263.797 296.535 263.934 296.681 264.002 296.861C264.07 297.041 264.065 297.241 263.986 297.417C263.916 297.532 263.818 297.626 263.7 297.69C263.582 297.754 263.449 297.785 263.316 297.781V297.781Z" fill="#D1D3D4"/>
<path d="M270.992 294.329C270.887 294.325 270.782 294.3 270.686 294.256L249.534 284.714C249.446 284.676 249.366 284.621 249.3 284.552C249.234 284.483 249.182 284.401 249.148 284.311C249.114 284.221 249.098 284.125 249.102 284.029C249.106 283.934 249.129 283.839 249.17 283.753C249.25 283.577 249.395 283.44 249.576 283.372C249.756 283.304 249.956 283.31 250.132 283.388L271.298 292.93C271.491 292.971 271.661 293.086 271.769 293.252C271.876 293.417 271.914 293.618 271.874 293.812C271.833 294.005 271.717 294.174 271.552 294.282C271.387 294.39 271.186 294.427 270.992 294.387V294.329Z" fill="#D1D3D4"/>
<path d="M279.182 289.55C279.081 289.571 278.977 289.571 278.876 289.55L257.709 279.994C257.534 279.915 257.397 279.769 257.328 279.589C257.26 279.408 257.266 279.209 257.345 279.033C257.427 278.856 257.576 278.719 257.758 278.651C257.941 278.583 258.143 278.589 258.321 278.669L279.473 288.225C279.666 288.263 279.836 288.377 279.945 288.541C280.055 288.705 280.094 288.906 280.056 289.099C280.017 289.292 279.903 289.462 279.739 289.571C279.576 289.681 279.375 289.72 279.182 289.682V289.55Z" fill="#D1D3D4"/>
</svg>
