<svg width="351" height="231" viewBox="0 0 351 231" fill="none" xmlns="http://www.w3.org/2000/svg">
<path d="M207.432 203.403C207.432 203.403 209.054 210.964 208.575 211.79C208.095 212.617 194.208 226.32 199.953 225.575C205.697 224.83 222.707 212.851 222.707 212.851L221.268 200.607L207.432 203.403Z" fill="white"/>
<path d="M199.541 226.085C199.276 226.117 199.006 226.07 198.767 225.951C198.528 225.831 198.329 225.644 198.195 225.412C197.327 223.738 200.797 219.463 206.684 213.167C207.378 212.412 208.041 211.698 208.133 211.545C208.327 210.994 207.664 206.943 206.929 203.535C206.902 203.401 206.928 203.262 207.002 203.148C207.077 203.033 207.193 202.952 207.327 202.923L221.163 200.158C221.232 200.144 221.303 200.145 221.372 200.161C221.44 200.177 221.505 200.207 221.561 200.25C221.619 200.29 221.667 200.341 221.704 200.401C221.741 200.46 221.765 200.527 221.775 200.597L223.214 212.841C223.225 212.933 223.211 213.026 223.173 213.11C223.136 213.195 223.075 213.268 223 213.321C222.296 213.81 205.827 225.371 200.021 226.126C199.86 226.127 199.7 226.113 199.541 226.085V226.085ZM208.041 203.77C208.653 206.709 209.49 211.198 209.061 212.014C208.563 212.641 208.032 213.24 207.47 213.81C201.47 220.29 198.664 224.014 199.144 224.953C199.144 225.034 199.45 225.106 199.929 225.034C205.113 224.361 220.081 214.055 222.204 212.576L220.816 201.219L208.041 203.77Z" fill="#231F20"/>
<path d="M229.623 204.025C229.623 204.025 230.093 210.27 229.623 212.657C229.154 215.045 222.215 222.473 223.889 223.432C225.562 224.392 244.01 213.729 244.01 213.729L242.806 200.046L229.623 204.025Z" fill="white"/>
<path d="M224.094 223.973C223.936 223.978 223.779 223.947 223.635 223.881C223.512 223.809 223.406 223.711 223.324 223.595C223.241 223.479 223.184 223.347 223.155 223.208C222.91 222.116 224.176 220.147 226.318 217.177C227.614 215.351 228.951 213.453 229.124 212.565C229.573 210.259 229.124 204.127 229.124 204.066C229.116 203.95 229.147 203.835 229.212 203.739C229.276 203.643 229.371 203.571 229.481 203.535L242.665 199.556C242.737 199.534 242.813 199.529 242.887 199.541C242.961 199.554 243.032 199.583 243.093 199.627C243.158 199.668 243.212 199.723 243.251 199.789C243.29 199.854 243.313 199.928 243.318 200.005L244.511 213.688C244.52 213.784 244.502 213.881 244.459 213.968C244.415 214.054 244.349 214.127 244.266 214.178C238.991 217.218 226.992 223.973 224.094 223.973ZM230.165 204.423C230.425 207.202 230.425 210 230.165 212.78C229.951 213.892 228.614 215.78 227.196 217.79C226.043 219.412 223.91 222.443 224.196 223.024C225.39 223.371 234.889 218.443 243.511 213.474L242.399 200.739L230.165 204.423Z" fill="#231F20"/>
<path d="M112.722 201.658C112.841 203.53 112.841 205.408 112.722 207.28C112.478 208.005 111.049 211.596 111.284 212.668C111.518 213.739 123.528 232.789 126.487 229.789C129.446 226.79 121.824 212.913 121.824 211.423C121.824 209.933 122.783 201.607 122.783 201.607L112.722 201.658Z" fill="white"/>
<path d="M125.701 230.626C125.482 230.624 125.266 230.59 125.058 230.524C120.721 229.259 111.079 214.096 110.773 212.78C110.579 211.913 111.14 210.107 112.028 207.678C112.102 207.501 112.167 207.321 112.222 207.137C112.35 205.327 112.35 203.509 112.222 201.699C112.217 201.629 112.228 201.56 112.252 201.495C112.277 201.429 112.315 201.37 112.364 201.321C112.412 201.271 112.469 201.232 112.532 201.206C112.595 201.179 112.663 201.166 112.732 201.168H122.793C122.864 201.169 122.935 201.185 123 201.215C123.065 201.245 123.123 201.288 123.17 201.342C123.218 201.393 123.253 201.455 123.274 201.522C123.296 201.589 123.302 201.66 123.293 201.729C123.293 201.821 122.344 210.106 122.344 211.494C122.699 212.638 123.139 213.753 123.66 214.831C126.507 221.371 129.088 227.953 126.864 230.136C126.714 230.294 126.534 230.419 126.334 230.503C126.133 230.587 125.918 230.629 125.701 230.626ZM113.252 202.168C113.39 203.925 113.373 205.69 113.201 207.443L112.997 208.015C112.66 208.953 111.609 211.8 111.783 212.555C112.201 213.902 121.711 228.647 125.415 229.565C125.534 229.613 125.665 229.627 125.791 229.603C125.918 229.58 126.035 229.52 126.129 229.432C128.047 227.514 124.578 219.514 122.721 215.219C122.093 214.036 121.62 212.777 121.313 211.474C121.313 210.229 121.986 204.097 122.211 202.168H113.252Z" fill="#231F20"/>
<path d="M139.19 202.944C139.19 202.944 139.669 210.964 139.19 212.759C138.71 214.555 137.873 216.586 138.118 217.667C138.363 218.749 153.077 231.677 153.801 229.402C154.526 227.126 148.526 217.933 148.414 216.3C148.301 214.668 150.322 202.097 150.322 202.097L139.19 202.944Z" fill="white"/>
<path d="M153.351 230.177H153.29C150.412 230.055 137.882 219.035 137.607 217.78C137.549 216.512 137.772 215.247 138.26 214.076C138.413 213.586 138.556 213.055 138.688 212.627C139.066 211.219 138.8 205.178 138.688 202.964C138.683 202.832 138.728 202.703 138.816 202.604C138.903 202.505 139.026 202.444 139.158 202.433L150.3 201.586C150.377 201.58 150.454 201.593 150.525 201.623C150.596 201.653 150.659 201.7 150.708 201.76C150.761 201.815 150.801 201.881 150.824 201.953C150.847 202.026 150.853 202.103 150.841 202.178C150.28 205.658 148.8 214.974 148.922 216.269C149.445 217.718 150.101 219.115 150.882 220.443C153.177 224.841 154.769 228.065 154.29 229.555C154.228 229.75 154.101 229.918 153.93 230.031C153.759 230.145 153.555 230.196 153.351 230.177V230.177ZM139.719 203.403C139.811 205.209 140.096 211.27 139.668 212.882C139.545 213.361 139.382 213.902 139.229 214.361C138.821 215.374 138.607 216.454 138.596 217.545C140.75 219.879 143.091 222.032 145.596 223.983C150.586 228.065 152.739 229.147 153.32 229.147C153.575 227.84 151.402 223.688 149.953 220.912C148.667 218.453 147.912 217.025 147.912 216.331C147.8 214.841 149.29 205.413 149.729 202.648L139.719 203.403Z" fill="#231F20"/>
<path d="M43.214 60.8373C43.214 60.8373 38.3877 56.011 38.0306 54.2254C37.6734 52.4397 37.0102 46.1849 35.5715 47.3379C34.1328 48.4909 34.6327 52.9703 34.6327 52.9703C34.6327 52.9703 27.9698 45.6441 26.2249 47.3379C24.4801 49.0317 23.7148 50.6643 23.7148 53.9601C23.7148 57.2559 40.2141 70.5002 40.2141 70.5002" fill="white"/>
<path d="M40.2126 71.0103C40.0977 71.0089 39.9864 70.9694 39.8963 70.8981C38.1719 69.5206 23.2031 57.4089 23.2031 53.96C23.2031 50.5112 23.9072 48.8582 25.8663 46.9705C26.0187 46.8321 26.1977 46.7263 26.3925 46.6597C26.5873 46.593 26.7936 46.5668 26.9989 46.5828C28.9682 46.6542 32.3354 49.848 34.019 51.5826C34.019 50.0623 34.1414 47.8175 35.2536 46.9399C35.3918 46.821 35.5593 46.7412 35.7387 46.7089C35.9182 46.6766 36.103 46.6929 36.274 46.7563C37.2944 47.1848 37.8147 49.6439 38.3147 52.8785C38.4066 53.4091 38.4678 53.8988 38.5392 54.1743C38.7739 55.3681 41.7534 58.7047 43.5798 60.5312C43.6276 60.5786 43.6656 60.6351 43.6915 60.6972C43.7174 60.7594 43.7307 60.8261 43.7307 60.8934C43.7307 60.9608 43.7174 61.0275 43.6915 61.0896C43.6656 61.1518 43.6276 61.2082 43.5798 61.2557C43.4827 61.3498 43.3528 61.4024 43.2176 61.4024C43.0823 61.4024 42.9524 61.3498 42.8553 61.2557C42.3554 60.7455 37.9066 56.2661 37.5392 54.3784C37.4678 54.0519 37.3964 53.5825 37.3148 53.0315C37.1209 51.7969 36.5291 48.0419 35.9067 47.7562C34.9781 48.5113 34.9475 51.3479 35.1414 52.9601C35.1555 53.0686 35.1343 53.1787 35.081 53.2742C35.0277 53.3698 34.9452 53.4456 34.8455 53.4907C34.7464 53.5344 34.6361 53.5461 34.53 53.5242C34.4239 53.5022 34.3273 53.4477 34.2537 53.3682C32.8456 51.7969 28.7743 47.7154 26.9683 47.6542C26.8295 47.6412 26.6909 47.6813 26.5805 47.7664C24.8255 49.4296 24.2337 51.001 24.2337 54.0111C24.2337 56.2457 34.2129 65.0922 40.4983 70.1532C40.6034 70.2374 40.671 70.3597 40.6863 70.4935C40.7016 70.6273 40.6634 70.7618 40.5799 70.8675C40.4804 70.9605 40.3488 71.0117 40.2126 71.0103V71.0103Z" fill="#231F20"/>
<path d="M62.4368 211.77H54.0698L52.6719 200.607H63.8347L62.4368 211.77Z" fill="white"/>
<path d="M62.4376 212.28H54.0706C53.9459 212.279 53.8258 212.233 53.7321 212.15C53.6385 212.068 53.5775 211.954 53.5604 211.831L52.1625 200.678C52.1556 200.605 52.1638 200.531 52.1866 200.461C52.2094 200.39 52.2464 200.326 52.2952 200.27C52.3415 200.215 52.3994 200.171 52.4646 200.141C52.5299 200.111 52.6009 200.096 52.6727 200.097H63.8355C63.9073 200.096 63.9783 200.111 64.0436 200.141C64.1088 200.171 64.1667 200.215 64.213 200.27C64.2618 200.326 64.2988 200.39 64.3216 200.461C64.3444 200.531 64.3526 200.605 64.3457 200.678L62.9478 211.831C62.9307 211.954 62.8697 212.068 62.7761 212.15C62.6825 212.233 62.5623 212.279 62.4376 212.28V212.28ZM54.5196 211.259H61.9886L63.2539 201.117H53.2543L54.5196 211.259Z" fill="#231F20"/>
<path d="M287.917 211.77H279.55L278.152 200.607H289.315L287.917 211.77Z" fill="white"/>
<path d="M287.914 212.28H279.547C279.422 212.279 279.302 212.233 279.209 212.15C279.115 212.068 279.054 211.954 279.037 211.831L277.639 200.678C277.632 200.605 277.64 200.531 277.663 200.461C277.686 200.39 277.723 200.326 277.772 200.27C277.818 200.215 277.876 200.171 277.941 200.141C278.006 200.111 278.077 200.096 278.149 200.097H289.312C289.384 200.096 289.455 200.111 289.52 200.141C289.585 200.171 289.643 200.215 289.69 200.27C289.738 200.326 289.775 200.39 289.798 200.461C289.821 200.531 289.829 200.605 289.822 200.678L288.424 211.831C288.407 211.954 288.346 212.068 288.253 212.15C288.159 212.233 288.039 212.279 287.914 212.28V212.28ZM279.996 211.259H287.465L288.73 201.117H278.731L279.996 211.259Z" fill="#231F20"/>
<path d="M298.181 88.7035C295.225 73.4775 287.064 59.7543 275.097 49.8873C263.13 40.0202 248.103 34.6241 232.592 34.6241H119.485C103.975 34.626 88.9491 40.0229 76.9824 49.8896C65.0158 59.7563 56.8539 73.4784 53.8959 88.7035H21.4688L48.2839 187.403H299.528L330.609 88.7035H298.181Z" fill="white"/>
<path d="M299.529 187.913H48.2842C48.1725 187.913 48.0641 187.876 47.9756 187.807C47.8871 187.739 47.8235 187.644 47.7944 187.536L20.9793 88.8361C20.9587 88.7615 20.9554 88.6833 20.9695 88.6073C20.9837 88.5313 21.0149 88.4595 21.0609 88.3973C21.1094 88.3351 21.1713 88.2845 21.2419 88.2491C21.3125 88.2138 21.3901 88.1947 21.469 88.1932H53.4779C56.5418 72.9427 64.7906 59.2231 76.8232 49.3649C88.8558 39.5067 103.93 34.1179 119.485 34.1139H232.593C248.148 34.1179 263.222 39.5067 275.255 49.3649C287.287 59.2231 295.536 72.9427 298.6 88.1932H330.609C330.69 88.1944 330.771 88.2144 330.843 88.2515C330.916 88.2887 330.979 88.3421 331.027 88.4075C331.074 88.4714 331.105 88.5454 331.117 88.6234C331.129 88.7014 331.123 88.7813 331.099 88.8565L300.018 187.556C299.986 187.66 299.92 187.751 299.832 187.816C299.744 187.88 299.638 187.914 299.529 187.913ZM48.6822 186.893H299.161L329.915 89.2136H298.182C298.064 89.2136 297.95 89.173 297.859 89.0986C297.768 89.0243 297.705 88.9207 297.682 88.8054C294.746 73.6965 286.646 60.0791 274.771 50.2871C262.895 40.4951 247.984 35.1381 232.593 35.1343H119.485C104.094 35.1381 89.1825 40.4951 77.3074 50.2871C65.4322 60.0791 57.3324 73.6965 54.3962 88.8054C54.3745 88.9216 54.3124 89.0263 54.2209 89.101C54.1294 89.1757 54.0143 89.2156 53.8962 89.2136H22.1323L48.6822 186.893Z" fill="#231F20"/>
<path d="M169.117 201.811H169.046C168.958 201.789 168.876 201.75 168.804 201.696C168.732 201.642 168.672 201.573 168.627 201.495C168.585 201.409 168.568 201.312 168.577 201.217C168.586 201.122 168.621 201.031 168.678 200.954C168.735 200.878 168.812 200.821 168.901 200.788C168.99 200.756 169.086 200.749 169.178 200.77C169.281 200.788 169.377 200.832 169.458 200.898C169.538 200.964 169.6 201.05 169.637 201.148C169.662 201.235 169.662 201.328 169.639 201.416C169.616 201.504 169.569 201.584 169.505 201.648V201.648C169.4 201.749 169.262 201.807 169.117 201.811V201.811Z" fill="#231F20"/>
<path d="M330.495 88.7035C319.383 88.7035 311.578 95.7746 309.496 108.223L296.231 168.006H55.5886L42.3239 108.223C40.2831 95.7746 32.4365 88.7035 21.3248 88.7035C16.068 88.8219 11.0664 90.9933 7.39043 94.753C3.71448 98.5127 1.65625 103.562 1.65625 108.82C1.65625 114.078 3.71448 119.127 7.39043 122.887C11.0664 126.647 16.068 128.818 21.3248 128.936L33.9569 188.556C34.7192 192.155 36.6979 195.38 39.5599 197.69C42.422 200 45.9925 201.254 49.6705 201.24C79.7712 201.117 157.186 201.24 157.166 201.24C157.533 201.168 272.028 201.086 302.129 201.24C305.807 201.254 309.378 200 312.24 197.69C315.102 195.38 317.08 192.155 317.843 188.556L330.495 128.916C335.752 128.798 340.754 126.626 344.43 122.867C348.105 119.107 350.164 114.058 350.164 108.8C350.164 103.541 348.105 98.4923 344.43 94.7326C340.754 90.9729 335.752 88.8015 330.495 88.6831V88.7035Z" fill="white"/>
<path d="M157.137 201.78H157.045C153.627 201.78 79.028 201.648 49.6926 201.78C45.8972 201.776 42.2179 200.471 39.2677 198.084C36.3175 195.696 34.2744 192.369 33.479 188.658L20.9387 129.477C15.5404 129.316 10.4204 127.045 6.67806 123.151C2.93573 119.257 0.869456 114.051 0.922886 108.651C0.976316 103.25 3.14519 98.0858 6.96383 94.2667C10.7825 90.4476 15.9464 88.278 21.3468 88.2239C32.8974 88.2239 40.7338 95.4991 42.8459 108.172L55.9984 167.527H295.845L309.008 108.141C311.11 95.4991 318.946 88.2239 330.497 88.2239C335.897 88.278 341.061 90.4476 344.88 94.2667C348.699 98.0858 350.867 103.25 350.921 108.651C350.974 114.051 348.908 119.257 345.166 123.151C341.423 127.045 336.303 129.316 330.905 129.477L318.365 188.658C317.567 192.354 315.531 195.667 312.594 198.048C309.656 200.429 305.994 201.735 302.212 201.75H302.151C270.908 201.617 158.453 201.75 157.259 201.75L157.137 201.78ZM91.6193 200.678H114.7C148.26 200.678 155.453 200.678 157.086 200.852V200.77C157.647 200.658 276.958 200.627 302.151 200.77H302.212C305.755 200.76 309.188 199.541 311.944 197.315C314.699 195.088 316.612 191.987 317.365 188.526L329.997 128.834C330.019 128.718 330.081 128.614 330.172 128.539C330.264 128.464 330.379 128.424 330.497 128.426C335.619 128.309 340.493 126.192 344.074 122.528C347.656 118.864 349.661 113.944 349.661 108.82C349.661 103.696 347.656 98.7758 344.074 95.1116C340.493 91.4475 335.619 89.3305 330.497 89.2136C319.497 89.2136 312.028 96.1725 310.008 108.305L296.743 168.118C296.718 168.232 296.654 168.333 296.563 168.405C296.472 168.478 296.359 168.517 296.243 168.516H55.5903C55.4741 168.517 55.3612 168.478 55.2703 168.405C55.1793 168.333 55.1159 168.232 55.0903 168.118L41.8256 108.335C39.7848 96.1725 32.326 89.2136 21.3264 89.2136C16.204 89.3305 11.3306 91.4475 7.74912 95.1116C4.1676 98.7758 2.16232 103.696 2.16232 108.82C2.16232 113.944 4.1676 118.864 7.74912 122.528C11.3306 126.192 16.204 128.309 21.3264 128.426C21.4446 128.424 21.5596 128.464 21.6511 128.539C21.7426 128.614 21.8047 128.718 21.8264 128.834L34.4585 188.444C35.2117 191.906 37.1242 195.007 39.8797 197.233C42.6351 199.46 46.0683 200.679 49.6109 200.688H49.6722C60.6207 200.688 76.8547 200.678 91.6193 200.678V200.678Z" fill="#231F20"/>
<path d="M293.132 155.446H57.683C57.1672 155.444 56.6632 155.291 56.2337 155.005C55.8041 154.72 55.468 154.314 55.2669 153.839C55.0658 153.364 55.0087 152.841 55.1026 152.334C55.1966 151.826 55.4374 151.358 55.7953 150.987L76.5903 129.559C76.6876 129.461 76.8198 129.406 76.9576 129.406H275.123C275.191 129.404 275.259 129.417 275.323 129.443C275.386 129.47 275.443 129.509 275.49 129.559L295.408 150.078C295.841 150.525 296.133 151.089 296.248 151.701C296.362 152.312 296.294 152.944 296.051 153.517C295.808 154.09 295.401 154.579 294.882 154.922C294.363 155.265 293.754 155.447 293.132 155.446V155.446ZM77.1719 130.436L56.5401 151.711C56.3225 151.937 56.1758 152.221 56.1183 152.529C56.0608 152.838 56.095 153.156 56.2166 153.445C56.3383 153.734 56.5421 153.981 56.8027 154.155C57.0634 154.329 57.3694 154.423 57.683 154.425H293.132C293.555 154.427 293.969 154.304 294.322 154.071C294.675 153.839 294.951 153.507 295.116 153.117C295.281 152.728 295.327 152.298 295.248 151.883C295.169 151.467 294.969 151.085 294.673 150.783L274.898 130.436H77.1719Z" fill="#D1D3D4"/>
<path d="M74.9867 123.559C74.8825 123.556 74.7815 123.523 74.6962 123.463C74.6109 123.403 74.5452 123.32 74.5071 123.223C68.3849 106.591 56.1406 95.0911 55.9671 94.9687C55.9183 94.9229 55.8794 94.8676 55.8528 94.8061C55.8262 94.7447 55.8125 94.6785 55.8125 94.6116C55.8125 94.5446 55.8262 94.4784 55.8528 94.417C55.8794 94.3556 55.9183 94.3002 55.9671 94.2544C56.0145 94.2066 56.071 94.1687 56.1331 94.1428C56.1953 94.1168 56.262 94.1035 56.3293 94.1035C56.3967 94.1035 56.4634 94.1168 56.5255 94.1428C56.5877 94.1687 56.6441 94.2066 56.6916 94.2544C56.814 94.3667 69.3033 106.029 75.4969 122.896C75.5211 122.959 75.5323 123.026 75.5299 123.093C75.5275 123.161 75.5115 123.227 75.483 123.288C75.4544 123.349 75.4137 123.403 75.3635 123.448C75.3133 123.493 75.2546 123.527 75.1908 123.549C75.1254 123.574 75.0541 123.577 74.9867 123.559V123.559Z" fill="#D1D3D4"/>
<path d="M278.152 126.375C278.019 126.373 277.893 126.32 277.798 126.227C277.703 126.134 277.647 126.008 277.642 125.875C277.305 111.927 293.101 94.9583 293.774 94.2441C293.821 94.1966 293.876 94.1588 293.937 94.133C293.999 94.1073 294.065 94.094 294.131 94.094C294.198 94.094 294.263 94.1073 294.325 94.133C294.386 94.1588 294.442 94.1966 294.488 94.2441C294.582 94.3412 294.635 94.4711 294.635 94.6063C294.635 94.7415 294.582 94.8714 294.488 94.9685C294.325 95.142 278.305 112.315 278.632 125.875C278.633 125.942 278.621 126.009 278.597 126.071C278.572 126.134 278.536 126.191 278.49 126.239C278.443 126.287 278.388 126.326 278.326 126.353C278.265 126.38 278.199 126.394 278.132 126.396L278.152 126.375Z" fill="#D1D3D4"/>
<path d="M21.3471 123.559C18.4352 123.549 15.5915 122.676 13.1753 121.051C10.759 119.426 8.87841 117.121 7.77105 114.428C6.66368 111.735 6.37916 108.774 6.95343 105.919C7.52769 103.065 8.93498 100.444 10.9976 98.3886C13.0602 96.3331 15.6856 94.9349 18.5424 94.3705C21.3991 93.8061 24.359 94.1008 27.0483 95.2175C29.7377 96.3342 32.0358 98.2227 33.6526 100.645C35.2693 103.066 36.1322 105.913 36.1322 108.825C36.1295 110.763 35.7449 112.682 35.0003 114.472C34.2557 116.262 33.1657 117.887 31.7927 119.256C30.4196 120.624 28.7904 121.708 26.9981 122.447C25.2058 123.185 23.2856 123.563 21.3471 123.559V123.559ZM21.3471 95.1113C18.637 95.1214 15.9906 95.9343 13.7421 97.4473C11.4937 98.9603 9.74388 101.106 8.71374 103.612C7.6836 106.119 7.4193 108.875 7.95419 111.532C8.48908 114.188 9.79919 116.627 11.7191 118.54C13.639 120.453 16.0826 121.754 18.7414 122.279C21.4002 122.804 24.155 122.529 26.6579 121.49C29.1607 120.45 31.2995 118.693 32.8042 116.439C34.3088 114.185 35.1118 111.535 35.1118 108.825C35.1092 107.021 34.7509 105.234 34.0576 103.568C33.3643 101.902 32.3495 100.389 31.0712 99.1159C29.7929 97.8424 28.2761 96.8332 26.6076 96.1461C24.9391 95.4589 23.1516 95.1073 21.3471 95.1113V95.1113Z" fill="#D1D3D4"/>
<path d="M330.5 123.559C327.586 123.559 324.737 122.695 322.314 121.076C319.891 119.457 318.002 117.156 316.887 114.464C315.772 111.771 315.48 108.809 316.049 105.951C316.617 103.093 318.021 100.467 320.081 98.4066C322.142 96.346 324.767 94.9427 327.625 94.3742C330.483 93.8057 333.446 94.0974 336.138 95.2126C338.831 96.3278 341.132 98.2163 342.751 100.639C344.37 103.062 345.234 105.911 345.234 108.825C345.228 112.731 343.674 116.476 340.912 119.238C338.15 122 334.406 123.554 330.5 123.559V123.559ZM330.5 95.1114C327.787 95.1114 325.136 95.9157 322.881 97.4226C320.626 98.9295 318.868 101.071 317.83 103.577C316.792 106.083 316.52 108.84 317.05 111.501C317.579 114.161 318.885 116.604 320.803 118.522C322.721 120.44 325.164 121.746 327.824 122.275C330.484 122.804 333.242 122.533 335.748 121.495C338.254 120.457 340.395 118.699 341.902 116.444C343.409 114.189 344.213 111.537 344.213 108.825C344.208 105.19 342.761 101.705 340.191 99.1341C337.62 96.5634 334.135 95.1168 330.5 95.1114V95.1114Z" fill="#D1D3D4"/>
<path d="M132.047 112.121L85.1107 114.631C85.1107 114.631 82.2333 127.498 90.2125 133.875C98.1918 140.252 114.477 146.864 115.436 151.548C116.395 156.231 110.579 196.668 111.212 206.239L125.65 209.668C125.65 209.668 138.098 161.333 137.782 153.354C137.466 145.375 133.313 141.589 133.313 141.589C133.313 141.589 144.812 151.436 145.129 153.67C145.445 155.905 136.874 207.178 136.874 207.178C136.874 207.178 152.118 207.77 152.434 206.811C152.751 205.852 166.842 158.466 163.322 148.242C159.801 138.018 132.047 112.121 132.047 112.121Z" fill="#231F20"/>
<path d="M125.691 210.066H125.579L111.151 206.647C111.057 206.626 110.972 206.574 110.91 206.501C110.847 206.427 110.81 206.336 110.804 206.239C110.477 201.26 111.824 188.342 113.161 175.843C114.355 164.506 115.487 153.803 115.038 151.609C114.498 148.987 108.151 145.354 102.018 141.834C97.8265 139.577 93.7996 137.027 89.9679 134.202C81.8663 127.712 84.5906 115.039 84.7131 114.498C84.7348 114.404 84.7862 114.32 84.8597 114.257C84.9332 114.195 85.0249 114.158 85.1212 114.151L132.058 111.692C132.177 111.686 132.294 111.726 132.385 111.805C133.517 112.825 160.281 137.865 163.791 148.068C167.403 158.558 153.057 206.464 152.904 206.923C152.751 207.382 152.475 208.209 136.905 207.596C136.84 207.592 136.776 207.574 136.719 207.544C136.661 207.515 136.609 207.473 136.568 207.423C136.528 207.374 136.499 207.316 136.483 207.255C136.467 207.193 136.465 207.128 136.476 207.066C139.915 186.495 144.945 155.293 144.721 153.711C144.547 152.507 140.058 148.14 136.017 144.528C137.426 147.254 138.197 150.265 138.272 153.333C138.588 161.292 126.63 207.8 126.119 209.78C126.085 209.865 126.025 209.938 125.949 209.989C125.873 210.04 125.783 210.066 125.691 210.066V210.066ZM111.692 205.831L125.364 209.076C126.589 204.27 137.67 160.751 137.374 153.323C137.068 145.64 133.089 141.905 133.048 141.865C132.967 141.781 132.922 141.669 132.922 141.553C132.922 141.437 132.967 141.326 133.048 141.242C133.125 141.151 133.235 141.095 133.353 141.086C133.472 141.076 133.59 141.114 133.68 141.191C134.864 142.211 145.313 151.221 145.639 153.558C145.955 155.741 138.67 199.474 137.476 206.688C144.068 206.933 151.108 206.933 152.118 206.515C152.894 203.944 166.403 158.16 162.975 148.354C159.659 138.722 134.068 114.58 131.936 112.641L85.5498 115.07C85.1824 117.11 83.6009 127.967 90.5598 133.538C94.3581 136.334 98.3473 138.86 102.498 141.099C109.385 145.038 115.324 148.446 115.946 151.466C116.426 153.803 115.334 164.078 114.079 175.955C112.824 187.536 111.436 200.678 111.692 205.831Z" fill="#231F20"/>
<path d="M82.9967 115.743C82.9967 115.743 85.7925 95.4277 88.425 84.8873C88.425 84.8873 80.6294 98.5194 71.2829 99.2847C61.9363 100.05 34.4375 68.3574 34.4375 68.3574L42.131 57.4905C42.131 57.4905 61.3955 72.6327 72.4869 77.4999C75.3643 70.7961 92.4044 46.6236 102.22 41.7871C112.036 36.9506 124.577 40.7667 131.28 46.2767C137.984 51.7867 180.85 107.58 180.85 107.58L170.309 112.131L136.066 76.8774L137.086 115.274L82.9967 115.743Z" fill="#1E71B9"/>
<path d="M174.145 166.833C174.145 166.833 172.839 174.567 174.277 176.485C175.716 178.404 184.134 184.383 184.705 181.852C185.42 178.659 183.114 178.118 181.787 173.271L181.971 166.476" fill="white"/>
<path d="M183.82 182.995C181.085 182.995 174.994 178.302 173.871 176.812C172.351 174.771 173.504 167.629 173.647 166.772C173.655 166.705 173.677 166.641 173.712 166.583C173.746 166.525 173.792 166.475 173.847 166.436C173.901 166.397 173.963 166.369 174.029 166.355C174.095 166.341 174.162 166.34 174.228 166.353C174.294 166.363 174.358 166.386 174.415 166.421C174.472 166.456 174.521 166.502 174.56 166.556C174.599 166.61 174.627 166.671 174.642 166.737C174.657 166.802 174.658 166.869 174.647 166.935C174.3 168.976 173.626 174.771 174.647 176.2C175.851 177.802 182.208 182.322 183.963 181.955C184.095 181.955 184.136 181.883 184.167 181.761C184.524 180.149 184.054 179.343 183.269 177.996C182.367 176.581 181.679 175.041 181.228 173.424C181.223 173.374 181.223 173.322 181.228 173.271L181.412 166.476C181.417 166.342 181.475 166.216 181.572 166.125C181.669 166.033 181.798 165.983 181.932 165.986C182 165.986 182.066 165.999 182.128 166.026C182.19 166.052 182.246 166.091 182.293 166.14C182.34 166.188 182.376 166.246 182.4 166.309C182.424 166.372 182.435 166.439 182.432 166.506L182.259 173.22C182.675 174.725 183.308 176.162 184.136 177.485C184.952 178.883 185.605 179.985 185.156 181.985C185.104 182.231 184.979 182.455 184.796 182.628C184.614 182.801 184.384 182.915 184.136 182.955C184.032 182.978 183.926 182.992 183.82 182.995V182.995Z" fill="#231F20"/>
<path d="M194.338 163.721C194.338 163.721 194.185 168.353 194.338 170.424C194.491 172.496 202.96 183.25 204.235 180.067C204.868 178.475 203.215 173.088 201.011 169.424C202.266 163.517 201.368 160.925 201.368 160.925" fill="white"/>
<path d="M203.474 181.159H203.209C200.209 180.699 194.026 172.383 193.893 170.486C193.73 168.445 193.893 163.914 193.893 163.721C193.901 163.588 193.959 163.463 194.056 163.372C194.152 163.281 194.28 163.231 194.413 163.231C194.48 163.233 194.546 163.249 194.607 163.277C194.668 163.305 194.723 163.345 194.768 163.395C194.814 163.444 194.849 163.502 194.872 163.565C194.895 163.627 194.906 163.694 194.903 163.761C194.903 163.761 194.75 168.384 194.903 170.404C195.036 172.026 201.097 179.802 203.362 180.148C203.408 180.166 203.457 180.173 203.506 180.169C203.555 180.165 203.603 180.15 203.646 180.126C203.689 180.101 203.726 180.068 203.754 180.028C203.783 179.988 203.802 179.942 203.811 179.893C204.331 178.597 202.882 173.424 200.637 169.69C200.568 169.577 200.543 169.442 200.566 169.312C201.77 163.67 200.944 161.149 200.944 161.088C200.912 161.023 200.895 160.952 200.894 160.88C200.892 160.808 200.905 160.736 200.933 160.67C200.961 160.603 201.003 160.544 201.056 160.494C201.109 160.445 201.171 160.408 201.239 160.385C201.308 160.361 201.38 160.353 201.452 160.36C201.523 160.366 201.593 160.388 201.656 160.424C201.718 160.46 201.773 160.508 201.815 160.566C201.858 160.624 201.888 160.691 201.903 160.762C201.903 160.874 202.821 163.496 201.607 169.333C203.648 172.812 205.515 178.373 204.76 180.25C204.67 180.519 204.498 180.752 204.266 180.916C204.035 181.079 203.757 181.164 203.474 181.159Z" fill="#231F20"/>
<path d="M149.547 124.916C149.547 124.916 157.924 137.936 167.301 140.222C172.995 149.997 171.617 167.945 171.617 167.945H182.148C184.238 162.179 185.328 156.099 185.372 149.966C185.454 143.609 181.29 135.395 181.29 135.395C181.29 135.395 191.402 145.834 192.127 151.578C192.585 156.871 192.762 162.184 192.657 167.496L203.657 166.476C203.657 166.476 206.534 147.64 201.739 137.079C196.943 126.518 188.606 117.365 188.606 117.365L149.547 124.916Z" fill="#231F20"/>
<path d="M182.145 168.353H171.614C171.553 168.353 171.492 168.341 171.436 168.316C171.38 168.292 171.329 168.256 171.288 168.21C171.245 168.164 171.212 168.109 171.191 168.049C171.17 167.99 171.161 167.926 171.165 167.863C171.165 167.69 172.451 150.15 167.002 140.579C157.635 138.181 149.513 125.692 149.166 125.161C149.134 125.096 149.117 125.025 149.117 124.952C149.117 124.879 149.134 124.808 149.166 124.743C149.194 124.673 149.24 124.612 149.299 124.565C149.358 124.518 149.429 124.488 149.503 124.477L188.552 116.906C188.628 116.889 188.706 116.892 188.78 116.915C188.854 116.938 188.919 116.981 188.971 117.039C189.052 117.131 197.419 126.345 202.185 136.865C206.95 147.385 204.297 165.761 204.225 166.537C204.208 166.637 204.159 166.729 204.086 166.799C204.012 166.869 203.918 166.913 203.817 166.925L192.818 167.945C192.754 167.95 192.691 167.941 192.631 167.92C192.572 167.899 192.517 167.866 192.471 167.823C192.425 167.78 192.388 167.727 192.363 167.669C192.339 167.611 192.327 167.549 192.328 167.486C192.435 162.198 192.258 156.908 191.797 151.64C191.297 147.609 185.899 141.048 182.961 137.752C184.195 140.701 185.951 145.711 185.899 149.997C185.841 156.184 184.74 162.317 182.645 168.139C182.595 168.223 182.52 168.289 182.43 168.328C182.34 168.367 182.24 168.375 182.145 168.353ZM172.094 167.455H181.838C183.805 161.817 184.839 155.896 184.9 149.925C184.971 143.752 180.951 135.64 180.91 135.548C180.864 135.453 180.853 135.343 180.879 135.24C180.906 135.137 180.968 135.047 181.055 134.986C181.143 134.924 181.249 134.896 181.355 134.906C181.461 134.915 181.56 134.962 181.634 135.038C182.053 135.467 191.838 145.65 192.593 151.487C193.055 156.632 193.235 161.8 193.134 166.965L203.276 166.057C203.633 163.435 205.623 146.793 201.297 137.242C196.97 127.692 189.614 119.182 188.41 117.855L150.279 125.243C151.993 127.743 159.38 137.844 167.38 139.763C167.5 139.794 167.602 139.871 167.666 139.977C172.931 148.956 172.278 164.455 172.094 167.455Z" fill="#231F20"/>
<path d="M235.105 103.223C234.034 104.55 209.096 127.559 206.535 146.681C205.514 154.446 206.004 206.168 206.004 206.168L223.473 205.148C223.473 205.148 224.901 156.466 227.044 150.385C229.187 144.303 242.033 133.253 242.033 133.253C242.033 133.253 236.768 136.753 232.085 157.364C228.891 171.414 227.85 206.178 227.85 206.178L244.176 204.433C244.176 204.433 243.768 157.19 260.288 144.007C277.96 129.937 272.736 121.019 272.379 113.549C272.022 106.08 266.257 98.5195 266.257 98.5195L235.105 103.223Z" fill="#231F20"/>
<path d="M227.847 206.637C227.734 206.638 227.626 206.598 227.541 206.525C227.495 206.479 227.459 206.425 227.435 206.366C227.41 206.306 227.398 206.242 227.398 206.178C227.398 205.831 228.479 171.21 231.642 157.272C234.091 146.517 236.693 140.375 238.652 136.956C234.714 140.681 228.826 146.691 227.428 150.548C225.326 156.486 223.888 204.678 223.877 205.168C223.873 205.281 223.826 205.388 223.747 205.469C223.668 205.55 223.562 205.599 223.449 205.607L205.98 206.627C205.86 206.631 205.742 206.587 205.654 206.505C205.608 206.463 205.572 206.413 205.548 206.356C205.523 206.3 205.51 206.239 205.511 206.178C205.511 204.066 205.021 154.333 206.052 146.63C207.082 138.926 212.715 125.039 233.601 104.091C234.183 103.499 234.622 103.07 234.714 102.948C234.782 102.861 234.88 102.803 234.989 102.784L266.11 98.0806C266.191 98.0667 266.274 98.0756 266.349 98.1063C266.425 98.1369 266.491 98.1881 266.539 98.254C266.774 98.5703 272.437 106.019 272.794 113.559C272.879 114.828 273.029 116.092 273.243 117.345C274.263 124.079 275.528 132.467 260.58 144.395C244.417 157.303 244.621 203.994 244.632 204.464C244.632 204.577 244.591 204.687 244.516 204.772C244.44 204.856 244.336 204.91 244.223 204.923L227.898 206.668L227.847 206.637ZM235.316 103.642C235.142 103.835 234.826 104.152 234.295 104.713C213.602 125.488 208.031 139.038 207.011 146.742C206.052 153.986 206.429 200.474 206.47 205.688L223.061 204.729C223.214 199.627 224.581 156.088 226.653 150.242C228.591 144.732 238.897 135.477 241.275 133.355C241.439 133.184 241.62 133.03 241.815 132.895C241.911 132.833 242.026 132.809 242.138 132.828C242.25 132.848 242.351 132.909 242.42 133C242.488 133.091 242.52 133.204 242.508 133.317C242.497 133.43 242.442 133.535 242.356 133.61L241.958 133.957C240.703 135.191 236.418 140.467 232.551 157.425C229.622 170.353 228.469 201.301 228.347 205.647L243.785 203.994C243.865 195.653 244.492 187.326 245.662 179.067C248.285 161.088 253.131 149.16 260.08 143.619C274.62 132.018 273.396 123.916 272.416 117.406C272.212 116.059 272.018 114.784 271.957 113.539C271.641 106.978 266.957 100.274 266.039 98.9581L235.316 103.642Z" fill="#231F20"/>
<path d="M284.807 113.611C284.298 115.824 283.534 117.97 282.532 120.008C280.92 123.233 281.593 127.804 281.46 129.947C281.328 132.089 281.46 134.089 283.124 135.048C284.787 136.008 287.205 137.089 287.491 135.855C287.776 134.62 288.297 131.314 288.562 129.967C288.827 128.62 291.786 120.029 291.786 120.029" fill="white"/>
<path d="M286.693 136.865C285.324 136.705 284.013 136.222 282.867 135.457C280.938 134.436 280.826 132.151 280.948 129.896C280.948 129.385 280.948 128.712 280.948 127.947C280.897 125.559 280.816 122.294 282.081 119.784C283.063 117.784 283.813 115.679 284.316 113.509C284.33 113.443 284.357 113.38 284.396 113.325C284.435 113.27 284.484 113.223 284.541 113.187C284.598 113.151 284.661 113.127 284.728 113.115C284.794 113.104 284.862 113.106 284.928 113.121C284.993 113.134 285.055 113.16 285.11 113.198C285.166 113.236 285.213 113.284 285.249 113.34C285.285 113.396 285.309 113.459 285.321 113.525C285.332 113.59 285.331 113.658 285.316 113.723C284.793 115.974 284.016 118.158 282.999 120.233C281.846 122.539 281.918 125.661 281.979 127.936C281.979 128.732 281.979 129.416 281.979 129.977C281.836 132.202 281.979 133.834 283.377 134.579C285.418 135.742 286.591 135.977 286.938 135.824C286.938 135.824 286.938 135.824 286.999 135.722C287.152 135.048 287.387 133.681 287.622 132.365C287.795 131.345 287.958 130.426 288.071 129.845C288.346 128.477 291.193 120.192 291.315 119.845C291.369 119.732 291.463 119.643 291.578 119.595C291.693 119.547 291.822 119.542 291.94 119.582C292.058 119.623 292.157 119.705 292.219 119.813C292.281 119.922 292.3 120.049 292.274 120.172C291.254 123.131 289.285 128.998 289.071 130.038C288.958 130.62 288.795 131.559 288.622 132.538C288.397 133.875 288.152 135.242 287.999 135.946C287.965 136.123 287.889 136.288 287.777 136.428C287.665 136.569 287.521 136.68 287.356 136.752C287.147 136.841 286.92 136.879 286.693 136.865V136.865Z" fill="#231F20"/>
<path d="M275.508 117.345C274.549 117.845 220.797 115.855 220.797 115.855C221.899 109.662 218.429 73.7449 220.092 67.0615C220.98 63.5005 220.848 52.858 222.847 49.7868C226.266 44.5319 234.98 41.6238 240.816 42.0626C245.51 42.4605 255.203 43.0013 259.774 44.185C266.662 45.9706 297.069 73.6837 300.589 81.765C306.711 95.9481 292.498 121.978 292.498 121.978L283.243 116.1L284.875 90.0401L269.794 78.01L275.508 117.345Z" fill="#1E71B9"/>
<path d="M191.94 55.7457C191.94 55.7457 184.665 45.1441 179.359 45.4604C174.053 45.7767 165.584 49.6031 166.982 51.6438C168.38 53.6846 177.032 50.4398 177.032 50.4398" fill="white"/>
<path d="M191.943 56.2559C191.861 56.2561 191.779 56.2357 191.706 56.1965C191.633 56.1573 191.571 56.1006 191.525 56.0314C191.454 55.9294 184.383 45.6951 179.393 45.9706C174.73 46.2563 168.271 49.1439 167.424 50.8888C167.281 51.1745 167.424 51.2969 167.424 51.3581C168.23 52.5418 173.434 51.2561 176.873 49.9602C176.936 49.9368 177.003 49.926 177.07 49.9284C177.137 49.9308 177.203 49.9465 177.264 49.9744C177.325 50.0024 177.38 50.0421 177.426 50.0913C177.472 50.1405 177.507 50.1983 177.531 50.2612C177.554 50.3242 177.565 50.3912 177.563 50.4584C177.56 50.5255 177.545 50.5915 177.517 50.6527C177.489 50.7138 177.449 50.7688 177.4 50.8145C177.351 50.8603 177.293 50.8959 177.23 50.9194C175.72 51.4806 168.128 54.1948 166.577 51.9397C166.429 51.7221 166.344 51.467 166.333 51.2036C166.322 50.9403 166.386 50.6792 166.516 50.45C167.689 48.042 174.975 45.2257 179.342 44.9605C184.883 44.6441 192.066 55.0212 192.372 55.4702C192.41 55.5248 192.437 55.5866 192.452 55.6519C192.466 55.7172 192.467 55.7846 192.454 55.8502C192.442 55.9159 192.417 55.9783 192.38 56.034C192.343 56.0896 192.295 56.1373 192.239 56.1743C192.152 56.2332 192.048 56.2618 191.943 56.2559V56.2559Z" fill="#231F20"/>
<path d="M222.857 49.7867C222.857 49.7867 208.745 69.092 205.868 68.5512C202.99 68.0105 190.348 50.4398 190.348 50.4398L180.828 56.9089C180.828 56.9089 194.623 93.642 203.684 93.9277C212.745 94.2134 228.479 79.9385 228.479 79.9385" fill="#1E71B9"/>
<path d="M198.227 98.8254C193.737 101.866 189.258 104.927 184.789 108.009L182.666 109.447L179.727 111.488C178.707 112.162 177.768 112.835 176.809 113.529C174.248 115.345 171.707 117.223 169.177 119.049L168.544 119.508L166.504 117.039C162.749 112.468 158.929 107.961 155.045 103.519C153.933 102.223 152.81 100.948 151.688 99.6621C150.27 98.0397 148.841 96.4174 147.402 94.8154C148.015 93.4379 148.657 92.1012 149.331 90.8462C149.952 89.6956 150.633 88.5784 151.372 87.4994C151.966 86.6094 152.624 85.7637 153.341 84.9689V84.9689C153.821 84.4356 154.336 83.9345 154.882 83.4689C155.499 82.947 156.143 82.4566 156.81 81.9996C158.901 80.5691 161.186 79.4455 163.596 78.663C165.915 77.9178 168.311 77.4386 170.738 77.2345C171.401 77.1733 172.044 77.1325 172.697 77.1121C173.371 77.1121 174.024 77.1121 174.677 77.1121C176.1 77.1383 177.52 77.2439 178.932 77.4284C179.952 77.561 180.972 77.7345 181.942 77.9488C182.911 78.163 183.687 78.3467 184.513 78.5814C186.628 79.1638 188.661 80.0106 190.564 81.1017C191.434 81.5923 192.225 82.2115 192.911 82.9383C193.64 83.886 194.221 84.9388 194.635 86.0607C194.921 86.7545 195.196 87.53 195.472 88.3565C195.615 88.7986 195.757 89.2476 195.9 89.7034C196.257 90.887 196.604 92.1624 196.921 93.5093C197.4 95.1521 197.819 96.9581 198.227 98.8254Z" fill="white"/>
<path d="M168.546 119.917C168.477 119.915 168.41 119.899 168.348 119.869C168.286 119.839 168.232 119.796 168.189 119.743L167.322 118.723L166.128 117.284C162.607 112.998 158.863 108.58 154.689 103.764C153.577 102.479 152.455 101.203 151.332 99.9174C149.904 98.3052 148.486 96.6828 147.047 95.0707C146.986 95.0041 146.947 94.9208 146.934 94.8317C146.921 94.7425 146.936 94.6516 146.975 94.5707C147.567 93.2034 148.22 91.8565 148.914 90.5708C149.536 89.4074 150.217 88.2768 150.955 87.1832C151.571 86.2771 152.253 85.4176 152.996 84.6119C153.482 84.0717 154.004 83.5638 154.557 83.0916C155.159 82.5814 155.822 82.0712 156.526 81.5916C158.655 80.1387 160.982 78.9979 163.434 78.204C165.795 77.4405 168.236 76.9509 170.709 76.7449C171.389 76.6905 172.07 76.6497 172.75 76.6225C173.43 76.5952 174.11 76.5952 174.791 76.6225C176.224 76.6535 177.655 76.7625 179.076 76.949C180.096 77.0816 181.117 77.2551 182.137 77.4694C183.158 77.6836 183.902 77.8775 184.729 78.1122C186.869 78.7063 188.926 79.5667 190.851 80.6733C191.767 81.1921 192.599 81.8457 193.32 82.612C194.086 83.5961 194.692 84.6945 195.116 85.867C195.392 86.5404 195.667 87.2955 195.963 88.1934C196.116 88.6219 196.259 89.0811 196.402 89.5505C196.749 90.7239 197.106 92.0096 197.422 93.3768C197.82 94.9278 198.228 96.6828 198.677 98.7644C198.698 98.856 198.69 98.9517 198.656 99.039C198.621 99.1263 198.561 99.2013 198.483 99.2541L185.055 108.437L179.954 111.886C178.933 112.56 178.005 113.243 177.035 113.927C175.566 114.947 174.107 116.039 172.648 117.1L169.413 119.457L168.781 119.906C168.705 119.93 168.624 119.933 168.546 119.917ZM147.945 94.6625L152.026 99.295C153.149 100.574 154.268 101.859 155.383 103.152C159.567 107.968 163.311 112.386 166.842 116.682L168.036 118.11L168.617 118.815L168.893 118.621L172.127 116.264C173.587 115.243 175.056 114.131 176.525 113.08C177.546 112.386 178.474 111.703 179.454 111.039L184.555 107.591L197.718 98.6215C197.3 96.693 196.912 95.04 196.545 93.5809C196.177 92.1218 195.841 90.9484 195.524 89.7852C195.392 89.326 195.249 88.8872 195.106 88.4485C194.81 87.5812 194.545 86.8465 194.269 86.1935C193.884 85.1151 193.333 84.1031 192.637 83.1936C191.987 82.4998 191.233 81.9112 190.402 81.4488C188.531 80.3789 186.532 79.5493 184.453 78.9795C183.647 78.7448 182.79 78.5407 181.923 78.3469C181.056 78.153 179.943 77.9693 178.943 77.8367C177.552 77.6568 176.152 77.5546 174.75 77.5306C174.097 77.5306 173.444 77.5306 172.78 77.5306C172.117 77.5306 171.495 77.5918 170.842 77.6428C168.439 77.8461 166.066 78.322 163.771 79.0611C161.403 79.826 159.159 80.9292 157.108 82.3365C156.427 82.8059 155.795 83.2854 155.21 83.7752C154.685 84.2177 154.194 84.6986 153.74 85.2139C153.74 85.2139 153.74 85.2139 153.689 85.2139C153.003 85.9833 152.369 86.798 151.792 87.6526C151.056 88.7192 150.375 89.8227 149.751 90.9586C149.108 92.183 148.506 93.4177 147.945 94.6625Z" fill="#231F20"/>
<path d="M164.698 58.7456C164.698 58.7456 159.188 78.2958 156.453 82.4691L174.391 84.02L175.585 56.7865L164.698 58.7456Z" fill="white"/>
<path d="M174.395 84.5709L156.426 82.9996C156.339 82.9918 156.255 82.9613 156.184 82.9112C156.112 82.8611 156.055 82.793 156.018 82.7139C155.973 82.6382 155.949 82.5519 155.949 82.4639C155.949 82.3759 155.973 82.2896 156.018 82.2139C158.681 78.1324 164.181 58.8169 164.181 58.6231C164.208 58.5326 164.259 58.4512 164.329 58.3882C164.399 58.3251 164.486 58.2828 164.579 58.2659L175.456 56.3477C175.538 56.3275 175.624 56.3282 175.706 56.3495C175.788 56.3709 175.863 56.4123 175.925 56.4701C175.985 56.5191 176.032 56.5819 176.062 56.6529C176.092 56.724 176.105 56.8013 176.099 56.8782L174.905 84.0914C174.902 84.1596 174.885 84.2265 174.855 84.2879C174.825 84.3493 174.783 84.404 174.731 84.4485C174.638 84.5287 174.518 84.5722 174.395 84.5709V84.5709ZM157.324 82.0302L173.884 83.5098L175.058 57.4905L165.13 59.2455C164.426 61.6638 159.987 77.0713 157.324 82.0302V82.0302Z" fill="#231F20"/>
<path d="M169.544 81.9792L168.442 88.6218C168.442 88.6218 169.105 90.6625 174.788 89.8564C180.472 89.0504 180.747 86.4484 180.747 86.4484C180.747 86.4484 182.512 74 182.512 73.9898C182.574 73.3265 183.104 66.8472 183.941 61.1332C177.288 60.1944 171.401 58.8782 171.401 58.8782C171.972 59.6128 169.584 59.419 169.595 59.419C168.526 59.2674 167.44 59.295 166.38 59.5006C165.513 63.2862 162.238 73.6735 162.421 75.9591C162.768 80.3058 169.544 81.9792 169.544 81.9792Z" fill="white"/>
<path d="M172.309 90.5094C168.687 90.5094 168.065 88.9687 167.993 88.7544C167.978 88.6838 167.978 88.6107 167.993 88.5401L169.014 82.3057C167.473 81.8567 162.279 80.0201 161.953 75.9794C161.83 74.3571 163.269 69.1634 164.544 64.5922C165.106 62.5514 165.646 60.5923 165.922 59.3883C165.943 59.3019 165.988 59.2231 166.051 59.1602C166.114 59.0972 166.193 59.0526 166.279 59.0312C167.386 58.8199 168.519 58.7889 169.636 58.9393C170.073 58.9866 170.515 58.9866 170.952 58.9393C170.942 58.8367 170.963 58.7334 171.013 58.6434C171.065 58.564 171.139 58.502 171.227 58.4655C171.314 58.4291 171.411 58.42 171.503 58.4394C171.564 58.4394 177.452 59.7556 184.003 60.6842C184.063 60.6928 184.122 60.7135 184.174 60.745C184.227 60.7766 184.273 60.8183 184.309 60.8678C184.384 60.9667 184.417 61.0915 184.401 61.2148C183.676 66.1737 183.176 71.7755 182.993 73.9489C182.993 74.0611 182.993 74.0611 181.207 86.53C181.207 86.632 180.819 89.438 174.85 90.3258C174.009 90.448 173.16 90.5094 172.309 90.5094V90.5094ZM168.922 88.5401C169.136 88.8462 170.248 90.0503 174.717 89.3768C179.891 88.6115 180.278 86.3974 180.289 86.3769C180.299 86.3565 182.044 74.0305 182.044 73.9183C182.227 71.7347 182.717 66.388 183.401 61.5209C178.146 60.7556 173.391 59.776 171.83 59.4801C171.432 59.9801 170.054 59.9393 169.565 59.8577C168.644 59.7304 167.71 59.7304 166.789 59.8577C166.493 61.0923 165.983 62.9188 165.463 64.8064C164.269 69.092 162.789 74.4081 162.902 75.8774C163.218 79.8568 169.605 81.469 169.677 81.4894C169.79 81.5185 169.889 81.5891 169.953 81.6873C170.018 81.7855 170.043 81.9042 170.024 82.02L168.922 88.5401Z" fill="#231F20"/>
<path d="M171.432 70.5104C170.554 71.6838 169.656 73.1021 169.983 73.5715C170.574 74.4082 172.564 74.1531 172.564 74.1531" fill="white"/>
<path d="M171.901 74.7041C171.473 74.7473 171.04 74.6936 170.636 74.547C170.231 74.4004 169.865 74.1647 169.564 73.8572C169.248 73.4083 169.197 72.6532 171.023 70.2043C171.104 70.0961 171.225 70.0245 171.359 70.0054C171.493 69.9862 171.629 70.0211 171.738 70.1023C171.846 70.1835 171.917 70.3043 171.937 70.4383C171.956 70.5722 171.921 70.7083 171.84 70.8165C170.36 72.8573 170.421 73.3062 170.421 73.3266C170.676 73.6736 171.819 73.7348 172.462 73.643C172.597 73.6254 172.734 73.6622 172.842 73.7455C172.95 73.8287 173.021 73.9515 173.039 74.0868C173.056 74.2221 173.019 74.3589 172.936 74.467C172.853 74.5751 172.73 74.6457 172.595 74.6633C172.364 74.6915 172.133 74.7051 171.901 74.7041V74.7041Z" fill="#231F20"/>
<path d="M177.698 86.5403L177.759 86.0607L198.044 88.6116C196.708 84.5914 192.759 72.2858 192.585 66.7248C192.391 60.0006 191.636 54.3274 183.484 51.7356C175.331 49.1439 169.627 50.4704 165.719 54.3682C164.543 55.5802 163.627 57.0203 163.029 58.5997C162.43 60.1791 162.162 61.8643 162.24 63.5515C162.24 63.5515 168.464 64.8065 170.137 64.8575L170.954 63.0209L171.739 65.0616L177.351 66.3473L178.739 63.9698V67.0309L181.657 67.1534C181.657 67.1534 178.015 78.1631 177.698 86.5403Z" fill="white"/>
<path d="M198.043 89.1219H197.971L178.196 86.6322C178.182 86.7675 178.114 86.8913 178.007 86.9765C177.901 87.0616 177.765 87.1011 177.63 87.0862C177.495 87.0713 177.371 87.0033 177.286 86.8971C177.201 86.7909 177.161 86.6552 177.176 86.5199C177.441 79.3774 180.166 70.1941 180.941 67.6738L178.696 67.582C178.566 67.5768 178.443 67.5221 178.352 67.4292C178.261 67.3363 178.209 67.212 178.207 67.082V65.8269L177.758 66.6126C177.703 66.706 177.621 66.7793 177.521 66.8216C177.422 66.8639 177.312 66.8729 177.207 66.8473L171.595 65.5514C171.512 65.5325 171.436 65.4938 171.372 65.4386C171.308 65.3835 171.258 65.3137 171.227 65.2351L170.891 64.3372L170.574 65.0412C170.531 65.1314 170.463 65.2073 170.378 65.2597C170.293 65.3122 170.195 65.3391 170.095 65.3372C168.391 65.3372 162.371 64.0719 162.105 64.0209C161.999 63.9992 161.903 63.9437 161.831 63.8627C161.76 63.7818 161.716 63.6797 161.707 63.5719C161.619 61.8131 161.896 60.0552 162.519 58.4082C163.142 56.7612 164.099 55.2608 165.33 54.0009C169.697 49.695 175.86 48.7664 183.645 51.2459C192.043 53.9193 192.9 59.8272 193.104 66.7044C193.277 72.2552 197.308 84.7547 198.532 88.4484C198.561 88.5309 198.568 88.6196 198.552 88.7056C198.536 88.7915 198.497 88.8717 198.44 88.9382C198.392 88.997 198.332 89.0441 198.263 89.0759C198.194 89.1078 198.118 89.1235 198.043 89.1219V89.1219ZM178.258 85.6118L197.349 88.0097C195.655 82.8364 192.247 72.0001 192.124 66.735C191.931 60.0312 191.104 54.6947 183.38 52.2255C175.87 49.8276 170.217 50.6541 166.085 54.7254C163.877 56.9532 162.644 59.9662 162.656 63.1026C163.942 63.3576 168.054 64.1229 169.738 64.2964L170.401 62.7862C170.445 62.6964 170.514 62.6204 170.598 62.5665C170.683 62.5126 170.78 62.4827 170.88 62.4801C170.983 62.4849 171.082 62.5193 171.165 62.579C171.248 62.6388 171.312 62.7214 171.35 62.8168L172.033 64.6229L177.013 65.7657L178.217 63.725C178.273 63.6288 178.36 63.5537 178.463 63.5113C178.566 63.4689 178.68 63.4615 178.788 63.4903C178.896 63.5193 178.991 63.583 179.06 63.6715C179.128 63.7599 179.165 63.8684 179.166 63.9801V66.5922L181.604 66.6942C181.683 66.6954 181.76 66.7154 181.83 66.7527C181.899 66.79 181.958 66.8435 182.002 66.9085C182.047 66.9732 182.076 67.0476 182.087 67.1257C182.097 67.2037 182.089 67.2831 182.064 67.3575C182.094 67.4595 178.778 77.5407 178.258 85.6118V85.6118Z" fill="#231F20"/>
<path d="M171.495 77.7447C171.21 77.7484 170.926 77.721 170.648 77.6631C169.786 77.4245 168.98 77.0153 168.279 76.4597C167.578 75.9041 166.996 75.2134 166.566 74.4285C166.534 74.3696 166.514 74.3049 166.507 74.2381C166.5 74.1713 166.506 74.1038 166.525 74.0393C166.544 73.9749 166.575 73.9148 166.617 73.8626C166.659 73.8103 166.711 73.7668 166.77 73.7347C166.829 73.7025 166.894 73.6823 166.961 73.6751C167.028 73.668 167.095 73.6741 167.16 73.693C167.224 73.712 167.284 73.7434 167.336 73.7856C167.389 73.8278 167.432 73.8798 167.464 73.9388C168.201 75.2569 169.424 76.2346 170.872 76.6631C171.607 76.7491 172.352 76.6649 173.049 76.4172C173.746 76.1695 174.377 75.7649 174.893 75.2346C174.998 75.1507 175.132 75.1103 175.267 75.1216C175.402 75.133 175.527 75.1953 175.617 75.2958C175.703 75.4007 175.745 75.5352 175.734 75.6705C175.722 75.8059 175.659 75.9314 175.556 76.0203C174.452 77.0623 173.011 77.6741 171.495 77.7447V77.7447Z" fill="#231F20"/>
<path d="M169.544 81.9792C169.544 81.9792 173.982 82.5914 175.86 81.2751C175.86 81.2751 173.952 83.2342 168.84 85.4382L169.544 81.9792Z" fill="#231F20"/>
<path d="M168.838 85.9383C168.763 85.9383 168.688 85.9215 168.62 85.8891C168.551 85.8566 168.491 85.8094 168.443 85.7508C168.395 85.6922 168.361 85.6237 168.343 85.5502C168.325 85.4768 168.323 85.4002 168.338 85.3261L169.042 81.867C169.067 81.7394 169.141 81.6265 169.248 81.5523C169.354 81.478 169.486 81.4481 169.614 81.4691C170.798 81.6324 174.165 81.8364 175.573 80.8467C175.677 80.7787 175.803 80.7506 175.927 80.7675C176.05 80.7843 176.164 80.845 176.246 80.9385C176.333 81.0312 176.381 81.1534 176.381 81.2803C176.381 81.4073 176.333 81.5295 176.246 81.6222C176.165 81.7038 174.206 83.6629 169.104 85.8975C169.019 85.9275 168.929 85.9413 168.838 85.9383V85.9383ZM169.951 82.5303L169.532 84.571C170.828 83.9758 172.083 83.294 173.287 82.5303C172.177 82.6315 171.06 82.6315 169.951 82.5303Z" fill="#231F20"/>
<path d="M169.994 69.0614C169.891 69.0607 169.79 69.0293 169.705 68.9712C169.619 68.913 169.553 68.8308 169.514 68.7349C169.249 68.0512 168.923 67.6431 168.586 67.5819C168.249 67.5206 167.688 67.9186 167.566 68.092C167.469 68.1862 167.339 68.2388 167.203 68.2388C167.068 68.2388 166.938 68.1862 166.841 68.092C166.741 68.0035 166.679 67.879 166.669 67.7454C166.66 67.6117 166.703 67.4797 166.79 67.3778C167.03 67.0881 167.336 66.86 167.682 66.7127C168.028 66.5654 168.405 66.503 168.78 66.5309C169.504 66.6635 170.076 67.2656 170.484 68.3267C170.509 68.389 170.521 68.4556 170.52 68.5227C170.519 68.5898 170.505 68.656 170.479 68.7176C170.452 68.7792 170.414 68.835 170.365 68.8817C170.317 68.9284 170.26 68.9652 170.198 68.99C170.135 69.0263 170.066 69.0505 169.994 69.0614V69.0614Z" fill="#231F20"/>
<path d="M177.034 69.9492C176.931 69.9485 176.83 69.9171 176.745 69.859C176.659 69.8008 176.593 69.7186 176.555 69.6227C176.289 68.939 175.963 68.5207 175.626 68.4595C175.429 68.4667 175.237 68.516 175.06 68.604C174.884 68.692 174.729 68.8167 174.606 68.9696C174.565 69.0296 174.513 69.0804 174.451 69.1185C174.39 69.1567 174.321 69.1814 174.25 69.1909C174.178 69.2005 174.105 69.1947 174.036 69.174C173.967 69.1533 173.903 69.1181 173.848 69.0708C173.793 69.0234 173.749 68.965 173.719 68.8995C173.689 68.8339 173.673 68.7626 173.672 68.6903C173.671 68.618 173.686 68.5464 173.715 68.4803C173.744 68.4141 173.787 68.3548 173.84 68.3064C174.079 68.0175 174.383 67.7899 174.727 67.6425C175.072 67.4952 175.446 67.4324 175.82 67.4595C176.544 67.5819 177.116 68.1942 177.534 69.2553C177.559 69.3183 177.57 69.3855 177.569 69.453C177.567 69.5206 177.552 69.5871 177.525 69.6488C177.497 69.7105 177.458 69.7661 177.409 69.8125C177.359 69.8588 177.301 69.8948 177.238 69.9186C177.172 69.9409 177.103 69.9512 177.034 69.9492V69.9492Z" fill="#231F20"/>
<path d="M171.608 134.63L142.559 128.641V86.4893L171.608 92.4788V134.63Z" fill="white"/>
<path d="M171.607 135.14H171.505L142.456 129.151C142.34 129.129 142.235 129.067 142.16 128.975C142.085 128.884 142.045 128.769 142.048 128.651V86.4893C142.043 86.4066 142.06 86.3241 142.095 86.2493C142.131 86.1745 142.185 86.1097 142.252 86.0608C142.309 86.01 142.378 85.9742 142.453 85.9564C142.528 85.9386 142.606 85.9394 142.68 85.9587L171.73 91.9381C171.845 91.9616 171.949 92.0242 172.023 92.1153C172.097 92.2064 172.138 92.3205 172.138 92.4381V134.63C172.138 134.705 172.121 134.78 172.087 134.847C172.054 134.915 172.005 134.973 171.944 135.018C171.852 135.101 171.731 135.145 171.607 135.14V135.14ZM143.037 128.222L171.097 134.018V92.8972L143.068 87.0811L143.037 128.222Z" fill="#231F20"/>
<path d="M207.433 128.641L178.383 134.63V92.4788L207.433 86.4893V128.641Z" fill="white"/>
<path d="M178.382 135.14C178.261 135.142 178.145 135.098 178.055 135.018C177.996 134.972 177.948 134.914 177.916 134.846C177.884 134.779 177.869 134.705 177.871 134.63V92.4788C177.869 92.3607 177.909 92.2457 177.984 92.1542C178.059 92.0627 178.163 92.0005 178.279 91.9789L207.319 85.9995C207.393 85.9802 207.471 85.9793 207.546 85.9971C207.621 86.0149 207.69 86.0508 207.748 86.1016C207.808 86.1464 207.857 86.2049 207.891 86.2723C207.925 86.3396 207.942 86.414 207.941 86.4893V128.641C207.942 128.758 207.901 128.872 207.827 128.963C207.752 129.054 207.649 129.117 207.533 129.141L178.484 135.13L178.382 135.14ZM178.892 92.8972V134.018L206.921 128.243V87.0811L178.892 92.8972Z" fill="#231F20"/>
<path d="M171.596 134.63H178.371V92.4891H171.596V134.63Z" fill="white"/>
<path d="M178.379 135.14H171.604C171.469 135.14 171.339 135.087 171.243 134.991C171.147 134.895 171.094 134.766 171.094 134.63V92.4789C171.094 92.3436 171.147 92.2139 171.243 92.1182C171.339 92.0225 171.469 91.9688 171.604 91.9688H178.379C178.514 91.9714 178.642 92.026 178.737 92.1211C178.832 92.2162 178.887 92.3444 178.889 92.4789V134.63C178.887 134.765 178.832 134.893 178.737 134.988C178.642 135.083 178.514 135.138 178.379 135.14ZM172.114 134.12H177.869V92.9891H172.114V134.12Z" fill="#231F20"/>
<path d="M184.237 106.346C184.13 106.347 184.025 106.311 183.941 106.244C183.878 106.2 183.827 106.142 183.791 106.075C183.756 106.007 183.737 105.932 183.737 105.856L183.492 98.5296C183.491 98.4121 183.53 98.2977 183.602 98.2051C183.675 98.1125 183.776 98.047 183.89 98.0194L203.563 93.4277C203.639 93.4108 203.718 93.4111 203.794 93.4288C203.87 93.4465 203.941 93.481 204.002 93.5298C204.062 93.5789 204.11 93.6413 204.142 93.7121C204.173 93.783 204.188 93.8603 204.185 93.9379L204.002 100.795C203.999 100.905 203.96 101.011 203.892 101.097C203.824 101.184 203.73 101.246 203.624 101.274L184.37 106.376C184.324 106.377 184.278 106.367 184.237 106.346V106.346ZM184.533 98.9173L184.727 105.182L202.991 100.387L203.155 94.5705L184.533 98.9173Z" fill="#D1D3D4"/>
<path d="M201.818 102.723C201.823 102.903 201.896 103.074 202.022 103.203C202.187 103.322 202.392 103.373 202.594 103.346C203.415 103.311 204.213 103.053 204.9 102.601C203.748 103.252 202.796 104.204 202.145 105.356C202.018 105.53 201.932 105.731 201.895 105.943C201.858 106.155 201.87 106.373 201.93 106.58C202.185 107.172 203.032 107.203 203.655 107.019C204.32 106.832 204.949 106.532 205.512 106.131C204.503 106.536 203.676 107.294 203.185 108.264C203.117 108.384 203.092 108.525 203.114 108.662C203.114 108.815 203.318 108.907 203.461 108.978C203.93 109.161 204.442 109.204 204.935 109.1C205.428 108.997 205.88 108.752 206.236 108.396C205.531 108.673 204.926 109.157 204.502 109.784C204.373 109.93 204.292 110.112 204.27 110.306C204.248 110.499 204.286 110.695 204.379 110.866C204.49 110.993 204.635 111.085 204.798 111.131C206.838 111.886 209.154 110.6 210.226 108.743C211.705 106.152 212.011 100.897 209.205 98.9988C206.94 97.4785 201.553 99.7641 201.818 102.723Z" fill="white"/>
<path d="M206.036 111.866C205.555 111.866 205.078 111.78 204.628 111.611C204.373 111.534 204.146 111.385 203.975 111.182C203.816 110.957 203.73 110.688 203.73 110.412C203.73 110.136 203.816 109.867 203.975 109.641C203.722 109.608 203.476 109.543 203.24 109.447C203.098 109.409 202.968 109.337 202.859 109.238C202.75 109.14 202.667 109.016 202.615 108.879C202.563 108.741 202.545 108.594 202.561 108.448C202.578 108.302 202.628 108.162 202.709 108.039C202.781 107.896 202.852 107.764 202.934 107.631C202.628 107.654 202.322 107.586 202.055 107.435C201.788 107.284 201.572 107.058 201.434 106.784C201.344 106.503 201.319 106.206 201.362 105.914C201.404 105.622 201.513 105.344 201.679 105.101C201.928 104.657 202.222 104.24 202.556 103.856C202.234 103.883 201.914 103.789 201.658 103.591C201.432 103.377 201.297 103.085 201.281 102.774C201.158 101.387 202.036 100.029 203.689 99.0499C205.342 98.0703 207.934 97.55 209.454 98.5805C212.515 100.621 212.219 106.223 210.638 108.988C210.173 109.815 209.508 110.511 208.704 111.014C207.9 111.517 206.982 111.81 206.036 111.866ZM205.424 109.498C205.237 109.667 205.072 109.859 204.934 110.07C204.77 110.315 204.75 110.509 204.781 110.549C204.811 110.59 204.832 110.6 204.985 110.662C206.791 111.325 208.883 110.049 209.78 108.488C211.189 106.019 211.444 101.131 208.913 99.4274C207.893 98.7336 205.852 98.9581 204.24 99.9274C203.699 100.166 203.234 100.549 202.897 101.036C202.56 101.522 202.365 102.092 202.332 102.682V102.682C202.324 102.73 202.324 102.778 202.332 102.825H202.546C203.156 102.798 203.753 102.634 204.291 102.346L204.628 102.152C204.741 102.084 204.877 102.065 205.005 102.097C205.133 102.13 205.243 102.212 205.311 102.325C205.378 102.439 205.4 102.574 205.372 102.702C205.343 102.831 205.267 102.944 205.158 103.019C205.046 103.093 204.93 103.161 204.811 103.223C203.878 103.818 203.106 104.634 202.566 105.601C202.483 105.708 202.422 105.831 202.387 105.963C202.352 106.094 202.344 106.231 202.362 106.366C202.485 106.631 203.026 106.652 203.485 106.519C203.715 106.458 203.94 106.379 204.158 106.284C204.508 106.019 204.893 105.803 205.301 105.641C205.419 105.589 205.553 105.582 205.675 105.624C205.797 105.666 205.899 105.753 205.96 105.867C206.021 105.981 206.036 106.113 206.003 106.238C205.97 106.363 205.89 106.471 205.781 106.539C205.435 106.785 205.066 106.997 204.679 107.172C204.252 107.536 203.904 107.984 203.658 108.488V108.488C204.061 108.649 204.504 108.678 204.924 108.57C205.262 108.29 205.645 108.069 206.056 107.917C206.163 107.881 206.279 107.881 206.386 107.918C206.493 107.955 206.584 108.026 206.646 108.121C206.708 108.215 206.737 108.328 206.728 108.441C206.719 108.553 206.673 108.66 206.597 108.743C206.274 109.095 205.872 109.364 205.424 109.529V109.498Z" fill="#231F20"/>
<path d="M149.986 103.489C149.987 103.577 149.971 103.666 149.938 103.748C149.904 103.83 149.855 103.905 149.792 103.968C149.627 104.086 149.422 104.137 149.221 104.111C148.397 104.071 147.598 103.814 146.905 103.366C148.059 104.017 149.015 104.969 149.67 106.121C149.795 106.296 149.879 106.497 149.916 106.709C149.953 106.921 149.942 107.138 149.884 107.346C149.629 107.937 148.782 107.968 148.16 107.784C147.494 107.598 146.866 107.297 146.303 106.897C147.31 107.3 148.134 108.059 148.619 109.029C148.695 109.147 148.724 109.289 148.7 109.427C148.7 109.58 148.496 109.672 148.343 109.743C147.874 109.927 147.362 109.969 146.869 109.866C146.376 109.763 145.924 109.518 145.568 109.162C146.294 109.426 146.918 109.912 147.353 110.549C147.568 110.876 147.731 111.325 147.486 111.631C147.373 111.76 147.224 111.853 147.058 111.896C145.017 112.651 142.711 111.366 141.639 109.509C140.16 106.917 139.854 101.662 142.66 99.7642C144.864 98.2438 150.262 100.529 149.986 103.489Z" fill="white"/>
<path d="M145.78 112.59C144.828 112.54 143.904 112.25 143.094 111.747C142.284 111.244 141.615 110.544 141.148 109.713C139.566 106.947 139.23 101.386 142.331 99.3049C143.852 98.2846 146.413 98.7642 148.096 99.7743C149.78 100.784 150.627 102.111 150.494 103.499C150.49 103.652 150.455 103.803 150.392 103.944C150.329 104.084 150.239 104.21 150.127 104.315C149.871 104.512 149.551 104.607 149.229 104.58C149.56 104.967 149.854 105.383 150.107 105.825C150.271 106.07 150.378 106.348 150.42 106.639C150.463 106.93 150.439 107.228 150.351 107.509C150.211 107.783 149.993 108.01 149.725 108.161C149.456 108.311 149.149 108.379 148.841 108.356C148.929 108.486 149.008 108.622 149.076 108.764C149.21 108.991 149.25 109.262 149.188 109.519C149.138 109.671 149.053 109.81 148.94 109.923C148.826 110.037 148.688 110.122 148.535 110.172C148.302 110.263 148.059 110.328 147.811 110.366C147.973 110.59 148.06 110.86 148.06 111.136C148.06 111.413 147.973 111.682 147.811 111.906C147.645 112.111 147.421 112.261 147.168 112.335C146.724 112.5 146.254 112.586 145.78 112.59V112.59ZM144.464 99.7539C143.912 99.7266 143.365 99.8652 142.893 100.152C140.362 101.856 140.617 106.743 142.036 109.213C142.923 110.774 145.015 112.049 146.831 111.386C146.974 111.325 147.025 111.294 147.035 111.274C147.046 111.253 147.035 111.039 146.882 110.794C146.741 110.58 146.573 110.385 146.382 110.213C145.938 110.066 145.535 109.814 145.209 109.478C145.125 109.397 145.073 109.289 145.062 109.173C145.05 109.057 145.081 108.941 145.148 108.845C145.209 108.747 145.303 108.674 145.413 108.638C145.523 108.603 145.643 108.607 145.75 108.651C146.16 108.807 146.542 109.027 146.882 109.305C147.302 109.412 147.745 109.384 148.148 109.223V109.223C147.909 108.714 147.561 108.264 147.127 107.907C146.743 107.727 146.374 107.516 146.025 107.274C145.926 107.199 145.857 107.091 145.831 106.969C145.805 106.847 145.823 106.72 145.882 106.611C145.941 106.501 146.038 106.417 146.154 106.374C146.271 106.331 146.399 106.331 146.515 106.376C146.922 106.54 147.306 106.756 147.658 107.019C147.873 107.112 148.095 107.191 148.321 107.254C148.79 107.386 149.341 107.366 149.443 107.101C149.545 106.835 149.443 106.682 149.25 106.335C148.71 105.369 147.938 104.552 147.005 103.958C146.886 103.896 146.77 103.828 146.658 103.754C146.547 103.681 146.469 103.567 146.441 103.438C146.412 103.308 146.435 103.173 146.505 103.06C146.573 102.946 146.683 102.865 146.811 102.832C146.939 102.8 147.075 102.819 147.188 102.886C147.301 102.945 147.41 103.01 147.515 103.08C148.058 103.366 148.657 103.53 149.27 103.56C149.423 103.56 149.474 103.56 149.484 103.56C149.491 103.516 149.491 103.471 149.484 103.427C149.566 102.458 148.852 101.438 147.576 100.672C146.632 100.117 145.56 99.8146 144.464 99.7947V99.7539Z" fill="#231F20"/>
<path d="M136.054 13.4311C136.054 13.4311 138.197 37.4607 140.472 42.94L118.555 45.3889L123.779 8.80884L136.054 13.4311Z" fill="white"/>
<path d="M118.557 45.8991C118.489 45.9008 118.421 45.888 118.357 45.8616C118.294 45.8352 118.237 45.7959 118.19 45.7461C118.136 45.69 118.094 45.6223 118.07 45.5481C118.045 45.4739 118.037 45.3951 118.047 45.3175L123.271 8.73747C123.285 8.66136 123.314 8.58906 123.358 8.52561C123.402 8.46216 123.46 8.4091 123.527 8.37013C123.595 8.3375 123.67 8.32056 123.746 8.32056C123.822 8.32056 123.897 8.3375 123.965 8.37013L136.21 12.9924C136.299 13.0252 136.378 13.083 136.436 13.1589C136.493 13.2349 136.528 13.3258 136.536 13.4209C136.536 13.6658 138.71 37.4403 140.934 42.787C140.969 42.8585 140.987 42.937 140.987 43.0166C140.987 43.0962 140.969 43.1748 140.934 43.2462C140.894 43.3132 140.839 43.3701 140.774 43.4125C140.708 43.455 140.634 43.4818 140.556 43.4911L118.629 45.94L118.557 45.8991ZM124.2 9.53335L119.149 44.8278L139.771 42.5319C137.73 36.4097 135.832 16.6963 135.577 13.8087L124.2 9.53335Z" fill="#231F20"/>
<path d="M125.322 39.4912L125.097 49.9296C125.097 49.9296 124.73 56.4089 118.281 54.1743C116.383 53.4948 114.659 52.4017 113.235 50.974C111.811 49.5463 110.722 47.8198 110.047 45.9195L111.924 27.3183C112.006 26.5224 112.802 18.8391 113.088 12.0128C121.057 12.3699 128.22 12.1251 128.22 12.1251C127.393 12.8597 130.26 13.1454 130.26 13.1454C131.537 13.2043 132.795 13.4732 133.985 13.9413C134.168 18.5534 135.087 23.6348 134.709 28.2264C134.519 30.9474 134.082 33.6455 133.403 36.2873C132.046 41.2463 125.322 39.4912 125.322 39.4912Z" fill="white"/>
<path d="M120.75 55.1131C119.857 55.0965 118.974 54.9274 118.138 54.6131C116.163 53.9198 114.369 52.7901 112.89 51.3079C111.412 49.8258 110.286 48.0294 109.598 46.0523C109.587 45.995 109.587 45.9362 109.598 45.8788C109.598 45.8788 111.465 27.3796 111.475 27.2674C111.751 24.5838 112.383 17.9412 112.628 11.9619C112.636 11.8376 112.691 11.7208 112.781 11.6354C112.825 11.5913 112.878 11.5575 112.936 11.5363C112.994 11.5151 113.056 11.5071 113.118 11.5129C120.985 11.8701 128.138 11.6354 128.209 11.6354C128.304 11.632 128.398 11.6575 128.478 11.7085C128.558 11.7595 128.621 11.8336 128.658 11.9211C128.684 11.9807 128.697 12.045 128.697 12.1099C128.697 12.1748 128.684 12.239 128.658 12.2986C129.182 12.4864 129.727 12.6064 130.281 12.6558V12.6558C131.606 12.7232 132.913 13.0057 134.148 13.4925C134.229 13.5268 134.299 13.5833 134.349 13.6555C134.4 13.7277 134.429 13.8126 134.433 13.9006C134.495 15.5332 134.658 17.2678 134.811 18.9412C135.173 22.0155 135.272 25.115 135.107 28.2061C134.922 30.962 134.482 33.6948 133.791 36.369C132.709 40.3689 128.352 40.5933 125.76 40.0832L125.546 49.9501C125.546 50.0827 125.352 53.0112 123.25 54.3989C122.507 54.8817 121.636 55.1305 120.75 55.1131V55.1131ZM110.547 45.8686C111.21 47.6782 112.261 49.3205 113.628 50.6797C114.994 52.0389 116.641 53.0821 118.455 53.7356C120.271 54.3683 121.72 54.3274 122.771 53.6132C124.485 52.4704 124.648 49.9195 124.658 49.8991L124.903 39.4811C124.902 39.4097 124.919 39.3391 124.951 39.2752C124.983 39.2114 125.029 39.156 125.087 39.1138C125.143 39.0723 125.209 39.0443 125.278 39.0319C125.347 39.0196 125.417 39.0231 125.485 39.0424C125.74 39.1036 131.729 40.6137 132.954 36.1139C133.623 33.4987 134.054 30.8279 134.24 28.1347C134.389 25.1002 134.277 22.0584 133.903 19.0432C133.76 17.4515 133.607 15.8189 133.536 14.2577C132.467 13.8795 131.351 13.6561 130.219 13.5945C128.005 13.3394 127.75 12.7986 127.679 12.5741C125.842 12.5741 119.985 12.7272 113.577 12.4517C113.312 18.329 112.7 24.6961 112.445 27.247L110.547 45.8686Z" fill="#231F20"/>
<path d="M124.975 23.5531C124.975 23.5531 128.128 28.9406 127.251 29.7977C126.373 30.6548 124.098 29.91 124.098 29.91" fill="white"/>
<path d="M125.922 30.7161C125.263 30.7018 124.61 30.5918 123.983 30.3896C123.919 30.37 123.859 30.3376 123.808 30.2943C123.756 30.251 123.714 30.1978 123.683 30.1377C123.653 30.0777 123.635 30.0121 123.63 29.9449C123.626 29.8778 123.635 29.8104 123.657 29.7468C123.699 29.6183 123.79 29.5117 123.911 29.4505C124.031 29.3893 124.171 29.3784 124.3 29.4203C124.942 29.6243 126.442 29.8998 126.932 29.4203C127.136 28.9611 126.044 26.3592 124.575 23.8083C124.508 23.6902 124.489 23.5504 124.523 23.4188C124.558 23.2872 124.642 23.1743 124.759 23.1042C124.816 23.0697 124.88 23.047 124.946 23.0376C125.012 23.0282 125.08 23.0321 125.145 23.0492C125.209 23.0664 125.27 23.0963 125.323 23.1373C125.376 23.1783 125.42 23.2295 125.453 23.2879C126.983 25.9 128.606 29.2162 127.646 30.1447C127.167 30.5511 126.549 30.7559 125.922 30.7161Z" fill="#231F20"/>
<path d="M129.257 23.2294C129.269 22.6096 129.014 22.1019 128.687 22.0953C128.361 22.0888 128.086 22.5859 128.073 23.2057C128.061 23.8255 128.316 24.3332 128.642 24.3397C128.969 24.3463 129.244 23.8491 129.257 23.2294Z" fill="#231F20"/>
<path d="M121.098 23.3055C121.111 22.6858 120.857 22.1777 120.53 22.1706C120.204 22.1636 119.928 22.6603 119.915 23.2801C119.901 23.8998 120.156 24.4079 120.482 24.4149C120.809 24.4219 121.085 23.9252 121.098 23.3055Z" fill="#231F20"/>
<path d="M128.434 19.3492L127.893 17.033L126.516 19.2676L119.679 19.5431L118.588 16.482L117.873 20.1043L114.445 19.5941C114.445 19.5941 116.771 36.9403 114.067 46.6134C114.067 46.6134 93.8336 47.0521 89.793 42.4401C89.793 42.4401 99.9966 24.4613 101.762 16.6453C103.527 8.82928 105.588 2.39078 115.72 1.12553C125.853 -0.139727 132.179 2.68668 135.934 8.10482C137.036 9.77537 137.785 11.6533 138.136 13.6237C138.487 15.594 138.432 17.6152 137.975 19.5635C137.975 19.5635 130.403 19.6553 128.434 19.3492Z" fill="white"/>
<path d="M112.505 47.1134C107.617 47.1134 92.9341 46.7767 89.4036 42.7564C89.3342 42.6759 89.2911 42.576 89.2801 42.4701C89.2692 42.3643 89.2909 42.2577 89.3424 42.1646C89.4445 41.9912 99.5461 24.1654 101.26 16.5229C103.005 8.57422 105.342 1.89084 115.617 0.61538C125.218 -0.558039 132.188 1.86023 136.31 7.81916C137.469 9.55078 138.256 11.5041 138.621 13.5555C138.986 15.6069 138.922 17.7118 138.432 19.737C138.402 19.8424 138.34 19.9357 138.254 20.0035C138.167 20.0713 138.062 20.1101 137.953 20.1146C137.636 20.1146 130.341 20.2064 128.361 19.9003C128.26 19.886 128.166 19.8412 128.091 19.7719C128.016 19.7026 127.965 19.6121 127.943 19.5125L127.678 18.3901L126.943 19.5329C126.898 19.6041 126.836 19.6634 126.763 19.706C126.691 19.7485 126.609 19.7732 126.525 19.7778L119.698 20.0533C119.588 20.0598 119.479 20.0305 119.387 19.9698C119.295 19.9091 119.225 19.8203 119.188 19.7166L118.78 18.3799L118.423 20.1758C118.4 20.3052 118.328 20.4207 118.221 20.497C118.114 20.5734 117.981 20.6046 117.851 20.5839L115.076 20.1758C115.484 23.5022 117.045 38.0015 114.607 46.7053C114.578 46.8104 114.515 46.9032 114.429 46.9695C114.342 47.0358 114.236 47.072 114.127 47.0726L112.505 47.1134ZM90.424 42.3381C94.5055 46.1339 110.944 46.1134 113.668 46.093C116.168 36.5322 113.954 19.8186 113.933 19.6452C113.923 19.5676 113.93 19.4886 113.955 19.4142C113.979 19.3399 114.021 19.2723 114.076 19.2166C114.134 19.1619 114.204 19.1208 114.279 19.0961C114.355 19.0714 114.436 19.0638 114.515 19.0738L117.464 19.5023L118.086 16.3698C118.077 16.2345 118.121 16.101 118.21 15.9986C118.299 15.8962 118.425 15.8334 118.561 15.8239C118.696 15.8144 118.829 15.8591 118.932 15.9481C119.034 16.0371 119.097 16.1631 119.106 16.2984L120.076 19.0228L126.269 18.7677L127.494 16.7269C127.55 16.6422 127.628 16.5744 127.72 16.5312C127.811 16.488 127.913 16.471 128.014 16.4821C128.113 16.4995 128.204 16.5456 128.277 16.6145C128.349 16.6835 128.4 16.7722 128.422 16.8698L128.892 18.8493C130.871 19.0636 136.096 19.0228 137.575 19.0126C138.331 15.3315 137.597 11.5011 135.534 8.35995C131.586 2.65611 125.127 0.441921 115.8 1.59493C106.117 2.77856 104.036 8.87013 102.321 16.6963C100.658 24.043 91.8729 39.777 90.424 42.3381Z" fill="#231F20"/>
<path d="M128.989 33.6548C128.989 33.6548 122.693 38.226 119.469 30.9508Z" fill="white"/>
<path d="M124.719 35.5833C124.23 35.5864 123.743 35.5246 123.27 35.3996C121.444 34.9099 119.995 33.4814 118.964 31.1651C118.936 31.1037 118.92 31.0372 118.918 30.9695C118.916 30.9019 118.928 30.8346 118.953 30.7716C118.978 30.7086 119.015 30.6514 119.062 30.6032C119.11 30.5551 119.167 30.5172 119.23 30.4917C119.29 30.4631 119.355 30.447 119.421 30.4445C119.488 30.4419 119.554 30.4529 119.616 30.4767C119.678 30.5006 119.735 30.5369 119.782 30.5833C119.83 30.6297 119.867 30.6853 119.893 30.7468C120.791 32.7875 122.015 34.0017 123.525 34.4099C126.046 35.0833 128.627 33.2569 128.627 33.2365C128.682 33.1973 128.744 33.1694 128.81 33.1544C128.875 33.1393 128.943 33.1375 129.01 33.1488C129.076 33.1602 129.14 33.1847 129.197 33.2207C129.254 33.2568 129.303 33.3037 129.341 33.3589C129.38 33.4129 129.408 33.4742 129.423 33.539C129.438 33.6039 129.44 33.6711 129.428 33.7367C129.417 33.8023 129.392 33.8649 129.357 33.9209C129.321 33.977 129.274 34.0252 129.219 34.063C127.895 34.9891 126.334 35.5167 124.719 35.5833V35.5833Z" fill="#231F20"/>
<path d="M125.322 39.4913C125.322 39.4913 120.078 38.022 118.18 36.0731C118.18 36.0731 119.68 43.7973 125.159 47.491L125.322 39.4913Z" fill="#231F20"/>
<path d="M125.148 47.9909C125.05 47.9939 124.953 47.9653 124.872 47.9093C119.281 44.1441 117.73 36.4914 117.669 36.1751C117.649 36.067 117.664 35.9555 117.712 35.8565C117.759 35.7575 117.837 35.6762 117.934 35.6241C118.031 35.5757 118.142 35.5586 118.249 35.575C118.357 35.5915 118.457 35.6407 118.536 35.7159C120.321 37.5424 125.413 38.9913 125.464 39.0015C125.571 39.0344 125.664 39.1007 125.73 39.1908C125.797 39.2808 125.832 39.3897 125.831 39.5015L125.658 47.5011C125.655 47.5922 125.628 47.6809 125.58 47.7581C125.532 47.8352 125.463 47.898 125.382 47.9399C125.308 47.9725 125.229 47.9898 125.148 47.9909V47.9909ZM119.026 37.3995C119.689 39.5933 121.321 43.838 124.648 46.5012L124.791 39.8688C122.782 39.2826 120.853 38.4533 119.046 37.3995H119.026Z" fill="#231F20"/>
<path d="M34.4375 59.8781C34.3414 59.8808 34.2466 59.8552 34.1649 59.8044C34.0833 59.7536 34.0184 59.6799 33.9784 59.5924C33.4355 58.5158 33.1716 57.3201 33.2108 56.115C33.2501 54.9098 33.5912 53.7338 34.2028 52.6948C34.276 52.5813 34.3913 52.5014 34.5232 52.4727C34.6552 52.444 34.7932 52.4688 34.9069 52.5417C35.0194 52.6184 35.0974 52.7361 35.1241 52.8697C35.1508 53.0032 35.1241 53.1419 35.0497 53.256C34.5386 54.1475 34.2562 55.1518 34.2277 56.1792C34.1992 57.2065 34.4255 58.2249 34.8865 59.1435C34.947 59.264 34.9574 59.4035 34.9153 59.5316C34.8732 59.6597 34.7822 59.7659 34.662 59.8271C34.5912 59.8584 34.5149 59.8757 34.4375 59.8781V59.8781Z" fill="#231F20"/>
<path d="M85.5781 88.7034C85.5781 88.7034 94.3533 77.4794 99.9857 70.5001Z" fill="white"/>
<path d="M85.576 89.2137C85.4796 89.2178 85.3841 89.1939 85.3009 89.1449C85.2178 89.096 85.1506 89.024 85.1075 88.9377C85.0643 88.8514 85.0471 88.7545 85.0578 88.6586C85.0685 88.5627 85.1067 88.472 85.1678 88.3974C85.2597 88.2749 94.0144 77.0713 99.5856 70.1737C99.673 70.0694 99.7978 70.0035 99.9332 69.9902C100.069 69.9768 100.204 70.0171 100.31 70.1022C100.363 70.1438 100.406 70.1955 100.438 70.2543C100.47 70.313 100.49 70.3776 100.497 70.4442C100.504 70.5109 100.497 70.5781 100.477 70.6421C100.457 70.706 100.425 70.7653 100.381 70.8165C94.8205 77.7141 86.0964 88.9076 85.9739 89.0198C85.9269 89.0805 85.8666 89.1295 85.7976 89.1632C85.7286 89.1968 85.6527 89.2141 85.576 89.2137V89.2137Z" fill="#231F20"/>
<path d="M136.987 111.07C136.853 111.07 136.725 111.018 136.63 110.924C136.534 110.831 136.479 110.703 136.477 110.57L135.293 63.8066C135.293 63.6713 135.347 63.5415 135.442 63.4458C135.538 63.3501 135.668 63.2964 135.803 63.2964C135.938 63.2964 136.068 63.3501 136.164 63.4458C136.26 63.5415 136.313 63.6713 136.313 63.8066L137.497 110.549C137.497 110.684 137.445 110.813 137.352 110.91C137.259 111.007 137.131 111.065 136.997 111.07H136.987Z" fill="#231F20"/>
<path d="M180.85 48.1439C180.85 48.1439 174.217 56.5517 179.258 54.9396C184.299 53.3274 186.125 50.3479 186.125 50.3479" fill="white"/>
<path d="M178.208 55.6538C177.993 55.6707 177.777 55.6338 177.579 55.5466C177.381 55.4593 177.208 55.3244 177.076 55.1538C176.055 53.6845 179.116 49.5418 180.443 47.8276C180.527 47.7207 180.65 47.6515 180.785 47.6353C180.919 47.619 181.055 47.657 181.162 47.7409C181.269 47.8248 181.338 47.9477 181.355 48.0826C181.371 48.2175 181.333 48.3534 181.249 48.4603C179.106 51.1846 177.545 54.0314 177.912 54.5824C177.912 54.5824 178.259 54.7355 179.106 54.46C183.881 52.9397 185.647 50.1643 185.657 50.1337C185.692 50.0766 185.739 50.0271 185.793 49.988C185.848 49.949 185.91 49.921 185.975 49.9059C186.04 49.8907 186.108 49.8886 186.174 49.8997C186.241 49.9107 186.304 49.9348 186.361 49.9704C186.418 50.004 186.469 50.0488 186.509 50.1021C186.549 50.1554 186.578 50.2162 186.594 50.2808C186.61 50.3454 186.613 50.4127 186.603 50.4785C186.593 50.5444 186.569 50.6075 186.534 50.6642C186.453 50.7969 184.586 53.7866 179.392 55.4395C179.009 55.5663 178.611 55.6384 178.208 55.6538V55.6538Z" fill="#231F20"/>
<path d="M220.094 67.0615C220.094 67.0615 221.328 107.356 221.012 110.233Z" fill="white"/>
<path d="M221.011 110.743H220.949C220.816 110.728 220.693 110.66 220.609 110.555C220.525 110.45 220.486 110.316 220.5 110.182C220.807 107.376 219.592 67.4902 219.582 67.082C219.581 67.015 219.593 66.9484 219.617 66.886C219.641 66.8236 219.678 66.7666 219.724 66.7183C219.771 66.6699 219.826 66.6312 219.888 66.6044C219.949 66.5775 220.015 66.563 220.082 66.5616C220.213 66.5681 220.337 66.621 220.432 66.7107C220.528 66.8005 220.588 66.9213 220.602 67.0514C220.654 68.7044 221.827 107.427 221.511 110.294C221.498 110.418 221.44 110.532 221.347 110.615C221.255 110.698 221.135 110.744 221.011 110.743V110.743Z" fill="#231F20"/>
<path d="M284.833 90.5503C284.723 90.5511 284.615 90.5152 284.527 90.4483L258.386 70.4083C258.332 70.3675 258.287 70.3164 258.253 70.2582C258.219 70.1999 258.197 70.1355 258.188 70.0687C258.179 70.0019 258.183 69.934 258.201 69.8689C258.218 69.8037 258.248 69.7426 258.289 69.689C258.33 69.6354 258.381 69.5904 258.439 69.5565C258.497 69.5226 258.562 69.5005 258.628 69.4915C258.695 69.4825 258.763 69.4868 258.828 69.504C258.893 69.5213 258.954 69.5512 259.008 69.5921L285.15 89.6422C285.232 89.7082 285.292 89.798 285.321 89.8993C285.35 90.0006 285.347 90.1084 285.312 90.208C285.278 90.3075 285.213 90.3939 285.127 90.4552C285.042 90.5165 284.939 90.5497 284.833 90.5503Z" fill="#231F20"/>
<path d="M243.102 5.72741C242.836 5.6593 242.574 5.57756 242.316 5.48252C240.49 1.75819 236.266 0.75823 232.531 1.72758C225.389 3.58464 215.256 3.16629 212.43 11.6251C208.287 23.9817 222.858 24.9613 230.725 27.2775C235.613 28.7264 242.102 29.5631 246.571 26.2571C249.99 23.7368 250.459 18.7269 249.816 14.8597C249.478 12.6784 248.686 10.5926 247.49 8.73748C246.975 7.88826 246.323 7.1298 245.561 6.49268C244.766 6.16407 243.943 5.90794 243.102 5.72741V5.72741Z" fill="white"/>
<path d="M238.664 29.0733C235.922 29.0197 233.202 28.58 230.583 27.7673C229.369 27.4101 227.991 27.0836 226.501 26.7469C220.91 25.4204 214.573 23.9205 212.145 19.6044C210.931 17.4208 210.859 14.7066 211.92 11.5231C214.237 4.60499 221.277 3.36015 227.491 2.27856C229.236 1.98265 230.869 1.68675 232.389 1.25819C236.042 0.299052 240.552 1.13575 242.654 5.09477L243.144 5.22741L243.082 5.7478L243.225 5.25803C244.134 5.45109 245.014 5.75613 245.848 6.16615C246.656 6.83913 247.346 7.64273 247.888 8.5436C249.127 10.4411 249.947 12.5801 250.296 14.8188C250.623 16.7677 251.317 23.4001 246.848 26.7061C244.445 28.3531 241.575 29.1831 238.664 29.0733V29.0733ZM235.195 1.90103C234.342 1.90305 233.492 2.00928 232.664 2.21734C231.113 2.62549 229.45 2.92139 227.695 3.2377C221.471 4.32949 215.033 5.4519 212.91 11.7986C211.89 14.7372 211.971 17.1147 213.063 19.0636C215.267 23.0328 221.379 24.4817 226.757 25.7572C228.236 26.1041 229.634 26.4306 230.838 26.7775C235.44 28.1448 241.848 29.0835 246.235 25.8592C249.429 23.5021 249.909 18.7166 249.296 14.9515C248.963 12.8564 248.195 10.8544 247.041 9.07419C246.576 8.28453 245.991 7.57198 245.307 6.96203C244.555 6.66421 243.785 6.4154 243.001 6.21717L243.144 5.72739L242.929 6.19676C242.021 5.93147 242.001 5.92126 241.909 5.69678C241.279 4.48033 240.309 3.47357 239.117 2.79949C237.925 2.12541 236.562 1.81321 235.195 1.90103V1.90103Z" fill="#231F20"/>
<path d="M229.105 41.4707L229.819 50.4805C229.819 50.4805 230.135 55.5211 237.737 54.2252C244.4 53.0824 247.42 44.8379 247.42 44.8379L243.737 25.9305C243.737 25.9305 237.727 24.0633 237.063 11.9005C231.536 15.6388 225.103 17.8173 218.442 18.2064C218.442 18.2064 217.554 31.6956 219.523 37.2362C221.493 42.7768 229.105 41.4707 229.105 41.4707Z" fill="white"/>
<path d="M235.39 54.9498C233.846 55.0293 232.322 54.5753 231.074 53.6642C230.585 53.2841 230.178 52.8103 229.874 52.2707C229.571 51.7311 229.379 51.1364 229.309 50.5214L228.635 42.0422C226.788 42.2157 220.819 42.3687 219.044 37.4098C217.054 31.8386 217.901 18.7269 217.931 18.1759C217.941 18.0518 217.994 17.9352 218.082 17.8473C218.17 17.7593 218.287 17.7057 218.411 17.6963C224.977 17.302 231.318 15.1601 236.778 11.4925C236.852 11.4378 236.939 11.4042 237.031 11.3953C237.122 11.3863 237.215 11.4022 237.298 11.4415C237.383 11.4779 237.455 11.5374 237.508 11.6132C237.56 11.689 237.59 11.778 237.594 11.87C238.216 23.4716 243.859 25.4307 243.91 25.4409C244.007 25.4658 244.095 25.5188 244.162 25.5932C244.229 25.6676 244.273 25.7601 244.288 25.8592L247.971 44.7564C247.997 44.8464 247.997 44.9419 247.971 45.0319C247.838 45.3788 244.767 53.5723 237.89 54.7458C237.064 54.8887 236.228 54.957 235.39 54.9498V54.9498ZM229.104 40.9606C229.218 40.9632 229.328 40.9986 229.421 41.0627C229.476 41.1077 229.522 41.1635 229.555 41.2266C229.588 41.2897 229.609 41.3589 229.615 41.43L230.329 50.4398C230.386 50.9194 230.539 51.3826 230.779 51.8016C231.02 52.2206 231.342 52.5869 231.727 52.8785C233.012 53.8989 235.002 54.1744 237.645 53.7152C243.502 52.6948 246.481 45.8176 246.889 44.787L243.267 26.3082C242.033 25.7572 237.4 23.0532 236.594 12.8292C231.283 16.2276 225.209 18.2509 218.921 18.7167C218.799 21.0839 218.289 32.2773 220.003 37.0832C221.809 42.1851 228.951 41.0014 229.023 40.9912L229.104 40.9606Z" fill="#231F20"/>
<path d="M229.704 49.1336C232.449 47.7757 234.844 45.8029 236.703 43.3686C239.356 39.6238 238.795 36.8586 238.795 36.8586C238.795 36.8586 233.642 41.1442 229.102 41.4707L229.704 49.1336Z" fill="#231F20"/>
<path d="M229.702 49.6438C229.576 49.6417 229.454 49.5925 229.362 49.5057C229.269 49.4189 229.213 49.3009 229.202 49.1745L228.59 41.5115C228.585 41.3752 228.629 41.2416 228.713 41.134C228.802 41.0336 228.926 40.9715 229.06 40.9605C233.386 40.6544 238.416 36.5016 238.467 36.4607C238.535 36.4057 238.615 36.3691 238.701 36.3548C238.787 36.3405 238.875 36.3489 238.957 36.3791C239.041 36.4082 239.115 36.4581 239.174 36.5242C239.233 36.5903 239.274 36.6703 239.294 36.7566C239.294 36.8791 239.865 39.8177 237.12 43.6645C235.217 46.1777 232.749 48.2084 229.917 49.5928C229.852 49.6302 229.777 49.6479 229.702 49.6438ZM229.641 41.9299L230.151 48.3378C232.539 47.0369 234.626 45.2462 236.274 43.0829C237.427 41.5692 238.134 39.7631 238.314 37.8688C236.753 39.0321 233.121 41.4809 229.641 41.9299Z" fill="#231F20"/>
<path d="M216.736 30.4304C216.085 30.4349 215.448 30.2312 214.92 29.8488C214.239 29.3651 213.777 28.6315 213.635 27.8081L213.206 25.2776C213.064 24.4536 213.255 23.6069 213.737 22.9237C214.219 22.2406 214.953 21.777 215.777 21.6349L221.328 20.686C222.153 20.5469 223 20.7405 223.683 21.2243C224.365 21.7082 224.829 22.4429 224.971 23.2675L225.41 25.798C225.547 26.6183 225.356 27.4596 224.879 28.1409C224.402 28.8222 223.676 29.2889 222.859 29.4407V29.4407L217.308 30.3896C217.119 30.4202 216.928 30.4339 216.736 30.4304V30.4304ZM221.838 21.6655C221.716 21.6554 221.593 21.6554 221.471 21.6655L215.92 22.6144C215.363 22.7093 214.866 23.0216 214.539 23.4827C214.211 23.9439 214.081 24.5161 214.175 25.0735L214.614 27.604C214.66 27.8806 214.76 28.1454 214.908 28.3832C215.057 28.6209 215.251 28.8268 215.48 28.989C215.709 29.1513 215.967 29.2666 216.241 29.3284C216.514 29.3901 216.797 29.3971 217.073 29.3488L222.624 28.3999C223.181 28.3051 223.678 27.9928 224.006 27.5316C224.333 27.0705 224.463 26.4983 224.369 25.9408L223.94 23.4001C223.841 22.8431 223.526 22.3479 223.063 22.0226C222.701 21.7796 222.274 21.6549 221.838 21.6655V21.6655Z" fill="#231F20"/>
<path d="M229.311 28.257C228.575 28.2461 227.865 27.9779 227.306 27.4989C226.747 27.0199 226.373 26.3604 226.25 25.6347L225.821 23.1042C225.749 22.6957 225.759 22.2771 225.85 21.8725C225.941 21.4678 226.112 21.0853 226.352 20.7472C226.835 20.0659 227.569 19.6037 228.392 19.4615L233.943 18.5126C234.768 18.3763 235.613 18.571 236.295 19.0544C236.977 19.5377 237.441 20.2707 237.586 21.0941L238.014 23.6246C238.156 24.4486 237.965 25.2953 237.483 25.9784C237.001 26.6616 236.267 27.1252 235.443 27.2673L229.892 28.2162C229.7 28.2474 229.505 28.2611 229.311 28.257ZM234.412 19.4921H234.055L228.505 20.441C227.948 20.5384 227.453 20.8513 227.126 21.3118C226.8 21.7722 226.668 22.343 226.76 22.9001L227.198 25.4306C227.244 25.7072 227.344 25.972 227.493 26.2098C227.641 26.4475 227.836 26.6534 228.064 26.8156C228.293 26.9779 228.551 27.0932 228.825 27.155C229.098 27.2167 229.381 27.2237 229.658 27.1754L235.208 26.2265C235.484 26.1802 235.748 26.0798 235.984 25.9309C236.22 25.782 236.425 25.5877 236.586 25.3592C236.913 24.8975 237.045 24.3257 236.953 23.7674L236.514 21.2369C236.424 20.7495 236.167 20.3087 235.787 19.9903C235.407 19.6719 234.929 19.4957 234.433 19.4921H234.412Z" fill="#231F20"/>
<path d="M224.622 24.7572C224.501 24.7548 224.384 24.7109 224.291 24.6329C224.198 24.555 224.135 24.4476 224.112 24.3286C224.091 24.1949 224.123 24.0584 224.201 23.9479C224.279 23.8374 224.397 23.7617 224.53 23.7368L226.02 23.4817C226.153 23.4608 226.29 23.4928 226.401 23.5709C226.511 23.649 226.587 23.7671 226.612 23.9001C226.632 24.0337 226.6 24.1703 226.522 24.2808C226.444 24.3912 226.326 24.467 226.193 24.4919L224.704 24.747L224.622 24.7572Z" fill="#231F20"/>
<path d="M229.575 25.6259C230.095 25.4996 230.373 24.8024 230.195 24.0686C230.017 23.3347 229.451 22.8422 228.93 22.9684C228.41 23.0947 228.133 23.7919 228.311 24.5257C228.489 25.2596 229.055 25.7521 229.575 25.6259Z" fill="#231F20"/>
<path d="M220.803 26.6656C221.299 26.464 221.47 25.7334 221.186 25.0339C220.901 24.3344 220.269 23.9308 219.773 24.1325C219.277 24.3342 219.106 25.0647 219.39 25.7642C219.675 26.4637 220.307 26.8673 220.803 26.6656Z" fill="#231F20"/>
<path d="M225.064 36.3588C224.221 36.364 223.378 36.3026 222.544 36.1751C222.477 36.1637 222.413 36.1393 222.355 36.1031C222.298 36.0669 222.248 36.0198 222.209 35.9644C222.169 35.9089 222.141 35.8463 222.126 35.78C222.111 35.7138 222.109 35.6452 222.121 35.5782C222.132 35.5112 222.156 35.4471 222.193 35.3896C222.229 35.332 222.276 35.2822 222.331 35.2429C222.387 35.2035 222.449 35.1755 222.516 35.1604C222.582 35.1453 222.651 35.1434 222.718 35.1548C222.789 35.1548 229.942 36.3078 232.87 32.2059C232.908 32.1511 232.956 32.1043 233.012 32.0684C233.068 32.0324 233.131 32.0081 233.196 31.9967C233.262 31.9852 233.329 31.9871 233.394 32.002C233.459 32.0169 233.52 32.0446 233.574 32.0835C233.629 32.1221 233.676 32.1713 233.712 32.2283C233.748 32.2852 233.773 32.3487 233.784 32.4151C233.796 32.4815 233.794 32.5495 233.779 32.6152C233.764 32.6808 233.736 32.7429 233.697 32.7977C231.564 35.8078 227.646 36.3588 225.064 36.3588Z" fill="#231F20"/>
<path d="M225.83 25.1041C225.83 25.1041 224.473 30.3692 225.545 31.2263C226.616 32.0834 229.106 31.0222 229.106 31.0222" fill="white"/>
<path d="M226.745 32.0834C226.202 32.1064 225.667 31.9485 225.224 31.6344C223.99 30.614 224.99 26.2877 225.337 24.9816C225.352 24.917 225.38 24.856 225.42 24.8024C225.459 24.7488 225.509 24.7036 225.566 24.6694C225.623 24.6352 225.686 24.6127 225.752 24.6032C225.817 24.5938 225.884 24.5975 225.949 24.6143C226.014 24.6309 226.075 24.6603 226.129 24.7006C226.182 24.7409 226.228 24.7914 226.262 24.8492C226.296 24.9071 226.318 24.971 226.328 25.0375C226.337 25.104 226.333 25.1717 226.316 25.2367C225.643 27.8692 225.428 30.4814 225.867 30.8385C226.469 31.3283 228.051 30.9303 228.928 30.563C228.99 30.5362 229.056 30.5218 229.123 30.5206C229.191 30.5195 229.257 30.5315 229.32 30.5562C229.382 30.5808 229.44 30.6175 229.488 30.6642C229.536 30.7109 229.575 30.7667 229.602 30.8283C229.628 30.8899 229.643 30.9563 229.644 31.0235C229.645 31.0907 229.633 31.1574 229.609 31.22C229.584 31.2825 229.547 31.3396 229.5 31.3879C229.454 31.4363 229.398 31.4749 229.336 31.5017C228.515 31.8519 227.637 32.049 226.745 32.0834Z" fill="#231F20"/>
<path d="M244.734 23.2471H244.663L237.071 22.1247C237.005 22.1147 236.941 22.0918 236.884 22.0571C236.826 22.0225 236.776 21.9768 236.736 21.9228C236.696 21.8688 236.668 21.8074 236.652 21.7423C236.635 21.6771 236.632 21.6094 236.643 21.5431C236.665 21.4103 236.738 21.2914 236.847 21.2114C236.955 21.1315 237.091 21.0968 237.224 21.1145L244.805 22.2369C244.941 22.2464 245.067 22.3092 245.156 22.4116C245.245 22.514 245.289 22.6475 245.28 22.7828C245.27 22.9181 245.208 23.0441 245.105 23.1331C245.003 23.2221 244.869 23.2668 244.734 23.2573V23.2471Z" fill="#231F20"/>
<path d="M239.973 24.6246C240.037 23.5773 240.438 22.5788 241.115 21.7778C242.097 20.5172 243.525 19.6809 245.105 19.4412C246.636 19.3085 247.952 20.635 248.482 21.9921C248.936 23.2691 248.917 24.6659 248.431 25.9307C247.986 27.3671 247.017 28.5837 245.717 29.3395C244.417 30.0954 242.88 30.3355 241.411 30.0122" fill="white"/>
<path d="M242.754 30.6957C242.259 30.6958 241.767 30.641 241.284 30.5324C241.155 30.4986 241.043 30.4161 240.973 30.302C240.903 30.188 240.879 30.0512 240.907 29.9202C240.921 29.8544 240.949 29.7921 240.987 29.7369C241.026 29.6818 241.075 29.6348 241.132 29.5988C241.189 29.5627 241.253 29.5383 241.319 29.5269C241.385 29.5155 241.453 29.5174 241.519 29.5325C242.873 29.8215 244.286 29.5904 245.477 28.8852C246.668 28.18 247.55 27.0524 247.947 25.7265C248.392 24.5772 248.41 23.3065 247.998 22.145C247.81 21.5249 247.434 20.9782 246.922 20.58C246.411 20.1818 245.789 19.9515 245.141 19.9206C243.696 20.1457 242.393 20.9162 241.499 22.0736C240.888 22.801 240.53 23.7069 240.478 24.6551C240.477 24.7231 240.462 24.7901 240.434 24.8519C240.405 24.9137 240.364 24.9689 240.314 25.014C240.263 25.0591 240.203 25.0932 240.138 25.1139C240.074 25.1347 240.005 25.1418 239.938 25.1347C239.871 25.1321 239.806 25.1162 239.745 25.088C239.685 25.0598 239.631 25.0198 239.586 24.9704C239.541 24.9209 239.507 24.8631 239.485 24.8002C239.463 24.7373 239.454 24.6706 239.458 24.6041C239.521 23.4334 239.966 22.3154 240.723 21.4206C241.784 20.0508 243.335 19.147 245.05 18.9003C245.921 18.9007 246.77 19.1803 247.472 19.6981C248.173 20.2159 248.69 20.9447 248.947 21.7777C249.466 23.1626 249.466 24.6885 248.947 26.0734C248.532 27.3969 247.709 28.5558 246.598 29.3856C245.486 30.2153 244.141 30.6737 242.754 30.6957V30.6957Z" fill="#231F20"/>
</svg>
