<svg width="1920" height="1040" viewBox="0 0 1920 1040" fill="none" xmlns="http://www.w3.org/2000/svg">
<g clip-path="url(#clip0)">
<rect width="1920" height="1040" fill="white"/>
<path d="M350.745 -37.71C350.745 -37.71 -403.476 366.166 -32.2817 1087.68C233.805 1604.87 397.363 1934.43 838.879 2013.43C1240.19 2085.22 1740.87 2071.89 1919.68 1642.49C2098.5 1213.1 2035.11 1263.25 1942.15 889.243C1849.19 515.237 2152.44 123.962 1774.4 -34.8353C1297.58 -235.159 1453.21 -592.567 888.096 -551.789C544.286 -526.98 350.745 -37.71 350.745 -37.71Z" fill="#F5F5FC"/>
<path opacity="0.32" d="M404.285 662.312C404.285 662.312 214.95 214.95 555.421 -63.3733C895.892 -341.696 837.547 57.4857 941.35 43.2025C1045.15 28.9194 1030.7 -17.7169 1132.86 -90.8103C1192.93 -133.809 1289.26 -102.436 1317.35 4.72095C1345.43 111.878 1423.82 108.324 1486.93 8.29174C1550.05 -91.7404 1619.7 -148.84 1683.81 -80.9948C1747.92 -13.1496 1779.29 104.703 1815.6 97.5617C1851.9 90.4201 1759.58 -64.2203 1798.99 -85.5122C1829.48 -102.004 1936.52 -83.6853 1965.87 37.3896C1994.2 154.312 1866.83 349.627 1873.91 473.575C1880.98 597.523 1894.49 561.383 1916.26 634.676L404.285 662.312Z" fill="#EAEDFB"/>
<path d="M267.067 785.746C267.067 785.746 52.5204 309.567 438.432 13.324C824.344 -282.919 758.176 141.956 875.747 126.759C993.318 111.563 977.058 61.9865 1092.78 -15.8901C1160.88 -61.6627 1270.05 -28.2467 1301.87 85.7863C1333.69 199.819 1422.58 196.033 1494.08 89.5897C1565.58 -16.8533 1644.55 -77.6565 1717.19 -5.44339C1789.84 66.7698 1825.43 192.196 1866.57 184.623C1907.71 177.049 1901.13 17.3599 1917.72 17.3599C1934.31 17.3599 1986.96 -19.2947 1979.97 108.59C1972.98 236.474 1924.6 452.848 1932.6 584.818C1940.61 716.788 1955.94 678.273 1980.6 756.266L267.067 785.746Z" fill="#EAEDFB"/>
<path d="M267.067 785.746C267.067 785.746 317.706 517.969 563.51 517.969C809.313 517.969 875.747 785.746 875.747 785.746H267.067Z" fill="#E1E6FB"/>
<path d="M712.005 781.279C712.005 781.279 762.677 344.379 1008.4 344.379C1254.12 344.379 1320.64 781.279 1320.64 781.279H712.005Z" fill="#E1E6FB"/>
<path d="M1301.88 756.266C1301.88 756.266 1352.56 390.45 1598.21 390.45C1843.86 390.45 1910.45 756.266 1910.45 756.266H1301.88Z" fill="#E1E6FB"/>
<path d="M1050.5 756.266C1050.5 756.266 1101.17 379.672 1346.88 379.672C1592.58 379.672 1659.2 756.266 1659.2 756.266H1050.5Z" fill="#BAC5F4"/>
<path d="M792.19 698.087L1101.11 311.112L1449.88 681.478L792.19 698.087Z" fill="#E1E6FB"/>
<path d="M872.741 697.257V972.955L1402.55 979.599V682.309H851.15V695.596L872.741 697.257Z" fill="#BAC5F4"/>
<path d="M1552.85 797.737V948.873H1402.55L1401.72 681.479H1449.88L1552.85 797.737Z" fill="#B0C0F4"/>
<path d="M1028.03 731.304H993.151V822.65H1028.03V731.304Z" fill="#A0B5EF"/>
<path d="M1067.89 731.304H1033.01V822.65H1067.89V731.304Z" fill="#A0B5EF"/>
<path d="M1165.88 731.304H1131V822.65H1165.88V731.304Z" fill="#A0B5EF"/>
<path d="M1273.83 731.304H1238.96V822.65H1273.83V731.304Z" fill="#A0B5EF"/>
<path d="M1233.97 736.286H1170.86V817.667H1233.97V736.286Z" fill="#A0B5EF"/>
<path d="M1228.99 741.269H1174.18V812.685H1228.99V741.269Z" fill="#E1E6FB"/>
<path d="M1202.42 741.269H1200.76V814.345H1202.42V741.269Z" fill="#A0B5EF"/>
<path d="M792.19 698.087L1101.11 311.113L1552.85 797.738L1564.48 786.112L1101.11 287.861L783.886 691.444L792.19 698.087Z" fill="#B0C0F4"/>
<path d="M1101.11 287.86L1282.14 422.388L1637.56 787.772H1564.48L1101.11 287.86Z" fill="#E1E6FB"/>
<path d="M1552.85 797.737H1630.91L1637.56 787.772H1564.48L1552.85 797.737Z" fill="#B0C0F4"/>
<path d="M884.575 859.362C884.631 854.877 881.044 851.196 876.563 851.141C872.083 851.085 868.406 854.676 868.35 859.161L867.051 964.018C866.995 968.503 870.582 972.184 875.063 972.239C879.543 972.295 883.22 968.704 883.276 964.219L884.575 859.362Z" fill="#A0B5EF"/>
<path d="M912.304 859.706C912.36 855.221 908.773 851.54 904.292 851.484C899.812 851.429 896.135 855.02 896.079 859.505L894.78 964.362C894.724 968.847 898.311 972.528 902.792 972.583C907.272 972.639 910.949 969.048 911.005 964.563L912.304 859.706Z" fill="#A0B5EF"/>
<path d="M942.027 860.074C942.082 855.589 938.495 851.908 934.015 851.852C929.534 851.797 925.857 855.388 925.802 859.873L924.502 964.73C924.447 969.215 928.034 972.896 932.514 972.951C936.995 973.007 940.672 969.416 940.727 964.931L942.027 860.074Z" fill="#A0B5EF"/>
<path d="M971.732 860.442C971.788 855.957 968.201 852.276 963.72 852.221C959.24 852.165 955.563 855.756 955.507 860.241L954.208 965.098C954.152 969.583 957.739 973.264 962.22 973.32C966.7 973.375 970.377 969.784 970.433 965.299L971.732 860.442Z" fill="#A0B5EF"/>
<path d="M1000.97 860.804C1001.03 856.319 997.441 852.638 992.961 852.582C988.48 852.527 984.803 856.118 984.748 860.603L983.448 965.46C983.392 969.945 986.98 973.626 991.46 973.681C995.94 973.737 999.618 970.146 999.673 965.661L1000.97 860.804Z" fill="#A0B5EF"/>
<path d="M1031.29 861.18C1031.35 856.695 1027.76 853.014 1023.28 852.959C1018.8 852.903 1015.12 856.494 1015.07 860.979L1013.77 965.836C1013.71 970.321 1017.3 974.002 1021.78 974.058C1026.26 974.113 1029.94 970.523 1029.99 966.038L1031.29 861.18Z" fill="#A0B5EF"/>
<path d="M1059.01 861.523C1059.06 857.038 1055.47 853.357 1050.99 853.302C1046.51 853.246 1042.84 856.837 1042.78 861.322L1041.48 966.179C1041.43 970.664 1045.01 974.345 1049.49 974.401C1053.97 974.456 1057.65 970.865 1057.71 966.38L1059.01 861.523Z" fill="#A0B5EF"/>
<path d="M1088.73 861.891C1088.78 857.406 1085.2 853.725 1080.72 853.67C1076.24 853.614 1072.56 857.205 1072.5 861.69L1071.2 966.547C1071.15 971.032 1074.73 974.713 1079.22 974.769C1083.7 974.824 1087.37 971.233 1087.43 966.748L1088.73 861.891Z" fill="#A0B5EF"/>
<path d="M1118.43 862.259C1118.49 857.774 1114.9 854.094 1110.42 854.038C1105.94 853.983 1102.26 857.573 1102.21 862.058L1100.91 966.915C1100.85 971.4 1104.44 975.081 1108.92 975.137C1113.4 975.192 1117.08 971.602 1117.13 967.117L1118.43 862.259Z" fill="#A0B5EF"/>
<path d="M1147.67 862.622C1147.73 858.137 1144.14 854.456 1139.66 854.401C1135.18 854.345 1131.5 857.936 1131.45 862.421L1130.15 967.278C1130.09 971.763 1133.68 975.444 1138.16 975.5C1142.64 975.555 1146.32 971.964 1146.37 967.479L1147.67 862.622Z" fill="#A0B5EF"/>
<path d="M1179.12 863.029C1179.18 858.543 1175.59 854.863 1171.11 854.807C1166.63 854.752 1162.95 858.342 1162.9 862.827L1161.6 967.685C1161.54 972.17 1165.13 975.85 1169.61 975.906C1174.09 975.962 1177.77 972.371 1177.82 967.886L1179.12 863.029Z" fill="#A0B5EF"/>
<path d="M1206.85 863.355C1206.91 858.87 1203.32 855.189 1198.84 855.134C1194.36 855.078 1190.68 858.669 1190.63 863.154L1189.33 968.011C1189.27 972.496 1192.86 976.177 1197.34 976.233C1201.82 976.288 1205.5 972.697 1205.55 968.212L1206.85 863.355Z" fill="#A0B5EF"/>
<path d="M1236.57 863.74C1236.63 859.255 1233.04 855.575 1228.56 855.519C1224.08 855.463 1220.41 859.054 1220.35 863.539L1219.05 968.397C1218.99 972.882 1222.58 976.562 1227.06 976.618C1231.54 976.673 1235.22 973.083 1235.28 968.598L1236.57 863.74Z" fill="#A0B5EF"/>
<path d="M1266.26 864.091C1266.32 859.606 1262.73 855.926 1258.25 855.87C1253.77 855.815 1250.09 859.405 1250.04 863.89L1248.74 968.747C1248.68 973.233 1252.27 976.913 1256.75 976.969C1261.23 977.024 1264.91 973.434 1264.96 968.949L1266.26 864.091Z" fill="#A0B5EF"/>
<path d="M1295.52 864.47C1295.58 859.985 1291.99 856.304 1287.51 856.249C1283.03 856.193 1279.35 859.784 1279.3 864.269L1278 969.126C1277.94 973.612 1281.53 977.292 1286.01 977.348C1290.49 977.403 1294.17 973.813 1294.22 969.328L1295.52 864.47Z" fill="#A0B5EF"/>
<path d="M1325.82 864.829C1325.88 860.344 1322.29 856.663 1317.81 856.608C1313.33 856.552 1309.65 860.143 1309.6 864.628L1308.3 969.485C1308.24 973.97 1311.83 977.651 1316.31 977.707C1320.79 977.762 1324.47 974.171 1324.52 969.686L1325.82 864.829Z" fill="#A0B5EF"/>
<path d="M1353.57 865.173C1353.63 860.688 1350.04 857.008 1345.56 856.952C1341.08 856.897 1337.4 860.487 1337.35 864.972L1336.05 969.83C1335.99 974.315 1339.58 977.995 1344.06 978.051C1348.54 978.106 1352.22 974.516 1352.27 970.031L1353.57 865.173Z" fill="#A0B5EF"/>
<path d="M1383.28 865.541C1383.33 861.056 1379.74 857.375 1375.26 857.319C1370.78 857.264 1367.11 860.855 1367.05 865.34L1365.75 970.197C1365.7 974.682 1369.28 978.363 1373.76 978.418C1378.24 978.474 1381.92 974.883 1381.98 970.398L1383.28 865.541Z" fill="#A0B5EF"/>
<path d="M1412.98 865.926C1413.04 861.441 1409.45 857.76 1404.97 857.705C1400.49 857.649 1396.81 861.24 1396.76 865.725L1395.46 970.582C1395.4 975.067 1398.99 978.748 1403.47 978.803C1407.95 978.859 1411.63 975.268 1411.68 970.783L1412.98 865.926Z" fill="#A0B5EF"/>
<path d="M1442.22 866.288C1442.28 861.803 1438.69 858.122 1434.21 858.067C1429.73 858.011 1426.05 861.602 1426 866.087L1424.7 970.944C1424.64 975.429 1428.23 979.11 1432.71 979.166C1437.19 979.221 1440.87 975.63 1440.92 971.145L1442.22 866.288Z" fill="#A0B5EF"/>
<path d="M1472.59 866.648C1472.65 862.163 1469.06 858.482 1464.58 858.426C1460.1 858.371 1456.42 861.962 1456.37 866.447L1455.07 971.304C1455.01 975.789 1458.6 979.47 1463.08 979.525C1467.56 979.581 1471.24 975.99 1471.29 971.505L1472.59 866.648Z" fill="#A0B5EF"/>
<path d="M1502.93 867.024C1502.98 862.539 1499.4 858.858 1494.92 858.803C1490.44 858.747 1486.76 862.338 1486.7 866.823L1485.4 971.68C1485.35 976.165 1488.93 979.846 1493.42 979.902C1497.9 979.957 1501.57 976.366 1501.63 971.881L1502.93 867.024Z" fill="#A0B5EF"/>
<path d="M1530.64 867.384C1530.7 862.899 1527.11 859.218 1522.63 859.163C1518.15 859.107 1514.47 862.698 1514.42 867.183L1513.12 972.04C1513.06 976.525 1516.65 980.206 1521.13 980.261C1525.61 980.317 1529.29 976.726 1529.34 972.241L1530.64 867.384Z" fill="#A0B5EF"/>
<path d="M1560.35 867.735C1560.4 863.25 1556.81 859.569 1552.33 859.514C1547.85 859.458 1544.18 863.049 1544.12 867.534L1542.82 972.391C1542.77 976.876 1546.35 980.557 1550.83 980.612C1555.31 980.668 1558.99 977.077 1559.05 972.592L1560.35 867.735Z" fill="#A0B5EF"/>
<path d="M1590.07 868.103C1590.12 863.618 1586.54 859.937 1582.06 859.882C1577.58 859.826 1573.9 863.417 1573.84 867.902L1572.54 972.759C1572.49 977.244 1576.08 980.925 1580.56 980.981C1585.04 981.036 1588.71 977.445 1588.77 972.96L1590.07 868.103Z" fill="#A0B5EF"/>
<path d="M1619.29 868.466C1619.35 863.981 1615.76 860.3 1611.28 860.245C1606.8 860.189 1603.12 863.78 1603.07 868.265L1601.77 973.122C1601.71 977.607 1605.3 981.288 1609.78 981.343C1614.26 981.399 1617.94 977.808 1617.99 973.323L1619.29 868.466Z" fill="#A0B5EF"/>
<path d="M1614.39 930.822L871.722 921.619C869.438 921.59 867.563 923.419 867.535 925.703C867.507 927.986 869.335 929.861 871.619 929.889L1614.29 939.092C1616.57 939.121 1618.45 937.292 1618.47 935.009C1618.5 932.725 1616.67 930.85 1614.39 930.822Z" fill="#A0B5EF"/>
<path d="M1614.82 895.953L872.154 886.749C869.87 886.721 867.996 888.549 867.967 890.833C867.939 893.117 869.767 894.991 872.051 895.019L1614.72 904.223C1617 904.251 1618.88 902.423 1618.91 900.139C1618.93 897.855 1617.11 895.981 1614.82 895.953Z" fill="#A0B5EF"/>
<path d="M1111.9 502.108C1122.45 502.108 1131 493.557 1131 483.009C1131 472.46 1122.45 463.909 1111.9 463.909C1101.35 463.909 1092.8 472.46 1092.8 483.009C1092.8 493.557 1101.35 502.108 1111.9 502.108Z" fill="white"/>
<path d="M833.712 696.427H832.051V648.163L832.748 647.183L833.712 646.07V696.427Z" fill="white"/>
<path d="M866.928 681.479H865.268V606.542L865.915 605.745L866.928 604.433V681.479Z" fill="white"/>
<path d="M898.484 681.479H896.823V567.014L897.537 566.134L898.484 564.905V681.479Z" fill="white"/>
<path d="M930.04 681.479H928.379V527.487L929.11 526.573L930.04 525.411V681.479Z" fill="white"/>
<path d="M963.257 681.479H961.596V485.882L962.243 485.035L963.257 483.839V681.479Z" fill="white"/>
<path d="M994.813 681.479H993.152V446.354L993.667 445.69L994.813 444.262V681.479Z" fill="white"/>
<path d="M1028.03 681.479H1026.37V404.734L1026.83 404.153L1028.03 402.658V681.479Z" fill="white"/>
<path d="M1059.59 681.479H1057.92V365.205L1058.32 364.657L1059.59 363.129V681.479Z" fill="white"/>
<path d="M1381.79 683.14H1380.13V611.641L1381.22 612.854L1381.79 613.468V683.14Z" fill="white"/>
<path d="M1413.34 681.479H1411.68V645.671L1412.75 646.801L1413.34 647.448V681.479Z" fill="white"/>
<path d="M1348.57 681.479H1346.91V575.85L1347.92 576.979L1348.57 577.677V681.479Z" fill="white"/>
<path d="M1317.01 681.479H1315.35V541.902L1316.35 542.965L1317.01 543.696V681.479Z" fill="white"/>
<path d="M1285.46 681.479H1283.8V507.905L1284.21 508.337L1284.94 509.134L1285.46 509.699V681.479Z" fill="white"/>
<path d="M1252.24 681.479H1250.58V472.114L1251.49 473.094L1252.24 473.924V681.479Z" fill="white"/>
<path d="M1220.69 681.479H1219.03V438.1L1219.86 439.03L1220.69 439.927V681.479Z" fill="white"/>
<path d="M1189.13 681.479H1187.47V404.119L1188.37 405.132L1189.13 405.929V681.479Z" fill="white"/>
<path d="M1157.57 681.479H1155.91V370.105L1156.83 371.102L1157.57 371.932V681.479Z" fill="white"/>
<path d="M1091.14 681.479H1089.48V325.678L1089.88 325.18L1091.14 323.602V681.479Z" fill="white"/>
<path d="M1124.36 681.479H1122.7V334.364L1124.36 336.025V335.975V681.479Z" fill="white"/>
<path d="M242.455 830.954C242.455 830.954 375.953 777.176 381.467 618.284C381.467 618.284 459.808 595.115 455.39 496.91C450.973 398.704 452.069 437.502 442.104 402.657" stroke="white" stroke-width="6" stroke-miterlimit="10"/>
<path d="M251.523 421.292C251.523 421.292 204.77 583.323 381.467 618.284" stroke="white" stroke-width="6" stroke-miterlimit="10"/>
<path d="M320.961 772.675L314.767 452.549L313.704 396.977" stroke="white" stroke-width="6" stroke-miterlimit="10"/>
<path d="M416.543 311.112C416.543 311.112 428.401 409.965 314.767 452.549" stroke="white" stroke-width="6" stroke-miterlimit="10"/>
<path d="M454.875 519.796C454.875 519.796 538.149 515.976 565.071 421.292" stroke="white" stroke-width="6" stroke-miterlimit="10"/>
<path d="M372.314 679.037C372.314 679.037 531.19 705.312 565.071 558.527" stroke="white" stroke-width="6" stroke-miterlimit="10"/>
<path d="M685.798 567.213H440.94C440.94 567.213 424.465 503.802 509.965 523.782C509.965 523.782 543.364 492.525 573.758 508.153C604.151 523.782 602.424 535.491 602.424 535.491C602.424 535.491 672.777 510.761 685.798 567.213Z" fill="#BAC5F4"/>
<path d="M477.812 422.222H721.705C721.705 422.222 738.114 358.811 652.947 378.791C652.947 378.791 619.73 347.517 589.42 363.146C559.109 378.774 560.87 390.5 560.87 390.5C560.87 390.5 490.783 365.753 477.812 422.222Z" fill="#BAC5F4"/>
<path d="M204.155 426.491H463.246C463.246 426.491 480.668 351.122 390.169 374.872C390.169 374.872 354.86 337.702 322.689 356.287C290.519 374.872 292.379 388.79 292.379 388.79C292.379 388.79 217.94 359.376 204.155 426.491Z" fill="#BAC5F4"/>
<path d="M235.645 325.561H546.437C546.437 325.561 532.553 236.458 449.494 291.83C449.494 291.83 450.574 234.896 386.814 234.896C316.661 234.896 313.738 282.23 313.738 282.23C313.738 282.23 252.187 258.447 235.645 325.561Z" fill="#BAC5F4"/>
<path d="M2039.21 941.516C2039.21 941.516 1904.57 886.708 1900.18 727.799C1900.18 727.799 1821.1 704.033 1826.29 605.861C1831.49 507.689 1830.1 546.486 1840.41 511.708" stroke="white" stroke-width="6" stroke-miterlimit="10"/>
<path d="M2033.12 531.837C2033.12 531.837 2079.16 694.267 1900.25 727.816" stroke="white" stroke-width="6" stroke-miterlimit="10"/>
<path d="M1867 420.362C1867 420.362 1854.26 519.132 1968.89 562.579" stroke="white" stroke-width="6" stroke-miterlimit="10"/>
<path d="M1826.66 628.747C1826.66 628.747 1742.44 624.296 1715.92 529.413" stroke="white" stroke-width="6" stroke-miterlimit="10"/>
<path d="M1908.97 788.636C1908.97 788.636 1748.04 813.698 1714.87 666.647" stroke="white" stroke-width="6" stroke-miterlimit="10"/>
<path d="M1592.66 674.42L1840.39 676.33C1840.39 676.33 1857.53 613.052 1770.89 632.384C1770.89 632.384 1737.34 600.828 1706.46 616.257C1675.59 631.686 1677.27 643.378 1677.27 643.378C1677.27 643.378 1606.28 618.051 1592.66 674.42Z" fill="#BAC5F4"/>
<path d="M1804.15 530.957L1557.4 529.097C1557.4 529.097 1541.28 465.57 1627.29 486.197C1627.29 486.197 1661.17 455.173 1691.68 471.034C1722.19 486.895 1720.37 498.604 1720.37 498.604C1720.37 498.604 1791.48 474.405 1804.15 530.957Z" fill="#BAC5F4"/>
<path d="M2081 537.368L1818.95 535.392C1818.95 535.392 1801.9 459.89 1893.21 484.321C1893.21 484.321 1929.23 447.417 1961.62 466.251C1994.01 485.085 1992.05 498.986 1992.05 498.986C1992.05 498.986 2067.56 470.154 2081 537.368Z" fill="#BAC5F4"/>
<path d="M2049.96 436.207L1735.5 433.848C1735.5 433.848 1750.19 344.861 1833.8 400.864C1833.8 400.864 1833.15 343.914 1897.66 344.396C1968.63 344.944 1971.27 392.294 1971.27 392.294C1971.27 392.294 2033.68 368.959 2049.96 436.207Z" fill="#BAC5F4"/>
<path d="M1503.36 841.67C1503.72 841.698 1504.08 841.579 1504.36 841.341C1504.64 841.102 1504.81 840.764 1504.83 840.399C1504.86 840.035 1504.74 839.675 1504.51 839.398C1504.27 839.121 1503.93 838.95 1503.56 838.922C1502.1 838.609 1500.8 837.755 1499.94 836.532C1498.75 834.773 1498.56 832.258 1499.28 829.057C1501.64 818.917 1512.37 819.989 1512.84 820.044C1513.2 820.106 1513.58 820.02 1513.88 819.806C1514.18 819.593 1514.38 819.268 1514.45 818.903C1514.51 818.539 1514.42 818.165 1514.21 817.863C1513.99 817.562 1513.67 817.358 1513.31 817.296L1473.79 807.966C1473.61 807.919 1473.42 807.911 1473.23 807.944C1473.05 807.977 1472.87 808.051 1472.72 808.159C1472.26 808.447 1461.73 815.482 1461.73 823.946C1461.73 827.917 1463.92 831.475 1468.36 834.498C1468.66 834.699 1469.03 834.773 1469.39 834.704C1469.74 834.635 1470.05 834.43 1470.26 834.131C1470.46 833.833 1470.54 833.466 1470.48 833.111C1470.41 832.755 1470.21 832.439 1469.91 832.231C1466.29 829.744 1464.42 826.969 1464.42 823.987C1464.42 817.887 1471.76 812.198 1473.71 810.797L1505.46 818.299C1503.21 819.041 1501.2 820.37 1499.64 822.147C1498.07 823.924 1497.01 826.087 1496.56 828.411C1495.62 832.41 1495.99 835.666 1497.64 838.029C1498.95 839.876 1500.92 841.142 1503.14 841.56L1503.36 841.67Z" fill="#D1D3D4"/>
<path d="M1612.2 734.307L1664.42 754.917C1664.42 754.917 1660.84 711.321 1657.41 708.202C1656.49 707.482 1655.66 706.646 1654.95 705.715C1654.41 704.772 1654.06 703.73 1653.92 702.651C1653.32 699.274 1653.16 695.833 1653.45 692.415C1653.43 691.45 1653.76 690.511 1654.39 689.777C1655.22 689.189 1656.25 688.938 1657.26 689.076C1660.69 688.88 1664.11 689.477 1667.27 690.821C1671.3 692.882 1671.23 694.682 1673.04 698.831C1675.97 705.55 1682.66 737.825 1684.57 750.342C1685.22 754.821 1689.92 775.815 1684.97 779.086C1676.84 784.472 1604.35 752.032 1604.35 752.032" fill="white"/>
<path d="M1682.1 780.24C1683.19 780.332 1684.29 780.108 1685.26 779.594C1689.3 776.928 1687.81 765.236 1685.62 752.993C1685.4 751.812 1685.22 750.864 1685.14 750.246C1683.18 736.987 1676.48 705.261 1673.57 698.584C1673.21 697.787 1672.93 697.072 1672.69 696.44C1671.62 693.692 1670.96 692.03 1667.51 690.257C1664.26 688.853 1660.73 688.213 1657.2 688.389C1656.03 688.25 1654.85 688.56 1653.9 689.254C1653.15 690.091 1652.75 691.181 1652.76 692.305C1652.48 695.778 1652.64 699.274 1653.25 702.706C1653.4 703.866 1653.78 704.985 1654.36 706.003C1654.91 706.78 1655.56 707.474 1656.31 708.064L1656.93 708.614C1659.26 710.771 1662.19 736.533 1663.65 753.955L1612.44 733.717C1612.36 733.673 1612.27 733.647 1612.18 733.64C1612.09 733.633 1612 733.645 1611.92 733.676C1611.83 733.707 1611.76 733.755 1611.69 733.818C1611.63 733.881 1611.58 733.957 1611.54 734.041C1611.51 734.125 1611.5 734.215 1611.5 734.305C1611.51 734.395 1611.53 734.483 1611.57 734.563C1611.61 734.643 1611.67 734.713 1611.74 734.768C1611.81 734.824 1611.9 734.863 1611.98 734.884L1664.2 755.494C1664.3 755.531 1664.4 755.543 1664.51 755.529C1664.61 755.514 1664.71 755.474 1664.8 755.412C1664.88 755.347 1664.95 755.263 1664.99 755.168C1665.04 755.072 1665.05 754.967 1665.05 754.862C1664.68 750.369 1661.37 710.895 1657.85 707.68L1657.2 707.102C1656.55 706.588 1655.97 705.987 1655.48 705.316C1655 704.432 1654.69 703.469 1654.55 702.472C1653.96 699.144 1653.81 695.755 1654.08 692.387C1654.07 691.582 1654.33 690.796 1654.83 690.161C1655.55 689.7 1656.41 689.515 1657.26 689.639C1660.59 689.46 1663.92 690.048 1666.98 691.357C1670.02 692.923 1670.54 694.242 1671.57 696.853C1671.82 697.498 1672.11 698.227 1672.47 699.037C1675.22 705.44 1682.09 737.275 1683.94 750.383C1684.04 751.029 1684.21 751.99 1684.43 753.131C1685.55 759.341 1688.56 775.87 1684.63 778.453C1678.2 782.699 1624.68 760.331 1604.61 751.345C1604.53 751.31 1604.45 751.291 1604.37 751.288C1604.28 751.286 1604.2 751.299 1604.12 751.329C1604.04 751.358 1603.97 751.402 1603.91 751.459C1603.85 751.516 1603.8 751.585 1603.77 751.661C1603.73 751.735 1603.71 751.816 1603.71 751.898C1603.71 751.981 1603.72 752.063 1603.75 752.139C1603.78 752.216 1603.83 752.286 1603.88 752.346C1603.94 752.405 1604.01 752.452 1604.08 752.485C1606.82 753.804 1666.11 780.24 1682.1 780.24Z" fill="#231F20"/>
<path d="M1553.36 762.268C1549.33 767.682 1536.87 772.889 1528.38 776.805C1506.3 787.041 1478.47 795.367 1474 798.239C1469.52 801.111 1465.04 811.36 1466 813.6C1466.96 815.84 1474.64 821.281 1475.92 818.725C1477.2 816.169 1485.84 803.171 1487.43 802.787C1506.71 802.894 1525.75 798.604 1543.12 790.242C1571.97 776.159 1576.88 769.825 1576.88 769.825C1576.88 769.825 1559.81 753.529 1553.36 762.268Z" fill="white"/>
<path d="M1474.63 820.044C1475 820.073 1475.37 819.992 1475.7 819.812C1476.03 819.631 1476.29 819.358 1476.47 819.027C1477.84 816.21 1486.09 803.996 1487.58 803.419C1487.74 803.419 1488.57 803.419 1489.44 803.419C1508.12 803.295 1526.53 798.995 1543.33 790.833C1571.93 776.846 1577.1 770.512 1577.3 770.223C1577.41 770.108 1577.46 769.959 1577.46 769.804C1577.46 769.65 1577.41 769.501 1577.3 769.385C1576.84 768.945 1565.79 758.393 1557.89 759.094C1556.9 759.159 1555.93 759.439 1555.06 759.913C1554.19 760.387 1553.43 761.046 1552.83 761.842V761.842C1549.4 766.486 1539.4 771.048 1531.35 774.702L1528.1 776.2C1515.46 782.053 1500.73 787.357 1489.99 791.231C1481.65 794.24 1475.62 796.411 1473.64 797.675C1469.1 800.588 1464.21 811.03 1465.39 813.806C1466.23 815.784 1471.56 819.893 1474.52 819.975L1474.63 820.044ZM1575.97 769.893C1574.34 771.515 1566.99 777.89 1542.83 789.706C1526.17 797.754 1507.93 801.979 1489.43 802.072C1488.71 802.046 1487.99 802.078 1487.28 802.168C1485.23 802.649 1476.44 816.238 1475.34 818.423C1475.34 818.532 1475.2 818.766 1474.57 818.752C1472.15 818.752 1467.25 814.946 1466.56 813.339C1465.87 811.731 1469.87 801.619 1474.32 798.761C1476.18 797.565 1482.46 795.298 1490.41 792.441C1501.19 788.552 1515.94 783.249 1528.62 777.327L1531.87 775.829C1540.11 772.106 1550.21 767.475 1553.85 762.584C1554.32 761.917 1554.94 761.364 1555.65 760.964C1556.36 760.565 1557.16 760.33 1557.97 760.276C1564.49 759.822 1573.83 767.929 1575.99 769.893H1575.97Z" fill="#231F20"/>
<path d="M1541.84 767.338C1545.96 766.102 1549.41 760.743 1551.89 757.542C1555.6 752.746 1558.44 747.443 1561.94 742.593C1569.58 731.986 1582.73 726.256 1595.72 726.105C1622.66 725.858 1655.27 744.64 1655.27 745.533L1651.6 779.786L1630.63 770.636C1627.12 789.361 1625.88 808.442 1626.96 827.464C1619.6 827.148 1572.83 812.35 1572.83 812.35C1571.36 805.288 1569.57 787.879 1568.18 779.292L1555.94 790.71L1541.84 767.338Z" fill="#1E71B9"/>
<path d="M1546.39 941.463C1546.59 941.462 1546.78 941.421 1546.96 941.34C1547.13 941.26 1547.29 941.142 1547.42 940.996C1547.66 940.722 1547.78 940.365 1547.76 940.001C1547.74 939.638 1547.57 939.299 1547.3 939.058L1520.83 915.604C1520.7 915.473 1520.54 915.37 1520.37 915.302C1520.2 915.233 1520.01 915.201 1519.83 915.207C1519.64 915.212 1519.46 915.256 1519.29 915.335C1519.12 915.414 1518.97 915.526 1518.84 915.665C1518.72 915.804 1518.62 915.967 1518.56 916.144C1518.5 916.321 1518.48 916.508 1518.5 916.694C1518.51 916.88 1518.57 917.06 1518.65 917.225C1518.74 917.39 1518.86 917.535 1519.01 917.652L1545.47 941.106C1545.72 941.335 1546.05 941.462 1546.39 941.463Z" fill="#D1D3D4"/>
<path d="M1544.48 899.35C1544.48 899.35 1548.16 910.548 1547.45 910.562C1541.87 910.562 1517.22 916.346 1508.98 913.007C1500.73 909.669 1527.43 900.545 1527.43 900.545L1544.48 899.35Z" fill="#231F20"/>
<path d="M1516.7 914.656C1524.01 914.382 1531.3 913.596 1538.5 912.307C1541.47 911.778 1544.45 911.397 1547.45 911.166C1547.56 911.16 1547.66 911.131 1547.75 911.081C1547.85 911.031 1547.93 910.962 1548 910.878C1548.19 910.603 1548.62 910.012 1545.06 899.158C1545.02 899.029 1544.93 898.917 1544.82 898.842C1544.71 898.767 1544.57 898.733 1544.44 898.746L1527.44 899.941H1527.29C1523.9 901.109 1506.99 907.099 1506.86 911.318C1506.86 912.234 1507.51 912.976 1508.8 913.543C1511.34 914.387 1514.02 914.764 1516.7 914.656V914.656ZM1546.93 909.971C1545.13 910.067 1542.08 910.534 1538.33 911.112C1529 912.485 1514.89 914.739 1509.27 912.485C1508.72 912.266 1508.07 911.895 1508.08 911.414C1508.08 908.954 1519.53 903.967 1527.62 901.191L1544.11 900.023C1545.21 903.29 1546.15 906.61 1546.91 909.971H1546.93Z" fill="#231F20"/>
<path d="M1553.04 819.426C1553.04 819.426 1504.85 838.153 1503.41 846.315C1501.97 854.476 1527.48 900.546 1527.48 900.546L1544.48 899.35C1545.69 906.344 1531.19 852.374 1530.93 852.058C1551.97 850.382 1583.17 834.869 1583.17 834.869" fill="white"/>
<path d="M1527.48 901.178L1543.89 900.01C1544.21 900.683 1544.38 900.642 1544.63 900.587C1545.26 900.436 1545.15 899.804 1545.06 899.213C1545.04 899.109 1544.99 899.011 1544.93 898.929C1544.86 898.847 1544.77 898.784 1544.67 898.746C1543.3 894.624 1538.63 877.586 1535.41 865.908C1533.04 857.279 1532.11 853.94 1531.72 852.594C1552.63 850.615 1583.16 835.556 1583.47 835.405C1583.56 835.373 1583.63 835.324 1583.69 835.261C1583.75 835.199 1583.8 835.125 1583.83 835.043C1583.86 834.961 1583.88 834.874 1583.87 834.787C1583.87 834.699 1583.84 834.614 1583.8 834.536C1583.77 834.457 1583.71 834.388 1583.64 834.332C1583.58 834.276 1583.5 834.235 1583.41 834.211C1583.33 834.187 1583.24 834.18 1583.16 834.192C1583.07 834.203 1582.99 834.233 1582.91 834.278C1582.61 834.43 1551.52 849.763 1530.84 851.412C1530.72 851.421 1530.61 851.461 1530.51 851.529C1530.42 851.597 1530.35 851.69 1530.3 851.797C1530.27 851.877 1530.25 851.964 1530.25 852.051C1530.25 852.138 1530.27 852.225 1530.3 852.305C1530.51 852.882 1532.22 859.079 1534.19 866.237C1540.04 887.52 1542.31 895.682 1543.39 898.759L1527.79 899.859C1518.95 883.879 1502.88 852.635 1503.98 846.397C1505.07 840.159 1539.96 825.183 1553.26 819.975C1553.34 819.948 1553.41 819.905 1553.47 819.849C1553.53 819.792 1553.58 819.724 1553.62 819.648C1553.65 819.572 1553.67 819.49 1553.67 819.406C1553.67 819.323 1553.65 819.241 1553.62 819.165C1553.56 819.011 1553.44 818.887 1553.29 818.82C1553.13 818.753 1552.96 818.749 1552.81 818.807C1552.68 818.807 1540.61 823.561 1528.5 829.208C1503.77 840.75 1503.04 844.831 1502.79 846.177C1501.34 854.421 1525.89 898.938 1526.93 900.82C1526.98 900.925 1527.06 901.013 1527.16 901.076C1527.26 901.139 1527.37 901.174 1527.48 901.178Z" fill="#231F20"/>
<path d="M1442.81 1007.89C1456.22 1007.9 1469.33 1003.92 1480.49 996.471C1491.64 989.02 1500.34 978.428 1505.47 966.035C1510.61 953.642 1511.95 940.005 1509.34 926.848C1506.72 913.691 1500.26 901.605 1490.78 892.119C1481.29 882.634 1469.2 876.174 1456.05 873.558C1442.89 870.941 1429.25 872.286 1416.86 877.42C1404.47 882.555 1393.87 891.25 1386.42 902.405C1378.97 913.56 1375 926.674 1375 940.089C1375.02 958.065 1382.17 975.3 1394.88 988.011C1407.59 1000.72 1424.83 1007.87 1442.81 1007.89ZM1442.81 879.139C1454.86 879.136 1466.65 882.709 1476.67 889.404C1486.7 896.1 1494.51 905.618 1499.13 916.755C1503.74 927.892 1504.95 940.147 1502.6 951.971C1500.25 963.795 1494.45 974.657 1485.92 983.182C1477.4 991.707 1466.54 997.514 1454.72 999.867C1442.89 1002.22 1430.64 1001.01 1419.5 996.401C1408.36 991.788 1398.84 983.976 1392.14 973.952C1385.44 963.929 1381.87 952.144 1381.87 940.089C1381.89 923.932 1388.31 908.442 1399.74 897.016C1411.16 885.59 1426.65 879.161 1442.81 879.139V879.139Z" fill="#1E71B9"/>
<path d="M1442.81 1002.07C1455.06 1002.07 1467.05 998.434 1477.24 991.624C1487.43 984.813 1495.38 975.133 1500.07 963.808C1504.76 952.482 1505.99 940.02 1503.6 927.997C1501.2 915.974 1495.3 904.93 1486.63 896.262C1477.96 887.594 1466.92 881.691 1454.9 879.299C1442.87 876.908 1430.41 878.135 1419.09 882.826C1407.76 887.518 1398.08 895.462 1391.27 905.654C1384.46 915.847 1380.83 927.83 1380.83 940.089C1380.84 956.521 1387.38 972.276 1399 983.895C1410.62 995.515 1426.37 1002.05 1442.81 1002.07ZM1442.81 880.856C1454.52 880.856 1465.97 884.33 1475.71 890.839C1485.45 897.347 1493.05 906.598 1497.53 917.422C1502.01 928.245 1503.19 940.154 1500.9 951.644C1498.61 963.134 1492.97 973.689 1484.69 981.972C1476.41 990.256 1465.85 995.898 1454.36 998.183C1442.87 1000.47 1430.96 999.296 1420.14 994.812C1409.32 990.329 1400.06 982.737 1393.56 972.997C1387.05 963.256 1383.57 951.804 1383.57 940.089C1383.59 924.384 1389.83 909.326 1400.94 898.221C1412.04 887.116 1427.1 880.871 1442.81 880.856V880.856Z" fill="#231F20"/>
<path d="M1442.81 941.463C1443.09 941.464 1443.36 941.379 1443.59 941.219C1443.82 941.059 1444 940.833 1444.1 940.57L1492.49 814.919C1492.62 814.578 1492.61 814.2 1492.46 813.868C1492.31 813.535 1492.03 813.276 1491.69 813.147C1491.35 813.017 1490.97 813.029 1490.64 813.178C1490.31 813.327 1490.05 813.603 1489.92 813.944L1441.56 939.594C1441.43 939.933 1441.44 940.31 1441.58 940.642C1441.73 940.974 1442 941.235 1442.34 941.367C1442.49 941.422 1442.65 941.455 1442.81 941.463Z" fill="#D1D3D4"/>
<path d="M1643.85 1007.89C1657.26 1007.89 1670.37 1003.92 1681.53 996.464C1692.68 989.012 1701.37 978.419 1706.51 966.026C1711.64 953.632 1712.98 939.995 1710.36 926.839C1707.74 913.683 1701.28 901.599 1691.8 892.114C1682.31 882.63 1670.23 876.172 1657.07 873.557C1643.91 870.942 1630.28 872.287 1617.88 877.422C1605.49 882.557 1594.9 891.252 1587.45 902.407C1580 913.561 1576.02 926.675 1576.03 940.089C1576.05 958.068 1583.2 975.304 1595.92 988.016C1608.63 1000.73 1625.87 1007.88 1643.85 1007.89V1007.89ZM1643.85 879.139C1655.9 879.139 1667.69 882.714 1677.71 889.411C1687.73 896.108 1695.54 905.627 1700.16 916.764C1704.77 927.902 1705.98 940.157 1703.63 951.98C1701.27 963.803 1695.47 974.663 1686.95 983.187C1678.42 991.711 1667.56 997.516 1655.74 999.868C1643.91 1002.22 1631.66 1001.01 1620.52 996.399C1609.39 991.786 1599.87 983.974 1593.17 973.951C1586.47 963.928 1582.9 952.144 1582.9 940.089C1582.92 923.93 1589.34 908.437 1600.77 897.011C1612.2 885.585 1627.69 879.157 1643.85 879.139V879.139Z" fill="#1E71B9"/>
<path d="M1643.85 1002.07C1656.1 1002.06 1668.08 998.409 1678.26 991.59C1688.45 984.771 1696.38 975.087 1701.06 963.76C1705.74 952.433 1706.96 939.973 1704.56 927.955C1702.16 915.936 1696.25 904.899 1687.58 896.238C1678.91 887.577 1667.87 881.68 1655.84 879.294C1643.82 876.908 1631.37 878.14 1620.04 882.833C1608.72 887.526 1599.05 895.47 1592.24 905.661C1585.43 915.853 1581.8 927.833 1581.8 940.089C1581.82 956.532 1588.37 972.295 1600 983.916C1611.63 995.536 1627.4 1002.07 1643.85 1002.07V1002.07ZM1643.85 880.856C1655.56 880.87 1667 884.355 1676.74 890.872C1686.47 897.389 1694.05 906.645 1698.52 917.469C1702.99 928.294 1704.16 940.201 1701.86 951.686C1699.57 963.172 1693.92 973.72 1685.64 981.997C1677.35 990.274 1666.8 995.908 1655.31 998.188C1643.82 1000.47 1631.91 999.291 1621.1 994.806C1610.28 990.321 1601.03 982.729 1594.52 972.989C1588.02 963.25 1584.55 951.801 1584.55 940.089C1584.56 924.372 1590.82 909.304 1601.94 898.197C1613.06 887.09 1628.13 880.853 1643.85 880.856V880.856Z" fill="#231F20"/>
<path d="M1546.39 941.462H1643.85C1644.1 941.463 1644.34 941.395 1644.56 941.267C1644.77 941.138 1644.94 940.954 1645.06 940.734C1645.18 940.513 1645.23 940.265 1645.22 940.016C1645.21 939.767 1645.13 939.526 1644.99 939.319L1590.03 856.165C1589.92 855.999 1589.77 855.858 1589.6 855.754C1589.43 855.649 1589.24 855.584 1589.04 855.561L1479.77 843.099C1479.5 843.062 1479.22 843.107 1478.98 843.227C1478.73 843.346 1478.53 843.536 1478.39 843.772C1478.25 843.994 1478.17 844.251 1478.17 844.514C1478.17 844.777 1478.25 845.035 1478.39 845.256L1545.26 940.885C1545.39 941.065 1545.56 941.211 1545.76 941.311C1545.95 941.412 1546.17 941.464 1546.39 941.462V941.462ZM1641.29 938.714H1547.1L1482.53 846.177L1588.13 858.226L1641.29 938.714Z" fill="#D1D3D4"/>
<path d="M1573.28 964.326C1573.48 964.326 1573.67 964.283 1573.85 964.2C1574.03 964.117 1574.19 963.996 1574.32 963.845C1574.44 963.708 1574.53 963.549 1574.59 963.378C1574.64 963.206 1574.66 963.025 1574.65 962.845C1574.64 962.665 1574.59 962.49 1574.5 962.329C1574.42 962.168 1574.31 962.025 1574.17 961.908L1548.07 939.732L1604.74 825.238C1604.91 824.912 1604.93 824.535 1604.82 824.189C1604.7 823.844 1604.45 823.559 1604.13 823.397C1603.8 823.235 1603.42 823.209 1603.08 823.325C1602.73 823.441 1602.45 823.689 1602.28 824.015L1545.15 939.43C1545.02 939.705 1544.98 940.019 1545.04 940.32C1545.1 940.622 1545.26 940.894 1545.5 941.092L1572.39 963.955C1572.63 964.183 1572.95 964.315 1573.28 964.326Z" fill="#D1D3D4"/>
<path d="M1546.39 955.601C1549.72 955.606 1552.98 954.624 1555.75 952.778C1558.52 950.932 1560.68 948.305 1561.96 945.23C1563.24 942.155 1563.58 938.77 1562.93 935.503C1562.28 932.236 1560.68 929.235 1558.33 926.878C1555.98 924.521 1552.98 922.916 1549.71 922.264C1546.45 921.612 1543.06 921.944 1539.98 923.217C1536.91 924.49 1534.28 926.647 1532.43 929.416C1530.57 932.184 1529.59 935.44 1529.59 938.77C1529.59 943.227 1531.37 947.499 1534.51 950.654C1537.66 953.808 1541.93 955.587 1546.39 955.601ZM1546.39 924.686C1549.18 924.681 1551.9 925.502 1554.22 927.047C1556.54 928.591 1558.35 930.788 1559.42 933.361C1560.49 935.934 1560.77 938.767 1560.23 941.5C1559.69 944.234 1558.35 946.746 1556.39 948.718C1554.42 950.691 1551.91 952.035 1549.18 952.58C1546.44 953.126 1543.61 952.849 1541.04 951.784C1538.46 950.719 1536.26 948.913 1534.71 946.597C1533.16 944.28 1532.33 941.556 1532.33 938.77C1532.34 935.04 1533.82 931.465 1536.45 928.825C1539.09 926.185 1542.66 924.697 1546.39 924.686Z" fill="#231F20"/>
<path d="M1643.85 946.381C1645.35 946.381 1646.82 945.935 1648.08 945.099C1649.33 944.262 1650.3 943.073 1650.88 941.683C1651.46 940.292 1651.61 938.761 1651.31 937.285C1651.02 935.808 1650.29 934.452 1649.23 933.387C1648.16 932.323 1646.81 931.598 1645.33 931.304C1643.86 931.01 1642.33 931.161 1640.93 931.737C1639.54 932.313 1638.35 933.289 1637.52 934.541C1636.68 935.792 1636.24 937.264 1636.24 938.77C1636.24 940.787 1637.04 942.721 1638.47 944.148C1639.9 945.575 1641.83 946.378 1643.85 946.381V946.381ZM1643.85 933.906C1644.81 933.906 1645.75 934.191 1646.55 934.725C1647.35 935.26 1647.97 936.019 1648.34 936.908C1648.71 937.797 1648.81 938.775 1648.62 939.718C1648.43 940.662 1647.97 941.529 1647.29 942.209C1646.61 942.889 1645.74 943.352 1644.8 943.54C1643.85 943.728 1642.87 943.631 1641.99 943.263C1641.1 942.895 1640.34 942.272 1639.8 941.472C1639.27 940.672 1638.98 939.732 1638.98 938.77C1638.99 937.481 1639.5 936.246 1640.41 935.334C1641.32 934.423 1642.56 933.909 1643.85 933.906Z" fill="#231F20"/>
<path d="M1643.85 933.219C1644.02 933.216 1644.18 933.15 1644.31 933.033C1644.43 932.916 1644.51 932.757 1644.52 932.587C1644.53 932.497 1644.52 932.407 1644.49 932.32C1644.47 932.234 1644.43 932.154 1644.37 932.085C1644.31 932.016 1644.24 931.959 1644.16 931.918C1644.08 931.876 1643.99 931.852 1643.9 931.845L1546.45 922.625C1546.36 922.617 1546.26 922.627 1546.18 922.654C1546.09 922.681 1546.01 922.725 1545.94 922.783C1545.87 922.841 1545.81 922.912 1545.77 922.992C1545.73 923.073 1545.7 923.16 1545.7 923.25C1545.69 923.341 1545.7 923.432 1545.73 923.518C1545.75 923.605 1545.8 923.685 1545.85 923.754C1545.91 923.824 1545.98 923.881 1546.06 923.923C1546.14 923.965 1546.23 923.991 1546.32 923.999L1643.78 933.219H1643.85Z" fill="#231F20"/>
<path d="M1546.39 954.914L1643.9 945.694C1644.08 945.678 1644.25 945.59 1644.37 945.449C1644.49 945.309 1644.54 945.128 1644.53 944.945C1644.51 944.763 1644.42 944.595 1644.28 944.478C1644.14 944.36 1643.96 944.304 1643.78 944.32L1546.32 953.54C1546.23 953.548 1546.14 953.575 1546.06 953.617C1545.98 953.66 1545.91 953.718 1545.86 953.788C1545.8 953.859 1545.75 953.94 1545.73 954.027C1545.7 954.114 1545.69 954.205 1545.7 954.295C1545.72 954.467 1545.8 954.626 1545.92 954.741C1546.05 954.856 1546.22 954.918 1546.39 954.914V954.914Z" fill="#231F20"/>
<path d="M1612.03 995.117L1612.79 1005.93C1612.79 1005.93 1558.54 1014.28 1563.14 1006.91C1567.74 999.527 1593.08 992.465 1593.08 992.465L1612.03 995.117Z" fill="#231F20"/>
<path d="M1572.63 1010.52C1586.37 1010.52 1609.37 1007.07 1612.84 1006.53C1612.99 1006.51 1613.13 1006.43 1613.22 1006.31C1613.32 1006.19 1613.37 1006.04 1613.36 1005.89L1612.58 995.076C1612.58 994.925 1612.52 994.779 1612.42 994.667C1612.32 994.555 1612.18 994.485 1612.03 994.471L1593.08 991.819C1593 991.799 1592.91 991.799 1592.83 991.819C1591.79 992.108 1567.22 999.033 1562.6 1006.53C1562.38 1006.82 1562.25 1007.17 1562.23 1007.54C1562.22 1007.9 1562.31 1008.26 1562.51 1008.57C1563.4 1010.01 1567.33 1010.52 1572.63 1010.52ZM1612.11 1005.46C1594.25 1008.21 1565.64 1011.23 1563.5 1007.99C1563.5 1007.91 1563.33 1007.73 1563.62 1007.26C1567.88 1000.39 1591.18 993.661 1593.08 993.111L1611.41 995.694L1612.11 1005.46Z" fill="#231F20"/>
<path d="M1610.38 881.612C1610.38 881.612 1622.74 892.206 1617.25 932.45C1611.75 972.693 1612.01 995.103 1612.01 995.103L1593.06 992.451L1584.63 880.06L1610.38 881.612Z" fill="white"/>
<path d="M1612.03 995.749C1612.11 995.747 1612.19 995.729 1612.27 995.695C1612.34 995.662 1612.41 995.614 1612.47 995.554C1612.53 995.494 1612.57 995.423 1612.6 995.346C1612.63 995.268 1612.65 995.186 1612.64 995.103C1612.64 994.883 1612.48 972.295 1617.88 932.559C1623.37 892.411 1611.35 881.571 1610.83 881.131C1610.73 881.035 1610.6 880.98 1610.46 880.98L1584.68 879.441C1584.59 879.434 1584.51 879.446 1584.42 879.477C1584.34 879.508 1584.26 879.556 1584.2 879.62C1584.14 879.686 1584.09 879.764 1584.06 879.849C1584.03 879.934 1584.02 880.024 1584.02 880.114L1592.45 992.506C1592.46 992.648 1592.52 992.781 1592.62 992.886C1592.71 992.99 1592.84 993.059 1592.98 993.083L1611.93 995.735L1612.03 995.749ZM1610.16 882.216C1611.53 883.59 1621.67 895.407 1616.64 932.381C1611.75 968.269 1611.41 990.211 1611.39 994.388L1593.67 991.901L1585.33 880.733L1610.16 882.216Z" fill="#231F20"/>
<path d="M1626.96 827.505C1626.96 827.505 1629.89 830.968 1629.2 842.33C1628.18 858.227 1625.23 877.834 1623.55 887.892L1580.77 882.698L1579.46 849.269L1549.58 852.402L1538.59 820.8L1572.84 812.35L1626.96 827.505Z" fill="#231F20"/>
<path d="M1623.55 888.496C1623.7 888.498 1623.84 888.447 1623.95 888.354C1624.06 888.261 1624.13 888.131 1624.16 887.988C1625.19 881.75 1628.68 860.041 1629.8 842.371C1630.55 830.83 1627.55 827.258 1627.41 827.106C1627.34 827.015 1627.24 826.951 1627.13 826.928L1572.99 811.814C1572.89 811.787 1572.78 811.787 1572.67 811.814L1538.44 820.264C1538.35 820.285 1538.27 820.322 1538.2 820.374C1538.14 820.426 1538.08 820.491 1538.04 820.566C1538 820.642 1537.99 820.724 1537.99 820.807C1537.99 820.89 1538 820.971 1538.04 821.047L1549.03 852.649C1549.08 852.777 1549.17 852.887 1549.28 852.959C1549.4 853.031 1549.54 853.062 1549.67 853.047L1578.91 849.969L1580.19 882.753C1580.19 882.897 1580.24 883.036 1580.34 883.142C1580.44 883.249 1580.57 883.316 1580.71 883.33L1623.51 888.537L1623.55 888.496ZM1626.59 828.041C1627.08 828.769 1629.23 832.547 1628.6 842.303C1627.5 859.409 1624.2 880.348 1623.1 887.232L1581.39 882.176L1580.11 849.2C1580.11 849.117 1580.09 849.034 1580.05 848.959C1580.02 848.883 1579.96 848.815 1579.9 848.76C1579.84 848.708 1579.77 848.669 1579.69 848.645C1579.61 848.622 1579.53 848.614 1579.45 848.623L1550.03 851.714L1539.41 821.171L1572.85 812.927L1626.59 828.041Z" fill="#231F20"/>
<path d="M1568.24 970.564C1568.55 970.562 1568.85 970.456 1569.09 970.262L1581.8 960.19C1582.08 959.964 1582.27 959.634 1582.31 959.272C1582.35 958.91 1582.25 958.546 1582.02 958.26C1581.8 957.974 1581.47 957.789 1581.11 957.747C1580.74 957.704 1580.38 957.807 1580.09 958.033L1567.37 968.118C1567.15 968.296 1566.99 968.538 1566.91 968.811C1566.83 969.083 1566.84 969.374 1566.93 969.642C1567.03 969.91 1567.2 970.143 1567.43 970.308C1567.66 970.473 1567.94 970.562 1568.22 970.564H1568.24Z" fill="#D1D3D4"/>
<path d="M1511.83 917.995H1511.99L1535.27 915.357C1535.46 915.336 1535.63 915.28 1535.79 915.192C1535.95 915.104 1536.09 914.985 1536.2 914.843C1536.31 914.701 1536.4 914.538 1536.45 914.363C1536.5 914.188 1536.51 914.006 1536.49 913.825C1536.47 913.645 1536.41 913.47 1536.33 913.311C1536.24 913.153 1536.12 913.013 1535.98 912.9C1535.83 912.787 1535.67 912.703 1535.5 912.653C1535.32 912.603 1535.14 912.588 1534.96 912.609L1511.72 915.261C1511.54 915.271 1511.37 915.316 1511.2 915.394C1511.04 915.473 1510.9 915.582 1510.78 915.717C1510.65 915.851 1510.56 916.008 1510.5 916.179C1510.44 916.349 1510.42 916.53 1510.43 916.71C1510.44 916.891 1510.48 917.068 1510.56 917.231C1510.64 917.393 1510.75 917.539 1510.88 917.66C1511.02 917.78 1511.17 917.873 1511.34 917.933C1511.51 917.993 1511.7 918.019 1511.88 918.009L1511.83 917.995Z" fill="#D1D3D4"/>
<path d="M1584.63 730.667L1586.95 744.132C1586.95 744.132 1589.7 749.971 1598.4 746.33C1607.09 742.689 1607.35 736.259 1607.35 736.259L1602.12 711.321C1602.12 711.321 1595.84 708.408 1595.43 693.597C1595.43 693.597 1582.22 700.151 1568.57 700.645C1568.57 700.645 1571.05 717.133 1573.29 723.866C1575.53 730.598 1584.63 730.667 1584.63 730.667Z" fill="white"/>
<path d="M1593.2 748.226C1595.1 748.187 1596.97 747.761 1598.7 746.976C1607.66 743.197 1608.08 736.575 1608.1 736.3C1608.1 736.241 1608.1 736.181 1608.1 736.121L1602.86 711.183C1602.84 711.075 1602.79 710.972 1602.72 710.885C1602.65 710.797 1602.56 710.725 1602.46 710.675C1602.46 710.675 1596.57 707.68 1596.18 693.583C1596.18 693.463 1596.15 693.347 1596.09 693.243C1596.03 693.14 1595.94 693.054 1595.84 692.992C1595.74 692.931 1595.62 692.896 1595.5 692.891C1595.38 692.886 1595.26 692.912 1595.15 692.964C1595.02 692.964 1581.92 699.463 1568.58 699.931C1568.38 699.948 1568.19 700.042 1568.06 700.192C1568 700.27 1567.95 700.361 1567.93 700.458C1567.9 700.555 1567.89 700.656 1567.91 700.755C1568.02 701.428 1570.44 717.311 1572.65 724.113C1574.7 730.351 1581.91 731.257 1584.07 731.381L1586.29 744.269C1586.28 744.333 1586.28 744.397 1586.29 744.461C1586.99 745.657 1588.01 746.639 1589.22 747.302C1590.44 747.965 1591.82 748.285 1593.2 748.226ZM1606.64 736.314C1606.57 737.069 1605.79 742.428 1598.12 745.67C1590.69 748.803 1588 744.571 1587.62 743.898L1585.32 730.557C1585.29 730.393 1585.21 730.243 1585.08 730.135C1584.95 730.027 1584.79 729.967 1584.63 729.966C1584.55 729.966 1576 729.856 1573.97 723.646C1572.06 717.82 1569.84 704.657 1569.39 701.318C1580.63 700.727 1591.5 696.166 1594.76 694.696C1595.36 707.144 1600.17 710.964 1601.49 711.788L1606.64 736.314Z" fill="#231F20"/>
<path d="M1605.32 705.33C1606.06 701.37 1605.79 697.288 1604.54 693.459C1603.85 691.563 1603.34 690.271 1601.24 690.711C1599.14 691.15 1597.05 692.566 1594.7 692.868C1591.95 693.211 1593.33 695.135 1593.9 697.086C1594.48 699.037 1595.14 701.208 1595.88 703.31C1596.62 705.412 1597.98 710.633 1600.53 711.554C1603.95 712.873 1605.32 705.33 1605.32 705.33Z" fill="white"/>
<path d="M1601.28 712.461C1601.85 712.457 1602.41 712.275 1602.87 711.939C1604.99 710.469 1605.87 706.237 1606.01 705.454C1606.77 701.37 1606.49 697.159 1605.2 693.212C1604.51 691.343 1603.82 689.419 1601.07 690.051C1600.07 690.316 1599.09 690.661 1598.13 691.082C1597.01 691.609 1595.82 691.983 1594.6 692.195C1594.21 692.197 1593.83 692.292 1593.48 692.471C1593.14 692.65 1592.84 692.909 1592.61 693.225C1592.43 693.709 1592.35 694.228 1592.4 694.744C1592.44 695.26 1592.6 695.76 1592.86 696.207C1592.98 696.564 1593.12 696.935 1593.23 697.306C1593.85 699.546 1594.49 701.607 1595.21 703.585L1595.58 704.684C1596.46 707.336 1597.79 711.348 1600.28 712.269C1600.6 712.391 1600.94 712.457 1601.28 712.461V712.461ZM1602.06 691.357C1602.92 691.357 1603.25 691.975 1603.88 693.706C1605.08 697.417 1605.34 701.371 1604.62 705.206V705.206C1604.39 706.484 1603.45 710.002 1601.87 710.867C1601.7 710.964 1601.5 711.022 1601.3 711.036C1601.1 711.05 1600.9 711.021 1600.72 710.95C1598.86 710.263 1597.63 706.498 1596.87 704.245C1596.73 703.819 1596.61 703.434 1596.49 703.118C1595.78 701.167 1595.11 699.147 1594.53 696.935C1594.42 696.537 1594.27 696.124 1594.14 695.74C1593.89 695.08 1593.59 694.256 1593.77 693.967C1593.77 693.967 1594 693.706 1594.73 693.61C1596.07 693.389 1597.38 692.982 1598.62 692.401C1599.51 692.013 1600.42 691.691 1601.36 691.439C1601.59 691.385 1601.83 691.357 1602.06 691.357V691.357Z" fill="#231F20"/>
<path d="M1597.75 711.307C1597.85 710.019 1598.37 708.799 1599.22 707.831C1600.06 706.972 1601.04 706.262 1602.12 705.728C1602.68 705.375 1603.31 705.154 1603.96 705.083C1604.43 705.074 1604.9 705.158 1605.33 705.33C1606.4 705.66 1607.31 706.363 1607.9 707.309C1608.29 708.104 1608.47 708.981 1608.44 709.864C1608.49 710.819 1608.41 711.776 1608.19 712.708C1607.96 713.638 1607.55 714.513 1606.99 715.282C1606.42 716.052 1605.7 716.7 1604.88 717.19C1604.06 717.68 1603.14 718.001 1602.2 718.135C1601.25 718.269 1600.28 718.213 1599.36 717.971" fill="white"/>
<path d="M1601.13 718.864C1602.91 718.867 1604.64 718.271 1606.04 717.172C1607.43 716.072 1608.42 714.534 1608.84 712.805C1609.07 711.81 1609.16 710.788 1609.11 709.768C1609.14 708.77 1608.92 707.781 1608.48 706.883C1607.81 705.805 1606.77 705.008 1605.55 704.643C1605.04 704.439 1604.49 704.337 1603.93 704.341C1603.17 704.423 1602.43 704.676 1601.78 705.083C1600.63 705.641 1599.59 706.394 1598.7 707.309C1597.74 708.391 1597.15 709.755 1597.04 711.197C1597.03 711.29 1597.04 711.384 1597.07 711.473C1597.1 711.562 1597.15 711.644 1597.21 711.714C1597.27 711.784 1597.34 711.842 1597.43 711.883C1597.51 711.924 1597.6 711.948 1597.7 711.953C1597.79 711.962 1597.88 711.953 1597.97 711.925C1598.06 711.897 1598.14 711.852 1598.21 711.792C1598.28 711.731 1598.34 711.657 1598.38 711.574C1598.42 711.491 1598.45 711.4 1598.45 711.307C1598.55 710.172 1599 709.098 1599.76 708.243C1600.56 707.446 1601.49 706.787 1602.5 706.292C1602.97 706.002 1603.49 705.81 1604.03 705.729C1604.4 705.728 1604.77 705.802 1605.11 705.949C1606 706.213 1606.77 706.776 1607.29 707.542C1607.61 708.24 1607.76 709.001 1607.74 709.768C1607.78 710.663 1607.7 711.559 1607.51 712.434C1607.3 713.271 1606.93 714.059 1606.42 714.753C1605.91 715.446 1605.26 716.031 1604.52 716.473C1603.78 716.915 1602.96 717.206 1602.11 717.329C1601.25 717.451 1600.38 717.403 1599.55 717.188C1599.46 717.163 1599.37 717.157 1599.27 717.169C1599.18 717.181 1599.09 717.211 1599.01 717.258C1598.93 717.304 1598.86 717.366 1598.8 717.44C1598.74 717.514 1598.7 717.599 1598.68 717.689C1598.65 717.779 1598.65 717.874 1598.66 717.966C1598.67 718.059 1598.7 718.148 1598.75 718.229C1598.79 718.31 1598.86 718.381 1598.93 718.438C1599 718.495 1599.09 718.537 1599.18 718.562C1599.81 718.747 1600.47 718.848 1601.13 718.864Z" fill="#231F20"/>
<path d="M1581.89 709.892C1581.89 709.892 1578.05 717.572 1579.34 718.658C1580.63 719.743 1583.67 718.52 1583.67 718.52" fill="white"/>
<path d="M1580.9 719.784C1581.93 719.745 1582.95 719.536 1583.91 719.166C1584.08 719.099 1584.22 718.967 1584.29 718.799C1584.36 718.632 1584.37 718.442 1584.3 718.273C1584.23 718.103 1584.1 717.968 1583.93 717.896C1583.76 717.823 1583.57 717.821 1583.41 717.888C1582.54 718.232 1580.51 718.74 1579.78 718.135C1579.43 717.531 1580.7 713.807 1582.53 710.194C1582.57 710.114 1582.59 710.026 1582.6 709.936C1582.61 709.846 1582.6 709.755 1582.57 709.669C1582.54 709.583 1582.5 709.504 1582.44 709.436C1582.38 709.368 1582.31 709.313 1582.22 709.273C1582.06 709.192 1581.87 709.178 1581.7 709.234C1581.53 709.291 1581.39 709.414 1581.3 709.576C1579.78 712.626 1577.44 717.929 1578.91 719.193C1579.49 719.612 1580.19 719.821 1580.9 719.784Z" fill="#231F20"/>
<path d="M1582.36 722.492L1588.38 721.118C1588.38 721.118 1590.03 725.24 1587.01 726.985C1583.98 728.73 1582.36 722.492 1582.36 722.492Z" fill="white"/>
<path d="M1586.04 727.919C1586.53 727.914 1587 727.781 1587.42 727.534C1590.17 725.926 1589.66 722.45 1589.01 720.815C1588.95 720.667 1588.84 720.545 1588.69 720.47C1588.55 720.395 1588.39 720.371 1588.23 720.403L1582.21 721.777C1582.12 721.797 1582.03 721.836 1581.96 721.89C1581.88 721.944 1581.82 722.013 1581.77 722.093C1581.73 722.178 1581.71 722.269 1581.71 722.361C1581.71 722.453 1581.73 722.544 1581.77 722.629C1581.89 723.055 1583.01 726.861 1585.18 727.74C1585.45 727.851 1585.75 727.912 1586.04 727.919V727.919ZM1587.91 721.887C1588.21 722.959 1588.59 725.267 1586.72 726.339C1586.56 726.45 1586.38 726.519 1586.19 726.541C1586 726.562 1585.81 726.535 1585.63 726.462C1584.57 726.036 1583.68 724.14 1583.25 722.945L1587.91 721.887Z" fill="#231F20"/>
<path d="M1596.84 704.135L1596.61 702.871H1596.33C1595.52 702.871 1567.74 707.803 1566.11 708.449C1566 708.487 1565.91 708.563 1565.86 708.662C1565.81 708.762 1565.8 708.877 1565.83 708.985L1566.04 710.084C1566.05 710.184 1566.09 710.279 1566.15 710.357C1566.22 710.435 1566.3 710.493 1566.4 710.524C1566.72 710.656 1566.98 710.887 1567.17 711.183C1567.3 711.389 1567.41 711.595 1567.52 711.801C1567.91 712.598 1568.26 713.395 1568.66 714.178C1569 714.919 1569.53 715.56 1570.19 716.041C1570.85 716.521 1571.62 716.826 1572.43 716.926C1573.66 717.107 1574.91 716.965 1576.07 716.514C1576.94 716.227 1577.73 715.737 1578.37 715.085C1579.02 714.433 1579.5 713.637 1579.78 712.763C1580.08 711.884 1580.3 710.978 1580.42 710.057C1580.49 709.648 1580.6 709.247 1580.75 708.861C1580.83 708.704 1580.96 708.582 1581.12 708.518C1581.41 708.415 1581.7 708.342 1581.99 708.298C1582.13 708.266 1582.27 708.279 1582.4 708.333C1582.53 708.387 1582.63 708.481 1582.7 708.6C1582.94 708.932 1583.14 709.281 1583.32 709.644C1583.77 710.678 1584.42 711.612 1585.23 712.392C1586.1 713.356 1587.3 713.967 1588.59 714.11C1589.04 714.155 1589.5 714.155 1589.96 714.11C1591.33 714.018 1592.65 713.579 1593.81 712.832C1594.56 712.398 1595.11 711.688 1595.35 710.853C1595.68 709.535 1595.89 708.186 1595.96 706.828C1595.98 706.338 1596.13 705.862 1596.4 705.454C1596.69 705.076 1596.85 704.611 1596.84 704.135V704.135Z" fill="#231F20"/>
<path d="M1584.63 730.667C1584.63 730.667 1591.58 729.293 1594.45 726.778C1594.45 726.778 1593.31 735.256 1586.21 738.746L1584.63 730.667Z" fill="#231F20"/>
<path d="M1586.15 739.432C1586.25 739.451 1586.36 739.451 1586.46 739.432C1593.86 735.819 1595.07 727.3 1595.13 726.943C1595.15 726.803 1595.13 726.66 1595.07 726.532C1595.01 726.405 1594.91 726.3 1594.78 726.233C1594.66 726.166 1594.51 726.14 1594.37 726.159C1594.23 726.178 1594.1 726.241 1594 726.338C1591.25 728.715 1584.56 730.062 1584.49 730.076C1584.4 730.092 1584.32 730.126 1584.25 730.175C1584.17 730.224 1584.11 730.287 1584.06 730.362C1584.01 730.436 1583.97 730.519 1583.95 730.607C1583.94 730.695 1583.94 730.785 1583.96 730.872L1585.48 738.91C1585.5 739.013 1585.55 739.111 1585.61 739.194C1585.67 739.277 1585.76 739.345 1585.85 739.391C1585.95 739.431 1586.05 739.445 1586.15 739.432ZM1593.39 728.358C1592.42 732.217 1590 735.558 1586.65 737.701L1585.43 731.202C1588.2 730.621 1590.88 729.664 1593.39 728.358Z" fill="#231F20"/>
<path d="M1596.33 702.843L1606.87 701.579V702.843L1594.56 705.962L1596.33 702.843Z" fill="#231F20"/>
<path d="M1604.94 687.234C1605.68 689.932 1605.68 692.78 1604.94 695.478C1602.04 698.226 1578.95 704.684 1567.26 706.044C1566.16 705.145 1565.4 703.893 1565.1 702.499L1604.94 687.234Z" fill="white"/>
<path d="M1567.26 706.759H1567.34C1579.21 705.385 1602.34 698.858 1605.42 696.014C1605.52 695.911 1605.6 695.784 1605.64 695.643C1606.43 692.812 1606.43 689.819 1605.64 686.987C1605.61 686.898 1605.56 686.817 1605.49 686.748C1605.43 686.679 1605.35 686.625 1605.27 686.589C1605.09 686.519 1604.9 686.519 1604.73 686.589L1564.88 701.867C1564.73 701.926 1564.6 702.035 1564.52 702.178C1564.44 702.321 1564.4 702.488 1564.43 702.651C1564.76 704.219 1565.62 705.626 1566.86 706.635C1566.98 706.716 1567.12 706.759 1567.26 706.759ZM1604.36 695.08C1601.14 697.553 1579.38 703.873 1567.55 705.302C1566.84 704.66 1566.32 703.846 1566.02 702.939L1604.5 688.169C1604.92 690.461 1604.85 692.817 1604.29 695.08H1604.36Z" fill="#231F20"/>
<path d="M1565.1 702.5C1573.76 703.136 1582.44 701.591 1590.34 698.007C1598.02 694.2 1604.33 688.116 1608.41 680.585C1608.41 680.585 1595.21 674.691 1582.31 677.452C1566.45 680.887 1562.49 692.195 1565.1 702.5Z" fill="white"/>
<path d="M1568.8 703.365C1576.34 703.392 1583.79 701.779 1590.65 698.639C1598.48 694.791 1604.92 688.582 1609.04 680.887C1609.08 680.8 1609.1 680.707 1609.1 680.612C1609.1 680.518 1609.08 680.424 1609.04 680.337C1609.01 680.25 1608.96 680.169 1608.9 680.101C1608.84 680.032 1608.76 679.977 1608.67 679.939C1608.12 679.692 1595.11 673.976 1582.18 676.765C1574.93 678.331 1569.43 681.753 1566.42 686.699C1565.03 689.099 1564.13 691.756 1563.78 694.511C1563.44 697.267 1563.65 700.063 1564.42 702.733C1564.45 702.873 1564.53 702.998 1564.64 703.091C1564.74 703.185 1564.88 703.242 1565.02 703.255C1566.28 703.361 1567.54 703.398 1568.8 703.365V703.365ZM1607.41 680.942C1603.38 688.035 1597.33 693.774 1590.04 697.43C1582.39 700.842 1574.03 702.346 1565.67 701.813C1564.38 696.925 1565.09 691.726 1567.63 687.358C1570.49 682.742 1575.51 679.637 1582.51 678.125C1593.33 675.817 1604.54 679.829 1607.41 680.942Z" fill="#231F20"/>
<path d="M1569.72 698.295C1569.87 698.298 1570.02 698.25 1570.14 698.161C1570.25 698.071 1570.34 697.945 1570.38 697.801C1573.04 690.475 1578.5 684.506 1585.56 681.203C1585.72 681.121 1585.84 680.984 1585.89 680.819C1585.95 680.653 1585.94 680.472 1585.87 680.313C1585.8 680.154 1585.67 680.028 1585.51 679.961C1585.34 679.894 1585.16 679.891 1585 679.953C1581.31 681.643 1577.99 684.061 1575.25 687.061C1572.51 690.062 1570.41 693.583 1569.06 697.416C1569.01 697.591 1569.04 697.777 1569.12 697.936C1569.21 698.095 1569.36 698.214 1569.53 698.268L1569.72 698.295Z" fill="#D1D3D4"/>
<path d="M1579.05 696.317C1579.18 696.322 1579.3 696.289 1579.41 696.223C1579.52 696.158 1579.61 696.061 1579.67 695.946C1581.79 692.416 1584.66 689.402 1588.09 687.123C1591.52 684.844 1595.41 683.357 1599.48 682.769C1599.66 682.739 1599.82 682.64 1599.93 682.494C1600.04 682.348 1600.08 682.166 1600.06 681.986C1600.04 681.897 1600.01 681.811 1599.97 681.734C1599.92 681.656 1599.86 681.589 1599.79 681.535C1599.71 681.482 1599.63 681.443 1599.54 681.421C1599.46 681.4 1599.36 681.396 1599.28 681.409C1594.97 681.994 1590.86 683.551 1587.25 685.963C1583.64 688.375 1580.63 691.578 1578.45 695.328C1578.4 695.408 1578.38 695.495 1578.37 695.585C1578.36 695.676 1578.37 695.766 1578.4 695.852C1578.43 695.938 1578.47 696.017 1578.53 696.085C1578.59 696.154 1578.67 696.209 1578.75 696.248C1578.84 696.297 1578.95 696.321 1579.05 696.317Z" fill="#D1D3D4"/>
<path d="M1651.6 779.704C1651.74 779.698 1651.88 779.645 1651.98 779.552C1652.09 779.459 1652.17 779.332 1652.19 779.192C1652.22 779.052 1652.2 778.906 1652.13 778.78C1652.07 778.653 1651.96 778.553 1651.83 778.495L1609.9 761.705C1609.75 761.661 1609.58 761.675 1609.44 761.744C1609.3 761.813 1609.19 761.931 1609.13 762.077C1609.08 762.223 1609.07 762.385 1609.13 762.532C1609.18 762.679 1609.29 762.8 1609.43 762.872L1651.36 779.649C1651.44 779.685 1651.52 779.704 1651.6 779.704V779.704Z" fill="#231F20"/>
<path d="M1612.53 973.861C1612.68 973.86 1612.82 973.806 1612.93 973.71C1613.03 973.614 1613.1 973.483 1613.12 973.339C1613.14 973.261 1613.14 973.18 1613.12 973.102C1613.1 973.025 1613.06 972.951 1613.02 972.887C1612.97 972.823 1612.91 972.769 1612.84 972.729C1612.77 972.688 1612.7 972.662 1612.62 972.652L1590.8 969.369C1590.64 969.345 1590.47 969.385 1590.34 969.48C1590.21 969.575 1590.12 969.717 1590.1 969.877C1590.09 969.956 1590.09 970.037 1590.11 970.115C1590.13 970.193 1590.16 970.266 1590.21 970.33C1590.26 970.394 1590.32 970.448 1590.39 970.488C1590.46 970.528 1590.54 970.554 1590.62 970.564L1612.44 973.861H1612.53Z" fill="#231F20"/>
<path d="M1518.81 883.357C1520.19 883.357 1524.41 882.821 1538.87 881.021C1539.04 881.001 1539.18 880.918 1539.28 880.791C1539.38 880.663 1539.42 880.502 1539.4 880.341C1539.38 880.181 1539.3 880.035 1539.17 879.936C1539.05 879.837 1538.88 879.792 1538.72 879.812C1531.07 880.774 1519.49 882.189 1518.7 882.244C1518.6 882.234 1518.48 882.258 1518.39 882.313C1518.25 882.389 1518.15 882.516 1518.1 882.668C1518.05 882.819 1518.07 882.983 1518.14 883.124C1518.21 883.261 1518.27 883.357 1518.81 883.357Z" fill="#231F20"/>
<path d="M1653.34 692.827L1653.49 698.09C1653.43 698.496 1653.51 698.91 1653.72 699.264C1653.93 699.619 1654.25 699.892 1654.63 700.041L1657.12 701.415C1658.72 702.403 1660.41 703.24 1662.16 703.915C1664.42 704.702 1666.83 704.928 1669.2 704.575C1669.5 704.559 1669.79 704.443 1670.02 704.245C1670.21 703.977 1670.3 703.651 1670.27 703.324C1670.28 701.072 1669.9 698.836 1669.14 696.716" fill="white"/>
<path d="M1666.98 705.426C1667.74 705.426 1668.49 705.371 1669.24 705.261C1669.47 705.26 1669.7 705.208 1669.91 705.11C1670.13 705.012 1670.31 704.87 1670.47 704.693C1670.62 704.516 1670.73 704.308 1670.8 704.084C1670.86 703.86 1670.88 703.624 1670.85 703.393C1670.87 701.052 1670.47 698.725 1669.68 696.523C1669.62 696.367 1669.5 696.24 1669.35 696.17C1669.2 696.101 1669.02 696.094 1668.87 696.152C1668.79 696.18 1668.72 696.222 1668.66 696.277C1668.6 696.332 1668.55 696.399 1668.52 696.473C1668.48 696.547 1668.46 696.627 1668.46 696.709C1668.45 696.791 1668.47 696.872 1668.5 696.949C1669.24 698.996 1669.61 701.16 1669.58 703.338C1669.59 703.51 1669.57 703.683 1669.51 703.846C1669.37 703.927 1669.21 703.974 1669.05 703.984C1666.78 704.311 1664.48 704.095 1662.31 703.352C1660.59 702.704 1658.94 701.895 1657.37 700.933L1654.88 699.559C1654.63 699.444 1654.4 699.275 1654.22 699.065C1654.09 698.777 1654.03 698.46 1654.06 698.144L1653.9 692.882C1653.89 692.718 1653.82 692.564 1653.7 692.452C1653.58 692.339 1653.42 692.277 1653.26 692.277C1653.17 692.277 1653.09 692.294 1653.02 692.327C1652.94 692.36 1652.87 692.408 1652.81 692.468C1652.75 692.528 1652.71 692.6 1652.68 692.678C1652.65 692.756 1652.64 692.84 1652.64 692.923L1652.81 698.172C1652.78 698.723 1652.91 699.271 1653.18 699.752C1653.45 700.133 1653.82 700.439 1654.25 700.645L1656.73 702.019C1658.39 703.036 1660.14 703.887 1661.96 704.561C1663.57 705.13 1665.27 705.422 1666.98 705.426V705.426Z" fill="#231F20"/>
<path d="M1579.46 849.873H1579.57C1579.65 849.86 1579.73 849.831 1579.79 849.789C1579.86 849.746 1579.92 849.691 1579.97 849.626C1580.01 849.561 1580.04 849.487 1580.06 849.409C1580.08 849.331 1580.08 849.251 1580.07 849.172C1580.07 849.007 1577.32 832.149 1577.48 821.775C1577.49 821.613 1577.43 821.457 1577.32 821.339C1577.21 821.22 1577.05 821.15 1576.89 821.143C1576.81 821.137 1576.73 821.149 1576.65 821.177C1576.58 821.205 1576.51 821.249 1576.45 821.306C1576.39 821.363 1576.34 821.432 1576.31 821.508C1576.28 821.584 1576.27 821.666 1576.27 821.748C1576.06 832.245 1578.84 849.227 1578.87 849.378C1578.89 849.518 1578.97 849.645 1579.08 849.735C1579.18 849.826 1579.32 849.875 1579.46 849.873V849.873Z" fill="white"/>
<path d="M1619.6 883.453C1619.74 883.455 1619.88 883.405 1619.99 883.311C1620.1 883.218 1620.18 883.088 1620.2 882.945C1620.2 882.615 1625.7 849.969 1623.09 829.662C1623.08 829.582 1623.05 829.506 1623.01 829.436C1622.97 829.366 1622.92 829.305 1622.86 829.256C1622.79 829.207 1622.72 829.171 1622.64 829.15C1622.57 829.129 1622.49 829.123 1622.41 829.133C1622.33 829.143 1622.25 829.168 1622.18 829.208C1622.11 829.247 1622.05 829.3 1622 829.363C1621.95 829.426 1621.92 829.499 1621.89 829.576C1621.87 829.653 1621.87 829.733 1621.88 829.813C1624.39 849.983 1619.13 882.423 1619.01 882.752C1618.99 882.831 1618.99 882.911 1619.01 882.989C1619.03 883.067 1619.06 883.14 1619.11 883.206C1619.15 883.271 1619.21 883.326 1619.28 883.369C1619.35 883.411 1619.42 883.44 1619.5 883.453H1619.6Z" fill="white"/>
<path d="M1543.33 824.001H1543.49L1568.22 816.911C1568.3 816.891 1568.37 816.855 1568.43 816.806C1568.5 816.758 1568.55 816.697 1568.59 816.628C1568.62 816.558 1568.65 816.482 1568.66 816.404C1568.67 816.325 1568.66 816.245 1568.64 816.169C1568.61 816.091 1568.58 816.018 1568.53 815.954C1568.48 815.89 1568.42 815.836 1568.35 815.797C1568.28 815.757 1568.2 815.732 1568.12 815.723C1568.04 815.713 1567.96 815.721 1567.88 815.743L1543.15 822.833C1542.99 822.878 1542.86 822.982 1542.78 823.124C1542.7 823.265 1542.68 823.432 1542.72 823.589C1542.77 823.712 1542.85 823.818 1542.96 823.891C1543.07 823.965 1543.2 824.004 1543.33 824.001V824.001Z" fill="white"/>
<path d="M1619.6 841.547C1619.74 841.548 1619.89 841.496 1620 841.4C1620.11 841.304 1620.18 841.171 1620.2 841.025C1620.22 840.865 1620.18 840.704 1620.08 840.575C1619.98 840.447 1619.84 840.362 1619.68 840.338C1619.31 840.338 1610.61 838.964 1607.78 825.774C1607.75 825.617 1607.65 825.48 1607.52 825.392C1607.39 825.305 1607.22 825.274 1607.07 825.307C1606.91 825.343 1606.77 825.439 1606.68 825.575C1606.6 825.711 1606.57 825.876 1606.6 826.035C1609.61 840.049 1619.12 841.492 1619.51 841.547H1619.6Z" fill="white"/>
</g>
<defs>
<clipPath id="clip0">
<rect width="1920" height="1040" fill="white"/>
</clipPath>
</defs>
</svg>
