<svg width="57" height="76" viewBox="0 0 57 76" fill="none" xmlns="http://www.w3.org/2000/svg">
<path d="M25.5396 43.8743H18.9309V50.6665H12.1387V57.2752H18.9309V64.0675H25.5396V57.2752H32.3319V50.6665H25.5396V43.8743ZM30.8633 52.1351V55.8066H24.071V62.5989H20.3995V55.8066H13.6073V52.1351H20.3995V45.3429H24.071V52.1351H30.8633Z" fill="white"/>
<path d="M54.2693 29.372C50.0471 26.9855 47.2017 31.8502 46.0084 33.9613C44.5398 36.5314 43.0713 39.1014 41.6944 41.6715C41.6027 41.8551 41.5109 42.0386 41.4191 42.2222V11.657C41.4191 7.89372 38.6655 5.96618 36.0954 5.78261C34.6268 5.69082 32.9746 6.14976 31.7814 7.25121V5.96618C31.7814 2.66184 29.1196 0 25.8152 0C22.5109 0 19.849 2.66184 19.849 5.96618V7.06763C18.8394 6.24155 17.5543 5.78261 16.0857 5.78261C12.6896 5.78261 9.8442 8.53623 9.8442 11.7488V12.5749C8.74275 11.7488 7.36594 11.3816 5.89734 11.5652C3.32729 11.8406 0.481884 13.9517 0.114734 17.4396C-0.0688404 19.1836 0.0229467 20.9275 0.0229467 22.6715C0.0229467 23.4976 0.114734 24.3237 0.114734 25.1498V45.8937C0.114734 49.8406 0.114734 53.6956 0.114734 57.6425C0.114734 60.029 0.298309 62.8744 1.49155 65.7198C4.24517 72.2367 10.7621 75.9082 19.849 76C20.2162 76 20.5833 76 21.0423 76C28.7524 76 37.1051 75.0821 42.5205 69.4831C50.4142 61.314 53.7186 48.1884 56.3804 37.7246V37.5411C56.7476 35.7053 57.849 31.3913 54.2693 29.372ZM39.1244 20.5604L32.6075 15.3285H39.1244V20.5604ZM38.1147 21.6618H31.5978V16.43L38.1147 21.6618ZM31.6896 24.1401L38.0229 28.913H31.6896V24.1401ZM32.7911 23.1304H39.1244V27.9034L32.7911 23.1304ZM35.9118 7.98551C37.3804 8.07729 39.2162 9.08696 39.2162 11.657V13.9517H31.7814V11.657C31.965 8.99517 34.0761 7.89372 35.9118 7.98551ZM54.1775 36.8068V36.9903C51.6075 47.2705 48.3949 60.029 40.8684 67.7391C35.7283 73.0628 27.3756 73.6135 19.7572 73.6135C15.0761 73.5217 6.63164 72.3285 3.41908 64.7101C2.40942 62.2319 2.22584 59.6618 2.22584 57.4589C2.22584 53.5121 2.22584 49.657 2.22584 45.7101V24.9662C2.22584 24.1401 2.22584 23.314 2.13406 22.3961C2.04227 20.744 2.04227 19 2.22584 17.4396C2.50121 15.1449 4.33696 13.6763 6.08092 13.4928C6.907 13.401 8.83454 13.4928 9.75241 15.971V37.0821C9.75241 37.7246 10.2114 38.1836 10.8539 38.1836C11.4964 38.1836 11.9553 37.7246 11.9553 37.0821V11.5652C11.9553 9.54589 13.7911 7.80193 15.994 7.80193C18.0133 7.80193 19.7572 9.45411 19.7572 11.5652V37.1739C19.7572 37.8164 20.2162 38.2754 20.8587 38.2754C21.5012 38.2754 21.9601 37.8164 21.9601 37.1739V11.5652V5.8744C21.9601 3.85507 23.6123 2.11111 25.7234 2.11111C27.7428 2.11111 29.4867 3.76329 29.4867 5.8744V11.5652V37.1739C29.4867 37.8164 29.9457 38.2754 30.5882 38.2754C31.2307 38.2754 31.6896 37.8164 31.6896 37.1739V30.3816H39.1244V46.4444C39.1244 46.9034 39.4915 47.3623 39.9505 47.5459C40.4094 47.6377 40.9601 47.4541 41.2355 46.9952C42.0616 45.6184 42.7959 44.1498 43.622 42.7729C45.0906 40.2029 46.4674 37.6328 47.936 35.1546C49.7717 32.0338 51.2403 30.2899 53.1679 31.3913C54.6365 32.1256 54.9118 33.7778 54.1775 36.8068Z" fill="white"/>
</svg>
