<svg width="86" height="76" viewBox="0 0 86 76" fill="none" xmlns="http://www.w3.org/2000/svg">
<path d="M6.93257 76H78.666C79.8853 76.0041 81.084 75.6857 82.1407 75.0772C83.1973 74.4688 84.0743 73.5918 84.6828 72.5351C85.2913 71.4785 85.6096 70.2797 85.6056 69.0604C85.6015 67.8411 85.2751 66.6445 84.6596 65.592L48.7929 3.46741C48.1905 2.42225 47.3256 1.55255 46.2837 0.944425C45.2419 0.3363 44.0593 0.0108392 42.853 0.000266094C41.6467 -0.010307 40.4586 0.294374 39.4062 0.884144C38.3539 1.47391 37.4738 2.32832 36.8532 3.36276L36.7866 3.46741L0.938933 65.592C0.326492 66.645 0.00262761 67.841 1.59217e-05 69.0591C-0.00259577 70.2773 0.316138 71.4746 0.924058 72.5303C1.53198 73.586 2.40758 74.4626 3.46251 75.0718C4.51744 75.681 5.71439 76.0011 6.93257 76ZM4.07846 67.4376L39.9452 5.29405C40.2336 4.79205 40.6494 4.37501 41.1505 4.08501C41.6516 3.79501 42.2203 3.64231 42.7993 3.64231C43.3782 3.64231 43.947 3.79501 44.4481 4.08501C44.9492 4.37501 45.3649 4.79205 45.6534 5.29405L81.5201 67.4186C81.8068 67.919 81.957 68.4859 81.9556 69.0627C81.9543 69.6394 81.8014 70.2056 81.5124 70.7047C81.2234 71.2037 80.8083 71.6181 80.3087 71.9063C79.8092 72.1945 79.2427 72.3463 78.666 72.3467H6.93257C6.35474 72.3492 5.78647 72.1992 5.28522 71.9117C4.78397 71.6242 4.3675 71.2095 4.07791 70.7094C3.78831 70.2094 3.63586 69.6418 3.63595 69.0639C3.63605 68.4861 3.7887 67.9185 4.07846 67.4186V67.4376Z" fill="white"/>
<path d="M40.9635 53.0624H44.6358C45.094 53.0638 45.5358 52.892 45.8728 52.5815C46.2097 52.271 46.417 51.8447 46.4529 51.3879L48.3557 27.9366C48.3768 27.6855 48.3454 27.4328 48.2636 27.1944C48.1818 26.9561 48.0513 26.7374 47.8804 26.5522C47.7095 26.367 47.502 26.2193 47.271 26.1186C47.04 26.018 46.7906 25.9664 46.5386 25.9673H39.0227C38.7707 25.9664 38.5213 26.018 38.2903 26.1186C38.0593 26.2193 37.8518 26.367 37.6809 26.5522C37.51 26.7374 37.3795 26.9561 37.2977 27.1944C37.2158 27.4328 37.1845 27.6855 37.2056 27.9366L39.1083 51.3879C39.1447 51.8514 39.3573 52.2832 39.7024 52.5947C40.0475 52.9061 40.4988 53.0735 40.9635 53.0624ZM44.5787 29.6111L42.9614 49.4186H42.6379L41.0206 29.6111H44.5787Z" fill="white"/>
<path d="M42.7998 56.906C41.7856 56.906 40.7941 57.2068 39.9509 57.7702C39.1076 58.3337 38.4503 59.1345 38.0622 60.0715C37.6741 61.0085 37.5725 62.0396 37.7704 63.0343C37.9683 64.029 38.4567 64.9427 39.1738 65.6599C39.891 66.377 40.8047 66.8654 41.7994 67.0633C42.7941 67.2611 43.8251 67.1596 44.7621 66.7714C45.6991 66.3833 46.5 65.7261 47.0635 64.8828C47.6269 64.0395 47.9277 63.0481 47.9277 62.0339C47.9277 60.6739 47.3874 59.3696 46.4257 58.4079C45.4641 57.4463 44.1598 56.906 42.7998 56.906ZM42.7998 63.5085C42.5062 63.5085 42.2193 63.4215 41.9752 63.2584C41.7312 63.0953 41.5409 62.8635 41.4286 62.5923C41.3163 62.3211 41.2869 62.0227 41.3441 61.7348C41.4014 61.4469 41.5428 61.1825 41.7503 60.9749C41.9579 60.7674 42.2223 60.626 42.5102 60.5688C42.7981 60.5115 43.0965 60.5409 43.3677 60.6532C43.6389 60.7655 43.8707 60.9558 44.0338 61.1998C44.1969 61.4439 44.2839 61.7308 44.2839 62.0244C44.2839 62.418 44.1275 62.7955 43.8492 63.0738C43.5709 63.3522 43.1934 63.5085 42.7998 63.5085Z" fill="white"/>
</svg>
