<svg width="77" height="76" viewBox="0 0 77 76" fill="none" xmlns="http://www.w3.org/2000/svg">
<path d="M8.34258 55.0778C8.86768 55.0778 9.29258 54.6529 9.29258 54.1278V50.2137C9.29258 49.6886 8.86768 49.2637 8.34258 49.2637C7.81748 49.2637 7.39258 49.6886 7.39258 50.2137V54.1278C7.39258 54.6529 7.81748 55.0778 8.34258 55.0778Z" fill="white"/>
<path d="M67.2197 55.291H59.0398C58.5147 55.291 58.0898 55.7159 58.0898 56.241V67.7663C58.0898 68.2914 58.5147 68.7163 59.0398 68.7163H67.2197C67.7448 68.7163 68.1697 68.2914 68.1697 67.7663V56.241C68.1697 55.7159 67.7448 55.291 67.2197 55.291ZM66.2697 66.8163H59.9898V57.191H66.2697V66.8163Z" fill="white"/>
<path d="M53.4141 55.291H45.2352C44.7101 55.291 44.2852 55.7159 44.2852 56.241V67.7663C44.2852 68.2914 44.7101 68.7163 45.2352 68.7163H53.4141C53.9392 68.7163 54.3641 68.2914 54.3641 67.7663V56.241C54.3641 55.7159 53.9392 55.291 53.4141 55.291ZM52.4641 66.8163H46.1852V57.191H52.4641V66.8163Z" fill="white"/>
<path d="M39.6074 55.291H31.4285C30.9034 55.291 30.4785 55.7159 30.4785 56.241V67.7663C30.4785 68.2914 30.9034 68.7163 31.4285 68.7163H39.6074C40.1325 68.7163 40.5574 68.2914 40.5574 67.7663V56.241C40.5574 55.7159 40.1325 55.291 39.6074 55.291ZM38.6574 66.8163H32.3785V57.191H38.6574V66.8163Z" fill="white"/>
<path d="M2.14771 23.8533V75.05C2.14771 75.5751 2.57261 76 3.09771 76H73.1454C73.6705 76 74.0954 75.5751 74.0954 75.05V23.6357C75.2696 22.4998 76.0037 20.9112 76.0037 19.1521V0.95C76.0037 0.424902 75.5788 0 75.0537 0H0.95C0.424902 0 0 0.424902 0 0.95V19.1521C0 21.0274 0.834845 22.7078 2.14771 23.8533ZM1.9 8.97861H10.5864V19.1521C10.5864 21.5476 8.63813 23.4958 6.24272 23.4958C3.84824 23.4958 1.9 21.5476 1.9 19.1521V8.97861ZM63.5173 19.1521C63.5173 21.5476 61.5691 23.4958 59.1746 23.4958C56.7792 23.4958 54.831 21.5476 54.831 19.1521V8.97861H63.5173V19.1521ZM52.931 19.1521C52.931 21.5476 50.9827 23.4958 48.5882 23.4958C46.1928 23.4958 44.2446 21.5476 44.2446 19.1521V8.97861H52.931V19.1521ZM23.0728 19.1521V8.97861H31.7591V19.1521C31.7591 21.5476 29.8109 23.4958 27.4155 23.4958C25.021 23.4958 23.0728 21.5476 23.0728 19.1521ZM33.6591 8.97861H42.3446V19.1521C42.3446 21.5476 40.3963 23.4958 38.0019 23.4958C35.6074 23.4958 33.6591 21.5476 33.6591 19.1521V8.97861ZM44.2446 7.07861V1.9H52.931V7.07861H44.2446ZM42.3446 7.07861H33.6591V1.9H42.3446V7.07861ZM31.7591 7.07861H23.0728V1.9H31.7591V7.07861ZM21.1728 7.07861H12.4864V1.9H21.1728V7.07861ZM21.1728 8.97861V19.1521C21.1728 21.5476 19.2245 23.4958 16.8291 23.4958C14.4346 23.4958 12.4864 21.5476 12.4864 19.1521V8.97861H21.1728ZM6.24272 25.3958C8.47543 25.3958 10.4325 24.2141 11.5364 22.4471C12.6402 24.2141 14.597 25.3958 16.8291 25.3958C19.0618 25.3958 21.0189 24.2141 22.1228 22.4471C22.7233 23.4085 23.5754 24.1944 24.5896 24.7122V66.8164H4.04771V24.9896C4.73174 25.2479 5.46946 25.3958 6.24272 25.3958ZM4.04771 68.7164H24.5896V74.1H4.04771V68.7164ZM26.4896 74.1V50.6172H72.1954V74.1H26.4896ZM72.1954 48.7172H26.4896V25.3193C26.7926 25.3647 27.1001 25.3958 27.4155 25.3958C29.6482 25.3958 31.6052 24.2141 32.7091 22.4471C33.813 24.2141 35.7698 25.3958 38.0019 25.3958C40.2339 25.3958 42.1908 24.2141 43.2946 22.4471C44.3985 24.2141 46.3555 25.3958 48.5882 25.3958C50.8203 25.3958 52.7771 24.2141 53.881 22.4471C54.9848 24.2141 56.9419 25.3958 59.1746 25.3958C61.4067 25.3958 63.3636 24.2141 64.4673 22.4471C65.5712 24.2141 67.5283 25.3958 69.761 25.3958C70.6242 25.3958 71.4469 25.2194 72.1954 24.9011V48.7172ZM69.761 23.4958C67.3656 23.4958 65.4173 21.5476 65.4173 19.1521V8.97861H74.1037V19.1521C74.1037 21.5476 72.1555 23.4958 69.761 23.4958ZM74.1037 1.9V7.07861H65.4173V1.9H74.1037ZM63.5173 7.07861H54.831V1.9H63.5173V7.07861ZM10.5864 1.9V7.07861H1.9V1.9H10.5864Z" fill="white"/>
<path d="M8.34258 45.1435H20.251C20.7761 45.1435 21.201 44.7186 21.201 44.1935V35.7623C21.201 35.2372 20.7761 34.8123 20.251 34.8123H18.9467L15.0946 30.2682C14.9193 30.0604 14.6623 29.9389 14.3905 29.9324C14.114 29.9315 13.8561 30.0381 13.6724 30.2376L9.44218 34.8123H8.34258C7.81748 34.8123 7.39258 35.2372 7.39258 35.7623V44.1935C7.39258 44.7186 7.81748 45.1435 8.34258 45.1435ZM19.301 43.2435H9.29258V36.7123H19.301V43.2435ZM14.3395 32.3148L16.4564 34.8123H12.03L14.3395 32.3148Z" fill="white"/>
</svg>
