<svg width="122" height="76" viewBox="0 0 122 76" fill="none" xmlns="http://www.w3.org/2000/svg">
<path d="M119.864 10.1051L96.8625 11.7623C94.9442 11.9049 93.1502 12.7689 91.8395 14.1815C90.5287 15.5941 89.7977 17.4511 89.7928 19.3812V21.0585C84.3949 24.0495 72.6322 29.4252 65.4014 28.6774C64.9986 28.1318 64.5957 27.5255 64.1526 26.8586C61.2724 22.5338 56.9419 16.0062 47.8983 14.1874L46.5891 13.9045C42.8831 13.0759 37.3039 11.8835 32.0268 16.7135C31.9761 16.7712 31.929 16.832 31.8858 16.8954L29.0861 16.5317L39.036 3.23397C39.2605 2.93372 39.3971 2.5767 39.4307 2.20291C39.4643 1.82911 39.3935 1.45332 39.2262 1.11763C39.0589 0.781946 38.8018 0.499629 38.4836 0.302317C38.1654 0.105004 37.7988 0.000493056 37.4247 0.000493056C33.9066 -0.0238361 30.4404 0.852575 27.3539 2.54686C15.0877 9.43821 7.21233 24.5143 5.62115 35.8719C5.5855 36.2293 5.64546 36.5898 5.79484 36.9163C5.94422 37.2428 6.17763 37.5234 6.47103 37.7292C6.76443 37.9351 7.10721 38.0588 7.46408 38.0875C7.82095 38.1163 8.17901 38.0491 8.50139 37.8928L9.73003 37.2865C11.788 36.143 14.0096 35.325 16.3163 34.8614C19.7695 34.0205 23.383 34.1111 26.79 35.1242L25.3398 38.3981C20.6676 36.8292 15.5735 37.119 11.108 39.2077C6.6425 41.2964 3.14603 45.0247 1.33958 49.6238C-0.466876 54.223 -0.44557 59.3423 1.3991 63.9262C3.24378 68.5101 6.77116 72.209 11.2539 74.2601C15.7366 76.3113 20.8329 76.5584 25.4919 74.9505C30.1509 73.3425 34.0173 70.0021 36.2938 65.6181C38.5704 61.234 39.0836 56.1406 37.7275 51.3881C36.3714 46.6356 33.2495 42.5864 29.0055 40.0754L30.496 36.7813L31.2412 37.1855C33.7191 38.8254 35.849 40.9411 37.5083 43.4106C39.1676 45.8801 40.3234 48.6547 40.9092 51.5745C42.0367 56.3607 41.5185 61.3887 39.4389 65.8422C39.2974 66.149 39.2348 66.4865 39.2569 66.8238C39.2791 67.1611 39.3852 67.4874 39.5655 67.7729C39.7459 68.0584 39.9947 68.294 40.2893 68.458C40.5838 68.6221 40.9147 68.7094 41.2516 68.7119H71.8266C72.1642 68.7146 72.4971 68.6321 72.7947 68.4719C73.0922 68.3118 73.3449 68.0791 73.5294 67.7954C73.7139 67.5117 73.8243 67.1859 73.8506 66.8482C73.8768 66.5104 73.818 66.1714 73.6796 65.8624C72.7139 63.6837 72.1019 61.364 71.8668 58.9913L74.9485 59.5369C75.644 64.0587 77.9211 68.1843 81.3721 71.175C84.8231 74.1656 89.2225 75.8259 93.7824 75.8584C98.3422 75.891 102.765 74.2937 106.258 71.3526C109.751 68.4115 112.086 64.3187 112.846 59.8074C113.605 55.296 112.739 50.6606 110.403 46.7315C108.066 42.8024 104.412 39.8362 100.095 38.3642C95.7771 36.8921 91.0783 37.0104 86.8398 38.6977C82.6012 40.3851 79.0998 43.5314 76.9627 47.5731L73.881 47.0274C75.8252 43.2123 78.7818 40.0102 82.4248 37.7743C86.0678 35.5383 90.2556 34.3555 94.5261 34.3562C96.4791 34.3615 98.4138 33.9784 100.218 33.2292C102.023 32.4799 103.662 31.3793 105.04 29.991L121.415 13.5609C121.704 13.2694 121.897 12.8966 121.969 12.4923C122.041 12.0879 121.988 11.6711 121.818 11.2975C121.651 10.9234 121.375 10.6091 121.026 10.3961C120.677 10.1832 120.272 10.0817 119.864 10.1051V10.1051ZM34.4035 56.5864C34.4076 59.7787 33.4083 62.891 31.5479 65.4806C29.6875 68.0703 27.0606 70.0054 24.0409 71.0108C21.0212 72.0161 17.7624 72.0405 14.7281 71.0804C11.6937 70.1204 9.03838 68.2248 7.13967 65.6633C5.24096 63.1017 4.19558 60.0047 4.15223 56.8127C4.10887 53.6207 5.06974 50.4963 6.89818 47.8838C8.72661 45.2713 11.3295 43.3038 14.3366 42.2611C17.3437 41.2185 20.602 41.1537 23.6479 42.0761L19.8008 50.5236H19.2973C17.8944 50.5227 16.5349 51.0116 15.452 51.9065C14.3691 52.8014 13.6303 54.0464 13.3622 55.4281C13.0942 56.8098 13.3137 58.242 13.9831 59.479C14.6524 60.7161 15.7299 61.6809 17.0307 62.208C18.3316 62.7351 19.7746 62.7917 21.1125 62.3679C22.4503 61.9441 23.5995 61.0665 24.3629 59.8856C25.1263 58.7046 25.4564 57.294 25.2965 55.8955C25.1367 54.4971 24.4968 53.198 23.4867 52.2212L27.3539 43.7737C29.5128 45.1372 31.2918 47.0276 32.5246 49.2684C33.7575 51.5091 34.4039 54.0269 34.4035 56.5864V56.5864ZM17.2831 56.5864C17.2756 56.6873 17.2756 56.7886 17.2831 56.8895C17.2751 56.7886 17.2751 56.6873 17.2831 56.5864V56.5864ZM18.2298 58.284C18.0915 58.2051 17.9631 58.1102 17.8471 58.001C17.9641 58.1031 18.0926 58.1912 18.2298 58.2637V58.284ZM17.6255 57.6777C17.5484 57.5765 17.4809 57.4682 17.4241 57.3543C17.482 57.4613 17.5494 57.5627 17.6255 57.6575V57.6777ZM17.2831 56.162C17.2697 56.0276 17.2697 55.8922 17.2831 55.7578C17.2697 55.8922 17.2697 56.0276 17.2831 56.162ZM19.2973 58.6073C19.0259 58.6004 18.7587 58.5385 18.5118 58.4254C18.7587 58.5385 19.0259 58.6004 19.2973 58.6073ZM20.7676 57.9808L20.6468 58.0819L20.7676 57.9808ZM20.2037 58.385H20.0224H20.2037ZM45.7029 17.8453L47.1128 18.1484C50.929 18.9103 54.3816 20.9305 56.9218 23.8878C50.8373 20.8872 44.3295 18.8425 37.6261 17.825C40.2524 16.972 43.0809 16.9791 45.7029 17.8453V17.8453ZM93.8212 41.4294C96.6508 41.4282 99.4239 42.2244 101.825 43.7273C104.225 45.2302 106.157 47.3795 107.399 49.9302C108.642 52.4809 109.146 55.3305 108.853 58.1544C108.56 60.9783 107.483 63.663 105.744 65.9025C104.004 68.142 101.673 69.8464 99.0158 70.8214C96.3583 71.7965 93.4813 72.003 90.7125 71.4175C87.9437 70.832 85.3944 69.4779 83.3552 67.5097C81.3159 65.5414 79.8687 63.038 79.1782 60.2847L92.5925 62.6491C94.1366 62.8405 95.6948 62.427 96.9425 61.4946C98.1903 60.5621 99.0316 59.1827 99.2911 57.6436C99.5507 56.1044 99.2086 54.5241 98.336 53.2317C97.4634 51.9393 96.1276 51.0344 94.6067 50.7055L81.1722 48.3006C82.5478 46.1931 84.424 44.4618 86.632 43.2624C88.8399 42.063 91.3104 41.4331 93.8212 41.4294V41.4294ZM94.0024 54.6867C94.263 54.733 94.512 54.8305 94.735 54.9734C94.9581 55.1163 95.1508 55.3019 95.3024 55.5196C95.4539 55.7373 95.5611 55.9829 95.618 56.2422C95.6749 56.5015 95.6803 56.7696 95.6339 57.031C95.5877 57.2924 95.4906 57.5422 95.3482 57.766C95.2058 57.9898 95.0208 58.1832 94.8038 58.3353C94.5868 58.4873 94.3421 58.5949 94.0836 58.652C93.8252 58.7091 93.558 58.7145 93.2975 58.6679L71.6654 54.8686C71.6654 54.6261 71.6654 54.3634 71.6654 54.1208C71.7925 53.0206 72.0081 51.9325 72.3099 50.8672L94.0024 54.6867ZM102.22 27.1415C101.211 28.1555 100.011 28.9582 98.6906 29.5029C97.3697 30.0476 95.9542 30.3234 94.5261 30.3144C90.3378 30.2005 86.1834 31.0967 82.4119 32.9278C78.6403 34.7588 75.3618 37.4713 72.8517 40.8373C70.3416 44.2033 68.6731 48.1245 67.9866 52.2716C67.3 56.4187 67.6153 60.6706 68.906 64.6701H44.2124C45.6999 60.1475 45.9091 55.2997 44.8167 50.6651C44.118 47.2323 42.7493 43.9721 40.7892 41.0725C38.8292 38.1729 36.3167 35.6911 33.3964 33.7701C30.7428 32.125 27.7866 31.0322 24.7036 30.5565C21.6206 30.0809 18.4738 30.2322 15.4502 31.0015C13.7236 31.3572 12.0368 31.8853 10.4148 32.5778C12.7916 22.8774 19.539 11.5602 29.2674 6.06327C30.44 5.4105 31.6927 4.91453 32.9936 4.58799L23.7284 16.9763C23.5105 17.2655 23.3742 17.6083 23.3337 17.9686C23.2932 18.3289 23.3501 18.6936 23.4984 19.0242C23.6467 19.3549 23.881 19.6395 24.1766 19.848C24.4722 20.0566 24.8183 20.1816 25.1786 20.2097C32.2483 20.7554 51.9669 23.5241 58.1504 29.7283C67.053 38.6608 90.2158 25.5046 92.8141 23.9889C93.1215 23.8108 93.3765 23.5544 93.5533 23.2457C93.7302 22.9369 93.8226 22.5868 93.8212 22.2307V19.3812C93.8238 18.4691 94.1698 17.5917 94.7898 16.9246C95.4098 16.2576 96.258 15.8501 97.1647 15.7839L114.768 14.5309L102.22 27.1415Z" fill="white"/>
</svg>
