<svg width="73" height="76" viewBox="0 0 73 76" fill="none" xmlns="http://www.w3.org/2000/svg">
<path d="M0.597764 63.9164C-0.668138 66.218 0.137436 68.98 2.43907 70.2459C4.74071 71.5118 7.61776 70.7062 8.76858 68.4046L29.1381 31.3482L36.043 35.1459C34.4319 38.023 35.4676 41.5905 38.3446 43.0866L39.7256 43.8921C42.6027 45.5033 46.1702 44.3525 47.6663 41.5905L55.0315 28.1259C56.6427 25.2489 55.4919 21.6813 52.7299 20.1853L51.3489 19.3797C48.4719 17.7685 44.9043 18.8043 43.4082 21.6813L21.4276 9.48263C23.0387 6.60558 21.8879 3.03804 19.126 1.54198L17.745 0.736403C14.8679 -0.874744 11.3004 0.276075 9.80432 3.03804L2.32399 16.6177C0.712846 19.4948 1.74858 23.0623 4.62563 24.5584L6.00662 25.3639C8.88366 26.9751 12.4512 25.8243 13.9473 23.0623L20.9673 26.86L0.597764 63.9164ZM7.15744 23.2925L5.77645 22.4869C4.05022 21.5662 3.35973 19.3797 4.39547 17.6535L11.6456 4.18886C12.5663 2.46263 14.7528 1.77214 16.4791 2.80788L17.8601 3.61345C19.5863 4.53411 20.2768 6.72066 19.241 8.44689L11.8758 21.9115C11.0702 23.6377 8.88367 24.3282 7.15744 23.2925ZM6.81219 67.3689C6.23678 68.5197 4.74071 68.8649 3.58989 68.2895C2.43907 67.7141 1.97875 66.218 2.66924 65.0672L23.0387 28.0108C23.1538 28.1259 27.4119 30.4275 27.1817 30.3125L6.81219 67.3689ZM50.4282 21.3361L51.8092 22.1416C53.5355 23.0623 54.226 25.2489 53.1902 26.9751L45.825 40.4397C44.9043 42.1659 42.7178 42.8564 40.9915 41.8207L39.6105 41.0151C37.8843 40.0944 37.1938 37.9079 38.2296 36.1816C37.9994 36.642 41.7971 29.622 45.5948 22.7171C46.5155 21.1059 48.702 20.4154 50.4282 21.3361ZM20.2768 11.5541L42.3725 23.7528L37.1938 33.1895C29.2532 28.8164 23.4991 25.7092 15.0981 20.9908L20.2768 11.5541Z" fill="white"/>
<path d="M26.2617 74.8492C26.2617 75.5397 26.722 76 27.4125 76C41.1073 76 57.7942 76 71.604 76C72.2945 76 72.7548 75.5397 72.7548 74.8492C72.7548 74.1587 72.2945 73.6983 71.604 73.6983H66.3102V67.3688C66.3102 65.1823 64.584 63.4561 62.3974 63.4561H36.7342C34.5476 63.4561 32.8214 65.1823 32.8214 67.3688V73.6983H27.5276C26.8371 73.6983 26.2617 74.2738 26.2617 74.8492ZM35.0079 67.4839C35.0079 66.5633 35.6984 65.8728 36.6191 65.8728H62.2824C63.203 65.8728 63.8935 66.5633 63.8935 67.4839V73.8134H35.0079V67.4839Z" fill="white"/>
<path d="M41.3374 60.0036C41.7977 59.5433 41.7977 58.8528 41.3374 58.3925L34.0873 51.4876C33.6269 51.0273 32.9364 51.0273 32.4761 51.4876C32.0158 51.9479 32.0158 52.6384 32.4761 53.0987L39.7263 60.0036C40.1866 60.464 40.9922 60.464 41.3374 60.0036Z" fill="white"/>
<path d="M50.6591 59.1981V52.2932C50.6591 51.6027 50.1987 51.1423 49.5082 51.1423C48.8177 51.1423 48.3574 51.6027 48.3574 52.2932V59.1981C48.3574 59.8886 48.8177 60.3489 49.5082 60.3489C50.1987 60.3489 50.6591 59.8886 50.6591 59.1981Z" fill="white"/>
<path d="M59.2904 60.0036L66.5405 53.0987C67.0009 52.6384 67.0009 51.9479 66.5405 51.4876C66.0802 51.0273 65.3897 51.0273 64.9294 51.4876L57.6792 58.3925C57.2189 58.8528 57.2189 59.5433 57.6792 60.0036C58.1396 60.464 58.8301 60.464 59.2904 60.0036Z" fill="white"/>
</svg>
