<svg width="30" height="50" viewBox="0 0 30 50" fill="none" xmlns="http://www.w3.org/2000/svg">
<path d="M24.9814 50H4.94424C2.19331 50 0 47.7064 0 44.9158V5.08416C0 2.25541 2.23049 0 4.94424 0H25.0185C27.7695 0 30 2.29364 30 5.08416V44.9158C29.9628 47.7064 27.7323 50 24.9814 50ZM4.94424 3.21111C3.94052 3.21111 3.15987 4.05201 3.15987 5.04589V44.8776C3.15987 45.9097 3.9777 46.7126 4.94424 46.7126H25.0185C26.0223 46.7126 26.803 45.8715 26.803 44.8776V5.08416C26.803 4.05205 25.9851 3.24937 25.0185 3.24937H4.94424V3.21111Z" fill="#343434"/>
<path d="M21.6762 41.0963H8.2933C6.36022 41.0963 4.76172 39.4907 4.76172 37.4647V12.159C4.76172 10.1712 6.32304 8.52765 8.2933 8.52765H21.6762C23.6093 8.52765 25.2078 10.133 25.2078 12.159V37.4647C25.1706 39.4907 23.6093 41.0963 21.6762 41.0963ZM8.2933 11.2798C7.81003 11.2798 7.40115 11.7003 7.40115 12.1972V37.503C7.40115 37.9999 7.81003 38.4204 8.2933 38.4204H21.6762C22.1595 38.4204 22.5684 37.9999 22.5684 37.503V12.1972C22.5684 11.7003 22.1595 11.2798 21.6762 11.2798H8.2933Z" fill="#343434"/>
<path d="M20.0475 7.03704H9.89534C9.15159 7.03704 8.59375 6.42507 8.59375 5.69852C8.59375 4.93373 9.18877 4.36023 9.89534 4.36023H20.0475C20.7913 4.36023 21.3491 4.97197 21.3491 5.69852C21.3491 6.42507 20.7913 7.03704 20.0475 7.03704Z" fill="#343434"/>
<path d="M17.2556 44.1136C17.2556 45.4138 16.2516 46.4462 14.9872 46.4462C13.7228 46.4462 12.7188 45.4138 12.7188 44.1136C12.7188 42.8135 13.7228 41.7808 14.9872 41.7808C16.2144 41.7808 17.2556 42.8135 17.2556 44.1136Z" fill="#343434"/>
</svg>
