<svg width="36" height="27" viewBox="0 0 36 27" fill="none" xmlns="http://www.w3.org/2000/svg">
<path d="M32.8299 0H3.17015C1.42388 0 0 1.40157 0 3.12047V23.8795C0 25.5984 1.42388 27 3.17015 27H32.8299C34.5761 27 36 25.5984 36 23.8795V3.12047C36 1.40157 34.5761 0 32.8299 0ZM32.4 2.08913L18.0806 16.1841L3.6 2.08913H32.4ZM2.12239 23.4564V3.54358L12.2776 13.4603L2.12239 23.4564ZM3.6 24.9109L13.7552 14.9148L17.3284 18.379C17.7313 18.7757 18.403 18.7757 18.806 18.379L22.2985 14.9677L32.4 24.9109H3.6ZM33.8776 23.4564L23.7761 13.4868L33.8776 3.54358V23.4564Z" fill="#343434"/>
</svg>
